<?xml version="1.0" encoding="utf-8" standalone="no"?>
<!DOCTYPE svg PUBLIC "-//W3C//DTD SVG 1.1//EN"
  "http://www.w3.org/Graphics/SVG/1.1/DTD/svg11.dtd">
<svg xmlns:xlink="http://www.w3.org/1999/xlink" width="799.638261pt" height="550.957187pt" viewBox="0 0 799.638261 550.957187" xmlns="http://www.w3.org/2000/svg" version="1.1">
 <metadata>
  <rdf:RDF xmlns:dc="http://purl.org/dc/elements/1.1/" xmlns:cc="http://creativecommons.org/ns#" xmlns:rdf="http://www.w3.org/1999/02/22-rdf-syntax-ns#">
   <cc:Work>
    <dc:type rdf:resource="http://purl.org/dc/dcmitype/StillImage"/>
    <dc:date>2026-07-16T17:31:30.365496</dc:date>
    <dc:format>image/svg+xml</dc:format>
    <dc:creator>
     <cc:Agent>
      <dc:title>Matplotlib v3.11.0, https://matplotlib.org/</dc:title>
     </cc:Agent>
    </dc:creator>
   </cc:Work>
  </rdf:RDF>
 </metadata>
 <defs>
  <style type="text/css">*{stroke-linejoin: round; stroke-linecap: butt}</style>
 </defs>
 <g id="figure_1">
  <g id="patch_1">
   <path d="M 0 550.957187 
L 799.638261 550.957187 
L 799.638261 0 
L 0 0 
z
" style="fill: #ffffff"/>
  </g>
  <g id="axes_1">
   <g id="patch_2">
    <path d="M 282.678261 101.890057 
C 288.230645 101.890057 293.556366 99.684071 297.482494 95.757943 
C 301.408623 91.831814 303.614609 86.506094 303.614609 80.953709 
C 303.614609 75.401325 301.408623 70.075604 297.482494 66.149476 
C 293.556366 62.223347 288.230645 60.017361 282.678261 60.017361 
C 277.125877 60.017361 271.800156 62.223347 267.874027 66.149476 
C 263.947899 70.075604 261.741913 75.401325 261.741913 80.953709 
C 261.741913 86.506094 263.947899 91.831814 267.874027 95.757943 
C 271.800156 99.684071 277.125877 101.890057 282.678261 101.890057 
z
" clip-path="url(#pea21be8204)" style="fill: #e5e5e5; stroke: #666666; stroke-width: 2.1; stroke-linejoin: miter"/>
   </g>
   <g id="patch_3">
    <path d="M 200.034783 156.985709 
C 205.587167 156.985709 210.912888 154.779724 214.839016 150.853595 
C 218.765145 146.927466 220.97113 141.601746 220.97113 136.049361 
C 220.97113 130.496977 218.765145 125.171257 214.839016 121.245128 
C 210.912888 117.318999 205.587167 115.113014 200.034783 115.113014 
C 194.482398 115.113014 189.156678 117.318999 185.230549 121.245128 
C 181.30442 125.171257 179.098435 130.496977 179.098435 136.049361 
C 179.098435 141.601746 181.30442 146.927466 185.230549 150.853595 
C 189.156678 154.779724 194.482398 156.985709 200.034783 156.985709 
z
" clip-path="url(#pea21be8204)" style="fill: #f4d0d0; stroke: #b33b3b; stroke-width: 2.1; stroke-linejoin: miter"/>
   </g>
   <g id="patch_4">
    <path d="M 365.321739 156.985709 
C 370.874123 156.985709 376.199844 154.779724 380.125973 150.853595 
C 384.052101 146.927466 386.258087 141.601746 386.258087 136.049361 
C 386.258087 130.496977 384.052101 125.171257 380.125973 121.245128 
C 376.199844 117.318999 370.874123 115.113014 365.321739 115.113014 
C 359.769355 115.113014 354.443634 117.318999 350.517506 121.245128 
C 346.591377 125.171257 344.385391 130.496977 344.385391 136.049361 
C 344.385391 141.601746 346.591377 146.927466 350.517506 150.853595 
C 354.443634 154.779724 359.769355 156.985709 365.321739 156.985709 
z
" clip-path="url(#pea21be8204)" style="fill: #d4e4f8; stroke: #3a6fae; stroke-width: 2.1; stroke-linejoin: miter"/>
   </g>
   <g id="patch_5">
    <path d="M 282.678261 201.062231 
C 288.230645 201.062231 293.556366 198.856245 297.482494 194.930117 
C 301.408623 191.003988 303.614609 185.678267 303.614609 180.125883 
C 303.614609 174.573499 301.408623 169.247778 297.482494 165.32165 
C 293.556366 161.395521 288.230645 159.189535 282.678261 159.189535 
C 277.125877 159.189535 271.800156 161.395521 267.874027 165.32165 
C 263.947899 169.247778 261.741913 174.573499 261.741913 180.125883 
C 261.741913 185.678267 263.947899 191.003988 267.874027 194.930117 
C 271.800156 198.856245 277.125877 201.062231 282.678261 201.062231 
z
" clip-path="url(#pea21be8204)" style="fill: #e0e0e0; stroke: #333333; stroke-width: 2.1; stroke-linejoin: miter"/>
   </g>
   <g id="patch_6">
    <path d="M 128.410435 250.648318 
C 133.962819 250.648318 139.28854 248.442332 143.214668 244.516204 
C 147.140797 240.590075 149.346783 235.264354 149.346783 229.71197 
C 149.346783 224.159586 147.140797 218.833865 143.214668 214.907737 
C 139.28854 210.981608 133.962819 208.775622 128.410435 208.775622 
C 122.85805 208.775622 117.53233 210.981608 113.606201 214.907737 
C 109.680073 218.833865 107.474087 224.159586 107.474087 229.71197 
C 107.474087 235.264354 109.680073 240.590075 113.606201 244.516204 
C 117.53233 248.442332 122.85805 250.648318 128.410435 250.648318 
z
" clip-path="url(#pea21be8204)" style="fill: #e5e5e5; stroke: #666666; stroke-width: 2.1; stroke-linejoin: miter"/>
   </g>
   <g id="patch_7">
    <path d="M 282.678261 250.648318 
C 288.230645 250.648318 293.556366 248.442332 297.482494 244.516204 
C 301.408623 240.590075 303.614609 235.264354 303.614609 229.71197 
C 303.614609 224.159586 301.408623 218.833865 297.482494 214.907737 
C 293.556366 210.981608 288.230645 208.775622 282.678261 208.775622 
C 277.125877 208.775622 271.800156 210.981608 267.874027 214.907737 
C 263.947899 218.833865 261.741913 224.159586 261.741913 229.71197 
C 261.741913 235.264354 263.947899 240.590075 267.874027 244.516204 
C 271.800156 248.442332 277.125877 250.648318 282.678261 250.648318 
z
" clip-path="url(#pea21be8204)" style="fill: #f6e5a3; stroke: #c39a00; stroke-width: 2.1; stroke-linejoin: miter"/>
   </g>
   <g id="patch_8">
    <path d="M 436.946087 250.648318 
C 442.498471 250.648318 447.824192 248.442332 451.75032 244.516204 
C 455.676449 240.590075 457.882435 235.264354 457.882435 229.71197 
C 457.882435 224.159586 455.676449 218.833865 451.75032 214.907737 
C 447.824192 210.981608 442.498471 208.775622 436.946087 208.775622 
C 431.393703 208.775622 426.067982 210.981608 422.141853 214.907737 
C 418.215725 218.833865 416.009739 224.159586 416.009739 229.71197 
C 416.009739 235.264354 418.215725 240.590075 422.141853 244.516204 
C 426.067982 248.442332 431.393703 250.648318 436.946087 250.648318 
z
" clip-path="url(#pea21be8204)" style="fill: #f4d0d0; stroke: #b33b3b; stroke-width: 2.1; stroke-linejoin: miter"/>
   </g>
   <g id="patch_9">
    <path d="M 51.276522 322.272666 
C 56.828906 322.272666 62.154627 320.06668 66.080755 316.140551 
C 70.006884 312.214423 72.21287 306.888702 72.21287 301.336318 
C 72.21287 295.783934 70.006884 290.458213 66.080755 286.532084 
C 62.154627 282.605956 56.828906 280.39997 51.276522 280.39997 
C 45.724137 280.39997 40.398417 282.605956 36.472288 286.532084 
C 32.54616 290.458213 30.340174 295.783934 30.340174 301.336318 
C 30.340174 306.888702 32.54616 312.214423 36.472288 316.140551 
C 40.398417 320.06668 45.724137 322.272666 51.276522 322.272666 
z
" clip-path="url(#pea21be8204)" style="fill: #e0e0e0; stroke: #333333; stroke-width: 2.1; stroke-linejoin: miter"/>
   </g>
   <g id="patch_10">
    <path d="M 128.410435 322.272666 
C 133.962819 322.272666 139.28854 320.06668 143.214668 316.140551 
C 147.140797 312.214423 149.346783 306.888702 149.346783 301.336318 
C 149.346783 295.783934 147.140797 290.458213 143.214668 286.532084 
C 139.28854 282.605956 133.962819 280.39997 128.410435 280.39997 
C 122.85805 280.39997 117.53233 282.605956 113.606201 286.532084 
C 109.680073 290.458213 107.474087 295.783934 107.474087 301.336318 
C 107.474087 306.888702 109.680073 312.214423 113.606201 316.140551 
C 117.53233 320.06668 122.85805 322.272666 128.410435 322.272666 
z
" clip-path="url(#pea21be8204)" style="fill: #d4e4f8; stroke: #3a6fae; stroke-width: 2.1; stroke-linejoin: miter"/>
   </g>
   <g id="patch_11">
    <path d="M 205.544348 322.272666 
C 211.096732 322.272666 216.422453 320.06668 220.348581 316.140551 
C 224.27471 312.214423 226.480696 306.888702 226.480696 301.336318 
C 226.480696 295.783934 224.27471 290.458213 220.348581 286.532084 
C 216.422453 282.605956 211.096732 280.39997 205.544348 280.39997 
C 199.991963 280.39997 194.666243 282.605956 190.740114 286.532084 
C 186.813986 290.458213 184.608 295.783934 184.608 301.336318 
C 184.608 306.888702 186.813986 312.214423 190.740114 316.140551 
C 194.666243 320.06668 199.991963 322.272666 205.544348 322.272666 
z
" clip-path="url(#pea21be8204)" style="fill: #e0e0e0; stroke: #333333; stroke-width: 2.1; stroke-linejoin: miter"/>
   </g>
   <g id="patch_12">
    <path d="M 282.678261 322.272666 
C 288.230645 322.272666 293.556366 320.06668 297.482494 316.140551 
C 301.408623 312.214423 303.614609 306.888702 303.614609 301.336318 
C 303.614609 295.783934 301.408623 290.458213 297.482494 286.532084 
C 293.556366 282.605956 288.230645 280.39997 282.678261 280.39997 
C 277.125877 280.39997 271.800156 282.605956 267.874027 286.532084 
C 263.947899 290.458213 261.741913 295.783934 261.741913 301.336318 
C 261.741913 306.888702 263.947899 312.214423 267.874027 316.140551 
C 271.800156 320.06668 277.125877 322.272666 282.678261 322.272666 
z
" clip-path="url(#pea21be8204)" style="fill: #f6e5a3; stroke: #c39a00; stroke-width: 2.1; stroke-linejoin: miter"/>
   </g>
   <g id="patch_13">
    <path d="M 359.812174 322.272666 
C 365.364558 322.272666 370.690279 320.06668 374.616407 316.140551 
C 378.542536 312.214423 380.748522 306.888702 380.748522 301.336318 
C 380.748522 295.783934 378.542536 290.458213 374.616407 286.532084 
C 370.690279 282.605956 365.364558 280.39997 359.812174 280.39997 
C 354.25979 280.39997 348.934069 282.605956 345.00794 286.532084 
C 341.081812 290.458213 338.875826 295.783934 338.875826 301.336318 
C 338.875826 306.888702 341.081812 312.214423 345.00794 316.140551 
C 348.934069 320.06668 354.25979 322.272666 359.812174 322.272666 
z
" clip-path="url(#pea21be8204)" style="fill: #f6e5a3; stroke: #c39a00; stroke-width: 2.1; stroke-linejoin: miter"/>
   </g>
   <g id="patch_14">
    <path d="M 436.946087 322.272666 
C 442.498471 322.272666 447.824192 320.06668 451.75032 316.140551 
C 455.676449 312.214423 457.882435 306.888702 457.882435 301.336318 
C 457.882435 295.783934 455.676449 290.458213 451.75032 286.532084 
C 447.824192 282.605956 442.498471 280.39997 436.946087 280.39997 
C 431.393703 280.39997 426.067982 282.605956 422.141853 286.532084 
C 418.215725 290.458213 416.009739 295.783934 416.009739 301.336318 
C 416.009739 306.888702 418.215725 312.214423 422.141853 316.140551 
C 426.067982 320.06668 431.393703 322.272666 436.946087 322.272666 
z
" clip-path="url(#pea21be8204)" style="fill: #e5e5e5; stroke: #666666; stroke-width: 2.1; stroke-linejoin: miter"/>
   </g>
   <g id="patch_15">
    <path d="M 514.08 322.272666 
C 519.632384 322.272666 524.958105 320.06668 528.884234 316.140551 
C 532.810362 312.214423 535.016348 306.888702 535.016348 301.336318 
C 535.016348 295.783934 532.810362 290.458213 528.884234 286.532084 
C 524.958105 282.605956 519.632384 280.39997 514.08 280.39997 
C 508.527616 280.39997 503.201895 282.605956 499.275766 286.532084 
C 495.349638 290.458213 493.143652 295.783934 493.143652 301.336318 
C 493.143652 306.888702 495.349638 312.214423 499.275766 316.140551 
C 503.201895 320.06668 508.527616 322.272666 514.08 322.272666 
z
" clip-path="url(#pea21be8204)" style="fill: #d4e4f8; stroke: #3a6fae; stroke-width: 2.1; stroke-linejoin: miter"/>
   </g>
   <g id="patch_16">
    <path d="M 128.410435 388.387448 
C 133.962819 388.387448 139.28854 386.181463 143.214668 382.255334 
C 147.140797 378.329205 149.346783 373.003485 149.346783 367.451101 
C 149.346783 361.898716 147.140797 356.572996 143.214668 352.646867 
C 139.28854 348.720738 133.962819 346.514753 128.410435 346.514753 
C 122.85805 346.514753 117.53233 348.720738 113.606201 352.646867 
C 109.680073 356.572996 107.474087 361.898716 107.474087 367.451101 
C 107.474087 373.003485 109.680073 378.329205 113.606201 382.255334 
C 117.53233 386.181463 122.85805 388.387448 128.410435 388.387448 
z
" clip-path="url(#pea21be8204)" style="fill: #e0e0e0; stroke: #333333; stroke-width: 2.1; stroke-linejoin: miter"/>
   </g>
   <g id="patch_17">
    <path d="M 282.678261 388.387448 
C 288.230645 388.387448 293.556366 386.181463 297.482494 382.255334 
C 301.408623 378.329205 303.614609 373.003485 303.614609 367.451101 
C 303.614609 361.898716 301.408623 356.572996 297.482494 352.646867 
C 293.556366 348.720738 288.230645 346.514753 282.678261 346.514753 
C 277.125877 346.514753 271.800156 348.720738 267.874027 352.646867 
C 263.947899 356.572996 261.741913 361.898716 261.741913 367.451101 
C 261.741913 373.003485 263.947899 378.329205 267.874027 382.255334 
C 271.800156 386.181463 277.125877 388.387448 282.678261 388.387448 
z
" clip-path="url(#pea21be8204)" style="fill: #e5e5e5; stroke: #666666; stroke-width: 2.1; stroke-linejoin: miter"/>
   </g>
   <g id="patch_18">
    <path d="M 436.946087 388.387448 
C 442.498471 388.387448 447.824192 386.181463 451.75032 382.255334 
C 455.676449 378.329205 457.882435 373.003485 457.882435 367.451101 
C 457.882435 361.898716 455.676449 356.572996 451.75032 352.646867 
C 447.824192 348.720738 442.498471 346.514753 436.946087 346.514753 
C 431.393703 346.514753 426.067982 348.720738 422.141853 352.646867 
C 418.215725 356.572996 416.009739 361.898716 416.009739 367.451101 
C 416.009739 373.003485 418.215725 378.329205 422.141853 382.255334 
C 426.067982 386.181463 431.393703 388.387448 436.946087 388.387448 
z
" clip-path="url(#pea21be8204)" style="fill: #e0e0e0; stroke: #333333; stroke-width: 2.1; stroke-linejoin: miter"/>
   </g>
   <g id="patch_19">
    <path d="M 183.506087 454.502231 
C 189.058471 454.502231 194.384192 452.296245 198.31032 448.370117 
C 202.236449 444.443988 204.442435 439.118267 204.442435 433.565883 
C 204.442435 428.013499 202.236449 422.687778 198.31032 418.76165 
C 194.384192 414.835521 189.058471 412.629535 183.506087 412.629535 
C 177.953703 412.629535 172.627982 414.835521 168.701853 418.76165 
C 164.775725 422.687778 162.569739 428.013499 162.569739 433.565883 
C 162.569739 439.118267 164.775725 444.443988 168.701853 448.370117 
C 172.627982 452.296245 177.953703 454.502231 183.506087 454.502231 
z
" clip-path="url(#pea21be8204)" style="fill: #e5e5e5; stroke: #666666; stroke-width: 2.1; stroke-linejoin: miter"/>
   </g>
   <g id="patch_20">
    <path d="M 282.678261 454.502231 
C 288.230645 454.502231 293.556366 452.296245 297.482494 448.370117 
C 301.408623 444.443988 303.614609 439.118267 303.614609 433.565883 
C 303.614609 428.013499 301.408623 422.687778 297.482494 418.76165 
C 293.556366 414.835521 288.230645 412.629535 282.678261 412.629535 
C 277.125877 412.629535 271.800156 414.835521 267.874027 418.76165 
C 263.947899 422.687778 261.741913 428.013499 261.741913 433.565883 
C 261.741913 439.118267 263.947899 444.443988 267.874027 448.370117 
C 271.800156 452.296245 277.125877 454.502231 282.678261 454.502231 
z
" clip-path="url(#pea21be8204)" style="fill: #f4d0d0; stroke: #b33b3b; stroke-width: 2.1; stroke-linejoin: miter"/>
   </g>
   <g id="patch_21">
    <path d="M 381.850435 454.502231 
C 387.402819 454.502231 392.72854 452.296245 396.654668 448.370117 
C 400.580797 444.443988 402.786783 439.118267 402.786783 433.565883 
C 402.786783 428.013499 400.580797 422.687778 396.654668 418.76165 
C 392.72854 414.835521 387.402819 412.629535 381.850435 412.629535 
C 376.29805 412.629535 370.97233 414.835521 367.046201 418.76165 
C 363.120073 422.687778 360.914087 428.013499 360.914087 433.565883 
C 360.914087 439.118267 363.120073 444.443988 367.046201 448.370117 
C 370.97233 452.296245 376.29805 454.502231 381.850435 454.502231 
z
" clip-path="url(#pea21be8204)" style="fill: #d4e4f8; stroke: #3a6fae; stroke-width: 2.1; stroke-linejoin: miter"/>
   </g>
   <g id="patch_22">
    <path d="M 282.678261 526.126579 
C 288.230645 526.126579 293.556366 523.920593 297.482494 519.994464 
C 301.408623 516.068336 303.614609 510.742615 303.614609 505.190231 
C 303.614609 499.637847 301.408623 494.312126 297.482494 490.385997 
C 293.556366 486.459869 288.230645 484.253883 282.678261 484.253883 
C 277.125877 484.253883 271.800156 486.459869 267.874027 490.385997 
C 263.947899 494.312126 261.741913 499.637847 261.741913 505.190231 
C 261.741913 510.742615 263.947899 516.068336 267.874027 519.994464 
C 271.800156 523.920593 277.125877 526.126579 282.678261 526.126579 
z
" clip-path="url(#pea21be8204)" style="fill: #f4d0d0; stroke: #b33b3b; stroke-width: 2.1; stroke-linejoin: miter"/>
   </g>
   <g id="text_1">
    <!-- 19 -->
    <g style="fill: #222222" transform="translate(273.134511 84.850194) scale(0.15 -0.15)">
     <defs>
      <path id="DejaVuSans-14" d="M 794 531 
L 1825 531 
L 1825 4091 
L 703 3866 
L 703 4441 
L 1819 4666 
L 2450 4666 
L 2450 531 
L 3481 531 
L 3481 0 
L 794 0 
L 794 531 
z
" transform="scale(0.015625)"/>
      <path id="DejaVuSans-1c" d="M 703 97 
L 703 672 
Q 941 559 1184 500 
Q 1428 441 1663 441 
Q 2288 441 2617 861 
Q 2947 1281 2994 2138 
Q 2813 1869 2534 1725 
Q 2256 1581 1919 1581 
Q 1219 1581 811 2004 
Q 403 2428 403 3163 
Q 403 3881 828 4315 
Q 1253 4750 1959 4750 
Q 2769 4750 3195 4129 
Q 3622 3509 3622 2328 
Q 3622 1225 3098 567 
Q 2575 -91 1691 -91 
Q 1453 -91 1209 -44 
Q 966 3 703 97 
z
M 1959 2075 
Q 2384 2075 2632 2365 
Q 2881 2656 2881 3163 
Q 2881 3666 2632 3958 
Q 2384 4250 1959 4250 
Q 1534 4250 1286 3958 
Q 1038 3666 1038 3163 
Q 1038 2656 1286 2365 
Q 1534 2075 1959 2075 
z
" transform="scale(0.015625)"/>
     </defs>
     <use xlink:href="#DejaVuSans-14"/>
     <use xlink:href="#DejaVuSans-1c" transform="translate(63.625 0)"/>
    </g>
   </g>
   <g id="text_2">
    <!-- 12 -->
    <g style="fill: #7a2020" transform="translate(190.491033 139.945846) scale(0.15 -0.15)">
     <defs>
      <path id="DejaVuSans-15" d="M 1228 531 
L 3431 531 
L 3431 0 
L 469 0 
L 469 531 
Q 828 903 1448 1529 
Q 2069 2156 2228 2338 
Q 2531 2678 2651 2914 
Q 2772 3150 2772 3378 
Q 2772 3750 2511 3984 
Q 2250 4219 1831 4219 
Q 1534 4219 1204 4116 
Q 875 4013 500 3803 
L 500 4441 
Q 881 4594 1212 4672 
Q 1544 4750 1819 4750 
Q 2544 4750 2975 4387 
Q 3406 4025 3406 3419 
Q 3406 3131 3298 2873 
Q 3191 2616 2906 2266 
Q 2828 2175 2409 1742 
Q 1991 1309 1228 531 
z
" transform="scale(0.015625)"/>
     </defs>
     <use xlink:href="#DejaVuSans-14"/>
     <use xlink:href="#DejaVuSans-15" transform="translate(63.625 0)"/>
    </g>
   </g>
   <g id="text_3">
    <!-- 8 -->
    <g style="fill: #244e80" transform="translate(360.549864 139.945846) scale(0.15 -0.15)">
     <defs>
      <path id="DejaVuSans-1b" d="M 2034 2216 
Q 1584 2216 1326 1975 
Q 1069 1734 1069 1313 
Q 1069 891 1326 650 
Q 1584 409 2034 409 
Q 2484 409 2743 651 
Q 3003 894 3003 1313 
Q 3003 1734 2745 1975 
Q 2488 2216 2034 2216 
z
M 1403 2484 
Q 997 2584 770 2862 
Q 544 3141 544 3541 
Q 544 4100 942 4425 
Q 1341 4750 2034 4750 
Q 2731 4750 3128 4425 
Q 3525 4100 3525 3541 
Q 3525 3141 3298 2862 
Q 3072 2584 2669 2484 
Q 3125 2378 3379 2068 
Q 3634 1759 3634 1313 
Q 3634 634 3220 271 
Q 2806 -91 2034 -91 
Q 1263 -91 848 271 
Q 434 634 434 1313 
Q 434 1759 690 2068 
Q 947 2378 1403 2484 
z
M 1172 3481 
Q 1172 3119 1398 2916 
Q 1625 2713 2034 2713 
Q 2441 2713 2670 2916 
Q 2900 3119 2900 3481 
Q 2900 3844 2670 4047 
Q 2441 4250 2034 4250 
Q 1625 4250 1398 4047 
Q 1172 3844 1172 3481 
z
" transform="scale(0.015625)"/>
     </defs>
     <use xlink:href="#DejaVuSans-1b"/>
    </g>
   </g>
   <g id="text_4">
    <!-- 6 -->
    <g style="fill: #111111" transform="translate(277.906386 184.022368) scale(0.15 -0.15)">
     <defs>
      <path id="DejaVuSans-19" d="M 2113 2584 
Q 1688 2584 1439 2293 
Q 1191 2003 1191 1497 
Q 1191 994 1439 701 
Q 1688 409 2113 409 
Q 2538 409 2786 701 
Q 3034 994 3034 1497 
Q 3034 2003 2786 2293 
Q 2538 2584 2113 2584 
z
M 3366 4563 
L 3366 3988 
Q 3128 4100 2886 4159 
Q 2644 4219 2406 4219 
Q 1781 4219 1451 3797 
Q 1122 3375 1075 2522 
Q 1259 2794 1537 2939 
Q 1816 3084 2150 3084 
Q 2853 3084 3261 2657 
Q 3669 2231 3669 1497 
Q 3669 778 3244 343 
Q 2819 -91 2113 -91 
Q 1303 -91 875 529 
Q 447 1150 447 2328 
Q 447 3434 972 4092 
Q 1497 4750 2381 4750 
Q 2619 4750 2861 4703 
Q 3103 4656 3366 4563 
z
" transform="scale(0.015625)"/>
     </defs>
     <use xlink:href="#DejaVuSans-19"/>
    </g>
   </g>
   <g id="text_5">
    <!-- 4 -->
    <g style="fill: #222222" transform="translate(123.63856 233.608454) scale(0.15 -0.15)">
     <defs>
      <path id="DejaVuSans-17" d="M 2419 4116 
L 825 1625 
L 2419 1625 
L 2419 4116 
z
M 2253 4666 
L 3047 4666 
L 3047 1625 
L 3713 1625 
L 3713 1100 
L 3047 1100 
L 3047 0 
L 2419 0 
L 2419 1100 
L 313 1100 
L 313 1709 
L 2253 4666 
z
" transform="scale(0.015625)"/>
     </defs>
     <use xlink:href="#DejaVuSans-17"/>
    </g>
   </g>
   <g id="text_6">
    <!-- 20 -->
    <g style="fill: #735700" transform="translate(273.134511 233.608454) scale(0.15 -0.15)">
     <defs>
      <path id="DejaVuSans-13" d="M 2034 4250 
Q 1547 4250 1301 3770 
Q 1056 3291 1056 2328 
Q 1056 1369 1301 889 
Q 1547 409 2034 409 
Q 2525 409 2770 889 
Q 3016 1369 3016 2328 
Q 3016 3291 2770 3770 
Q 2525 4250 2034 4250 
z
M 2034 4750 
Q 2819 4750 3233 4129 
Q 3647 3509 3647 2328 
Q 3647 1150 3233 529 
Q 2819 -91 2034 -91 
Q 1250 -91 836 529 
Q 422 1150 422 2328 
Q 422 3509 836 4129 
Q 1250 4750 2034 4750 
z
" transform="scale(0.015625)"/>
     </defs>
     <use xlink:href="#DejaVuSans-15"/>
     <use xlink:href="#DejaVuSans-13" transform="translate(63.625 0)"/>
    </g>
   </g>
   <g id="text_7">
    <!-- 7 -->
    <g style="fill: #7a2020" transform="translate(432.174212 233.608454) scale(0.15 -0.15)">
     <defs>
      <path id="DejaVuSans-1a" d="M 525 4666 
L 3525 4666 
L 3525 4397 
L 1831 0 
L 1172 0 
L 2766 4134 
L 525 4134 
L 525 4666 
z
" transform="scale(0.015625)"/>
     </defs>
     <use xlink:href="#DejaVuSans-1a"/>
    </g>
   </g>
   <g id="text_8">
    <!-- 21 -->
    <g style="fill: #111111" transform="translate(41.732772 305.232802) scale(0.15 -0.15)">
     <use xlink:href="#DejaVuSans-15"/>
     <use xlink:href="#DejaVuSans-14" transform="translate(63.625 0)"/>
    </g>
   </g>
   <g id="text_9">
    <!-- 23 -->
    <g style="fill: #244e80" transform="translate(118.866685 305.232802) scale(0.15 -0.15)">
     <defs>
      <path id="DejaVuSans-16" d="M 2597 2516 
Q 3050 2419 3304 2112 
Q 3559 1806 3559 1356 
Q 3559 666 3084 287 
Q 2609 -91 1734 -91 
Q 1441 -91 1130 -33 
Q 819 25 488 141 
L 488 750 
Q 750 597 1062 519 
Q 1375 441 1716 441 
Q 2309 441 2620 675 
Q 2931 909 2931 1356 
Q 2931 1769 2642 2001 
Q 2353 2234 1838 2234 
L 1294 2234 
L 1294 2753 
L 1863 2753 
Q 2328 2753 2575 2939 
Q 2822 3125 2822 3475 
Q 2822 3834 2567 4026 
Q 2313 4219 1838 4219 
Q 1578 4219 1281 4162 
Q 984 4106 628 3988 
L 628 4550 
Q 988 4650 1302 4700 
Q 1616 4750 1894 4750 
Q 2613 4750 3031 4423 
Q 3450 4097 3450 3541 
Q 3450 3153 3228 2886 
Q 3006 2619 2597 2516 
z
" transform="scale(0.015625)"/>
     </defs>
     <use xlink:href="#DejaVuSans-15"/>
     <use xlink:href="#DejaVuSans-16" transform="translate(63.625 0)"/>
    </g>
   </g>
   <g id="text_10">
    <!-- 1 -->
    <g style="fill: #111111" transform="translate(200.772473 305.232802) scale(0.15 -0.15)">
     <use xlink:href="#DejaVuSans-14"/>
    </g>
   </g>
   <g id="text_11">
    <!-- 5 -->
    <g style="fill: #735700" transform="translate(277.906386 305.232802) scale(0.15 -0.15)">
     <defs>
      <path id="DejaVuSans-18" d="M 691 4666 
L 3169 4666 
L 3169 4134 
L 1269 4134 
L 1269 2991 
Q 1406 3038 1543 3061 
Q 1681 3084 1819 3084 
Q 2600 3084 3056 2656 
Q 3513 2228 3513 1497 
Q 3513 744 3044 326 
Q 2575 -91 1722 -91 
Q 1428 -91 1123 -41 
Q 819 9 494 109 
L 494 744 
Q 775 591 1075 516 
Q 1375 441 1709 441 
Q 2250 441 2565 725 
Q 2881 1009 2881 1497 
Q 2881 1984 2565 2268 
Q 2250 2553 1709 2553 
Q 1456 2553 1204 2497 
Q 953 2441 691 2322 
L 691 4666 
z
" transform="scale(0.015625)"/>
     </defs>
     <use xlink:href="#DejaVuSans-18"/>
    </g>
   </g>
   <g id="text_12">
    <!-- 15 -->
    <g style="fill: #735700" transform="translate(350.268424 305.232802) scale(0.15 -0.15)">
     <use xlink:href="#DejaVuSans-14"/>
     <use xlink:href="#DejaVuSans-18" transform="translate(63.625 0)"/>
    </g>
   </g>
   <g id="text_13">
    <!-- 14 -->
    <g style="fill: #222222" transform="translate(427.402337 305.232802) scale(0.15 -0.15)">
     <use xlink:href="#DejaVuSans-14"/>
     <use xlink:href="#DejaVuSans-17" transform="translate(63.625 0)"/>
    </g>
   </g>
   <g id="text_14">
    <!-- 18 -->
    <g style="fill: #244e80" transform="translate(504.53625 305.232802) scale(0.15 -0.15)">
     <use xlink:href="#DejaVuSans-14"/>
     <use xlink:href="#DejaVuSans-1b" transform="translate(63.625 0)"/>
    </g>
   </g>
   <g id="text_15">
    <!-- 16 -->
    <g style="fill: #111111" transform="translate(118.866685 371.347585) scale(0.15 -0.15)">
     <use xlink:href="#DejaVuSans-14"/>
     <use xlink:href="#DejaVuSans-19" transform="translate(63.625 0)"/>
    </g>
   </g>
   <g id="text_16">
    <!-- 24 -->
    <g style="fill: #222222" transform="translate(273.134511 371.347585) scale(0.15 -0.15)">
     <use xlink:href="#DejaVuSans-15"/>
     <use xlink:href="#DejaVuSans-17" transform="translate(63.625 0)"/>
    </g>
   </g>
   <g id="text_17">
    <!-- 11 -->
    <g style="fill: #111111" transform="translate(427.402337 371.347585) scale(0.15 -0.15)">
     <use xlink:href="#DejaVuSans-14"/>
     <use xlink:href="#DejaVuSans-14" transform="translate(63.625 0)"/>
    </g>
   </g>
   <g id="text_18">
    <!-- 9 -->
    <g style="fill: #222222" transform="translate(178.734212 437.462368) scale(0.15 -0.15)">
     <use xlink:href="#DejaVuSans-1c"/>
    </g>
   </g>
   <g id="text_19">
    <!-- 17 -->
    <g style="fill: #7a2020" transform="translate(273.134511 437.462368) scale(0.15 -0.15)">
     <use xlink:href="#DejaVuSans-14"/>
     <use xlink:href="#DejaVuSans-1a" transform="translate(63.625 0)"/>
    </g>
   </g>
   <g id="text_20">
    <!-- 13 -->
    <g style="fill: #244e80" transform="translate(372.306685 437.462368) scale(0.15 -0.15)">
     <use xlink:href="#DejaVuSans-14"/>
     <use xlink:href="#DejaVuSans-16" transform="translate(63.625 0)"/>
    </g>
   </g>
   <g id="text_21">
    <!-- 2 -->
    <g style="fill: #7a2020" transform="translate(277.906386 509.086715) scale(0.15 -0.15)">
     <use xlink:href="#DejaVuSans-15"/>
    </g>
   </g>
   <g id="text_22">
    <!-- 오자각득 mod 5 잉여 클래스 도식 -->
    <g transform="translate(129.060917 20.877187) scale(0.18 -0.18)">
     <defs>
      <path id="LastResortHE-Regular-96" d="M 6734 -747 
L 6734 4250 
Q 6734 4409 6659 4534 
Q 6581 4663 6454 4738 
Q 6328 4813 6172 4813 
L 1175 4813 
Q 1022 4813 894 4738 
Q 766 4659 689 4532 
Q 613 4406 613 4250 
L 613 -747 
Q 613 -903 691 -1028 
Q 766 -1156 894 -1232 
Q 1022 -1309 1175 -1309 
L 6172 -1309 
Q 6331 -1309 6456 -1231 
Q 6584 -1156 6659 -1028 
Q 6734 -900 6734 -747 
z
M 4672 4266 
L 4672 4738 
L 4784 4738 
L 4784 4331 
L 4931 4331 
L 4931 4266 
L 4672 4266 
z
M 4547 4375 
Q 4547 4266 4444 4266 
L 4334 4266 
Q 4234 4266 4234 4369 
L 4234 4738 
L 4347 4738 
L 4347 4375 
L 4359 4344 
L 4391 4331 
L 4419 4344 
L 4431 4375 
L 4431 4738 
L 4547 4738 
L 4547 4375 
z
M 2609 4266 
L 2609 4469 
L 2525 4469 
L 2525 4266 
L 2413 4266 
L 2413 4738 
L 2525 4738 
L 2525 4534 
L 2609 4534 
L 2609 4738 
L 2725 4738 
L 2725 4266 
L 2609 4266 
z
M 4097 4375 
Q 4097 4266 3991 4266 
L 3891 4266 
Q 3784 4266 3784 4375 
L 3784 4628 
Q 3784 4738 3891 4738 
L 3991 4738 
Q 4091 4738 4097 4619 
L 4034 4619 
Q 4031 4669 3991 4669 
L 3941 4669 
L 3909 4656 
L 3897 4625 
L 3897 4375 
L 3909 4344 
L 3941 4331 
Q 3981 4334 3981 4375 
L 3981 4469 
L 3931 4469 
L 3931 4534 
L 4097 4534 
L 4097 4375 
z
M 3631 4266 
L 3366 4509 
L 3366 4266 
L 3300 4266 
L 3300 4738 
L 3331 4738 
L 3600 4494 
L 3600 4738 
L 3666 4738 
L 3666 4266 
L 3631 4266 
z
M 3044 4266 
L 3044 4469 
L 2959 4469 
L 2959 4266 
L 2844 4266 
L 2844 4631 
Q 2844 4738 2947 4738 
L 3056 4738 
Q 3156 4738 3156 4628 
L 3156 4266 
L 3044 4266 
z
M 3044 4625 
L 3031 4656 
L 3000 4669 
L 2972 4656 
L 2959 4625 
L 2959 4534 
L 3044 4534 
L 3044 4625 
z
M 6122 3750 
L 6122 -247 
Q 6122 -372 6063 -472 
Q 6003 -575 5900 -636 
Q 5797 -697 5672 -697 
L 1672 -697 
Q 1553 -697 1447 -634 
Q 1344 -572 1283 -470 
Q 1222 -369 1222 -247 
L 1222 3750 
Q 1222 3872 1284 3978 
Q 1347 4078 1448 4139 
Q 1550 4200 1672 4200 
L 5672 4200 
Q 5800 4200 5900 4141 
Q 6000 4081 6061 3978 
Q 6122 3875 6122 3750 
z
M 5447 1794 
Q 5447 1928 5197 1928 
Q 5156 1928 5100 1914 
Q 5044 1900 4966 1875 
Q 4813 1819 4731 1819 
Q 4647 1819 4647 1856 
L 4647 3359 
L 4656 3381 
L 4656 3391 
Q 4656 3434 4590 3471 
Q 4525 3509 4431 3541 
Q 4334 3569 4237 3584 
Q 4141 3600 4078 3600 
Q 4019 3600 3966 3566 
L 3966 3531 
L 4228 3391 
Q 4400 3303 4400 3191 
L 4391 100 
Q 4391 -69 4450 -97 
Q 4647 34 4647 619 
L 4647 1684 
L 5303 1684 
Q 5447 1684 5447 1794 
z
M 966 2441 
L 966 2650 
L 872 2650 
L 872 2441 
L 747 2441 
L 747 2822 
Q 747 2931 859 2931 
L 978 2931 
Q 1091 2931 1091 2816 
L 1091 2441 
L 966 2441 
z
M 6600 2816 
L 6600 2553 
Q 6600 2441 6488 2441 
L 6253 2441 
L 6253 2931 
L 6488 2931 
Q 6600 2931 6600 2816 
z
M 3816 2819 
Q 3816 2897 3591 2897 
Q 3550 2897 3456 2872 
Q 3369 2844 3319 2844 
L 3013 2834 
Q 2913 2828 2836 2825 
Q 2759 2822 2706 2822 
Q 2700 2822 2679 2822 
Q 2659 2822 2628 2825 
Q 2488 2831 2309 2850 
Q 2266 2853 2228 2856 
Q 2191 2859 2156 2863 
Q 2125 2866 2103 2866 
Q 2081 2866 2072 2869 
Q 2047 2859 2034 2838 
Q 2059 2809 2111 2770 
Q 2163 2731 2225 2694 
Q 2288 2656 2344 2632 
Q 2400 2609 2434 2609 
Q 2466 2609 2547 2634 
Q 2669 2675 2816 2700 
Q 2963 2719 3108 2723 
Q 3253 2728 3378 2728 
Q 3431 2728 3431 2669 
L 3372 2522 
Q 2969 1563 1994 738 
Q 1922 675 1897 631 
L 1966 616 
Q 3006 1250 3509 2219 
Q 3575 2344 3626 2444 
Q 3678 2544 3719 2619 
Q 3756 2694 3779 2744 
Q 3803 2794 3816 2819 
z
M 6472 2816 
L 6459 2847 
L 6425 2863 
L 6378 2863 
L 6378 2509 
L 6425 2509 
L 6459 2522 
L 6472 2556 
L 6472 2816 
z
M 966 2816 
L 950 2847 
L 919 2859 
L 888 2847 
L 872 2816 
L 872 2719 
L 966 2719 
L 966 2816 
z
M 1013 1944 
L 1075 1944 
Q 1072 1822 969 1822 
L 869 1822 
Q 763 1822 763 1934 
L 763 2194 
Q 763 2306 869 2306 
L 969 2306 
Q 1069 2306 1075 2188 
L 1013 2188 
Q 1009 2238 969 2238 
L 919 2238 
L 891 2225 
L 875 2194 
L 875 1938 
L 891 1903 
L 919 1891 
L 969 1891 
Q 1006 1891 1013 1944 
z
M 6584 2194 
Q 6484 1978 6484 1822 
L 6369 1822 
L 6369 1934 
Q 6369 1988 6469 2197 
L 6469 2238 
L 6269 2238 
L 6269 2306 
L 6584 2306 
L 6584 2194 
z
M 6472 1203 
L 6472 1416 
L 6378 1416 
L 6378 1203 
L 6253 1203 
L 6253 1584 
Q 6253 1694 6366 1694 
L 6484 1694 
Q 6597 1694 6597 1581 
L 6597 1203 
L 6472 1203 
z
M 1091 1581 
L 1091 1316 
Q 1091 1203 978 1203 
L 856 1203 
Q 744 1203 744 1313 
L 744 1584 
Q 744 1694 856 1694 
L 978 1694 
Q 1091 1694 1091 1581 
z
M 966 1578 
L 950 1613 
L 919 1625 
L 884 1613 
L 872 1578 
L 872 1319 
L 884 1288 
L 919 1272 
L 950 1288 
L 966 1319 
L 966 1578 
z
M 6472 1578 
L 6456 1613 
L 6425 1625 
L 6394 1613 
L 6378 1578 
L 6378 1484 
L 6472 1484 
L 6472 1578 
z
M 6391 991 
L 6391 881 
L 6538 881 
L 6538 794 
L 6391 794 
L 6391 588 
L 6263 588 
L 6263 1078 
L 6581 1078 
L 6581 991 
L 6391 991 
z
M 1091 963 
L 1091 700 
Q 1091 588 978 588 
L 856 588 
Q 744 588 744 694 
L 744 969 
Q 744 1075 856 1075 
L 978 1075 
Q 1091 1075 1091 963 
z
M 966 963 
L 950 994 
L 919 1006 
L 884 994 
L 872 963 
L 872 703 
L 884 669 
L 919 656 
L 950 669 
L 966 703 
L 966 963 
z
M 2722 -922 
Q 2722 -1019 2625 -1031 
L 2625 -1234 
L 2509 -1234 
L 2509 -1031 
Q 2409 -1016 2409 -922 
L 2409 -763 
L 2525 -763 
L 2525 -922 
L 2538 -953 
L 2566 -966 
L 2597 -953 
L 2609 -922 
L 2609 -763 
L 2722 -763 
L 2722 -922 
z
M 2313 -881 
L 2247 -881 
Q 2241 -828 2206 -828 
Q 2197 -831 2189 -834 
Q 2181 -838 2175 -841 
Q 2172 -844 2172 -848 
Q 2172 -853 2169 -859 
Q 2166 -863 2166 -867 
Q 2166 -872 2163 -875 
Q 2163 -881 2238 -972 
Q 2309 -1063 2309 -1125 
Q 2309 -1234 2209 -1234 
L 2150 -1234 
Q 2050 -1234 2050 -1119 
L 2113 -1119 
L 2113 -1131 
L 2128 -1159 
L 2156 -1169 
L 2188 -1156 
L 2197 -1125 
Q 2197 -1113 2125 -1022 
Q 2050 -931 2050 -872 
Q 2050 -763 2150 -763 
L 2209 -763 
Q 2303 -763 2313 -881 
z
M 2828 -1234 
L 2828 -763 
L 2941 -763 
L 2941 -1169 
L 3088 -1169 
L 3088 -1234 
L 2828 -1234 
z
M 3184 -1234 
L 3184 -763 
L 3297 -763 
L 3297 -1169 
L 3444 -1169 
L 3444 -1234 
L 3184 -1234 
z
M 3734 -1234 
L 3734 -1031 
L 3647 -1031 
L 3647 -1234 
L 3534 -1234 
L 3534 -869 
Q 3534 -763 3634 -763 
L 3747 -763 
Q 3847 -763 3847 -872 
L 3847 -1234 
L 3734 -1234 
z
M 4344 -1234 
L 4344 -763 
L 4459 -763 
L 4459 -1169 
L 4606 -1169 
L 4606 -1234 
L 4344 -1234 
z
M 4691 -1234 
L 4691 -763 
L 4953 -763 
L 4953 -831 
L 4806 -831 
L 4806 -966 
L 4903 -966 
L 4903 -1031 
L 4806 -1031 
L 4806 -1169 
L 4953 -1169 
L 4953 -1234 
L 4691 -1234 
z
M 5294 -1125 
Q 5294 -1234 5194 -1234 
L 5134 -1234 
Q 5031 -1234 5031 -1119 
L 5097 -1119 
L 5097 -1131 
L 5109 -1159 
L 5138 -1169 
L 5172 -1156 
L 5181 -1125 
Q 5181 -1109 5106 -1022 
Q 5031 -931 5031 -872 
Q 5031 -763 5134 -763 
L 5194 -763 
Q 5288 -763 5294 -881 
L 5231 -881 
Q 5225 -828 5191 -828 
Q 5178 -831 5170 -834 
Q 5163 -838 5156 -841 
L 5147 -875 
Q 5147 -881 5222 -972 
Q 5294 -1063 5294 -1125 
z
M 4256 -1125 
Q 4256 -1234 4150 -1234 
L 3944 -1234 
L 3944 -763 
L 4150 -763 
Q 4256 -763 4256 -897 
Q 4256 -972 4191 -997 
Q 4256 -1019 4256 -1125 
z
M 4144 -875 
L 4128 -844 
L 4100 -831 
L 4056 -831 
L 4056 -966 
L 4100 -966 
L 4128 -953 
L 4144 -922 
L 4144 -875 
z
M 3734 -875 
L 3719 -844 
L 3691 -831 
L 3663 -844 
L 3647 -875 
L 3647 -966 
L 3734 -966 
L 3734 -875 
z
M 4144 -1075 
Q 4144 -1031 4100 -1031 
L 4056 -1031 
L 4056 -1169 
L 4100 -1169 
L 4128 -1156 
L 4144 -1125 
L 4144 -1075 
z
M 2056 2872 
Q 2056 2872 2057 2872 
Q 2059 2872 2063 2872 
Q 2069 2872 2072 2869 
Q 2081 2872 2089 2873 
Q 2097 2875 2103 2875 
Q 2056 2875 2056 2872 
z
" transform="scale(0.015625)"/>
      <path id="DejaVuSans-3" transform="scale(0.015625)"/>
      <path id="DejaVuSans-50" d="M 3328 2828 
Q 3544 3216 3844 3400 
Q 4144 3584 4550 3584 
Q 5097 3584 5394 3201 
Q 5691 2819 5691 2113 
L 5691 0 
L 5113 0 
L 5113 2094 
Q 5113 2597 4934 2840 
Q 4756 3084 4391 3084 
Q 3944 3084 3684 2787 
Q 3425 2491 3425 1978 
L 3425 0 
L 2847 0 
L 2847 2094 
Q 2847 2600 2669 2842 
Q 2491 3084 2119 3084 
Q 1678 3084 1418 2786 
Q 1159 2488 1159 1978 
L 1159 0 
L 581 0 
L 581 3500 
L 1159 3500 
L 1159 2956 
Q 1356 3278 1631 3431 
Q 1906 3584 2284 3584 
Q 2666 3584 2933 3390 
Q 3200 3197 3328 2828 
z
" transform="scale(0.015625)"/>
      <path id="DejaVuSans-52" d="M 1959 3097 
Q 1497 3097 1228 2736 
Q 959 2375 959 1747 
Q 959 1119 1226 758 
Q 1494 397 1959 397 
Q 2419 397 2687 759 
Q 2956 1122 2956 1747 
Q 2956 2369 2687 2733 
Q 2419 3097 1959 3097 
z
M 1959 3584 
Q 2709 3584 3137 3096 
Q 3566 2609 3566 1747 
Q 3566 888 3137 398 
Q 2709 -91 1959 -91 
Q 1206 -91 779 398 
Q 353 888 353 1747 
Q 353 2609 779 3096 
Q 1206 3584 1959 3584 
z
" transform="scale(0.015625)"/>
      <path id="DejaVuSans-47" d="M 2906 2969 
L 2906 4863 
L 3481 4863 
L 3481 0 
L 2906 0 
L 2906 525 
Q 2725 213 2448 61 
Q 2172 -91 1784 -91 
Q 1150 -91 751 415 
Q 353 922 353 1747 
Q 353 2572 751 3078 
Q 1150 3584 1784 3584 
Q 2172 3584 2448 3432 
Q 2725 3281 2906 2969 
z
M 947 1747 
Q 947 1113 1208 752 
Q 1469 391 1925 391 
Q 2381 391 2643 752 
Q 2906 1113 2906 1747 
Q 2906 2381 2643 2742 
Q 2381 3103 1925 3103 
Q 1469 3103 1208 2742 
Q 947 2381 947 1747 
z
" transform="scale(0.015625)"/>
     </defs>
     <use xlink:href="#LastResortHE-Regular-96"/>
     <use xlink:href="#LastResortHE-Regular-96" transform="translate(114.75 0)"/>
     <use xlink:href="#LastResortHE-Regular-96" transform="translate(229.5 0)"/>
     <use xlink:href="#LastResortHE-Regular-96" transform="translate(344.25 0)"/>
     <use xlink:href="#DejaVuSans-3" transform="translate(459 0)"/>
     <use xlink:href="#DejaVuSans-50" transform="translate(490.78125 0)"/>
     <use xlink:href="#DejaVuSans-52" transform="translate(588.1875 0)"/>
     <use xlink:href="#DejaVuSans-47" transform="translate(649.375 0)"/>
     <use xlink:href="#DejaVuSans-3" transform="translate(712.859375 0)"/>
     <use xlink:href="#DejaVuSans-18" transform="translate(744.640625 0)"/>
     <use xlink:href="#DejaVuSans-3" transform="translate(808.265625 0)"/>
     <use xlink:href="#LastResortHE-Regular-96" transform="translate(840.046875 0)"/>
     <use xlink:href="#LastResortHE-Regular-96" transform="translate(954.796875 0)"/>
     <use xlink:href="#DejaVuSans-3" transform="translate(1069.546875 0)"/>
     <use xlink:href="#LastResortHE-Regular-96" transform="translate(1101.328125 0)"/>
     <use xlink:href="#LastResortHE-Regular-96" transform="translate(1216.078125 0)"/>
     <use xlink:href="#LastResortHE-Regular-96" transform="translate(1330.828125 0)"/>
     <use xlink:href="#DejaVuSans-3" transform="translate(1445.578125 0)"/>
     <use xlink:href="#LastResortHE-Regular-96" transform="translate(1477.359375 0)"/>
     <use xlink:href="#LastResortHE-Regular-96" transform="translate(1592.109375 0)"/>
    </g>
   </g>
  </g>
  <g id="axes_2">
   <g id="patch_23">
    <path d="M 610.911861 126.733187 
C 612.172106 126.733187 613.380904 125.519368 614.272032 123.359058 
C 615.16316 121.198748 615.663861 118.268327 615.663861 115.213187 
C 615.663861 112.158048 615.16316 109.227627 614.272032 107.067317 
C 613.380904 104.907007 612.172106 103.693187 610.911861 103.693187 
C 609.651616 103.693187 608.442817 104.907007 607.551689 107.067317 
C 606.660562 109.227627 606.159861 112.158048 606.159861 115.213187 
C 606.159861 118.268327 606.660562 121.198748 607.551689 123.359058 
C 608.442817 125.519368 609.651616 126.733187 610.911861 126.733187 
z
" clip-path="url(#p80c6398881)" style="fill: #e0e0e0; stroke: #333333; stroke-width: 1.6; stroke-linejoin: miter"/>
   </g>
   <g id="patch_24">
    <path d="M 610.911861 195.853187 
C 612.172106 195.853187 613.380904 194.639368 614.272032 192.479058 
C 615.16316 190.318748 615.663861 187.388327 615.663861 184.333187 
C 615.663861 181.278048 615.16316 178.347627 614.272032 176.187317 
C 613.380904 174.027007 612.172106 172.813187 610.911861 172.813187 
C 609.651616 172.813187 608.442817 174.027007 607.551689 176.187317 
C 606.660562 178.347627 606.159861 181.278048 606.159861 184.333187 
C 606.159861 187.388327 606.660562 190.318748 607.551689 192.479058 
C 608.442817 194.639368 609.651616 195.853187 610.911861 195.853187 
z
" clip-path="url(#p80c6398881)" style="fill: #f4d0d0; stroke: #b33b3b; stroke-width: 1.6; stroke-linejoin: miter"/>
   </g>
   <g id="patch_25">
    <path d="M 610.911861 264.973187 
C 612.172106 264.973187 613.380904 263.759368 614.272032 261.599058 
C 615.16316 259.438748 615.663861 256.508327 615.663861 253.453187 
C 615.663861 250.398048 615.16316 247.467627 614.272032 245.307317 
C 613.380904 243.147007 612.172106 241.933187 610.911861 241.933187 
C 609.651616 241.933187 608.442817 243.147007 607.551689 245.307317 
C 606.660562 247.467627 606.159861 250.398048 606.159861 253.453187 
C 606.159861 256.508327 606.660562 259.438748 607.551689 261.599058 
C 608.442817 263.759368 609.651616 264.973187 610.911861 264.973187 
z
" clip-path="url(#p80c6398881)" style="fill: #d4e4f8; stroke: #3a6fae; stroke-width: 1.6; stroke-linejoin: miter"/>
   </g>
   <g id="patch_26">
    <path d="M 610.911861 334.093187 
C 612.172106 334.093187 613.380904 332.879368 614.272032 330.719058 
C 615.16316 328.558748 615.663861 325.628327 615.663861 322.573187 
C 615.663861 319.518048 615.16316 316.587627 614.272032 314.427317 
C 613.380904 312.267007 612.172106 311.053187 610.911861 311.053187 
C 609.651616 311.053187 608.442817 312.267007 607.551689 314.427317 
C 606.660562 316.587627 606.159861 319.518048 606.159861 322.573187 
C 606.159861 325.628327 606.660562 328.558748 607.551689 330.719058 
C 608.442817 332.879368 609.651616 334.093187 610.911861 334.093187 
z
" clip-path="url(#p80c6398881)" style="fill: #e5e5e5; stroke: #666666; stroke-width: 1.6; stroke-linejoin: miter"/>
   </g>
   <g id="patch_27">
    <path d="M 610.911861 403.213187 
C 612.172106 403.213187 613.380904 401.999368 614.272032 399.839058 
C 615.16316 397.678748 615.663861 394.748327 615.663861 391.693187 
C 615.663861 388.638048 615.16316 385.707627 614.272032 383.547317 
C 613.380904 381.387007 612.172106 380.173187 610.911861 380.173187 
C 609.651616 380.173187 608.442817 381.387007 607.551689 383.547317 
C 606.660562 385.707627 606.159861 388.638048 606.159861 391.693187 
C 606.159861 394.748327 606.660562 397.678748 607.551689 399.839058 
C 608.442817 401.999368 609.651616 403.213187 610.911861 403.213187 
z
" clip-path="url(#p80c6398881)" style="fill: #f6e5a3; stroke: #c39a00; stroke-width: 1.6; stroke-linejoin: miter"/>
   </g>
   <g id="text_23">
    <!-- 잉여 클래스 -->
    <g transform="translate(602.358261 82.049203) scale(0.17 -0.17)">
     <defs>
      <path id="DejaVuSans-Bold-3" transform="scale(0.015625)"/>
     </defs>
     <use xlink:href="#LastResortHE-Regular-96"/>
     <use xlink:href="#LastResortHE-Regular-96" transform="translate(114.75 0)"/>
     <use xlink:href="#DejaVuSans-Bold-3" transform="translate(229.5 0)"/>
     <use xlink:href="#LastResortHE-Regular-96" transform="translate(264.3125 0)"/>
     <use xlink:href="#LastResortHE-Regular-96" transform="translate(379.0625 0)"/>
     <use xlink:href="#LastResortHE-Regular-96" transform="translate(493.8125 0)"/>
    </g>
   </g>
   <g id="text_24">
    <!-- G1 · n mod 5 ≡ 1 -->
    <g style="fill: #111111" transform="translate(621.366261 112.671341) scale(0.115 -0.115)">
     <defs>
      <path id="DejaVuSans-Bold-2a" d="M 4781 347 
Q 4331 128 3847 18 
Q 3363 -91 2847 -91 
Q 1681 -91 1000 561 
Q 319 1213 319 2328 
Q 319 3456 1012 4103 
Q 1706 4750 2913 4750 
Q 3378 4750 3804 4662 
Q 4231 4575 4609 4403 
L 4609 3438 
Q 4219 3659 3833 3768 
Q 3447 3878 3059 3878 
Q 2341 3878 1952 3476 
Q 1563 3075 1563 2328 
Q 1563 1588 1938 1184 
Q 2313 781 3003 781 
Q 3191 781 3352 804 
Q 3513 828 3641 878 
L 3641 1784 
L 2906 1784 
L 2906 2591 
L 4781 2591 
L 4781 347 
z
" transform="scale(0.015625)"/>
      <path id="DejaVuSans-Bold-14" d="M 750 831 
L 1813 831 
L 1813 3847 
L 722 3622 
L 722 4441 
L 1806 4666 
L 2950 4666 
L 2950 831 
L 4013 831 
L 4013 0 
L 750 0 
L 750 831 
z
" transform="scale(0.015625)"/>
      <path id="DejaVuSans-Bold-79" d="M 653 2828 
L 1778 2828 
L 1778 1619 
L 653 1619 
L 653 2828 
z
" transform="scale(0.015625)"/>
      <path id="DejaVuSans-Bold-51" d="M 4056 2131 
L 4056 0 
L 2931 0 
L 2931 347 
L 2931 1631 
Q 2931 2084 2911 2256 
Q 2891 2428 2841 2509 
Q 2775 2619 2662 2680 
Q 2550 2741 2406 2741 
Q 2056 2741 1856 2470 
Q 1656 2200 1656 1722 
L 1656 0 
L 538 0 
L 538 3500 
L 1656 3500 
L 1656 2988 
Q 1909 3294 2193 3439 
Q 2478 3584 2822 3584 
Q 3428 3584 3742 3212 
Q 4056 2841 4056 2131 
z
" transform="scale(0.015625)"/>
      <path id="DejaVuSans-Bold-50" d="M 3781 2919 
Q 3994 3244 4286 3414 
Q 4578 3584 4928 3584 
Q 5531 3584 5847 3212 
Q 6163 2841 6163 2131 
L 6163 0 
L 5038 0 
L 5038 1825 
Q 5041 1866 5042 1909 
Q 5044 1953 5044 2034 
Q 5044 2406 4934 2573 
Q 4825 2741 4581 2741 
Q 4263 2741 4089 2478 
Q 3916 2216 3909 1719 
L 3909 0 
L 2784 0 
L 2784 1825 
Q 2784 2406 2684 2573 
Q 2584 2741 2328 2741 
Q 2006 2741 1831 2477 
Q 1656 2213 1656 1722 
L 1656 0 
L 531 0 
L 531 3500 
L 1656 3500 
L 1656 2988 
Q 1863 3284 2130 3434 
Q 2397 3584 2719 3584 
Q 3081 3584 3359 3409 
Q 3638 3234 3781 2919 
z
" transform="scale(0.015625)"/>
      <path id="DejaVuSans-Bold-52" d="M 2203 2784 
Q 1831 2784 1636 2517 
Q 1441 2250 1441 1747 
Q 1441 1244 1636 976 
Q 1831 709 2203 709 
Q 2569 709 2762 976 
Q 2956 1244 2956 1747 
Q 2956 2250 2762 2517 
Q 2569 2784 2203 2784 
z
M 2203 3584 
Q 3106 3584 3614 3096 
Q 4122 2609 4122 1747 
Q 4122 884 3614 396 
Q 3106 -91 2203 -91 
Q 1297 -91 786 396 
Q 275 884 275 1747 
Q 275 2609 786 3096 
Q 1297 3584 2203 3584 
z
" transform="scale(0.015625)"/>
      <path id="DejaVuSans-Bold-47" d="M 2919 2988 
L 2919 4863 
L 4044 4863 
L 4044 0 
L 2919 0 
L 2919 506 
Q 2688 197 2409 53 
Q 2131 -91 1766 -91 
Q 1119 -91 703 423 
Q 288 938 288 1747 
Q 288 2556 703 3070 
Q 1119 3584 1766 3584 
Q 2128 3584 2408 3439 
Q 2688 3294 2919 2988 
z
M 2181 722 
Q 2541 722 2730 984 
Q 2919 1247 2919 1747 
Q 2919 2247 2730 2509 
Q 2541 2772 2181 2772 
Q 1825 2772 1636 2509 
Q 1447 2247 1447 1747 
Q 1447 1247 1636 984 
Q 1825 722 2181 722 
z
" transform="scale(0.015625)"/>
      <path id="DejaVuSans-Bold-18" d="M 678 4666 
L 3669 4666 
L 3669 3781 
L 1638 3781 
L 1638 3059 
Q 1775 3097 1914 3117 
Q 2053 3138 2203 3138 
Q 3056 3138 3531 2711 
Q 4006 2284 4006 1522 
Q 4006 766 3489 337 
Q 2972 -91 2053 -91 
Q 1656 -91 1267 -14 
Q 878 63 494 219 
L 494 1166 
Q 875 947 1217 837 
Q 1559 728 1863 728 
Q 2300 728 2551 942 
Q 2803 1156 2803 1522 
Q 2803 1891 2551 2103 
Q 2300 2316 1863 2316 
Q 1603 2316 1309 2248 
Q 1016 2181 678 2041 
L 678 4666 
z
" transform="scale(0.015625)"/>
      <path id="DejaVuSans-Bold-ceb" d="M 678 2369 
L 4684 2369 
L 4684 1638 
L 678 1638 
L 678 2369 
z
M 678 3766 
L 4684 3766 
L 4684 3031 
L 678 3031 
L 678 3766 
z
M 678 975 
L 4684 975 
L 4684 241 
L 678 241 
L 678 975 
z
" transform="scale(0.015625)"/>
     </defs>
     <use xlink:href="#DejaVuSans-Bold-2a"/>
     <use xlink:href="#DejaVuSans-Bold-14" transform="translate(82.078125 0)"/>
     <use xlink:href="#DejaVuSans-Bold-3" transform="translate(151.65625 0)"/>
     <use xlink:href="#DejaVuSans-Bold-79" transform="translate(186.46875 0)"/>
     <use xlink:href="#DejaVuSans-Bold-3" transform="translate(224.453125 0)"/>
     <use xlink:href="#DejaVuSans-Bold-51" transform="translate(259.265625 0)"/>
     <use xlink:href="#DejaVuSans-Bold-3" transform="translate(330.453125 0)"/>
     <use xlink:href="#DejaVuSans-Bold-50" transform="translate(365.265625 0)"/>
     <use xlink:href="#DejaVuSans-Bold-52" transform="translate(469.46875 0)"/>
     <use xlink:href="#DejaVuSans-Bold-47" transform="translate(538.171875 0)"/>
     <use xlink:href="#DejaVuSans-Bold-3" transform="translate(609.75 0)"/>
     <use xlink:href="#DejaVuSans-Bold-18" transform="translate(644.5625 0)"/>
     <use xlink:href="#DejaVuSans-Bold-3" transform="translate(714.140625 0)"/>
     <use xlink:href="#DejaVuSans-Bold-ceb" transform="translate(748.953125 0)"/>
     <use xlink:href="#DejaVuSans-Bold-3" transform="translate(832.75 0)"/>
     <use xlink:href="#DejaVuSans-Bold-14" transform="translate(867.5625 0)"/>
    </g>
   </g>
   <g id="text_25">
    <!-- { 1, 6, 11, 16, 21 } -->
    <g style="fill: #333333" transform="translate(621.366261 134.711547) scale(0.105 -0.105)">
     <defs>
      <path id="DejaVuSans-5e" d="M 3272 -594 
L 3272 -1044 
L 3078 -1044 
Q 2300 -1044 2036 -812 
Q 1772 -581 1772 109 
L 1772 856 
Q 1772 1328 1603 1509 
Q 1434 1691 991 1691 
L 800 1691 
L 800 2138 
L 991 2138 
Q 1438 2138 1605 2317 
Q 1772 2497 1772 2963 
L 1772 3713 
Q 1772 4403 2036 4633 
Q 2300 4863 3078 4863 
L 3272 4863 
L 3272 4416 
L 3059 4416 
Q 2619 4416 2484 4278 
Q 2350 4141 2350 3700 
L 2350 2925 
Q 2350 2434 2208 2212 
Q 2066 1991 1722 1913 
Q 2069 1828 2209 1606 
Q 2350 1384 2350 897 
L 2350 122 
Q 2350 -319 2484 -456 
Q 2619 -594 3059 -594 
L 3272 -594 
z
" transform="scale(0.015625)"/>
      <path id="DejaVuSans-f" d="M 750 794 
L 1409 794 
L 1409 256 
L 897 -744 
L 494 -744 
L 750 256 
L 750 794 
z
" transform="scale(0.015625)"/>
      <path id="DejaVuSans-60" d="M 800 -594 
L 1019 -594 
Q 1456 -594 1589 -459 
Q 1722 -325 1722 122 
L 1722 897 
Q 1722 1384 1862 1606 
Q 2003 1828 2350 1913 
Q 2003 1991 1862 2212 
Q 1722 2434 1722 2925 
L 1722 3700 
Q 1722 4144 1589 4280 
Q 1456 4416 1019 4416 
L 800 4416 
L 800 4863 
L 997 4863 
Q 1775 4863 2036 4633 
Q 2297 4403 2297 3713 
L 2297 2963 
Q 2297 2497 2465 2317 
Q 2634 2138 3078 2138 
L 3272 2138 
L 3272 1691 
L 3078 1691 
Q 2634 1691 2465 1509 
Q 2297 1328 2297 856 
L 2297 109 
Q 2297 -581 2036 -812 
Q 1775 -1044 997 -1044 
L 800 -1044 
L 800 -594 
z
" transform="scale(0.015625)"/>
     </defs>
     <use xlink:href="#DejaVuSans-5e"/>
     <use xlink:href="#DejaVuSans-3" transform="translate(63.625 0)"/>
     <use xlink:href="#DejaVuSans-14" transform="translate(95.40625 0)"/>
     <use xlink:href="#DejaVuSans-f" transform="translate(159.03125 0)"/>
     <use xlink:href="#DejaVuSans-3" transform="translate(190.8125 0)"/>
     <use xlink:href="#DejaVuSans-19" transform="translate(222.59375 0)"/>
     <use xlink:href="#DejaVuSans-f" transform="translate(286.21875 0)"/>
     <use xlink:href="#DejaVuSans-3" transform="translate(318 0)"/>
     <use xlink:href="#DejaVuSans-14" transform="translate(349.78125 0)"/>
     <use xlink:href="#DejaVuSans-14" transform="translate(413.40625 0)"/>
     <use xlink:href="#DejaVuSans-f" transform="translate(477.03125 0)"/>
     <use xlink:href="#DejaVuSans-3" transform="translate(508.8125 0)"/>
     <use xlink:href="#DejaVuSans-14" transform="translate(540.59375 0)"/>
     <use xlink:href="#DejaVuSans-19" transform="translate(604.21875 0)"/>
     <use xlink:href="#DejaVuSans-f" transform="translate(667.84375 0)"/>
     <use xlink:href="#DejaVuSans-3" transform="translate(699.625 0)"/>
     <use xlink:href="#DejaVuSans-15" transform="translate(731.40625 0)"/>
     <use xlink:href="#DejaVuSans-14" transform="translate(795.03125 0)"/>
     <use xlink:href="#DejaVuSans-3" transform="translate(858.65625 0)"/>
     <use xlink:href="#DejaVuSans-60" transform="translate(890.4375 0)"/>
    </g>
   </g>
   <g id="text_26">
    <!-- G2 · n mod 5 ≡ 2 -->
    <g style="fill: #7a2020" transform="translate(621.366261 181.791341) scale(0.115 -0.115)">
     <defs>
      <path id="DejaVuSans-Bold-15" d="M 1844 884 
L 3897 884 
L 3897 0 
L 506 0 
L 506 884 
L 2209 2388 
Q 2438 2594 2547 2791 
Q 2656 2988 2656 3200 
Q 2656 3528 2436 3728 
Q 2216 3928 1850 3928 
Q 1569 3928 1234 3808 
Q 900 3688 519 3450 
L 519 4475 
Q 925 4609 1322 4679 
Q 1719 4750 2100 4750 
Q 2938 4750 3402 4381 
Q 3866 4013 3866 3353 
Q 3866 2972 3669 2642 
Q 3472 2313 2841 1759 
L 1844 884 
z
" transform="scale(0.015625)"/>
     </defs>
     <use xlink:href="#DejaVuSans-Bold-2a"/>
     <use xlink:href="#DejaVuSans-Bold-15" transform="translate(82.078125 0)"/>
     <use xlink:href="#DejaVuSans-Bold-3" transform="translate(151.65625 0)"/>
     <use xlink:href="#DejaVuSans-Bold-79" transform="translate(186.46875 0)"/>
     <use xlink:href="#DejaVuSans-Bold-3" transform="translate(224.453125 0)"/>
     <use xlink:href="#DejaVuSans-Bold-51" transform="translate(259.265625 0)"/>
     <use xlink:href="#DejaVuSans-Bold-3" transform="translate(330.453125 0)"/>
     <use xlink:href="#DejaVuSans-Bold-50" transform="translate(365.265625 0)"/>
     <use xlink:href="#DejaVuSans-Bold-52" transform="translate(469.46875 0)"/>
     <use xlink:href="#DejaVuSans-Bold-47" transform="translate(538.171875 0)"/>
     <use xlink:href="#DejaVuSans-Bold-3" transform="translate(609.75 0)"/>
     <use xlink:href="#DejaVuSans-Bold-18" transform="translate(644.5625 0)"/>
     <use xlink:href="#DejaVuSans-Bold-3" transform="translate(714.140625 0)"/>
     <use xlink:href="#DejaVuSans-Bold-ceb" transform="translate(748.953125 0)"/>
     <use xlink:href="#DejaVuSans-Bold-3" transform="translate(832.75 0)"/>
     <use xlink:href="#DejaVuSans-Bold-15" transform="translate(867.5625 0)"/>
    </g>
   </g>
   <g id="text_27">
    <!-- { 2, 7, 12, 17 } -->
    <g style="fill: #333333" transform="translate(621.366261 203.831547) scale(0.105 -0.105)">
     <use xlink:href="#DejaVuSans-5e"/>
     <use xlink:href="#DejaVuSans-3" transform="translate(63.625 0)"/>
     <use xlink:href="#DejaVuSans-15" transform="translate(95.40625 0)"/>
     <use xlink:href="#DejaVuSans-f" transform="translate(159.03125 0)"/>
     <use xlink:href="#DejaVuSans-3" transform="translate(190.8125 0)"/>
     <use xlink:href="#DejaVuSans-1a" transform="translate(222.59375 0)"/>
     <use xlink:href="#DejaVuSans-f" transform="translate(286.21875 0)"/>
     <use xlink:href="#DejaVuSans-3" transform="translate(318 0)"/>
     <use xlink:href="#DejaVuSans-14" transform="translate(349.78125 0)"/>
     <use xlink:href="#DejaVuSans-15" transform="translate(413.40625 0)"/>
     <use xlink:href="#DejaVuSans-f" transform="translate(477.03125 0)"/>
     <use xlink:href="#DejaVuSans-3" transform="translate(508.8125 0)"/>
     <use xlink:href="#DejaVuSans-14" transform="translate(540.59375 0)"/>
     <use xlink:href="#DejaVuSans-1a" transform="translate(604.21875 0)"/>
     <use xlink:href="#DejaVuSans-3" transform="translate(667.84375 0)"/>
     <use xlink:href="#DejaVuSans-60" transform="translate(699.625 0)"/>
    </g>
   </g>
   <g id="text_28">
    <!-- G3 · n mod 5 ≡ 3 -->
    <g style="fill: #244e80" transform="translate(621.366261 250.911341) scale(0.115 -0.115)">
     <defs>
      <path id="DejaVuSans-Bold-16" d="M 2981 2516 
Q 3453 2394 3698 2092 
Q 3944 1791 3944 1325 
Q 3944 631 3412 270 
Q 2881 -91 1863 -91 
Q 1503 -91 1142 -33 
Q 781 25 428 141 
L 428 1069 
Q 766 900 1098 814 
Q 1431 728 1753 728 
Q 2231 728 2486 893 
Q 2741 1059 2741 1369 
Q 2741 1688 2480 1852 
Q 2219 2016 1709 2016 
L 1228 2016 
L 1228 2791 
L 1734 2791 
Q 2188 2791 2409 2933 
Q 2631 3075 2631 3366 
Q 2631 3634 2415 3781 
Q 2200 3928 1806 3928 
Q 1516 3928 1219 3862 
Q 922 3797 628 3669 
L 628 4550 
Q 984 4650 1334 4700 
Q 1684 4750 2022 4750 
Q 2931 4750 3382 4451 
Q 3834 4153 3834 3553 
Q 3834 3144 3618 2883 
Q 3403 2622 2981 2516 
z
" transform="scale(0.015625)"/>
     </defs>
     <use xlink:href="#DejaVuSans-Bold-2a"/>
     <use xlink:href="#DejaVuSans-Bold-16" transform="translate(82.078125 0)"/>
     <use xlink:href="#DejaVuSans-Bold-3" transform="translate(151.65625 0)"/>
     <use xlink:href="#DejaVuSans-Bold-79" transform="translate(186.46875 0)"/>
     <use xlink:href="#DejaVuSans-Bold-3" transform="translate(224.453125 0)"/>
     <use xlink:href="#DejaVuSans-Bold-51" transform="translate(259.265625 0)"/>
     <use xlink:href="#DejaVuSans-Bold-3" transform="translate(330.453125 0)"/>
     <use xlink:href="#DejaVuSans-Bold-50" transform="translate(365.265625 0)"/>
     <use xlink:href="#DejaVuSans-Bold-52" transform="translate(469.46875 0)"/>
     <use xlink:href="#DejaVuSans-Bold-47" transform="translate(538.171875 0)"/>
     <use xlink:href="#DejaVuSans-Bold-3" transform="translate(609.75 0)"/>
     <use xlink:href="#DejaVuSans-Bold-18" transform="translate(644.5625 0)"/>
     <use xlink:href="#DejaVuSans-Bold-3" transform="translate(714.140625 0)"/>
     <use xlink:href="#DejaVuSans-Bold-ceb" transform="translate(748.953125 0)"/>
     <use xlink:href="#DejaVuSans-Bold-3" transform="translate(832.75 0)"/>
     <use xlink:href="#DejaVuSans-Bold-16" transform="translate(867.5625 0)"/>
    </g>
   </g>
   <g id="text_29">
    <!-- { 8, 13, 18, 23 } -->
    <g style="fill: #333333" transform="translate(621.366261 272.951547) scale(0.105 -0.105)">
     <use xlink:href="#DejaVuSans-5e"/>
     <use xlink:href="#DejaVuSans-3" transform="translate(63.625 0)"/>
     <use xlink:href="#DejaVuSans-1b" transform="translate(95.40625 0)"/>
     <use xlink:href="#DejaVuSans-f" transform="translate(159.03125 0)"/>
     <use xlink:href="#DejaVuSans-3" transform="translate(190.8125 0)"/>
     <use xlink:href="#DejaVuSans-14" transform="translate(222.59375 0)"/>
     <use xlink:href="#DejaVuSans-16" transform="translate(286.21875 0)"/>
     <use xlink:href="#DejaVuSans-f" transform="translate(349.84375 0)"/>
     <use xlink:href="#DejaVuSans-3" transform="translate(381.625 0)"/>
     <use xlink:href="#DejaVuSans-14" transform="translate(413.40625 0)"/>
     <use xlink:href="#DejaVuSans-1b" transform="translate(477.03125 0)"/>
     <use xlink:href="#DejaVuSans-f" transform="translate(540.65625 0)"/>
     <use xlink:href="#DejaVuSans-3" transform="translate(572.4375 0)"/>
     <use xlink:href="#DejaVuSans-15" transform="translate(604.21875 0)"/>
     <use xlink:href="#DejaVuSans-16" transform="translate(667.84375 0)"/>
     <use xlink:href="#DejaVuSans-3" transform="translate(731.46875 0)"/>
     <use xlink:href="#DejaVuSans-60" transform="translate(763.25 0)"/>
    </g>
   </g>
   <g id="text_30">
    <!-- G4 · n mod 5 ≡ 4 -->
    <g style="fill: #222222" transform="translate(621.366261 320.031341) scale(0.115 -0.115)">
     <defs>
      <path id="DejaVuSans-Bold-17" d="M 2356 3675 
L 1038 1722 
L 2356 1722 
L 2356 3675 
z
M 2156 4666 
L 3494 4666 
L 3494 1722 
L 4159 1722 
L 4159 850 
L 3494 850 
L 3494 0 
L 2356 0 
L 2356 850 
L 288 850 
L 288 1881 
L 2156 4666 
z
" transform="scale(0.015625)"/>
     </defs>
     <use xlink:href="#DejaVuSans-Bold-2a"/>
     <use xlink:href="#DejaVuSans-Bold-17" transform="translate(82.078125 0)"/>
     <use xlink:href="#DejaVuSans-Bold-3" transform="translate(151.65625 0)"/>
     <use xlink:href="#DejaVuSans-Bold-79" transform="translate(186.46875 0)"/>
     <use xlink:href="#DejaVuSans-Bold-3" transform="translate(224.453125 0)"/>
     <use xlink:href="#DejaVuSans-Bold-51" transform="translate(259.265625 0)"/>
     <use xlink:href="#DejaVuSans-Bold-3" transform="translate(330.453125 0)"/>
     <use xlink:href="#DejaVuSans-Bold-50" transform="translate(365.265625 0)"/>
     <use xlink:href="#DejaVuSans-Bold-52" transform="translate(469.46875 0)"/>
     <use xlink:href="#DejaVuSans-Bold-47" transform="translate(538.171875 0)"/>
     <use xlink:href="#DejaVuSans-Bold-3" transform="translate(609.75 0)"/>
     <use xlink:href="#DejaVuSans-Bold-18" transform="translate(644.5625 0)"/>
     <use xlink:href="#DejaVuSans-Bold-3" transform="translate(714.140625 0)"/>
     <use xlink:href="#DejaVuSans-Bold-ceb" transform="translate(748.953125 0)"/>
     <use xlink:href="#DejaVuSans-Bold-3" transform="translate(832.75 0)"/>
     <use xlink:href="#DejaVuSans-Bold-17" transform="translate(867.5625 0)"/>
    </g>
   </g>
   <g id="text_31">
    <!-- { 4, 9, 14, 19, 24 } -->
    <g style="fill: #333333" transform="translate(621.366261 342.071547) scale(0.105 -0.105)">
     <use xlink:href="#DejaVuSans-5e"/>
     <use xlink:href="#DejaVuSans-3" transform="translate(63.625 0)"/>
     <use xlink:href="#DejaVuSans-17" transform="translate(95.40625 0)"/>
     <use xlink:href="#DejaVuSans-f" transform="translate(159.03125 0)"/>
     <use xlink:href="#DejaVuSans-3" transform="translate(190.8125 0)"/>
     <use xlink:href="#DejaVuSans-1c" transform="translate(222.59375 0)"/>
     <use xlink:href="#DejaVuSans-f" transform="translate(286.21875 0)"/>
     <use xlink:href="#DejaVuSans-3" transform="translate(318 0)"/>
     <use xlink:href="#DejaVuSans-14" transform="translate(349.78125 0)"/>
     <use xlink:href="#DejaVuSans-17" transform="translate(413.40625 0)"/>
     <use xlink:href="#DejaVuSans-f" transform="translate(477.03125 0)"/>
     <use xlink:href="#DejaVuSans-3" transform="translate(508.8125 0)"/>
     <use xlink:href="#DejaVuSans-14" transform="translate(540.59375 0)"/>
     <use xlink:href="#DejaVuSans-1c" transform="translate(604.21875 0)"/>
     <use xlink:href="#DejaVuSans-f" transform="translate(667.84375 0)"/>
     <use xlink:href="#DejaVuSans-3" transform="translate(699.625 0)"/>
     <use xlink:href="#DejaVuSans-15" transform="translate(731.40625 0)"/>
     <use xlink:href="#DejaVuSans-17" transform="translate(795.03125 0)"/>
     <use xlink:href="#DejaVuSans-3" transform="translate(858.65625 0)"/>
     <use xlink:href="#DejaVuSans-60" transform="translate(890.4375 0)"/>
    </g>
   </g>
   <g id="text_32">
    <!-- G5 · n mod 5 ≡ 0 -->
    <g style="fill: #735700" transform="translate(621.366261 389.151341) scale(0.115 -0.115)">
     <defs>
      <path id="DejaVuSans-Bold-13" d="M 2944 2338 
Q 2944 3213 2780 3570 
Q 2616 3928 2228 3928 
Q 1841 3928 1675 3570 
Q 1509 3213 1509 2338 
Q 1509 1453 1675 1090 
Q 1841 728 2228 728 
Q 2613 728 2778 1090 
Q 2944 1453 2944 2338 
z
M 4147 2328 
Q 4147 1169 3647 539 
Q 3147 -91 2228 -91 
Q 1306 -91 806 539 
Q 306 1169 306 2328 
Q 306 3491 806 4120 
Q 1306 4750 2228 4750 
Q 3147 4750 3647 4120 
Q 4147 3491 4147 2328 
z
" transform="scale(0.015625)"/>
     </defs>
     <use xlink:href="#DejaVuSans-Bold-2a"/>
     <use xlink:href="#DejaVuSans-Bold-18" transform="translate(82.078125 0)"/>
     <use xlink:href="#DejaVuSans-Bold-3" transform="translate(151.65625 0)"/>
     <use xlink:href="#DejaVuSans-Bold-79" transform="translate(186.46875 0)"/>
     <use xlink:href="#DejaVuSans-Bold-3" transform="translate(224.453125 0)"/>
     <use xlink:href="#DejaVuSans-Bold-51" transform="translate(259.265625 0)"/>
     <use xlink:href="#DejaVuSans-Bold-3" transform="translate(330.453125 0)"/>
     <use xlink:href="#DejaVuSans-Bold-50" transform="translate(365.265625 0)"/>
     <use xlink:href="#DejaVuSans-Bold-52" transform="translate(469.46875 0)"/>
     <use xlink:href="#DejaVuSans-Bold-47" transform="translate(538.171875 0)"/>
     <use xlink:href="#DejaVuSans-Bold-3" transform="translate(609.75 0)"/>
     <use xlink:href="#DejaVuSans-Bold-18" transform="translate(644.5625 0)"/>
     <use xlink:href="#DejaVuSans-Bold-3" transform="translate(714.140625 0)"/>
     <use xlink:href="#DejaVuSans-Bold-ceb" transform="translate(748.953125 0)"/>
     <use xlink:href="#DejaVuSans-Bold-3" transform="translate(832.75 0)"/>
     <use xlink:href="#DejaVuSans-Bold-13" transform="translate(867.5625 0)"/>
    </g>
   </g>
   <g id="text_33">
    <!-- { 5, 15, 20 } -->
    <g style="fill: #333333" transform="translate(621.366261 411.191547) scale(0.105 -0.105)">
     <use xlink:href="#DejaVuSans-5e"/>
     <use xlink:href="#DejaVuSans-3" transform="translate(63.625 0)"/>
     <use xlink:href="#DejaVuSans-18" transform="translate(95.40625 0)"/>
     <use xlink:href="#DejaVuSans-f" transform="translate(159.03125 0)"/>
     <use xlink:href="#DejaVuSans-3" transform="translate(190.8125 0)"/>
     <use xlink:href="#DejaVuSans-14" transform="translate(222.59375 0)"/>
     <use xlink:href="#DejaVuSans-18" transform="translate(286.21875 0)"/>
     <use xlink:href="#DejaVuSans-f" transform="translate(349.84375 0)"/>
     <use xlink:href="#DejaVuSans-3" transform="translate(381.625 0)"/>
     <use xlink:href="#DejaVuSans-15" transform="translate(413.40625 0)"/>
     <use xlink:href="#DejaVuSans-13" transform="translate(477.03125 0)"/>
     <use xlink:href="#DejaVuSans-3" transform="translate(540.65625 0)"/>
     <use xlink:href="#DejaVuSans-60" transform="translate(572.4375 0)"/>
    </g>
   </g>
   <g id="text_34">
    <!-- 보이는 노드: 21개 -->
    <g transform="translate(602.358261 481.210609) scale(0.11 -0.11)">
     <defs>
      <path id="DejaVuSans-1d" d="M 750 794 
L 1409 794 
L 1409 0 
L 750 0 
L 750 794 
z
M 750 3309 
L 1409 3309 
L 1409 2516 
L 750 2516 
L 750 3309 
z
" transform="scale(0.015625)"/>
     </defs>
     <use xlink:href="#LastResortHE-Regular-96"/>
     <use xlink:href="#LastResortHE-Regular-96" transform="translate(114.75 0)"/>
     <use xlink:href="#LastResortHE-Regular-96" transform="translate(229.5 0)"/>
     <use xlink:href="#DejaVuSans-3" transform="translate(344.25 0)"/>
     <use xlink:href="#LastResortHE-Regular-96" transform="translate(376.03125 0)"/>
     <use xlink:href="#LastResortHE-Regular-96" transform="translate(490.78125 0)"/>
     <use xlink:href="#DejaVuSans-1d" transform="translate(605.53125 0)"/>
     <use xlink:href="#DejaVuSans-3" transform="translate(639.21875 0)"/>
     <use xlink:href="#DejaVuSans-15" transform="translate(671 0)"/>
     <use xlink:href="#DejaVuSans-14" transform="translate(734.625 0)"/>
     <use xlink:href="#LastResortHE-Regular-96" transform="translate(798.25 0)"/>
    </g>
   </g>
  </g>
 </g>
 <defs>
  <clipPath id="pea21be8204">
   <rect x="7.2" y="36.877187" width="550.956522" height="506.88"/>
  </clipPath>
  <clipPath id="p80c6398881">
   <rect x="602.358261" y="59.917187" width="190.08" height="460.8"/>
  </clipPath>
 </defs>
</svg>
