<?xml version="1.0" encoding="utf-8" standalone="no"?>
<!DOCTYPE svg PUBLIC "-//W3C//DTD SVG 1.1//EN"
  "http://www.w3.org/Graphics/SVG/1.1/DTD/svg11.dtd">
<svg xmlns:xlink="http://www.w3.org/1999/xlink" width="597.232895pt" height="568.753125pt" viewBox="0 0 597.232895 568.753125" xmlns="http://www.w3.org/2000/svg" version="1.1">
 <metadata>
  <rdf:RDF xmlns:dc="http://purl.org/dc/elements/1.1/" xmlns:cc="http://creativecommons.org/ns#" xmlns:rdf="http://www.w3.org/1999/02/22-rdf-syntax-ns#">
   <cc:Work>
    <dc:type rdf:resource="http://purl.org/dc/dcmitype/StillImage"/>
    <dc:date>2026-07-19T22:03:31.307547</dc:date>
    <dc:format>image/svg+xml</dc:format>
    <dc:creator>
     <cc:Agent>
      <dc:title>Matplotlib v3.10.1+dfsg1, https://matplotlib.org/</dc:title>
     </cc:Agent>
    </dc:creator>
   </cc:Work>
  </rdf:RDF>
 </metadata>
 <defs>
  <style type="text/css">*{stroke-linejoin: round; stroke-linecap: butt}</style>
 </defs>
 <g id="figure_1">
  <g id="patch_1">
   <path d="M 0 568.753125 
L 597.232895 568.753125 
L 597.232895 0 
L 0 0 
z
" style="fill: #ffffff"/>
  </g>
  <g id="axes_1">
   <g id="patch_2">
    <path d="M 159.846711 238.913487 
C 181.007955 238.913487 201.305339 230.506035 216.268598 215.542776 
C 231.231858 200.579516 239.639309 180.282133 239.639309 159.120888 
C 239.639309 137.959644 231.231858 117.66226 216.268598 102.699001 
C 201.305339 87.735741 181.007955 79.328289 159.846711 79.328289 
C 138.685466 79.328289 118.388082 87.735741 103.424823 102.699001 
C 88.461563 117.66226 80.054112 137.959644 80.054112 159.120888 
C 80.054112 180.282133 88.461563 200.579516 103.424823 215.542776 
C 118.388082 230.506035 138.685466 238.913487 159.846711 238.913487 
L 159.846711 238.913487 
z
" clip-path="url(#p7609b18f1a)" style="fill: none; stroke-dasharray: 4,4; stroke-dashoffset: 0; stroke: #cccccc; stroke-linejoin: miter"/>
   </g>
   <g id="patch_3">
    <path d="M 298.616447 238.913487 
C 319.777692 238.913487 340.075075 230.506035 355.038335 215.542776 
C 370.001594 200.579516 378.409046 180.282133 378.409046 159.120888 
C 378.409046 137.959644 370.001594 117.66226 355.038335 102.699001 
C 340.075075 87.735741 319.777692 79.328289 298.616447 79.328289 
C 277.455203 79.328289 257.157819 87.735741 242.19456 102.699001 
C 227.2313 117.66226 218.823849 137.959644 218.823849 159.120888 
C 218.823849 180.282133 227.2313 200.579516 242.19456 215.542776 
C 257.157819 230.506035 277.455203 238.913487 298.616447 238.913487 
L 298.616447 238.913487 
z
" clip-path="url(#p7609b18f1a)" style="fill: none; stroke-dasharray: 4,4; stroke-dashoffset: 0; stroke: #cccccc; stroke-linejoin: miter"/>
   </g>
   <g id="patch_4">
    <path d="M 437.386184 238.913487 
C 458.547429 238.913487 478.844812 230.506035 493.808072 215.542776 
C 508.771331 200.579516 517.178783 180.282133 517.178783 159.120888 
C 517.178783 137.959644 508.771331 117.66226 493.808072 102.699001 
C 478.844812 87.735741 458.547429 79.328289 437.386184 79.328289 
C 416.22494 79.328289 395.927556 87.735741 380.964297 102.699001 
C 366.001037 117.66226 357.593586 137.959644 357.593586 159.120888 
C 357.593586 180.282133 366.001037 200.579516 380.964297 215.542776 
C 395.927556 230.506035 416.22494 238.913487 437.386184 238.913487 
L 437.386184 238.913487 
z
" clip-path="url(#p7609b18f1a)" style="fill: none; stroke-dasharray: 4,4; stroke-dashoffset: 0; stroke: #cccccc; stroke-linejoin: miter"/>
   </g>
   <g id="patch_5">
    <path d="M 159.846711 377.683224 
C 181.007955 377.683224 201.305339 369.275772 216.268598 354.312513 
C 231.231858 339.349253 239.639309 319.05187 239.639309 297.890625 
C 239.639309 276.72938 231.231858 256.431997 216.268598 241.468737 
C 201.305339 226.505478 181.007955 218.098026 159.846711 218.098026 
C 138.685466 218.098026 118.388082 226.505478 103.424823 241.468737 
C 88.461563 256.431997 80.054112 276.72938 80.054112 297.890625 
C 80.054112 319.05187 88.461563 339.349253 103.424823 354.312513 
C 118.388082 369.275772 138.685466 377.683224 159.846711 377.683224 
L 159.846711 377.683224 
z
" clip-path="url(#p7609b18f1a)" style="fill: none; stroke-dasharray: 4,4; stroke-dashoffset: 0; stroke: #cccccc; stroke-linejoin: miter"/>
   </g>
   <g id="patch_6">
    <path d="M 298.616447 377.683224 
C 319.777692 377.683224 340.075075 369.275772 355.038335 354.312513 
C 370.001594 339.349253 378.409046 319.05187 378.409046 297.890625 
C 378.409046 276.72938 370.001594 256.431997 355.038335 241.468737 
C 340.075075 226.505478 319.777692 218.098026 298.616447 218.098026 
C 277.455203 218.098026 257.157819 226.505478 242.19456 241.468737 
C 227.2313 256.431997 218.823849 276.72938 218.823849 297.890625 
C 218.823849 319.05187 227.2313 339.349253 242.19456 354.312513 
C 257.157819 369.275772 277.455203 377.683224 298.616447 377.683224 
L 298.616447 377.683224 
z
" clip-path="url(#p7609b18f1a)" style="fill: none; stroke-dasharray: 4,4; stroke-dashoffset: 0; stroke: #cccccc; stroke-linejoin: miter"/>
   </g>
   <g id="patch_7">
    <path d="M 437.386184 377.683224 
C 458.547429 377.683224 478.844812 369.275772 493.808072 354.312513 
C 508.771331 339.349253 517.178783 319.05187 517.178783 297.890625 
C 517.178783 276.72938 508.771331 256.431997 493.808072 241.468737 
C 478.844812 226.505478 458.547429 218.098026 437.386184 218.098026 
C 416.22494 218.098026 395.927556 226.505478 380.964297 241.468737 
C 366.001037 256.431997 357.593586 276.72938 357.593586 297.890625 
C 357.593586 319.05187 366.001037 339.349253 380.964297 354.312513 
C 395.927556 369.275772 416.22494 377.683224 437.386184 377.683224 
L 437.386184 377.683224 
z
" clip-path="url(#p7609b18f1a)" style="fill: none; stroke-dasharray: 4,4; stroke-dashoffset: 0; stroke: #cccccc; stroke-linejoin: miter"/>
   </g>
   <g id="patch_8">
    <path d="M 159.846711 516.452961 
C 181.007955 516.452961 201.305339 508.045509 216.268598 493.082249 
C 231.231858 478.11899 239.639309 457.821606 239.639309 436.660362 
C 239.639309 415.499117 231.231858 395.201734 216.268598 380.238474 
C 201.305339 365.275215 181.007955 356.867763 159.846711 356.867763 
C 138.685466 356.867763 118.388082 365.275215 103.424823 380.238474 
C 88.461563 395.201734 80.054112 415.499117 80.054112 436.660362 
C 80.054112 457.821606 88.461563 478.11899 103.424823 493.082249 
C 118.388082 508.045509 138.685466 516.452961 159.846711 516.452961 
L 159.846711 516.452961 
z
" clip-path="url(#p7609b18f1a)" style="fill: none; stroke-dasharray: 4,4; stroke-dashoffset: 0; stroke: #cccccc; stroke-linejoin: miter"/>
   </g>
   <g id="patch_9">
    <path d="M 298.616447 516.452961 
C 319.777692 516.452961 340.075075 508.045509 355.038335 493.082249 
C 370.001594 478.11899 378.409046 457.821606 378.409046 436.660362 
C 378.409046 415.499117 370.001594 395.201734 355.038335 380.238474 
C 340.075075 365.275215 319.777692 356.867763 298.616447 356.867763 
C 277.455203 356.867763 257.157819 365.275215 242.19456 380.238474 
C 227.2313 395.201734 218.823849 415.499117 218.823849 436.660362 
C 218.823849 457.821606 227.2313 478.11899 242.19456 493.082249 
C 257.157819 508.045509 277.455203 516.452961 298.616447 516.452961 
L 298.616447 516.452961 
z
" clip-path="url(#p7609b18f1a)" style="fill: none; stroke-dasharray: 4,4; stroke-dashoffset: 0; stroke: #cccccc; stroke-linejoin: miter"/>
   </g>
   <g id="patch_10">
    <path d="M 437.386184 516.452961 
C 458.547429 516.452961 478.844812 508.045509 493.808072 493.082249 
C 508.771331 478.11899 517.178783 457.821606 517.178783 436.660362 
C 517.178783 415.499117 508.771331 395.201734 493.808072 380.238474 
C 478.844812 365.275215 458.547429 356.867763 437.386184 356.867763 
C 416.22494 356.867763 395.927556 365.275215 380.964297 380.238474 
C 366.001037 395.201734 357.593586 415.499117 357.593586 436.660362 
C 357.593586 457.821606 366.001037 478.11899 380.964297 493.082249 
C 395.927556 508.045509 416.22494 516.452961 437.386184 516.452961 
L 437.386184 516.452961 
z
" clip-path="url(#p7609b18f1a)" style="fill: none; stroke-dasharray: 4,4; stroke-dashoffset: 0; stroke: #cccccc; stroke-linejoin: miter"/>
   </g>
   <g id="text_1">
    <!-- 상좌궁 (합 85) -->
    <g style="fill: #666666" transform="translate(133.233429 74.967459) scale(0.09 -0.09)">
     <defs>
      <path id="NotoSansCJKjp-Regular-c0c1" d="M 2970 1626 
C 1786 1626 1062 1235 1062 570 
C 1062 -102 1786 -486 2970 -486 
C 4147 -486 4864 -102 4864 570 
C 4864 1235 4147 1626 2970 1626 
z
M 2970 1203 
C 3827 1203 4346 966 4346 570 
C 4346 166 3827 -64 2970 -64 
C 2112 -64 1587 166 1587 570 
C 1587 966 2112 1203 2970 1203 
z
M 1728 4992 
L 1728 4403 
C 1728 3514 1165 2733 294 2413 
L 576 1990 
C 1254 2253 1760 2778 2003 3456 
C 2253 2861 2746 2387 3379 2150 
L 3661 2566 
C 2829 2854 2253 3578 2253 4358 
L 2253 4992 
L 1728 4992 
z
M 4282 5293 
L 4282 1779 
L 4813 1779 
L 4813 3347 
L 5664 3347 
L 5664 3795 
L 4813 3795 
L 4813 5293 
L 4282 5293 
z
" transform="scale(0.015625)"/>
      <path id="NotoSansCJKjp-Regular-c88c" d="M 518 4755 
L 518 4314 
L 1805 4314 
L 1805 4256 
C 1805 3469 1210 2790 346 2515 
L 614 2099 
C 1299 2323 1830 2803 2080 3424 
C 2330 2848 2842 2406 3507 2195 
L 3763 2611 
C 2918 2874 2342 3526 2342 4256 
L 2342 4314 
L 3622 4314 
L 3622 4755 
L 518 4755 
z
M 326 710 
C 1325 710 2675 710 3910 934 
L 3872 1325 
C 3386 1254 2861 1210 2342 1190 
L 2342 2336 
L 1811 2336 
L 1811 1165 
C 1248 1152 710 1152 250 1152 
L 326 710 
z
M 4237 5293 
L 4237 -499 
L 4762 -499 
L 4762 2445 
L 5683 2445 
L 5683 2893 
L 4762 2893 
L 4762 5293 
L 4237 5293 
z
" transform="scale(0.015625)"/>
      <path id="NotoSansCJKjp-Regular-ad81" d="M 2931 1222 
C 3846 1222 4403 992 4403 582 
C 4403 173 3846 -58 2931 -58 
C 2010 -58 1453 173 1453 582 
C 1453 992 2010 1222 2931 1222 
z
M 320 2976 
L 320 2541 
L 2669 2541 
L 2669 1645 
C 1574 1594 922 1210 922 582 
C 922 -102 1677 -486 2931 -486 
C 4179 -486 4934 -102 4934 582 
C 4934 1210 4282 1594 3194 1645 
L 3194 2541 
L 5568 2541 
L 5568 2976 
L 4742 2976 
C 4890 3661 4890 4192 4890 4627 
L 4890 5043 
L 986 5043 
L 986 4614 
L 4365 4614 
C 4365 4179 4365 3674 4211 2976 
L 320 2976 
z
" transform="scale(0.015625)"/>
      <path id="NotoSansCJKjp-Regular-20" transform="scale(0.015625)"/>
      <path id="NotoSansCJKjp-Regular-28" d="M 1530 -1254 
L 1888 -1094 
C 1338 -186 1075 902 1075 1990 
C 1075 3072 1338 4154 1888 5069 
L 1530 5235 
C 941 4275 589 3245 589 1990 
C 589 730 941 -301 1530 -1254 
z
" transform="scale(0.015625)"/>
      <path id="NotoSansCJKjp-Regular-d569" d="M 1171 1670 
L 1171 -422 
L 4813 -422 
L 4813 1670 
L 4282 1670 
L 4282 1062 
L 1696 1062 
L 1696 1670 
L 1171 1670 
z
M 1696 646 
L 4282 646 
L 4282 6 
L 1696 6 
L 1696 646 
z
M 2042 4000 
C 1210 4000 653 3603 653 2989 
C 653 2368 1210 1971 2042 1971 
C 2867 1971 3424 2368 3424 2989 
C 3424 3603 2867 4000 2042 4000 
z
M 2042 3597 
C 2566 3597 2918 3354 2918 2989 
C 2918 2611 2566 2374 2042 2374 
C 1517 2374 1165 2611 1165 2989 
C 1165 3354 1517 3597 2042 3597 
z
M 4282 5293 
L 4282 1926 
L 4813 1926 
L 4813 3366 
L 5664 3366 
L 5664 3814 
L 4813 3814 
L 4813 5293 
L 4282 5293 
z
M 1779 5344 
L 1779 4698 
L 333 4698 
L 333 4269 
L 3750 4269 
L 3750 4698 
L 2310 4698 
L 2310 5344 
L 1779 5344 
z
" transform="scale(0.015625)"/>
      <path id="NotoSansCJKjp-Regular-38" d="M 1792 -83 
C 2669 -83 3258 448 3258 1126 
C 3258 1773 2880 2125 2470 2362 
L 2470 2394 
C 2746 2611 3091 3034 3091 3526 
C 3091 4250 2605 4762 1805 4762 
C 1075 4762 518 4282 518 3571 
C 518 3078 813 2726 1152 2490 
L 1152 2464 
C 723 2234 294 1792 294 1165 
C 294 442 922 -83 1792 -83 
z
M 2112 2547 
C 1555 2765 1050 3014 1050 3571 
C 1050 4026 1363 4326 1798 4326 
C 2298 4326 2592 3962 2592 3494 
C 2592 3149 2426 2829 2112 2547 
z
M 1798 352 
C 1235 352 813 717 813 1216 
C 813 1664 1082 2035 1459 2278 
C 2125 2010 2701 1779 2701 1146 
C 2701 678 2342 352 1798 352 
z
" transform="scale(0.015625)"/>
      <path id="NotoSansCJKjp-Regular-35" d="M 1677 -83 
C 2464 -83 3213 499 3213 1523 
C 3213 2560 2573 3021 1798 3021 
C 1517 3021 1306 2950 1094 2835 
L 1216 4192 
L 2982 4192 
L 2982 4691 
L 704 4691 
L 550 2502 
L 864 2304 
C 1133 2483 1331 2579 1645 2579 
C 2234 2579 2618 2182 2618 1510 
C 2618 826 2176 403 1619 403 
C 1075 403 730 653 467 922 
L 173 538 
C 493 224 941 -83 1677 -83 
z
" transform="scale(0.015625)"/>
      <path id="NotoSansCJKjp-Regular-29" d="M 634 -1254 
C 1222 -301 1574 730 1574 1990 
C 1574 3245 1222 4275 634 5235 
L 269 5069 
C 819 4154 1094 3072 1094 1990 
C 1094 902 819 -186 269 -1094 
L 634 -1254 
z
" transform="scale(0.015625)"/>
     </defs>
     <use xlink:href="#NotoSansCJKjp-Regular-c0c1"/>
     <use xlink:href="#NotoSansCJKjp-Regular-c88c" transform="translate(91.999985 0)"/>
     <use xlink:href="#NotoSansCJKjp-Regular-ad81" transform="translate(183.999969 0)"/>
     <use xlink:href="#NotoSansCJKjp-Regular-20" transform="translate(275.999954 0)"/>
     <use xlink:href="#NotoSansCJKjp-Regular-28" transform="translate(298.399948 0)"/>
     <use xlink:href="#NotoSansCJKjp-Regular-d569" transform="translate(332.199936 0)"/>
     <use xlink:href="#NotoSansCJKjp-Regular-20" transform="translate(424.199921 0)"/>
     <use xlink:href="#NotoSansCJKjp-Regular-38" transform="translate(446.599915 0)"/>
     <use xlink:href="#NotoSansCJKjp-Regular-35" transform="translate(502.099899 0)"/>
     <use xlink:href="#NotoSansCJKjp-Regular-29" transform="translate(557.599884 0)"/>
    </g>
   </g>
   <g id="text_2">
    <!-- 상중궁 (합 85) -->
    <g style="fill: #666666" transform="translate(272.003166 74.967459) scale(0.09 -0.09)">
     <defs>
      <path id="NotoSansCJKjp-Regular-c911" d="M 2931 1133 
C 3834 1133 4378 915 4378 531 
C 4378 147 3834 -77 2931 -77 
C 2022 -77 1485 147 1485 531 
C 1485 915 2022 1133 2931 1133 
z
M 320 2586 
L 320 2150 
L 2669 2150 
L 2669 1542 
C 1587 1491 947 1139 947 531 
C 947 -122 1690 -486 2931 -486 
C 4166 -486 4909 -122 4909 531 
C 4909 1139 4269 1491 3194 1542 
L 3194 2150 
L 5549 2150 
L 5549 2586 
L 320 2586 
z
M 800 5024 
L 800 4595 
L 2592 4595 
C 2547 3962 1619 3462 614 3354 
L 800 2931 
C 1760 3046 2624 3475 2931 4109 
C 3251 3475 4115 3046 5069 2931 
L 5261 3354 
C 4243 3462 3322 3962 3277 4595 
L 5075 4595 
L 5075 5024 
L 800 5024 
z
" transform="scale(0.015625)"/>
     </defs>
     <use xlink:href="#NotoSansCJKjp-Regular-c0c1"/>
     <use xlink:href="#NotoSansCJKjp-Regular-c911" transform="translate(91.999985 0)"/>
     <use xlink:href="#NotoSansCJKjp-Regular-ad81" transform="translate(183.999969 0)"/>
     <use xlink:href="#NotoSansCJKjp-Regular-20" transform="translate(275.999954 0)"/>
     <use xlink:href="#NotoSansCJKjp-Regular-28" transform="translate(298.399948 0)"/>
     <use xlink:href="#NotoSansCJKjp-Regular-d569" transform="translate(332.199936 0)"/>
     <use xlink:href="#NotoSansCJKjp-Regular-20" transform="translate(424.199921 0)"/>
     <use xlink:href="#NotoSansCJKjp-Regular-38" transform="translate(446.599915 0)"/>
     <use xlink:href="#NotoSansCJKjp-Regular-35" transform="translate(502.099899 0)"/>
     <use xlink:href="#NotoSansCJKjp-Regular-29" transform="translate(557.599884 0)"/>
    </g>
   </g>
   <g id="text_3">
    <!-- 상우궁 (합 85) -->
    <g style="fill: #666666" transform="translate(410.772903 74.967459) scale(0.09 -0.09)">
     <defs>
      <path id="NotoSansCJKjp-Regular-c6b0" d="M 2925 5062 
C 1722 5062 902 4570 902 3789 
C 902 3014 1722 2522 2925 2522 
C 4134 2522 4954 3014 4954 3789 
C 4954 4570 4134 5062 2925 5062 
z
M 2925 4634 
C 3814 4634 4410 4301 4410 3789 
C 4410 3277 3814 2950 2925 2950 
C 2042 2950 1446 3277 1446 3789 
C 1446 4301 2042 4634 2925 4634 
z
M 314 1978 
L 314 1536 
L 2662 1536 
L 2662 -499 
L 3187 -499 
L 3187 1536 
L 5562 1536 
L 5562 1978 
L 314 1978 
z
" transform="scale(0.015625)"/>
     </defs>
     <use xlink:href="#NotoSansCJKjp-Regular-c0c1"/>
     <use xlink:href="#NotoSansCJKjp-Regular-c6b0" transform="translate(91.999985 0)"/>
     <use xlink:href="#NotoSansCJKjp-Regular-ad81" transform="translate(183.999969 0)"/>
     <use xlink:href="#NotoSansCJKjp-Regular-20" transform="translate(275.999954 0)"/>
     <use xlink:href="#NotoSansCJKjp-Regular-28" transform="translate(298.399948 0)"/>
     <use xlink:href="#NotoSansCJKjp-Regular-d569" transform="translate(332.199936 0)"/>
     <use xlink:href="#NotoSansCJKjp-Regular-20" transform="translate(424.199921 0)"/>
     <use xlink:href="#NotoSansCJKjp-Regular-38" transform="translate(446.599915 0)"/>
     <use xlink:href="#NotoSansCJKjp-Regular-35" transform="translate(502.099899 0)"/>
     <use xlink:href="#NotoSansCJKjp-Regular-29" transform="translate(557.599884 0)"/>
    </g>
   </g>
   <g id="text_4">
    <!-- 중좌궁 (합 85) -->
    <g style="fill: #666666" transform="translate(133.233429 213.737196) scale(0.09 -0.09)">
     <use xlink:href="#NotoSansCJKjp-Regular-c911"/>
     <use xlink:href="#NotoSansCJKjp-Regular-c88c" transform="translate(91.999985 0)"/>
     <use xlink:href="#NotoSansCJKjp-Regular-ad81" transform="translate(183.999969 0)"/>
     <use xlink:href="#NotoSansCJKjp-Regular-20" transform="translate(275.999954 0)"/>
     <use xlink:href="#NotoSansCJKjp-Regular-28" transform="translate(298.399948 0)"/>
     <use xlink:href="#NotoSansCJKjp-Regular-d569" transform="translate(332.199936 0)"/>
     <use xlink:href="#NotoSansCJKjp-Regular-20" transform="translate(424.199921 0)"/>
     <use xlink:href="#NotoSansCJKjp-Regular-38" transform="translate(446.599915 0)"/>
     <use xlink:href="#NotoSansCJKjp-Regular-35" transform="translate(502.099899 0)"/>
     <use xlink:href="#NotoSansCJKjp-Regular-29" transform="translate(557.599884 0)"/>
    </g>
   </g>
   <g id="text_5">
    <!-- 중궁 (합 85) -->
    <g style="fill: #666666" transform="translate(276.143166 213.737196) scale(0.09 -0.09)">
     <use xlink:href="#NotoSansCJKjp-Regular-c911"/>
     <use xlink:href="#NotoSansCJKjp-Regular-ad81" transform="translate(91.999985 0)"/>
     <use xlink:href="#NotoSansCJKjp-Regular-20" transform="translate(183.999969 0)"/>
     <use xlink:href="#NotoSansCJKjp-Regular-28" transform="translate(206.399963 0)"/>
     <use xlink:href="#NotoSansCJKjp-Regular-d569" transform="translate(240.199951 0)"/>
     <use xlink:href="#NotoSansCJKjp-Regular-20" transform="translate(332.199936 0)"/>
     <use xlink:href="#NotoSansCJKjp-Regular-38" transform="translate(354.59993 0)"/>
     <use xlink:href="#NotoSansCJKjp-Regular-35" transform="translate(410.099915 0)"/>
     <use xlink:href="#NotoSansCJKjp-Regular-29" transform="translate(465.599899 0)"/>
    </g>
   </g>
   <g id="text_6">
    <!-- 중우궁 (합 85) -->
    <g style="fill: #666666" transform="translate(410.772903 213.737196) scale(0.09 -0.09)">
     <use xlink:href="#NotoSansCJKjp-Regular-c911"/>
     <use xlink:href="#NotoSansCJKjp-Regular-c6b0" transform="translate(91.999985 0)"/>
     <use xlink:href="#NotoSansCJKjp-Regular-ad81" transform="translate(183.999969 0)"/>
     <use xlink:href="#NotoSansCJKjp-Regular-20" transform="translate(275.999954 0)"/>
     <use xlink:href="#NotoSansCJKjp-Regular-28" transform="translate(298.399948 0)"/>
     <use xlink:href="#NotoSansCJKjp-Regular-d569" transform="translate(332.199936 0)"/>
     <use xlink:href="#NotoSansCJKjp-Regular-20" transform="translate(424.199921 0)"/>
     <use xlink:href="#NotoSansCJKjp-Regular-38" transform="translate(446.599915 0)"/>
     <use xlink:href="#NotoSansCJKjp-Regular-35" transform="translate(502.099899 0)"/>
     <use xlink:href="#NotoSansCJKjp-Regular-29" transform="translate(557.599884 0)"/>
    </g>
   </g>
   <g id="text_7">
    <!-- 하좌궁 (합 85) -->
    <g style="fill: #666666" transform="translate(133.233429 525.969104) scale(0.09 -0.09)">
     <defs>
      <path id="NotoSansCJKjp-Regular-d558" d="M 2022 3456 
C 1203 3456 608 2906 608 2125 
C 608 1338 1203 794 2022 794 
C 2835 794 3430 1338 3430 2125 
C 3430 2906 2835 3456 2022 3456 
z
M 2022 3014 
C 2541 3014 2925 2643 2925 2125 
C 2925 1600 2541 1235 2022 1235 
C 1498 1235 1114 1600 1114 2125 
C 1114 2643 1498 3014 2022 3014 
z
M 4243 5293 
L 4243 -499 
L 4768 -499 
L 4768 2470 
L 5715 2470 
L 5715 2912 
L 4768 2912 
L 4768 5293 
L 4243 5293 
z
M 1747 5222 
L 1747 4365 
L 288 4365 
L 288 3930 
L 3699 3930 
L 3699 4365 
L 2278 4365 
L 2278 5222 
L 1747 5222 
z
" transform="scale(0.015625)"/>
     </defs>
     <use xlink:href="#NotoSansCJKjp-Regular-d558"/>
     <use xlink:href="#NotoSansCJKjp-Regular-c88c" transform="translate(91.999985 0)"/>
     <use xlink:href="#NotoSansCJKjp-Regular-ad81" transform="translate(183.999969 0)"/>
     <use xlink:href="#NotoSansCJKjp-Regular-20" transform="translate(275.999954 0)"/>
     <use xlink:href="#NotoSansCJKjp-Regular-28" transform="translate(298.399948 0)"/>
     <use xlink:href="#NotoSansCJKjp-Regular-d569" transform="translate(332.199936 0)"/>
     <use xlink:href="#NotoSansCJKjp-Regular-20" transform="translate(424.199921 0)"/>
     <use xlink:href="#NotoSansCJKjp-Regular-38" transform="translate(446.599915 0)"/>
     <use xlink:href="#NotoSansCJKjp-Regular-35" transform="translate(502.099899 0)"/>
     <use xlink:href="#NotoSansCJKjp-Regular-29" transform="translate(557.599884 0)"/>
    </g>
   </g>
   <g id="text_8">
    <!-- 하중궁 (합 85) -->
    <g style="fill: #666666" transform="translate(272.003166 525.969104) scale(0.09 -0.09)">
     <use xlink:href="#NotoSansCJKjp-Regular-d558"/>
     <use xlink:href="#NotoSansCJKjp-Regular-c911" transform="translate(91.999985 0)"/>
     <use xlink:href="#NotoSansCJKjp-Regular-ad81" transform="translate(183.999969 0)"/>
     <use xlink:href="#NotoSansCJKjp-Regular-20" transform="translate(275.999954 0)"/>
     <use xlink:href="#NotoSansCJKjp-Regular-28" transform="translate(298.399948 0)"/>
     <use xlink:href="#NotoSansCJKjp-Regular-d569" transform="translate(332.199936 0)"/>
     <use xlink:href="#NotoSansCJKjp-Regular-20" transform="translate(424.199921 0)"/>
     <use xlink:href="#NotoSansCJKjp-Regular-38" transform="translate(446.599915 0)"/>
     <use xlink:href="#NotoSansCJKjp-Regular-35" transform="translate(502.099899 0)"/>
     <use xlink:href="#NotoSansCJKjp-Regular-29" transform="translate(557.599884 0)"/>
    </g>
   </g>
   <g id="text_9">
    <!-- 하우궁 (합 85) -->
    <g style="fill: #666666" transform="translate(410.772903 525.969104) scale(0.09 -0.09)">
     <use xlink:href="#NotoSansCJKjp-Regular-d558"/>
     <use xlink:href="#NotoSansCJKjp-Regular-c6b0" transform="translate(91.999985 0)"/>
     <use xlink:href="#NotoSansCJKjp-Regular-ad81" transform="translate(183.999969 0)"/>
     <use xlink:href="#NotoSansCJKjp-Regular-20" transform="translate(275.999954 0)"/>
     <use xlink:href="#NotoSansCJKjp-Regular-28" transform="translate(298.399948 0)"/>
     <use xlink:href="#NotoSansCJKjp-Regular-d569" transform="translate(332.199936 0)"/>
     <use xlink:href="#NotoSansCJKjp-Regular-20" transform="translate(424.199921 0)"/>
     <use xlink:href="#NotoSansCJKjp-Regular-38" transform="translate(446.599915 0)"/>
     <use xlink:href="#NotoSansCJKjp-Regular-35" transform="translate(502.099899 0)"/>
     <use xlink:href="#NotoSansCJKjp-Regular-29" transform="translate(557.599884 0)"/>
    </g>
   </g>
   <g id="line2d_1">
    <path d="M 90.461842 159.120888 
L 159.846711 159.120888 
" clip-path="url(#p7609b18f1a)" style="fill: none; stroke: #555555; stroke-width: 1.8; stroke-linecap: round"/>
   </g>
   <g id="line2d_2">
    <path d="M 159.846711 159.120888 
L 229.231579 159.120888 
" clip-path="url(#p7609b18f1a)" style="fill: none; stroke: #555555; stroke-width: 1.8; stroke-linecap: round"/>
   </g>
   <g id="line2d_3">
    <path d="M 229.231579 159.120888 
L 298.616447 159.120888 
" clip-path="url(#p7609b18f1a)" style="fill: none; stroke: #555555; stroke-width: 1.8; stroke-linecap: round"/>
   </g>
   <g id="line2d_4">
    <path d="M 298.616447 159.120888 
L 368.001316 159.120888 
" clip-path="url(#p7609b18f1a)" style="fill: none; stroke: #555555; stroke-width: 1.8; stroke-linecap: round"/>
   </g>
   <g id="line2d_5">
    <path d="M 368.001316 159.120888 
L 437.386184 159.120888 
" clip-path="url(#p7609b18f1a)" style="fill: none; stroke: #555555; stroke-width: 1.8; stroke-linecap: round"/>
   </g>
   <g id="line2d_6">
    <path d="M 437.386184 159.120888 
L 506.771053 159.120888 
" clip-path="url(#p7609b18f1a)" style="fill: none; stroke: #555555; stroke-width: 1.8; stroke-linecap: round"/>
   </g>
   <g id="line2d_7">
    <path d="M 90.461842 297.890625 
L 159.846711 297.890625 
" clip-path="url(#p7609b18f1a)" style="fill: none; stroke: #555555; stroke-width: 1.8; stroke-linecap: round"/>
   </g>
   <g id="line2d_8">
    <path d="M 159.846711 297.890625 
L 229.231579 297.890625 
" clip-path="url(#p7609b18f1a)" style="fill: none; stroke: #555555; stroke-width: 1.8; stroke-linecap: round"/>
   </g>
   <g id="line2d_9">
    <path d="M 229.231579 297.890625 
L 298.616447 297.890625 
" clip-path="url(#p7609b18f1a)" style="fill: none; stroke: #555555; stroke-width: 1.8; stroke-linecap: round"/>
   </g>
   <g id="line2d_10">
    <path d="M 298.616447 297.890625 
L 368.001316 297.890625 
" clip-path="url(#p7609b18f1a)" style="fill: none; stroke: #555555; stroke-width: 1.8; stroke-linecap: round"/>
   </g>
   <g id="line2d_11">
    <path d="M 368.001316 297.890625 
L 437.386184 297.890625 
" clip-path="url(#p7609b18f1a)" style="fill: none; stroke: #555555; stroke-width: 1.8; stroke-linecap: round"/>
   </g>
   <g id="line2d_12">
    <path d="M 437.386184 297.890625 
L 506.771053 297.890625 
" clip-path="url(#p7609b18f1a)" style="fill: none; stroke: #555555; stroke-width: 1.8; stroke-linecap: round"/>
   </g>
   <g id="line2d_13">
    <path d="M 90.461842 436.660362 
L 159.846711 436.660362 
" clip-path="url(#p7609b18f1a)" style="fill: none; stroke: #555555; stroke-width: 1.8; stroke-linecap: round"/>
   </g>
   <g id="line2d_14">
    <path d="M 159.846711 436.660362 
L 229.231579 436.660362 
" clip-path="url(#p7609b18f1a)" style="fill: none; stroke: #555555; stroke-width: 1.8; stroke-linecap: round"/>
   </g>
   <g id="line2d_15">
    <path d="M 229.231579 436.660362 
L 298.616447 436.660362 
" clip-path="url(#p7609b18f1a)" style="fill: none; stroke: #555555; stroke-width: 1.8; stroke-linecap: round"/>
   </g>
   <g id="line2d_16">
    <path d="M 298.616447 436.660362 
L 368.001316 436.660362 
" clip-path="url(#p7609b18f1a)" style="fill: none; stroke: #555555; stroke-width: 1.8; stroke-linecap: round"/>
   </g>
   <g id="line2d_17">
    <path d="M 368.001316 436.660362 
L 437.386184 436.660362 
" clip-path="url(#p7609b18f1a)" style="fill: none; stroke: #555555; stroke-width: 1.8; stroke-linecap: round"/>
   </g>
   <g id="line2d_18">
    <path d="M 437.386184 436.660362 
L 506.771053 436.660362 
" clip-path="url(#p7609b18f1a)" style="fill: none; stroke: #555555; stroke-width: 1.8; stroke-linecap: round"/>
   </g>
   <g id="line2d_19">
    <path d="M 159.846711 89.73602 
L 159.846711 159.120888 
" clip-path="url(#p7609b18f1a)" style="fill: none; stroke: #555555; stroke-width: 1.8; stroke-linecap: round"/>
   </g>
   <g id="line2d_20">
    <path d="M 159.846711 159.120888 
L 159.846711 228.505757 
" clip-path="url(#p7609b18f1a)" style="fill: none; stroke: #555555; stroke-width: 1.8; stroke-linecap: round"/>
   </g>
   <g id="line2d_21">
    <path d="M 159.846711 228.505757 
L 159.846711 297.890625 
" clip-path="url(#p7609b18f1a)" style="fill: none; stroke: #555555; stroke-width: 1.8; stroke-linecap: round"/>
   </g>
   <g id="line2d_22">
    <path d="M 159.846711 297.890625 
L 159.846711 367.275493 
" clip-path="url(#p7609b18f1a)" style="fill: none; stroke: #555555; stroke-width: 1.8; stroke-linecap: round"/>
   </g>
   <g id="line2d_23">
    <path d="M 159.846711 367.275493 
L 159.846711 436.660362 
" clip-path="url(#p7609b18f1a)" style="fill: none; stroke: #555555; stroke-width: 1.8; stroke-linecap: round"/>
   </g>
   <g id="line2d_24">
    <path d="M 159.846711 436.660362 
L 159.846711 506.04523 
" clip-path="url(#p7609b18f1a)" style="fill: none; stroke: #555555; stroke-width: 1.8; stroke-linecap: round"/>
   </g>
   <g id="line2d_25">
    <path d="M 298.616447 89.73602 
L 298.616447 159.120888 
" clip-path="url(#p7609b18f1a)" style="fill: none; stroke: #555555; stroke-width: 1.8; stroke-linecap: round"/>
   </g>
   <g id="line2d_26">
    <path d="M 298.616447 159.120888 
L 298.616447 228.505757 
" clip-path="url(#p7609b18f1a)" style="fill: none; stroke: #555555; stroke-width: 1.8; stroke-linecap: round"/>
   </g>
   <g id="line2d_27">
    <path d="M 298.616447 228.505757 
L 298.616447 297.890625 
" clip-path="url(#p7609b18f1a)" style="fill: none; stroke: #555555; stroke-width: 1.8; stroke-linecap: round"/>
   </g>
   <g id="line2d_28">
    <path d="M 298.616447 297.890625 
L 298.616447 367.275493 
" clip-path="url(#p7609b18f1a)" style="fill: none; stroke: #555555; stroke-width: 1.8; stroke-linecap: round"/>
   </g>
   <g id="line2d_29">
    <path d="M 298.616447 367.275493 
L 298.616447 436.660362 
" clip-path="url(#p7609b18f1a)" style="fill: none; stroke: #555555; stroke-width: 1.8; stroke-linecap: round"/>
   </g>
   <g id="line2d_30">
    <path d="M 298.616447 436.660362 
L 298.616447 506.04523 
" clip-path="url(#p7609b18f1a)" style="fill: none; stroke: #555555; stroke-width: 1.8; stroke-linecap: round"/>
   </g>
   <g id="line2d_31">
    <path d="M 437.386184 89.73602 
L 437.386184 159.120888 
" clip-path="url(#p7609b18f1a)" style="fill: none; stroke: #555555; stroke-width: 1.8; stroke-linecap: round"/>
   </g>
   <g id="line2d_32">
    <path d="M 437.386184 159.120888 
L 437.386184 228.505757 
" clip-path="url(#p7609b18f1a)" style="fill: none; stroke: #555555; stroke-width: 1.8; stroke-linecap: round"/>
   </g>
   <g id="line2d_33">
    <path d="M 437.386184 228.505757 
L 437.386184 297.890625 
" clip-path="url(#p7609b18f1a)" style="fill: none; stroke: #555555; stroke-width: 1.8; stroke-linecap: round"/>
   </g>
   <g id="line2d_34">
    <path d="M 437.386184 297.890625 
L 437.386184 367.275493 
" clip-path="url(#p7609b18f1a)" style="fill: none; stroke: #555555; stroke-width: 1.8; stroke-linecap: round"/>
   </g>
   <g id="line2d_35">
    <path d="M 437.386184 367.275493 
L 437.386184 436.660362 
" clip-path="url(#p7609b18f1a)" style="fill: none; stroke: #555555; stroke-width: 1.8; stroke-linecap: round"/>
   </g>
   <g id="line2d_36">
    <path d="M 437.386184 436.660362 
L 437.386184 506.04523 
" clip-path="url(#p7609b18f1a)" style="fill: none; stroke: #555555; stroke-width: 1.8; stroke-linecap: round"/>
   </g>
   <g id="patch_11">
    <path d="M 159.846711 105.000691 
C 163.894949 105.000691 167.777926 103.392309 170.640463 100.529772 
C 173.503 97.667236 175.111382 93.784258 175.111382 89.73602 
C 175.111382 85.687782 173.503 81.804804 170.640463 78.942267 
C 167.777926 76.079731 163.894949 74.471349 159.846711 74.471349 
C 155.798472 74.471349 151.915495 76.079731 149.052958 78.942267 
C 146.190422 81.804804 144.582039 85.687782 144.582039 89.73602 
C 144.582039 93.784258 146.190422 97.667236 149.052958 100.529772 
C 151.915495 103.392309 155.798472 105.000691 159.846711 105.000691 
z
" clip-path="url(#p7609b18f1a)" style="fill: #cfe0f5; stroke: #3b6fae; stroke-width: 1.5; stroke-linejoin: miter"/>
   </g>
   <g id="patch_12">
    <path d="M 298.616447 105.000691 
C 302.664685 105.000691 306.547663 103.392309 309.4102 100.529772 
C 312.272736 97.667236 313.881118 93.784258 313.881118 89.73602 
C 313.881118 85.687782 312.272736 81.804804 309.4102 78.942267 
C 306.547663 76.079731 302.664685 74.471349 298.616447 74.471349 
C 294.568209 74.471349 290.685232 76.079731 287.822695 78.942267 
C 284.960158 81.804804 283.351776 85.687782 283.351776 89.73602 
C 283.351776 93.784258 284.960158 97.667236 287.822695 100.529772 
C 290.685232 103.392309 294.568209 105.000691 298.616447 105.000691 
z
" clip-path="url(#p7609b18f1a)" style="fill: #cfe0f5; stroke: #3b6fae; stroke-width: 1.5; stroke-linejoin: miter"/>
   </g>
   <g id="patch_13">
    <path d="M 437.386184 105.000691 
C 441.434422 105.000691 445.3174 103.392309 448.179937 100.529772 
C 451.042473 97.667236 452.650855 93.784258 452.650855 89.73602 
C 452.650855 85.687782 451.042473 81.804804 448.179937 78.942267 
C 445.3174 76.079731 441.434422 74.471349 437.386184 74.471349 
C 433.337946 74.471349 429.454968 76.079731 426.592432 78.942267 
C 423.729895 81.804804 422.121513 85.687782 422.121513 89.73602 
C 422.121513 93.784258 423.729895 97.667236 426.592432 100.529772 
C 429.454968 103.392309 433.337946 105.000691 437.386184 105.000691 
z
" clip-path="url(#p7609b18f1a)" style="fill: #444444; stroke: #111111; stroke-width: 1.5; stroke-linejoin: miter"/>
   </g>
   <g id="patch_14">
    <path d="M 90.461842 174.385559 
C 94.51008 174.385559 98.393058 172.777177 101.255595 169.914641 
C 104.118131 167.052104 105.726513 163.169126 105.726513 159.120888 
C 105.726513 155.07265 104.118131 151.189672 101.255595 148.327136 
C 98.393058 145.464599 94.51008 143.856217 90.461842 143.856217 
C 86.413604 143.856217 82.530626 145.464599 79.66809 148.327136 
C 76.805553 151.189672 75.197171 155.07265 75.197171 159.120888 
C 75.197171 163.169126 76.805553 167.052104 79.66809 169.914641 
C 82.530626 172.777177 86.413604 174.385559 90.461842 174.385559 
z
" clip-path="url(#p7609b18f1a)" style="fill: #f4dfa0; stroke: #b18400; stroke-width: 1.5; stroke-linejoin: miter"/>
   </g>
   <g id="patch_15">
    <path d="M 159.846711 174.385559 
C 163.894949 174.385559 167.777926 172.777177 170.640463 169.914641 
C 173.503 167.052104 175.111382 163.169126 175.111382 159.120888 
C 175.111382 155.07265 173.503 151.189672 170.640463 148.327136 
C 167.777926 145.464599 163.894949 143.856217 159.846711 143.856217 
C 155.798472 143.856217 151.915495 145.464599 149.052958 148.327136 
C 146.190422 151.189672 144.582039 155.07265 144.582039 159.120888 
C 144.582039 163.169126 146.190422 167.052104 149.052958 169.914641 
C 151.915495 172.777177 155.798472 174.385559 159.846711 174.385559 
z
" clip-path="url(#p7609b18f1a)" style="fill: #d8d8d8; stroke: #555555; stroke-width: 1.5; stroke-linejoin: miter"/>
   </g>
   <g id="patch_16">
    <path d="M 229.231579 174.385559 
C 233.279817 174.385559 237.162795 172.777177 240.025331 169.914641 
C 242.887868 167.052104 244.49625 163.169126 244.49625 159.120888 
C 244.49625 155.07265 242.887868 151.189672 240.025331 148.327136 
C 237.162795 145.464599 233.279817 143.856217 229.231579 143.856217 
C 225.183341 143.856217 221.300363 145.464599 218.437827 148.327136 
C 215.57529 151.189672 213.966908 155.07265 213.966908 159.120888 
C 213.966908 163.169126 215.57529 167.052104 218.437827 169.914641 
C 221.300363 172.777177 225.183341 174.385559 229.231579 174.385559 
z
" clip-path="url(#p7609b18f1a)" style="fill: #444444; stroke: #111111; stroke-width: 1.5; stroke-linejoin: miter"/>
   </g>
   <g id="patch_17">
    <path d="M 298.616447 174.385559 
C 302.664685 174.385559 306.547663 172.777177 309.4102 169.914641 
C 312.272736 167.052104 313.881118 163.169126 313.881118 159.120888 
C 313.881118 155.07265 312.272736 151.189672 309.4102 148.327136 
C 306.547663 145.464599 302.664685 143.856217 298.616447 143.856217 
C 294.568209 143.856217 290.685232 145.464599 287.822695 148.327136 
C 284.960158 151.189672 283.351776 155.07265 283.351776 159.120888 
C 283.351776 163.169126 284.960158 167.052104 287.822695 169.914641 
C 290.685232 172.777177 294.568209 174.385559 298.616447 174.385559 
z
" clip-path="url(#p7609b18f1a)" style="fill: #d8d8d8; stroke: #555555; stroke-width: 1.5; stroke-linejoin: miter"/>
   </g>
   <g id="patch_18">
    <path d="M 368.001316 174.385559 
C 372.049554 174.385559 375.932532 172.777177 378.795068 169.914641 
C 381.657605 167.052104 383.265987 163.169126 383.265987 159.120888 
C 383.265987 155.07265 381.657605 151.189672 378.795068 148.327136 
C 375.932532 145.464599 372.049554 143.856217 368.001316 143.856217 
C 363.953078 143.856217 360.0701 145.464599 357.207563 148.327136 
C 354.345027 151.189672 352.736645 155.07265 352.736645 159.120888 
C 352.736645 163.169126 354.345027 167.052104 357.207563 169.914641 
C 360.0701 172.777177 363.953078 174.385559 368.001316 174.385559 
z
" clip-path="url(#p7609b18f1a)" style="fill: #d8d8d8; stroke: #555555; stroke-width: 1.5; stroke-linejoin: miter"/>
   </g>
   <g id="patch_19">
    <path d="M 437.386184 174.385559 
C 441.434422 174.385559 445.3174 172.777177 448.179937 169.914641 
C 451.042473 167.052104 452.650855 163.169126 452.650855 159.120888 
C 452.650855 155.07265 451.042473 151.189672 448.179937 148.327136 
C 445.3174 145.464599 441.434422 143.856217 437.386184 143.856217 
C 433.337946 143.856217 429.454968 145.464599 426.592432 148.327136 
C 423.729895 151.189672 422.121513 155.07265 422.121513 159.120888 
C 422.121513 163.169126 423.729895 167.052104 426.592432 169.914641 
C 429.454968 172.777177 433.337946 174.385559 437.386184 174.385559 
z
" clip-path="url(#p7609b18f1a)" style="fill: #f3cccc; stroke: #b53a3a; stroke-width: 1.5; stroke-linejoin: miter"/>
   </g>
   <g id="patch_20">
    <path d="M 506.771053 174.385559 
C 510.819291 174.385559 514.702268 172.777177 517.564805 169.914641 
C 520.427342 167.052104 522.035724 163.169126 522.035724 159.120888 
C 522.035724 155.07265 520.427342 151.189672 517.564805 148.327136 
C 514.702268 145.464599 510.819291 143.856217 506.771053 143.856217 
C 502.722815 143.856217 498.839837 145.464599 495.9773 148.327136 
C 493.114764 151.189672 491.506382 155.07265 491.506382 159.120888 
C 491.506382 163.169126 493.114764 167.052104 495.9773 169.914641 
C 498.839837 172.777177 502.722815 174.385559 506.771053 174.385559 
z
" clip-path="url(#p7609b18f1a)" style="fill: #cfe0f5; stroke: #3b6fae; stroke-width: 1.5; stroke-linejoin: miter"/>
   </g>
   <g id="patch_21">
    <path d="M 159.846711 243.770428 
C 163.894949 243.770428 167.777926 242.162046 170.640463 239.299509 
C 173.503 236.436972 175.111382 232.553995 175.111382 228.505757 
C 175.111382 224.457518 173.503 220.574541 170.640463 217.712004 
C 167.777926 214.849468 163.894949 213.241086 159.846711 213.241086 
C 155.798472 213.241086 151.915495 214.849468 149.052958 217.712004 
C 146.190422 220.574541 144.582039 224.457518 144.582039 228.505757 
C 144.582039 232.553995 146.190422 236.436972 149.052958 239.299509 
C 151.915495 242.162046 155.798472 243.770428 159.846711 243.770428 
z
" clip-path="url(#p7609b18f1a)" style="fill: #f3cccc; stroke: #b53a3a; stroke-width: 1.5; stroke-linejoin: miter"/>
   </g>
   <g id="patch_22">
    <path d="M 298.616447 243.770428 
C 302.664685 243.770428 306.547663 242.162046 309.4102 239.299509 
C 312.272736 236.436972 313.881118 232.553995 313.881118 228.505757 
C 313.881118 224.457518 312.272736 220.574541 309.4102 217.712004 
C 306.547663 214.849468 302.664685 213.241086 298.616447 213.241086 
C 294.568209 213.241086 290.685232 214.849468 287.822695 217.712004 
C 284.960158 220.574541 283.351776 224.457518 283.351776 228.505757 
C 283.351776 232.553995 284.960158 236.436972 287.822695 239.299509 
C 290.685232 242.162046 294.568209 243.770428 298.616447 243.770428 
z
" clip-path="url(#p7609b18f1a)" style="fill: #cfe0f5; stroke: #3b6fae; stroke-width: 1.5; stroke-linejoin: miter"/>
   </g>
   <g id="patch_23">
    <path d="M 437.386184 243.770428 
C 441.434422 243.770428 445.3174 242.162046 448.179937 239.299509 
C 451.042473 236.436972 452.650855 232.553995 452.650855 228.505757 
C 452.650855 224.457518 451.042473 220.574541 448.179937 217.712004 
C 445.3174 214.849468 441.434422 213.241086 437.386184 213.241086 
C 433.337946 213.241086 429.454968 214.849468 426.592432 217.712004 
C 423.729895 220.574541 422.121513 224.457518 422.121513 228.505757 
C 422.121513 232.553995 423.729895 236.436972 426.592432 239.299509 
C 429.454968 242.162046 433.337946 243.770428 437.386184 243.770428 
z
" clip-path="url(#p7609b18f1a)" style="fill: #f4dfa0; stroke: #b18400; stroke-width: 1.5; stroke-linejoin: miter"/>
   </g>
   <g id="patch_24">
    <path d="M 90.461842 313.155296 
C 94.51008 313.155296 98.393058 311.546914 101.255595 308.684377 
C 104.118131 305.821841 105.726513 301.938863 105.726513 297.890625 
C 105.726513 293.842387 104.118131 289.959409 101.255595 287.096873 
C 98.393058 284.234336 94.51008 282.625954 90.461842 282.625954 
C 86.413604 282.625954 82.530626 284.234336 79.66809 287.096873 
C 76.805553 289.959409 75.197171 293.842387 75.197171 297.890625 
C 75.197171 301.938863 76.805553 305.821841 79.66809 308.684377 
C 82.530626 311.546914 86.413604 313.155296 90.461842 313.155296 
z
" clip-path="url(#p7609b18f1a)" style="fill: #444444; stroke: #111111; stroke-width: 1.5; stroke-linejoin: miter"/>
   </g>
   <g id="patch_25">
    <path d="M 159.846711 313.155296 
C 163.894949 313.155296 167.777926 311.546914 170.640463 308.684377 
C 173.503 305.821841 175.111382 301.938863 175.111382 297.890625 
C 175.111382 293.842387 173.503 289.959409 170.640463 287.096873 
C 167.777926 284.234336 163.894949 282.625954 159.846711 282.625954 
C 155.798472 282.625954 151.915495 284.234336 149.052958 287.096873 
C 146.190422 289.959409 144.582039 293.842387 144.582039 297.890625 
C 144.582039 301.938863 146.190422 305.821841 149.052958 308.684377 
C 151.915495 311.546914 155.798472 313.155296 159.846711 313.155296 
z
" clip-path="url(#p7609b18f1a)" style="fill: #cfe0f5; stroke: #3b6fae; stroke-width: 1.5; stroke-linejoin: miter"/>
   </g>
   <g id="patch_26">
    <path d="M 229.231579 313.155296 
C 233.279817 313.155296 237.162795 311.546914 240.025331 308.684377 
C 242.887868 305.821841 244.49625 301.938863 244.49625 297.890625 
C 244.49625 293.842387 242.887868 289.959409 240.025331 287.096873 
C 237.162795 284.234336 233.279817 282.625954 229.231579 282.625954 
C 225.183341 282.625954 221.300363 284.234336 218.437827 287.096873 
C 215.57529 289.959409 213.966908 293.842387 213.966908 297.890625 
C 213.966908 301.938863 215.57529 305.821841 218.437827 308.684377 
C 221.300363 311.546914 225.183341 313.155296 229.231579 313.155296 
z
" clip-path="url(#p7609b18f1a)" style="fill: #d8d8d8; stroke: #555555; stroke-width: 1.5; stroke-linejoin: miter"/>
   </g>
   <g id="patch_27">
    <path d="M 298.616447 313.155296 
C 302.664685 313.155296 306.547663 311.546914 309.4102 308.684377 
C 312.272736 305.821841 313.881118 301.938863 313.881118 297.890625 
C 313.881118 293.842387 312.272736 289.959409 309.4102 287.096873 
C 306.547663 284.234336 302.664685 282.625954 298.616447 282.625954 
C 294.568209 282.625954 290.685232 284.234336 287.822695 287.096873 
C 284.960158 289.959409 283.351776 293.842387 283.351776 297.890625 
C 283.351776 301.938863 284.960158 305.821841 287.822695 308.684377 
C 290.685232 311.546914 294.568209 313.155296 298.616447 313.155296 
z
" clip-path="url(#p7609b18f1a)" style="fill: #f4dfa0; stroke: #b18400; stroke-width: 1.5; stroke-linejoin: miter"/>
   </g>
   <g id="patch_28">
    <path d="M 368.001316 313.155296 
C 372.049554 313.155296 375.932532 311.546914 378.795068 308.684377 
C 381.657605 305.821841 383.265987 301.938863 383.265987 297.890625 
C 383.265987 293.842387 381.657605 289.959409 378.795068 287.096873 
C 375.932532 284.234336 372.049554 282.625954 368.001316 282.625954 
C 363.953078 282.625954 360.0701 284.234336 357.207563 287.096873 
C 354.345027 289.959409 352.736645 293.842387 352.736645 297.890625 
C 352.736645 301.938863 354.345027 305.821841 357.207563 308.684377 
C 360.0701 311.546914 363.953078 313.155296 368.001316 313.155296 
z
" clip-path="url(#p7609b18f1a)" style="fill: #444444; stroke: #111111; stroke-width: 1.5; stroke-linejoin: miter"/>
   </g>
   <g id="patch_29">
    <path d="M 437.386184 313.155296 
C 441.434422 313.155296 445.3174 311.546914 448.179937 308.684377 
C 451.042473 305.821841 452.650855 301.938863 452.650855 297.890625 
C 452.650855 293.842387 451.042473 289.959409 448.179937 287.096873 
C 445.3174 284.234336 441.434422 282.625954 437.386184 282.625954 
C 433.337946 282.625954 429.454968 284.234336 426.592432 287.096873 
C 423.729895 289.959409 422.121513 293.842387 422.121513 297.890625 
C 422.121513 301.938863 423.729895 305.821841 426.592432 308.684377 
C 429.454968 311.546914 433.337946 313.155296 437.386184 313.155296 
z
" clip-path="url(#p7609b18f1a)" style="fill: #f3cccc; stroke: #b53a3a; stroke-width: 1.5; stroke-linejoin: miter"/>
   </g>
   <g id="patch_30">
    <path d="M 506.771053 313.155296 
C 510.819291 313.155296 514.702268 311.546914 517.564805 308.684377 
C 520.427342 305.821841 522.035724 301.938863 522.035724 297.890625 
C 522.035724 293.842387 520.427342 289.959409 517.564805 287.096873 
C 514.702268 284.234336 510.819291 282.625954 506.771053 282.625954 
C 502.722815 282.625954 498.839837 284.234336 495.9773 287.096873 
C 493.114764 289.959409 491.506382 293.842387 491.506382 297.890625 
C 491.506382 301.938863 493.114764 305.821841 495.9773 308.684377 
C 498.839837 311.546914 502.722815 313.155296 506.771053 313.155296 
z
" clip-path="url(#p7609b18f1a)" style="fill: #f4dfa0; stroke: #b18400; stroke-width: 1.5; stroke-linejoin: miter"/>
   </g>
   <g id="patch_31">
    <path d="M 159.846711 382.540164 
C 163.894949 382.540164 167.777926 380.931782 170.640463 378.069246 
C 173.503 375.206709 175.111382 371.323732 175.111382 367.275493 
C 175.111382 363.227255 173.503 359.344278 170.640463 356.481741 
C 167.777926 353.619204 163.894949 352.010822 159.846711 352.010822 
C 155.798472 352.010822 151.915495 353.619204 149.052958 356.481741 
C 146.190422 359.344278 144.582039 363.227255 144.582039 367.275493 
C 144.582039 371.323732 146.190422 375.206709 149.052958 378.069246 
C 151.915495 380.931782 155.798472 382.540164 159.846711 382.540164 
z
" clip-path="url(#p7609b18f1a)" style="fill: #f4dfa0; stroke: #b18400; stroke-width: 1.5; stroke-linejoin: miter"/>
   </g>
   <g id="patch_32">
    <path d="M 298.616447 382.540164 
C 302.664685 382.540164 306.547663 380.931782 309.4102 378.069246 
C 312.272736 375.206709 313.881118 371.323732 313.881118 367.275493 
C 313.881118 363.227255 312.272736 359.344278 309.4102 356.481741 
C 306.547663 353.619204 302.664685 352.010822 298.616447 352.010822 
C 294.568209 352.010822 290.685232 353.619204 287.822695 356.481741 
C 284.960158 359.344278 283.351776 363.227255 283.351776 367.275493 
C 283.351776 371.323732 284.960158 375.206709 287.822695 378.069246 
C 290.685232 380.931782 294.568209 382.540164 298.616447 382.540164 
z
" clip-path="url(#p7609b18f1a)" style="fill: #f3cccc; stroke: #b53a3a; stroke-width: 1.5; stroke-linejoin: miter"/>
   </g>
   <g id="patch_33">
    <path d="M 437.386184 382.540164 
C 441.434422 382.540164 445.3174 380.931782 448.179937 378.069246 
C 451.042473 375.206709 452.650855 371.323732 452.650855 367.275493 
C 452.650855 363.227255 451.042473 359.344278 448.179937 356.481741 
C 445.3174 353.619204 441.434422 352.010822 437.386184 352.010822 
C 433.337946 352.010822 429.454968 353.619204 426.592432 356.481741 
C 423.729895 359.344278 422.121513 363.227255 422.121513 367.275493 
C 422.121513 371.323732 423.729895 375.206709 426.592432 378.069246 
C 429.454968 380.931782 433.337946 382.540164 437.386184 382.540164 
z
" clip-path="url(#p7609b18f1a)" style="fill: #f3cccc; stroke: #b53a3a; stroke-width: 1.5; stroke-linejoin: miter"/>
   </g>
   <g id="patch_34">
    <path d="M 90.461842 451.925033 
C 94.51008 451.925033 98.393058 450.316651 101.255595 447.454114 
C 104.118131 444.591578 105.726513 440.7086 105.726513 436.660362 
C 105.726513 432.612124 104.118131 428.729146 101.255595 425.866609 
C 98.393058 423.004073 94.51008 421.395691 90.461842 421.395691 
C 86.413604 421.395691 82.530626 423.004073 79.66809 425.866609 
C 76.805553 428.729146 75.197171 432.612124 75.197171 436.660362 
C 75.197171 440.7086 76.805553 444.591578 79.66809 447.454114 
C 82.530626 450.316651 86.413604 451.925033 90.461842 451.925033 
z
" clip-path="url(#p7609b18f1a)" style="fill: #d8d8d8; stroke: #555555; stroke-width: 1.5; stroke-linejoin: miter"/>
   </g>
   <g id="patch_35">
    <path d="M 159.846711 451.925033 
C 163.894949 451.925033 167.777926 450.316651 170.640463 447.454114 
C 173.503 444.591578 175.111382 440.7086 175.111382 436.660362 
C 175.111382 432.612124 173.503 428.729146 170.640463 425.866609 
C 167.777926 423.004073 163.894949 421.395691 159.846711 421.395691 
C 155.798472 421.395691 151.915495 423.004073 149.052958 425.866609 
C 146.190422 428.729146 144.582039 432.612124 144.582039 436.660362 
C 144.582039 440.7086 146.190422 444.591578 149.052958 447.454114 
C 151.915495 450.316651 155.798472 451.925033 159.846711 451.925033 
z
" clip-path="url(#p7609b18f1a)" style="fill: #cfe0f5; stroke: #3b6fae; stroke-width: 1.5; stroke-linejoin: miter"/>
   </g>
   <g id="patch_36">
    <path d="M 229.231579 451.925033 
C 233.279817 451.925033 237.162795 450.316651 240.025331 447.454114 
C 242.887868 444.591578 244.49625 440.7086 244.49625 436.660362 
C 244.49625 432.612124 242.887868 428.729146 240.025331 425.866609 
C 237.162795 423.004073 233.279817 421.395691 229.231579 421.395691 
C 225.183341 421.395691 221.300363 423.004073 218.437827 425.866609 
C 215.57529 428.729146 213.966908 432.612124 213.966908 436.660362 
C 213.966908 440.7086 215.57529 444.591578 218.437827 447.454114 
C 221.300363 450.316651 225.183341 451.925033 229.231579 451.925033 
z
" clip-path="url(#p7609b18f1a)" style="fill: #444444; stroke: #111111; stroke-width: 1.5; stroke-linejoin: miter"/>
   </g>
   <g id="patch_37">
    <path d="M 298.616447 451.925033 
C 302.664685 451.925033 306.547663 450.316651 309.4102 447.454114 
C 312.272736 444.591578 313.881118 440.7086 313.881118 436.660362 
C 313.881118 432.612124 312.272736 428.729146 309.4102 425.866609 
C 306.547663 423.004073 302.664685 421.395691 298.616447 421.395691 
C 294.568209 421.395691 290.685232 423.004073 287.822695 425.866609 
C 284.960158 428.729146 283.351776 432.612124 283.351776 436.660362 
C 283.351776 440.7086 284.960158 444.591578 287.822695 447.454114 
C 290.685232 450.316651 294.568209 451.925033 298.616447 451.925033 
z
" clip-path="url(#p7609b18f1a)" style="fill: #444444; stroke: #111111; stroke-width: 1.5; stroke-linejoin: miter"/>
   </g>
   <g id="patch_38">
    <path d="M 368.001316 451.925033 
C 372.049554 451.925033 375.932532 450.316651 378.795068 447.454114 
C 381.657605 444.591578 383.265987 440.7086 383.265987 436.660362 
C 383.265987 432.612124 381.657605 428.729146 378.795068 425.866609 
C 375.932532 423.004073 372.049554 421.395691 368.001316 421.395691 
C 363.953078 421.395691 360.0701 423.004073 357.207563 425.866609 
C 354.345027 428.729146 352.736645 432.612124 352.736645 436.660362 
C 352.736645 440.7086 354.345027 444.591578 357.207563 447.454114 
C 360.0701 450.316651 363.953078 451.925033 368.001316 451.925033 
z
" clip-path="url(#p7609b18f1a)" style="fill: #d8d8d8; stroke: #555555; stroke-width: 1.5; stroke-linejoin: miter"/>
   </g>
   <g id="patch_39">
    <path d="M 437.386184 451.925033 
C 441.434422 451.925033 445.3174 450.316651 448.179937 447.454114 
C 451.042473 444.591578 452.650855 440.7086 452.650855 436.660362 
C 452.650855 432.612124 451.042473 428.729146 448.179937 425.866609 
C 445.3174 423.004073 441.434422 421.395691 437.386184 421.395691 
C 433.337946 421.395691 429.454968 423.004073 426.592432 425.866609 
C 423.729895 428.729146 422.121513 432.612124 422.121513 436.660362 
C 422.121513 440.7086 423.729895 444.591578 426.592432 447.454114 
C 429.454968 450.316651 433.337946 451.925033 437.386184 451.925033 
z
" clip-path="url(#p7609b18f1a)" style="fill: #444444; stroke: #111111; stroke-width: 1.5; stroke-linejoin: miter"/>
   </g>
   <g id="patch_40">
    <path d="M 506.771053 451.925033 
C 510.819291 451.925033 514.702268 450.316651 517.564805 447.454114 
C 520.427342 444.591578 522.035724 440.7086 522.035724 436.660362 
C 522.035724 432.612124 520.427342 428.729146 517.564805 425.866609 
C 514.702268 423.004073 510.819291 421.395691 506.771053 421.395691 
C 502.722815 421.395691 498.839837 423.004073 495.9773 425.866609 
C 493.114764 428.729146 491.506382 432.612124 491.506382 436.660362 
C 491.506382 440.7086 493.114764 444.591578 495.9773 447.454114 
C 498.839837 450.316651 502.722815 451.925033 506.771053 451.925033 
z
" clip-path="url(#p7609b18f1a)" style="fill: #f4dfa0; stroke: #b18400; stroke-width: 1.5; stroke-linejoin: miter"/>
   </g>
   <g id="patch_41">
    <path d="M 159.846711 521.309901 
C 163.894949 521.309901 167.777926 519.701519 170.640463 516.838983 
C 173.503 513.976446 175.111382 510.093468 175.111382 506.04523 
C 175.111382 501.996992 173.503 498.114014 170.640463 495.251478 
C 167.777926 492.388941 163.894949 490.780559 159.846711 490.780559 
C 155.798472 490.780559 151.915495 492.388941 149.052958 495.251478 
C 146.190422 498.114014 144.582039 501.996992 144.582039 506.04523 
C 144.582039 510.093468 146.190422 513.976446 149.052958 516.838983 
C 151.915495 519.701519 155.798472 521.309901 159.846711 521.309901 
z
" clip-path="url(#p7609b18f1a)" style="fill: #f3cccc; stroke: #b53a3a; stroke-width: 1.5; stroke-linejoin: miter"/>
   </g>
   <g id="patch_42">
    <path d="M 298.616447 521.309901 
C 302.664685 521.309901 306.547663 519.701519 309.4102 516.838983 
C 312.272736 513.976446 313.881118 510.093468 313.881118 506.04523 
C 313.881118 501.996992 312.272736 498.114014 309.4102 495.251478 
C 306.547663 492.388941 302.664685 490.780559 298.616447 490.780559 
C 294.568209 490.780559 290.685232 492.388941 287.822695 495.251478 
C 284.960158 498.114014 283.351776 501.996992 283.351776 506.04523 
C 283.351776 510.093468 284.960158 513.976446 287.822695 516.838983 
C 290.685232 519.701519 294.568209 521.309901 298.616447 521.309901 
z
" clip-path="url(#p7609b18f1a)" style="fill: #f3cccc; stroke: #b53a3a; stroke-width: 1.5; stroke-linejoin: miter"/>
   </g>
   <g id="patch_43">
    <path d="M 437.386184 521.309901 
C 441.434422 521.309901 445.3174 519.701519 448.179937 516.838983 
C 451.042473 513.976446 452.650855 510.093468 452.650855 506.04523 
C 452.650855 501.996992 451.042473 498.114014 448.179937 495.251478 
C 445.3174 492.388941 441.434422 490.780559 437.386184 490.780559 
C 433.337946 490.780559 429.454968 492.388941 426.592432 495.251478 
C 423.729895 498.114014 422.121513 501.996992 422.121513 506.04523 
C 422.121513 510.093468 423.729895 513.976446 426.592432 516.838983 
C 429.454968 519.701519 433.337946 521.309901 437.386184 521.309901 
z
" clip-path="url(#p7609b18f1a)" style="fill: #cfe0f5; stroke: #3b6fae; stroke-width: 1.5; stroke-linejoin: miter"/>
   </g>
   <g id="text_10">
    <!-- 23 -->
    <g style="fill: #244c7a" transform="translate(154.019211 92.712113) scale(0.105 -0.105)">
     <defs>
      <path id="NotoSansCJKjp-Regular-32" d="M 282 0 
L 3232 0 
L 3232 506 
L 1933 506 
C 1696 506 1408 480 1165 461 
C 2266 1504 3008 2458 3008 3398 
C 3008 4230 2477 4774 1638 4774 
C 1043 4774 634 4506 256 4090 
L 595 3757 
C 858 4070 1184 4301 1568 4301 
C 2150 4301 2432 3910 2432 3373 
C 2432 2566 1754 1632 282 346 
L 282 0 
z
" transform="scale(0.015625)"/>
      <path id="NotoSansCJKjp-Regular-33" d="M 1683 -83 
C 2522 -83 3194 416 3194 1254 
C 3194 1901 2752 2310 2202 2445 
L 2202 2477 
C 2701 2650 3034 3034 3034 3603 
C 3034 4346 2458 4774 1664 4774 
C 1126 4774 710 4538 358 4218 
L 672 3846 
C 941 4115 1267 4301 1645 4301 
C 2138 4301 2438 4006 2438 3558 
C 2438 3053 2112 2662 1139 2662 
L 1139 2214 
C 2227 2214 2598 1843 2598 1274 
C 2598 736 2208 403 1645 403 
C 1114 403 762 659 486 941 
L 186 563 
C 493 224 954 -83 1683 -83 
z
" transform="scale(0.015625)"/>
     </defs>
     <use xlink:href="#NotoSansCJKjp-Regular-32"/>
     <use xlink:href="#NotoSansCJKjp-Regular-33" transform="translate(55.499985 0)"/>
    </g>
   </g>
   <g id="text_11">
    <!-- 28 -->
    <g style="fill: #244c7a" transform="translate(292.788947 92.712113) scale(0.105 -0.105)">
     <use xlink:href="#NotoSansCJKjp-Regular-32"/>
     <use xlink:href="#NotoSansCJKjp-Regular-38" transform="translate(55.499985 0)"/>
    </g>
   </g>
   <g id="text_12">
    <!-- 21 -->
    <g style="fill: #ffffff" transform="translate(431.558684 92.712113) scale(0.105 -0.105)">
     <defs>
      <path id="NotoSansCJKjp-Regular-31" d="M 563 0 
L 3136 0 
L 3136 486 
L 2195 486 
L 2195 4691 
L 1747 4691 
C 1491 4544 1190 4435 774 4358 
L 774 3987 
L 1613 3987 
L 1613 486 
L 563 486 
L 563 0 
z
" transform="scale(0.015625)"/>
     </defs>
     <use xlink:href="#NotoSansCJKjp-Regular-32"/>
     <use xlink:href="#NotoSansCJKjp-Regular-31" transform="translate(55.499985 0)"/>
    </g>
   </g>
   <g id="text_13">
    <!-- 20 -->
    <g style="fill: #6a5000" transform="translate(84.634342 162.096982) scale(0.105 -0.105)">
     <defs>
      <path id="NotoSansCJKjp-Regular-30" d="M 1779 -83 
C 2669 -83 3238 723 3238 2362 
C 3238 3987 2669 4774 1779 4774 
C 883 4774 320 3987 320 2362 
C 320 723 883 -83 1779 -83 
z
M 1779 390 
C 1248 390 883 986 883 2362 
C 883 3731 1248 4314 1779 4314 
C 2310 4314 2675 3731 2675 2362 
C 2675 986 2310 390 1779 390 
z
" transform="scale(0.015625)"/>
     </defs>
     <use xlink:href="#NotoSansCJKjp-Regular-32"/>
     <use xlink:href="#NotoSansCJKjp-Regular-30" transform="translate(55.499985 0)"/>
    </g>
   </g>
   <g id="text_14">
    <!-- 4 -->
    <g style="fill: #222222" transform="translate(156.932961 162.096982) scale(0.105 -0.105)">
     <defs>
      <path id="NotoSansCJKjp-Regular-34" d="M 2176 0 
L 2726 0 
L 2726 1293 
L 3354 1293 
L 3354 1760 
L 2726 1760 
L 2726 4691 
L 2080 4691 
L 128 1677 
L 128 1293 
L 2176 1293 
L 2176 0 
z
M 2176 1760 
L 736 1760 
L 1805 3360 
C 1939 3590 2067 3827 2182 4051 
L 2208 4051 
C 2195 3814 2176 3430 2176 3200 
L 2176 1760 
z
" transform="scale(0.015625)"/>
     </defs>
     <use xlink:href="#NotoSansCJKjp-Regular-34"/>
    </g>
   </g>
   <g id="text_15">
    <!-- 16 -->
    <g style="fill: #ffffff" transform="translate(223.404079 162.096982) scale(0.105 -0.105)">
     <defs>
      <path id="NotoSansCJKjp-Regular-36" d="M 1926 -83 
C 2656 -83 3277 531 3277 1440 
C 3277 2426 2765 2912 1971 2912 
C 1606 2912 1197 2701 909 2349 
C 934 3802 1466 4294 2118 4294 
C 2400 4294 2682 4154 2861 3936 
L 3194 4294 
C 2931 4576 2579 4774 2093 4774 
C 1184 4774 358 4077 358 2240 
C 358 691 1030 -83 1926 -83 
z
M 922 1882 
C 1229 2317 1587 2477 1875 2477 
C 2445 2477 2720 2074 2720 1440 
C 2720 800 2374 378 1926 378 
C 1338 378 986 909 922 1882 
z
" transform="scale(0.015625)"/>
     </defs>
     <use xlink:href="#NotoSansCJKjp-Regular-31"/>
     <use xlink:href="#NotoSansCJKjp-Regular-36" transform="translate(55.499985 0)"/>
    </g>
   </g>
   <g id="text_16">
    <!-- 9 -->
    <g style="fill: #222222" transform="translate(295.702697 162.096982) scale(0.105 -0.105)">
     <defs>
      <path id="NotoSansCJKjp-Regular-39" d="M 1504 -83 
C 2381 -83 3206 646 3206 2547 
C 3206 4038 2528 4774 1626 4774 
C 896 4774 282 4166 282 3251 
C 282 2285 794 1779 1574 1779 
C 1965 1779 2368 2003 2656 2349 
C 2611 896 2086 403 1485 403 
C 1178 403 896 538 691 762 
L 371 397 
C 634 122 992 -83 1504 -83 
z
M 2650 2842 
C 2336 2394 1984 2214 1670 2214 
C 1114 2214 832 2624 832 3251 
C 832 3898 1178 4320 1632 4320 
C 2227 4320 2586 3808 2650 2842 
z
" transform="scale(0.015625)"/>
     </defs>
     <use xlink:href="#NotoSansCJKjp-Regular-39"/>
    </g>
   </g>
   <g id="text_17">
    <!-- 14 -->
    <g style="fill: #222222" transform="translate(362.173816 162.096982) scale(0.105 -0.105)">
     <use xlink:href="#NotoSansCJKjp-Regular-31"/>
     <use xlink:href="#NotoSansCJKjp-Regular-34" transform="translate(55.499985 0)"/>
    </g>
   </g>
   <g id="text_18">
    <!-- 2 -->
    <g style="fill: #702020" transform="translate(434.472434 162.096982) scale(0.105 -0.105)">
     <use xlink:href="#NotoSansCJKjp-Regular-32"/>
    </g>
   </g>
   <g id="text_19">
    <!-- 33 -->
    <g style="fill: #244c7a" transform="translate(500.943553 162.096982) scale(0.105 -0.105)">
     <use xlink:href="#NotoSansCJKjp-Regular-33"/>
     <use xlink:href="#NotoSansCJKjp-Regular-33" transform="translate(55.499985 0)"/>
    </g>
   </g>
   <g id="text_20">
    <!-- 22 -->
    <g style="fill: #702020" transform="translate(154.019211 231.48185) scale(0.105 -0.105)">
     <use xlink:href="#NotoSansCJKjp-Regular-32"/>
     <use xlink:href="#NotoSansCJKjp-Regular-32" transform="translate(55.499985 0)"/>
    </g>
   </g>
   <g id="text_21">
    <!-- 18 -->
    <g style="fill: #244c7a" transform="translate(292.788947 231.48185) scale(0.105 -0.105)">
     <use xlink:href="#NotoSansCJKjp-Regular-31"/>
     <use xlink:href="#NotoSansCJKjp-Regular-38" transform="translate(55.499985 0)"/>
    </g>
   </g>
   <g id="text_22">
    <!-- 15 -->
    <g style="fill: #6a5000" transform="translate(431.558684 231.48185) scale(0.105 -0.105)">
     <use xlink:href="#NotoSansCJKjp-Regular-31"/>
     <use xlink:href="#NotoSansCJKjp-Regular-35" transform="translate(55.499985 0)"/>
    </g>
   </g>
   <g id="text_23">
    <!-- 31 -->
    <g style="fill: #ffffff" transform="translate(84.634342 300.866719) scale(0.105 -0.105)">
     <use xlink:href="#NotoSansCJKjp-Regular-33"/>
     <use xlink:href="#NotoSansCJKjp-Regular-31" transform="translate(55.499985 0)"/>
    </g>
   </g>
   <g id="text_24">
    <!-- 3 -->
    <g style="fill: #244c7a" transform="translate(156.932961 300.866719) scale(0.105 -0.105)">
     <use xlink:href="#NotoSansCJKjp-Regular-33"/>
    </g>
   </g>
   <g id="text_25">
    <!-- 19 -->
    <g style="fill: #222222" transform="translate(223.404079 300.866719) scale(0.105 -0.105)">
     <use xlink:href="#NotoSansCJKjp-Regular-31"/>
     <use xlink:href="#NotoSansCJKjp-Regular-39" transform="translate(55.499985 0)"/>
    </g>
   </g>
   <g id="text_26">
    <!-- 5 -->
    <g style="fill: #6a5000" transform="translate(295.702697 300.866719) scale(0.105 -0.105)">
     <use xlink:href="#NotoSansCJKjp-Regular-35"/>
    </g>
   </g>
   <g id="text_27">
    <!-- 26 -->
    <g style="fill: #ffffff" transform="translate(362.173816 300.866719) scale(0.105 -0.105)">
     <use xlink:href="#NotoSansCJKjp-Regular-32"/>
     <use xlink:href="#NotoSansCJKjp-Regular-36" transform="translate(55.499985 0)"/>
    </g>
   </g>
   <g id="text_28">
    <!-- 7 -->
    <g style="fill: #702020" transform="translate(434.472434 300.866719) scale(0.105 -0.105)">
     <defs>
      <path id="NotoSansCJKjp-Regular-37" d="M 1267 0 
L 1875 0 
C 1952 1837 2150 2931 3251 4339 
L 3251 4691 
L 314 4691 
L 314 4192 
L 2592 4192 
C 1670 2912 1350 1779 1267 0 
z
" transform="scale(0.015625)"/>
     </defs>
     <use xlink:href="#NotoSansCJKjp-Regular-37"/>
    </g>
   </g>
   <g id="text_29">
    <!-- 25 -->
    <g style="fill: #6a5000" transform="translate(500.943553 300.866719) scale(0.105 -0.105)">
     <use xlink:href="#NotoSansCJKjp-Regular-32"/>
     <use xlink:href="#NotoSansCJKjp-Regular-35" transform="translate(55.499985 0)"/>
    </g>
   </g>
   <g id="text_30">
    <!-- 10 -->
    <g style="fill: #6a5000" transform="translate(154.019211 370.251587) scale(0.105 -0.105)">
     <use xlink:href="#NotoSansCJKjp-Regular-31"/>
     <use xlink:href="#NotoSansCJKjp-Regular-30" transform="translate(55.499985 0)"/>
    </g>
   </g>
   <g id="text_31">
    <!-- 17 -->
    <g style="fill: #702020" transform="translate(292.788947 370.251587) scale(0.105 -0.105)">
     <use xlink:href="#NotoSansCJKjp-Regular-31"/>
     <use xlink:href="#NotoSansCJKjp-Regular-37" transform="translate(55.499985 0)"/>
    </g>
   </g>
   <g id="text_32">
    <!-- 12 -->
    <g style="fill: #702020" transform="translate(431.558684 370.251587) scale(0.105 -0.105)">
     <use xlink:href="#NotoSansCJKjp-Regular-31"/>
     <use xlink:href="#NotoSansCJKjp-Regular-32" transform="translate(55.499985 0)"/>
    </g>
   </g>
   <g id="text_33">
    <!-- 29 -->
    <g style="fill: #222222" transform="translate(84.634342 439.636456) scale(0.105 -0.105)">
     <use xlink:href="#NotoSansCJKjp-Regular-32"/>
     <use xlink:href="#NotoSansCJKjp-Regular-39" transform="translate(55.499985 0)"/>
    </g>
   </g>
   <g id="text_34">
    <!-- 8 -->
    <g style="fill: #244c7a" transform="translate(156.932961 439.636456) scale(0.105 -0.105)">
     <use xlink:href="#NotoSansCJKjp-Regular-38"/>
    </g>
   </g>
   <g id="text_35">
    <!-- 11 -->
    <g style="fill: #ffffff" transform="translate(223.404079 439.636456) scale(0.105 -0.105)">
     <use xlink:href="#NotoSansCJKjp-Regular-31"/>
     <use xlink:href="#NotoSansCJKjp-Regular-31" transform="translate(55.499985 0)"/>
    </g>
   </g>
   <g id="text_36">
    <!-- 1 -->
    <g style="fill: #ffffff" transform="translate(295.702697 439.636456) scale(0.105 -0.105)">
     <use xlink:href="#NotoSansCJKjp-Regular-31"/>
    </g>
   </g>
   <g id="text_37">
    <!-- 24 -->
    <g style="fill: #222222" transform="translate(362.173816 439.636456) scale(0.105 -0.105)">
     <use xlink:href="#NotoSansCJKjp-Regular-32"/>
     <use xlink:href="#NotoSansCJKjp-Regular-34" transform="translate(55.499985 0)"/>
    </g>
   </g>
   <g id="text_38">
    <!-- 6 -->
    <g style="fill: #ffffff" transform="translate(434.472434 439.636456) scale(0.105 -0.105)">
     <use xlink:href="#NotoSansCJKjp-Regular-36"/>
    </g>
   </g>
   <g id="text_39">
    <!-- 30 -->
    <g style="fill: #6a5000" transform="translate(500.943553 439.636456) scale(0.105 -0.105)">
     <use xlink:href="#NotoSansCJKjp-Regular-33"/>
     <use xlink:href="#NotoSansCJKjp-Regular-30" transform="translate(55.499985 0)"/>
    </g>
   </g>
   <g id="text_40">
    <!-- 27 -->
    <g style="fill: #702020" transform="translate(154.019211 509.021324) scale(0.105 -0.105)">
     <use xlink:href="#NotoSansCJKjp-Regular-32"/>
     <use xlink:href="#NotoSansCJKjp-Regular-37" transform="translate(55.499985 0)"/>
    </g>
   </g>
   <g id="text_41">
    <!-- 32 -->
    <g style="fill: #702020" transform="translate(292.788947 509.021324) scale(0.105 -0.105)">
     <use xlink:href="#NotoSansCJKjp-Regular-33"/>
     <use xlink:href="#NotoSansCJKjp-Regular-32" transform="translate(55.499985 0)"/>
    </g>
   </g>
   <g id="text_42">
    <!-- 13 -->
    <g style="fill: #244c7a" transform="translate(431.558684 509.021324) scale(0.105 -0.105)">
     <use xlink:href="#NotoSansCJKjp-Regular-31"/>
     <use xlink:href="#NotoSansCJKjp-Regular-33" transform="translate(55.499985 0)"/>
    </g>
   </g>
   <g id="text_43">
    <!-- 낙서오구도 (오자각득) 전역 그물형 격자 시각화 -->
    <g transform="translate(154.044572 19.228125) scale(0.15 -0.15)">
     <defs>
      <path id="NotoSansCJKjp-Regular-b099" d="M 1069 1645 
L 1069 1210 
L 4282 1210 
L 4282 -499 
L 4813 -499 
L 4813 1645 
L 1069 1645 
z
M 4282 5293 
L 4282 1965 
L 4813 1965 
L 4813 3418 
L 5664 3418 
L 5664 3859 
L 4813 3859 
L 4813 5293 
L 4282 5293 
z
M 595 2829 
L 595 2381 
L 1056 2381 
C 1914 2381 2784 2438 3757 2637 
L 3693 3072 
C 2771 2886 1939 2829 1126 2829 
L 1126 4960 
L 595 4960 
L 595 2829 
z
" transform="scale(0.015625)"/>
      <path id="NotoSansCJKjp-Regular-c11c" d="M 4557 5293 
L 4557 3328 
L 3213 3328 
L 3213 2893 
L 4557 2893 
L 4557 -506 
L 5082 -506 
L 5082 5293 
L 4557 5293 
z
M 1811 4794 
L 1811 3757 
C 1811 2688 1165 1574 314 1152 
L 646 723 
C 1299 1075 1837 1805 2086 2662 
C 2342 1850 2867 1165 3520 826 
L 3840 1254 
C 3002 1651 2349 2707 2349 3757 
L 2349 4794 
L 1811 4794 
z
" transform="scale(0.015625)"/>
      <path id="NotoSansCJKjp-Regular-c624" d="M 2931 4486 
C 3853 4486 4525 4051 4525 3398 
C 4525 2733 3853 2304 2931 2304 
C 2016 2304 1344 2733 1344 3398 
C 1344 4051 2016 4486 2931 4486 
z
M 320 685 
L 320 243 
L 5568 243 
L 5568 685 
L 3194 685 
L 3194 1888 
C 4275 1971 5037 2541 5037 3398 
C 5037 4314 4154 4915 2931 4915 
C 1715 4915 832 4314 832 3398 
C 832 2541 1587 1971 2669 1888 
L 2669 685 
L 320 685 
z
" transform="scale(0.015625)"/>
      <path id="NotoSansCJKjp-Regular-ad6c" d="M 320 2432 
L 320 1990 
L 2656 1990 
L 2656 -506 
L 3187 -506 
L 3187 1990 
L 5549 1990 
L 5549 2432 
L 4704 2432 
C 4864 3264 4864 3866 4864 4410 
L 4864 4915 
L 973 4915 
L 973 4486 
L 4339 4486 
L 4339 4410 
C 4339 3872 4339 3258 4160 2432 
L 320 2432 
z
" transform="scale(0.015625)"/>
      <path id="NotoSansCJKjp-Regular-b3c4" d="M 986 4826 
L 986 2157 
L 2669 2157 
L 2669 672 
L 320 672 
L 320 230 
L 5568 230 
L 5568 672 
L 3194 672 
L 3194 2157 
L 4960 2157 
L 4960 2586 
L 1517 2586 
L 1517 4390 
L 4902 4390 
L 4902 4826 
L 986 4826 
z
" transform="scale(0.015625)"/>
      <path id="NotoSansCJKjp-Regular-c790" d="M 429 4698 
L 429 4256 
L 1747 4256 
L 1747 3526 
C 1747 2541 1056 1446 224 1037 
L 538 614 
C 1184 947 1754 1690 2016 2528 
C 2278 1754 2816 1075 3456 755 
L 3757 1178 
C 2925 1581 2272 2605 2272 3526 
L 2272 4256 
L 3552 4256 
L 3552 4698 
L 429 4698 
z
M 4237 5293 
L 4237 -499 
L 4768 -499 
L 4768 2509 
L 5715 2509 
L 5715 2957 
L 4768 2957 
L 4768 5293 
L 4237 5293 
z
" transform="scale(0.015625)"/>
      <path id="NotoSansCJKjp-Regular-ac01" d="M 1050 1632 
L 1050 1197 
L 4282 1197 
L 4282 -499 
L 4813 -499 
L 4813 1632 
L 1050 1632 
z
M 4282 5293 
L 4282 1901 
L 4813 1901 
L 4813 3379 
L 5664 3379 
L 5664 3827 
L 4813 3827 
L 4813 5293 
L 4282 5293 
z
M 570 4922 
L 570 4493 
L 2662 4493 
C 2566 3520 1715 2752 307 2374 
L 525 1958 
C 2221 2413 3232 3456 3232 4922 
L 570 4922 
z
" transform="scale(0.015625)"/>
      <path id="NotoSansCJKjp-Regular-b4dd" d="M 320 2477 
L 320 2042 
L 5555 2042 
L 5555 2477 
L 320 2477 
z
M 902 1357 
L 902 922 
L 4384 922 
L 4384 -525 
L 4909 -525 
L 4909 1357 
L 902 1357 
z
M 979 5069 
L 979 3117 
L 4954 3117 
L 4954 3546 
L 1510 3546 
L 1510 4640 
L 4902 4640 
L 4902 5069 
L 979 5069 
z
" transform="scale(0.015625)"/>
      <path id="NotoSansCJKjp-Regular-c804" d="M 4550 5286 
L 4550 3693 
L 3386 3693 
L 3386 3258 
L 4550 3258 
L 4550 1043 
L 5082 1043 
L 5082 5286 
L 4550 5286 
z
M 1389 1421 
L 1389 -371 
L 5242 -371 
L 5242 64 
L 1914 64 
L 1914 1421 
L 1389 1421 
z
M 506 4819 
L 506 4384 
L 1792 4384 
L 1792 4102 
C 1792 3277 1197 2509 339 2208 
L 614 1779 
C 1299 2035 1824 2566 2067 3226 
C 2317 2630 2816 2150 3462 1914 
L 3731 2336 
C 2893 2630 2330 3360 2330 4102 
L 2330 4384 
L 3597 4384 
L 3597 4819 
L 506 4819 
z
" transform="scale(0.015625)"/>
      <path id="NotoSansCJKjp-Regular-c5ed" d="M 1216 1562 
L 1216 1133 
L 4550 1133 
L 4550 -499 
L 5082 -499 
L 5082 1562 
L 1216 1562 
z
M 1901 4512 
C 2458 4512 2880 4122 2880 3578 
C 2880 3021 2458 2637 1901 2637 
C 1331 2637 915 3021 915 3578 
C 915 4122 1331 4512 1901 4512 
z
M 4550 4006 
L 4550 3142 
L 3322 3142 
C 3360 3277 3386 3424 3386 3578 
C 3386 3731 3366 3872 3322 4006 
L 4550 4006 
z
M 1901 4966 
C 1043 4966 410 4390 410 3578 
C 410 2758 1043 2182 1901 2182 
C 2400 2182 2822 2381 3085 2707 
L 4550 2707 
L 4550 1882 
L 5082 1882 
L 5082 5293 
L 4550 5293 
L 4550 4442 
L 3091 4442 
C 2822 4768 2400 4966 1901 4966 
z
" transform="scale(0.015625)"/>
      <path id="NotoSansCJKjp-Regular-adf8" d="M 320 787 
L 320 346 
L 5549 346 
L 5549 787 
L 320 787 
z
M 890 4678 
L 890 4243 
L 4326 4243 
L 4326 4096 
C 4326 3379 4326 2515 4096 1338 
L 4634 1280 
C 4851 2534 4851 3360 4851 4096 
L 4851 4678 
L 890 4678 
z
" transform="scale(0.015625)"/>
      <path id="NotoSansCJKjp-Regular-bb3c" d="M 998 5101 
L 998 3334 
L 4870 3334 
L 4870 5101 
L 998 5101 
z
M 4346 4678 
L 4346 3757 
L 1517 3757 
L 1517 4678 
L 4346 4678 
z
M 966 -19 
L 966 -435 
L 5050 -435 
L 5050 -19 
L 1485 -19 
L 1485 557 
L 4877 557 
L 4877 1862 
L 3194 1862 
L 3194 2426 
L 5549 2426 
L 5549 2854 
L 320 2854 
L 320 2426 
L 2662 2426 
L 2662 1862 
L 954 1862 
L 954 1453 
L 4358 1453 
L 4358 947 
L 966 947 
L 966 -19 
z
" transform="scale(0.015625)"/>
      <path id="NotoSansCJKjp-Regular-d615" d="M 1965 3930 
C 1190 3930 659 3501 659 2854 
C 659 2208 1190 1786 1965 1786 
C 2739 1786 3277 2208 3277 2854 
C 3277 3501 2739 3930 1965 3930 
z
M 1965 3520 
C 2451 3520 2784 3258 2784 2854 
C 2784 2451 2451 2189 1965 2189 
C 1478 2189 1158 2451 1158 2854 
C 1158 3258 1478 3520 1965 3520 
z
M 3187 1491 
C 1984 1491 1254 1126 1254 499 
C 1254 -122 1984 -486 3187 -486 
C 4384 -486 5114 -122 5114 499 
C 5114 1126 4384 1491 3187 1491 
z
M 3187 1075 
C 4038 1075 4557 870 4557 499 
C 4557 134 4038 -77 3187 -77 
C 2330 -77 1805 134 1805 499 
C 1805 870 2330 1075 3187 1075 
z
M 4550 5293 
L 4550 3904 
L 3571 3904 
L 3571 3469 
L 4550 3469 
L 4550 2778 
L 3565 2778 
L 3565 2342 
L 4550 2342 
L 4550 1555 
L 5082 1555 
L 5082 5293 
L 4550 5293 
z
M 1709 5344 
L 1709 4653 
L 326 4653 
L 326 4224 
L 3571 4224 
L 3571 4653 
L 2234 4653 
L 2234 5344 
L 1709 5344 
z
" transform="scale(0.015625)"/>
      <path id="NotoSansCJKjp-Regular-aca9" d="M 1216 1581 
L 1216 1152 
L 4550 1152 
L 4550 -486 
L 5082 -486 
L 5082 1581 
L 1216 1581 
z
M 3046 3034 
L 3046 2598 
L 4550 2598 
L 4550 1837 
L 5082 1837 
L 5082 5286 
L 4550 5286 
L 4550 4256 
L 3277 4256 
C 3322 4461 3347 4678 3347 4902 
L 704 4902 
L 704 4467 
L 2778 4467 
C 2675 3488 1805 2720 410 2336 
L 614 1914 
C 1856 2259 2752 2912 3136 3827 
L 4550 3827 
L 4550 3034 
L 3046 3034 
z
" transform="scale(0.015625)"/>
      <path id="NotoSansCJKjp-Regular-c2dc" d="M 4525 5293 
L 4525 -506 
L 5056 -506 
L 5056 5293 
L 4525 5293 
z
M 1843 4794 
L 1843 3757 
C 1843 2656 1152 1549 288 1146 
L 614 704 
C 1293 1043 1850 1773 2118 2643 
C 2387 1818 2944 1139 3597 819 
L 3917 1242 
C 3066 1632 2374 2701 2374 3757 
L 2374 4794 
L 1843 4794 
z
" transform="scale(0.015625)"/>
      <path id="NotoSansCJKjp-Regular-d654" d="M 2086 3411 
C 2598 3411 2944 3149 2944 2752 
C 2944 2355 2598 2099 2086 2099 
C 1568 2099 1222 2355 1222 2752 
C 1222 3149 1568 3411 2086 3411 
z
M 2086 3827 
C 1274 3827 723 3398 723 2752 
C 723 2182 1152 1786 1818 1702 
L 1818 1069 
C 1254 1050 710 1050 250 1050 
L 333 602 
C 1338 602 2694 614 3942 838 
L 3904 1229 
C 3411 1158 2880 1114 2349 1088 
L 2349 1702 
C 3008 1779 3450 2176 3450 2752 
C 3450 3398 2893 3827 2086 3827 
z
M 4250 5293 
L 4250 -499 
L 4781 -499 
L 4781 2387 
L 5683 2387 
L 5683 2835 
L 4781 2835 
L 4781 5293 
L 4250 5293 
z
M 1818 5280 
L 1818 4589 
L 352 4589 
L 352 4160 
L 3808 4160 
L 3808 4589 
L 2349 4589 
L 2349 5280 
L 1818 5280 
z
" transform="scale(0.015625)"/>
     </defs>
     <use xlink:href="#NotoSansCJKjp-Regular-b099"/>
     <use xlink:href="#NotoSansCJKjp-Regular-c11c" transform="translate(91.999985 0)"/>
     <use xlink:href="#NotoSansCJKjp-Regular-c624" transform="translate(183.999969 0)"/>
     <use xlink:href="#NotoSansCJKjp-Regular-ad6c" transform="translate(275.999954 0)"/>
     <use xlink:href="#NotoSansCJKjp-Regular-b3c4" transform="translate(367.999939 0)"/>
     <use xlink:href="#NotoSansCJKjp-Regular-20" transform="translate(459.999924 0)"/>
     <use xlink:href="#NotoSansCJKjp-Regular-28" transform="translate(482.399918 0)"/>
     <use xlink:href="#NotoSansCJKjp-Regular-c624" transform="translate(516.199905 0)"/>
     <use xlink:href="#NotoSansCJKjp-Regular-c790" transform="translate(608.19989 0)"/>
     <use xlink:href="#NotoSansCJKjp-Regular-ac01" transform="translate(700.199875 0)"/>
     <use xlink:href="#NotoSansCJKjp-Regular-b4dd" transform="translate(792.19986 0)"/>
     <use xlink:href="#NotoSansCJKjp-Regular-29" transform="translate(884.199844 0)"/>
     <use xlink:href="#NotoSansCJKjp-Regular-20" transform="translate(917.999832 0)"/>
     <use xlink:href="#NotoSansCJKjp-Regular-c804" transform="translate(940.399826 0)"/>
     <use xlink:href="#NotoSansCJKjp-Regular-c5ed" transform="translate(1032.399811 0)"/>
     <use xlink:href="#NotoSansCJKjp-Regular-20" transform="translate(1124.399796 0)"/>
     <use xlink:href="#NotoSansCJKjp-Regular-adf8" transform="translate(1146.799789 0)"/>
     <use xlink:href="#NotoSansCJKjp-Regular-bb3c" transform="translate(1238.799774 0)"/>
     <use xlink:href="#NotoSansCJKjp-Regular-d615" transform="translate(1330.799759 0)"/>
     <use xlink:href="#NotoSansCJKjp-Regular-20" transform="translate(1422.799744 0)"/>
     <use xlink:href="#NotoSansCJKjp-Regular-aca9" transform="translate(1445.199738 0)"/>
     <use xlink:href="#NotoSansCJKjp-Regular-c790" transform="translate(1537.199722 0)"/>
     <use xlink:href="#NotoSansCJKjp-Regular-20" transform="translate(1629.199707 0)"/>
     <use xlink:href="#NotoSansCJKjp-Regular-c2dc" transform="translate(1651.599701 0)"/>
     <use xlink:href="#NotoSansCJKjp-Regular-ac01" transform="translate(1743.599686 0)"/>
     <use xlink:href="#NotoSansCJKjp-Regular-d654" transform="translate(1835.59967 0)"/>
    </g>
   </g>
  </g>
 </g>
 <defs>
  <clipPath id="p7609b18f1a">
   <rect x="7.2" y="34.228125" width="582.832895" height="527.325"/>
  </clipPath>
 </defs>
</svg>
