<?xml version="1.0" encoding="utf-8" standalone="no"?>
<!DOCTYPE svg PUBLIC "-//W3C//DTD SVG 1.1//EN"
  "http://www.w3.org/Graphics/SVG/1.1/DTD/svg11.dtd">
<svg xmlns:xlink="http://www.w3.org/1999/xlink" width="749.905714pt" height="774.384741pt" viewBox="0 0 749.905714 774.384741" xmlns="http://www.w3.org/2000/svg" version="1.1">
 <metadata>
  <rdf:RDF xmlns:dc="http://purl.org/dc/elements/1.1/" xmlns:cc="http://creativecommons.org/ns#" xmlns:rdf="http://www.w3.org/1999/02/22-rdf-syntax-ns#">
   <cc:Work>
    <dc:type rdf:resource="http://purl.org/dc/dcmitype/StillImage"/>
    <dc:date>2026-07-16T17:25:03.667633</dc:date>
    <dc:format>image/svg+xml</dc:format>
    <dc:creator>
     <cc:Agent>
      <dc:title>Matplotlib v3.11.0, https://matplotlib.org/</dc:title>
     </cc:Agent>
    </dc:creator>
   </cc:Work>
  </rdf:RDF>
 </metadata>
 <defs>
  <style type="text/css">*{stroke-linejoin: round; stroke-linecap: butt}</style>
 </defs>
 <g id="figure_1">
  <g id="patch_1">
   <path d="M 0 774.384741 
L 749.905714 774.384741 
L 749.905714 0 
L 0 0 
z
" style="fill: #ffffff"/>
  </g>
  <g id="axes_1">
   <g id="patch_2">
    <path d="M 121.422857 86.755781 
L 55.08 146.464353 
L 55.08 219.441496 
L 121.422857 272.515781 
L 187.765714 219.441496 
L 187.765714 146.464353 
z
" clip-path="url(#p8df59d70ee)" style="fill: #f8f8f8; stroke-dasharray: 4.4,4.4; stroke-dashoffset: 0; stroke: #a8a8a8; stroke-width: 1.1; stroke-linejoin: miter"/>
   </g>
   <g id="patch_3">
    <path d="M 254.108571 86.755781 
L 187.765714 146.464353 
L 187.765714 219.441496 
L 254.108571 272.515781 
L 320.451429 219.441496 
L 320.451429 146.464353 
z
" clip-path="url(#p8df59d70ee)" style="fill: #fbfbfb; stroke-dasharray: 4.4,4.4; stroke-dashoffset: 0; stroke: #a8a8a8; stroke-width: 1.1; stroke-linejoin: miter"/>
   </g>
   <g id="patch_4">
    <path d="M 121.422857 272.515781 
L 187.765714 219.441496 
L 254.108571 272.515781 
L 254.108571 365.395781 
L 187.765714 418.470067 
L 121.422857 365.395781 
z
" clip-path="url(#p8df59d70ee)" style="fill: #f6f6f6; stroke-dasharray: 4.4,4.4; stroke-dashoffset: 0; stroke: #a8a8a8; stroke-width: 1.1; stroke-linejoin: miter"/>
   </g>
   <g id="patch_5">
    <path d="M 121.422857 365.395781 
L 187.765714 418.470067 
L 187.765714 498.081496 
L 121.422857 551.155781 
L 55.08 498.081496 
L 55.08 418.470067 
z
" clip-path="url(#p8df59d70ee)" style="fill: #fafafa; stroke-dasharray: 4.4,4.4; stroke-dashoffset: 0; stroke: #a8a8a8; stroke-width: 1.1; stroke-linejoin: miter"/>
   </g>
   <g id="patch_6">
    <path d="M 254.108571 365.395781 
L 320.451429 418.470067 
L 320.451429 498.081496 
L 254.108571 551.155781 
L 187.765714 498.081496 
L 187.765714 418.470067 
z
" clip-path="url(#p8df59d70ee)" style="fill: #f7f7f7; stroke-dasharray: 4.4,4.4; stroke-dashoffset: 0; stroke: #a8a8a8; stroke-width: 1.1; stroke-linejoin: miter"/>
   </g>
   <g id="text_1">
    <!-- 합 63 -->
    <g style="fill: #9a9a9a" transform="translate(108.418248 184.314983) scale(0.095 -0.095)">
     <defs>
      <path id="LastResortHE-Regular-96" d="M 6734 -747 
L 6734 4250 
Q 6734 4409 6659 4534 
Q 6581 4663 6454 4738 
Q 6328 4813 6172 4813 
L 1175 4813 
Q 1022 4813 894 4738 
Q 766 4659 689 4532 
Q 613 4406 613 4250 
L 613 -747 
Q 613 -903 691 -1028 
Q 766 -1156 894 -1232 
Q 1022 -1309 1175 -1309 
L 6172 -1309 
Q 6331 -1309 6456 -1231 
Q 6584 -1156 6659 -1028 
Q 6734 -900 6734 -747 
z
M 4672 4266 
L 4672 4738 
L 4784 4738 
L 4784 4331 
L 4931 4331 
L 4931 4266 
L 4672 4266 
z
M 4547 4375 
Q 4547 4266 4444 4266 
L 4334 4266 
Q 4234 4266 4234 4369 
L 4234 4738 
L 4347 4738 
L 4347 4375 
L 4359 4344 
L 4391 4331 
L 4419 4344 
L 4431 4375 
L 4431 4738 
L 4547 4738 
L 4547 4375 
z
M 2609 4266 
L 2609 4469 
L 2525 4469 
L 2525 4266 
L 2413 4266 
L 2413 4738 
L 2525 4738 
L 2525 4534 
L 2609 4534 
L 2609 4738 
L 2725 4738 
L 2725 4266 
L 2609 4266 
z
M 4097 4375 
Q 4097 4266 3991 4266 
L 3891 4266 
Q 3784 4266 3784 4375 
L 3784 4628 
Q 3784 4738 3891 4738 
L 3991 4738 
Q 4091 4738 4097 4619 
L 4034 4619 
Q 4031 4669 3991 4669 
L 3941 4669 
L 3909 4656 
L 3897 4625 
L 3897 4375 
L 3909 4344 
L 3941 4331 
Q 3981 4334 3981 4375 
L 3981 4469 
L 3931 4469 
L 3931 4534 
L 4097 4534 
L 4097 4375 
z
M 3631 4266 
L 3366 4509 
L 3366 4266 
L 3300 4266 
L 3300 4738 
L 3331 4738 
L 3600 4494 
L 3600 4738 
L 3666 4738 
L 3666 4266 
L 3631 4266 
z
M 3044 4266 
L 3044 4469 
L 2959 4469 
L 2959 4266 
L 2844 4266 
L 2844 4631 
Q 2844 4738 2947 4738 
L 3056 4738 
Q 3156 4738 3156 4628 
L 3156 4266 
L 3044 4266 
z
M 3044 4625 
L 3031 4656 
L 3000 4669 
L 2972 4656 
L 2959 4625 
L 2959 4534 
L 3044 4534 
L 3044 4625 
z
M 6122 3750 
L 6122 -247 
Q 6122 -372 6063 -472 
Q 6003 -575 5900 -636 
Q 5797 -697 5672 -697 
L 1672 -697 
Q 1553 -697 1447 -634 
Q 1344 -572 1283 -470 
Q 1222 -369 1222 -247 
L 1222 3750 
Q 1222 3872 1284 3978 
Q 1347 4078 1448 4139 
Q 1550 4200 1672 4200 
L 5672 4200 
Q 5800 4200 5900 4141 
Q 6000 4081 6061 3978 
Q 6122 3875 6122 3750 
z
M 5447 1794 
Q 5447 1928 5197 1928 
Q 5156 1928 5100 1914 
Q 5044 1900 4966 1875 
Q 4813 1819 4731 1819 
Q 4647 1819 4647 1856 
L 4647 3359 
L 4656 3381 
L 4656 3391 
Q 4656 3434 4590 3471 
Q 4525 3509 4431 3541 
Q 4334 3569 4237 3584 
Q 4141 3600 4078 3600 
Q 4019 3600 3966 3566 
L 3966 3531 
L 4228 3391 
Q 4400 3303 4400 3191 
L 4391 100 
Q 4391 -69 4450 -97 
Q 4647 34 4647 619 
L 4647 1684 
L 5303 1684 
Q 5447 1684 5447 1794 
z
M 966 2441 
L 966 2650 
L 872 2650 
L 872 2441 
L 747 2441 
L 747 2822 
Q 747 2931 859 2931 
L 978 2931 
Q 1091 2931 1091 2816 
L 1091 2441 
L 966 2441 
z
M 6600 2816 
L 6600 2553 
Q 6600 2441 6488 2441 
L 6253 2441 
L 6253 2931 
L 6488 2931 
Q 6600 2931 6600 2816 
z
M 3816 2819 
Q 3816 2897 3591 2897 
Q 3550 2897 3456 2872 
Q 3369 2844 3319 2844 
L 3013 2834 
Q 2913 2828 2836 2825 
Q 2759 2822 2706 2822 
Q 2700 2822 2679 2822 
Q 2659 2822 2628 2825 
Q 2488 2831 2309 2850 
Q 2266 2853 2228 2856 
Q 2191 2859 2156 2863 
Q 2125 2866 2103 2866 
Q 2081 2866 2072 2869 
Q 2047 2859 2034 2838 
Q 2059 2809 2111 2770 
Q 2163 2731 2225 2694 
Q 2288 2656 2344 2632 
Q 2400 2609 2434 2609 
Q 2466 2609 2547 2634 
Q 2669 2675 2816 2700 
Q 2963 2719 3108 2723 
Q 3253 2728 3378 2728 
Q 3431 2728 3431 2669 
L 3372 2522 
Q 2969 1563 1994 738 
Q 1922 675 1897 631 
L 1966 616 
Q 3006 1250 3509 2219 
Q 3575 2344 3626 2444 
Q 3678 2544 3719 2619 
Q 3756 2694 3779 2744 
Q 3803 2794 3816 2819 
z
M 6472 2816 
L 6459 2847 
L 6425 2863 
L 6378 2863 
L 6378 2509 
L 6425 2509 
L 6459 2522 
L 6472 2556 
L 6472 2816 
z
M 966 2816 
L 950 2847 
L 919 2859 
L 888 2847 
L 872 2816 
L 872 2719 
L 966 2719 
L 966 2816 
z
M 1013 1944 
L 1075 1944 
Q 1072 1822 969 1822 
L 869 1822 
Q 763 1822 763 1934 
L 763 2194 
Q 763 2306 869 2306 
L 969 2306 
Q 1069 2306 1075 2188 
L 1013 2188 
Q 1009 2238 969 2238 
L 919 2238 
L 891 2225 
L 875 2194 
L 875 1938 
L 891 1903 
L 919 1891 
L 969 1891 
Q 1006 1891 1013 1944 
z
M 6584 2194 
Q 6484 1978 6484 1822 
L 6369 1822 
L 6369 1934 
Q 6369 1988 6469 2197 
L 6469 2238 
L 6269 2238 
L 6269 2306 
L 6584 2306 
L 6584 2194 
z
M 6472 1203 
L 6472 1416 
L 6378 1416 
L 6378 1203 
L 6253 1203 
L 6253 1584 
Q 6253 1694 6366 1694 
L 6484 1694 
Q 6597 1694 6597 1581 
L 6597 1203 
L 6472 1203 
z
M 1091 1581 
L 1091 1316 
Q 1091 1203 978 1203 
L 856 1203 
Q 744 1203 744 1313 
L 744 1584 
Q 744 1694 856 1694 
L 978 1694 
Q 1091 1694 1091 1581 
z
M 966 1578 
L 950 1613 
L 919 1625 
L 884 1613 
L 872 1578 
L 872 1319 
L 884 1288 
L 919 1272 
L 950 1288 
L 966 1319 
L 966 1578 
z
M 6472 1578 
L 6456 1613 
L 6425 1625 
L 6394 1613 
L 6378 1578 
L 6378 1484 
L 6472 1484 
L 6472 1578 
z
M 6391 991 
L 6391 881 
L 6538 881 
L 6538 794 
L 6391 794 
L 6391 588 
L 6263 588 
L 6263 1078 
L 6581 1078 
L 6581 991 
L 6391 991 
z
M 1091 963 
L 1091 700 
Q 1091 588 978 588 
L 856 588 
Q 744 588 744 694 
L 744 969 
Q 744 1075 856 1075 
L 978 1075 
Q 1091 1075 1091 963 
z
M 966 963 
L 950 994 
L 919 1006 
L 884 994 
L 872 963 
L 872 703 
L 884 669 
L 919 656 
L 950 669 
L 966 703 
L 966 963 
z
M 2722 -922 
Q 2722 -1019 2625 -1031 
L 2625 -1234 
L 2509 -1234 
L 2509 -1031 
Q 2409 -1016 2409 -922 
L 2409 -763 
L 2525 -763 
L 2525 -922 
L 2538 -953 
L 2566 -966 
L 2597 -953 
L 2609 -922 
L 2609 -763 
L 2722 -763 
L 2722 -922 
z
M 2313 -881 
L 2247 -881 
Q 2241 -828 2206 -828 
Q 2197 -831 2189 -834 
Q 2181 -838 2175 -841 
Q 2172 -844 2172 -848 
Q 2172 -853 2169 -859 
Q 2166 -863 2166 -867 
Q 2166 -872 2163 -875 
Q 2163 -881 2238 -972 
Q 2309 -1063 2309 -1125 
Q 2309 -1234 2209 -1234 
L 2150 -1234 
Q 2050 -1234 2050 -1119 
L 2113 -1119 
L 2113 -1131 
L 2128 -1159 
L 2156 -1169 
L 2188 -1156 
L 2197 -1125 
Q 2197 -1113 2125 -1022 
Q 2050 -931 2050 -872 
Q 2050 -763 2150 -763 
L 2209 -763 
Q 2303 -763 2313 -881 
z
M 2828 -1234 
L 2828 -763 
L 2941 -763 
L 2941 -1169 
L 3088 -1169 
L 3088 -1234 
L 2828 -1234 
z
M 3184 -1234 
L 3184 -763 
L 3297 -763 
L 3297 -1169 
L 3444 -1169 
L 3444 -1234 
L 3184 -1234 
z
M 3734 -1234 
L 3734 -1031 
L 3647 -1031 
L 3647 -1234 
L 3534 -1234 
L 3534 -869 
Q 3534 -763 3634 -763 
L 3747 -763 
Q 3847 -763 3847 -872 
L 3847 -1234 
L 3734 -1234 
z
M 4344 -1234 
L 4344 -763 
L 4459 -763 
L 4459 -1169 
L 4606 -1169 
L 4606 -1234 
L 4344 -1234 
z
M 4691 -1234 
L 4691 -763 
L 4953 -763 
L 4953 -831 
L 4806 -831 
L 4806 -966 
L 4903 -966 
L 4903 -1031 
L 4806 -1031 
L 4806 -1169 
L 4953 -1169 
L 4953 -1234 
L 4691 -1234 
z
M 5294 -1125 
Q 5294 -1234 5194 -1234 
L 5134 -1234 
Q 5031 -1234 5031 -1119 
L 5097 -1119 
L 5097 -1131 
L 5109 -1159 
L 5138 -1169 
L 5172 -1156 
L 5181 -1125 
Q 5181 -1109 5106 -1022 
Q 5031 -931 5031 -872 
Q 5031 -763 5134 -763 
L 5194 -763 
Q 5288 -763 5294 -881 
L 5231 -881 
Q 5225 -828 5191 -828 
Q 5178 -831 5170 -834 
Q 5163 -838 5156 -841 
L 5147 -875 
Q 5147 -881 5222 -972 
Q 5294 -1063 5294 -1125 
z
M 4256 -1125 
Q 4256 -1234 4150 -1234 
L 3944 -1234 
L 3944 -763 
L 4150 -763 
Q 4256 -763 4256 -897 
Q 4256 -972 4191 -997 
Q 4256 -1019 4256 -1125 
z
M 4144 -875 
L 4128 -844 
L 4100 -831 
L 4056 -831 
L 4056 -966 
L 4100 -966 
L 4128 -953 
L 4144 -922 
L 4144 -875 
z
M 3734 -875 
L 3719 -844 
L 3691 -831 
L 3663 -844 
L 3647 -875 
L 3647 -966 
L 3734 -966 
L 3734 -875 
z
M 4144 -1075 
Q 4144 -1031 4100 -1031 
L 4056 -1031 
L 4056 -1169 
L 4100 -1169 
L 4128 -1156 
L 4144 -1125 
L 4144 -1075 
z
M 2056 2872 
Q 2056 2872 2057 2872 
Q 2059 2872 2063 2872 
Q 2069 2872 2072 2869 
Q 2081 2872 2089 2873 
Q 2097 2875 2103 2875 
Q 2056 2875 2056 2872 
z
" transform="scale(0.015625)"/>
      <path id="DejaVuSans-3" transform="scale(0.015625)"/>
      <path id="DejaVuSans-19" d="M 2113 2584 
Q 1688 2584 1439 2293 
Q 1191 2003 1191 1497 
Q 1191 994 1439 701 
Q 1688 409 2113 409 
Q 2538 409 2786 701 
Q 3034 994 3034 1497 
Q 3034 2003 2786 2293 
Q 2538 2584 2113 2584 
z
M 3366 4563 
L 3366 3988 
Q 3128 4100 2886 4159 
Q 2644 4219 2406 4219 
Q 1781 4219 1451 3797 
Q 1122 3375 1075 2522 
Q 1259 2794 1537 2939 
Q 1816 3084 2150 3084 
Q 2853 3084 3261 2657 
Q 3669 2231 3669 1497 
Q 3669 778 3244 343 
Q 2819 -91 2113 -91 
Q 1303 -91 875 529 
Q 447 1150 447 2328 
Q 447 3434 972 4092 
Q 1497 4750 2381 4750 
Q 2619 4750 2861 4703 
Q 3103 4656 3366 4563 
z
" transform="scale(0.015625)"/>
      <path id="DejaVuSans-16" d="M 2597 2516 
Q 3050 2419 3304 2112 
Q 3559 1806 3559 1356 
Q 3559 666 3084 287 
Q 2609 -91 1734 -91 
Q 1441 -91 1130 -33 
Q 819 25 488 141 
L 488 750 
Q 750 597 1062 519 
Q 1375 441 1716 441 
Q 2309 441 2620 675 
Q 2931 909 2931 1356 
Q 2931 1769 2642 2001 
Q 2353 2234 1838 2234 
L 1294 2234 
L 1294 2753 
L 1863 2753 
Q 2328 2753 2575 2939 
Q 2822 3125 2822 3475 
Q 2822 3834 2567 4026 
Q 2313 4219 1838 4219 
Q 1578 4219 1281 4162 
Q 984 4106 628 3988 
L 628 4550 
Q 988 4650 1302 4700 
Q 1616 4750 1894 4750 
Q 2613 4750 3031 4423 
Q 3450 4097 3450 3541 
Q 3450 3153 3228 2886 
Q 3006 2619 2597 2516 
z
" transform="scale(0.015625)"/>
     </defs>
     <use xlink:href="#LastResortHE-Regular-96"/>
     <use xlink:href="#DejaVuSans-3" transform="translate(114.75 0)"/>
     <use xlink:href="#DejaVuSans-19" transform="translate(146.53125 0)"/>
     <use xlink:href="#DejaVuSans-16" transform="translate(210.15625 0)"/>
    </g>
   </g>
   <g id="text_2">
    <!-- 합 63 -->
    <g style="fill: #9a9a9a" transform="translate(241.103962 184.314983) scale(0.095 -0.095)">
     <use xlink:href="#LastResortHE-Regular-96"/>
     <use xlink:href="#DejaVuSans-3" transform="translate(114.75 0)"/>
     <use xlink:href="#DejaVuSans-19" transform="translate(146.53125 0)"/>
     <use xlink:href="#DejaVuSans-16" transform="translate(210.15625 0)"/>
    </g>
   </g>
   <g id="text_3">
    <!-- 합 63 -->
    <g style="fill: #9a9a9a" transform="translate(174.761105 321.423555) scale(0.095 -0.095)">
     <use xlink:href="#LastResortHE-Regular-96"/>
     <use xlink:href="#DejaVuSans-3" transform="translate(114.75 0)"/>
     <use xlink:href="#DejaVuSans-19" transform="translate(146.53125 0)"/>
     <use xlink:href="#DejaVuSans-16" transform="translate(210.15625 0)"/>
    </g>
   </g>
   <g id="text_4">
    <!-- 합 63 -->
    <g style="fill: #9a9a9a" transform="translate(108.418248 460.743555) scale(0.095 -0.095)">
     <use xlink:href="#LastResortHE-Regular-96"/>
     <use xlink:href="#DejaVuSans-3" transform="translate(114.75 0)"/>
     <use xlink:href="#DejaVuSans-19" transform="translate(146.53125 0)"/>
     <use xlink:href="#DejaVuSans-16" transform="translate(210.15625 0)"/>
    </g>
   </g>
   <g id="text_5">
    <!-- 합 63 -->
    <g style="fill: #9a9a9a" transform="translate(241.103962 460.743555) scale(0.095 -0.095)">
     <use xlink:href="#LastResortHE-Regular-96"/>
     <use xlink:href="#DejaVuSans-3" transform="translate(114.75 0)"/>
     <use xlink:href="#DejaVuSans-19" transform="translate(146.53125 0)"/>
     <use xlink:href="#DejaVuSans-16" transform="translate(210.15625 0)"/>
    </g>
   </g>
   <g id="line2d_1">
    <path d="M 254.108571 86.755781 
L 320.451429 146.464353 
" clip-path="url(#p8df59d70ee)" style="fill: none; stroke: #303030; stroke-width: 2; stroke-linecap: round"/>
   </g>
   <g id="line2d_2">
    <path d="M 254.108571 86.755781 
L 187.765714 146.464353 
" clip-path="url(#p8df59d70ee)" style="fill: none; stroke: #303030; stroke-width: 2; stroke-linecap: round"/>
   </g>
   <g id="line2d_3">
    <path d="M 121.422857 551.155781 
L 187.765714 498.081496 
" clip-path="url(#p8df59d70ee)" style="fill: none; stroke: #303030; stroke-width: 2; stroke-linecap: round"/>
   </g>
   <g id="line2d_4">
    <path d="M 121.422857 551.155781 
L 55.08 498.081496 
" clip-path="url(#p8df59d70ee)" style="fill: none; stroke: #303030; stroke-width: 2; stroke-linecap: round"/>
   </g>
   <g id="line2d_5">
    <path d="M 121.422857 272.515781 
L 187.765714 219.441496 
" clip-path="url(#p8df59d70ee)" style="fill: none; stroke: #303030; stroke-width: 2; stroke-linecap: round"/>
   </g>
   <g id="line2d_6">
    <path d="M 121.422857 272.515781 
L 121.422857 365.395781 
" clip-path="url(#p8df59d70ee)" style="fill: none; stroke: #303030; stroke-width: 2; stroke-linecap: round"/>
   </g>
   <g id="line2d_7">
    <path d="M 121.422857 272.515781 
L 55.08 219.441496 
" clip-path="url(#p8df59d70ee)" style="fill: none; stroke: #303030; stroke-width: 2; stroke-linecap: round"/>
   </g>
   <g id="line2d_8">
    <path d="M 320.451429 418.470067 
L 254.108571 365.395781 
" clip-path="url(#p8df59d70ee)" style="fill: none; stroke: #303030; stroke-width: 2; stroke-linecap: round"/>
   </g>
   <g id="line2d_9">
    <path d="M 320.451429 418.470067 
L 320.451429 498.081496 
" clip-path="url(#p8df59d70ee)" style="fill: none; stroke: #303030; stroke-width: 2; stroke-linecap: round"/>
   </g>
   <g id="line2d_10">
    <path d="M 121.422857 86.755781 
L 187.765714 146.464353 
" clip-path="url(#p8df59d70ee)" style="fill: none; stroke: #303030; stroke-width: 2; stroke-linecap: round"/>
   </g>
   <g id="line2d_11">
    <path d="M 121.422857 86.755781 
L 55.08 146.464353 
" clip-path="url(#p8df59d70ee)" style="fill: none; stroke: #303030; stroke-width: 2; stroke-linecap: round"/>
   </g>
   <g id="line2d_12">
    <path d="M 254.108571 551.155781 
L 187.765714 498.081496 
" clip-path="url(#p8df59d70ee)" style="fill: none; stroke: #303030; stroke-width: 2; stroke-linecap: round"/>
   </g>
   <g id="line2d_13">
    <path d="M 254.108571 551.155781 
L 320.451429 498.081496 
" clip-path="url(#p8df59d70ee)" style="fill: none; stroke: #303030; stroke-width: 2; stroke-linecap: round"/>
   </g>
   <g id="line2d_14">
    <path d="M 320.451429 146.464353 
L 320.451429 219.441496 
" clip-path="url(#p8df59d70ee)" style="fill: none; stroke: #303030; stroke-width: 2; stroke-linecap: round"/>
   </g>
   <g id="line2d_15">
    <path d="M 187.765714 219.441496 
L 187.765714 146.464353 
" clip-path="url(#p8df59d70ee)" style="fill: none; stroke: #303030; stroke-width: 2; stroke-linecap: round"/>
   </g>
   <g id="line2d_16">
    <path d="M 187.765714 219.441496 
L 254.108571 272.515781 
" clip-path="url(#p8df59d70ee)" style="fill: none; stroke: #303030; stroke-width: 2; stroke-linecap: round"/>
   </g>
   <g id="line2d_17">
    <path d="M 55.08 418.470067 
L 121.422857 365.395781 
" clip-path="url(#p8df59d70ee)" style="fill: none; stroke: #303030; stroke-width: 2; stroke-linecap: round"/>
   </g>
   <g id="line2d_18">
    <path d="M 55.08 418.470067 
L 55.08 498.081496 
" clip-path="url(#p8df59d70ee)" style="fill: none; stroke: #303030; stroke-width: 2; stroke-linecap: round"/>
   </g>
   <g id="line2d_19">
    <path d="M 187.765714 498.081496 
L 187.765714 418.470067 
" clip-path="url(#p8df59d70ee)" style="fill: none; stroke: #303030; stroke-width: 2; stroke-linecap: round"/>
   </g>
   <g id="line2d_20">
    <path d="M 187.765714 418.470067 
L 121.422857 365.395781 
" clip-path="url(#p8df59d70ee)" style="fill: none; stroke: #303030; stroke-width: 2; stroke-linecap: round"/>
   </g>
   <g id="line2d_21">
    <path d="M 187.765714 418.470067 
L 254.108571 365.395781 
" clip-path="url(#p8df59d70ee)" style="fill: none; stroke: #303030; stroke-width: 2; stroke-linecap: round"/>
   </g>
   <g id="line2d_22">
    <path d="M 254.108571 272.515781 
L 254.108571 365.395781 
" clip-path="url(#p8df59d70ee)" style="fill: none; stroke: #303030; stroke-width: 2; stroke-linecap: round"/>
   </g>
   <g id="line2d_23">
    <path d="M 254.108571 272.515781 
L 320.451429 219.441496 
" clip-path="url(#p8df59d70ee)" style="fill: none; stroke: #303030; stroke-width: 2; stroke-linecap: round"/>
   </g>
   <g id="line2d_24">
    <path d="M 55.08 219.441496 
L 55.08 146.464353 
" clip-path="url(#p8df59d70ee)" style="fill: none; stroke: #303030; stroke-width: 2; stroke-linecap: round"/>
   </g>
   <g id="patch_7">
    <path d="M 121.422857 105.331781 
C 126.34927 105.331781 131.074573 103.374497 134.558073 99.890997 
C 138.041573 96.407497 139.998857 91.682194 139.998857 86.755781 
C 139.998857 81.829368 138.041573 77.104066 134.558073 73.620566 
C 131.074573 70.137066 126.34927 68.179781 121.422857 68.179781 
C 116.496444 68.179781 111.771141 70.137066 108.287642 73.620566 
C 104.804142 77.104066 102.846857 81.829368 102.846857 86.755781 
C 102.846857 91.682194 104.804142 96.407497 108.287642 99.890997 
C 111.771141 103.374497 116.496444 105.331781 121.422857 105.331781 
z
" clip-path="url(#p8df59d70ee)" style="fill: #f5e1a2; stroke: #b98d00; stroke-width: 2; stroke-linejoin: miter"/>
   </g>
   <g id="patch_8">
    <path d="M 55.08 165.040353 
C 60.006413 165.040353 64.731716 163.083068 68.215216 159.599568 
C 71.698715 156.116068 73.656 151.390765 73.656 146.464353 
C 73.656 141.53794 71.698715 136.812637 68.215216 133.329137 
C 64.731716 129.845637 60.006413 127.888353 55.08 127.888353 
C 50.153587 127.888353 45.428284 129.845637 41.944784 133.329137 
C 38.461285 136.812637 36.504 141.53794 36.504 146.464353 
C 36.504 151.390765 38.461285 156.116068 41.944784 159.599568 
C 45.428284 163.083068 50.153587 165.040353 55.08 165.040353 
z
" clip-path="url(#p8df59d70ee)" style="fill: #d4e3f7; stroke: #3e70af; stroke-width: 2; stroke-linejoin: miter"/>
   </g>
   <g id="patch_9">
    <path d="M 55.08 238.017496 
C 60.006413 238.017496 64.731716 236.060211 68.215216 232.576711 
C 71.698715 229.093211 73.656 224.367908 73.656 219.441496 
C 73.656 214.515083 71.698715 209.78978 68.215216 206.30628 
C 64.731716 202.82278 60.006413 200.865496 55.08 200.865496 
C 50.153587 200.865496 45.428284 202.82278 41.944784 206.30628 
C 38.461285 209.78978 36.504 214.515083 36.504 219.441496 
C 36.504 224.367908 38.461285 229.093211 41.944784 232.576711 
C 45.428284 236.060211 50.153587 238.017496 55.08 238.017496 
z
" clip-path="url(#p8df59d70ee)" style="fill: #3f3f3f; stroke: #161616; stroke-width: 2; stroke-linejoin: miter"/>
   </g>
   <g id="patch_10">
    <path d="M 121.422857 291.091781 
C 126.34927 291.091781 131.074573 289.134497 134.558073 285.650997 
C 138.041573 282.167497 139.998857 277.442194 139.998857 272.515781 
C 139.998857 267.589368 138.041573 262.864066 134.558073 259.380566 
C 131.074573 255.897066 126.34927 253.939781 121.422857 253.939781 
C 116.496444 253.939781 111.771141 255.897066 108.287642 259.380566 
C 104.804142 262.864066 102.846857 267.589368 102.846857 272.515781 
C 102.846857 277.442194 104.804142 282.167497 108.287642 285.650997 
C 111.771141 289.134497 116.496444 291.091781 121.422857 291.091781 
z
" clip-path="url(#p8df59d70ee)" style="fill: #d4e3f7; stroke: #3e70af; stroke-width: 2; stroke-linejoin: miter"/>
   </g>
   <g id="patch_11">
    <path d="M 187.765714 238.017496 
C 192.692127 238.017496 197.41743 236.060211 200.90093 232.576711 
C 204.38443 229.093211 206.341714 224.367908 206.341714 219.441496 
C 206.341714 214.515083 204.38443 209.78978 200.90093 206.30628 
C 197.41743 202.82278 192.692127 200.865496 187.765714 200.865496 
C 182.839302 200.865496 178.113999 202.82278 174.630499 206.30628 
C 171.146999 209.78978 169.189714 214.515083 169.189714 219.441496 
C 169.189714 224.367908 171.146999 229.093211 174.630499 232.576711 
C 178.113999 236.060211 182.839302 238.017496 187.765714 238.017496 
z
" clip-path="url(#p8df59d70ee)" style="fill: #d4e3f7; stroke: #3e70af; stroke-width: 2; stroke-linejoin: miter"/>
   </g>
   <g id="patch_12">
    <path d="M 187.765714 165.040353 
C 192.692127 165.040353 197.41743 163.083068 200.90093 159.599568 
C 204.38443 156.116068 206.341714 151.390765 206.341714 146.464353 
C 206.341714 141.53794 204.38443 136.812637 200.90093 133.329137 
C 197.41743 129.845637 192.692127 127.888353 187.765714 127.888353 
C 182.839302 127.888353 178.113999 129.845637 174.630499 133.329137 
C 171.146999 136.812637 169.189714 141.53794 169.189714 146.464353 
C 169.189714 151.390765 171.146999 156.116068 174.630499 159.599568 
C 178.113999 163.083068 182.839302 165.040353 187.765714 165.040353 
z
" clip-path="url(#p8df59d70ee)" style="fill: #d4e3f7; stroke: #3e70af; stroke-width: 2; stroke-linejoin: miter"/>
   </g>
   <g id="patch_13">
    <path d="M 254.108571 105.331781 
C 259.034984 105.331781 263.760287 103.374497 267.243787 99.890997 
C 270.727287 96.407497 272.684571 91.682194 272.684571 86.755781 
C 272.684571 81.829368 270.727287 77.104066 267.243787 73.620566 
C 263.760287 70.137066 259.034984 68.179781 254.108571 68.179781 
C 249.182159 68.179781 244.456856 70.137066 240.973356 73.620566 
C 237.489856 77.104066 235.532571 81.829368 235.532571 86.755781 
C 235.532571 91.682194 237.489856 96.407497 240.973356 99.890997 
C 244.456856 103.374497 249.182159 105.331781 254.108571 105.331781 
z
" clip-path="url(#p8df59d70ee)" style="fill: #3f3f3f; stroke: #161616; stroke-width: 2; stroke-linejoin: miter"/>
   </g>
   <g id="patch_14">
    <path d="M 320.451429 165.040353 
C 325.377841 165.040353 330.103144 163.083068 333.586644 159.599568 
C 337.070144 156.116068 339.027429 151.390765 339.027429 146.464353 
C 339.027429 141.53794 337.070144 136.812637 333.586644 133.329137 
C 330.103144 129.845637 325.377841 127.888353 320.451429 127.888353 
C 315.525016 127.888353 310.799713 129.845637 307.316213 133.329137 
C 303.832713 136.812637 301.875429 141.53794 301.875429 146.464353 
C 301.875429 151.390765 303.832713 156.116068 307.316213 159.599568 
C 310.799713 163.083068 315.525016 165.040353 320.451429 165.040353 
z
" clip-path="url(#p8df59d70ee)" style="fill: #f1cdcd; stroke: #b63e3e; stroke-width: 2; stroke-linejoin: miter"/>
   </g>
   <g id="patch_15">
    <path d="M 320.451429 238.017496 
C 325.377841 238.017496 330.103144 236.060211 333.586644 232.576711 
C 337.070144 229.093211 339.027429 224.367908 339.027429 219.441496 
C 339.027429 214.515083 337.070144 209.78978 333.586644 206.30628 
C 330.103144 202.82278 325.377841 200.865496 320.451429 200.865496 
C 315.525016 200.865496 310.799713 202.82278 307.316213 206.30628 
C 303.832713 209.78978 301.875429 214.515083 301.875429 219.441496 
C 301.875429 224.367908 303.832713 229.093211 307.316213 232.576711 
C 310.799713 236.060211 315.525016 238.017496 320.451429 238.017496 
z
" clip-path="url(#p8df59d70ee)" style="fill: #f5e1a2; stroke: #b98d00; stroke-width: 2; stroke-linejoin: miter"/>
   </g>
   <g id="patch_16">
    <path d="M 254.108571 291.091781 
C 259.034984 291.091781 263.760287 289.134497 267.243787 285.650997 
C 270.727287 282.167497 272.684571 277.442194 272.684571 272.515781 
C 272.684571 267.589368 270.727287 262.864066 267.243787 259.380566 
C 263.760287 255.897066 259.034984 253.939781 254.108571 253.939781 
C 249.182159 253.939781 244.456856 255.897066 240.973356 259.380566 
C 237.489856 262.864066 235.532571 267.589368 235.532571 272.515781 
C 235.532571 277.442194 237.489856 282.167497 240.973356 285.650997 
C 244.456856 289.134497 249.182159 291.091781 254.108571 291.091781 
z
" clip-path="url(#p8df59d70ee)" style="fill: #e1e1e1; stroke: #666666; stroke-width: 2; stroke-linejoin: miter"/>
   </g>
   <g id="patch_17">
    <path d="M 121.422857 383.971781 
C 126.34927 383.971781 131.074573 382.014497 134.558073 378.530997 
C 138.041573 375.047497 139.998857 370.322194 139.998857 365.395781 
C 139.998857 360.469368 138.041573 355.744066 134.558073 352.260566 
C 131.074573 348.777066 126.34927 346.819781 121.422857 346.819781 
C 116.496444 346.819781 111.771141 348.777066 108.287642 352.260566 
C 104.804142 355.744066 102.846857 360.469368 102.846857 365.395781 
C 102.846857 370.322194 104.804142 375.047497 108.287642 378.530997 
C 111.771141 382.014497 116.496444 383.971781 121.422857 383.971781 
z
" clip-path="url(#p8df59d70ee)" style="fill: #f1cdcd; stroke: #b63e3e; stroke-width: 2; stroke-linejoin: miter"/>
   </g>
   <g id="patch_18">
    <path d="M 187.765714 437.046067 
C 192.692127 437.046067 197.41743 435.088782 200.90093 431.605283 
C 204.38443 428.121783 206.341714 423.39648 206.341714 418.470067 
C 206.341714 413.543654 204.38443 408.818351 200.90093 405.334851 
C 197.41743 401.851352 192.692127 399.894067 187.765714 399.894067 
C 182.839302 399.894067 178.113999 401.851352 174.630499 405.334851 
C 171.146999 408.818351 169.189714 413.543654 169.189714 418.470067 
C 169.189714 423.39648 171.146999 428.121783 174.630499 431.605283 
C 178.113999 435.088782 182.839302 437.046067 187.765714 437.046067 
z
" clip-path="url(#p8df59d70ee)" style="fill: #3f3f3f; stroke: #161616; stroke-width: 2; stroke-linejoin: miter"/>
   </g>
   <g id="patch_19">
    <path d="M 254.108571 383.971781 
C 259.034984 383.971781 263.760287 382.014497 267.243787 378.530997 
C 270.727287 375.047497 272.684571 370.322194 272.684571 365.395781 
C 272.684571 360.469368 270.727287 355.744066 267.243787 352.260566 
C 263.760287 348.777066 259.034984 346.819781 254.108571 346.819781 
C 249.182159 346.819781 244.456856 348.777066 240.973356 352.260566 
C 237.489856 355.744066 235.532571 360.469368 235.532571 365.395781 
C 235.532571 370.322194 237.489856 375.047497 240.973356 378.530997 
C 244.456856 382.014497 249.182159 383.971781 254.108571 383.971781 
z
" clip-path="url(#p8df59d70ee)" style="fill: #f5e1a2; stroke: #b98d00; stroke-width: 2; stroke-linejoin: miter"/>
   </g>
   <g id="patch_20">
    <path d="M 55.08 437.046067 
C 60.006413 437.046067 64.731716 435.088782 68.215216 431.605283 
C 71.698715 428.121783 73.656 423.39648 73.656 418.470067 
C 73.656 413.543654 71.698715 408.818351 68.215216 405.334851 
C 64.731716 401.851352 60.006413 399.894067 55.08 399.894067 
C 50.153587 399.894067 45.428284 401.851352 41.944784 405.334851 
C 38.461285 408.818351 36.504 413.543654 36.504 418.470067 
C 36.504 423.39648 38.461285 428.121783 41.944784 431.605283 
C 45.428284 435.088782 50.153587 437.046067 55.08 437.046067 
z
" clip-path="url(#p8df59d70ee)" style="fill: #e1e1e1; stroke: #666666; stroke-width: 2; stroke-linejoin: miter"/>
   </g>
   <g id="patch_21">
    <path d="M 55.08 516.657496 
C 60.006413 516.657496 64.731716 514.700211 68.215216 511.216711 
C 71.698715 507.733211 73.656 503.007908 73.656 498.081496 
C 73.656 493.155083 71.698715 488.42978 68.215216 484.94628 
C 64.731716 481.46278 60.006413 479.505496 55.08 479.505496 
C 50.153587 479.505496 45.428284 481.46278 41.944784 484.94628 
C 38.461285 488.42978 36.504 493.155083 36.504 498.081496 
C 36.504 503.007908 38.461285 507.733211 41.944784 511.216711 
C 45.428284 514.700211 50.153587 516.657496 55.08 516.657496 
z
" clip-path="url(#p8df59d70ee)" style="fill: #e1e1e1; stroke: #666666; stroke-width: 2; stroke-linejoin: miter"/>
   </g>
   <g id="patch_22">
    <path d="M 121.422857 569.731781 
C 126.34927 569.731781 131.074573 567.774497 134.558073 564.290997 
C 138.041573 560.807497 139.998857 556.082194 139.998857 551.155781 
C 139.998857 546.229368 138.041573 541.504066 134.558073 538.020566 
C 131.074573 534.537066 126.34927 532.579781 121.422857 532.579781 
C 116.496444 532.579781 111.771141 534.537066 108.287642 538.020566 
C 104.804142 541.504066 102.846857 546.229368 102.846857 551.155781 
C 102.846857 556.082194 104.804142 560.807497 108.287642 564.290997 
C 111.771141 567.774497 116.496444 569.731781 121.422857 569.731781 
z
" clip-path="url(#p8df59d70ee)" style="fill: #f1cdcd; stroke: #b63e3e; stroke-width: 2; stroke-linejoin: miter"/>
   </g>
   <g id="patch_23">
    <path d="M 187.765714 516.657496 
C 192.692127 516.657496 197.41743 514.700211 200.90093 511.216711 
C 204.38443 507.733211 206.341714 503.007908 206.341714 498.081496 
C 206.341714 493.155083 204.38443 488.42978 200.90093 484.94628 
C 197.41743 481.46278 192.692127 479.505496 187.765714 479.505496 
C 182.839302 479.505496 178.113999 481.46278 174.630499 484.94628 
C 171.146999 488.42978 169.189714 493.155083 169.189714 498.081496 
C 169.189714 503.007908 171.146999 507.733211 174.630499 511.216711 
C 178.113999 514.700211 182.839302 516.657496 187.765714 516.657496 
z
" clip-path="url(#p8df59d70ee)" style="fill: #f5e1a2; stroke: #b98d00; stroke-width: 2; stroke-linejoin: miter"/>
   </g>
   <g id="patch_24">
    <path d="M 320.451429 437.046067 
C 325.377841 437.046067 330.103144 435.088782 333.586644 431.605283 
C 337.070144 428.121783 339.027429 423.39648 339.027429 418.470067 
C 339.027429 413.543654 337.070144 408.818351 333.586644 405.334851 
C 330.103144 401.851352 325.377841 399.894067 320.451429 399.894067 
C 315.525016 399.894067 310.799713 401.851352 307.316213 405.334851 
C 303.832713 408.818351 301.875429 413.543654 301.875429 418.470067 
C 301.875429 423.39648 303.832713 428.121783 307.316213 431.605283 
C 310.799713 435.088782 315.525016 437.046067 320.451429 437.046067 
z
" clip-path="url(#p8df59d70ee)" style="fill: #e1e1e1; stroke: #666666; stroke-width: 2; stroke-linejoin: miter"/>
   </g>
   <g id="patch_25">
    <path d="M 320.451429 516.657496 
C 325.377841 516.657496 330.103144 514.700211 333.586644 511.216711 
C 337.070144 507.733211 339.027429 503.007908 339.027429 498.081496 
C 339.027429 493.155083 337.070144 488.42978 333.586644 484.94628 
C 330.103144 481.46278 325.377841 479.505496 320.451429 479.505496 
C 315.525016 479.505496 310.799713 481.46278 307.316213 484.94628 
C 303.832713 488.42978 301.875429 493.155083 301.875429 498.081496 
C 301.875429 503.007908 303.832713 507.733211 307.316213 511.216711 
C 310.799713 514.700211 315.525016 516.657496 320.451429 516.657496 
z
" clip-path="url(#p8df59d70ee)" style="fill: #f1cdcd; stroke: #b63e3e; stroke-width: 2; stroke-linejoin: miter"/>
   </g>
   <g id="patch_26">
    <path d="M 254.108571 569.731781 
C 259.034984 569.731781 263.760287 567.774497 267.243787 564.290997 
C 270.727287 560.807497 272.684571 556.082194 272.684571 551.155781 
C 272.684571 546.229368 270.727287 541.504066 267.243787 538.020566 
C 263.760287 534.537066 259.034984 532.579781 254.108571 532.579781 
C 249.182159 532.579781 244.456856 534.537066 240.973356 538.020566 
C 237.489856 541.504066 235.532571 546.229368 235.532571 551.155781 
C 235.532571 556.082194 237.489856 560.807497 240.973356 564.290997 
C 244.456856 567.774497 249.182159 569.731781 254.108571 569.731781 
z
" clip-path="url(#p8df59d70ee)" style="fill: #3f3f3f; stroke: #161616; stroke-width: 2; stroke-linejoin: miter"/>
   </g>
   <g id="text_6">
    <!-- 지수용육도 (地數用六圖) -->
    <g transform="translate(74.607589 22.315781) scale(0.18 -0.18)">
     <defs>
      <path id="DejaVuSans-b" d="M 1984 4856 
Q 1566 4138 1362 3434 
Q 1159 2731 1159 2009 
Q 1159 1288 1364 580 
Q 1569 -128 1984 -844 
L 1484 -844 
Q 1016 -109 783 600 
Q 550 1309 550 2009 
Q 550 2706 781 3412 
Q 1013 4119 1484 4856 
L 1984 4856 
z
" transform="scale(0.015625)"/>
      <path id="LastResortHE-Regular-7a" d="M 6731 -747 
L 6731 4250 
Q 6731 4409 6656 4534 
Q 6578 4663 6451 4738 
Q 6325 4813 6169 4813 
L 1175 4813 
Q 1022 4813 894 4738 
Q 766 4659 689 4532 
Q 613 4406 613 4250 
L 613 -747 
Q 613 -903 691 -1028 
Q 766 -1156 894 -1232 
Q 1022 -1309 1175 -1309 
L 6169 -1309 
Q 6328 -1309 6453 -1231 
Q 6581 -1156 6656 -1028 
Q 6731 -900 6731 -747 
z
M 4131 4266 
L 3991 4431 
L 3991 4266 
L 3875 4266 
L 3875 4738 
L 3991 4738 
L 3991 4563 
L 4141 4738 
L 4250 4738 
L 4044 4500 
L 4250 4266 
L 4131 4266 
z
M 3791 4369 
Q 3791 4266 3691 4266 
L 3578 4266 
Q 3478 4266 3478 4369 
L 3478 4484 
L 3594 4484 
L 3594 4375 
L 3606 4344 
L 3634 4331 
L 3666 4344 
L 3678 4375 
L 3678 4738 
L 3791 4738 
L 3791 4369 
z
M 3344 4381 
L 3406 4381 
Q 3403 4266 3300 4266 
L 3200 4266 
Q 3094 4266 3094 4375 
L 3094 4628 
Q 3094 4738 3200 4738 
L 3300 4738 
Q 3400 4738 3406 4619 
L 3344 4619 
Q 3341 4669 3300 4669 
L 3253 4669 
L 3222 4656 
L 3206 4625 
L 3206 4375 
L 3222 4344 
L 3253 4331 
L 3300 4331 
Q 3341 4331 3344 4381 
z
M 6122 3750 
L 6122 -247 
Q 6122 -372 6063 -472 
Q 6003 -575 5900 -636 
Q 5797 -697 5672 -697 
L 1672 -697 
Q 1553 -697 1447 -634 
Q 1344 -572 1283 -470 
Q 1222 -369 1222 -247 
L 1222 3750 
Q 1222 3872 1284 3978 
Q 1347 4078 1448 4139 
Q 1550 4200 1672 4200 
L 5672 4200 
Q 5800 4200 5900 4141 
Q 6000 4081 6061 3978 
Q 6122 3875 6122 3750 
z
M 3863 3350 
Q 3863 3544 3256 3778 
L 3225 3778 
Q 3206 3747 3206 3719 
Q 3272 3681 3516 3409 
Q 3734 3163 3778 3163 
Q 3797 3163 3819 3172 
Q 3863 3234 3863 3350 
z
M 5684 2994 
Q 5541 3288 5384 3288 
Q 5350 3288 5269 3222 
Q 5184 3147 5163 3138 
L 2244 3138 
L 2222 3372 
L 2191 3372 
Q 2141 3372 2134 3356 
Q 2134 2984 1863 2669 
Q 1769 2563 1769 2538 
Q 1769 2516 1881 2434 
Q 2228 2563 2247 3000 
L 2259 3016 
L 5225 3016 
L 5088 2784 
L 4972 2588 
Q 4972 2563 5016 2544 
Q 5266 2775 5425 2934 
Q 5438 2947 5478 2947 
Q 5581 2947 5684 2994 
z
M 6600 2819 
L 6600 2628 
Q 6600 2553 6540 2497 
Q 6481 2441 6406 2441 
L 6309 2441 
L 6309 2509 
Q 6472 2509 6472 2606 
L 6472 2619 
Q 6459 2600 6425 2600 
L 6372 2600 
Q 6253 2600 6253 2713 
L 6253 2819 
Q 6253 2931 6372 2931 
L 6481 2931 
Q 6600 2931 6600 2819 
z
M 1050 2597 
L 1050 2438 
L 928 2438 
L 928 2597 
L 719 2597 
L 719 2659 
L 931 2925 
L 1050 2925 
L 1050 2663 
L 1103 2663 
L 1103 2597 
L 1050 2597 
z
M 6472 2816 
L 6459 2850 
L 6425 2863 
L 6394 2850 
L 6378 2816 
L 6378 2716 
L 6394 2681 
L 6425 2669 
L 6459 2681 
L 6472 2716 
L 6472 2816 
z
M 928 2831 
L 797 2663 
L 928 2663 
L 928 2831 
z
M 5675 1234 
Q 5675 1272 5637 1326 
Q 5600 1381 5538 1438 
Q 5478 1494 5414 1536 
Q 5350 1578 5303 1591 
Q 5253 1538 5222 1497 
Q 5191 1456 5175 1431 
Q 5156 1400 5142 1378 
Q 5128 1356 5119 1341 
Q 5097 1313 5073 1306 
Q 5050 1300 4994 1300 
L 3816 1300 
L 3816 1609 
L 3819 1641 
Q 4013 1744 4013 1759 
L 3934 1859 
Q 4041 1903 4125 1942 
Q 4209 1981 4278 2013 
Q 4344 2044 4391 2066 
Q 4438 2088 4463 2103 
L 4703 2238 
Q 4788 2250 4856 2266 
Q 4891 2272 4917 2275 
Q 4944 2278 4966 2281 
L 4966 2306 
Q 4963 2322 4950 2340 
Q 4938 2359 4922 2384 
Q 4838 2488 4750 2572 
Q 4706 2606 4691 2606 
Q 4584 2606 4484 2475 
L 4322 2459 
L 2788 2459 
Q 2731 2459 2613 2478 
Q 2497 2497 2434 2497 
L 2363 2497 
Q 2416 2303 2478 2303 
L 2859 2344 
L 4456 2344 
L 3800 1888 
L 3566 1966 
Q 3566 1953 3567 1942 
Q 3569 1931 3572 1916 
Q 3575 1900 3576 1883 
Q 3578 1866 3581 1844 
Q 3588 1803 3592 1772 
Q 3597 1741 3597 1719 
L 3597 1300 
L 1875 1300 
Q 1859 1300 1806 1309 
Q 1778 1316 1740 1322 
Q 1703 1328 1659 1341 
L 1659 1306 
L 1731 1122 
Q 1822 1122 1984 1163 
Q 2150 1200 2234 1200 
Q 2581 1200 2922 1186 
Q 3263 1172 3597 1147 
L 3597 119 
L 3534 66 
L 2816 113 
L 2816 38 
Q 2975 -6 3072 -34 
Q 3169 -63 3228 -91 
Q 3288 -119 3330 -161 
Q 3372 -203 3419 -275 
Q 3875 -259 3875 306 
Q 3875 319 3875 331 
Q 3875 344 3875 356 
Q 3875 369 3875 381 
Q 3875 394 3872 406 
L 3825 1147 
L 5659 1147 
Q 5666 1175 5670 1197 
Q 5675 1219 5675 1234 
z
M 788 1822 
L 788 2306 
L 1050 2306 
L 1050 2238 
L 900 2238 
L 900 2097 
L 1000 2097 
L 1000 2031 
L 900 2031 
L 900 1891 
L 1050 1891 
L 1050 1822 
L 788 1822 
z
M 6406 2238 
L 6406 2097 
L 6506 2097 
L 6506 2031 
L 6406 2031 
L 6406 1822 
L 6294 1822 
L 6294 2306 
L 6556 2306 
L 6556 2238 
L 6406 2238 
z
M 6406 1628 
L 6406 1488 
L 6506 1488 
L 6506 1419 
L 6406 1419 
L 6406 1213 
L 6294 1213 
L 6294 1694 
L 6556 1694 
L 6556 1628 
L 6406 1628 
z
M 1091 1581 
L 1091 1316 
Q 1091 1203 978 1203 
L 856 1203 
Q 744 1203 744 1313 
L 744 1584 
Q 744 1694 856 1694 
L 978 1694 
Q 1091 1694 1091 1581 
z
M 966 1578 
L 950 1613 
L 919 1625 
L 884 1613 
L 872 1578 
L 872 1319 
L 884 1288 
L 919 1272 
L 950 1288 
L 966 1319 
L 966 1578 
z
M 6391 991 
L 6391 881 
L 6538 881 
L 6538 794 
L 6391 794 
L 6391 588 
L 6263 588 
L 6263 1078 
L 6581 1078 
L 6581 991 
L 6391 991 
z
M 1091 963 
L 1091 700 
Q 1091 588 978 588 
L 856 588 
Q 744 588 744 694 
L 744 969 
Q 744 1075 856 1075 
L 978 1075 
Q 1091 1075 1091 963 
z
M 966 963 
L 950 994 
L 919 1006 
L 884 994 
L 872 963 
L 872 703 
L 884 669 
L 919 656 
L 950 669 
L 966 703 
L 966 963 
z
M 1825 -1234 
L 1825 -763 
L 1931 -763 
L 1931 -1234 
L 1825 -1234 
z
M 3553 -881 
L 3488 -881 
Q 3484 -831 3444 -831 
L 3397 -831 
L 3366 -844 
L 3353 -875 
L 3353 -1125 
L 3366 -1156 
L 3397 -1169 
Q 3438 -1166 3438 -1125 
L 3438 -1031 
L 3388 -1031 
L 3388 -966 
L 3550 -966 
L 3550 -1125 
Q 3550 -1234 3444 -1234 
L 3344 -1234 
Q 3238 -1234 3238 -1125 
L 3238 -872 
Q 3238 -763 3344 -763 
L 3444 -763 
Q 3547 -763 3553 -881 
z
M 3844 -1234 
L 3844 -1078 
L 3831 -1044 
L 3800 -1031 
L 3759 -1031 
L 3759 -1234 
L 3644 -1234 
L 3644 -763 
L 3856 -763 
Q 3956 -763 3956 -900 
Q 3956 -969 3906 -991 
L 3941 -1006 
L 3956 -1047 
L 3956 -1234 
L 3844 -1234 
z
M 2475 -1234 
L 2475 -763 
L 2738 -763 
L 2738 -831 
L 2588 -831 
L 2588 -966 
L 2688 -966 
L 2688 -1031 
L 2588 -1031 
L 2588 -1169 
L 2738 -1169 
L 2738 -1234 
L 2475 -1234 
z
M 2375 -872 
L 2375 -1125 
Q 2375 -1234 2272 -1234 
L 2063 -1234 
L 2063 -763 
L 2272 -763 
Q 2375 -763 2375 -872 
z
M 4244 -1234 
L 4244 -1031 
L 4159 -1031 
L 4159 -1234 
L 4044 -1234 
L 4044 -869 
Q 4044 -763 4147 -763 
L 4256 -763 
Q 4356 -763 4356 -872 
L 4356 -1234 
L 4244 -1234 
z
M 4753 -872 
L 4753 -928 
Q 4753 -1031 4594 -1031 
L 4553 -1031 
L 4553 -1234 
L 4441 -1234 
L 4441 -763 
L 4650 -763 
Q 4753 -763 4753 -872 
z
M 5028 -1234 
L 5028 -1031 
L 4941 -1031 
L 4941 -1234 
L 4828 -1234 
L 4828 -763 
L 4941 -763 
L 4941 -966 
L 5028 -966 
L 5028 -763 
L 5141 -763 
L 5141 -1234 
L 5028 -1234 
z
M 5519 -1125 
Q 5519 -1234 5416 -1234 
L 5356 -1234 
Q 5256 -1234 5256 -1119 
L 5322 -1119 
L 5322 -1131 
L 5334 -1159 
L 5363 -1169 
L 5394 -1156 
L 5403 -1125 
Q 5403 -1116 5331 -1025 
Q 5256 -934 5256 -872 
Q 5256 -763 5356 -763 
L 5419 -763 
Q 5513 -763 5519 -881 
L 5456 -881 
Q 5450 -828 5416 -828 
Q 5403 -831 5395 -834 
Q 5388 -838 5381 -841 
Q 5378 -844 5378 -848 
Q 5378 -853 5375 -859 
Q 5372 -863 5372 -867 
Q 5372 -872 5369 -875 
Q 5369 -881 5444 -972 
Q 5519 -1059 5519 -1125 
z
M 3153 -872 
L 3153 -1125 
Q 3153 -1234 3053 -1234 
L 2944 -1234 
Q 2841 -1234 2841 -1131 
L 2841 -869 
Q 2841 -766 2944 -766 
L 3053 -766 
Q 3153 -766 3153 -872 
z
M 4638 -875 
L 4625 -844 
L 4594 -831 
L 4553 -831 
L 4553 -966 
L 4594 -966 
L 4625 -953 
L 4638 -922 
L 4638 -875 
z
M 4244 -875 
L 4231 -844 
L 4200 -831 
L 4172 -844 
L 4159 -875 
L 4159 -966 
L 4244 -966 
L 4244 -875 
z
M 3844 -875 
L 3831 -844 
L 3800 -831 
L 3759 -831 
L 3759 -966 
L 3800 -966 
L 3831 -953 
L 3844 -922 
L 3844 -875 
z
M 3041 -875 
L 3028 -844 
L 2997 -831 
L 2969 -844 
L 2956 -875 
L 2956 -1125 
L 2969 -1156 
L 2997 -1169 
L 3028 -1156 
L 3041 -1125 
L 3041 -875 
z
M 2259 -875 
L 2247 -844 
L 2216 -831 
L 2175 -831 
L 2175 -1169 
L 2216 -1169 
L 2247 -1156 
L 2259 -1125 
L 2259 -875 
z
" transform="scale(0.015625)"/>
      <path id="DejaVuSans-c" d="M 513 4856 
L 1013 4856 
Q 1481 4119 1714 3412 
Q 1947 2706 1947 2009 
Q 1947 1309 1714 600 
Q 1481 -109 1013 -844 
L 513 -844 
Q 928 -128 1133 580 
Q 1338 1288 1338 2009 
Q 1338 2731 1133 3434 
Q 928 4138 513 4856 
z
" transform="scale(0.015625)"/>
     </defs>
     <use xlink:href="#LastResortHE-Regular-96"/>
     <use xlink:href="#LastResortHE-Regular-96" transform="translate(114.75 0)"/>
     <use xlink:href="#LastResortHE-Regular-96" transform="translate(229.5 0)"/>
     <use xlink:href="#LastResortHE-Regular-96" transform="translate(344.25 0)"/>
     <use xlink:href="#LastResortHE-Regular-96" transform="translate(459 0)"/>
     <use xlink:href="#DejaVuSans-3" transform="translate(573.75 0)"/>
     <use xlink:href="#DejaVuSans-b" transform="translate(605.53125 0)"/>
     <use xlink:href="#LastResortHE-Regular-7a" transform="translate(644.546875 0)"/>
     <use xlink:href="#LastResortHE-Regular-7a" transform="translate(759.296875 0)"/>
     <use xlink:href="#LastResortHE-Regular-7a" transform="translate(874.046875 0)"/>
     <use xlink:href="#LastResortHE-Regular-7a" transform="translate(988.796875 0)"/>
     <use xlink:href="#LastResortHE-Regular-7a" transform="translate(1103.546875 0)"/>
     <use xlink:href="#DejaVuSans-c" transform="translate(1218.296875 0)"/>
    </g>
   </g>
   <g id="text_7">
    <!-- 5 -->
    <g style="fill: #725500" transform="translate(117.605357 89.872969) scale(0.12 -0.12)">
     <defs>
      <path id="DejaVuSans-18" d="M 691 4666 
L 3169 4666 
L 3169 4134 
L 1269 4134 
L 1269 2991 
Q 1406 3038 1543 3061 
Q 1681 3084 1819 3084 
Q 2600 3084 3056 2656 
Q 3513 2228 3513 1497 
Q 3513 744 3044 326 
Q 2575 -91 1722 -91 
Q 1428 -91 1123 -41 
Q 819 9 494 109 
L 494 744 
Q 775 591 1075 516 
Q 1375 441 1709 441 
Q 2250 441 2565 725 
Q 2881 1009 2881 1497 
Q 2881 1984 2565 2268 
Q 2250 2553 1709 2553 
Q 1456 2553 1204 2497 
Q 953 2441 691 2322 
L 691 4666 
z
" transform="scale(0.015625)"/>
     </defs>
     <use xlink:href="#DejaVuSans-18"/>
    </g>
   </g>
   <g id="text_8">
    <!-- 18 -->
    <g style="fill: #244c7b" transform="translate(47.445 149.58154) scale(0.12 -0.12)">
     <defs>
      <path id="DejaVuSans-14" d="M 794 531 
L 1825 531 
L 1825 4091 
L 703 3866 
L 703 4441 
L 1819 4666 
L 2450 4666 
L 2450 531 
L 3481 531 
L 3481 0 
L 794 0 
L 794 531 
z
" transform="scale(0.015625)"/>
      <path id="DejaVuSans-1b" d="M 2034 2216 
Q 1584 2216 1326 1975 
Q 1069 1734 1069 1313 
Q 1069 891 1326 650 
Q 1584 409 2034 409 
Q 2484 409 2743 651 
Q 3003 894 3003 1313 
Q 3003 1734 2745 1975 
Q 2488 2216 2034 2216 
z
M 1403 2484 
Q 997 2584 770 2862 
Q 544 3141 544 3541 
Q 544 4100 942 4425 
Q 1341 4750 2034 4750 
Q 2731 4750 3128 4425 
Q 3525 4100 3525 3541 
Q 3525 3141 3298 2862 
Q 3072 2584 2669 2484 
Q 3125 2378 3379 2068 
Q 3634 1759 3634 1313 
Q 3634 634 3220 271 
Q 2806 -91 2034 -91 
Q 1263 -91 848 271 
Q 434 634 434 1313 
Q 434 1759 690 2068 
Q 947 2378 1403 2484 
z
M 1172 3481 
Q 1172 3119 1398 2916 
Q 1625 2713 2034 2713 
Q 2441 2713 2670 2916 
Q 2900 3119 2900 3481 
Q 2900 3844 2670 4047 
Q 2441 4250 2034 4250 
Q 1625 4250 1398 4047 
Q 1172 3844 1172 3481 
z
" transform="scale(0.015625)"/>
     </defs>
     <use xlink:href="#DejaVuSans-14"/>
     <use xlink:href="#DejaVuSans-1b" transform="translate(63.625 0)"/>
    </g>
   </g>
   <g id="text_9">
    <!-- 16 -->
    <g style="fill: #ffffff" transform="translate(47.445 222.558683) scale(0.12 -0.12)">
     <use xlink:href="#DejaVuSans-14"/>
     <use xlink:href="#DejaVuSans-19" transform="translate(63.625 0)"/>
    </g>
   </g>
   <g id="text_10">
    <!-- 3 -->
    <g style="fill: #244c7b" transform="translate(117.605357 275.632969) scale(0.12 -0.12)">
     <use xlink:href="#DejaVuSans-16"/>
    </g>
   </g>
   <g id="text_11">
    <!-- 8 -->
    <g style="fill: #244c7b" transform="translate(183.948214 222.558683) scale(0.12 -0.12)">
     <use xlink:href="#DejaVuSans-1b"/>
    </g>
   </g>
   <g id="text_12">
    <!-- 13 -->
    <g style="fill: #244c7b" transform="translate(180.130714 149.58154) scale(0.12 -0.12)">
     <use xlink:href="#DejaVuSans-14"/>
     <use xlink:href="#DejaVuSans-16" transform="translate(63.625 0)"/>
    </g>
   </g>
   <g id="text_13">
    <!-- 1 -->
    <g style="fill: #ffffff" transform="translate(250.291071 89.872969) scale(0.12 -0.12)">
     <use xlink:href="#DejaVuSans-14"/>
    </g>
   </g>
   <g id="text_14">
    <!-- 7 -->
    <g style="fill: #782020" transform="translate(316.633929 149.58154) scale(0.12 -0.12)">
     <defs>
      <path id="DejaVuSans-1a" d="M 525 4666 
L 3525 4666 
L 3525 4397 
L 1831 0 
L 1172 0 
L 2766 4134 
L 525 4134 
L 525 4666 
z
" transform="scale(0.015625)"/>
     </defs>
     <use xlink:href="#DejaVuSans-1a"/>
    </g>
   </g>
   <g id="text_15">
    <!-- 20 -->
    <g style="fill: #725500" transform="translate(312.816429 222.558683) scale(0.12 -0.12)">
     <defs>
      <path id="DejaVuSans-15" d="M 1228 531 
L 3431 531 
L 3431 0 
L 469 0 
L 469 531 
Q 828 903 1448 1529 
Q 2069 2156 2228 2338 
Q 2531 2678 2651 2914 
Q 2772 3150 2772 3378 
Q 2772 3750 2511 3984 
Q 2250 4219 1831 4219 
Q 1534 4219 1204 4116 
Q 875 4013 500 3803 
L 500 4441 
Q 881 4594 1212 4672 
Q 1544 4750 1819 4750 
Q 2544 4750 2975 4387 
Q 3406 4025 3406 3419 
Q 3406 3131 3298 2873 
Q 3191 2616 2906 2266 
Q 2828 2175 2409 1742 
Q 1991 1309 1228 531 
z
" transform="scale(0.015625)"/>
      <path id="DejaVuSans-13" d="M 2034 4250 
Q 1547 4250 1301 3770 
Q 1056 3291 1056 2328 
Q 1056 1369 1301 889 
Q 1547 409 2034 409 
Q 2525 409 2770 889 
Q 3016 1369 3016 2328 
Q 3016 3291 2770 3770 
Q 2525 4250 2034 4250 
z
M 2034 4750 
Q 2819 4750 3233 4129 
Q 3647 3509 3647 2328 
Q 3647 1150 3233 529 
Q 2819 -91 2034 -91 
Q 1250 -91 836 529 
Q 422 1150 422 2328 
Q 422 3509 836 4129 
Q 1250 4750 2034 4750 
z
" transform="scale(0.015625)"/>
     </defs>
     <use xlink:href="#DejaVuSans-15"/>
     <use xlink:href="#DejaVuSans-13" transform="translate(63.625 0)"/>
    </g>
   </g>
   <g id="text_16">
    <!-- 14 -->
    <g style="fill: #222222" transform="translate(246.473571 275.632969) scale(0.12 -0.12)">
     <defs>
      <path id="DejaVuSans-17" d="M 2419 4116 
L 825 1625 
L 2419 1625 
L 2419 4116 
z
M 2253 4666 
L 3047 4666 
L 3047 1625 
L 3713 1625 
L 3713 1100 
L 3047 1100 
L 3047 0 
L 2419 0 
L 2419 1100 
L 313 1100 
L 313 1709 
L 2253 4666 
z
" transform="scale(0.015625)"/>
     </defs>
     <use xlink:href="#DejaVuSans-14"/>
     <use xlink:href="#DejaVuSans-17" transform="translate(63.625 0)"/>
    </g>
   </g>
   <g id="text_17">
    <!-- 12 -->
    <g style="fill: #782020" transform="translate(113.787857 368.512969) scale(0.12 -0.12)">
     <use xlink:href="#DejaVuSans-14"/>
     <use xlink:href="#DejaVuSans-15" transform="translate(63.625 0)"/>
    </g>
   </g>
   <g id="text_18">
    <!-- 11 -->
    <g style="fill: #ffffff" transform="translate(180.130714 421.587254) scale(0.12 -0.12)">
     <use xlink:href="#DejaVuSans-14"/>
     <use xlink:href="#DejaVuSans-14" transform="translate(63.625 0)"/>
    </g>
   </g>
   <g id="text_19">
    <!-- 15 -->
    <g style="fill: #725500" transform="translate(246.473571 368.512969) scale(0.12 -0.12)">
     <use xlink:href="#DejaVuSans-14"/>
     <use xlink:href="#DejaVuSans-18" transform="translate(63.625 0)"/>
    </g>
   </g>
   <g id="text_20">
    <!-- 9 -->
    <g style="fill: #222222" transform="translate(51.2625 421.587254) scale(0.12 -0.12)">
     <defs>
      <path id="DejaVuSans-1c" d="M 703 97 
L 703 672 
Q 941 559 1184 500 
Q 1428 441 1663 441 
Q 2288 441 2617 861 
Q 2947 1281 2994 2138 
Q 2813 1869 2534 1725 
Q 2256 1581 1919 1581 
Q 1219 1581 811 2004 
Q 403 2428 403 3163 
Q 403 3881 828 4315 
Q 1253 4750 1959 4750 
Q 2769 4750 3195 4129 
Q 3622 3509 3622 2328 
Q 3622 1225 3098 567 
Q 2575 -91 1691 -91 
Q 1453 -91 1209 -44 
Q 966 3 703 97 
z
M 1959 2075 
Q 2384 2075 2632 2365 
Q 2881 2656 2881 3163 
Q 2881 3666 2632 3958 
Q 2384 4250 1959 4250 
Q 1534 4250 1286 3958 
Q 1038 3666 1038 3163 
Q 1038 2656 1286 2365 
Q 1534 2075 1959 2075 
z
" transform="scale(0.015625)"/>
     </defs>
     <use xlink:href="#DejaVuSans-1c"/>
    </g>
   </g>
   <g id="text_21">
    <!-- 19 -->
    <g style="fill: #222222" transform="translate(47.445 501.198683) scale(0.12 -0.12)">
     <use xlink:href="#DejaVuSans-14"/>
     <use xlink:href="#DejaVuSans-1c" transform="translate(63.625 0)"/>
    </g>
   </g>
   <g id="text_22">
    <!-- 2 -->
    <g style="fill: #782020" transform="translate(117.605357 554.272969) scale(0.12 -0.12)">
     <use xlink:href="#DejaVuSans-15"/>
    </g>
   </g>
   <g id="text_23">
    <!-- 10 -->
    <g style="fill: #725500" transform="translate(180.130714 501.198683) scale(0.12 -0.12)">
     <use xlink:href="#DejaVuSans-14"/>
     <use xlink:href="#DejaVuSans-13" transform="translate(63.625 0)"/>
    </g>
   </g>
   <g id="text_24">
    <!-- 4 -->
    <g style="fill: #222222" transform="translate(316.633929 421.587254) scale(0.12 -0.12)">
     <use xlink:href="#DejaVuSans-17"/>
    </g>
   </g>
   <g id="text_25">
    <!-- 17 -->
    <g style="fill: #782020" transform="translate(312.816429 501.198683) scale(0.12 -0.12)">
     <use xlink:href="#DejaVuSans-14"/>
     <use xlink:href="#DejaVuSans-1a" transform="translate(63.625 0)"/>
    </g>
   </g>
   <g id="text_26">
    <!-- 6 -->
    <g style="fill: #ffffff" transform="translate(250.291071 554.272969) scale(0.12 -0.12)">
     <use xlink:href="#DejaVuSans-19"/>
    </g>
   </g>
  </g>
  <g id="axes_2">
   <g id="patch_27">
    <path d="M 516.625714 338.551301 
C 518.053037 338.551301 519.422093 337.232183 520.431363 334.884466 
C 521.440633 332.536749 522.007714 329.352114 522.007714 326.031941 
C 522.007714 322.711768 521.440633 319.527134 520.431363 317.179417 
C 519.422093 314.8317 518.053037 313.512581 516.625714 313.512581 
C 515.198391 313.512581 513.829335 314.8317 512.820066 317.179417 
C 511.810796 319.527134 511.243714 322.711768 511.243714 326.031941 
C 511.243714 329.352114 511.810796 332.536749 512.820066 334.884466 
C 513.829335 337.232183 515.198391 338.551301 516.625714 338.551301 
z
" clip-path="url(#paba3e089a2)" style="fill: #3f3f3f; stroke: #161616; stroke-width: 1.5; stroke-linejoin: miter"/>
   </g>
   <g id="patch_28">
    <path d="M 516.625714 392.983301 
C 518.053037 392.983301 519.422093 391.664183 520.431363 389.316466 
C 521.440633 386.968749 522.007714 383.784114 522.007714 380.463941 
C 522.007714 377.143768 521.440633 373.959134 520.431363 371.611417 
C 519.422093 369.2637 518.053037 367.944581 516.625714 367.944581 
C 515.198391 367.944581 513.829335 369.2637 512.820066 371.611417 
C 511.810796 373.959134 511.243714 377.143768 511.243714 380.463941 
C 511.243714 383.784114 511.810796 386.968749 512.820066 389.316466 
C 513.829335 391.664183 515.198391 392.983301 516.625714 392.983301 
z
" clip-path="url(#paba3e089a2)" style="fill: #f1cdcd; stroke: #b63e3e; stroke-width: 1.5; stroke-linejoin: miter"/>
   </g>
   <g id="patch_29">
    <path d="M 516.625714 447.415301 
C 518.053037 447.415301 519.422093 446.096183 520.431363 443.748466 
C 521.440633 441.400749 522.007714 438.216114 522.007714 434.895941 
C 522.007714 431.575768 521.440633 428.391134 520.431363 426.043417 
C 519.422093 423.6957 518.053037 422.376581 516.625714 422.376581 
C 515.198391 422.376581 513.829335 423.6957 512.820066 426.043417 
C 511.810796 428.391134 511.243714 431.575768 511.243714 434.895941 
C 511.243714 438.216114 511.810796 441.400749 512.820066 443.748466 
C 513.829335 446.096183 515.198391 447.415301 516.625714 447.415301 
z
" clip-path="url(#paba3e089a2)" style="fill: #d4e3f7; stroke: #3e70af; stroke-width: 1.5; stroke-linejoin: miter"/>
   </g>
   <g id="patch_30">
    <path d="M 516.625714 501.847301 
C 518.053037 501.847301 519.422093 500.528183 520.431363 498.180466 
C 521.440633 495.832749 522.007714 492.648114 522.007714 489.327941 
C 522.007714 486.007768 521.440633 482.823134 520.431363 480.475417 
C 519.422093 478.1277 518.053037 476.808581 516.625714 476.808581 
C 515.198391 476.808581 513.829335 478.1277 512.820066 480.475417 
C 511.810796 482.823134 511.243714 486.007768 511.243714 489.327941 
C 511.243714 492.648114 511.810796 495.832749 512.820066 498.180466 
C 513.829335 500.528183 515.198391 501.847301 516.625714 501.847301 
z
" clip-path="url(#paba3e089a2)" style="fill: #e1e1e1; stroke: #666666; stroke-width: 1.5; stroke-linejoin: miter"/>
   </g>
   <g id="patch_31">
    <path d="M 516.625714 556.279301 
C 518.053037 556.279301 519.422093 554.960183 520.431363 552.612466 
C 521.440633 550.264749 522.007714 547.080114 522.007714 543.759941 
C 522.007714 540.439768 521.440633 537.255134 520.431363 534.907417 
C 519.422093 532.5597 518.053037 531.240581 516.625714 531.240581 
C 515.198391 531.240581 513.829335 532.5597 512.820066 534.907417 
C 511.810796 537.255134 511.243714 540.439768 511.243714 543.759941 
C 511.243714 547.080114 511.810796 550.264749 512.820066 552.612466 
C 513.829335 554.960183 515.198391 556.279301 516.625714 556.279301 
z
" clip-path="url(#paba3e089a2)" style="fill: #f5e1a2; stroke: #b98d00; stroke-width: 1.5; stroke-linejoin: miter"/>
   </g>
   <g id="text_27">
    <!-- 지수용육도 (地數用六圖) -->
    <g transform="translate(507.265714 70.598197) scale(0.17 -0.17)">
     <defs>
      <path id="DejaVuSans-Bold-3" transform="scale(0.015625)"/>
      <path id="DejaVuSans-Bold-b" d="M 2413 -844 
L 1484 -844 
Q 1006 -72 778 623 
Q 550 1319 550 2003 
Q 550 2688 779 3389 
Q 1009 4091 1484 4856 
L 2413 4856 
Q 2013 4116 1813 3408 
Q 1613 2700 1613 2009 
Q 1613 1319 1811 609 
Q 2009 -100 2413 -844 
z
" transform="scale(0.015625)"/>
      <path id="DejaVuSans-Bold-c" d="M 513 -844 
Q 913 -100 1113 609 
Q 1313 1319 1313 2009 
Q 1313 2700 1113 3408 
Q 913 4116 513 4856 
L 1441 4856 
Q 1916 4091 2145 3389 
Q 2375 2688 2375 2003 
Q 2375 1319 2147 623 
Q 1919 -72 1441 -844 
L 513 -844 
z
" transform="scale(0.015625)"/>
     </defs>
     <use xlink:href="#LastResortHE-Regular-96"/>
     <use xlink:href="#LastResortHE-Regular-96" transform="translate(114.75 0)"/>
     <use xlink:href="#LastResortHE-Regular-96" transform="translate(229.5 0)"/>
     <use xlink:href="#LastResortHE-Regular-96" transform="translate(344.25 0)"/>
     <use xlink:href="#LastResortHE-Regular-96" transform="translate(459 0)"/>
     <use xlink:href="#DejaVuSans-Bold-3" transform="translate(573.75 0)"/>
     <use xlink:href="#DejaVuSans-Bold-b" transform="translate(608.5625 0)"/>
     <use xlink:href="#LastResortHE-Regular-7a" transform="translate(654.265625 0)"/>
     <use xlink:href="#LastResortHE-Regular-7a" transform="translate(769.015625 0)"/>
     <use xlink:href="#LastResortHE-Regular-7a" transform="translate(883.765625 0)"/>
     <use xlink:href="#LastResortHE-Regular-7a" transform="translate(998.515625 0)"/>
     <use xlink:href="#LastResortHE-Regular-7a" transform="translate(1113.265625 0)"/>
     <use xlink:href="#DejaVuSans-Bold-c" transform="translate(1228.015625 0)"/>
    </g>
   </g>
   <g id="text_28">
    <!-- 六子各得六十三數 -->
    <g transform="translate(507.265714 100.218334) scale(0.13 -0.13)">
     <use xlink:href="#LastResortHE-Regular-7a"/>
     <use xlink:href="#LastResortHE-Regular-7a" transform="translate(114.75 0)"/>
     <use xlink:href="#LastResortHE-Regular-7a" transform="translate(229.5 0)"/>
     <use xlink:href="#LastResortHE-Regular-7a" transform="translate(344.25 0)"/>
     <use xlink:href="#LastResortHE-Regular-7a" transform="translate(459 0)"/>
     <use xlink:href="#LastResortHE-Regular-7a" transform="translate(573.75 0)"/>
     <use xlink:href="#LastResortHE-Regular-7a" transform="translate(688.5 0)"/>
     <use xlink:href="#LastResortHE-Regular-7a" transform="translate(803.25 0)"/>
    </g>
   </g>
   <g id="text_29">
    <!-- • 정점: 1–20, 각 1회 -->
    <g transform="translate(507.265714 142.244403) scale(0.11 -0.11)">
     <defs>
      <path id="DejaVuSans-b04" d="M 959 2381 
Q 959 2769 1229 3036 
Q 1500 3303 1894 3303 
Q 2281 3303 2548 3036 
Q 2816 2769 2816 2381 
Q 2816 1991 2547 1722 
Q 2278 1453 1888 1453 
Q 1497 1453 1228 1722 
Q 959 1991 959 2381 
z
" transform="scale(0.015625)"/>
      <path id="DejaVuSans-1d" d="M 750 794 
L 1409 794 
L 1409 0 
L 750 0 
L 750 794 
z
M 750 3309 
L 1409 3309 
L 1409 2516 
L 750 2516 
L 750 3309 
z
" transform="scale(0.015625)"/>
      <path id="DejaVuSans-af5" d="M 313 1978 
L 2888 1978 
L 2888 1528 
L 313 1528 
L 313 1978 
z
" transform="scale(0.015625)"/>
      <path id="DejaVuSans-f" d="M 750 794 
L 1409 794 
L 1409 256 
L 897 -744 
L 494 -744 
L 750 256 
L 750 794 
z
" transform="scale(0.015625)"/>
     </defs>
     <use xlink:href="#DejaVuSans-b04"/>
     <use xlink:href="#DejaVuSans-3" transform="translate(58.984375 0)"/>
     <use xlink:href="#LastResortHE-Regular-96" transform="translate(90.765625 0)"/>
     <use xlink:href="#LastResortHE-Regular-96" transform="translate(205.515625 0)"/>
     <use xlink:href="#DejaVuSans-1d" transform="translate(320.265625 0)"/>
     <use xlink:href="#DejaVuSans-3" transform="translate(353.953125 0)"/>
     <use xlink:href="#DejaVuSans-14" transform="translate(385.734375 0)"/>
     <use xlink:href="#DejaVuSans-af5" transform="translate(449.359375 0)"/>
     <use xlink:href="#DejaVuSans-15" transform="translate(499.359375 0)"/>
     <use xlink:href="#DejaVuSans-13" transform="translate(562.984375 0)"/>
     <use xlink:href="#DejaVuSans-f" transform="translate(626.609375 0)"/>
     <use xlink:href="#DejaVuSans-3" transform="translate(658.390625 0)"/>
     <use xlink:href="#LastResortHE-Regular-96" transform="translate(690.171875 0)"/>
     <use xlink:href="#DejaVuSans-3" transform="translate(804.921875 0)"/>
     <use xlink:href="#DejaVuSans-14" transform="translate(836.703125 0)"/>
     <use xlink:href="#LastResortHE-Regular-96" transform="translate(900.328125 0)"/>
    </g>
   </g>
   <g id="text_30">
    <!-- • 육각형: 5개 -->
    <g transform="translate(507.265714 171.093363) scale(0.11 -0.11)">
     <use xlink:href="#DejaVuSans-b04"/>
     <use xlink:href="#DejaVuSans-3" transform="translate(58.984375 0)"/>
     <use xlink:href="#LastResortHE-Regular-96" transform="translate(90.765625 0)"/>
     <use xlink:href="#LastResortHE-Regular-96" transform="translate(205.515625 0)"/>
     <use xlink:href="#LastResortHE-Regular-96" transform="translate(320.265625 0)"/>
     <use xlink:href="#DejaVuSans-1d" transform="translate(435.015625 0)"/>
     <use xlink:href="#DejaVuSans-3" transform="translate(468.703125 0)"/>
     <use xlink:href="#DejaVuSans-18" transform="translate(500.484375 0)"/>
     <use xlink:href="#LastResortHE-Regular-96" transform="translate(564.109375 0)"/>
    </g>
   </g>
   <g id="text_31">
    <!-- • 각 육각형: 6개 정점 -->
    <g transform="translate(507.265714 199.942323) scale(0.11 -0.11)">
     <use xlink:href="#DejaVuSans-b04"/>
     <use xlink:href="#DejaVuSans-3" transform="translate(58.984375 0)"/>
     <use xlink:href="#LastResortHE-Regular-96" transform="translate(90.765625 0)"/>
     <use xlink:href="#DejaVuSans-3" transform="translate(205.515625 0)"/>
     <use xlink:href="#LastResortHE-Regular-96" transform="translate(237.296875 0)"/>
     <use xlink:href="#LastResortHE-Regular-96" transform="translate(352.046875 0)"/>
     <use xlink:href="#LastResortHE-Regular-96" transform="translate(466.796875 0)"/>
     <use xlink:href="#DejaVuSans-1d" transform="translate(581.546875 0)"/>
     <use xlink:href="#DejaVuSans-3" transform="translate(615.234375 0)"/>
     <use xlink:href="#DejaVuSans-19" transform="translate(647.015625 0)"/>
     <use xlink:href="#LastResortHE-Regular-96" transform="translate(710.640625 0)"/>
     <use xlink:href="#DejaVuSans-3" transform="translate(825.390625 0)"/>
     <use xlink:href="#LastResortHE-Regular-96" transform="translate(857.171875 0)"/>
     <use xlink:href="#LastResortHE-Regular-96" transform="translate(971.921875 0)"/>
    </g>
   </g>
   <g id="text_32">
    <!-- • 각 육각형의 합: 63 -->
    <g transform="translate(507.265714 228.791283) scale(0.11 -0.11)">
     <use xlink:href="#DejaVuSans-b04"/>
     <use xlink:href="#DejaVuSans-3" transform="translate(58.984375 0)"/>
     <use xlink:href="#LastResortHE-Regular-96" transform="translate(90.765625 0)"/>
     <use xlink:href="#DejaVuSans-3" transform="translate(205.515625 0)"/>
     <use xlink:href="#LastResortHE-Regular-96" transform="translate(237.296875 0)"/>
     <use xlink:href="#LastResortHE-Regular-96" transform="translate(352.046875 0)"/>
     <use xlink:href="#LastResortHE-Regular-96" transform="translate(466.796875 0)"/>
     <use xlink:href="#LastResortHE-Regular-96" transform="translate(581.546875 0)"/>
     <use xlink:href="#DejaVuSans-3" transform="translate(696.296875 0)"/>
     <use xlink:href="#LastResortHE-Regular-96" transform="translate(728.078125 0)"/>
     <use xlink:href="#DejaVuSans-1d" transform="translate(842.828125 0)"/>
     <use xlink:href="#DejaVuSans-3" transform="translate(876.515625 0)"/>
     <use xlink:href="#DejaVuSans-19" transform="translate(908.296875 0)"/>
     <use xlink:href="#DejaVuSans-16" transform="translate(971.921875 0)"/>
    </g>
   </g>
   <g id="text_33">
    <!-- • 육각형별 정점 사용 횟수 합: 30 -->
    <g transform="translate(507.265714 257.640243) scale(0.11 -0.11)">
     <use xlink:href="#DejaVuSans-b04"/>
     <use xlink:href="#DejaVuSans-3" transform="translate(58.984375 0)"/>
     <use xlink:href="#LastResortHE-Regular-96" transform="translate(90.765625 0)"/>
     <use xlink:href="#LastResortHE-Regular-96" transform="translate(205.515625 0)"/>
     <use xlink:href="#LastResortHE-Regular-96" transform="translate(320.265625 0)"/>
     <use xlink:href="#LastResortHE-Regular-96" transform="translate(435.015625 0)"/>
     <use xlink:href="#DejaVuSans-3" transform="translate(549.765625 0)"/>
     <use xlink:href="#LastResortHE-Regular-96" transform="translate(581.546875 0)"/>
     <use xlink:href="#LastResortHE-Regular-96" transform="translate(696.296875 0)"/>
     <use xlink:href="#DejaVuSans-3" transform="translate(811.046875 0)"/>
     <use xlink:href="#LastResortHE-Regular-96" transform="translate(842.828125 0)"/>
     <use xlink:href="#LastResortHE-Regular-96" transform="translate(957.578125 0)"/>
     <use xlink:href="#DejaVuSans-3" transform="translate(1072.328125 0)"/>
     <use xlink:href="#LastResortHE-Regular-96" transform="translate(1104.109375 0)"/>
     <use xlink:href="#LastResortHE-Regular-96" transform="translate(1218.859375 0)"/>
     <use xlink:href="#DejaVuSans-3" transform="translate(1333.609375 0)"/>
     <use xlink:href="#LastResortHE-Regular-96" transform="translate(1365.390625 0)"/>
     <use xlink:href="#DejaVuSans-1d" transform="translate(1480.140625 0)"/>
     <use xlink:href="#DejaVuSans-3" transform="translate(1513.828125 0)"/>
     <use xlink:href="#DejaVuSans-16" transform="translate(1545.609375 0)"/>
     <use xlink:href="#DejaVuSans-13" transform="translate(1609.234375 0)"/>
    </g>
   </g>
   <g id="text_34">
    <!-- mod 5 잉여 클래스 -->
    <g transform="translate(507.265714 299.655994) scale(0.14 -0.14)">
     <defs>
      <path id="DejaVuSans-Bold-50" d="M 3781 2919 
Q 3994 3244 4286 3414 
Q 4578 3584 4928 3584 
Q 5531 3584 5847 3212 
Q 6163 2841 6163 2131 
L 6163 0 
L 5038 0 
L 5038 1825 
Q 5041 1866 5042 1909 
Q 5044 1953 5044 2034 
Q 5044 2406 4934 2573 
Q 4825 2741 4581 2741 
Q 4263 2741 4089 2478 
Q 3916 2216 3909 1719 
L 3909 0 
L 2784 0 
L 2784 1825 
Q 2784 2406 2684 2573 
Q 2584 2741 2328 2741 
Q 2006 2741 1831 2477 
Q 1656 2213 1656 1722 
L 1656 0 
L 531 0 
L 531 3500 
L 1656 3500 
L 1656 2988 
Q 1863 3284 2130 3434 
Q 2397 3584 2719 3584 
Q 3081 3584 3359 3409 
Q 3638 3234 3781 2919 
z
" transform="scale(0.015625)"/>
      <path id="DejaVuSans-Bold-52" d="M 2203 2784 
Q 1831 2784 1636 2517 
Q 1441 2250 1441 1747 
Q 1441 1244 1636 976 
Q 1831 709 2203 709 
Q 2569 709 2762 976 
Q 2956 1244 2956 1747 
Q 2956 2250 2762 2517 
Q 2569 2784 2203 2784 
z
M 2203 3584 
Q 3106 3584 3614 3096 
Q 4122 2609 4122 1747 
Q 4122 884 3614 396 
Q 3106 -91 2203 -91 
Q 1297 -91 786 396 
Q 275 884 275 1747 
Q 275 2609 786 3096 
Q 1297 3584 2203 3584 
z
" transform="scale(0.015625)"/>
      <path id="DejaVuSans-Bold-47" d="M 2919 2988 
L 2919 4863 
L 4044 4863 
L 4044 0 
L 2919 0 
L 2919 506 
Q 2688 197 2409 53 
Q 2131 -91 1766 -91 
Q 1119 -91 703 423 
Q 288 938 288 1747 
Q 288 2556 703 3070 
Q 1119 3584 1766 3584 
Q 2128 3584 2408 3439 
Q 2688 3294 2919 2988 
z
M 2181 722 
Q 2541 722 2730 984 
Q 2919 1247 2919 1747 
Q 2919 2247 2730 2509 
Q 2541 2772 2181 2772 
Q 1825 2772 1636 2509 
Q 1447 2247 1447 1747 
Q 1447 1247 1636 984 
Q 1825 722 2181 722 
z
" transform="scale(0.015625)"/>
      <path id="DejaVuSans-Bold-18" d="M 678 4666 
L 3669 4666 
L 3669 3781 
L 1638 3781 
L 1638 3059 
Q 1775 3097 1914 3117 
Q 2053 3138 2203 3138 
Q 3056 3138 3531 2711 
Q 4006 2284 4006 1522 
Q 4006 766 3489 337 
Q 2972 -91 2053 -91 
Q 1656 -91 1267 -14 
Q 878 63 494 219 
L 494 1166 
Q 875 947 1217 837 
Q 1559 728 1863 728 
Q 2300 728 2551 942 
Q 2803 1156 2803 1522 
Q 2803 1891 2551 2103 
Q 2300 2316 1863 2316 
Q 1603 2316 1309 2248 
Q 1016 2181 678 2041 
L 678 4666 
z
" transform="scale(0.015625)"/>
     </defs>
     <use xlink:href="#DejaVuSans-Bold-50"/>
     <use xlink:href="#DejaVuSans-Bold-52" transform="translate(104.203125 0)"/>
     <use xlink:href="#DejaVuSans-Bold-47" transform="translate(172.90625 0)"/>
     <use xlink:href="#DejaVuSans-Bold-3" transform="translate(244.484375 0)"/>
     <use xlink:href="#DejaVuSans-Bold-18" transform="translate(279.296875 0)"/>
     <use xlink:href="#DejaVuSans-Bold-3" transform="translate(348.875 0)"/>
     <use xlink:href="#LastResortHE-Regular-96" transform="translate(383.6875 0)"/>
     <use xlink:href="#LastResortHE-Regular-96" transform="translate(498.4375 0)"/>
     <use xlink:href="#DejaVuSans-Bold-3" transform="translate(613.1875 0)"/>
     <use xlink:href="#LastResortHE-Regular-96" transform="translate(648 0)"/>
     <use xlink:href="#LastResortHE-Regular-96" transform="translate(762.75 0)"/>
     <use xlink:href="#LastResortHE-Regular-96" transform="translate(877.5 0)"/>
    </g>
   </g>
   <g id="text_35">
    <!-- n mod 5 ≡ 1 · 4개 -->
    <g style="fill: #ffffff" transform="translate(528.325714 328.837832) scale(0.108 -0.108)">
     <defs>
      <path id="DejaVuSans-Bold-51" d="M 4056 2131 
L 4056 0 
L 2931 0 
L 2931 347 
L 2931 1631 
Q 2931 2084 2911 2256 
Q 2891 2428 2841 2509 
Q 2775 2619 2662 2680 
Q 2550 2741 2406 2741 
Q 2056 2741 1856 2470 
Q 1656 2200 1656 1722 
L 1656 0 
L 538 0 
L 538 3500 
L 1656 3500 
L 1656 2988 
Q 1909 3294 2193 3439 
Q 2478 3584 2822 3584 
Q 3428 3584 3742 3212 
Q 4056 2841 4056 2131 
z
" transform="scale(0.015625)"/>
      <path id="DejaVuSans-Bold-ceb" d="M 678 2369 
L 4684 2369 
L 4684 1638 
L 678 1638 
L 678 2369 
z
M 678 3766 
L 4684 3766 
L 4684 3031 
L 678 3031 
L 678 3766 
z
M 678 975 
L 4684 975 
L 4684 241 
L 678 241 
L 678 975 
z
" transform="scale(0.015625)"/>
      <path id="DejaVuSans-Bold-14" d="M 750 831 
L 1813 831 
L 1813 3847 
L 722 3622 
L 722 4441 
L 1806 4666 
L 2950 4666 
L 2950 831 
L 4013 831 
L 4013 0 
L 750 0 
L 750 831 
z
" transform="scale(0.015625)"/>
      <path id="DejaVuSans-Bold-79" d="M 653 2828 
L 1778 2828 
L 1778 1619 
L 653 1619 
L 653 2828 
z
" transform="scale(0.015625)"/>
      <path id="DejaVuSans-Bold-17" d="M 2356 3675 
L 1038 1722 
L 2356 1722 
L 2356 3675 
z
M 2156 4666 
L 3494 4666 
L 3494 1722 
L 4159 1722 
L 4159 850 
L 3494 850 
L 3494 0 
L 2356 0 
L 2356 850 
L 288 850 
L 288 1881 
L 2156 4666 
z
" transform="scale(0.015625)"/>
     </defs>
     <use xlink:href="#DejaVuSans-Bold-51"/>
     <use xlink:href="#DejaVuSans-Bold-3" transform="translate(71.1875 0)"/>
     <use xlink:href="#DejaVuSans-Bold-50" transform="translate(106 0)"/>
     <use xlink:href="#DejaVuSans-Bold-52" transform="translate(210.203125 0)"/>
     <use xlink:href="#DejaVuSans-Bold-47" transform="translate(278.90625 0)"/>
     <use xlink:href="#DejaVuSans-Bold-3" transform="translate(350.484375 0)"/>
     <use xlink:href="#DejaVuSans-Bold-18" transform="translate(385.296875 0)"/>
     <use xlink:href="#DejaVuSans-Bold-3" transform="translate(454.875 0)"/>
     <use xlink:href="#DejaVuSans-Bold-ceb" transform="translate(489.6875 0)"/>
     <use xlink:href="#DejaVuSans-Bold-3" transform="translate(573.484375 0)"/>
     <use xlink:href="#DejaVuSans-Bold-14" transform="translate(608.296875 0)"/>
     <use xlink:href="#DejaVuSans-Bold-3" transform="translate(677.875 0)"/>
     <use xlink:href="#DejaVuSans-Bold-79" transform="translate(712.6875 0)"/>
     <use xlink:href="#DejaVuSans-Bold-3" transform="translate(750.671875 0)"/>
     <use xlink:href="#DejaVuSans-Bold-17" transform="translate(785.484375 0)"/>
     <use xlink:href="#LastResortHE-Regular-96" transform="translate(855.0625 0)"/>
    </g>
   </g>
   <g id="text_36">
    <!-- { 1, 6, 11, 16 } -->
    <g style="fill: #333333" transform="translate(528.325714 354.314539) scale(0.1 -0.1)">
     <defs>
      <path id="DejaVuSans-5e" d="M 3272 -594 
L 3272 -1044 
L 3078 -1044 
Q 2300 -1044 2036 -812 
Q 1772 -581 1772 109 
L 1772 856 
Q 1772 1328 1603 1509 
Q 1434 1691 991 1691 
L 800 1691 
L 800 2138 
L 991 2138 
Q 1438 2138 1605 2317 
Q 1772 2497 1772 2963 
L 1772 3713 
Q 1772 4403 2036 4633 
Q 2300 4863 3078 4863 
L 3272 4863 
L 3272 4416 
L 3059 4416 
Q 2619 4416 2484 4278 
Q 2350 4141 2350 3700 
L 2350 2925 
Q 2350 2434 2208 2212 
Q 2066 1991 1722 1913 
Q 2069 1828 2209 1606 
Q 2350 1384 2350 897 
L 2350 122 
Q 2350 -319 2484 -456 
Q 2619 -594 3059 -594 
L 3272 -594 
z
" transform="scale(0.015625)"/>
      <path id="DejaVuSans-60" d="M 800 -594 
L 1019 -594 
Q 1456 -594 1589 -459 
Q 1722 -325 1722 122 
L 1722 897 
Q 1722 1384 1862 1606 
Q 2003 1828 2350 1913 
Q 2003 1991 1862 2212 
Q 1722 2434 1722 2925 
L 1722 3700 
Q 1722 4144 1589 4280 
Q 1456 4416 1019 4416 
L 800 4416 
L 800 4863 
L 997 4863 
Q 1775 4863 2036 4633 
Q 2297 4403 2297 3713 
L 2297 2963 
Q 2297 2497 2465 2317 
Q 2634 2138 3078 2138 
L 3272 2138 
L 3272 1691 
L 3078 1691 
Q 2634 1691 2465 1509 
Q 2297 1328 2297 856 
L 2297 109 
Q 2297 -581 2036 -812 
Q 1775 -1044 997 -1044 
L 800 -1044 
L 800 -594 
z
" transform="scale(0.015625)"/>
     </defs>
     <use xlink:href="#DejaVuSans-5e"/>
     <use xlink:href="#DejaVuSans-3" transform="translate(63.625 0)"/>
     <use xlink:href="#DejaVuSans-14" transform="translate(95.40625 0)"/>
     <use xlink:href="#DejaVuSans-f" transform="translate(159.03125 0)"/>
     <use xlink:href="#DejaVuSans-3" transform="translate(190.8125 0)"/>
     <use xlink:href="#DejaVuSans-19" transform="translate(222.59375 0)"/>
     <use xlink:href="#DejaVuSans-f" transform="translate(286.21875 0)"/>
     <use xlink:href="#DejaVuSans-3" transform="translate(318 0)"/>
     <use xlink:href="#DejaVuSans-14" transform="translate(349.78125 0)"/>
     <use xlink:href="#DejaVuSans-14" transform="translate(413.40625 0)"/>
     <use xlink:href="#DejaVuSans-f" transform="translate(477.03125 0)"/>
     <use xlink:href="#DejaVuSans-3" transform="translate(508.8125 0)"/>
     <use xlink:href="#DejaVuSans-14" transform="translate(540.59375 0)"/>
     <use xlink:href="#DejaVuSans-19" transform="translate(604.21875 0)"/>
     <use xlink:href="#DejaVuSans-3" transform="translate(667.84375 0)"/>
     <use xlink:href="#DejaVuSans-60" transform="translate(699.625 0)"/>
    </g>
   </g>
   <g id="text_37">
    <!-- n mod 5 ≡ 2 · 4개 -->
    <g style="fill: #782020" transform="translate(528.325714 383.269832) scale(0.108 -0.108)">
     <defs>
      <path id="DejaVuSans-Bold-15" d="M 1844 884 
L 3897 884 
L 3897 0 
L 506 0 
L 506 884 
L 2209 2388 
Q 2438 2594 2547 2791 
Q 2656 2988 2656 3200 
Q 2656 3528 2436 3728 
Q 2216 3928 1850 3928 
Q 1569 3928 1234 3808 
Q 900 3688 519 3450 
L 519 4475 
Q 925 4609 1322 4679 
Q 1719 4750 2100 4750 
Q 2938 4750 3402 4381 
Q 3866 4013 3866 3353 
Q 3866 2972 3669 2642 
Q 3472 2313 2841 1759 
L 1844 884 
z
" transform="scale(0.015625)"/>
     </defs>
     <use xlink:href="#DejaVuSans-Bold-51"/>
     <use xlink:href="#DejaVuSans-Bold-3" transform="translate(71.1875 0)"/>
     <use xlink:href="#DejaVuSans-Bold-50" transform="translate(106 0)"/>
     <use xlink:href="#DejaVuSans-Bold-52" transform="translate(210.203125 0)"/>
     <use xlink:href="#DejaVuSans-Bold-47" transform="translate(278.90625 0)"/>
     <use xlink:href="#DejaVuSans-Bold-3" transform="translate(350.484375 0)"/>
     <use xlink:href="#DejaVuSans-Bold-18" transform="translate(385.296875 0)"/>
     <use xlink:href="#DejaVuSans-Bold-3" transform="translate(454.875 0)"/>
     <use xlink:href="#DejaVuSans-Bold-ceb" transform="translate(489.6875 0)"/>
     <use xlink:href="#DejaVuSans-Bold-3" transform="translate(573.484375 0)"/>
     <use xlink:href="#DejaVuSans-Bold-15" transform="translate(608.296875 0)"/>
     <use xlink:href="#DejaVuSans-Bold-3" transform="translate(677.875 0)"/>
     <use xlink:href="#DejaVuSans-Bold-79" transform="translate(712.6875 0)"/>
     <use xlink:href="#DejaVuSans-Bold-3" transform="translate(750.671875 0)"/>
     <use xlink:href="#DejaVuSans-Bold-17" transform="translate(785.484375 0)"/>
     <use xlink:href="#LastResortHE-Regular-96" transform="translate(855.0625 0)"/>
    </g>
   </g>
   <g id="text_38">
    <!-- { 2, 7, 12, 17 } -->
    <g style="fill: #333333" transform="translate(528.325714 408.746539) scale(0.1 -0.1)">
     <use xlink:href="#DejaVuSans-5e"/>
     <use xlink:href="#DejaVuSans-3" transform="translate(63.625 0)"/>
     <use xlink:href="#DejaVuSans-15" transform="translate(95.40625 0)"/>
     <use xlink:href="#DejaVuSans-f" transform="translate(159.03125 0)"/>
     <use xlink:href="#DejaVuSans-3" transform="translate(190.8125 0)"/>
     <use xlink:href="#DejaVuSans-1a" transform="translate(222.59375 0)"/>
     <use xlink:href="#DejaVuSans-f" transform="translate(286.21875 0)"/>
     <use xlink:href="#DejaVuSans-3" transform="translate(318 0)"/>
     <use xlink:href="#DejaVuSans-14" transform="translate(349.78125 0)"/>
     <use xlink:href="#DejaVuSans-15" transform="translate(413.40625 0)"/>
     <use xlink:href="#DejaVuSans-f" transform="translate(477.03125 0)"/>
     <use xlink:href="#DejaVuSans-3" transform="translate(508.8125 0)"/>
     <use xlink:href="#DejaVuSans-14" transform="translate(540.59375 0)"/>
     <use xlink:href="#DejaVuSans-1a" transform="translate(604.21875 0)"/>
     <use xlink:href="#DejaVuSans-3" transform="translate(667.84375 0)"/>
     <use xlink:href="#DejaVuSans-60" transform="translate(699.625 0)"/>
    </g>
   </g>
   <g id="text_39">
    <!-- n mod 5 ≡ 3 · 4개 -->
    <g style="fill: #244c7b" transform="translate(528.325714 437.701832) scale(0.108 -0.108)">
     <defs>
      <path id="DejaVuSans-Bold-16" d="M 2981 2516 
Q 3453 2394 3698 2092 
Q 3944 1791 3944 1325 
Q 3944 631 3412 270 
Q 2881 -91 1863 -91 
Q 1503 -91 1142 -33 
Q 781 25 428 141 
L 428 1069 
Q 766 900 1098 814 
Q 1431 728 1753 728 
Q 2231 728 2486 893 
Q 2741 1059 2741 1369 
Q 2741 1688 2480 1852 
Q 2219 2016 1709 2016 
L 1228 2016 
L 1228 2791 
L 1734 2791 
Q 2188 2791 2409 2933 
Q 2631 3075 2631 3366 
Q 2631 3634 2415 3781 
Q 2200 3928 1806 3928 
Q 1516 3928 1219 3862 
Q 922 3797 628 3669 
L 628 4550 
Q 984 4650 1334 4700 
Q 1684 4750 2022 4750 
Q 2931 4750 3382 4451 
Q 3834 4153 3834 3553 
Q 3834 3144 3618 2883 
Q 3403 2622 2981 2516 
z
" transform="scale(0.015625)"/>
     </defs>
     <use xlink:href="#DejaVuSans-Bold-51"/>
     <use xlink:href="#DejaVuSans-Bold-3" transform="translate(71.1875 0)"/>
     <use xlink:href="#DejaVuSans-Bold-50" transform="translate(106 0)"/>
     <use xlink:href="#DejaVuSans-Bold-52" transform="translate(210.203125 0)"/>
     <use xlink:href="#DejaVuSans-Bold-47" transform="translate(278.90625 0)"/>
     <use xlink:href="#DejaVuSans-Bold-3" transform="translate(350.484375 0)"/>
     <use xlink:href="#DejaVuSans-Bold-18" transform="translate(385.296875 0)"/>
     <use xlink:href="#DejaVuSans-Bold-3" transform="translate(454.875 0)"/>
     <use xlink:href="#DejaVuSans-Bold-ceb" transform="translate(489.6875 0)"/>
     <use xlink:href="#DejaVuSans-Bold-3" transform="translate(573.484375 0)"/>
     <use xlink:href="#DejaVuSans-Bold-16" transform="translate(608.296875 0)"/>
     <use xlink:href="#DejaVuSans-Bold-3" transform="translate(677.875 0)"/>
     <use xlink:href="#DejaVuSans-Bold-79" transform="translate(712.6875 0)"/>
     <use xlink:href="#DejaVuSans-Bold-3" transform="translate(750.671875 0)"/>
     <use xlink:href="#DejaVuSans-Bold-17" transform="translate(785.484375 0)"/>
     <use xlink:href="#LastResortHE-Regular-96" transform="translate(855.0625 0)"/>
    </g>
   </g>
   <g id="text_40">
    <!-- { 3, 8, 13, 18 } -->
    <g style="fill: #333333" transform="translate(528.325714 463.178539) scale(0.1 -0.1)">
     <use xlink:href="#DejaVuSans-5e"/>
     <use xlink:href="#DejaVuSans-3" transform="translate(63.625 0)"/>
     <use xlink:href="#DejaVuSans-16" transform="translate(95.40625 0)"/>
     <use xlink:href="#DejaVuSans-f" transform="translate(159.03125 0)"/>
     <use xlink:href="#DejaVuSans-3" transform="translate(190.8125 0)"/>
     <use xlink:href="#DejaVuSans-1b" transform="translate(222.59375 0)"/>
     <use xlink:href="#DejaVuSans-f" transform="translate(286.21875 0)"/>
     <use xlink:href="#DejaVuSans-3" transform="translate(318 0)"/>
     <use xlink:href="#DejaVuSans-14" transform="translate(349.78125 0)"/>
     <use xlink:href="#DejaVuSans-16" transform="translate(413.40625 0)"/>
     <use xlink:href="#DejaVuSans-f" transform="translate(477.03125 0)"/>
     <use xlink:href="#DejaVuSans-3" transform="translate(508.8125 0)"/>
     <use xlink:href="#DejaVuSans-14" transform="translate(540.59375 0)"/>
     <use xlink:href="#DejaVuSans-1b" transform="translate(604.21875 0)"/>
     <use xlink:href="#DejaVuSans-3" transform="translate(667.84375 0)"/>
     <use xlink:href="#DejaVuSans-60" transform="translate(699.625 0)"/>
    </g>
   </g>
   <g id="text_41">
    <!-- n mod 5 ≡ 4 · 4개 -->
    <g style="fill: #222222" transform="translate(528.325714 492.133832) scale(0.108 -0.108)">
     <use xlink:href="#DejaVuSans-Bold-51"/>
     <use xlink:href="#DejaVuSans-Bold-3" transform="translate(71.1875 0)"/>
     <use xlink:href="#DejaVuSans-Bold-50" transform="translate(106 0)"/>
     <use xlink:href="#DejaVuSans-Bold-52" transform="translate(210.203125 0)"/>
     <use xlink:href="#DejaVuSans-Bold-47" transform="translate(278.90625 0)"/>
     <use xlink:href="#DejaVuSans-Bold-3" transform="translate(350.484375 0)"/>
     <use xlink:href="#DejaVuSans-Bold-18" transform="translate(385.296875 0)"/>
     <use xlink:href="#DejaVuSans-Bold-3" transform="translate(454.875 0)"/>
     <use xlink:href="#DejaVuSans-Bold-ceb" transform="translate(489.6875 0)"/>
     <use xlink:href="#DejaVuSans-Bold-3" transform="translate(573.484375 0)"/>
     <use xlink:href="#DejaVuSans-Bold-17" transform="translate(608.296875 0)"/>
     <use xlink:href="#DejaVuSans-Bold-3" transform="translate(677.875 0)"/>
     <use xlink:href="#DejaVuSans-Bold-79" transform="translate(712.6875 0)"/>
     <use xlink:href="#DejaVuSans-Bold-3" transform="translate(750.671875 0)"/>
     <use xlink:href="#DejaVuSans-Bold-17" transform="translate(785.484375 0)"/>
     <use xlink:href="#LastResortHE-Regular-96" transform="translate(855.0625 0)"/>
    </g>
   </g>
   <g id="text_42">
    <!-- { 4, 9, 14, 19 } -->
    <g style="fill: #333333" transform="translate(528.325714 517.610539) scale(0.1 -0.1)">
     <use xlink:href="#DejaVuSans-5e"/>
     <use xlink:href="#DejaVuSans-3" transform="translate(63.625 0)"/>
     <use xlink:href="#DejaVuSans-17" transform="translate(95.40625 0)"/>
     <use xlink:href="#DejaVuSans-f" transform="translate(159.03125 0)"/>
     <use xlink:href="#DejaVuSans-3" transform="translate(190.8125 0)"/>
     <use xlink:href="#DejaVuSans-1c" transform="translate(222.59375 0)"/>
     <use xlink:href="#DejaVuSans-f" transform="translate(286.21875 0)"/>
     <use xlink:href="#DejaVuSans-3" transform="translate(318 0)"/>
     <use xlink:href="#DejaVuSans-14" transform="translate(349.78125 0)"/>
     <use xlink:href="#DejaVuSans-17" transform="translate(413.40625 0)"/>
     <use xlink:href="#DejaVuSans-f" transform="translate(477.03125 0)"/>
     <use xlink:href="#DejaVuSans-3" transform="translate(508.8125 0)"/>
     <use xlink:href="#DejaVuSans-14" transform="translate(540.59375 0)"/>
     <use xlink:href="#DejaVuSans-1c" transform="translate(604.21875 0)"/>
     <use xlink:href="#DejaVuSans-3" transform="translate(667.84375 0)"/>
     <use xlink:href="#DejaVuSans-60" transform="translate(699.625 0)"/>
    </g>
   </g>
   <g id="text_43">
    <!-- n mod 5 ≡ 0 · 4개 -->
    <g style="fill: #725500" transform="translate(528.325714 546.565832) scale(0.108 -0.108)">
     <defs>
      <path id="DejaVuSans-Bold-13" d="M 2944 2338 
Q 2944 3213 2780 3570 
Q 2616 3928 2228 3928 
Q 1841 3928 1675 3570 
Q 1509 3213 1509 2338 
Q 1509 1453 1675 1090 
Q 1841 728 2228 728 
Q 2613 728 2778 1090 
Q 2944 1453 2944 2338 
z
M 4147 2328 
Q 4147 1169 3647 539 
Q 3147 -91 2228 -91 
Q 1306 -91 806 539 
Q 306 1169 306 2328 
Q 306 3491 806 4120 
Q 1306 4750 2228 4750 
Q 3147 4750 3647 4120 
Q 4147 3491 4147 2328 
z
" transform="scale(0.015625)"/>
     </defs>
     <use xlink:href="#DejaVuSans-Bold-51"/>
     <use xlink:href="#DejaVuSans-Bold-3" transform="translate(71.1875 0)"/>
     <use xlink:href="#DejaVuSans-Bold-50" transform="translate(106 0)"/>
     <use xlink:href="#DejaVuSans-Bold-52" transform="translate(210.203125 0)"/>
     <use xlink:href="#DejaVuSans-Bold-47" transform="translate(278.90625 0)"/>
     <use xlink:href="#DejaVuSans-Bold-3" transform="translate(350.484375 0)"/>
     <use xlink:href="#DejaVuSans-Bold-18" transform="translate(385.296875 0)"/>
     <use xlink:href="#DejaVuSans-Bold-3" transform="translate(454.875 0)"/>
     <use xlink:href="#DejaVuSans-Bold-ceb" transform="translate(489.6875 0)"/>
     <use xlink:href="#DejaVuSans-Bold-3" transform="translate(573.484375 0)"/>
     <use xlink:href="#DejaVuSans-Bold-13" transform="translate(608.296875 0)"/>
     <use xlink:href="#DejaVuSans-Bold-3" transform="translate(677.875 0)"/>
     <use xlink:href="#DejaVuSans-Bold-79" transform="translate(712.6875 0)"/>
     <use xlink:href="#DejaVuSans-Bold-3" transform="translate(750.671875 0)"/>
     <use xlink:href="#DejaVuSans-Bold-17" transform="translate(785.484375 0)"/>
     <use xlink:href="#LastResortHE-Regular-96" transform="translate(855.0625 0)"/>
    </g>
   </g>
   <g id="text_44">
    <!-- { 5, 10, 15, 20 } -->
    <g style="fill: #333333" transform="translate(528.325714 572.042539) scale(0.1 -0.1)">
     <use xlink:href="#DejaVuSans-5e"/>
     <use xlink:href="#DejaVuSans-3" transform="translate(63.625 0)"/>
     <use xlink:href="#DejaVuSans-18" transform="translate(95.40625 0)"/>
     <use xlink:href="#DejaVuSans-f" transform="translate(159.03125 0)"/>
     <use xlink:href="#DejaVuSans-3" transform="translate(190.8125 0)"/>
     <use xlink:href="#DejaVuSans-14" transform="translate(222.59375 0)"/>
     <use xlink:href="#DejaVuSans-13" transform="translate(286.21875 0)"/>
     <use xlink:href="#DejaVuSans-f" transform="translate(349.84375 0)"/>
     <use xlink:href="#DejaVuSans-3" transform="translate(381.625 0)"/>
     <use xlink:href="#DejaVuSans-14" transform="translate(413.40625 0)"/>
     <use xlink:href="#DejaVuSans-18" transform="translate(477.03125 0)"/>
     <use xlink:href="#DejaVuSans-f" transform="translate(540.65625 0)"/>
     <use xlink:href="#DejaVuSans-3" transform="translate(572.4375 0)"/>
     <use xlink:href="#DejaVuSans-15" transform="translate(604.21875 0)"/>
     <use xlink:href="#DejaVuSans-13" transform="translate(667.84375 0)"/>
     <use xlink:href="#DejaVuSans-3" transform="translate(731.46875 0)"/>
     <use xlink:href="#DejaVuSans-60" transform="translate(763.25 0)"/>
    </g>
   </g>
   <g id="text_45">
    <!-- 육각형별 검산 -->
    <g transform="translate(507.265714 618.0821) scale(0.14 -0.14)">
     <use xlink:href="#LastResortHE-Regular-96"/>
     <use xlink:href="#LastResortHE-Regular-96" transform="translate(114.75 0)"/>
     <use xlink:href="#LastResortHE-Regular-96" transform="translate(229.5 0)"/>
     <use xlink:href="#LastResortHE-Regular-96" transform="translate(344.25 0)"/>
     <use xlink:href="#DejaVuSans-Bold-3" transform="translate(459 0)"/>
     <use xlink:href="#LastResortHE-Regular-96" transform="translate(493.8125 0)"/>
     <use xlink:href="#LastResortHE-Regular-96" transform="translate(608.5625 0)"/>
    </g>
   </g>
   <g id="text_46">
    <!-- 상좌: 5 + 18 + 16 + 3 + 8 + 13 = 63 -->
    <g transform="translate(507.265714 650.195908) scale(0.097 -0.097)">
     <defs>
      <path id="DejaVuSans-e" d="M 2944 4013 
L 2944 2272 
L 4684 2272 
L 4684 1741 
L 2944 1741 
L 2944 0 
L 2419 0 
L 2419 1741 
L 678 1741 
L 678 2272 
L 2419 2272 
L 2419 4013 
L 2944 4013 
z
" transform="scale(0.015625)"/>
      <path id="DejaVuSans-20" d="M 678 2906 
L 4684 2906 
L 4684 2381 
L 678 2381 
L 678 2906 
z
M 678 1631 
L 4684 1631 
L 4684 1100 
L 678 1100 
L 678 1631 
z
" transform="scale(0.015625)"/>
     </defs>
     <use xlink:href="#LastResortHE-Regular-96"/>
     <use xlink:href="#LastResortHE-Regular-96" transform="translate(114.75 0)"/>
     <use xlink:href="#DejaVuSans-1d" transform="translate(229.5 0)"/>
     <use xlink:href="#DejaVuSans-3" transform="translate(263.1875 0)"/>
     <use xlink:href="#DejaVuSans-18" transform="translate(294.96875 0)"/>
     <use xlink:href="#DejaVuSans-3" transform="translate(358.59375 0)"/>
     <use xlink:href="#DejaVuSans-e" transform="translate(390.375 0)"/>
     <use xlink:href="#DejaVuSans-3" transform="translate(474.171875 0)"/>
     <use xlink:href="#DejaVuSans-14" transform="translate(505.953125 0)"/>
     <use xlink:href="#DejaVuSans-1b" transform="translate(569.578125 0)"/>
     <use xlink:href="#DejaVuSans-3" transform="translate(633.203125 0)"/>
     <use xlink:href="#DejaVuSans-e" transform="translate(664.984375 0)"/>
     <use xlink:href="#DejaVuSans-3" transform="translate(748.78125 0)"/>
     <use xlink:href="#DejaVuSans-14" transform="translate(780.5625 0)"/>
     <use xlink:href="#DejaVuSans-19" transform="translate(844.1875 0)"/>
     <use xlink:href="#DejaVuSans-3" transform="translate(907.8125 0)"/>
     <use xlink:href="#DejaVuSans-e" transform="translate(939.59375 0)"/>
     <use xlink:href="#DejaVuSans-3" transform="translate(1023.390625 0)"/>
     <use xlink:href="#DejaVuSans-16" transform="translate(1055.171875 0)"/>
     <use xlink:href="#DejaVuSans-3" transform="translate(1118.796875 0)"/>
     <use xlink:href="#DejaVuSans-e" transform="translate(1150.578125 0)"/>
     <use xlink:href="#DejaVuSans-3" transform="translate(1234.375 0)"/>
     <use xlink:href="#DejaVuSans-1b" transform="translate(1266.15625 0)"/>
     <use xlink:href="#DejaVuSans-3" transform="translate(1329.78125 0)"/>
     <use xlink:href="#DejaVuSans-e" transform="translate(1361.5625 0)"/>
     <use xlink:href="#DejaVuSans-3" transform="translate(1445.359375 0)"/>
     <use xlink:href="#DejaVuSans-14" transform="translate(1477.140625 0)"/>
     <use xlink:href="#DejaVuSans-16" transform="translate(1540.765625 0)"/>
     <use xlink:href="#DejaVuSans-3" transform="translate(1604.390625 0)"/>
     <use xlink:href="#DejaVuSans-20" transform="translate(1636.171875 0)"/>
     <use xlink:href="#DejaVuSans-3" transform="translate(1719.96875 0)"/>
     <use xlink:href="#DejaVuSans-19" transform="translate(1751.75 0)"/>
     <use xlink:href="#DejaVuSans-16" transform="translate(1815.375 0)"/>
    </g>
   </g>
   <g id="text_47">
    <!-- 상우: 1 + 13 + 8 + 14 + 20 + 7 = 63 -->
    <g transform="translate(507.265714 678.500548) scale(0.097 -0.097)">
     <use xlink:href="#LastResortHE-Regular-96"/>
     <use xlink:href="#LastResortHE-Regular-96" transform="translate(114.75 0)"/>
     <use xlink:href="#DejaVuSans-1d" transform="translate(229.5 0)"/>
     <use xlink:href="#DejaVuSans-3" transform="translate(263.1875 0)"/>
     <use xlink:href="#DejaVuSans-14" transform="translate(294.96875 0)"/>
     <use xlink:href="#DejaVuSans-3" transform="translate(358.59375 0)"/>
     <use xlink:href="#DejaVuSans-e" transform="translate(390.375 0)"/>
     <use xlink:href="#DejaVuSans-3" transform="translate(474.171875 0)"/>
     <use xlink:href="#DejaVuSans-14" transform="translate(505.953125 0)"/>
     <use xlink:href="#DejaVuSans-16" transform="translate(569.578125 0)"/>
     <use xlink:href="#DejaVuSans-3" transform="translate(633.203125 0)"/>
     <use xlink:href="#DejaVuSans-e" transform="translate(664.984375 0)"/>
     <use xlink:href="#DejaVuSans-3" transform="translate(748.78125 0)"/>
     <use xlink:href="#DejaVuSans-1b" transform="translate(780.5625 0)"/>
     <use xlink:href="#DejaVuSans-3" transform="translate(844.1875 0)"/>
     <use xlink:href="#DejaVuSans-e" transform="translate(875.96875 0)"/>
     <use xlink:href="#DejaVuSans-3" transform="translate(959.765625 0)"/>
     <use xlink:href="#DejaVuSans-14" transform="translate(991.546875 0)"/>
     <use xlink:href="#DejaVuSans-17" transform="translate(1055.171875 0)"/>
     <use xlink:href="#DejaVuSans-3" transform="translate(1118.796875 0)"/>
     <use xlink:href="#DejaVuSans-e" transform="translate(1150.578125 0)"/>
     <use xlink:href="#DejaVuSans-3" transform="translate(1234.375 0)"/>
     <use xlink:href="#DejaVuSans-15" transform="translate(1266.15625 0)"/>
     <use xlink:href="#DejaVuSans-13" transform="translate(1329.78125 0)"/>
     <use xlink:href="#DejaVuSans-3" transform="translate(1393.40625 0)"/>
     <use xlink:href="#DejaVuSans-e" transform="translate(1425.1875 0)"/>
     <use xlink:href="#DejaVuSans-3" transform="translate(1508.984375 0)"/>
     <use xlink:href="#DejaVuSans-1a" transform="translate(1540.765625 0)"/>
     <use xlink:href="#DejaVuSans-3" transform="translate(1604.390625 0)"/>
     <use xlink:href="#DejaVuSans-20" transform="translate(1636.171875 0)"/>
     <use xlink:href="#DejaVuSans-3" transform="translate(1719.96875 0)"/>
     <use xlink:href="#DejaVuSans-19" transform="translate(1751.75 0)"/>
     <use xlink:href="#DejaVuSans-16" transform="translate(1815.375 0)"/>
    </g>
   </g>
   <g id="text_48">
    <!-- 중앙: 3 + 8 + 14 + 15 + 11 + 12 = 63 -->
    <g transform="translate(507.265714 706.805188) scale(0.097 -0.097)">
     <use xlink:href="#LastResortHE-Regular-96"/>
     <use xlink:href="#LastResortHE-Regular-96" transform="translate(114.75 0)"/>
     <use xlink:href="#DejaVuSans-1d" transform="translate(229.5 0)"/>
     <use xlink:href="#DejaVuSans-3" transform="translate(263.1875 0)"/>
     <use xlink:href="#DejaVuSans-16" transform="translate(294.96875 0)"/>
     <use xlink:href="#DejaVuSans-3" transform="translate(358.59375 0)"/>
     <use xlink:href="#DejaVuSans-e" transform="translate(390.375 0)"/>
     <use xlink:href="#DejaVuSans-3" transform="translate(474.171875 0)"/>
     <use xlink:href="#DejaVuSans-1b" transform="translate(505.953125 0)"/>
     <use xlink:href="#DejaVuSans-3" transform="translate(569.578125 0)"/>
     <use xlink:href="#DejaVuSans-e" transform="translate(601.359375 0)"/>
     <use xlink:href="#DejaVuSans-3" transform="translate(685.15625 0)"/>
     <use xlink:href="#DejaVuSans-14" transform="translate(716.9375 0)"/>
     <use xlink:href="#DejaVuSans-17" transform="translate(780.5625 0)"/>
     <use xlink:href="#DejaVuSans-3" transform="translate(844.1875 0)"/>
     <use xlink:href="#DejaVuSans-e" transform="translate(875.96875 0)"/>
     <use xlink:href="#DejaVuSans-3" transform="translate(959.765625 0)"/>
     <use xlink:href="#DejaVuSans-14" transform="translate(991.546875 0)"/>
     <use xlink:href="#DejaVuSans-18" transform="translate(1055.171875 0)"/>
     <use xlink:href="#DejaVuSans-3" transform="translate(1118.796875 0)"/>
     <use xlink:href="#DejaVuSans-e" transform="translate(1150.578125 0)"/>
     <use xlink:href="#DejaVuSans-3" transform="translate(1234.375 0)"/>
     <use xlink:href="#DejaVuSans-14" transform="translate(1266.15625 0)"/>
     <use xlink:href="#DejaVuSans-14" transform="translate(1329.78125 0)"/>
     <use xlink:href="#DejaVuSans-3" transform="translate(1393.40625 0)"/>
     <use xlink:href="#DejaVuSans-e" transform="translate(1425.1875 0)"/>
     <use xlink:href="#DejaVuSans-3" transform="translate(1508.984375 0)"/>
     <use xlink:href="#DejaVuSans-14" transform="translate(1540.765625 0)"/>
     <use xlink:href="#DejaVuSans-15" transform="translate(1604.390625 0)"/>
     <use xlink:href="#DejaVuSans-3" transform="translate(1668.015625 0)"/>
     <use xlink:href="#DejaVuSans-20" transform="translate(1699.796875 0)"/>
     <use xlink:href="#DejaVuSans-3" transform="translate(1783.59375 0)"/>
     <use xlink:href="#DejaVuSans-19" transform="translate(1815.375 0)"/>
     <use xlink:href="#DejaVuSans-16" transform="translate(1879 0)"/>
    </g>
   </g>
   <g id="text_49">
    <!-- 하좌: 12 + 11 + 10 + 2 + 19 + 9 = 63 -->
    <g transform="translate(507.265714 735.109828) scale(0.097 -0.097)">
     <use xlink:href="#LastResortHE-Regular-96"/>
     <use xlink:href="#LastResortHE-Regular-96" transform="translate(114.75 0)"/>
     <use xlink:href="#DejaVuSans-1d" transform="translate(229.5 0)"/>
     <use xlink:href="#DejaVuSans-3" transform="translate(263.1875 0)"/>
     <use xlink:href="#DejaVuSans-14" transform="translate(294.96875 0)"/>
     <use xlink:href="#DejaVuSans-15" transform="translate(358.59375 0)"/>
     <use xlink:href="#DejaVuSans-3" transform="translate(422.21875 0)"/>
     <use xlink:href="#DejaVuSans-e" transform="translate(454 0)"/>
     <use xlink:href="#DejaVuSans-3" transform="translate(537.796875 0)"/>
     <use xlink:href="#DejaVuSans-14" transform="translate(569.578125 0)"/>
     <use xlink:href="#DejaVuSans-14" transform="translate(633.203125 0)"/>
     <use xlink:href="#DejaVuSans-3" transform="translate(696.828125 0)"/>
     <use xlink:href="#DejaVuSans-e" transform="translate(728.609375 0)"/>
     <use xlink:href="#DejaVuSans-3" transform="translate(812.40625 0)"/>
     <use xlink:href="#DejaVuSans-14" transform="translate(844.1875 0)"/>
     <use xlink:href="#DejaVuSans-13" transform="translate(907.8125 0)"/>
     <use xlink:href="#DejaVuSans-3" transform="translate(971.4375 0)"/>
     <use xlink:href="#DejaVuSans-e" transform="translate(1003.21875 0)"/>
     <use xlink:href="#DejaVuSans-3" transform="translate(1087.015625 0)"/>
     <use xlink:href="#DejaVuSans-15" transform="translate(1118.796875 0)"/>
     <use xlink:href="#DejaVuSans-3" transform="translate(1182.421875 0)"/>
     <use xlink:href="#DejaVuSans-e" transform="translate(1214.203125 0)"/>
     <use xlink:href="#DejaVuSans-3" transform="translate(1298 0)"/>
     <use xlink:href="#DejaVuSans-14" transform="translate(1329.78125 0)"/>
     <use xlink:href="#DejaVuSans-1c" transform="translate(1393.40625 0)"/>
     <use xlink:href="#DejaVuSans-3" transform="translate(1457.03125 0)"/>
     <use xlink:href="#DejaVuSans-e" transform="translate(1488.8125 0)"/>
     <use xlink:href="#DejaVuSans-3" transform="translate(1572.609375 0)"/>
     <use xlink:href="#DejaVuSans-1c" transform="translate(1604.390625 0)"/>
     <use xlink:href="#DejaVuSans-3" transform="translate(1668.015625 0)"/>
     <use xlink:href="#DejaVuSans-20" transform="translate(1699.796875 0)"/>
     <use xlink:href="#DejaVuSans-3" transform="translate(1783.59375 0)"/>
     <use xlink:href="#DejaVuSans-19" transform="translate(1815.375 0)"/>
     <use xlink:href="#DejaVuSans-16" transform="translate(1879 0)"/>
    </g>
   </g>
   <g id="text_50">
    <!-- 하우: 15 + 4 + 17 + 6 + 10 + 11 = 63 -->
    <g transform="translate(507.265714 763.414468) scale(0.097 -0.097)">
     <use xlink:href="#LastResortHE-Regular-96"/>
     <use xlink:href="#LastResortHE-Regular-96" transform="translate(114.75 0)"/>
     <use xlink:href="#DejaVuSans-1d" transform="translate(229.5 0)"/>
     <use xlink:href="#DejaVuSans-3" transform="translate(263.1875 0)"/>
     <use xlink:href="#DejaVuSans-14" transform="translate(294.96875 0)"/>
     <use xlink:href="#DejaVuSans-18" transform="translate(358.59375 0)"/>
     <use xlink:href="#DejaVuSans-3" transform="translate(422.21875 0)"/>
     <use xlink:href="#DejaVuSans-e" transform="translate(454 0)"/>
     <use xlink:href="#DejaVuSans-3" transform="translate(537.796875 0)"/>
     <use xlink:href="#DejaVuSans-17" transform="translate(569.578125 0)"/>
     <use xlink:href="#DejaVuSans-3" transform="translate(633.203125 0)"/>
     <use xlink:href="#DejaVuSans-e" transform="translate(664.984375 0)"/>
     <use xlink:href="#DejaVuSans-3" transform="translate(748.78125 0)"/>
     <use xlink:href="#DejaVuSans-14" transform="translate(780.5625 0)"/>
     <use xlink:href="#DejaVuSans-1a" transform="translate(844.1875 0)"/>
     <use xlink:href="#DejaVuSans-3" transform="translate(907.8125 0)"/>
     <use xlink:href="#DejaVuSans-e" transform="translate(939.59375 0)"/>
     <use xlink:href="#DejaVuSans-3" transform="translate(1023.390625 0)"/>
     <use xlink:href="#DejaVuSans-19" transform="translate(1055.171875 0)"/>
     <use xlink:href="#DejaVuSans-3" transform="translate(1118.796875 0)"/>
     <use xlink:href="#DejaVuSans-e" transform="translate(1150.578125 0)"/>
     <use xlink:href="#DejaVuSans-3" transform="translate(1234.375 0)"/>
     <use xlink:href="#DejaVuSans-14" transform="translate(1266.15625 0)"/>
     <use xlink:href="#DejaVuSans-13" transform="translate(1329.78125 0)"/>
     <use xlink:href="#DejaVuSans-3" transform="translate(1393.40625 0)"/>
     <use xlink:href="#DejaVuSans-e" transform="translate(1425.1875 0)"/>
     <use xlink:href="#DejaVuSans-3" transform="translate(1508.984375 0)"/>
     <use xlink:href="#DejaVuSans-14" transform="translate(1540.765625 0)"/>
     <use xlink:href="#DejaVuSans-14" transform="translate(1604.390625 0)"/>
     <use xlink:href="#DejaVuSans-3" transform="translate(1668.015625 0)"/>
     <use xlink:href="#DejaVuSans-20" transform="translate(1699.796875 0)"/>
     <use xlink:href="#DejaVuSans-3" transform="translate(1783.59375 0)"/>
     <use xlink:href="#DejaVuSans-19" transform="translate(1815.375 0)"/>
     <use xlink:href="#DejaVuSans-16" transform="translate(1879 0)"/>
    </g>
   </g>
  </g>
 </g>
 <defs>
  <clipPath id="p8df59d70ee">
   <rect x="8.64" y="40.315781" width="358.251429" height="557.28"/>
  </clipPath>
  <clipPath id="paba3e089a2">
   <rect x="507.265714" y="46.795781" width="234" height="544.32"/>
  </clipPath>
 </defs>
</svg>
