<?xml version="1.0" encoding="utf-8" standalone="no"?>
<!DOCTYPE svg PUBLIC "-//W3C//DTD SVG 1.1//EN"
  "http://www.w3.org/Graphics/SVG/1.1/DTD/svg11.dtd">
<svg xmlns:xlink="http://www.w3.org/1999/xlink" width="799.638261pt" height="551.606875pt" viewBox="0 0 799.638261 551.606875" xmlns="http://www.w3.org/2000/svg" version="1.1">
 <metadata>
  <rdf:RDF xmlns:dc="http://purl.org/dc/elements/1.1/" xmlns:cc="http://creativecommons.org/ns#" xmlns:rdf="http://www.w3.org/1999/02/22-rdf-syntax-ns#">
   <cc:Work>
    <dc:type rdf:resource="http://purl.org/dc/dcmitype/StillImage"/>
    <dc:date>2026-07-11T02:01:17.399311</dc:date>
    <dc:format>image/svg+xml</dc:format>
    <dc:creator>
     <cc:Agent>
      <dc:title>Matplotlib v3.10.1+dfsg1, https://matplotlib.org/</dc:title>
     </cc:Agent>
    </dc:creator>
   </cc:Work>
  </rdf:RDF>
 </metadata>
 <defs>
  <style type="text/css">*{stroke-linejoin: round; stroke-linecap: butt}</style>
 </defs>
 <g id="figure_1">
  <g id="patch_1">
   <path d="M 0 551.606875 
L 799.638261 551.606875 
L 799.638261 -0 
L 0 -0 
z
" style="fill: #ffffff"/>
  </g>
  <g id="axes_1">
   <g id="patch_2">
    <path d="M 282.678261 102.539745 
C 288.230645 102.539745 293.556366 100.333759 297.482494 96.40763 
C 301.408623 92.481502 303.614609 87.155781 303.614609 81.603397 
C 303.614609 76.051012 301.408623 70.725292 297.482494 66.799163 
C 293.556366 62.873035 288.230645 60.667049 282.678261 60.667049 
C 277.125877 60.667049 271.800156 62.873035 267.874027 66.799163 
C 263.947899 70.725292 261.741913 76.051012 261.741913 81.603397 
C 261.741913 87.155781 263.947899 92.481502 267.874027 96.40763 
C 271.800156 100.333759 277.125877 102.539745 282.678261 102.539745 
z
" clip-path="url(#pe2046af89a)" style="fill: #e5e5e5; stroke: #666666; stroke-width: 2.1; stroke-linejoin: miter"/>
   </g>
   <g id="patch_3">
    <path d="M 200.034783 157.635397 
C 205.587167 157.635397 210.912888 155.429411 214.839016 151.503282 
C 218.765145 147.577154 220.97113 142.251433 220.97113 136.699049 
C 220.97113 131.146665 218.765145 125.820944 214.839016 121.894815 
C 210.912888 117.968687 205.587167 115.762701 200.034783 115.762701 
C 194.482398 115.762701 189.156678 117.968687 185.230549 121.894815 
C 181.30442 125.820944 179.098435 131.146665 179.098435 136.699049 
C 179.098435 142.251433 181.30442 147.577154 185.230549 151.503282 
C 189.156678 155.429411 194.482398 157.635397 200.034783 157.635397 
z
" clip-path="url(#pe2046af89a)" style="fill: #f4d0d0; stroke: #b33b3b; stroke-width: 2.1; stroke-linejoin: miter"/>
   </g>
   <g id="patch_4">
    <path d="M 365.321739 157.635397 
C 370.874123 157.635397 376.199844 155.429411 380.125973 151.503282 
C 384.052101 147.577154 386.258087 142.251433 386.258087 136.699049 
C 386.258087 131.146665 384.052101 125.820944 380.125973 121.894815 
C 376.199844 117.968687 370.874123 115.762701 365.321739 115.762701 
C 359.769355 115.762701 354.443634 117.968687 350.517506 121.894815 
C 346.591377 125.820944 344.385391 131.146665 344.385391 136.699049 
C 344.385391 142.251433 346.591377 147.577154 350.517506 151.503282 
C 354.443634 155.429411 359.769355 157.635397 365.321739 157.635397 
z
" clip-path="url(#pe2046af89a)" style="fill: #d4e4f8; stroke: #3a6fae; stroke-width: 2.1; stroke-linejoin: miter"/>
   </g>
   <g id="patch_5">
    <path d="M 282.678261 201.711918 
C 288.230645 201.711918 293.556366 199.505933 297.482494 195.579804 
C 301.408623 191.653676 303.614609 186.327955 303.614609 180.775571 
C 303.614609 175.223186 301.408623 169.897466 297.482494 165.971337 
C 293.556366 162.045209 288.230645 159.839223 282.678261 159.839223 
C 277.125877 159.839223 271.800156 162.045209 267.874027 165.971337 
C 263.947899 169.897466 261.741913 175.223186 261.741913 180.775571 
C 261.741913 186.327955 263.947899 191.653676 267.874027 195.579804 
C 271.800156 199.505933 277.125877 201.711918 282.678261 201.711918 
z
" clip-path="url(#pe2046af89a)" style="fill: #e0e0e0; stroke: #333333; stroke-width: 2.1; stroke-linejoin: miter"/>
   </g>
   <g id="patch_6">
    <path d="M 128.410435 251.298005 
C 133.962819 251.298005 139.28854 249.09202 143.214668 245.165891 
C 147.140797 241.239763 149.346783 235.914042 149.346783 230.361658 
C 149.346783 224.809273 147.140797 219.483553 143.214668 215.557424 
C 139.28854 211.631295 133.962819 209.42531 128.410435 209.42531 
C 122.85805 209.42531 117.53233 211.631295 113.606201 215.557424 
C 109.680073 219.483553 107.474087 224.809273 107.474087 230.361658 
C 107.474087 235.914042 109.680073 241.239763 113.606201 245.165891 
C 117.53233 249.09202 122.85805 251.298005 128.410435 251.298005 
z
" clip-path="url(#pe2046af89a)" style="fill: #e5e5e5; stroke: #666666; stroke-width: 2.1; stroke-linejoin: miter"/>
   </g>
   <g id="patch_7">
    <path d="M 282.678261 251.298005 
C 288.230645 251.298005 293.556366 249.09202 297.482494 245.165891 
C 301.408623 241.239763 303.614609 235.914042 303.614609 230.361658 
C 303.614609 224.809273 301.408623 219.483553 297.482494 215.557424 
C 293.556366 211.631295 288.230645 209.42531 282.678261 209.42531 
C 277.125877 209.42531 271.800156 211.631295 267.874027 215.557424 
C 263.947899 219.483553 261.741913 224.809273 261.741913 230.361658 
C 261.741913 235.914042 263.947899 241.239763 267.874027 245.165891 
C 271.800156 249.09202 277.125877 251.298005 282.678261 251.298005 
z
" clip-path="url(#pe2046af89a)" style="fill: #f6e5a3; stroke: #c39a00; stroke-width: 2.1; stroke-linejoin: miter"/>
   </g>
   <g id="patch_8">
    <path d="M 436.946087 251.298005 
C 442.498471 251.298005 447.824192 249.09202 451.75032 245.165891 
C 455.676449 241.239763 457.882435 235.914042 457.882435 230.361658 
C 457.882435 224.809273 455.676449 219.483553 451.75032 215.557424 
C 447.824192 211.631295 442.498471 209.42531 436.946087 209.42531 
C 431.393703 209.42531 426.067982 211.631295 422.141853 215.557424 
C 418.215725 219.483553 416.009739 224.809273 416.009739 230.361658 
C 416.009739 235.914042 418.215725 241.239763 422.141853 245.165891 
C 426.067982 249.09202 431.393703 251.298005 436.946087 251.298005 
z
" clip-path="url(#pe2046af89a)" style="fill: #f4d0d0; stroke: #b33b3b; stroke-width: 2.1; stroke-linejoin: miter"/>
   </g>
   <g id="patch_9">
    <path d="M 51.276522 322.922353 
C 56.828906 322.922353 62.154627 320.716368 66.080755 316.790239 
C 70.006884 312.86411 72.21287 307.53839 72.21287 301.986005 
C 72.21287 296.433621 70.006884 291.107901 66.080755 287.181772 
C 62.154627 283.255643 56.828906 281.049658 51.276522 281.049658 
C 45.724137 281.049658 40.398417 283.255643 36.472288 287.181772 
C 32.54616 291.107901 30.340174 296.433621 30.340174 301.986005 
C 30.340174 307.53839 32.54616 312.86411 36.472288 316.790239 
C 40.398417 320.716368 45.724137 322.922353 51.276522 322.922353 
z
" clip-path="url(#pe2046af89a)" style="fill: #e0e0e0; stroke: #333333; stroke-width: 2.1; stroke-linejoin: miter"/>
   </g>
   <g id="patch_10">
    <path d="M 128.410435 322.922353 
C 133.962819 322.922353 139.28854 320.716368 143.214668 316.790239 
C 147.140797 312.86411 149.346783 307.53839 149.346783 301.986005 
C 149.346783 296.433621 147.140797 291.107901 143.214668 287.181772 
C 139.28854 283.255643 133.962819 281.049658 128.410435 281.049658 
C 122.85805 281.049658 117.53233 283.255643 113.606201 287.181772 
C 109.680073 291.107901 107.474087 296.433621 107.474087 301.986005 
C 107.474087 307.53839 109.680073 312.86411 113.606201 316.790239 
C 117.53233 320.716368 122.85805 322.922353 128.410435 322.922353 
z
" clip-path="url(#pe2046af89a)" style="fill: #d4e4f8; stroke: #3a6fae; stroke-width: 2.1; stroke-linejoin: miter"/>
   </g>
   <g id="patch_11">
    <path d="M 205.544348 322.922353 
C 211.096732 322.922353 216.422453 320.716368 220.348581 316.790239 
C 224.27471 312.86411 226.480696 307.53839 226.480696 301.986005 
C 226.480696 296.433621 224.27471 291.107901 220.348581 287.181772 
C 216.422453 283.255643 211.096732 281.049658 205.544348 281.049658 
C 199.991963 281.049658 194.666243 283.255643 190.740114 287.181772 
C 186.813986 291.107901 184.608 296.433621 184.608 301.986005 
C 184.608 307.53839 186.813986 312.86411 190.740114 316.790239 
C 194.666243 320.716368 199.991963 322.922353 205.544348 322.922353 
z
" clip-path="url(#pe2046af89a)" style="fill: #e0e0e0; stroke: #333333; stroke-width: 2.1; stroke-linejoin: miter"/>
   </g>
   <g id="patch_12">
    <path d="M 282.678261 322.922353 
C 288.230645 322.922353 293.556366 320.716368 297.482494 316.790239 
C 301.408623 312.86411 303.614609 307.53839 303.614609 301.986005 
C 303.614609 296.433621 301.408623 291.107901 297.482494 287.181772 
C 293.556366 283.255643 288.230645 281.049658 282.678261 281.049658 
C 277.125877 281.049658 271.800156 283.255643 267.874027 287.181772 
C 263.947899 291.107901 261.741913 296.433621 261.741913 301.986005 
C 261.741913 307.53839 263.947899 312.86411 267.874027 316.790239 
C 271.800156 320.716368 277.125877 322.922353 282.678261 322.922353 
z
" clip-path="url(#pe2046af89a)" style="fill: #f6e5a3; stroke: #c39a00; stroke-width: 2.1; stroke-linejoin: miter"/>
   </g>
   <g id="patch_13">
    <path d="M 359.812174 322.922353 
C 365.364558 322.922353 370.690279 320.716368 374.616407 316.790239 
C 378.542536 312.86411 380.748522 307.53839 380.748522 301.986005 
C 380.748522 296.433621 378.542536 291.107901 374.616407 287.181772 
C 370.690279 283.255643 365.364558 281.049658 359.812174 281.049658 
C 354.25979 281.049658 348.934069 283.255643 345.00794 287.181772 
C 341.081812 291.107901 338.875826 296.433621 338.875826 301.986005 
C 338.875826 307.53839 341.081812 312.86411 345.00794 316.790239 
C 348.934069 320.716368 354.25979 322.922353 359.812174 322.922353 
z
" clip-path="url(#pe2046af89a)" style="fill: #f6e5a3; stroke: #c39a00; stroke-width: 2.1; stroke-linejoin: miter"/>
   </g>
   <g id="patch_14">
    <path d="M 436.946087 322.922353 
C 442.498471 322.922353 447.824192 320.716368 451.75032 316.790239 
C 455.676449 312.86411 457.882435 307.53839 457.882435 301.986005 
C 457.882435 296.433621 455.676449 291.107901 451.75032 287.181772 
C 447.824192 283.255643 442.498471 281.049658 436.946087 281.049658 
C 431.393703 281.049658 426.067982 283.255643 422.141853 287.181772 
C 418.215725 291.107901 416.009739 296.433621 416.009739 301.986005 
C 416.009739 307.53839 418.215725 312.86411 422.141853 316.790239 
C 426.067982 320.716368 431.393703 322.922353 436.946087 322.922353 
z
" clip-path="url(#pe2046af89a)" style="fill: #e5e5e5; stroke: #666666; stroke-width: 2.1; stroke-linejoin: miter"/>
   </g>
   <g id="patch_15">
    <path d="M 514.08 322.922353 
C 519.632384 322.922353 524.958105 320.716368 528.884234 316.790239 
C 532.810362 312.86411 535.016348 307.53839 535.016348 301.986005 
C 535.016348 296.433621 532.810362 291.107901 528.884234 287.181772 
C 524.958105 283.255643 519.632384 281.049658 514.08 281.049658 
C 508.527616 281.049658 503.201895 283.255643 499.275766 287.181772 
C 495.349638 291.107901 493.143652 296.433621 493.143652 301.986005 
C 493.143652 307.53839 495.349638 312.86411 499.275766 316.790239 
C 503.201895 320.716368 508.527616 322.922353 514.08 322.922353 
z
" clip-path="url(#pe2046af89a)" style="fill: #d4e4f8; stroke: #3a6fae; stroke-width: 2.1; stroke-linejoin: miter"/>
   </g>
   <g id="patch_16">
    <path d="M 128.410435 389.037136 
C 133.962819 389.037136 139.28854 386.83115 143.214668 382.905022 
C 147.140797 378.978893 149.346783 373.653172 149.346783 368.100788 
C 149.346783 362.548404 147.140797 357.222683 143.214668 353.296555 
C 139.28854 349.370426 133.962819 347.16444 128.410435 347.16444 
C 122.85805 347.16444 117.53233 349.370426 113.606201 353.296555 
C 109.680073 357.222683 107.474087 362.548404 107.474087 368.100788 
C 107.474087 373.653172 109.680073 378.978893 113.606201 382.905022 
C 117.53233 386.83115 122.85805 389.037136 128.410435 389.037136 
z
" clip-path="url(#pe2046af89a)" style="fill: #e0e0e0; stroke: #333333; stroke-width: 2.1; stroke-linejoin: miter"/>
   </g>
   <g id="patch_17">
    <path d="M 282.678261 389.037136 
C 288.230645 389.037136 293.556366 386.83115 297.482494 382.905022 
C 301.408623 378.978893 303.614609 373.653172 303.614609 368.100788 
C 303.614609 362.548404 301.408623 357.222683 297.482494 353.296555 
C 293.556366 349.370426 288.230645 347.16444 282.678261 347.16444 
C 277.125877 347.16444 271.800156 349.370426 267.874027 353.296555 
C 263.947899 357.222683 261.741913 362.548404 261.741913 368.100788 
C 261.741913 373.653172 263.947899 378.978893 267.874027 382.905022 
C 271.800156 386.83115 277.125877 389.037136 282.678261 389.037136 
z
" clip-path="url(#pe2046af89a)" style="fill: #e5e5e5; stroke: #666666; stroke-width: 2.1; stroke-linejoin: miter"/>
   </g>
   <g id="patch_18">
    <path d="M 436.946087 389.037136 
C 442.498471 389.037136 447.824192 386.83115 451.75032 382.905022 
C 455.676449 378.978893 457.882435 373.653172 457.882435 368.100788 
C 457.882435 362.548404 455.676449 357.222683 451.75032 353.296555 
C 447.824192 349.370426 442.498471 347.16444 436.946087 347.16444 
C 431.393703 347.16444 426.067982 349.370426 422.141853 353.296555 
C 418.215725 357.222683 416.009739 362.548404 416.009739 368.100788 
C 416.009739 373.653172 418.215725 378.978893 422.141853 382.905022 
C 426.067982 386.83115 431.393703 389.037136 436.946087 389.037136 
z
" clip-path="url(#pe2046af89a)" style="fill: #e0e0e0; stroke: #333333; stroke-width: 2.1; stroke-linejoin: miter"/>
   </g>
   <g id="patch_19">
    <path d="M 183.506087 455.151918 
C 189.058471 455.151918 194.384192 452.945933 198.31032 449.019804 
C 202.236449 445.093676 204.442435 439.767955 204.442435 434.215571 
C 204.442435 428.663186 202.236449 423.337466 198.31032 419.411337 
C 194.384192 415.485209 189.058471 413.279223 183.506087 413.279223 
C 177.953703 413.279223 172.627982 415.485209 168.701853 419.411337 
C 164.775725 423.337466 162.569739 428.663186 162.569739 434.215571 
C 162.569739 439.767955 164.775725 445.093676 168.701853 449.019804 
C 172.627982 452.945933 177.953703 455.151918 183.506087 455.151918 
z
" clip-path="url(#pe2046af89a)" style="fill: #e5e5e5; stroke: #666666; stroke-width: 2.1; stroke-linejoin: miter"/>
   </g>
   <g id="patch_20">
    <path d="M 282.678261 455.151918 
C 288.230645 455.151918 293.556366 452.945933 297.482494 449.019804 
C 301.408623 445.093676 303.614609 439.767955 303.614609 434.215571 
C 303.614609 428.663186 301.408623 423.337466 297.482494 419.411337 
C 293.556366 415.485209 288.230645 413.279223 282.678261 413.279223 
C 277.125877 413.279223 271.800156 415.485209 267.874027 419.411337 
C 263.947899 423.337466 261.741913 428.663186 261.741913 434.215571 
C 261.741913 439.767955 263.947899 445.093676 267.874027 449.019804 
C 271.800156 452.945933 277.125877 455.151918 282.678261 455.151918 
z
" clip-path="url(#pe2046af89a)" style="fill: #f4d0d0; stroke: #b33b3b; stroke-width: 2.1; stroke-linejoin: miter"/>
   </g>
   <g id="patch_21">
    <path d="M 381.850435 455.151918 
C 387.402819 455.151918 392.72854 452.945933 396.654668 449.019804 
C 400.580797 445.093676 402.786783 439.767955 402.786783 434.215571 
C 402.786783 428.663186 400.580797 423.337466 396.654668 419.411337 
C 392.72854 415.485209 387.402819 413.279223 381.850435 413.279223 
C 376.29805 413.279223 370.97233 415.485209 367.046201 419.411337 
C 363.120073 423.337466 360.914087 428.663186 360.914087 434.215571 
C 360.914087 439.767955 363.120073 445.093676 367.046201 449.019804 
C 370.97233 452.945933 376.29805 455.151918 381.850435 455.151918 
z
" clip-path="url(#pe2046af89a)" style="fill: #d4e4f8; stroke: #3a6fae; stroke-width: 2.1; stroke-linejoin: miter"/>
   </g>
   <g id="patch_22">
    <path d="M 282.678261 526.776266 
C 288.230645 526.776266 293.556366 524.570281 297.482494 520.644152 
C 301.408623 516.718023 303.614609 511.392303 303.614609 505.839918 
C 303.614609 500.287534 301.408623 494.961814 297.482494 491.035685 
C 293.556366 487.109556 288.230645 484.903571 282.678261 484.903571 
C 277.125877 484.903571 271.800156 487.109556 267.874027 491.035685 
C 263.947899 494.961814 261.741913 500.287534 261.741913 505.839918 
C 261.741913 511.392303 263.947899 516.718023 267.874027 520.644152 
C 271.800156 524.570281 277.125877 526.776266 282.678261 526.776266 
z
" clip-path="url(#pe2046af89a)" style="fill: #f4d0d0; stroke: #b33b3b; stroke-width: 2.1; stroke-linejoin: miter"/>
   </g>
   <g id="text_1">
    <!-- 19 -->
    <g style="fill: #222222" transform="translate(274.353261 85.854959) scale(0.15 -0.15)">
     <defs>
      <path id="NotoSansCJKjp-Regular-31" d="M 563 0 
L 3136 0 
L 3136 486 
L 2195 486 
L 2195 4691 
L 1747 4691 
C 1491 4544 1190 4435 774 4358 
L 774 3987 
L 1613 3987 
L 1613 486 
L 563 486 
L 563 0 
z
" transform="scale(0.015625)"/>
      <path id="NotoSansCJKjp-Regular-39" d="M 1504 -83 
C 2381 -83 3206 646 3206 2547 
C 3206 4038 2528 4774 1626 4774 
C 896 4774 282 4166 282 3251 
C 282 2285 794 1779 1574 1779 
C 1965 1779 2368 2003 2656 2349 
C 2611 896 2086 403 1485 403 
C 1178 403 896 538 691 762 
L 371 397 
C 634 122 992 -83 1504 -83 
z
M 2650 2842 
C 2336 2394 1984 2214 1670 2214 
C 1114 2214 832 2624 832 3251 
C 832 3898 1178 4320 1632 4320 
C 2227 4320 2586 3808 2650 2842 
z
" transform="scale(0.015625)"/>
     </defs>
     <use xlink:href="#NotoSansCJKjp-Regular-31"/>
     <use xlink:href="#NotoSansCJKjp-Regular-39" transform="translate(55.499985 0)"/>
    </g>
   </g>
   <g id="text_2">
    <!-- 12 -->
    <g style="fill: #7a2020" transform="translate(191.709783 140.950611) scale(0.15 -0.15)">
     <defs>
      <path id="NotoSansCJKjp-Regular-32" d="M 282 0 
L 3232 0 
L 3232 506 
L 1933 506 
C 1696 506 1408 480 1165 461 
C 2266 1504 3008 2458 3008 3398 
C 3008 4230 2477 4774 1638 4774 
C 1043 4774 634 4506 256 4090 
L 595 3757 
C 858 4070 1184 4301 1568 4301 
C 2150 4301 2432 3910 2432 3373 
C 2432 2566 1754 1632 282 346 
L 282 0 
z
" transform="scale(0.015625)"/>
     </defs>
     <use xlink:href="#NotoSansCJKjp-Regular-31"/>
     <use xlink:href="#NotoSansCJKjp-Regular-32" transform="translate(55.499985 0)"/>
    </g>
   </g>
   <g id="text_3">
    <!-- 8 -->
    <g style="fill: #244e80" transform="translate(361.159239 140.950611) scale(0.15 -0.15)">
     <defs>
      <path id="NotoSansCJKjp-Regular-38" d="M 1792 -83 
C 2669 -83 3258 448 3258 1126 
C 3258 1773 2880 2125 2470 2362 
L 2470 2394 
C 2746 2611 3091 3034 3091 3526 
C 3091 4250 2605 4762 1805 4762 
C 1075 4762 518 4282 518 3571 
C 518 3078 813 2726 1152 2490 
L 1152 2464 
C 723 2234 294 1792 294 1165 
C 294 442 922 -83 1792 -83 
z
M 2112 2547 
C 1555 2765 1050 3014 1050 3571 
C 1050 4026 1363 4326 1798 4326 
C 2298 4326 2592 3962 2592 3494 
C 2592 3149 2426 2829 2112 2547 
z
M 1798 352 
C 1235 352 813 717 813 1216 
C 813 1664 1082 2035 1459 2278 
C 2125 2010 2701 1779 2701 1146 
C 2701 678 2342 352 1798 352 
z
" transform="scale(0.015625)"/>
     </defs>
     <use xlink:href="#NotoSansCJKjp-Regular-38"/>
    </g>
   </g>
   <g id="text_4">
    <!-- 6 -->
    <g style="fill: #111111" transform="translate(278.515761 185.027133) scale(0.15 -0.15)">
     <defs>
      <path id="NotoSansCJKjp-Regular-36" d="M 1926 -83 
C 2656 -83 3277 531 3277 1440 
C 3277 2426 2765 2912 1971 2912 
C 1606 2912 1197 2701 909 2349 
C 934 3802 1466 4294 2118 4294 
C 2400 4294 2682 4154 2861 3936 
L 3194 4294 
C 2931 4576 2579 4774 2093 4774 
C 1184 4774 358 4077 358 2240 
C 358 691 1030 -83 1926 -83 
z
M 922 1882 
C 1229 2317 1587 2477 1875 2477 
C 2445 2477 2720 2074 2720 1440 
C 2720 800 2374 378 1926 378 
C 1338 378 986 909 922 1882 
z
" transform="scale(0.015625)"/>
     </defs>
     <use xlink:href="#NotoSansCJKjp-Regular-36"/>
    </g>
   </g>
   <g id="text_5">
    <!-- 4 -->
    <g style="fill: #222222" transform="translate(124.247935 234.61322) scale(0.15 -0.15)">
     <defs>
      <path id="NotoSansCJKjp-Regular-34" d="M 2176 0 
L 2726 0 
L 2726 1293 
L 3354 1293 
L 3354 1760 
L 2726 1760 
L 2726 4691 
L 2080 4691 
L 128 1677 
L 128 1293 
L 2176 1293 
L 2176 0 
z
M 2176 1760 
L 736 1760 
L 1805 3360 
C 1939 3590 2067 3827 2182 4051 
L 2208 4051 
C 2195 3814 2176 3430 2176 3200 
L 2176 1760 
z
" transform="scale(0.015625)"/>
     </defs>
     <use xlink:href="#NotoSansCJKjp-Regular-34"/>
    </g>
   </g>
   <g id="text_6">
    <!-- 20 -->
    <g style="fill: #735700" transform="translate(274.353261 234.61322) scale(0.15 -0.15)">
     <defs>
      <path id="NotoSansCJKjp-Regular-30" d="M 1779 -83 
C 2669 -83 3238 723 3238 2362 
C 3238 3987 2669 4774 1779 4774 
C 883 4774 320 3987 320 2362 
C 320 723 883 -83 1779 -83 
z
M 1779 390 
C 1248 390 883 986 883 2362 
C 883 3731 1248 4314 1779 4314 
C 2310 4314 2675 3731 2675 2362 
C 2675 986 2310 390 1779 390 
z
" transform="scale(0.015625)"/>
     </defs>
     <use xlink:href="#NotoSansCJKjp-Regular-32"/>
     <use xlink:href="#NotoSansCJKjp-Regular-30" transform="translate(55.499985 0)"/>
    </g>
   </g>
   <g id="text_7">
    <!-- 7 -->
    <g style="fill: #7a2020" transform="translate(432.783587 234.61322) scale(0.15 -0.15)">
     <defs>
      <path id="NotoSansCJKjp-Regular-37" d="M 1267 0 
L 1875 0 
C 1952 1837 2150 2931 3251 4339 
L 3251 4691 
L 314 4691 
L 314 4192 
L 2592 4192 
C 1670 2912 1350 1779 1267 0 
z
" transform="scale(0.015625)"/>
     </defs>
     <use xlink:href="#NotoSansCJKjp-Regular-37"/>
    </g>
   </g>
   <g id="text_8">
    <!-- 21 -->
    <g style="fill: #111111" transform="translate(42.951522 306.237568) scale(0.15 -0.15)">
     <use xlink:href="#NotoSansCJKjp-Regular-32"/>
     <use xlink:href="#NotoSansCJKjp-Regular-31" transform="translate(55.499985 0)"/>
    </g>
   </g>
   <g id="text_9">
    <!-- 23 -->
    <g style="fill: #244e80" transform="translate(120.085435 306.237568) scale(0.15 -0.15)">
     <defs>
      <path id="NotoSansCJKjp-Regular-33" d="M 1683 -83 
C 2522 -83 3194 416 3194 1254 
C 3194 1901 2752 2310 2202 2445 
L 2202 2477 
C 2701 2650 3034 3034 3034 3603 
C 3034 4346 2458 4774 1664 4774 
C 1126 4774 710 4538 358 4218 
L 672 3846 
C 941 4115 1267 4301 1645 4301 
C 2138 4301 2438 4006 2438 3558 
C 2438 3053 2112 2662 1139 2662 
L 1139 2214 
C 2227 2214 2598 1843 2598 1274 
C 2598 736 2208 403 1645 403 
C 1114 403 762 659 486 941 
L 186 563 
C 493 224 954 -83 1683 -83 
z
" transform="scale(0.015625)"/>
     </defs>
     <use xlink:href="#NotoSansCJKjp-Regular-32"/>
     <use xlink:href="#NotoSansCJKjp-Regular-33" transform="translate(55.499985 0)"/>
    </g>
   </g>
   <g id="text_10">
    <!-- 1 -->
    <g style="fill: #111111" transform="translate(201.381848 306.237568) scale(0.15 -0.15)">
     <use xlink:href="#NotoSansCJKjp-Regular-31"/>
    </g>
   </g>
   <g id="text_11">
    <!-- 5 -->
    <g style="fill: #735700" transform="translate(278.515761 306.237568) scale(0.15 -0.15)">
     <defs>
      <path id="NotoSansCJKjp-Regular-35" d="M 1677 -83 
C 2464 -83 3213 499 3213 1523 
C 3213 2560 2573 3021 1798 3021 
C 1517 3021 1306 2950 1094 2835 
L 1216 4192 
L 2982 4192 
L 2982 4691 
L 704 4691 
L 550 2502 
L 864 2304 
C 1133 2483 1331 2579 1645 2579 
C 2234 2579 2618 2182 2618 1510 
C 2618 826 2176 403 1619 403 
C 1075 403 730 653 467 922 
L 173 538 
C 493 224 941 -83 1677 -83 
z
" transform="scale(0.015625)"/>
     </defs>
     <use xlink:href="#NotoSansCJKjp-Regular-35"/>
    </g>
   </g>
   <g id="text_12">
    <!-- 15 -->
    <g style="fill: #735700" transform="translate(351.487174 306.237568) scale(0.15 -0.15)">
     <use xlink:href="#NotoSansCJKjp-Regular-31"/>
     <use xlink:href="#NotoSansCJKjp-Regular-35" transform="translate(55.499985 0)"/>
    </g>
   </g>
   <g id="text_13">
    <!-- 14 -->
    <g style="fill: #222222" transform="translate(428.621087 306.237568) scale(0.15 -0.15)">
     <use xlink:href="#NotoSansCJKjp-Regular-31"/>
     <use xlink:href="#NotoSansCJKjp-Regular-34" transform="translate(55.499985 0)"/>
    </g>
   </g>
   <g id="text_14">
    <!-- 18 -->
    <g style="fill: #244e80" transform="translate(505.755 306.237568) scale(0.15 -0.15)">
     <use xlink:href="#NotoSansCJKjp-Regular-31"/>
     <use xlink:href="#NotoSansCJKjp-Regular-38" transform="translate(55.499985 0)"/>
    </g>
   </g>
   <g id="text_15">
    <!-- 16 -->
    <g style="fill: #111111" transform="translate(120.085435 372.352351) scale(0.15 -0.15)">
     <use xlink:href="#NotoSansCJKjp-Regular-31"/>
     <use xlink:href="#NotoSansCJKjp-Regular-36" transform="translate(55.499985 0)"/>
    </g>
   </g>
   <g id="text_16">
    <!-- 24 -->
    <g style="fill: #222222" transform="translate(274.353261 372.352351) scale(0.15 -0.15)">
     <use xlink:href="#NotoSansCJKjp-Regular-32"/>
     <use xlink:href="#NotoSansCJKjp-Regular-34" transform="translate(55.499985 0)"/>
    </g>
   </g>
   <g id="text_17">
    <!-- 11 -->
    <g style="fill: #111111" transform="translate(428.621087 372.352351) scale(0.15 -0.15)">
     <use xlink:href="#NotoSansCJKjp-Regular-31"/>
     <use xlink:href="#NotoSansCJKjp-Regular-31" transform="translate(55.499985 0)"/>
    </g>
   </g>
   <g id="text_18">
    <!-- 9 -->
    <g style="fill: #222222" transform="translate(179.343587 438.467133) scale(0.15 -0.15)">
     <use xlink:href="#NotoSansCJKjp-Regular-39"/>
    </g>
   </g>
   <g id="text_19">
    <!-- 17 -->
    <g style="fill: #7a2020" transform="translate(274.353261 438.467133) scale(0.15 -0.15)">
     <use xlink:href="#NotoSansCJKjp-Regular-31"/>
     <use xlink:href="#NotoSansCJKjp-Regular-37" transform="translate(55.499985 0)"/>
    </g>
   </g>
   <g id="text_20">
    <!-- 13 -->
    <g style="fill: #244e80" transform="translate(373.525435 438.467133) scale(0.15 -0.15)">
     <use xlink:href="#NotoSansCJKjp-Regular-31"/>
     <use xlink:href="#NotoSansCJKjp-Regular-33" transform="translate(55.499985 0)"/>
    </g>
   </g>
   <g id="text_21">
    <!-- 2 -->
    <g style="fill: #7a2020" transform="translate(278.515761 510.091481) scale(0.15 -0.15)">
     <use xlink:href="#NotoSansCJKjp-Regular-32"/>
    </g>
   </g>
   <g id="text_22">
    <!-- O-ja-gakdeuk mod 5 residue-group diagram -->
    <g transform="translate(99.200605 21.526875) scale(0.18 -0.18)">
     <defs>
      <path id="NotoSansCJKjp-Regular-4f" d="M 2374 -83 
C 3552 -83 4378 858 4378 2362 
C 4378 3866 3552 4774 2374 4774 
C 1197 4774 371 3866 371 2362 
C 371 858 1197 -83 2374 -83 
z
M 2374 435 
C 1530 435 979 1190 979 2362 
C 979 3533 1530 4256 2374 4256 
C 3219 4256 3770 3533 3770 2362 
C 3770 1190 3219 435 2374 435 
z
" transform="scale(0.015625)"/>
      <path id="NotoSansCJKjp-Regular-2d" d="M 294 1568 
L 1933 1568 
L 1933 2016 
L 294 2016 
L 294 1568 
z
" transform="scale(0.015625)"/>
      <path id="NotoSansCJKjp-Regular-6a" d="M 224 -1549 
C 915 -1549 1178 -1107 1178 -397 
L 1178 3475 
L 595 3475 
L 595 -397 
C 595 -819 512 -1082 166 -1082 
C 45 -1082 -77 -1050 -166 -1018 
L -282 -1459 
C -160 -1510 19 -1549 224 -1549 
z
M 883 4192 
C 1107 4192 1274 4346 1274 4582 
C 1274 4806 1107 4960 883 4960 
C 653 4960 493 4806 493 4582 
C 493 4346 653 4192 883 4192 
z
" transform="scale(0.015625)"/>
      <path id="NotoSansCJKjp-Regular-61" d="M 1389 -83 
C 1818 -83 2208 141 2541 416 
L 2560 416 
L 2611 0 
L 3091 0 
L 3091 2138 
C 3091 3002 2739 3565 1888 3565 
C 1325 3565 838 3315 525 3110 
L 749 2707 
C 1024 2893 1389 3078 1792 3078 
C 2362 3078 2509 2650 2509 2202 
C 1030 2035 378 1658 378 902 
C 378 275 806 -83 1389 -83 
z
M 1555 390 
C 1210 390 941 544 941 941 
C 941 1389 1338 1677 2509 1811 
L 2509 845 
C 2170 544 1888 390 1555 390 
z
" transform="scale(0.015625)"/>
      <path id="NotoSansCJKjp-Regular-67" d="M 1760 -1600 
C 2835 -1600 3520 -1043 3520 -397 
C 3520 179 3110 429 2310 429 
L 1626 429 
C 1158 429 1018 589 1018 806 
C 1018 998 1114 1114 1242 1222 
C 1395 1146 1587 1101 1754 1101 
C 2470 1101 3027 1568 3027 2310 
C 3027 2611 2912 2867 2746 3027 
L 3456 3027 
L 3456 3475 
L 2246 3475 
C 2125 3526 1952 3565 1754 3565 
C 1056 3565 454 3085 454 2323 
C 454 1907 678 1568 909 1389 
L 909 1363 
C 723 1235 525 1005 525 717 
C 525 442 659 256 838 147 
L 838 115 
C 512 -83 326 -371 326 -672 
C 326 -1267 915 -1600 1760 -1600 
z
M 1754 1498 
C 1357 1498 1018 1818 1018 2323 
C 1018 2835 1350 3136 1754 3136 
C 2170 3136 2496 2835 2496 2323 
C 2496 1818 2157 1498 1754 1498 
z
M 1843 -1197 
C 1210 -1197 838 -960 838 -589 
C 838 -390 941 -179 1190 0 
C 1344 -38 1510 -51 1638 -51 
L 2240 -51 
C 2701 -51 2944 -166 2944 -493 
C 2944 -851 2515 -1197 1843 -1197 
z
" transform="scale(0.015625)"/>
      <path id="NotoSansCJKjp-Regular-6b" d="M 589 0 
L 1165 0 
L 1165 915 
L 1818 1677 
L 2835 0 
L 3469 0 
L 2157 2074 
L 3315 3475 
L 2662 3475 
L 1190 1645 
L 1165 1645 
L 1165 5094 
L 589 5094 
L 589 0 
z
" transform="scale(0.015625)"/>
      <path id="NotoSansCJKjp-Regular-64" d="M 1773 -83 
C 2189 -83 2560 141 2829 410 
L 2848 410 
L 2899 0 
L 3379 0 
L 3379 5094 
L 2790 5094 
L 2790 3757 
L 2822 3162 
C 2515 3411 2253 3565 1843 3565 
C 1050 3565 339 2861 339 1734 
C 339 576 902 -83 1773 -83 
z
M 1901 410 
C 1293 410 941 902 941 1741 
C 941 2534 1389 3072 1946 3072 
C 2234 3072 2502 2970 2790 2707 
L 2790 883 
C 2502 563 2221 410 1901 410 
z
" transform="scale(0.015625)"/>
      <path id="NotoSansCJKjp-Regular-65" d="M 1997 -83 
C 2464 -83 2835 70 3136 269 
L 2931 659 
C 2669 486 2400 384 2061 384 
C 1402 384 947 858 909 1600 
L 3251 1600 
C 3264 1690 3277 1805 3277 1933 
C 3277 2925 2778 3565 1888 3565 
C 1094 3565 333 2867 333 1734 
C 333 589 1069 -83 1997 -83 
z
M 902 2016 
C 973 2707 1408 3098 1901 3098 
C 2445 3098 2765 2720 2765 2016 
L 902 2016 
z
" transform="scale(0.015625)"/>
      <path id="NotoSansCJKjp-Regular-75" d="M 1606 -83 
C 2080 -83 2426 166 2752 544 
L 2771 544 
L 2816 0 
L 3302 0 
L 3302 3475 
L 2720 3475 
L 2720 1011 
C 2387 602 2138 422 1779 422 
C 1318 422 1126 698 1126 1344 
L 1126 3475 
L 538 3475 
L 538 1274 
C 538 384 870 -83 1606 -83 
z
" transform="scale(0.015625)"/>
      <path id="NotoSansCJKjp-Regular-20" transform="scale(0.015625)"/>
      <path id="NotoSansCJKjp-Regular-6d" d="M 589 0 
L 1178 0 
L 1178 2522 
C 1491 2880 1786 3053 2048 3053 
C 2490 3053 2694 2778 2694 2125 
L 2694 0 
L 3277 0 
L 3277 2522 
C 3603 2880 3885 3053 4154 3053 
C 4595 3053 4800 2778 4800 2125 
L 4800 0 
L 5382 0 
L 5382 2202 
C 5382 3085 5043 3565 4333 3565 
C 3904 3565 3546 3290 3181 2899 
C 3040 3309 2758 3565 2221 3565 
C 1805 3565 1446 3302 1139 2970 
L 1126 2970 
L 1069 3475 
L 589 3475 
L 589 0 
z
" transform="scale(0.015625)"/>
      <path id="NotoSansCJKjp-Regular-6f" d="M 1939 -83 
C 2790 -83 3546 582 3546 1734 
C 3546 2893 2790 3565 1939 3565 
C 1088 3565 333 2893 333 1734 
C 333 582 1088 -83 1939 -83 
z
M 1939 403 
C 1338 403 934 934 934 1734 
C 934 2534 1338 3072 1939 3072 
C 2541 3072 2950 2534 2950 1734 
C 2950 934 2541 403 1939 403 
z
" transform="scale(0.015625)"/>
      <path id="NotoSansCJKjp-Regular-72" d="M 589 0 
L 1178 0 
L 1178 2234 
C 1408 2822 1760 3040 2048 3040 
C 2195 3040 2272 3021 2387 2982 
L 2496 3488 
C 2387 3546 2278 3565 2125 3565 
C 1741 3565 1382 3283 1139 2842 
L 1126 2842 
L 1069 3475 
L 589 3475 
L 589 0 
z
" transform="scale(0.015625)"/>
      <path id="NotoSansCJKjp-Regular-73" d="M 1498 -83 
C 2317 -83 2758 384 2758 947 
C 2758 1606 2208 1811 1702 2003 
C 1312 2150 954 2278 954 2605 
C 954 2880 1158 3110 1600 3110 
C 1907 3110 2150 2976 2387 2803 
L 2669 3168 
C 2406 3386 2022 3565 1594 3565 
C 832 3565 397 3130 397 2579 
C 397 1984 922 1754 1408 1574 
C 1792 1434 2202 1267 2202 915 
C 2202 614 1978 371 1517 371 
C 1101 371 794 538 486 787 
L 205 397 
C 531 122 1005 -83 1498 -83 
z
" transform="scale(0.015625)"/>
      <path id="NotoSansCJKjp-Regular-69" d="M 589 0 
L 1178 0 
L 1178 3475 
L 589 3475 
L 589 0 
z
M 883 4192 
C 1114 4192 1274 4346 1274 4582 
C 1274 4806 1114 4960 883 4960 
C 653 4960 499 4806 499 4582 
C 499 4346 653 4192 883 4192 
z
" transform="scale(0.015625)"/>
      <path id="NotoSansCJKjp-Regular-70" d="M 589 -1466 
L 1178 -1466 
L 1178 -288 
L 1158 320 
C 1472 58 1805 -83 2118 -83 
C 2912 -83 3629 602 3629 1792 
C 3629 2867 3142 3565 2246 3565 
C 1843 3565 1453 3334 1139 3072 
L 1126 3072 
L 1069 3475 
L 589 3475 
L 589 -1466 
z
M 2022 410 
C 1792 410 1485 499 1178 768 
L 1178 2598 
C 1510 2906 1811 3072 2099 3072 
C 2765 3072 3021 2560 3021 1786 
C 3021 928 2598 410 2022 410 
z
" transform="scale(0.015625)"/>
     </defs>
     <use xlink:href="#NotoSansCJKjp-Regular-4f"/>
     <use xlink:href="#NotoSansCJKjp-Regular-2d" transform="translate(74.199982 0)"/>
     <use xlink:href="#NotoSansCJKjp-Regular-6a" transform="translate(108.899979 0)"/>
     <use xlink:href="#NotoSansCJKjp-Regular-61" transform="translate(136.399963 0)"/>
     <use xlink:href="#NotoSansCJKjp-Regular-2d" transform="translate(192.699951 0)"/>
     <use xlink:href="#NotoSansCJKjp-Regular-67" transform="translate(227.399948 0)"/>
     <use xlink:href="#NotoSansCJKjp-Regular-61" transform="translate(283.799942 0)"/>
     <use xlink:href="#NotoSansCJKjp-Regular-6b" transform="translate(340.09993 0)"/>
     <use xlink:href="#NotoSansCJKjp-Regular-64" transform="translate(395.299927 0)"/>
     <use xlink:href="#NotoSansCJKjp-Regular-65" transform="translate(457.299911 0)"/>
     <use xlink:href="#NotoSansCJKjp-Regular-75" transform="translate(512.699905 0)"/>
     <use xlink:href="#NotoSansCJKjp-Regular-6b" transform="translate(573.399902 0)"/>
     <use xlink:href="#NotoSansCJKjp-Regular-20" transform="translate(628.599899 0)"/>
     <use xlink:href="#NotoSansCJKjp-Regular-6d" transform="translate(650.999893 0)"/>
     <use xlink:href="#NotoSansCJKjp-Regular-6f" transform="translate(743.599884 0)"/>
     <use xlink:href="#NotoSansCJKjp-Regular-64" transform="translate(804.199875 0)"/>
     <use xlink:href="#NotoSansCJKjp-Regular-20" transform="translate(866.19986 0)"/>
     <use xlink:href="#NotoSansCJKjp-Regular-35" transform="translate(888.599854 0)"/>
     <use xlink:href="#NotoSansCJKjp-Regular-20" transform="translate(944.099838 0)"/>
     <use xlink:href="#NotoSansCJKjp-Regular-72" transform="translate(966.499832 0)"/>
     <use xlink:href="#NotoSansCJKjp-Regular-65" transform="translate(1005.29982 0)"/>
     <use xlink:href="#NotoSansCJKjp-Regular-73" transform="translate(1060.699814 0)"/>
     <use xlink:href="#NotoSansCJKjp-Regular-69" transform="translate(1107.499802 0)"/>
     <use xlink:href="#NotoSansCJKjp-Regular-64" transform="translate(1134.999786 0)"/>
     <use xlink:href="#NotoSansCJKjp-Regular-75" transform="translate(1196.999771 0)"/>
     <use xlink:href="#NotoSansCJKjp-Regular-65" transform="translate(1257.699768 0)"/>
     <use xlink:href="#NotoSansCJKjp-Regular-2d" transform="translate(1313.099762 0)"/>
     <use xlink:href="#NotoSansCJKjp-Regular-67" transform="translate(1347.799759 0)"/>
     <use xlink:href="#NotoSansCJKjp-Regular-72" transform="translate(1404.199753 0)"/>
     <use xlink:href="#NotoSansCJKjp-Regular-6f" transform="translate(1442.999741 0)"/>
     <use xlink:href="#NotoSansCJKjp-Regular-75" transform="translate(1503.599731 0)"/>
     <use xlink:href="#NotoSansCJKjp-Regular-70" transform="translate(1564.299728 0)"/>
     <use xlink:href="#NotoSansCJKjp-Regular-20" transform="translate(1626.299713 0)"/>
     <use xlink:href="#NotoSansCJKjp-Regular-64" transform="translate(1648.699707 0)"/>
     <use xlink:href="#NotoSansCJKjp-Regular-69" transform="translate(1710.699692 0)"/>
     <use xlink:href="#NotoSansCJKjp-Regular-61" transform="translate(1738.199677 0)"/>
     <use xlink:href="#NotoSansCJKjp-Regular-67" transform="translate(1794.499664 0)"/>
     <use xlink:href="#NotoSansCJKjp-Regular-72" transform="translate(1850.899658 0)"/>
     <use xlink:href="#NotoSansCJKjp-Regular-61" transform="translate(1889.699646 0)"/>
     <use xlink:href="#NotoSansCJKjp-Regular-6d" transform="translate(1945.999634 0)"/>
    </g>
   </g>
  </g>
  <g id="axes_2">
   <g id="patch_23">
    <path d="M 610.911861 127.382875 
C 612.172106 127.382875 613.380904 126.169055 614.272032 124.008745 
C 615.16316 121.848435 615.663861 118.918015 615.663861 115.862875 
C 615.663861 112.807735 615.16316 109.877315 614.272032 107.717005 
C 613.380904 105.556695 612.172106 104.342875 610.911861 104.342875 
C 609.651616 104.342875 608.442817 105.556695 607.551689 107.717005 
C 606.660562 109.877315 606.159861 112.807735 606.159861 115.862875 
C 606.159861 118.918015 606.660562 121.848435 607.551689 124.008745 
C 608.442817 126.169055 609.651616 127.382875 610.911861 127.382875 
z
" clip-path="url(#p1b2dbc0042)" style="fill: #e0e0e0; stroke: #333333; stroke-width: 1.6; stroke-linejoin: miter"/>
   </g>
   <g id="patch_24">
    <path d="M 610.911861 196.502875 
C 612.172106 196.502875 613.380904 195.289055 614.272032 193.128745 
C 615.16316 190.968435 615.663861 188.038015 615.663861 184.982875 
C 615.663861 181.927735 615.16316 178.997315 614.272032 176.837005 
C 613.380904 174.676695 612.172106 173.462875 610.911861 173.462875 
C 609.651616 173.462875 608.442817 174.676695 607.551689 176.837005 
C 606.660562 178.997315 606.159861 181.927735 606.159861 184.982875 
C 606.159861 188.038015 606.660562 190.968435 607.551689 193.128745 
C 608.442817 195.289055 609.651616 196.502875 610.911861 196.502875 
z
" clip-path="url(#p1b2dbc0042)" style="fill: #f4d0d0; stroke: #b33b3b; stroke-width: 1.6; stroke-linejoin: miter"/>
   </g>
   <g id="patch_25">
    <path d="M 610.911861 265.622875 
C 612.172106 265.622875 613.380904 264.409055 614.272032 262.248745 
C 615.16316 260.088435 615.663861 257.158015 615.663861 254.102875 
C 615.663861 251.047735 615.16316 248.117315 614.272032 245.957005 
C 613.380904 243.796695 612.172106 242.582875 610.911861 242.582875 
C 609.651616 242.582875 608.442817 243.796695 607.551689 245.957005 
C 606.660562 248.117315 606.159861 251.047735 606.159861 254.102875 
C 606.159861 257.158015 606.660562 260.088435 607.551689 262.248745 
C 608.442817 264.409055 609.651616 265.622875 610.911861 265.622875 
z
" clip-path="url(#p1b2dbc0042)" style="fill: #d4e4f8; stroke: #3a6fae; stroke-width: 1.6; stroke-linejoin: miter"/>
   </g>
   <g id="patch_26">
    <path d="M 610.911861 334.742875 
C 612.172106 334.742875 613.380904 333.529055 614.272032 331.368745 
C 615.16316 329.208435 615.663861 326.278015 615.663861 323.222875 
C 615.663861 320.167735 615.16316 317.237315 614.272032 315.077005 
C 613.380904 312.916695 612.172106 311.702875 610.911861 311.702875 
C 609.651616 311.702875 608.442817 312.916695 607.551689 315.077005 
C 606.660562 317.237315 606.159861 320.167735 606.159861 323.222875 
C 606.159861 326.278015 606.660562 329.208435 607.551689 331.368745 
C 608.442817 333.529055 609.651616 334.742875 610.911861 334.742875 
z
" clip-path="url(#p1b2dbc0042)" style="fill: #e5e5e5; stroke: #666666; stroke-width: 1.6; stroke-linejoin: miter"/>
   </g>
   <g id="patch_27">
    <path d="M 610.911861 403.862875 
C 612.172106 403.862875 613.380904 402.649055 614.272032 400.488745 
C 615.16316 398.328435 615.663861 395.398015 615.663861 392.342875 
C 615.663861 389.287735 615.16316 386.357315 614.272032 384.197005 
C 613.380904 382.036695 612.172106 380.822875 610.911861 380.822875 
C 609.651616 380.822875 608.442817 382.036695 607.551689 384.197005 
C 606.660562 386.357315 606.159861 389.287735 606.159861 392.342875 
C 606.159861 395.398015 606.660562 398.328435 607.551689 400.488745 
C 608.442817 402.649055 609.651616 403.862875 610.911861 403.862875 
z
" clip-path="url(#p1b2dbc0042)" style="fill: #f6e5a3; stroke: #c39a00; stroke-width: 1.6; stroke-linejoin: miter"/>
   </g>
   <g id="text_23">
    <!-- Residue groups -->
    <g transform="translate(602.358261 83.313812) scale(0.17 -0.17)">
     <defs>
      <path id="NotoSansCJKjp-Regular-52" d="M 1235 2464 
L 1235 4211 
L 2022 4211 
C 2758 4211 3162 3994 3162 3379 
C 3162 2765 2758 2464 2022 2464 
L 1235 2464 
z
M 3219 0 
L 3885 0 
L 2694 2054 
C 3328 2208 3750 2643 3750 3379 
C 3750 4352 3066 4691 2112 4691 
L 646 4691 
L 646 0 
L 1235 0 
L 1235 1990 
L 2080 1990 
L 3219 0 
z
" transform="scale(0.015625)"/>
     </defs>
     <use xlink:href="#NotoSansCJKjp-Regular-52"/>
     <use xlink:href="#NotoSansCJKjp-Regular-65" transform="translate(63.499985 0)"/>
     <use xlink:href="#NotoSansCJKjp-Regular-73" transform="translate(118.899979 0)"/>
     <use xlink:href="#NotoSansCJKjp-Regular-69" transform="translate(165.699966 0)"/>
     <use xlink:href="#NotoSansCJKjp-Regular-64" transform="translate(193.199951 0)"/>
     <use xlink:href="#NotoSansCJKjp-Regular-75" transform="translate(255.199936 0)"/>
     <use xlink:href="#NotoSansCJKjp-Regular-65" transform="translate(315.899933 0)"/>
     <use xlink:href="#NotoSansCJKjp-Regular-20" transform="translate(371.299927 0)"/>
     <use xlink:href="#NotoSansCJKjp-Regular-67" transform="translate(393.699921 0)"/>
     <use xlink:href="#NotoSansCJKjp-Regular-72" transform="translate(450.099915 0)"/>
     <use xlink:href="#NotoSansCJKjp-Regular-6f" transform="translate(488.899902 0)"/>
     <use xlink:href="#NotoSansCJKjp-Regular-75" transform="translate(549.499893 0)"/>
     <use xlink:href="#NotoSansCJKjp-Regular-70" transform="translate(610.19989 0)"/>
     <use xlink:href="#NotoSansCJKjp-Regular-73" transform="translate(672.199875 0)"/>
    </g>
   </g>
   <g id="text_24">
    <!-- G1 · n mod 5 ≡ 1 -->
    <g style="fill: #111111" transform="translate(621.366261 113.592806) scale(0.115 -0.115)">
     <defs>
      <path id="NotoSansCJKjp-Regular-47" d="M 2490 -83 
C 3117 -83 3635 147 3936 461 
L 3936 2432 
L 2394 2432 
L 2394 1939 
L 3392 1939 
L 3392 710 
C 3206 538 2880 435 2547 435 
C 1542 435 979 1178 979 2362 
C 979 3533 1594 4256 2541 4256 
C 3008 4256 3315 4058 3552 3814 
L 3872 4198 
C 3603 4480 3174 4774 2522 4774 
C 1280 4774 371 3859 371 2342 
C 371 819 1254 -83 2490 -83 
z
" transform="scale(0.015625)"/>
      <path id="NotoSansCJKjp-Regular-b7" d="M 1766 1875 
C 1997 1875 2195 2067 2195 2323 
C 2195 2592 1997 2778 1766 2778 
C 1536 2778 1350 2592 1350 2323 
C 1350 2067 1536 1875 1766 1875 
z
" transform="scale(0.015625)"/>
      <path id="NotoSansCJKjp-Regular-6e" d="M 589 0 
L 1178 0 
L 1178 2522 
C 1523 2874 1766 3053 2125 3053 
C 2586 3053 2784 2778 2784 2125 
L 2784 0 
L 3366 0 
L 3366 2202 
C 3366 3085 3034 3565 2304 3565 
C 1830 3565 1466 3302 1139 2970 
L 1126 2970 
L 1069 3475 
L 589 3475 
L 589 0 
z
" transform="scale(0.015625)"/>
      <path id="NotoSansCJKjp-Regular-2261" d="M 5523 3994 
L 877 3994 
L 877 3578 
L 5523 3578 
L 5523 3994 
z
M 5523 2611 
L 877 2611 
L 877 2195 
L 5523 2195 
L 5523 2611 
z
M 5523 1229 
L 877 1229 
L 877 813 
L 5523 813 
L 5523 1229 
z
" transform="scale(0.015625)"/>
     </defs>
     <use xlink:href="#NotoSansCJKjp-Regular-47"/>
     <use xlink:href="#NotoSansCJKjp-Regular-31" transform="translate(68.899994 0)"/>
     <use xlink:href="#NotoSansCJKjp-Regular-20" transform="translate(124.399979 0)"/>
     <use xlink:href="#NotoSansCJKjp-Regular-b7" transform="translate(146.799973 0)"/>
     <use xlink:href="#NotoSansCJKjp-Regular-20" transform="translate(202.899963 0)"/>
     <use xlink:href="#NotoSansCJKjp-Regular-6e" transform="translate(225.299957 0)"/>
     <use xlink:href="#NotoSansCJKjp-Regular-20" transform="translate(286.299942 0)"/>
     <use xlink:href="#NotoSansCJKjp-Regular-6d" transform="translate(308.699936 0)"/>
     <use xlink:href="#NotoSansCJKjp-Regular-6f" transform="translate(401.299927 0)"/>
     <use xlink:href="#NotoSansCJKjp-Regular-64" transform="translate(461.899918 0)"/>
     <use xlink:href="#NotoSansCJKjp-Regular-20" transform="translate(523.899902 0)"/>
     <use xlink:href="#NotoSansCJKjp-Regular-35" transform="translate(546.299896 0)"/>
     <use xlink:href="#NotoSansCJKjp-Regular-20" transform="translate(601.799881 0)"/>
     <use xlink:href="#NotoSansCJKjp-Regular-2261" transform="translate(624.199875 0)"/>
     <use xlink:href="#NotoSansCJKjp-Regular-20" transform="translate(724.19986 0)"/>
     <use xlink:href="#NotoSansCJKjp-Regular-31" transform="translate(746.599854 0)"/>
    </g>
   </g>
   <g id="text_25">
    <!-- { 1, 6, 11, 16, 21 } -->
    <g style="fill: #333333" transform="translate(621.366261 135.740219) scale(0.105 -0.105)">
     <defs>
      <path id="NotoSansCJKjp-Regular-7b" d="M 1626 -1088 
L 1946 -1088 
L 1946 -755 
L 1760 -755 
C 1376 -755 1274 -563 1274 -102 
C 1274 333 1312 710 1312 1197 
C 1312 1651 1197 1888 883 1971 
L 883 2003 
C 1197 2086 1312 2317 1312 2778 
C 1312 3270 1274 3642 1274 4077 
C 1274 4544 1376 4730 1760 4730 
L 1946 4730 
L 1946 5069 
L 1626 5069 
C 1062 5069 794 4851 794 4109 
C 794 3590 858 3213 858 2726 
C 858 2458 730 2182 243 2176 
L 243 1805 
C 730 1805 858 1530 858 1242 
C 858 762 794 384 794 -141 
C 794 -877 1062 -1088 1626 -1088 
z
" transform="scale(0.015625)"/>
      <path id="NotoSansCJKjp-Regular-2c" d="M 480 -1216 
C 1056 -973 1414 -493 1414 122 
C 1414 550 1229 806 922 806 
C 685 806 480 653 480 397 
C 480 141 678 -13 909 -13 
L 979 -6 
C 973 -390 736 -698 339 -870 
L 480 -1216 
z
" transform="scale(0.015625)"/>
      <path id="NotoSansCJKjp-Regular-7d" d="M 218 -1088 
L 538 -1088 
C 1101 -1088 1376 -877 1376 -141 
C 1376 384 1312 762 1312 1242 
C 1312 1530 1440 1805 1920 1805 
L 1920 2176 
C 1440 2182 1312 2458 1312 2726 
C 1312 3213 1376 3590 1376 4109 
C 1376 4851 1101 5069 538 5069 
L 218 5069 
L 218 4730 
L 403 4730 
C 787 4730 890 4544 890 4077 
C 890 3642 858 3270 858 2778 
C 858 2317 966 2086 1280 2003 
L 1280 1971 
C 966 1888 858 1651 858 1197 
C 858 710 890 333 890 -102 
C 890 -563 787 -755 403 -755 
L 218 -755 
L 218 -1088 
z
" transform="scale(0.015625)"/>
     </defs>
     <use xlink:href="#NotoSansCJKjp-Regular-7b"/>
     <use xlink:href="#NotoSansCJKjp-Regular-20" transform="translate(33.799988 0)"/>
     <use xlink:href="#NotoSansCJKjp-Regular-31" transform="translate(56.199982 0)"/>
     <use xlink:href="#NotoSansCJKjp-Regular-2c" transform="translate(111.699966 0)"/>
     <use xlink:href="#NotoSansCJKjp-Regular-20" transform="translate(139.499954 0)"/>
     <use xlink:href="#NotoSansCJKjp-Regular-36" transform="translate(161.899948 0)"/>
     <use xlink:href="#NotoSansCJKjp-Regular-2c" transform="translate(217.399933 0)"/>
     <use xlink:href="#NotoSansCJKjp-Regular-20" transform="translate(245.199921 0)"/>
     <use xlink:href="#NotoSansCJKjp-Regular-31" transform="translate(267.599915 0)"/>
     <use xlink:href="#NotoSansCJKjp-Regular-31" transform="translate(323.099899 0)"/>
     <use xlink:href="#NotoSansCJKjp-Regular-2c" transform="translate(378.599884 0)"/>
     <use xlink:href="#NotoSansCJKjp-Regular-20" transform="translate(406.399872 0)"/>
     <use xlink:href="#NotoSansCJKjp-Regular-31" transform="translate(428.799866 0)"/>
     <use xlink:href="#NotoSansCJKjp-Regular-36" transform="translate(484.29985 0)"/>
     <use xlink:href="#NotoSansCJKjp-Regular-2c" transform="translate(539.799835 0)"/>
     <use xlink:href="#NotoSansCJKjp-Regular-20" transform="translate(567.599823 0)"/>
     <use xlink:href="#NotoSansCJKjp-Regular-32" transform="translate(589.999817 0)"/>
     <use xlink:href="#NotoSansCJKjp-Regular-31" transform="translate(645.499802 0)"/>
     <use xlink:href="#NotoSansCJKjp-Regular-20" transform="translate(700.999786 0)"/>
     <use xlink:href="#NotoSansCJKjp-Regular-7d" transform="translate(723.39978 0)"/>
    </g>
   </g>
   <g id="text_26">
    <!-- G2 · n mod 5 ≡ 2 -->
    <g style="fill: #7a2020" transform="translate(621.366261 182.712806) scale(0.115 -0.115)">
     <use xlink:href="#NotoSansCJKjp-Regular-47"/>
     <use xlink:href="#NotoSansCJKjp-Regular-32" transform="translate(68.899994 0)"/>
     <use xlink:href="#NotoSansCJKjp-Regular-20" transform="translate(124.399979 0)"/>
     <use xlink:href="#NotoSansCJKjp-Regular-b7" transform="translate(146.799973 0)"/>
     <use xlink:href="#NotoSansCJKjp-Regular-20" transform="translate(202.899963 0)"/>
     <use xlink:href="#NotoSansCJKjp-Regular-6e" transform="translate(225.299957 0)"/>
     <use xlink:href="#NotoSansCJKjp-Regular-20" transform="translate(286.299942 0)"/>
     <use xlink:href="#NotoSansCJKjp-Regular-6d" transform="translate(308.699936 0)"/>
     <use xlink:href="#NotoSansCJKjp-Regular-6f" transform="translate(401.299927 0)"/>
     <use xlink:href="#NotoSansCJKjp-Regular-64" transform="translate(461.899918 0)"/>
     <use xlink:href="#NotoSansCJKjp-Regular-20" transform="translate(523.899902 0)"/>
     <use xlink:href="#NotoSansCJKjp-Regular-35" transform="translate(546.299896 0)"/>
     <use xlink:href="#NotoSansCJKjp-Regular-20" transform="translate(601.799881 0)"/>
     <use xlink:href="#NotoSansCJKjp-Regular-2261" transform="translate(624.199875 0)"/>
     <use xlink:href="#NotoSansCJKjp-Regular-20" transform="translate(724.19986 0)"/>
     <use xlink:href="#NotoSansCJKjp-Regular-32" transform="translate(746.599854 0)"/>
    </g>
   </g>
   <g id="text_27">
    <!-- { 2, 7, 12, 17 } -->
    <g style="fill: #333333" transform="translate(621.366261 204.860219) scale(0.105 -0.105)">
     <use xlink:href="#NotoSansCJKjp-Regular-7b"/>
     <use xlink:href="#NotoSansCJKjp-Regular-20" transform="translate(33.799988 0)"/>
     <use xlink:href="#NotoSansCJKjp-Regular-32" transform="translate(56.199982 0)"/>
     <use xlink:href="#NotoSansCJKjp-Regular-2c" transform="translate(111.699966 0)"/>
     <use xlink:href="#NotoSansCJKjp-Regular-20" transform="translate(139.499954 0)"/>
     <use xlink:href="#NotoSansCJKjp-Regular-37" transform="translate(161.899948 0)"/>
     <use xlink:href="#NotoSansCJKjp-Regular-2c" transform="translate(217.399933 0)"/>
     <use xlink:href="#NotoSansCJKjp-Regular-20" transform="translate(245.199921 0)"/>
     <use xlink:href="#NotoSansCJKjp-Regular-31" transform="translate(267.599915 0)"/>
     <use xlink:href="#NotoSansCJKjp-Regular-32" transform="translate(323.099899 0)"/>
     <use xlink:href="#NotoSansCJKjp-Regular-2c" transform="translate(378.599884 0)"/>
     <use xlink:href="#NotoSansCJKjp-Regular-20" transform="translate(406.399872 0)"/>
     <use xlink:href="#NotoSansCJKjp-Regular-31" transform="translate(428.799866 0)"/>
     <use xlink:href="#NotoSansCJKjp-Regular-37" transform="translate(484.29985 0)"/>
     <use xlink:href="#NotoSansCJKjp-Regular-20" transform="translate(539.799835 0)"/>
     <use xlink:href="#NotoSansCJKjp-Regular-7d" transform="translate(562.199829 0)"/>
    </g>
   </g>
   <g id="text_28">
    <!-- G3 · n mod 5 ≡ 3 -->
    <g style="fill: #244e80" transform="translate(621.366261 251.832806) scale(0.115 -0.115)">
     <use xlink:href="#NotoSansCJKjp-Regular-47"/>
     <use xlink:href="#NotoSansCJKjp-Regular-33" transform="translate(68.899994 0)"/>
     <use xlink:href="#NotoSansCJKjp-Regular-20" transform="translate(124.399979 0)"/>
     <use xlink:href="#NotoSansCJKjp-Regular-b7" transform="translate(146.799973 0)"/>
     <use xlink:href="#NotoSansCJKjp-Regular-20" transform="translate(202.899963 0)"/>
     <use xlink:href="#NotoSansCJKjp-Regular-6e" transform="translate(225.299957 0)"/>
     <use xlink:href="#NotoSansCJKjp-Regular-20" transform="translate(286.299942 0)"/>
     <use xlink:href="#NotoSansCJKjp-Regular-6d" transform="translate(308.699936 0)"/>
     <use xlink:href="#NotoSansCJKjp-Regular-6f" transform="translate(401.299927 0)"/>
     <use xlink:href="#NotoSansCJKjp-Regular-64" transform="translate(461.899918 0)"/>
     <use xlink:href="#NotoSansCJKjp-Regular-20" transform="translate(523.899902 0)"/>
     <use xlink:href="#NotoSansCJKjp-Regular-35" transform="translate(546.299896 0)"/>
     <use xlink:href="#NotoSansCJKjp-Regular-20" transform="translate(601.799881 0)"/>
     <use xlink:href="#NotoSansCJKjp-Regular-2261" transform="translate(624.199875 0)"/>
     <use xlink:href="#NotoSansCJKjp-Regular-20" transform="translate(724.19986 0)"/>
     <use xlink:href="#NotoSansCJKjp-Regular-33" transform="translate(746.599854 0)"/>
    </g>
   </g>
   <g id="text_29">
    <!-- { 8, 13, 18, 23 } -->
    <g style="fill: #333333" transform="translate(621.366261 273.980219) scale(0.105 -0.105)">
     <use xlink:href="#NotoSansCJKjp-Regular-7b"/>
     <use xlink:href="#NotoSansCJKjp-Regular-20" transform="translate(33.799988 0)"/>
     <use xlink:href="#NotoSansCJKjp-Regular-38" transform="translate(56.199982 0)"/>
     <use xlink:href="#NotoSansCJKjp-Regular-2c" transform="translate(111.699966 0)"/>
     <use xlink:href="#NotoSansCJKjp-Regular-20" transform="translate(139.499954 0)"/>
     <use xlink:href="#NotoSansCJKjp-Regular-31" transform="translate(161.899948 0)"/>
     <use xlink:href="#NotoSansCJKjp-Regular-33" transform="translate(217.399933 0)"/>
     <use xlink:href="#NotoSansCJKjp-Regular-2c" transform="translate(272.899918 0)"/>
     <use xlink:href="#NotoSansCJKjp-Regular-20" transform="translate(300.699905 0)"/>
     <use xlink:href="#NotoSansCJKjp-Regular-31" transform="translate(323.099899 0)"/>
     <use xlink:href="#NotoSansCJKjp-Regular-38" transform="translate(378.599884 0)"/>
     <use xlink:href="#NotoSansCJKjp-Regular-2c" transform="translate(434.099869 0)"/>
     <use xlink:href="#NotoSansCJKjp-Regular-20" transform="translate(461.899857 0)"/>
     <use xlink:href="#NotoSansCJKjp-Regular-32" transform="translate(484.29985 0)"/>
     <use xlink:href="#NotoSansCJKjp-Regular-33" transform="translate(539.799835 0)"/>
     <use xlink:href="#NotoSansCJKjp-Regular-20" transform="translate(595.29982 0)"/>
     <use xlink:href="#NotoSansCJKjp-Regular-7d" transform="translate(617.699814 0)"/>
    </g>
   </g>
   <g id="text_30">
    <!-- G4 · n mod 5 ≡ 4 -->
    <g style="fill: #222222" transform="translate(621.366261 320.952806) scale(0.115 -0.115)">
     <use xlink:href="#NotoSansCJKjp-Regular-47"/>
     <use xlink:href="#NotoSansCJKjp-Regular-34" transform="translate(68.899994 0)"/>
     <use xlink:href="#NotoSansCJKjp-Regular-20" transform="translate(124.399979 0)"/>
     <use xlink:href="#NotoSansCJKjp-Regular-b7" transform="translate(146.799973 0)"/>
     <use xlink:href="#NotoSansCJKjp-Regular-20" transform="translate(202.899963 0)"/>
     <use xlink:href="#NotoSansCJKjp-Regular-6e" transform="translate(225.299957 0)"/>
     <use xlink:href="#NotoSansCJKjp-Regular-20" transform="translate(286.299942 0)"/>
     <use xlink:href="#NotoSansCJKjp-Regular-6d" transform="translate(308.699936 0)"/>
     <use xlink:href="#NotoSansCJKjp-Regular-6f" transform="translate(401.299927 0)"/>
     <use xlink:href="#NotoSansCJKjp-Regular-64" transform="translate(461.899918 0)"/>
     <use xlink:href="#NotoSansCJKjp-Regular-20" transform="translate(523.899902 0)"/>
     <use xlink:href="#NotoSansCJKjp-Regular-35" transform="translate(546.299896 0)"/>
     <use xlink:href="#NotoSansCJKjp-Regular-20" transform="translate(601.799881 0)"/>
     <use xlink:href="#NotoSansCJKjp-Regular-2261" transform="translate(624.199875 0)"/>
     <use xlink:href="#NotoSansCJKjp-Regular-20" transform="translate(724.19986 0)"/>
     <use xlink:href="#NotoSansCJKjp-Regular-34" transform="translate(746.599854 0)"/>
    </g>
   </g>
   <g id="text_31">
    <!-- { 4, 9, 14, 19, 24 } -->
    <g style="fill: #333333" transform="translate(621.366261 343.100219) scale(0.105 -0.105)">
     <use xlink:href="#NotoSansCJKjp-Regular-7b"/>
     <use xlink:href="#NotoSansCJKjp-Regular-20" transform="translate(33.799988 0)"/>
     <use xlink:href="#NotoSansCJKjp-Regular-34" transform="translate(56.199982 0)"/>
     <use xlink:href="#NotoSansCJKjp-Regular-2c" transform="translate(111.699966 0)"/>
     <use xlink:href="#NotoSansCJKjp-Regular-20" transform="translate(139.499954 0)"/>
     <use xlink:href="#NotoSansCJKjp-Regular-39" transform="translate(161.899948 0)"/>
     <use xlink:href="#NotoSansCJKjp-Regular-2c" transform="translate(217.399933 0)"/>
     <use xlink:href="#NotoSansCJKjp-Regular-20" transform="translate(245.199921 0)"/>
     <use xlink:href="#NotoSansCJKjp-Regular-31" transform="translate(267.599915 0)"/>
     <use xlink:href="#NotoSansCJKjp-Regular-34" transform="translate(323.099899 0)"/>
     <use xlink:href="#NotoSansCJKjp-Regular-2c" transform="translate(378.599884 0)"/>
     <use xlink:href="#NotoSansCJKjp-Regular-20" transform="translate(406.399872 0)"/>
     <use xlink:href="#NotoSansCJKjp-Regular-31" transform="translate(428.799866 0)"/>
     <use xlink:href="#NotoSansCJKjp-Regular-39" transform="translate(484.29985 0)"/>
     <use xlink:href="#NotoSansCJKjp-Regular-2c" transform="translate(539.799835 0)"/>
     <use xlink:href="#NotoSansCJKjp-Regular-20" transform="translate(567.599823 0)"/>
     <use xlink:href="#NotoSansCJKjp-Regular-32" transform="translate(589.999817 0)"/>
     <use xlink:href="#NotoSansCJKjp-Regular-34" transform="translate(645.499802 0)"/>
     <use xlink:href="#NotoSansCJKjp-Regular-20" transform="translate(700.999786 0)"/>
     <use xlink:href="#NotoSansCJKjp-Regular-7d" transform="translate(723.39978 0)"/>
    </g>
   </g>
   <g id="text_32">
    <!-- G5 · n mod 5 ≡ 0 -->
    <g style="fill: #735700" transform="translate(621.366261 390.072806) scale(0.115 -0.115)">
     <use xlink:href="#NotoSansCJKjp-Regular-47"/>
     <use xlink:href="#NotoSansCJKjp-Regular-35" transform="translate(68.899994 0)"/>
     <use xlink:href="#NotoSansCJKjp-Regular-20" transform="translate(124.399979 0)"/>
     <use xlink:href="#NotoSansCJKjp-Regular-b7" transform="translate(146.799973 0)"/>
     <use xlink:href="#NotoSansCJKjp-Regular-20" transform="translate(202.899963 0)"/>
     <use xlink:href="#NotoSansCJKjp-Regular-6e" transform="translate(225.299957 0)"/>
     <use xlink:href="#NotoSansCJKjp-Regular-20" transform="translate(286.299942 0)"/>
     <use xlink:href="#NotoSansCJKjp-Regular-6d" transform="translate(308.699936 0)"/>
     <use xlink:href="#NotoSansCJKjp-Regular-6f" transform="translate(401.299927 0)"/>
     <use xlink:href="#NotoSansCJKjp-Regular-64" transform="translate(461.899918 0)"/>
     <use xlink:href="#NotoSansCJKjp-Regular-20" transform="translate(523.899902 0)"/>
     <use xlink:href="#NotoSansCJKjp-Regular-35" transform="translate(546.299896 0)"/>
     <use xlink:href="#NotoSansCJKjp-Regular-20" transform="translate(601.799881 0)"/>
     <use xlink:href="#NotoSansCJKjp-Regular-2261" transform="translate(624.199875 0)"/>
     <use xlink:href="#NotoSansCJKjp-Regular-20" transform="translate(724.19986 0)"/>
     <use xlink:href="#NotoSansCJKjp-Regular-30" transform="translate(746.599854 0)"/>
    </g>
   </g>
   <g id="text_33">
    <!-- { 5, 15, 20 } -->
    <g style="fill: #333333" transform="translate(621.366261 412.220219) scale(0.105 -0.105)">
     <use xlink:href="#NotoSansCJKjp-Regular-7b"/>
     <use xlink:href="#NotoSansCJKjp-Regular-20" transform="translate(33.799988 0)"/>
     <use xlink:href="#NotoSansCJKjp-Regular-35" transform="translate(56.199982 0)"/>
     <use xlink:href="#NotoSansCJKjp-Regular-2c" transform="translate(111.699966 0)"/>
     <use xlink:href="#NotoSansCJKjp-Regular-20" transform="translate(139.499954 0)"/>
     <use xlink:href="#NotoSansCJKjp-Regular-31" transform="translate(161.899948 0)"/>
     <use xlink:href="#NotoSansCJKjp-Regular-35" transform="translate(217.399933 0)"/>
     <use xlink:href="#NotoSansCJKjp-Regular-2c" transform="translate(272.899918 0)"/>
     <use xlink:href="#NotoSansCJKjp-Regular-20" transform="translate(300.699905 0)"/>
     <use xlink:href="#NotoSansCJKjp-Regular-32" transform="translate(323.099899 0)"/>
     <use xlink:href="#NotoSansCJKjp-Regular-30" transform="translate(378.599884 0)"/>
     <use xlink:href="#NotoSansCJKjp-Regular-20" transform="translate(434.099869 0)"/>
     <use xlink:href="#NotoSansCJKjp-Regular-7d" transform="translate(456.499863 0)"/>
    </g>
   </g>
   <g id="text_34">
    <!-- Visible nodes: 21 -->
    <g transform="translate(602.358261 481.983187) scale(0.11 -0.11)">
     <defs>
      <path id="NotoSansCJKjp-Regular-56" d="M 1504 0 
L 2189 0 
L 3680 4691 
L 3078 4691 
L 2323 2150 
C 2163 1600 2048 1152 1869 602 
L 1843 602 
C 1670 1152 1549 1600 1389 2150 
L 627 4691 
L 6 4691 
L 1504 0 
z
" transform="scale(0.015625)"/>
      <path id="NotoSansCJKjp-Regular-62" d="M 2118 -83 
C 2912 -83 3629 602 3629 1792 
C 3629 2867 3142 3565 2246 3565 
C 1856 3565 1472 3347 1152 3078 
L 1178 3699 
L 1178 5094 
L 589 5094 
L 589 0 
L 1056 0 
L 1107 358 
L 1133 358 
C 1434 83 1798 -83 2118 -83 
z
M 2022 410 
C 1792 410 1478 499 1178 768 
L 1178 2598 
C 1504 2906 1811 3072 2099 3072 
C 2765 3072 3021 2560 3021 1786 
C 3021 928 2598 410 2022 410 
z
" transform="scale(0.015625)"/>
      <path id="NotoSansCJKjp-Regular-6c" d="M 1203 -83 
C 1363 -83 1459 -58 1542 -32 
L 1459 416 
C 1395 403 1370 403 1338 403 
C 1248 403 1178 474 1178 653 
L 1178 5094 
L 589 5094 
L 589 691 
C 589 198 768 -83 1203 -83 
z
" transform="scale(0.015625)"/>
      <path id="NotoSansCJKjp-Regular-3a" d="M 890 2496 
C 1120 2496 1312 2675 1312 2944 
C 1312 3206 1120 3392 890 3392 
C 653 3392 467 3206 467 2944 
C 467 2675 653 2496 890 2496 
z
M 890 -83 
C 1120 -83 1312 96 1312 358 
C 1312 627 1120 806 890 806 
C 653 806 467 627 467 358 
C 467 96 653 -83 890 -83 
z
" transform="scale(0.015625)"/>
     </defs>
     <use xlink:href="#NotoSansCJKjp-Regular-56"/>
     <use xlink:href="#NotoSansCJKjp-Regular-69" transform="translate(57.499985 0)"/>
     <use xlink:href="#NotoSansCJKjp-Regular-73" transform="translate(84.999969 0)"/>
     <use xlink:href="#NotoSansCJKjp-Regular-69" transform="translate(131.799957 0)"/>
     <use xlink:href="#NotoSansCJKjp-Regular-62" transform="translate(159.299942 0)"/>
     <use xlink:href="#NotoSansCJKjp-Regular-6c" transform="translate(221.09993 0)"/>
     <use xlink:href="#NotoSansCJKjp-Regular-65" transform="translate(249.499924 0)"/>
     <use xlink:href="#NotoSansCJKjp-Regular-20" transform="translate(304.899918 0)"/>
     <use xlink:href="#NotoSansCJKjp-Regular-6e" transform="translate(327.299911 0)"/>
     <use xlink:href="#NotoSansCJKjp-Regular-6f" transform="translate(388.299896 0)"/>
     <use xlink:href="#NotoSansCJKjp-Regular-64" transform="translate(448.899887 0)"/>
     <use xlink:href="#NotoSansCJKjp-Regular-65" transform="translate(510.899872 0)"/>
     <use xlink:href="#NotoSansCJKjp-Regular-73" transform="translate(566.299866 0)"/>
     <use xlink:href="#NotoSansCJKjp-Regular-3a" transform="translate(613.099854 0)"/>
     <use xlink:href="#NotoSansCJKjp-Regular-20" transform="translate(640.899841 0)"/>
     <use xlink:href="#NotoSansCJKjp-Regular-32" transform="translate(663.299835 0)"/>
     <use xlink:href="#NotoSansCJKjp-Regular-31" transform="translate(718.79982 0)"/>
    </g>
   </g>
  </g>
 </g>
 <defs>
  <clipPath id="pe2046af89a">
   <rect x="7.2" y="37.526875" width="550.956522" height="506.88"/>
  </clipPath>
  <clipPath id="p1b2dbc0042">
   <rect x="602.358261" y="60.566875" width="190.08" height="460.8"/>
  </clipPath>
 </defs>
</svg>
