<?xml version="1.0" encoding="utf-8" standalone="no"?>
<!DOCTYPE svg PUBLIC "-//W3C//DTD SVG 1.1//EN"
  "http://www.w3.org/Graphics/SVG/1.1/DTD/svg11.dtd">
<svg xmlns:xlink="http://www.w3.org/1999/xlink" width="455.04pt" height="455.04pt" viewBox="0 0 455.04 455.04" xmlns="http://www.w3.org/2000/svg" version="1.1">
 <metadata>
  <rdf:RDF xmlns:dc="http://purl.org/dc/elements/1.1/" xmlns:cc="http://creativecommons.org/ns#" xmlns:rdf="http://www.w3.org/1999/02/22-rdf-syntax-ns#">
   <cc:Work>
    <dc:type rdf:resource="http://purl.org/dc/dcmitype/StillImage"/>
    <dc:date>2026-07-10T16:25:35.447420</dc:date>
    <dc:format>image/svg+xml</dc:format>
    <dc:creator>
     <cc:Agent>
      <dc:title>Matplotlib v3.10.1+dfsg1, https://matplotlib.org/</dc:title>
     </cc:Agent>
    </dc:creator>
   </cc:Work>
  </rdf:RDF>
 </metadata>
 <defs>
  <style type="text/css">*{stroke-linejoin: round; stroke-linecap: butt}</style>
 </defs>
 <g id="figure_1">
  <g id="patch_1">
   <path d="M 0 455.04 
L 455.04 455.04 
L 455.04 0 
L 0 0 
z
" style="fill: #ffffff"/>
  </g>
  <g id="axes_1">
   <g id="line2d_1">
    <path d="M 106.007671 45.251507 
L 45.251507 106.007671 
" clip-path="url(#p92450e5def)" style="fill: none; stroke: #000000; stroke-width: 2; stroke-linecap: round"/>
   </g>
   <g id="line2d_2">
    <path d="M 45.251507 106.007671 
L 106.007671 166.763836 
" clip-path="url(#p92450e5def)" style="fill: none; stroke: #000000; stroke-width: 2; stroke-linecap: round"/>
   </g>
   <g id="line2d_3">
    <path d="M 106.007671 166.763836 
L 166.763836 227.52 
" clip-path="url(#p92450e5def)" style="fill: none; stroke: #000000; stroke-width: 2; stroke-linecap: round"/>
   </g>
   <g id="line2d_4">
    <path d="M 166.763836 227.52 
L 227.52 166.763836 
" clip-path="url(#p92450e5def)" style="fill: none; stroke: #000000; stroke-width: 2; stroke-linecap: round"/>
   </g>
   <g id="line2d_5">
    <path d="M 227.52 166.763836 
L 166.763836 106.007671 
" clip-path="url(#p92450e5def)" style="fill: none; stroke: #000000; stroke-width: 2; stroke-linecap: round"/>
   </g>
   <g id="line2d_6">
    <path d="M 166.763836 106.007671 
L 106.007671 45.251507 
" clip-path="url(#p92450e5def)" style="fill: none; stroke: #000000; stroke-width: 2; stroke-linecap: round"/>
   </g>
   <g id="line2d_7">
    <path d="M 349.032329 45.251507 
L 288.276164 106.007671 
" clip-path="url(#p92450e5def)" style="fill: none; stroke: #000000; stroke-width: 2; stroke-linecap: round"/>
   </g>
   <g id="line2d_8">
    <path d="M 288.276164 106.007671 
L 227.52 166.763836 
" clip-path="url(#p92450e5def)" style="fill: none; stroke: #000000; stroke-width: 2; stroke-linecap: round"/>
   </g>
   <g id="line2d_9">
    <path d="M 227.52 166.763836 
L 288.276164 227.52 
" clip-path="url(#p92450e5def)" style="fill: none; stroke: #000000; stroke-width: 2; stroke-linecap: round"/>
   </g>
   <g id="line2d_10">
    <path d="M 288.276164 227.52 
L 349.032329 166.763836 
" clip-path="url(#p92450e5def)" style="fill: none; stroke: #000000; stroke-width: 2; stroke-linecap: round"/>
   </g>
   <g id="line2d_11">
    <path d="M 349.032329 166.763836 
L 409.788493 106.007671 
" clip-path="url(#p92450e5def)" style="fill: none; stroke: #000000; stroke-width: 2; stroke-linecap: round"/>
   </g>
   <g id="line2d_12">
    <path d="M 409.788493 106.007671 
L 349.032329 45.251507 
" clip-path="url(#p92450e5def)" style="fill: none; stroke: #000000; stroke-width: 2; stroke-linecap: round"/>
   </g>
   <g id="line2d_13">
    <path d="M 166.763836 227.52 
L 106.007671 288.276164 
" clip-path="url(#p92450e5def)" style="fill: none; stroke: #000000; stroke-width: 2; stroke-linecap: round"/>
   </g>
   <g id="line2d_14">
    <path d="M 106.007671 288.276164 
L 45.251507 349.032329 
" clip-path="url(#p92450e5def)" style="fill: none; stroke: #000000; stroke-width: 2; stroke-linecap: round"/>
   </g>
   <g id="line2d_15">
    <path d="M 45.251507 349.032329 
L 106.007671 409.788493 
" clip-path="url(#p92450e5def)" style="fill: none; stroke: #000000; stroke-width: 2; stroke-linecap: round"/>
   </g>
   <g id="line2d_16">
    <path d="M 106.007671 409.788493 
L 166.763836 349.032329 
" clip-path="url(#p92450e5def)" style="fill: none; stroke: #000000; stroke-width: 2; stroke-linecap: round"/>
   </g>
   <g id="line2d_17">
    <path d="M 166.763836 349.032329 
L 227.52 288.276164 
" clip-path="url(#p92450e5def)" style="fill: none; stroke: #000000; stroke-width: 2; stroke-linecap: round"/>
   </g>
   <g id="line2d_18">
    <path d="M 227.52 288.276164 
L 166.763836 227.52 
" clip-path="url(#p92450e5def)" style="fill: none; stroke: #000000; stroke-width: 2; stroke-linecap: round"/>
   </g>
   <g id="line2d_19">
    <path d="M 288.276164 227.52 
L 349.032329 288.276164 
" clip-path="url(#p92450e5def)" style="fill: none; stroke: #000000; stroke-width: 2; stroke-linecap: round"/>
   </g>
   <g id="line2d_20">
    <path d="M 349.032329 288.276164 
L 409.788493 349.032329 
" clip-path="url(#p92450e5def)" style="fill: none; stroke: #000000; stroke-width: 2; stroke-linecap: round"/>
   </g>
   <g id="line2d_21">
    <path d="M 409.788493 349.032329 
L 349.032329 409.788493 
" clip-path="url(#p92450e5def)" style="fill: none; stroke: #000000; stroke-width: 2; stroke-linecap: round"/>
   </g>
   <g id="line2d_22">
    <path d="M 349.032329 409.788493 
L 288.276164 349.032329 
" clip-path="url(#p92450e5def)" style="fill: none; stroke: #000000; stroke-width: 2; stroke-linecap: round"/>
   </g>
   <g id="line2d_23">
    <path d="M 288.276164 349.032329 
L 227.52 288.276164 
" clip-path="url(#p92450e5def)" style="fill: none; stroke: #000000; stroke-width: 2; stroke-linecap: round"/>
   </g>
   <g id="line2d_24">
    <path d="M 227.52 288.276164 
L 288.276164 227.52 
" clip-path="url(#p92450e5def)" style="fill: none; stroke: #000000; stroke-width: 2; stroke-linecap: round"/>
   </g>
   <g id="patch_2">
    <path d="M 106.007671 62.870795 
C 110.680361 62.870795 115.162298 61.014315 118.466389 57.710225 
C 121.77048 54.406134 123.626959 49.924197 123.626959 45.251507 
C 123.626959 40.578817 121.77048 36.09688 118.466389 32.792789 
C 115.162298 29.488698 110.680361 27.632219 106.007671 27.632219 
C 101.334982 27.632219 96.853044 29.488698 93.548953 32.792789 
C 90.244863 36.09688 88.388384 40.578817 88.388384 45.251507 
C 88.388384 49.924197 90.244863 54.406134 93.548953 57.710225 
C 96.853044 61.014315 101.334982 62.870795 106.007671 62.870795 
z
" clip-path="url(#p92450e5def)" style="fill: #ffffff; stroke: #000000; stroke-width: 2; stroke-linejoin: miter"/>
   </g>
   <g id="patch_3">
    <path d="M 45.251507 123.626959 
C 49.924197 123.626959 54.406134 121.77048 57.710225 118.466389 
C 61.014315 115.162298 62.870795 110.680361 62.870795 106.007671 
C 62.870795 101.334982 61.014315 96.853044 57.710225 93.548953 
C 54.406134 90.244863 49.924197 88.388384 45.251507 88.388384 
C 40.578817 88.388384 36.09688 90.244863 32.792789 93.548953 
C 29.488698 96.853044 27.632219 101.334982 27.632219 106.007671 
C 27.632219 110.680361 29.488698 115.162298 32.792789 118.466389 
C 36.09688 121.77048 40.578817 123.626959 45.251507 123.626959 
z
" clip-path="url(#p92450e5def)" style="fill: #ffffff; stroke: #000000; stroke-width: 2; stroke-linejoin: miter"/>
   </g>
   <g id="patch_4">
    <path d="M 106.007671 184.383123 
C 110.680361 184.383123 115.162298 182.526644 118.466389 179.222553 
C 121.77048 175.918463 123.626959 171.436525 123.626959 166.763836 
C 123.626959 162.091146 121.77048 157.609208 118.466389 154.305118 
C 115.162298 151.001027 110.680361 149.144548 106.007671 149.144548 
C 101.334982 149.144548 96.853044 151.001027 93.548953 154.305118 
C 90.244863 157.609208 88.388384 162.091146 88.388384 166.763836 
C 88.388384 171.436525 90.244863 175.918463 93.548953 179.222553 
C 96.853044 182.526644 101.334982 184.383123 106.007671 184.383123 
z
" clip-path="url(#p92450e5def)" style="fill: #ffffff; stroke: #000000; stroke-width: 2; stroke-linejoin: miter"/>
   </g>
   <g id="patch_5">
    <path d="M 166.763836 245.139288 
C 171.436525 245.139288 175.918463 243.282808 179.222553 239.978718 
C 182.526644 236.674627 184.383123 232.19269 184.383123 227.52 
C 184.383123 222.84731 182.526644 218.365373 179.222553 215.061282 
C 175.918463 211.757192 171.436525 209.900712 166.763836 209.900712 
C 162.091146 209.900712 157.609208 211.757192 154.305118 215.061282 
C 151.001027 218.365373 149.144548 222.84731 149.144548 227.52 
C 149.144548 232.19269 151.001027 236.674627 154.305118 239.978718 
C 157.609208 243.282808 162.091146 245.139288 166.763836 245.139288 
z
" clip-path="url(#p92450e5def)" style="fill: #ffffff; stroke: #000000; stroke-width: 2; stroke-linejoin: miter"/>
   </g>
   <g id="patch_6">
    <path d="M 227.52 184.383123 
C 232.19269 184.383123 236.674627 182.526644 239.978718 179.222553 
C 243.282808 175.918463 245.139288 171.436525 245.139288 166.763836 
C 245.139288 162.091146 243.282808 157.609208 239.978718 154.305118 
C 236.674627 151.001027 232.19269 149.144548 227.52 149.144548 
C 222.84731 149.144548 218.365373 151.001027 215.061282 154.305118 
C 211.757192 157.609208 209.900712 162.091146 209.900712 166.763836 
C 209.900712 171.436525 211.757192 175.918463 215.061282 179.222553 
C 218.365373 182.526644 222.84731 184.383123 227.52 184.383123 
z
" clip-path="url(#p92450e5def)" style="fill: #ffffff; stroke: #000000; stroke-width: 2; stroke-linejoin: miter"/>
   </g>
   <g id="patch_7">
    <path d="M 166.763836 123.626959 
C 171.436525 123.626959 175.918463 121.77048 179.222553 118.466389 
C 182.526644 115.162298 184.383123 110.680361 184.383123 106.007671 
C 184.383123 101.334982 182.526644 96.853044 179.222553 93.548953 
C 175.918463 90.244863 171.436525 88.388384 166.763836 88.388384 
C 162.091146 88.388384 157.609208 90.244863 154.305118 93.548953 
C 151.001027 96.853044 149.144548 101.334982 149.144548 106.007671 
C 149.144548 110.680361 151.001027 115.162298 154.305118 118.466389 
C 157.609208 121.77048 162.091146 123.626959 166.763836 123.626959 
z
" clip-path="url(#p92450e5def)" style="fill: #ffffff; stroke: #000000; stroke-width: 2; stroke-linejoin: miter"/>
   </g>
   <g id="patch_8">
    <path d="M 349.032329 62.870795 
C 353.705018 62.870795 358.186956 61.014315 361.491047 57.710225 
C 364.795137 54.406134 366.651616 49.924197 366.651616 45.251507 
C 366.651616 40.578817 364.795137 36.09688 361.491047 32.792789 
C 358.186956 29.488698 353.705018 27.632219 349.032329 27.632219 
C 344.359639 27.632219 339.877702 29.488698 336.573611 32.792789 
C 333.26952 36.09688 331.413041 40.578817 331.413041 45.251507 
C 331.413041 49.924197 333.26952 54.406134 336.573611 57.710225 
C 339.877702 61.014315 344.359639 62.870795 349.032329 62.870795 
z
" clip-path="url(#p92450e5def)" style="fill: #ffffff; stroke: #000000; stroke-width: 2; stroke-linejoin: miter"/>
   </g>
   <g id="patch_9">
    <path d="M 288.276164 123.626959 
C 292.948854 123.626959 297.430792 121.77048 300.734882 118.466389 
C 304.038973 115.162298 305.895452 110.680361 305.895452 106.007671 
C 305.895452 101.334982 304.038973 96.853044 300.734882 93.548953 
C 297.430792 90.244863 292.948854 88.388384 288.276164 88.388384 
C 283.603475 88.388384 279.121537 90.244863 275.817447 93.548953 
C 272.513356 96.853044 270.656877 101.334982 270.656877 106.007671 
C 270.656877 110.680361 272.513356 115.162298 275.817447 118.466389 
C 279.121537 121.77048 283.603475 123.626959 288.276164 123.626959 
z
" clip-path="url(#p92450e5def)" style="fill: #ffffff; stroke: #000000; stroke-width: 2; stroke-linejoin: miter"/>
   </g>
   <g id="patch_10">
    <path d="M 409.788493 123.626959 
C 414.461183 123.626959 418.94312 121.77048 422.247211 118.466389 
C 425.551302 115.162298 427.407781 110.680361 427.407781 106.007671 
C 427.407781 101.334982 425.551302 96.853044 422.247211 93.548953 
C 418.94312 90.244863 414.461183 88.388384 409.788493 88.388384 
C 405.115803 88.388384 400.633866 90.244863 397.329775 93.548953 
C 394.025685 96.853044 392.169205 101.334982 392.169205 106.007671 
C 392.169205 110.680361 394.025685 115.162298 397.329775 118.466389 
C 400.633866 121.77048 405.115803 123.626959 409.788493 123.626959 
z
" clip-path="url(#p92450e5def)" style="fill: #ffffff; stroke: #000000; stroke-width: 2; stroke-linejoin: miter"/>
   </g>
   <g id="patch_11">
    <path d="M 349.032329 184.383123 
C 353.705018 184.383123 358.186956 182.526644 361.491047 179.222553 
C 364.795137 175.918463 366.651616 171.436525 366.651616 166.763836 
C 366.651616 162.091146 364.795137 157.609208 361.491047 154.305118 
C 358.186956 151.001027 353.705018 149.144548 349.032329 149.144548 
C 344.359639 149.144548 339.877702 151.001027 336.573611 154.305118 
C 333.26952 157.609208 331.413041 162.091146 331.413041 166.763836 
C 331.413041 171.436525 333.26952 175.918463 336.573611 179.222553 
C 339.877702 182.526644 344.359639 184.383123 349.032329 184.383123 
z
" clip-path="url(#p92450e5def)" style="fill: #ffffff; stroke: #000000; stroke-width: 2; stroke-linejoin: miter"/>
   </g>
   <g id="patch_12">
    <path d="M 288.276164 245.139288 
C 292.948854 245.139288 297.430792 243.282808 300.734882 239.978718 
C 304.038973 236.674627 305.895452 232.19269 305.895452 227.52 
C 305.895452 222.84731 304.038973 218.365373 300.734882 215.061282 
C 297.430792 211.757192 292.948854 209.900712 288.276164 209.900712 
C 283.603475 209.900712 279.121537 211.757192 275.817447 215.061282 
C 272.513356 218.365373 270.656877 222.84731 270.656877 227.52 
C 270.656877 232.19269 272.513356 236.674627 275.817447 239.978718 
C 279.121537 243.282808 283.603475 245.139288 288.276164 245.139288 
z
" clip-path="url(#p92450e5def)" style="fill: #ffffff; stroke: #000000; stroke-width: 2; stroke-linejoin: miter"/>
   </g>
   <g id="patch_13">
    <path d="M 106.007671 305.895452 
C 110.680361 305.895452 115.162298 304.038973 118.466389 300.734882 
C 121.77048 297.430792 123.626959 292.948854 123.626959 288.276164 
C 123.626959 283.603475 121.77048 279.121537 118.466389 275.817447 
C 115.162298 272.513356 110.680361 270.656877 106.007671 270.656877 
C 101.334982 270.656877 96.853044 272.513356 93.548953 275.817447 
C 90.244863 279.121537 88.388384 283.603475 88.388384 288.276164 
C 88.388384 292.948854 90.244863 297.430792 93.548953 300.734882 
C 96.853044 304.038973 101.334982 305.895452 106.007671 305.895452 
z
" clip-path="url(#p92450e5def)" style="fill: #ffffff; stroke: #000000; stroke-width: 2; stroke-linejoin: miter"/>
   </g>
   <g id="patch_14">
    <path d="M 45.251507 366.651616 
C 49.924197 366.651616 54.406134 364.795137 57.710225 361.491047 
C 61.014315 358.186956 62.870795 353.705018 62.870795 349.032329 
C 62.870795 344.359639 61.014315 339.877702 57.710225 336.573611 
C 54.406134 333.26952 49.924197 331.413041 45.251507 331.413041 
C 40.578817 331.413041 36.09688 333.26952 32.792789 336.573611 
C 29.488698 339.877702 27.632219 344.359639 27.632219 349.032329 
C 27.632219 353.705018 29.488698 358.186956 32.792789 361.491047 
C 36.09688 364.795137 40.578817 366.651616 45.251507 366.651616 
z
" clip-path="url(#p92450e5def)" style="fill: #ffffff; stroke: #000000; stroke-width: 2; stroke-linejoin: miter"/>
   </g>
   <g id="patch_15">
    <path d="M 106.007671 427.407781 
C 110.680361 427.407781 115.162298 425.551302 118.466389 422.247211 
C 121.77048 418.94312 123.626959 414.461183 123.626959 409.788493 
C 123.626959 405.115803 121.77048 400.633866 118.466389 397.329775 
C 115.162298 394.025685 110.680361 392.169205 106.007671 392.169205 
C 101.334982 392.169205 96.853044 394.025685 93.548953 397.329775 
C 90.244863 400.633866 88.388384 405.115803 88.388384 409.788493 
C 88.388384 414.461183 90.244863 418.94312 93.548953 422.247211 
C 96.853044 425.551302 101.334982 427.407781 106.007671 427.407781 
z
" clip-path="url(#p92450e5def)" style="fill: #ffffff; stroke: #000000; stroke-width: 2; stroke-linejoin: miter"/>
   </g>
   <g id="patch_16">
    <path d="M 166.763836 366.651616 
C 171.436525 366.651616 175.918463 364.795137 179.222553 361.491047 
C 182.526644 358.186956 184.383123 353.705018 184.383123 349.032329 
C 184.383123 344.359639 182.526644 339.877702 179.222553 336.573611 
C 175.918463 333.26952 171.436525 331.413041 166.763836 331.413041 
C 162.091146 331.413041 157.609208 333.26952 154.305118 336.573611 
C 151.001027 339.877702 149.144548 344.359639 149.144548 349.032329 
C 149.144548 353.705018 151.001027 358.186956 154.305118 361.491047 
C 157.609208 364.795137 162.091146 366.651616 166.763836 366.651616 
z
" clip-path="url(#p92450e5def)" style="fill: #ffffff; stroke: #000000; stroke-width: 2; stroke-linejoin: miter"/>
   </g>
   <g id="patch_17">
    <path d="M 227.52 305.895452 
C 232.19269 305.895452 236.674627 304.038973 239.978718 300.734882 
C 243.282808 297.430792 245.139288 292.948854 245.139288 288.276164 
C 245.139288 283.603475 243.282808 279.121537 239.978718 275.817447 
C 236.674627 272.513356 232.19269 270.656877 227.52 270.656877 
C 222.84731 270.656877 218.365373 272.513356 215.061282 275.817447 
C 211.757192 279.121537 209.900712 283.603475 209.900712 288.276164 
C 209.900712 292.948854 211.757192 297.430792 215.061282 300.734882 
C 218.365373 304.038973 222.84731 305.895452 227.52 305.895452 
z
" clip-path="url(#p92450e5def)" style="fill: #ffffff; stroke: #000000; stroke-width: 2; stroke-linejoin: miter"/>
   </g>
   <g id="patch_18">
    <path d="M 349.032329 305.895452 
C 353.705018 305.895452 358.186956 304.038973 361.491047 300.734882 
C 364.795137 297.430792 366.651616 292.948854 366.651616 288.276164 
C 366.651616 283.603475 364.795137 279.121537 361.491047 275.817447 
C 358.186956 272.513356 353.705018 270.656877 349.032329 270.656877 
C 344.359639 270.656877 339.877702 272.513356 336.573611 275.817447 
C 333.26952 279.121537 331.413041 283.603475 331.413041 288.276164 
C 331.413041 292.948854 333.26952 297.430792 336.573611 300.734882 
C 339.877702 304.038973 344.359639 305.895452 349.032329 305.895452 
z
" clip-path="url(#p92450e5def)" style="fill: #ffffff; stroke: #000000; stroke-width: 2; stroke-linejoin: miter"/>
   </g>
   <g id="patch_19">
    <path d="M 409.788493 366.651616 
C 414.461183 366.651616 418.94312 364.795137 422.247211 361.491047 
C 425.551302 358.186956 427.407781 353.705018 427.407781 349.032329 
C 427.407781 344.359639 425.551302 339.877702 422.247211 336.573611 
C 418.94312 333.26952 414.461183 331.413041 409.788493 331.413041 
C 405.115803 331.413041 400.633866 333.26952 397.329775 336.573611 
C 394.025685 339.877702 392.169205 344.359639 392.169205 349.032329 
C 392.169205 353.705018 394.025685 358.186956 397.329775 361.491047 
C 400.633866 364.795137 405.115803 366.651616 409.788493 366.651616 
z
" clip-path="url(#p92450e5def)" style="fill: #ffffff; stroke: #000000; stroke-width: 2; stroke-linejoin: miter"/>
   </g>
   <g id="patch_20">
    <path d="M 349.032329 427.407781 
C 353.705018 427.407781 358.186956 425.551302 361.491047 422.247211 
C 364.795137 418.94312 366.651616 414.461183 366.651616 409.788493 
C 366.651616 405.115803 364.795137 400.633866 361.491047 397.329775 
C 358.186956 394.025685 353.705018 392.169205 349.032329 392.169205 
C 344.359639 392.169205 339.877702 394.025685 336.573611 397.329775 
C 333.26952 400.633866 331.413041 405.115803 331.413041 409.788493 
C 331.413041 414.461183 333.26952 418.94312 336.573611 422.247211 
C 339.877702 425.551302 344.359639 427.407781 349.032329 427.407781 
z
" clip-path="url(#p92450e5def)" style="fill: #ffffff; stroke: #000000; stroke-width: 2; stroke-linejoin: miter"/>
   </g>
   <g id="patch_21">
    <path d="M 288.276164 366.651616 
C 292.948854 366.651616 297.430792 364.795137 300.734882 361.491047 
C 304.038973 358.186956 305.895452 353.705018 305.895452 349.032329 
C 305.895452 344.359639 304.038973 339.877702 300.734882 336.573611 
C 297.430792 333.26952 292.948854 331.413041 288.276164 331.413041 
C 283.603475 331.413041 279.121537 333.26952 275.817447 336.573611 
C 272.513356 339.877702 270.656877 344.359639 270.656877 349.032329 
C 270.656877 353.705018 272.513356 358.186956 275.817447 361.491047 
C 279.121537 364.795137 283.603475 366.651616 288.276164 366.651616 
z
" clip-path="url(#p92450e5def)" style="fill: #ffffff; stroke: #000000; stroke-width: 2; stroke-linejoin: miter"/>
   </g>
   <g id="text_1">
    <!-- 十九 -->
    <g transform="translate(93.507671 48.657757) scale(0.125 -0.125)">
     <defs>
      <path id="NotoSerifCJKjp-Regular-5341" d="M 282 3021 
L 339 2835 
L 2970 2835 
L 2970 -486 
L 3053 -486 
C 3219 -486 3405 -378 3405 -314 
L 3405 2835 
L 5965 2835 
C 6054 2835 6112 2867 6131 2938 
C 5901 3155 5510 3462 5510 3462 
L 5171 3021 
L 3405 3021 
L 3405 5075 
C 3578 5101 3635 5171 3648 5267 
L 2970 5338 
L 2970 3021 
L 282 3021 
z
" transform="scale(0.015625)"/>
      <path id="NotoSerifCJKjp-Regular-4e5d" d="M 570 3802 
L 627 3616 
L 2291 3616 
C 2202 2067 1837 691 256 -371 
L 339 -480 
C 2234 570 2637 2016 2739 3616 
L 4154 3616 
L 4154 218 
C 4154 -109 4256 -218 4698 -218 
L 5222 -218 
C 6029 -218 6227 -166 6227 19 
C 6227 109 6189 147 6054 198 
L 6035 1146 
L 5952 1146 
C 5882 762 5798 333 5754 230 
C 5728 179 5702 160 5651 154 
C 5581 147 5427 147 5229 147 
L 4787 147 
C 4595 147 4570 186 4570 294 
L 4570 3539 
C 4704 3558 4787 3590 4832 3635 
L 4333 4070 
L 4090 3802 
L 2752 3802 
C 2771 4224 2778 4659 2784 5094 
C 2938 5114 2989 5178 3008 5274 
L 2317 5338 
C 2317 4813 2317 4301 2298 3802 
L 570 3802 
z
" transform="scale(0.015625)"/>
     </defs>
     <use xlink:href="#NotoSerifCJKjp-Regular-5341"/>
     <use xlink:href="#NotoSerifCJKjp-Regular-4e5d" transform="translate(99.999985 0)"/>
    </g>
   </g>
   <g id="text_2">
    <!-- 二 -->
    <g transform="translate(37.751507 110.095171) scale(0.15 -0.15)">
     <defs>
      <path id="NotoSerifCJKjp-Regular-4e8c" d="M 320 621 
L 371 429 
L 5933 429 
C 6029 429 6093 461 6112 531 
C 5850 762 5434 1088 5434 1088 
L 5062 621 
L 320 621 
z
M 915 4173 
L 966 3994 
L 5306 3994 
C 5395 3994 5459 4026 5478 4090 
C 5235 4314 4819 4627 4819 4627 
L 4461 4173 
L 915 4173 
z
" transform="scale(0.015625)"/>
     </defs>
     <use xlink:href="#NotoSerifCJKjp-Regular-4e8c"/>
    </g>
   </g>
   <g id="text_3">
    <!-- 十四 -->
    <g transform="translate(93.507671 170.170086) scale(0.125 -0.125)">
     <defs>
      <path id="NotoSerifCJKjp-Regular-56db" d="M 5338 4365 
L 5338 486 
L 1043 486 
L 1043 4365 
L 2342 4365 
C 2323 3226 2246 2202 1126 1434 
L 1216 1325 
C 2586 2067 2720 3123 2765 4365 
L 3552 4365 
L 3552 2042 
C 3552 1773 3616 1664 3994 1664 
L 4378 1664 
C 5011 1664 5171 1741 5171 1914 
C 5171 1990 5152 2035 5024 2086 
L 5005 2950 
L 4922 2950 
C 4858 2605 4794 2202 4762 2112 
C 4736 2054 4717 2048 4672 2042 
C 4621 2035 4518 2035 4384 2035 
L 4090 2035 
C 3955 2035 3942 2061 3942 2144 
L 3942 4365 
L 5338 4365 
z
M 634 4550 
L 634 -275 
L 704 -275 
C 890 -275 1043 -166 1043 -122 
L 1043 301 
L 5338 301 
L 5338 -237 
L 5402 -237 
C 5549 -237 5747 -128 5754 -83 
L 5754 4288 
C 5882 4314 5990 4365 6035 4416 
L 5510 4826 
L 5274 4550 
L 1088 4550 
L 634 4768 
L 634 4550 
z
" transform="scale(0.015625)"/>
     </defs>
     <use xlink:href="#NotoSerifCJKjp-Regular-5341"/>
     <use xlink:href="#NotoSerifCJKjp-Regular-56db" transform="translate(99.999985 0)"/>
    </g>
   </g>
   <g id="text_4">
    <!-- 五 -->
    <g transform="translate(159.263836 231.6075) scale(0.15 -0.15)">
     <defs>
      <path id="NotoSerifCJKjp-Regular-4e94" d="M 928 2726 
L 986 2541 
L 2317 2541 
C 2125 1658 1920 755 1747 96 
L 243 96 
L 301 -96 
L 5990 -96 
C 6086 -96 6150 -64 6170 6 
C 5939 224 5562 525 5562 525 
L 5235 96 
L 4768 96 
L 4768 2464 
C 4902 2490 4998 2541 5043 2592 
L 4531 2989 
L 4288 2726 
L 2784 2726 
C 2918 3347 3046 3955 3142 4448 
L 5606 4448 
C 5702 4448 5760 4474 5773 4544 
C 5555 4755 5184 5043 5184 5043 
L 4851 4627 
L 646 4627 
L 704 4448 
L 2701 4448 
C 2611 3955 2490 3354 2355 2726 
L 928 2726 
z
M 2182 96 
C 2349 749 2554 1651 2746 2541 
L 4352 2541 
L 4352 96 
L 2182 96 
z
" transform="scale(0.015625)"/>
     </defs>
     <use xlink:href="#NotoSerifCJKjp-Regular-4e94"/>
    </g>
   </g>
   <g id="text_5">
    <!-- 十六 -->
    <g transform="translate(215.02 170.170086) scale(0.125 -0.125)">
     <defs>
      <path id="NotoSerifCJKjp-Regular-516d" d="M 2125 2720 
C 1702 1517 973 435 256 -205 
L 339 -282 
C 1197 269 1978 1184 2509 2349 
C 2650 2330 2733 2374 2765 2445 
L 2125 2720 
z
M 4013 2662 
L 3923 2605 
C 4570 1914 5421 762 5626 -77 
C 6214 -525 6477 960 4013 2662 
z
M 358 3776 
L 416 3590 
L 5914 3590 
C 6003 3590 6067 3622 6080 3686 
C 5850 3904 5472 4192 5472 4192 
L 5133 3776 
L 3405 3776 
L 3405 5011 
C 3565 5030 3629 5094 3642 5184 
L 2976 5254 
L 2976 3776 
L 358 3776 
z
" transform="scale(0.015625)"/>
     </defs>
     <use xlink:href="#NotoSerifCJKjp-Regular-5341"/>
     <use xlink:href="#NotoSerifCJKjp-Regular-516d" transform="translate(99.999985 0)"/>
    </g>
   </g>
   <g id="text_6">
    <!-- 七 -->
    <g transform="translate(159.263836 110.095171) scale(0.15 -0.15)">
     <defs>
      <path id="NotoSerifCJKjp-Regular-4e03" d="M 256 2618 
L 339 2451 
L 2259 2784 
L 2259 390 
C 2259 -64 2470 -198 3130 -198 
L 4077 -198 
C 5453 -198 5741 -134 5741 109 
C 5741 198 5690 250 5517 307 
L 5498 1338 
L 5414 1338 
C 5312 851 5222 461 5165 339 
C 5126 275 5082 250 4986 243 
C 4845 224 4531 218 4090 218 
L 3162 218 
C 2765 218 2682 294 2682 499 
L 2682 2861 
L 5984 3437 
C 6067 3450 6131 3501 6131 3571 
C 5875 3731 5459 3962 5459 3962 
L 5197 3482 
L 2682 3040 
L 2682 5037 
C 2842 5056 2899 5133 2906 5216 
L 2259 5293 
L 2259 2970 
L 256 2618 
z
" transform="scale(0.015625)"/>
     </defs>
     <use xlink:href="#NotoSerifCJKjp-Regular-4e03"/>
    </g>
   </g>
   <g id="text_7">
    <!-- 十七 -->
    <g transform="translate(336.532329 48.657757) scale(0.125 -0.125)">
     <use xlink:href="#NotoSerifCJKjp-Regular-5341"/>
     <use xlink:href="#NotoSerifCJKjp-Regular-4e03" transform="translate(99.999985 0)"/>
    </g>
   </g>
   <g id="text_8">
    <!-- 四 -->
    <g transform="translate(280.776164 110.095171) scale(0.15 -0.15)">
     <use xlink:href="#NotoSerifCJKjp-Regular-56db"/>
    </g>
   </g>
   <g id="text_9">
    <!-- 九 -->
    <g transform="translate(402.288493 110.095171) scale(0.15 -0.15)">
     <use xlink:href="#NotoSerifCJKjp-Regular-4e5d"/>
    </g>
   </g>
   <g id="text_10">
    <!-- 十二 -->
    <g transform="translate(336.532329 170.170086) scale(0.125 -0.125)">
     <use xlink:href="#NotoSerifCJKjp-Regular-5341"/>
     <use xlink:href="#NotoSerifCJKjp-Regular-4e8c" transform="translate(99.999985 0)"/>
    </g>
   </g>
   <g id="text_11">
    <!-- 十 -->
    <g transform="translate(282.026164 230.92625) scale(0.125 -0.125)">
     <use xlink:href="#NotoSerifCJKjp-Regular-5341"/>
    </g>
   </g>
   <g id="text_12">
    <!-- 十八 -->
    <g transform="translate(93.507671 291.682414) scale(0.125 -0.125)">
     <defs>
      <path id="NotoSerifCJKjp-Regular-516b" d="M 2054 3750 
C 1888 1971 1280 499 250 -282 
L 333 -358 
C 1574 358 2272 1754 2541 3456 
C 2688 3462 2758 3533 2778 3616 
L 2054 3750 
z
M 1830 4806 
L 1888 4614 
L 3770 4614 
C 3994 2406 4435 730 5702 -301 
C 5779 -134 5952 13 6150 51 
L 6182 128 
C 4774 992 4205 2720 3962 4518 
C 4211 4531 4378 4582 4467 4678 
L 3840 5146 
L 3603 4806 
L 1830 4806 
z
" transform="scale(0.015625)"/>
     </defs>
     <use xlink:href="#NotoSerifCJKjp-Regular-5341"/>
     <use xlink:href="#NotoSerifCJKjp-Regular-516b" transform="translate(99.999985 0)"/>
    </g>
   </g>
   <g id="text_13">
    <!-- 三 -->
    <g transform="translate(37.751507 353.119829) scale(0.15 -0.15)">
     <defs>
      <path id="NotoSerifCJKjp-Regular-4e09" d="M 5229 5030 
L 4890 4602 
L 621 4602 
L 678 4416 
L 5690 4416 
C 5786 4416 5850 4448 5862 4518 
C 5626 4736 5229 5030 5229 5030 
z
M 4627 2938 
L 4288 2522 
L 1088 2522 
L 1139 2330 
L 5075 2330 
C 5171 2330 5235 2362 5242 2432 
C 5011 2643 4627 2938 4627 2938 
z
M 5542 666 
L 5178 218 
L 262 218 
L 320 26 
L 6022 26 
C 6112 26 6176 58 6195 128 
C 5946 358 5542 666 5542 666 
z
" transform="scale(0.015625)"/>
     </defs>
     <use xlink:href="#NotoSerifCJKjp-Regular-4e09"/>
    </g>
   </g>
   <g id="text_14">
    <!-- 十三 -->
    <g transform="translate(93.507671 413.194743) scale(0.125 -0.125)">
     <use xlink:href="#NotoSerifCJKjp-Regular-5341"/>
     <use xlink:href="#NotoSerifCJKjp-Regular-4e09" transform="translate(99.999985 0)"/>
    </g>
   </g>
   <g id="text_15">
    <!-- 八 -->
    <g transform="translate(159.263836 353.119829) scale(0.15 -0.15)">
     <use xlink:href="#NotoSerifCJKjp-Regular-516b"/>
    </g>
   </g>
   <g id="text_16">
    <!-- 十一 -->
    <g transform="translate(215.02 291.682414) scale(0.125 -0.125)">
     <defs>
      <path id="NotoSerifCJKjp-Regular-4e00" d="M 5382 3290 
L 4979 2758 
L 307 2758 
L 371 2547 
L 5939 2547 
C 6042 2547 6118 2566 6138 2643 
C 5850 2912 5382 3290 5382 3290 
z
" transform="scale(0.015625)"/>
     </defs>
     <use xlink:href="#NotoSerifCJKjp-Regular-5341"/>
     <use xlink:href="#NotoSerifCJKjp-Regular-4e00" transform="translate(99.999985 0)"/>
    </g>
   </g>
   <g id="text_17">
    <!-- 六 -->
    <g transform="translate(341.532329 292.363664) scale(0.15 -0.15)">
     <use xlink:href="#NotoSerifCJKjp-Regular-516d"/>
    </g>
   </g>
   <g id="text_18">
    <!-- 一 -->
    <g transform="translate(402.288493 353.119829) scale(0.15 -0.15)">
     <use xlink:href="#NotoSerifCJKjp-Regular-4e00"/>
    </g>
   </g>
   <g id="text_19">
    <!-- 二十 -->
    <g transform="translate(336.532329 413.194743) scale(0.125 -0.125)">
     <use xlink:href="#NotoSerifCJKjp-Regular-4e8c"/>
     <use xlink:href="#NotoSerifCJKjp-Regular-5341" transform="translate(99.999985 0)"/>
    </g>
   </g>
   <g id="text_20">
    <!-- 十五 -->
    <g transform="translate(275.776164 352.438579) scale(0.125 -0.125)">
     <use xlink:href="#NotoSerifCJKjp-Regular-5341"/>
     <use xlink:href="#NotoSerifCJKjp-Regular-4e94" transform="translate(99.999985 0)"/>
    </g>
   </g>
  </g>
 </g>
 <defs>
  <clipPath id="p92450e5def">
   <rect x="5.76" y="5.76" width="443.52" height="443.52"/>
  </clipPath>
 </defs>
</svg>
