<?xml version="1.0" encoding="utf-8" standalone="no"?>
<!DOCTYPE svg PUBLIC "-//W3C//DTD SVG 1.1//EN"
  "http://www.w3.org/Graphics/SVG/1.1/DTD/svg11.dtd">
<svg xmlns:xlink="http://www.w3.org/1999/xlink" width="784.8pt" height="784.8pt" viewBox="0 0 784.8 784.8" xmlns="http://www.w3.org/2000/svg" version="1.1">
 <metadata>
  <rdf:RDF xmlns:dc="http://purl.org/dc/elements/1.1/" xmlns:cc="http://creativecommons.org/ns#" xmlns:rdf="http://www.w3.org/1999/02/22-rdf-syntax-ns#">
   <cc:Work>
    <dc:type rdf:resource="http://purl.org/dc/dcmitype/StillImage"/>
    <dc:date>2026-07-16T23:00:52.731179</dc:date>
    <dc:format>image/svg+xml</dc:format>
    <dc:creator>
     <cc:Agent>
      <dc:title>Matplotlib v3.11.0, https://matplotlib.org/</dc:title>
     </cc:Agent>
    </dc:creator>
   </cc:Work>
  </rdf:RDF>
 </metadata>
 <defs>
  <style type="text/css">*{stroke-linejoin: round; stroke-linecap: butt}</style>
 </defs>
 <g id="figure_1">
  <g id="patch_1">
   <path d="M 0 784.8 
L 784.8 784.8 
L 784.8 0 
L 0 0 
z
" style="fill: #ffffff"/>
  </g>
  <g id="axes_1">
   <g id="line2d_1">
    <path d="M 113.13 79.425 
L 113.13 223.875 
" clip-path="url(#p0b23202104)" style="fill: none; stroke: #000000; stroke-width: 1.4; stroke-linecap: square"/>
   </g>
   <g id="line2d_2">
    <path d="M 170.91 79.425 
L 170.91 127.575 
" clip-path="url(#p0b23202104)" style="fill: none; stroke: #000000; stroke-width: 1.4; stroke-linecap: square"/>
   </g>
   <g id="line2d_3">
    <path d="M 170.91 127.575 
L 170.91 175.725 
" clip-path="url(#p0b23202104)" style="fill: none; stroke: #000000; stroke-width: 1.4; stroke-linecap: square"/>
   </g>
   <g id="line2d_4">
    <path d="M 170.91 175.725 
L 170.91 223.875 
" clip-path="url(#p0b23202104)" style="fill: none; stroke: #000000; stroke-width: 1.4; stroke-linecap: square"/>
   </g>
   <g id="line2d_5">
    <path d="M 84.24 127.575 
L 84.24 175.725 
" clip-path="url(#p0b23202104)" style="fill: none; stroke: #000000; stroke-width: 1.4; stroke-linecap: square"/>
   </g>
   <g id="line2d_6">
    <path d="M 353.88 79.425 
L 430.92 79.425 
" clip-path="url(#p0b23202104)" style="fill: none; stroke: #000000; stroke-width: 1.4; stroke-linecap: square"/>
   </g>
   <g id="line2d_7">
    <path d="M 305.73 127.575 
L 479.07 127.575 
" clip-path="url(#p0b23202104)" style="fill: none; stroke: #000000; stroke-width: 1.4; stroke-linecap: square"/>
   </g>
   <g id="line2d_8">
    <path d="M 305.73 175.725 
L 479.07 175.725 
" clip-path="url(#p0b23202104)" style="fill: none; stroke: #000000; stroke-width: 1.4; stroke-linecap: square"/>
   </g>
   <g id="line2d_9">
    <path d="M 353.88 223.875 
L 430.92 223.875 
" clip-path="url(#p0b23202104)" style="fill: none; stroke: #000000; stroke-width: 1.4; stroke-linecap: square"/>
   </g>
   <g id="line2d_10">
    <path d="M 613.89 79.425 
L 613.89 223.875 
" clip-path="url(#p0b23202104)" style="fill: none; stroke: #000000; stroke-width: 1.4; stroke-linecap: square"/>
   </g>
   <g id="line2d_11">
    <path d="M 671.67 79.425 
L 671.67 223.875 
" clip-path="url(#p0b23202104)" style="fill: none; stroke: #000000; stroke-width: 1.4; stroke-linecap: square"/>
   </g>
   <g id="line2d_12">
    <path d="M 585 127.575 
L 585 175.725 
" clip-path="url(#p0b23202104)" style="fill: none; stroke: #000000; stroke-width: 1.4; stroke-linecap: square"/>
   </g>
   <g id="line2d_13">
    <path d="M 700.56 127.575 
L 700.56 175.725 
" clip-path="url(#p0b23202104)" style="fill: none; stroke: #000000; stroke-width: 1.4; stroke-linecap: square"/>
   </g>
   <g id="line2d_14">
    <path d="M 113.13 320.175 
L 113.13 464.625 
" clip-path="url(#p0b23202104)" style="fill: none; stroke: #000000; stroke-width: 1.4; stroke-linecap: square"/>
   </g>
   <g id="line2d_15">
    <path d="M 170.91 320.175 
L 170.91 464.625 
" clip-path="url(#p0b23202104)" style="fill: none; stroke: #000000; stroke-width: 1.4; stroke-linecap: square"/>
   </g>
   <g id="line2d_16">
    <path d="M 84.24 368.325 
L 84.24 416.475 
" clip-path="url(#p0b23202104)" style="fill: none; stroke: #000000; stroke-width: 1.4; stroke-linecap: square"/>
   </g>
   <g id="line2d_17">
    <path d="M 199.8 368.325 
L 199.8 416.475 
" clip-path="url(#p0b23202104)" style="fill: none; stroke: #000000; stroke-width: 1.4; stroke-linecap: square"/>
   </g>
   <g id="line2d_18">
    <path d="M 613.89 320.175 
L 613.89 464.625 
" clip-path="url(#p0b23202104)" style="fill: none; stroke: #000000; stroke-width: 1.4; stroke-linecap: square"/>
   </g>
   <g id="line2d_19">
    <path d="M 671.67 320.175 
L 671.67 464.625 
" clip-path="url(#p0b23202104)" style="fill: none; stroke: #000000; stroke-width: 1.4; stroke-linecap: square"/>
   </g>
   <g id="line2d_20">
    <path d="M 585 368.325 
L 585 416.475 
" clip-path="url(#p0b23202104)" style="fill: none; stroke: #000000; stroke-width: 1.4; stroke-linecap: square"/>
   </g>
   <g id="line2d_21">
    <path d="M 700.56 368.325 
L 700.56 416.475 
" clip-path="url(#p0b23202104)" style="fill: none; stroke: #000000; stroke-width: 1.4; stroke-linecap: square"/>
   </g>
   <g id="line2d_22">
    <path d="M 113.13 560.925 
L 113.13 705.375 
" clip-path="url(#p0b23202104)" style="fill: none; stroke: #000000; stroke-width: 1.4; stroke-linecap: square"/>
   </g>
   <g id="line2d_23">
    <path d="M 170.91 560.925 
L 170.91 705.375 
" clip-path="url(#p0b23202104)" style="fill: none; stroke: #000000; stroke-width: 1.4; stroke-linecap: square"/>
   </g>
   <g id="line2d_24">
    <path d="M 84.24 609.075 
L 84.24 657.225 
" clip-path="url(#p0b23202104)" style="fill: none; stroke: #000000; stroke-width: 1.4; stroke-linecap: square"/>
   </g>
   <g id="line2d_25">
    <path d="M 199.8 609.075 
L 199.8 657.225 
" clip-path="url(#p0b23202104)" style="fill: none; stroke: #000000; stroke-width: 1.4; stroke-linecap: square"/>
   </g>
   <g id="line2d_26">
    <path d="M 353.88 560.925 
L 430.92 560.925 
" clip-path="url(#p0b23202104)" style="fill: none; stroke: #000000; stroke-width: 1.4; stroke-linecap: square"/>
   </g>
   <g id="line2d_27">
    <path d="M 305.73 609.075 
L 479.07 609.075 
" clip-path="url(#p0b23202104)" style="fill: none; stroke: #000000; stroke-width: 1.4; stroke-linecap: square"/>
   </g>
   <g id="line2d_28">
    <path d="M 305.73 657.225 
L 479.07 657.225 
" clip-path="url(#p0b23202104)" style="fill: none; stroke: #000000; stroke-width: 1.4; stroke-linecap: square"/>
   </g>
   <g id="line2d_29">
    <path d="M 353.88 705.375 
L 430.92 705.375 
" clip-path="url(#p0b23202104)" style="fill: none; stroke: #000000; stroke-width: 1.4; stroke-linecap: square"/>
   </g>
   <g id="line2d_30">
    <path d="M 613.89 560.925 
L 613.89 705.375 
" clip-path="url(#p0b23202104)" style="fill: none; stroke: #000000; stroke-width: 1.4; stroke-linecap: square"/>
   </g>
   <g id="line2d_31">
    <path d="M 671.67 560.925 
L 671.67 705.375 
" clip-path="url(#p0b23202104)" style="fill: none; stroke: #000000; stroke-width: 1.4; stroke-linecap: square"/>
   </g>
   <g id="line2d_32">
    <path d="M 585 609.075 
L 585 657.225 
" clip-path="url(#p0b23202104)" style="fill: none; stroke: #000000; stroke-width: 1.4; stroke-linecap: square"/>
   </g>
   <g id="line2d_33">
    <path d="M 700.56 609.075 
L 700.56 657.225 
" clip-path="url(#p0b23202104)" style="fill: none; stroke: #000000; stroke-width: 1.4; stroke-linecap: square"/>
   </g>
   <g id="patch_2">
    <path d="M 113.13 93.87 
C 116.960859 93.87 120.635331 92.347984 123.344157 89.639157 
C 126.052984 86.930331 127.575 83.255859 127.575 79.425 
C 127.575 75.594141 126.052984 71.919669 123.344157 69.210843 
C 120.635331 66.502016 116.960859 64.98 113.13 64.98 
C 109.299141 64.98 105.624669 66.502016 102.915843 69.210843 
C 100.207016 71.919669 98.685 75.594141 98.685 79.425 
C 98.685 83.255859 100.207016 86.930331 102.915843 89.639157 
C 105.624669 92.347984 109.299141 93.87 113.13 93.87 
z
" clip-path="url(#p0b23202104)" style="fill: #ffffff; stroke: #000000; stroke-width: 1.5; stroke-linejoin: miter"/>
   </g>
   <g id="patch_3">
    <path d="M 170.91 93.87 
C 174.740859 93.87 178.415331 92.347984 181.124157 89.639157 
C 183.832984 86.930331 185.355 83.255859 185.355 79.425 
C 185.355 75.594141 183.832984 71.919669 181.124157 69.210843 
C 178.415331 66.502016 174.740859 64.98 170.91 64.98 
C 167.079141 64.98 163.404669 66.502016 160.695843 69.210843 
C 157.987016 71.919669 156.465 75.594141 156.465 79.425 
C 156.465 83.255859 157.987016 86.930331 160.695843 89.639157 
C 163.404669 92.347984 167.079141 93.87 170.91 93.87 
z
" clip-path="url(#p0b23202104)" style="fill: #ffffff; stroke: #000000; stroke-width: 1.5; stroke-linejoin: miter"/>
   </g>
   <g id="patch_4">
    <path d="M 84.24 142.02 
C 88.070859 142.02 91.745331 140.497984 94.454157 137.789157 
C 97.162984 135.080331 98.685 131.405859 98.685 127.575 
C 98.685 123.744141 97.162984 120.069669 94.454157 117.360843 
C 91.745331 114.652016 88.070859 113.13 84.24 113.13 
C 80.409141 113.13 76.734669 114.652016 74.025843 117.360843 
C 71.317016 120.069669 69.795 123.744141 69.795 127.575 
C 69.795 131.405859 71.317016 135.080331 74.025843 137.789157 
C 76.734669 140.497984 80.409141 142.02 84.24 142.02 
z
" clip-path="url(#p0b23202104)" style="fill: #ffffff; stroke: #000000; stroke-width: 1.5; stroke-linejoin: miter"/>
   </g>
   <g id="patch_5">
    <path d="M 170.91 142.02 
C 174.740859 142.02 178.415331 140.497984 181.124157 137.789157 
C 183.832984 135.080331 185.355 131.405859 185.355 127.575 
C 185.355 123.744141 183.832984 120.069669 181.124157 117.360843 
C 178.415331 114.652016 174.740859 113.13 170.91 113.13 
C 167.079141 113.13 163.404669 114.652016 160.695843 117.360843 
C 157.987016 120.069669 156.465 123.744141 156.465 127.575 
C 156.465 131.405859 157.987016 135.080331 160.695843 137.789157 
C 163.404669 140.497984 167.079141 142.02 170.91 142.02 
z
" clip-path="url(#p0b23202104)" style="fill: #ffffff; stroke: #000000; stroke-width: 1.5; stroke-linejoin: miter"/>
   </g>
   <g id="patch_6">
    <path d="M 84.24 190.17 
C 88.070859 190.17 91.745331 188.647984 94.454157 185.939157 
C 97.162984 183.230331 98.685 179.555859 98.685 175.725 
C 98.685 171.894141 97.162984 168.219669 94.454157 165.510843 
C 91.745331 162.802016 88.070859 161.28 84.24 161.28 
C 80.409141 161.28 76.734669 162.802016 74.025843 165.510843 
C 71.317016 168.219669 69.795 171.894141 69.795 175.725 
C 69.795 179.555859 71.317016 183.230331 74.025843 185.939157 
C 76.734669 188.647984 80.409141 190.17 84.24 190.17 
z
" clip-path="url(#p0b23202104)" style="fill: #ffffff; stroke: #000000; stroke-width: 1.5; stroke-linejoin: miter"/>
   </g>
   <g id="patch_7">
    <path d="M 170.91 190.17 
C 174.740859 190.17 178.415331 188.647984 181.124157 185.939157 
C 183.832984 183.230331 185.355 179.555859 185.355 175.725 
C 185.355 171.894141 183.832984 168.219669 181.124157 165.510843 
C 178.415331 162.802016 174.740859 161.28 170.91 161.28 
C 167.079141 161.28 163.404669 162.802016 160.695843 165.510843 
C 157.987016 168.219669 156.465 171.894141 156.465 175.725 
C 156.465 179.555859 157.987016 183.230331 160.695843 185.939157 
C 163.404669 188.647984 167.079141 190.17 170.91 190.17 
z
" clip-path="url(#p0b23202104)" style="fill: #ffffff; stroke: #000000; stroke-width: 1.5; stroke-linejoin: miter"/>
   </g>
   <g id="patch_8">
    <path d="M 113.13 238.32 
C 116.960859 238.32 120.635331 236.797984 123.344157 234.089157 
C 126.052984 231.380331 127.575 227.705859 127.575 223.875 
C 127.575 220.044141 126.052984 216.369669 123.344157 213.660843 
C 120.635331 210.952016 116.960859 209.43 113.13 209.43 
C 109.299141 209.43 105.624669 210.952016 102.915843 213.660843 
C 100.207016 216.369669 98.685 220.044141 98.685 223.875 
C 98.685 227.705859 100.207016 231.380331 102.915843 234.089157 
C 105.624669 236.797984 109.299141 238.32 113.13 238.32 
z
" clip-path="url(#p0b23202104)" style="fill: #ffffff; stroke: #000000; stroke-width: 1.5; stroke-linejoin: miter"/>
   </g>
   <g id="patch_9">
    <path d="M 170.91 238.32 
C 174.740859 238.32 178.415331 236.797984 181.124157 234.089157 
C 183.832984 231.380331 185.355 227.705859 185.355 223.875 
C 185.355 220.044141 183.832984 216.369669 181.124157 213.660843 
C 178.415331 210.952016 174.740859 209.43 170.91 209.43 
C 167.079141 209.43 163.404669 210.952016 160.695843 213.660843 
C 157.987016 216.369669 156.465 220.044141 156.465 223.875 
C 156.465 227.705859 157.987016 231.380331 160.695843 234.089157 
C 163.404669 236.797984 167.079141 238.32 170.91 238.32 
z
" clip-path="url(#p0b23202104)" style="fill: #ffffff; stroke: #000000; stroke-width: 1.5; stroke-linejoin: miter"/>
   </g>
   <g id="patch_10">
    <path d="M 353.88 93.87 
C 357.710859 93.87 361.385331 92.347984 364.094157 89.639157 
C 366.802984 86.930331 368.325 83.255859 368.325 79.425 
C 368.325 75.594141 366.802984 71.919669 364.094157 69.210843 
C 361.385331 66.502016 357.710859 64.98 353.88 64.98 
C 350.049141 64.98 346.374669 66.502016 343.665843 69.210843 
C 340.957016 71.919669 339.435 75.594141 339.435 79.425 
C 339.435 83.255859 340.957016 86.930331 343.665843 89.639157 
C 346.374669 92.347984 350.049141 93.87 353.88 93.87 
z
" clip-path="url(#p0b23202104)" style="fill: #ffffff; stroke: #000000; stroke-width: 1.5; stroke-linejoin: miter"/>
   </g>
   <g id="patch_11">
    <path d="M 430.92 93.87 
C 434.750859 93.87 438.425331 92.347984 441.134157 89.639157 
C 443.842984 86.930331 445.365 83.255859 445.365 79.425 
C 445.365 75.594141 443.842984 71.919669 441.134157 69.210843 
C 438.425331 66.502016 434.750859 64.98 430.92 64.98 
C 427.089141 64.98 423.414669 66.502016 420.705843 69.210843 
C 417.997016 71.919669 416.475 75.594141 416.475 79.425 
C 416.475 83.255859 417.997016 86.930331 420.705843 89.639157 
C 423.414669 92.347984 427.089141 93.87 430.92 93.87 
z
" clip-path="url(#p0b23202104)" style="fill: #ffffff; stroke: #000000; stroke-width: 1.5; stroke-linejoin: miter"/>
   </g>
   <g id="patch_12">
    <path d="M 305.73 142.02 
C 309.560859 142.02 313.235331 140.497984 315.944157 137.789157 
C 318.652984 135.080331 320.175 131.405859 320.175 127.575 
C 320.175 123.744141 318.652984 120.069669 315.944157 117.360843 
C 313.235331 114.652016 309.560859 113.13 305.73 113.13 
C 301.899141 113.13 298.224669 114.652016 295.515843 117.360843 
C 292.807016 120.069669 291.285 123.744141 291.285 127.575 
C 291.285 131.405859 292.807016 135.080331 295.515843 137.789157 
C 298.224669 140.497984 301.899141 142.02 305.73 142.02 
z
" clip-path="url(#p0b23202104)" style="fill: #ffffff; stroke: #000000; stroke-width: 1.5; stroke-linejoin: miter"/>
   </g>
   <g id="patch_13">
    <path d="M 479.07 142.02 
C 482.900859 142.02 486.575331 140.497984 489.284157 137.789157 
C 491.992984 135.080331 493.515 131.405859 493.515 127.575 
C 493.515 123.744141 491.992984 120.069669 489.284157 117.360843 
C 486.575331 114.652016 482.900859 113.13 479.07 113.13 
C 475.239141 113.13 471.564669 114.652016 468.855843 117.360843 
C 466.147016 120.069669 464.625 123.744141 464.625 127.575 
C 464.625 131.405859 466.147016 135.080331 468.855843 137.789157 
C 471.564669 140.497984 475.239141 142.02 479.07 142.02 
z
" clip-path="url(#p0b23202104)" style="fill: #ffffff; stroke: #000000; stroke-width: 1.5; stroke-linejoin: miter"/>
   </g>
   <g id="patch_14">
    <path d="M 305.73 190.17 
C 309.560859 190.17 313.235331 188.647984 315.944157 185.939157 
C 318.652984 183.230331 320.175 179.555859 320.175 175.725 
C 320.175 171.894141 318.652984 168.219669 315.944157 165.510843 
C 313.235331 162.802016 309.560859 161.28 305.73 161.28 
C 301.899141 161.28 298.224669 162.802016 295.515843 165.510843 
C 292.807016 168.219669 291.285 171.894141 291.285 175.725 
C 291.285 179.555859 292.807016 183.230331 295.515843 185.939157 
C 298.224669 188.647984 301.899141 190.17 305.73 190.17 
z
" clip-path="url(#p0b23202104)" style="fill: #ffffff; stroke: #000000; stroke-width: 1.5; stroke-linejoin: miter"/>
   </g>
   <g id="patch_15">
    <path d="M 479.07 190.17 
C 482.900859 190.17 486.575331 188.647984 489.284157 185.939157 
C 491.992984 183.230331 493.515 179.555859 493.515 175.725 
C 493.515 171.894141 491.992984 168.219669 489.284157 165.510843 
C 486.575331 162.802016 482.900859 161.28 479.07 161.28 
C 475.239141 161.28 471.564669 162.802016 468.855843 165.510843 
C 466.147016 168.219669 464.625 171.894141 464.625 175.725 
C 464.625 179.555859 466.147016 183.230331 468.855843 185.939157 
C 471.564669 188.647984 475.239141 190.17 479.07 190.17 
z
" clip-path="url(#p0b23202104)" style="fill: #ffffff; stroke: #000000; stroke-width: 1.5; stroke-linejoin: miter"/>
   </g>
   <g id="patch_16">
    <path d="M 353.88 238.32 
C 357.710859 238.32 361.385331 236.797984 364.094157 234.089157 
C 366.802984 231.380331 368.325 227.705859 368.325 223.875 
C 368.325 220.044141 366.802984 216.369669 364.094157 213.660843 
C 361.385331 210.952016 357.710859 209.43 353.88 209.43 
C 350.049141 209.43 346.374669 210.952016 343.665843 213.660843 
C 340.957016 216.369669 339.435 220.044141 339.435 223.875 
C 339.435 227.705859 340.957016 231.380331 343.665843 234.089157 
C 346.374669 236.797984 350.049141 238.32 353.88 238.32 
z
" clip-path="url(#p0b23202104)" style="fill: #ffffff; stroke: #000000; stroke-width: 1.5; stroke-linejoin: miter"/>
   </g>
   <g id="patch_17">
    <path d="M 430.92 238.32 
C 434.750859 238.32 438.425331 236.797984 441.134157 234.089157 
C 443.842984 231.380331 445.365 227.705859 445.365 223.875 
C 445.365 220.044141 443.842984 216.369669 441.134157 213.660843 
C 438.425331 210.952016 434.750859 209.43 430.92 209.43 
C 427.089141 209.43 423.414669 210.952016 420.705843 213.660843 
C 417.997016 216.369669 416.475 220.044141 416.475 223.875 
C 416.475 227.705859 417.997016 231.380331 420.705843 234.089157 
C 423.414669 236.797984 427.089141 238.32 430.92 238.32 
z
" clip-path="url(#p0b23202104)" style="fill: #ffffff; stroke: #000000; stroke-width: 1.5; stroke-linejoin: miter"/>
   </g>
   <g id="patch_18">
    <path d="M 613.89 93.87 
C 617.720859 93.87 621.395331 92.347984 624.104157 89.639157 
C 626.812984 86.930331 628.335 83.255859 628.335 79.425 
C 628.335 75.594141 626.812984 71.919669 624.104157 69.210843 
C 621.395331 66.502016 617.720859 64.98 613.89 64.98 
C 610.059141 64.98 606.384669 66.502016 603.675843 69.210843 
C 600.967016 71.919669 599.445 75.594141 599.445 79.425 
C 599.445 83.255859 600.967016 86.930331 603.675843 89.639157 
C 606.384669 92.347984 610.059141 93.87 613.89 93.87 
z
" clip-path="url(#p0b23202104)" style="fill: #ffffff; stroke: #000000; stroke-width: 1.5; stroke-linejoin: miter"/>
   </g>
   <g id="patch_19">
    <path d="M 671.67 93.87 
C 675.500859 93.87 679.175331 92.347984 681.884157 89.639157 
C 684.592984 86.930331 686.115 83.255859 686.115 79.425 
C 686.115 75.594141 684.592984 71.919669 681.884157 69.210843 
C 679.175331 66.502016 675.500859 64.98 671.67 64.98 
C 667.839141 64.98 664.164669 66.502016 661.455843 69.210843 
C 658.747016 71.919669 657.225 75.594141 657.225 79.425 
C 657.225 83.255859 658.747016 86.930331 661.455843 89.639157 
C 664.164669 92.347984 667.839141 93.87 671.67 93.87 
z
" clip-path="url(#p0b23202104)" style="fill: #ffffff; stroke: #000000; stroke-width: 1.5; stroke-linejoin: miter"/>
   </g>
   <g id="patch_20">
    <path d="M 585 142.02 
C 588.830859 142.02 592.505331 140.497984 595.214157 137.789157 
C 597.922984 135.080331 599.445 131.405859 599.445 127.575 
C 599.445 123.744141 597.922984 120.069669 595.214157 117.360843 
C 592.505331 114.652016 588.830859 113.13 585 113.13 
C 581.169141 113.13 577.494669 114.652016 574.785843 117.360843 
C 572.077016 120.069669 570.555 123.744141 570.555 127.575 
C 570.555 131.405859 572.077016 135.080331 574.785843 137.789157 
C 577.494669 140.497984 581.169141 142.02 585 142.02 
z
" clip-path="url(#p0b23202104)" style="fill: #ffffff; stroke: #000000; stroke-width: 1.5; stroke-linejoin: miter"/>
   </g>
   <g id="patch_21">
    <path d="M 700.56 142.02 
C 704.390859 142.02 708.065331 140.497984 710.774157 137.789157 
C 713.482984 135.080331 715.005 131.405859 715.005 127.575 
C 715.005 123.744141 713.482984 120.069669 710.774157 117.360843 
C 708.065331 114.652016 704.390859 113.13 700.56 113.13 
C 696.729141 113.13 693.054669 114.652016 690.345843 117.360843 
C 687.637016 120.069669 686.115 123.744141 686.115 127.575 
C 686.115 131.405859 687.637016 135.080331 690.345843 137.789157 
C 693.054669 140.497984 696.729141 142.02 700.56 142.02 
z
" clip-path="url(#p0b23202104)" style="fill: #ffffff; stroke: #000000; stroke-width: 1.5; stroke-linejoin: miter"/>
   </g>
   <g id="patch_22">
    <path d="M 585 190.17 
C 588.830859 190.17 592.505331 188.647984 595.214157 185.939157 
C 597.922984 183.230331 599.445 179.555859 599.445 175.725 
C 599.445 171.894141 597.922984 168.219669 595.214157 165.510843 
C 592.505331 162.802016 588.830859 161.28 585 161.28 
C 581.169141 161.28 577.494669 162.802016 574.785843 165.510843 
C 572.077016 168.219669 570.555 171.894141 570.555 175.725 
C 570.555 179.555859 572.077016 183.230331 574.785843 185.939157 
C 577.494669 188.647984 581.169141 190.17 585 190.17 
z
" clip-path="url(#p0b23202104)" style="fill: #ffffff; stroke: #000000; stroke-width: 1.5; stroke-linejoin: miter"/>
   </g>
   <g id="patch_23">
    <path d="M 700.56 190.17 
C 704.390859 190.17 708.065331 188.647984 710.774157 185.939157 
C 713.482984 183.230331 715.005 179.555859 715.005 175.725 
C 715.005 171.894141 713.482984 168.219669 710.774157 165.510843 
C 708.065331 162.802016 704.390859 161.28 700.56 161.28 
C 696.729141 161.28 693.054669 162.802016 690.345843 165.510843 
C 687.637016 168.219669 686.115 171.894141 686.115 175.725 
C 686.115 179.555859 687.637016 183.230331 690.345843 185.939157 
C 693.054669 188.647984 696.729141 190.17 700.56 190.17 
z
" clip-path="url(#p0b23202104)" style="fill: #ffffff; stroke: #000000; stroke-width: 1.5; stroke-linejoin: miter"/>
   </g>
   <g id="patch_24">
    <path d="M 613.89 238.32 
C 617.720859 238.32 621.395331 236.797984 624.104157 234.089157 
C 626.812984 231.380331 628.335 227.705859 628.335 223.875 
C 628.335 220.044141 626.812984 216.369669 624.104157 213.660843 
C 621.395331 210.952016 617.720859 209.43 613.89 209.43 
C 610.059141 209.43 606.384669 210.952016 603.675843 213.660843 
C 600.967016 216.369669 599.445 220.044141 599.445 223.875 
C 599.445 227.705859 600.967016 231.380331 603.675843 234.089157 
C 606.384669 236.797984 610.059141 238.32 613.89 238.32 
z
" clip-path="url(#p0b23202104)" style="fill: #ffffff; stroke: #000000; stroke-width: 1.5; stroke-linejoin: miter"/>
   </g>
   <g id="patch_25">
    <path d="M 671.67 238.32 
C 675.500859 238.32 679.175331 236.797984 681.884157 234.089157 
C 684.592984 231.380331 686.115 227.705859 686.115 223.875 
C 686.115 220.044141 684.592984 216.369669 681.884157 213.660843 
C 679.175331 210.952016 675.500859 209.43 671.67 209.43 
C 667.839141 209.43 664.164669 210.952016 661.455843 213.660843 
C 658.747016 216.369669 657.225 220.044141 657.225 223.875 
C 657.225 227.705859 658.747016 231.380331 661.455843 234.089157 
C 664.164669 236.797984 667.839141 238.32 671.67 238.32 
z
" clip-path="url(#p0b23202104)" style="fill: #ffffff; stroke: #000000; stroke-width: 1.5; stroke-linejoin: miter"/>
   </g>
   <g id="patch_26">
    <path d="M 113.13 334.62 
C 116.960859 334.62 120.635331 333.097984 123.344157 330.389157 
C 126.052984 327.680331 127.575 324.005859 127.575 320.175 
C 127.575 316.344141 126.052984 312.669669 123.344157 309.960843 
C 120.635331 307.252016 116.960859 305.73 113.13 305.73 
C 109.299141 305.73 105.624669 307.252016 102.915843 309.960843 
C 100.207016 312.669669 98.685 316.344141 98.685 320.175 
C 98.685 324.005859 100.207016 327.680331 102.915843 330.389157 
C 105.624669 333.097984 109.299141 334.62 113.13 334.62 
z
" clip-path="url(#p0b23202104)" style="fill: #ffffff; stroke: #000000; stroke-width: 1.5; stroke-linejoin: miter"/>
   </g>
   <g id="patch_27">
    <path d="M 170.91 334.62 
C 174.740859 334.62 178.415331 333.097984 181.124157 330.389157 
C 183.832984 327.680331 185.355 324.005859 185.355 320.175 
C 185.355 316.344141 183.832984 312.669669 181.124157 309.960843 
C 178.415331 307.252016 174.740859 305.73 170.91 305.73 
C 167.079141 305.73 163.404669 307.252016 160.695843 309.960843 
C 157.987016 312.669669 156.465 316.344141 156.465 320.175 
C 156.465 324.005859 157.987016 327.680331 160.695843 330.389157 
C 163.404669 333.097984 167.079141 334.62 170.91 334.62 
z
" clip-path="url(#p0b23202104)" style="fill: #ffffff; stroke: #000000; stroke-width: 1.5; stroke-linejoin: miter"/>
   </g>
   <g id="patch_28">
    <path d="M 84.24 382.77 
C 88.070859 382.77 91.745331 381.247984 94.454157 378.539157 
C 97.162984 375.830331 98.685 372.155859 98.685 368.325 
C 98.685 364.494141 97.162984 360.819669 94.454157 358.110843 
C 91.745331 355.402016 88.070859 353.88 84.24 353.88 
C 80.409141 353.88 76.734669 355.402016 74.025843 358.110843 
C 71.317016 360.819669 69.795 364.494141 69.795 368.325 
C 69.795 372.155859 71.317016 375.830331 74.025843 378.539157 
C 76.734669 381.247984 80.409141 382.77 84.24 382.77 
z
" clip-path="url(#p0b23202104)" style="fill: #ffffff; stroke: #000000; stroke-width: 1.5; stroke-linejoin: miter"/>
   </g>
   <g id="patch_29">
    <path d="M 199.8 382.77 
C 203.630859 382.77 207.305331 381.247984 210.014157 378.539157 
C 212.722984 375.830331 214.245 372.155859 214.245 368.325 
C 214.245 364.494141 212.722984 360.819669 210.014157 358.110843 
C 207.305331 355.402016 203.630859 353.88 199.8 353.88 
C 195.969141 353.88 192.294669 355.402016 189.585843 358.110843 
C 186.877016 360.819669 185.355 364.494141 185.355 368.325 
C 185.355 372.155859 186.877016 375.830331 189.585843 378.539157 
C 192.294669 381.247984 195.969141 382.77 199.8 382.77 
z
" clip-path="url(#p0b23202104)" style="fill: #ffffff; stroke: #000000; stroke-width: 1.5; stroke-linejoin: miter"/>
   </g>
   <g id="patch_30">
    <path d="M 84.24 430.92 
C 88.070859 430.92 91.745331 429.397984 94.454157 426.689157 
C 97.162984 423.980331 98.685 420.305859 98.685 416.475 
C 98.685 412.644141 97.162984 408.969669 94.454157 406.260843 
C 91.745331 403.552016 88.070859 402.03 84.24 402.03 
C 80.409141 402.03 76.734669 403.552016 74.025843 406.260843 
C 71.317016 408.969669 69.795 412.644141 69.795 416.475 
C 69.795 420.305859 71.317016 423.980331 74.025843 426.689157 
C 76.734669 429.397984 80.409141 430.92 84.24 430.92 
z
" clip-path="url(#p0b23202104)" style="fill: #ffffff; stroke: #000000; stroke-width: 1.5; stroke-linejoin: miter"/>
   </g>
   <g id="patch_31">
    <path d="M 199.8 430.92 
C 203.630859 430.92 207.305331 429.397984 210.014157 426.689157 
C 212.722984 423.980331 214.245 420.305859 214.245 416.475 
C 214.245 412.644141 212.722984 408.969669 210.014157 406.260843 
C 207.305331 403.552016 203.630859 402.03 199.8 402.03 
C 195.969141 402.03 192.294669 403.552016 189.585843 406.260843 
C 186.877016 408.969669 185.355 412.644141 185.355 416.475 
C 185.355 420.305859 186.877016 423.980331 189.585843 426.689157 
C 192.294669 429.397984 195.969141 430.92 199.8 430.92 
z
" clip-path="url(#p0b23202104)" style="fill: #ffffff; stroke: #000000; stroke-width: 1.5; stroke-linejoin: miter"/>
   </g>
   <g id="patch_32">
    <path d="M 113.13 479.07 
C 116.960859 479.07 120.635331 477.547984 123.344157 474.839157 
C 126.052984 472.130331 127.575 468.455859 127.575 464.625 
C 127.575 460.794141 126.052984 457.119669 123.344157 454.410843 
C 120.635331 451.702016 116.960859 450.18 113.13 450.18 
C 109.299141 450.18 105.624669 451.702016 102.915843 454.410843 
C 100.207016 457.119669 98.685 460.794141 98.685 464.625 
C 98.685 468.455859 100.207016 472.130331 102.915843 474.839157 
C 105.624669 477.547984 109.299141 479.07 113.13 479.07 
z
" clip-path="url(#p0b23202104)" style="fill: #ffffff; stroke: #000000; stroke-width: 1.5; stroke-linejoin: miter"/>
   </g>
   <g id="patch_33">
    <path d="M 170.91 479.07 
C 174.740859 479.07 178.415331 477.547984 181.124157 474.839157 
C 183.832984 472.130331 185.355 468.455859 185.355 464.625 
C 185.355 460.794141 183.832984 457.119669 181.124157 454.410843 
C 178.415331 451.702016 174.740859 450.18 170.91 450.18 
C 167.079141 450.18 163.404669 451.702016 160.695843 454.410843 
C 157.987016 457.119669 156.465 460.794141 156.465 464.625 
C 156.465 468.455859 157.987016 472.130331 160.695843 474.839157 
C 163.404669 477.547984 167.079141 479.07 170.91 479.07 
z
" clip-path="url(#p0b23202104)" style="fill: #ffffff; stroke: #000000; stroke-width: 1.5; stroke-linejoin: miter"/>
   </g>
   <g id="text_1">
    <!-- 八 -->
    <g transform="translate(379.4 352.048594) scale(0.26 -0.26)">
     <defs>
      <path id="NotoSerifCJKkr-ExtraLight-2a9e" d="M 1862 4806 
L 1920 4614 
L 4038 4614 
L 4038 4806 
L 1862 4806 
z
M 3789 4806 
L 3789 4704 
C 4019 2483 4461 762 5786 -275 
C 5843 -166 5971 -83 6106 -70 
L 6138 0 
C 4736 909 4224 2707 3994 4525 
C 4218 4538 4371 4582 4454 4672 
L 3866 5120 
L 3648 4806 
L 3789 4806 
z
M 2118 3731 
C 1939 1946 1306 499 282 -250 
L 371 -333 
C 1530 384 2214 1779 2464 3469 
C 2605 3475 2682 3546 2701 3622 
L 2118 3731 
z
" transform="scale(0.015625)"/>
     </defs>
     <use xlink:href="#NotoSerifCJKkr-ExtraLight-2a9e"/>
    </g>
    <!-- 陣 -->
    <g transform="translate(379.4 378.127813) scale(0.26 -0.26)">
     <defs>
      <path id="NotoSerifCJKkr-ExtraLight-a808" d="M 2195 4518 
L 2246 4333 
L 5914 4333 
C 6003 4333 6067 4365 6080 4435 
C 5894 4608 5594 4845 5594 4845 
L 5331 4518 
L 2195 4518 
z
M 2086 909 
L 2138 717 
L 6016 717 
C 6106 717 6157 749 6176 819 
C 5990 998 5696 1229 5696 1229 
L 5434 909 
L 2086 909 
z
M 2675 2829 
L 2675 2643 
L 5517 2643 
L 5517 2829 
L 2675 2829 
z
M 2675 1907 
L 2675 1715 
L 5517 1715 
L 5517 1907 
L 2675 1907 
z
M 3923 5312 
L 3923 -467 
L 3981 -467 
C 4083 -467 4205 -397 4205 -339 
L 4205 5075 
C 4365 5101 4416 5165 4435 5254 
L 3923 5312 
z
M 582 4960 
L 582 -486 
L 627 -486 
C 762 -486 864 -397 864 -371 
L 864 4960 
L 941 4960 
L 582 5133 
L 582 4960 
z
M 710 4960 
L 710 4774 
L 1933 4774 
L 1933 4960 
L 710 4960 
z
M 1811 4960 
C 1658 4480 1357 3603 1171 3168 
C 1626 2669 1773 2202 1773 1741 
C 1773 1485 1715 1331 1606 1274 
C 1555 1242 1517 1235 1446 1235 
C 1350 1235 1120 1235 992 1235 
L 992 1126 
C 1120 1114 1248 1088 1293 1056 
C 1344 1018 1370 947 1370 838 
C 1901 870 2093 1107 2086 1702 
C 2086 2170 1901 2669 1331 3194 
C 1549 3565 1907 4320 2086 4704 
C 2227 4704 2323 4717 2362 4768 
L 1965 5178 
L 1741 4960 
L 1811 4960 
z
M 2515 3731 
L 2515 1382 
L 2566 1382 
C 2688 1382 2797 1453 2797 1478 
L 2797 3546 
L 5523 3546 
L 5523 3731 
L 2829 3731 
L 2515 3891 
L 2515 3731 
z
M 5325 3731 
L 5325 1402 
L 5363 1402 
C 5459 1402 5606 1478 5613 1510 
L 5613 3501 
C 5722 3520 5818 3571 5856 3610 
L 5446 3930 
L 5274 3731 
L 5325 3731 
z
" transform="scale(0.015625)"/>
     </defs>
     <use xlink:href="#NotoSerifCJKkr-ExtraLight-a808"/>
    </g>
    <!-- 圖 -->
    <g transform="translate(379.4 403.932813) scale(0.26 -0.26)">
     <defs>
      <path id="NotoSerifCJKkr-ExtraLight-33a3" d="M 4224 4352 
L 4224 3341 
L 4262 3341 
C 4358 3341 4499 3411 4506 3456 
L 4506 4134 
C 4602 4147 4691 4198 4723 4237 
L 4346 4525 
L 4173 4352 
L 4224 4352 
z
M 1882 4352 
L 1882 3322 
L 1926 3322 
C 2035 3322 2163 3392 2163 3418 
L 2163 4160 
L 4371 4160 
L 4371 4352 
L 2195 4352 
L 1882 4499 
L 1882 4352 
z
M 2022 3686 
L 2022 3501 
L 4358 3501 
L 4358 3686 
L 2022 3686 
z
M 3654 2016 
L 3654 979 
L 3693 979 
C 3789 979 3936 1056 3942 1088 
L 3942 1818 
C 4026 1837 4096 1875 4128 1914 
L 3776 2182 
L 3616 2016 
L 3654 2016 
z
M 2464 2016 
L 2464 966 
L 2509 966 
C 2624 966 2752 1037 2752 1062 
L 2752 1830 
L 3795 1830 
L 3795 2016 
L 2778 2016 
L 2464 2170 
L 2464 2016 
z
M 2592 1357 
L 2592 1165 
L 3782 1165 
L 3782 1357 
L 2592 1357 
z
M 4448 2541 
L 4448 339 
L 4480 339 
C 4576 339 4723 416 4730 454 
L 4730 2330 
C 4826 2342 4909 2381 4941 2426 
L 4563 2726 
L 4397 2541 
L 4448 2541 
z
M 1658 2541 
L 1658 288 
L 1709 288 
C 1824 288 1939 358 1939 390 
L 1939 2349 
L 4589 2349 
L 4589 2541 
L 1971 2541 
L 1658 2701 
L 1658 2541 
z
M 1786 787 
L 1786 602 
L 4570 602 
L 4570 787 
L 1786 787 
z
M 3046 3686 
L 3046 3002 
L 3328 3002 
L 3328 3686 
L 3046 3686 
z
M 1229 3091 
L 1280 2899 
L 5050 2899 
C 5139 2899 5197 2931 5216 3002 
C 5050 3162 4800 3360 4800 3360 
L 4576 3091 
L 1229 3091 
z
M 806 70 
L 806 -122 
L 5581 -122 
L 5581 70 
L 806 70 
z
M 5446 4973 
L 5446 -403 
L 5485 -403 
C 5587 -403 5722 -314 5728 -275 
L 5728 4723 
C 5856 4749 5971 4800 6016 4851 
L 5574 5197 
L 5382 4973 
L 5446 4973 
z
M 666 4973 
L 666 -467 
L 717 -467 
C 851 -467 947 -390 947 -346 
L 947 4787 
L 5600 4787 
L 5600 4973 
L 979 4973 
L 666 5152 
L 666 4973 
z
" transform="scale(0.015625)"/>
     </defs>
     <use xlink:href="#NotoSerifCJKkr-ExtraLight-33a3"/>
    </g>
   </g>
   <g id="patch_34">
    <path d="M 613.89 334.62 
C 617.720859 334.62 621.395331 333.097984 624.104157 330.389157 
C 626.812984 327.680331 628.335 324.005859 628.335 320.175 
C 628.335 316.344141 626.812984 312.669669 624.104157 309.960843 
C 621.395331 307.252016 617.720859 305.73 613.89 305.73 
C 610.059141 305.73 606.384669 307.252016 603.675843 309.960843 
C 600.967016 312.669669 599.445 316.344141 599.445 320.175 
C 599.445 324.005859 600.967016 327.680331 603.675843 330.389157 
C 606.384669 333.097984 610.059141 334.62 613.89 334.62 
z
" clip-path="url(#p0b23202104)" style="fill: #ffffff; stroke: #000000; stroke-width: 1.5; stroke-linejoin: miter"/>
   </g>
   <g id="patch_35">
    <path d="M 671.67 334.62 
C 675.500859 334.62 679.175331 333.097984 681.884157 330.389157 
C 684.592984 327.680331 686.115 324.005859 686.115 320.175 
C 686.115 316.344141 684.592984 312.669669 681.884157 309.960843 
C 679.175331 307.252016 675.500859 305.73 671.67 305.73 
C 667.839141 305.73 664.164669 307.252016 661.455843 309.960843 
C 658.747016 312.669669 657.225 316.344141 657.225 320.175 
C 657.225 324.005859 658.747016 327.680331 661.455843 330.389157 
C 664.164669 333.097984 667.839141 334.62 671.67 334.62 
z
" clip-path="url(#p0b23202104)" style="fill: #ffffff; stroke: #000000; stroke-width: 1.5; stroke-linejoin: miter"/>
   </g>
   <g id="patch_36">
    <path d="M 585 382.77 
C 588.830859 382.77 592.505331 381.247984 595.214157 378.539157 
C 597.922984 375.830331 599.445 372.155859 599.445 368.325 
C 599.445 364.494141 597.922984 360.819669 595.214157 358.110843 
C 592.505331 355.402016 588.830859 353.88 585 353.88 
C 581.169141 353.88 577.494669 355.402016 574.785843 358.110843 
C 572.077016 360.819669 570.555 364.494141 570.555 368.325 
C 570.555 372.155859 572.077016 375.830331 574.785843 378.539157 
C 577.494669 381.247984 581.169141 382.77 585 382.77 
z
" clip-path="url(#p0b23202104)" style="fill: #ffffff; stroke: #000000; stroke-width: 1.5; stroke-linejoin: miter"/>
   </g>
   <g id="patch_37">
    <path d="M 700.56 382.77 
C 704.390859 382.77 708.065331 381.247984 710.774157 378.539157 
C 713.482984 375.830331 715.005 372.155859 715.005 368.325 
C 715.005 364.494141 713.482984 360.819669 710.774157 358.110843 
C 708.065331 355.402016 704.390859 353.88 700.56 353.88 
C 696.729141 353.88 693.054669 355.402016 690.345843 358.110843 
C 687.637016 360.819669 686.115 364.494141 686.115 368.325 
C 686.115 372.155859 687.637016 375.830331 690.345843 378.539157 
C 693.054669 381.247984 696.729141 382.77 700.56 382.77 
z
" clip-path="url(#p0b23202104)" style="fill: #ffffff; stroke: #000000; stroke-width: 1.5; stroke-linejoin: miter"/>
   </g>
   <g id="patch_38">
    <path d="M 585 430.92 
C 588.830859 430.92 592.505331 429.397984 595.214157 426.689157 
C 597.922984 423.980331 599.445 420.305859 599.445 416.475 
C 599.445 412.644141 597.922984 408.969669 595.214157 406.260843 
C 592.505331 403.552016 588.830859 402.03 585 402.03 
C 581.169141 402.03 577.494669 403.552016 574.785843 406.260843 
C 572.077016 408.969669 570.555 412.644141 570.555 416.475 
C 570.555 420.305859 572.077016 423.980331 574.785843 426.689157 
C 577.494669 429.397984 581.169141 430.92 585 430.92 
z
" clip-path="url(#p0b23202104)" style="fill: #ffffff; stroke: #000000; stroke-width: 1.5; stroke-linejoin: miter"/>
   </g>
   <g id="patch_39">
    <path d="M 700.56 430.92 
C 704.390859 430.92 708.065331 429.397984 710.774157 426.689157 
C 713.482984 423.980331 715.005 420.305859 715.005 416.475 
C 715.005 412.644141 713.482984 408.969669 710.774157 406.260843 
C 708.065331 403.552016 704.390859 402.03 700.56 402.03 
C 696.729141 402.03 693.054669 403.552016 690.345843 406.260843 
C 687.637016 408.969669 686.115 412.644141 686.115 416.475 
C 686.115 420.305859 687.637016 423.980331 690.345843 426.689157 
C 693.054669 429.397984 696.729141 430.92 700.56 430.92 
z
" clip-path="url(#p0b23202104)" style="fill: #ffffff; stroke: #000000; stroke-width: 1.5; stroke-linejoin: miter"/>
   </g>
   <g id="patch_40">
    <path d="M 613.89 479.07 
C 617.720859 479.07 621.395331 477.547984 624.104157 474.839157 
C 626.812984 472.130331 628.335 468.455859 628.335 464.625 
C 628.335 460.794141 626.812984 457.119669 624.104157 454.410843 
C 621.395331 451.702016 617.720859 450.18 613.89 450.18 
C 610.059141 450.18 606.384669 451.702016 603.675843 454.410843 
C 600.967016 457.119669 599.445 460.794141 599.445 464.625 
C 599.445 468.455859 600.967016 472.130331 603.675843 474.839157 
C 606.384669 477.547984 610.059141 479.07 613.89 479.07 
z
" clip-path="url(#p0b23202104)" style="fill: #ffffff; stroke: #000000; stroke-width: 1.5; stroke-linejoin: miter"/>
   </g>
   <g id="patch_41">
    <path d="M 671.67 479.07 
C 675.500859 479.07 679.175331 477.547984 681.884157 474.839157 
C 684.592984 472.130331 686.115 468.455859 686.115 464.625 
C 686.115 460.794141 684.592984 457.119669 681.884157 454.410843 
C 679.175331 451.702016 675.500859 450.18 671.67 450.18 
C 667.839141 450.18 664.164669 451.702016 661.455843 454.410843 
C 658.747016 457.119669 657.225 460.794141 657.225 464.625 
C 657.225 468.455859 658.747016 472.130331 661.455843 474.839157 
C 664.164669 477.547984 667.839141 479.07 671.67 479.07 
z
" clip-path="url(#p0b23202104)" style="fill: #ffffff; stroke: #000000; stroke-width: 1.5; stroke-linejoin: miter"/>
   </g>
   <g id="patch_42">
    <path d="M 113.13 575.37 
C 116.960859 575.37 120.635331 573.847984 123.344157 571.139157 
C 126.052984 568.430331 127.575 564.755859 127.575 560.925 
C 127.575 557.094141 126.052984 553.419669 123.344157 550.710843 
C 120.635331 548.002016 116.960859 546.48 113.13 546.48 
C 109.299141 546.48 105.624669 548.002016 102.915843 550.710843 
C 100.207016 553.419669 98.685 557.094141 98.685 560.925 
C 98.685 564.755859 100.207016 568.430331 102.915843 571.139157 
C 105.624669 573.847984 109.299141 575.37 113.13 575.37 
z
" clip-path="url(#p0b23202104)" style="fill: #ffffff; stroke: #000000; stroke-width: 1.5; stroke-linejoin: miter"/>
   </g>
   <g id="patch_43">
    <path d="M 170.91 575.37 
C 174.740859 575.37 178.415331 573.847984 181.124157 571.139157 
C 183.832984 568.430331 185.355 564.755859 185.355 560.925 
C 185.355 557.094141 183.832984 553.419669 181.124157 550.710843 
C 178.415331 548.002016 174.740859 546.48 170.91 546.48 
C 167.079141 546.48 163.404669 548.002016 160.695843 550.710843 
C 157.987016 553.419669 156.465 557.094141 156.465 560.925 
C 156.465 564.755859 157.987016 568.430331 160.695843 571.139157 
C 163.404669 573.847984 167.079141 575.37 170.91 575.37 
z
" clip-path="url(#p0b23202104)" style="fill: #ffffff; stroke: #000000; stroke-width: 1.5; stroke-linejoin: miter"/>
   </g>
   <g id="patch_44">
    <path d="M 84.24 623.52 
C 88.070859 623.52 91.745331 621.997984 94.454157 619.289157 
C 97.162984 616.580331 98.685 612.905859 98.685 609.075 
C 98.685 605.244141 97.162984 601.569669 94.454157 598.860843 
C 91.745331 596.152016 88.070859 594.63 84.24 594.63 
C 80.409141 594.63 76.734669 596.152016 74.025843 598.860843 
C 71.317016 601.569669 69.795 605.244141 69.795 609.075 
C 69.795 612.905859 71.317016 616.580331 74.025843 619.289157 
C 76.734669 621.997984 80.409141 623.52 84.24 623.52 
z
" clip-path="url(#p0b23202104)" style="fill: #ffffff; stroke: #000000; stroke-width: 1.5; stroke-linejoin: miter"/>
   </g>
   <g id="patch_45">
    <path d="M 199.8 623.52 
C 203.630859 623.52 207.305331 621.997984 210.014157 619.289157 
C 212.722984 616.580331 214.245 612.905859 214.245 609.075 
C 214.245 605.244141 212.722984 601.569669 210.014157 598.860843 
C 207.305331 596.152016 203.630859 594.63 199.8 594.63 
C 195.969141 594.63 192.294669 596.152016 189.585843 598.860843 
C 186.877016 601.569669 185.355 605.244141 185.355 609.075 
C 185.355 612.905859 186.877016 616.580331 189.585843 619.289157 
C 192.294669 621.997984 195.969141 623.52 199.8 623.52 
z
" clip-path="url(#p0b23202104)" style="fill: #ffffff; stroke: #000000; stroke-width: 1.5; stroke-linejoin: miter"/>
   </g>
   <g id="patch_46">
    <path d="M 84.24 671.67 
C 88.070859 671.67 91.745331 670.147984 94.454157 667.439157 
C 97.162984 664.730331 98.685 661.055859 98.685 657.225 
C 98.685 653.394141 97.162984 649.719669 94.454157 647.010843 
C 91.745331 644.302016 88.070859 642.78 84.24 642.78 
C 80.409141 642.78 76.734669 644.302016 74.025843 647.010843 
C 71.317016 649.719669 69.795 653.394141 69.795 657.225 
C 69.795 661.055859 71.317016 664.730331 74.025843 667.439157 
C 76.734669 670.147984 80.409141 671.67 84.24 671.67 
z
" clip-path="url(#p0b23202104)" style="fill: #ffffff; stroke: #000000; stroke-width: 1.5; stroke-linejoin: miter"/>
   </g>
   <g id="patch_47">
    <path d="M 199.8 671.67 
C 203.630859 671.67 207.305331 670.147984 210.014157 667.439157 
C 212.722984 664.730331 214.245 661.055859 214.245 657.225 
C 214.245 653.394141 212.722984 649.719669 210.014157 647.010843 
C 207.305331 644.302016 203.630859 642.78 199.8 642.78 
C 195.969141 642.78 192.294669 644.302016 189.585843 647.010843 
C 186.877016 649.719669 185.355 653.394141 185.355 657.225 
C 185.355 661.055859 186.877016 664.730331 189.585843 667.439157 
C 192.294669 670.147984 195.969141 671.67 199.8 671.67 
z
" clip-path="url(#p0b23202104)" style="fill: #ffffff; stroke: #000000; stroke-width: 1.5; stroke-linejoin: miter"/>
   </g>
   <g id="patch_48">
    <path d="M 113.13 719.82 
C 116.960859 719.82 120.635331 718.297984 123.344157 715.589157 
C 126.052984 712.880331 127.575 709.205859 127.575 705.375 
C 127.575 701.544141 126.052984 697.869669 123.344157 695.160843 
C 120.635331 692.452016 116.960859 690.93 113.13 690.93 
C 109.299141 690.93 105.624669 692.452016 102.915843 695.160843 
C 100.207016 697.869669 98.685 701.544141 98.685 705.375 
C 98.685 709.205859 100.207016 712.880331 102.915843 715.589157 
C 105.624669 718.297984 109.299141 719.82 113.13 719.82 
z
" clip-path="url(#p0b23202104)" style="fill: #ffffff; stroke: #000000; stroke-width: 1.5; stroke-linejoin: miter"/>
   </g>
   <g id="patch_49">
    <path d="M 170.91 719.82 
C 174.740859 719.82 178.415331 718.297984 181.124157 715.589157 
C 183.832984 712.880331 185.355 709.205859 185.355 705.375 
C 185.355 701.544141 183.832984 697.869669 181.124157 695.160843 
C 178.415331 692.452016 174.740859 690.93 170.91 690.93 
C 167.079141 690.93 163.404669 692.452016 160.695843 695.160843 
C 157.987016 697.869669 156.465 701.544141 156.465 705.375 
C 156.465 709.205859 157.987016 712.880331 160.695843 715.589157 
C 163.404669 718.297984 167.079141 719.82 170.91 719.82 
z
" clip-path="url(#p0b23202104)" style="fill: #ffffff; stroke: #000000; stroke-width: 1.5; stroke-linejoin: miter"/>
   </g>
   <g id="patch_50">
    <path d="M 353.88 575.37 
C 357.710859 575.37 361.385331 573.847984 364.094157 571.139157 
C 366.802984 568.430331 368.325 564.755859 368.325 560.925 
C 368.325 557.094141 366.802984 553.419669 364.094157 550.710843 
C 361.385331 548.002016 357.710859 546.48 353.88 546.48 
C 350.049141 546.48 346.374669 548.002016 343.665843 550.710843 
C 340.957016 553.419669 339.435 557.094141 339.435 560.925 
C 339.435 564.755859 340.957016 568.430331 343.665843 571.139157 
C 346.374669 573.847984 350.049141 575.37 353.88 575.37 
z
" clip-path="url(#p0b23202104)" style="fill: #ffffff; stroke: #000000; stroke-width: 1.5; stroke-linejoin: miter"/>
   </g>
   <g id="patch_51">
    <path d="M 430.92 575.37 
C 434.750859 575.37 438.425331 573.847984 441.134157 571.139157 
C 443.842984 568.430331 445.365 564.755859 445.365 560.925 
C 445.365 557.094141 443.842984 553.419669 441.134157 550.710843 
C 438.425331 548.002016 434.750859 546.48 430.92 546.48 
C 427.089141 546.48 423.414669 548.002016 420.705843 550.710843 
C 417.997016 553.419669 416.475 557.094141 416.475 560.925 
C 416.475 564.755859 417.997016 568.430331 420.705843 571.139157 
C 423.414669 573.847984 427.089141 575.37 430.92 575.37 
z
" clip-path="url(#p0b23202104)" style="fill: #ffffff; stroke: #000000; stroke-width: 1.5; stroke-linejoin: miter"/>
   </g>
   <g id="patch_52">
    <path d="M 305.73 623.52 
C 309.560859 623.52 313.235331 621.997984 315.944157 619.289157 
C 318.652984 616.580331 320.175 612.905859 320.175 609.075 
C 320.175 605.244141 318.652984 601.569669 315.944157 598.860843 
C 313.235331 596.152016 309.560859 594.63 305.73 594.63 
C 301.899141 594.63 298.224669 596.152016 295.515843 598.860843 
C 292.807016 601.569669 291.285 605.244141 291.285 609.075 
C 291.285 612.905859 292.807016 616.580331 295.515843 619.289157 
C 298.224669 621.997984 301.899141 623.52 305.73 623.52 
z
" clip-path="url(#p0b23202104)" style="fill: #ffffff; stroke: #000000; stroke-width: 1.5; stroke-linejoin: miter"/>
   </g>
   <g id="patch_53">
    <path d="M 479.07 623.52 
C 482.900859 623.52 486.575331 621.997984 489.284157 619.289157 
C 491.992984 616.580331 493.515 612.905859 493.515 609.075 
C 493.515 605.244141 491.992984 601.569669 489.284157 598.860843 
C 486.575331 596.152016 482.900859 594.63 479.07 594.63 
C 475.239141 594.63 471.564669 596.152016 468.855843 598.860843 
C 466.147016 601.569669 464.625 605.244141 464.625 609.075 
C 464.625 612.905859 466.147016 616.580331 468.855843 619.289157 
C 471.564669 621.997984 475.239141 623.52 479.07 623.52 
z
" clip-path="url(#p0b23202104)" style="fill: #ffffff; stroke: #000000; stroke-width: 1.5; stroke-linejoin: miter"/>
   </g>
   <g id="patch_54">
    <path d="M 305.73 671.67 
C 309.560859 671.67 313.235331 670.147984 315.944157 667.439157 
C 318.652984 664.730331 320.175 661.055859 320.175 657.225 
C 320.175 653.394141 318.652984 649.719669 315.944157 647.010843 
C 313.235331 644.302016 309.560859 642.78 305.73 642.78 
C 301.899141 642.78 298.224669 644.302016 295.515843 647.010843 
C 292.807016 649.719669 291.285 653.394141 291.285 657.225 
C 291.285 661.055859 292.807016 664.730331 295.515843 667.439157 
C 298.224669 670.147984 301.899141 671.67 305.73 671.67 
z
" clip-path="url(#p0b23202104)" style="fill: #ffffff; stroke: #000000; stroke-width: 1.5; stroke-linejoin: miter"/>
   </g>
   <g id="patch_55">
    <path d="M 479.07 671.67 
C 482.900859 671.67 486.575331 670.147984 489.284157 667.439157 
C 491.992984 664.730331 493.515 661.055859 493.515 657.225 
C 493.515 653.394141 491.992984 649.719669 489.284157 647.010843 
C 486.575331 644.302016 482.900859 642.78 479.07 642.78 
C 475.239141 642.78 471.564669 644.302016 468.855843 647.010843 
C 466.147016 649.719669 464.625 653.394141 464.625 657.225 
C 464.625 661.055859 466.147016 664.730331 468.855843 667.439157 
C 471.564669 670.147984 475.239141 671.67 479.07 671.67 
z
" clip-path="url(#p0b23202104)" style="fill: #ffffff; stroke: #000000; stroke-width: 1.5; stroke-linejoin: miter"/>
   </g>
   <g id="patch_56">
    <path d="M 353.88 719.82 
C 357.710859 719.82 361.385331 718.297984 364.094157 715.589157 
C 366.802984 712.880331 368.325 709.205859 368.325 705.375 
C 368.325 701.544141 366.802984 697.869669 364.094157 695.160843 
C 361.385331 692.452016 357.710859 690.93 353.88 690.93 
C 350.049141 690.93 346.374669 692.452016 343.665843 695.160843 
C 340.957016 697.869669 339.435 701.544141 339.435 705.375 
C 339.435 709.205859 340.957016 712.880331 343.665843 715.589157 
C 346.374669 718.297984 350.049141 719.82 353.88 719.82 
z
" clip-path="url(#p0b23202104)" style="fill: #ffffff; stroke: #000000; stroke-width: 1.5; stroke-linejoin: miter"/>
   </g>
   <g id="patch_57">
    <path d="M 430.92 719.82 
C 434.750859 719.82 438.425331 718.297984 441.134157 715.589157 
C 443.842984 712.880331 445.365 709.205859 445.365 705.375 
C 445.365 701.544141 443.842984 697.869669 441.134157 695.160843 
C 438.425331 692.452016 434.750859 690.93 430.92 690.93 
C 427.089141 690.93 423.414669 692.452016 420.705843 695.160843 
C 417.997016 697.869669 416.475 701.544141 416.475 705.375 
C 416.475 709.205859 417.997016 712.880331 420.705843 715.589157 
C 423.414669 718.297984 427.089141 719.82 430.92 719.82 
z
" clip-path="url(#p0b23202104)" style="fill: #ffffff; stroke: #000000; stroke-width: 1.5; stroke-linejoin: miter"/>
   </g>
   <g id="patch_58">
    <path d="M 613.89 575.37 
C 617.720859 575.37 621.395331 573.847984 624.104157 571.139157 
C 626.812984 568.430331 628.335 564.755859 628.335 560.925 
C 628.335 557.094141 626.812984 553.419669 624.104157 550.710843 
C 621.395331 548.002016 617.720859 546.48 613.89 546.48 
C 610.059141 546.48 606.384669 548.002016 603.675843 550.710843 
C 600.967016 553.419669 599.445 557.094141 599.445 560.925 
C 599.445 564.755859 600.967016 568.430331 603.675843 571.139157 
C 606.384669 573.847984 610.059141 575.37 613.89 575.37 
z
" clip-path="url(#p0b23202104)" style="fill: #ffffff; stroke: #000000; stroke-width: 1.5; stroke-linejoin: miter"/>
   </g>
   <g id="patch_59">
    <path d="M 671.67 575.37 
C 675.500859 575.37 679.175331 573.847984 681.884157 571.139157 
C 684.592984 568.430331 686.115 564.755859 686.115 560.925 
C 686.115 557.094141 684.592984 553.419669 681.884157 550.710843 
C 679.175331 548.002016 675.500859 546.48 671.67 546.48 
C 667.839141 546.48 664.164669 548.002016 661.455843 550.710843 
C 658.747016 553.419669 657.225 557.094141 657.225 560.925 
C 657.225 564.755859 658.747016 568.430331 661.455843 571.139157 
C 664.164669 573.847984 667.839141 575.37 671.67 575.37 
z
" clip-path="url(#p0b23202104)" style="fill: #ffffff; stroke: #000000; stroke-width: 1.5; stroke-linejoin: miter"/>
   </g>
   <g id="patch_60">
    <path d="M 585 623.52 
C 588.830859 623.52 592.505331 621.997984 595.214157 619.289157 
C 597.922984 616.580331 599.445 612.905859 599.445 609.075 
C 599.445 605.244141 597.922984 601.569669 595.214157 598.860843 
C 592.505331 596.152016 588.830859 594.63 585 594.63 
C 581.169141 594.63 577.494669 596.152016 574.785843 598.860843 
C 572.077016 601.569669 570.555 605.244141 570.555 609.075 
C 570.555 612.905859 572.077016 616.580331 574.785843 619.289157 
C 577.494669 621.997984 581.169141 623.52 585 623.52 
z
" clip-path="url(#p0b23202104)" style="fill: #ffffff; stroke: #000000; stroke-width: 1.5; stroke-linejoin: miter"/>
   </g>
   <g id="patch_61">
    <path d="M 700.56 623.52 
C 704.390859 623.52 708.065331 621.997984 710.774157 619.289157 
C 713.482984 616.580331 715.005 612.905859 715.005 609.075 
C 715.005 605.244141 713.482984 601.569669 710.774157 598.860843 
C 708.065331 596.152016 704.390859 594.63 700.56 594.63 
C 696.729141 594.63 693.054669 596.152016 690.345843 598.860843 
C 687.637016 601.569669 686.115 605.244141 686.115 609.075 
C 686.115 612.905859 687.637016 616.580331 690.345843 619.289157 
C 693.054669 621.997984 696.729141 623.52 700.56 623.52 
z
" clip-path="url(#p0b23202104)" style="fill: #ffffff; stroke: #000000; stroke-width: 1.5; stroke-linejoin: miter"/>
   </g>
   <g id="patch_62">
    <path d="M 585 671.67 
C 588.830859 671.67 592.505331 670.147984 595.214157 667.439157 
C 597.922984 664.730331 599.445 661.055859 599.445 657.225 
C 599.445 653.394141 597.922984 649.719669 595.214157 647.010843 
C 592.505331 644.302016 588.830859 642.78 585 642.78 
C 581.169141 642.78 577.494669 644.302016 574.785843 647.010843 
C 572.077016 649.719669 570.555 653.394141 570.555 657.225 
C 570.555 661.055859 572.077016 664.730331 574.785843 667.439157 
C 577.494669 670.147984 581.169141 671.67 585 671.67 
z
" clip-path="url(#p0b23202104)" style="fill: #ffffff; stroke: #000000; stroke-width: 1.5; stroke-linejoin: miter"/>
   </g>
   <g id="patch_63">
    <path d="M 700.56 671.67 
C 704.390859 671.67 708.065331 670.147984 710.774157 667.439157 
C 713.482984 664.730331 715.005 661.055859 715.005 657.225 
C 715.005 653.394141 713.482984 649.719669 710.774157 647.010843 
C 708.065331 644.302016 704.390859 642.78 700.56 642.78 
C 696.729141 642.78 693.054669 644.302016 690.345843 647.010843 
C 687.637016 649.719669 686.115 653.394141 686.115 657.225 
C 686.115 661.055859 687.637016 664.730331 690.345843 667.439157 
C 693.054669 670.147984 696.729141 671.67 700.56 671.67 
z
" clip-path="url(#p0b23202104)" style="fill: #ffffff; stroke: #000000; stroke-width: 1.5; stroke-linejoin: miter"/>
   </g>
   <g id="patch_64">
    <path d="M 613.89 719.82 
C 617.720859 719.82 621.395331 718.297984 624.104157 715.589157 
C 626.812984 712.880331 628.335 709.205859 628.335 705.375 
C 628.335 701.544141 626.812984 697.869669 624.104157 695.160843 
C 621.395331 692.452016 617.720859 690.93 613.89 690.93 
C 610.059141 690.93 606.384669 692.452016 603.675843 695.160843 
C 600.967016 697.869669 599.445 701.544141 599.445 705.375 
C 599.445 709.205859 600.967016 712.880331 603.675843 715.589157 
C 606.384669 718.297984 610.059141 719.82 613.89 719.82 
z
" clip-path="url(#p0b23202104)" style="fill: #ffffff; stroke: #000000; stroke-width: 1.5; stroke-linejoin: miter"/>
   </g>
   <g id="patch_65">
    <path d="M 671.67 719.82 
C 675.500859 719.82 679.175331 718.297984 681.884157 715.589157 
C 684.592984 712.880331 686.115 709.205859 686.115 705.375 
C 686.115 701.544141 684.592984 697.869669 681.884157 695.160843 
C 679.175331 692.452016 675.500859 690.93 671.67 690.93 
C 667.839141 690.93 664.164669 692.452016 661.455843 695.160843 
C 658.747016 697.869669 657.225 701.544141 657.225 705.375 
C 657.225 709.205859 658.747016 712.880331 661.455843 715.589157 
C 664.164669 718.297984 667.839141 719.82 671.67 719.82 
z
" clip-path="url(#p0b23202104)" style="fill: #ffffff; stroke: #000000; stroke-width: 1.5; stroke-linejoin: miter"/>
   </g>
   <g id="text_2">
    <!-- 40 -->
    <g transform="translate(106.13125 82.282422) scale(0.11 -0.11)">
     <defs>
      <path id="DejaVuSans-17" d="M 2419 4116 
L 825 1625 
L 2419 1625 
L 2419 4116 
z
M 2253 4666 
L 3047 4666 
L 3047 1625 
L 3713 1625 
L 3713 1100 
L 3047 1100 
L 3047 0 
L 2419 0 
L 2419 1100 
L 313 1100 
L 313 1709 
L 2253 4666 
z
" transform="scale(0.015625)"/>
      <path id="DejaVuSans-13" d="M 2034 4250 
Q 1547 4250 1301 3770 
Q 1056 3291 1056 2328 
Q 1056 1369 1301 889 
Q 1547 409 2034 409 
Q 2525 409 2770 889 
Q 3016 1369 3016 2328 
Q 3016 3291 2770 3770 
Q 2525 4250 2034 4250 
z
M 2034 4750 
Q 2819 4750 3233 4129 
Q 3647 3509 3647 2328 
Q 3647 1150 3233 529 
Q 2819 -91 2034 -91 
Q 1250 -91 836 529 
Q 422 1150 422 2328 
Q 422 3509 836 4129 
Q 1250 4750 2034 4750 
z
" transform="scale(0.015625)"/>
     </defs>
     <use xlink:href="#DejaVuSans-17"/>
     <use xlink:href="#DejaVuSans-13" transform="translate(63.625 0)"/>
    </g>
   </g>
   <g id="text_3">
    <!-- 20 -->
    <g transform="translate(163.91125 82.282422) scale(0.11 -0.11)">
     <defs>
      <path id="DejaVuSans-15" d="M 1228 531 
L 3431 531 
L 3431 0 
L 469 0 
L 469 531 
Q 828 903 1448 1529 
Q 2069 2156 2228 2338 
Q 2531 2678 2651 2914 
Q 2772 3150 2772 3378 
Q 2772 3750 2511 3984 
Q 2250 4219 1831 4219 
Q 1534 4219 1204 4116 
Q 875 4013 500 3803 
L 500 4441 
Q 881 4594 1212 4672 
Q 1544 4750 1819 4750 
Q 2544 4750 2975 4387 
Q 3406 4025 3406 3419 
Q 3406 3131 3298 2873 
Q 3191 2616 2906 2266 
Q 2828 2175 2409 1742 
Q 1991 1309 1228 531 
z
" transform="scale(0.015625)"/>
     </defs>
     <use xlink:href="#DejaVuSans-15"/>
     <use xlink:href="#DejaVuSans-13" transform="translate(63.625 0)"/>
    </g>
   </g>
   <g id="text_4">
    <!-- 57 -->
    <g transform="translate(77.24125 130.432422) scale(0.11 -0.11)">
     <defs>
      <path id="DejaVuSans-18" d="M 691 4666 
L 3169 4666 
L 3169 4134 
L 1269 4134 
L 1269 2991 
Q 1406 3038 1543 3061 
Q 1681 3084 1819 3084 
Q 2600 3084 3056 2656 
Q 3513 2228 3513 1497 
Q 3513 744 3044 326 
Q 2575 -91 1722 -91 
Q 1428 -91 1123 -41 
Q 819 9 494 109 
L 494 744 
Q 775 591 1075 516 
Q 1375 441 1709 441 
Q 2250 441 2565 725 
Q 2881 1009 2881 1497 
Q 2881 1984 2565 2268 
Q 2250 2553 1709 2553 
Q 1456 2553 1204 2497 
Q 953 2441 691 2322 
L 691 4666 
z
" transform="scale(0.015625)"/>
      <path id="DejaVuSans-1a" d="M 525 4666 
L 3525 4666 
L 3525 4397 
L 1831 0 
L 1172 0 
L 2766 4134 
L 525 4134 
L 525 4666 
z
" transform="scale(0.015625)"/>
     </defs>
     <use xlink:href="#DejaVuSans-18"/>
     <use xlink:href="#DejaVuSans-1a" transform="translate(63.625 0)"/>
    </g>
   </g>
   <g id="text_5">
    <!-- 9 -->
    <g transform="translate(167.410625 130.432422) scale(0.11 -0.11)">
     <defs>
      <path id="DejaVuSans-1c" d="M 703 97 
L 703 672 
Q 941 559 1184 500 
Q 1428 441 1663 441 
Q 2288 441 2617 861 
Q 2947 1281 2994 2138 
Q 2813 1869 2534 1725 
Q 2256 1581 1919 1581 
Q 1219 1581 811 2004 
Q 403 2428 403 3163 
Q 403 3881 828 4315 
Q 1253 4750 1959 4750 
Q 2769 4750 3195 4129 
Q 3622 3509 3622 2328 
Q 3622 1225 3098 567 
Q 2575 -91 1691 -91 
Q 1453 -91 1209 -44 
Q 966 3 703 97 
z
M 1959 2075 
Q 2384 2075 2632 2365 
Q 2881 2656 2881 3163 
Q 2881 3666 2632 3958 
Q 2384 4250 1959 4250 
Q 1534 4250 1286 3958 
Q 1038 3666 1038 3163 
Q 1038 2656 1286 2365 
Q 1534 2075 1959 2075 
z
" transform="scale(0.015625)"/>
     </defs>
     <use xlink:href="#DejaVuSans-1c"/>
    </g>
   </g>
   <g id="text_6">
    <!-- 8 -->
    <g transform="translate(80.740625 178.582422) scale(0.11 -0.11)">
     <defs>
      <path id="DejaVuSans-1b" d="M 2034 2216 
Q 1584 2216 1326 1975 
Q 1069 1734 1069 1313 
Q 1069 891 1326 650 
Q 1584 409 2034 409 
Q 2484 409 2743 651 
Q 3003 894 3003 1313 
Q 3003 1734 2745 1975 
Q 2488 2216 2034 2216 
z
M 1403 2484 
Q 997 2584 770 2862 
Q 544 3141 544 3541 
Q 544 4100 942 4425 
Q 1341 4750 2034 4750 
Q 2731 4750 3128 4425 
Q 3525 4100 3525 3541 
Q 3525 3141 3298 2862 
Q 3072 2584 2669 2484 
Q 3125 2378 3379 2068 
Q 3634 1759 3634 1313 
Q 3634 634 3220 271 
Q 2806 -91 2034 -91 
Q 1263 -91 848 271 
Q 434 634 434 1313 
Q 434 1759 690 2068 
Q 947 2378 1403 2484 
z
M 1172 3481 
Q 1172 3119 1398 2916 
Q 1625 2713 2034 2713 
Q 2441 2713 2670 2916 
Q 2900 3119 2900 3481 
Q 2900 3844 2670 4047 
Q 2441 4250 2034 4250 
Q 1625 4250 1398 4047 
Q 1172 3844 1172 3481 
z
" transform="scale(0.015625)"/>
     </defs>
     <use xlink:href="#DejaVuSans-1b"/>
    </g>
   </g>
   <g id="text_7">
    <!-- 56 -->
    <g transform="translate(163.91125 178.582422) scale(0.11 -0.11)">
     <defs>
      <path id="DejaVuSans-19" d="M 2113 2584 
Q 1688 2584 1439 2293 
Q 1191 2003 1191 1497 
Q 1191 994 1439 701 
Q 1688 409 2113 409 
Q 2538 409 2786 701 
Q 3034 994 3034 1497 
Q 3034 2003 2786 2293 
Q 2538 2584 2113 2584 
z
M 3366 4563 
L 3366 3988 
Q 3128 4100 2886 4159 
Q 2644 4219 2406 4219 
Q 1781 4219 1451 3797 
Q 1122 3375 1075 2522 
Q 1259 2794 1537 2939 
Q 1816 3084 2150 3084 
Q 2853 3084 3261 2657 
Q 3669 2231 3669 1497 
Q 3669 778 3244 343 
Q 2819 -91 2113 -91 
Q 1303 -91 875 529 
Q 447 1150 447 2328 
Q 447 3434 972 4092 
Q 1497 4750 2381 4750 
Q 2619 4750 2861 4703 
Q 3103 4656 3366 4563 
z
" transform="scale(0.015625)"/>
     </defs>
     <use xlink:href="#DejaVuSans-18"/>
     <use xlink:href="#DejaVuSans-19" transform="translate(63.625 0)"/>
    </g>
   </g>
   <g id="text_8">
    <!-- 29 -->
    <g transform="translate(106.13125 226.732422) scale(0.11 -0.11)">
     <use xlink:href="#DejaVuSans-15"/>
     <use xlink:href="#DejaVuSans-1c" transform="translate(63.625 0)"/>
    </g>
   </g>
   <g id="text_9">
    <!-- 41 -->
    <g transform="translate(163.91125 226.732422) scale(0.11 -0.11)">
     <defs>
      <path id="DejaVuSans-14" d="M 794 531 
L 1825 531 
L 1825 4091 
L 703 3866 
L 703 4441 
L 1819 4666 
L 2450 4666 
L 2450 531 
L 3481 531 
L 3481 0 
L 794 0 
L 794 531 
z
" transform="scale(0.015625)"/>
     </defs>
     <use xlink:href="#DejaVuSans-17"/>
     <use xlink:href="#DejaVuSans-14" transform="translate(63.625 0)"/>
    </g>
   </g>
   <g id="text_10">
    <!-- 14 -->
    <g transform="translate(346.88125 82.282422) scale(0.11 -0.11)">
     <use xlink:href="#DejaVuSans-14"/>
     <use xlink:href="#DejaVuSans-17" transform="translate(63.625 0)"/>
    </g>
   </g>
   <g id="text_11">
    <!-- 51 -->
    <g transform="translate(423.92125 82.282422) scale(0.11 -0.11)">
     <use xlink:href="#DejaVuSans-18"/>
     <use xlink:href="#DejaVuSans-14" transform="translate(63.625 0)"/>
    </g>
   </g>
   <g id="text_12">
    <!-- 19 -->
    <g transform="translate(298.73125 130.432422) scale(0.11 -0.11)">
     <use xlink:href="#DejaVuSans-14"/>
     <use xlink:href="#DejaVuSans-1c" transform="translate(63.625 0)"/>
    </g>
   </g>
   <g id="text_13">
    <!-- 46 -->
    <g transform="translate(472.07125 130.432422) scale(0.11 -0.11)">
     <use xlink:href="#DejaVuSans-17"/>
     <use xlink:href="#DejaVuSans-19" transform="translate(63.625 0)"/>
    </g>
   </g>
   <g id="text_14">
    <!-- 35 -->
    <g transform="translate(298.73125 178.582422) scale(0.11 -0.11)">
     <defs>
      <path id="DejaVuSans-16" d="M 2597 2516 
Q 3050 2419 3304 2112 
Q 3559 1806 3559 1356 
Q 3559 666 3084 287 
Q 2609 -91 1734 -91 
Q 1441 -91 1130 -33 
Q 819 25 488 141 
L 488 750 
Q 750 597 1062 519 
Q 1375 441 1716 441 
Q 2309 441 2620 675 
Q 2931 909 2931 1356 
Q 2931 1769 2642 2001 
Q 2353 2234 1838 2234 
L 1294 2234 
L 1294 2753 
L 1863 2753 
Q 2328 2753 2575 2939 
Q 2822 3125 2822 3475 
Q 2822 3834 2567 4026 
Q 2313 4219 1838 4219 
Q 1578 4219 1281 4162 
Q 984 4106 628 3988 
L 628 4550 
Q 988 4650 1302 4700 
Q 1616 4750 1894 4750 
Q 2613 4750 3031 4423 
Q 3450 4097 3450 3541 
Q 3450 3153 3228 2886 
Q 3006 2619 2597 2516 
z
" transform="scale(0.015625)"/>
     </defs>
     <use xlink:href="#DejaVuSans-16"/>
     <use xlink:href="#DejaVuSans-18" transform="translate(63.625 0)"/>
    </g>
   </g>
   <g id="text_15">
    <!-- 30 -->
    <g transform="translate(472.07125 178.582422) scale(0.11 -0.11)">
     <use xlink:href="#DejaVuSans-16"/>
     <use xlink:href="#DejaVuSans-13" transform="translate(63.625 0)"/>
    </g>
   </g>
   <g id="text_16">
    <!-- 62 -->
    <g transform="translate(346.88125 226.732422) scale(0.11 -0.11)">
     <use xlink:href="#DejaVuSans-19"/>
     <use xlink:href="#DejaVuSans-15" transform="translate(63.625 0)"/>
    </g>
   </g>
   <g id="text_17">
    <!-- 3 -->
    <g transform="translate(427.420625 226.732422) scale(0.11 -0.11)">
     <use xlink:href="#DejaVuSans-16"/>
    </g>
   </g>
   <g id="text_18">
    <!-- 45 -->
    <g transform="translate(606.89125 82.282422) scale(0.11 -0.11)">
     <use xlink:href="#DejaVuSans-17"/>
     <use xlink:href="#DejaVuSans-18" transform="translate(63.625 0)"/>
    </g>
   </g>
   <g id="text_19">
    <!-- 24 -->
    <g transform="translate(664.67125 82.282422) scale(0.11 -0.11)">
     <use xlink:href="#DejaVuSans-15"/>
     <use xlink:href="#DejaVuSans-17" transform="translate(63.625 0)"/>
    </g>
   </g>
   <g id="text_20">
    <!-- 52 -->
    <g transform="translate(578.00125 130.432422) scale(0.11 -0.11)">
     <use xlink:href="#DejaVuSans-18"/>
     <use xlink:href="#DejaVuSans-15" transform="translate(63.625 0)"/>
    </g>
   </g>
   <g id="text_21">
    <!-- 4 -->
    <g transform="translate(697.060625 130.432422) scale(0.11 -0.11)">
     <use xlink:href="#DejaVuSans-17"/>
    </g>
   </g>
   <g id="text_22">
    <!-- 13 -->
    <g transform="translate(578.00125 178.582422) scale(0.11 -0.11)">
     <use xlink:href="#DejaVuSans-14"/>
     <use xlink:href="#DejaVuSans-16" transform="translate(63.625 0)"/>
    </g>
   </g>
   <g id="text_23">
    <!-- 61 -->
    <g transform="translate(693.56125 178.582422) scale(0.11 -0.11)">
     <use xlink:href="#DejaVuSans-19"/>
     <use xlink:href="#DejaVuSans-14" transform="translate(63.625 0)"/>
    </g>
   </g>
   <g id="text_24">
    <!-- 25 -->
    <g transform="translate(606.89125 226.732422) scale(0.11 -0.11)">
     <use xlink:href="#DejaVuSans-15"/>
     <use xlink:href="#DejaVuSans-18" transform="translate(63.625 0)"/>
    </g>
   </g>
   <g id="text_25">
    <!-- 36 -->
    <g transform="translate(664.67125 226.732422) scale(0.11 -0.11)">
     <use xlink:href="#DejaVuSans-16"/>
     <use xlink:href="#DejaVuSans-19" transform="translate(63.625 0)"/>
    </g>
   </g>
   <g id="text_26">
    <!-- 48 -->
    <g transform="translate(106.13125 323.032422) scale(0.11 -0.11)">
     <use xlink:href="#DejaVuSans-17"/>
     <use xlink:href="#DejaVuSans-1b" transform="translate(63.625 0)"/>
    </g>
   </g>
   <g id="text_27">
    <!-- 32 -->
    <g transform="translate(163.91125 323.032422) scale(0.11 -0.11)">
     <use xlink:href="#DejaVuSans-16"/>
     <use xlink:href="#DejaVuSans-15" transform="translate(63.625 0)"/>
    </g>
   </g>
   <g id="text_28">
    <!-- 49 -->
    <g transform="translate(77.24125 371.182422) scale(0.11 -0.11)">
     <use xlink:href="#DejaVuSans-17"/>
     <use xlink:href="#DejaVuSans-1c" transform="translate(63.625 0)"/>
    </g>
   </g>
   <g id="text_29">
    <!-- 1 -->
    <g transform="translate(196.300625 371.182422) scale(0.11 -0.11)">
     <use xlink:href="#DejaVuSans-14"/>
    </g>
   </g>
   <g id="text_30">
    <!-- 16 -->
    <g transform="translate(77.24125 419.332422) scale(0.11 -0.11)">
     <use xlink:href="#DejaVuSans-14"/>
     <use xlink:href="#DejaVuSans-19" transform="translate(63.625 0)"/>
    </g>
   </g>
   <g id="text_31">
    <!-- 64 -->
    <g transform="translate(192.80125 419.332422) scale(0.11 -0.11)">
     <use xlink:href="#DejaVuSans-19"/>
     <use xlink:href="#DejaVuSans-17" transform="translate(63.625 0)"/>
    </g>
   </g>
   <g id="text_32">
    <!-- 17 -->
    <g transform="translate(106.13125 467.482422) scale(0.11 -0.11)">
     <use xlink:href="#DejaVuSans-14"/>
     <use xlink:href="#DejaVuSans-1a" transform="translate(63.625 0)"/>
    </g>
   </g>
   <g id="text_33">
    <!-- 33 -->
    <g transform="translate(163.91125 467.482422) scale(0.11 -0.11)">
     <use xlink:href="#DejaVuSans-16"/>
     <use xlink:href="#DejaVuSans-16" transform="translate(63.625 0)"/>
    </g>
   </g>
   <g id="text_34">
    <!-- 37 -->
    <g transform="translate(606.89125 323.032422) scale(0.11 -0.11)">
     <use xlink:href="#DejaVuSans-16"/>
     <use xlink:href="#DejaVuSans-1a" transform="translate(63.625 0)"/>
    </g>
   </g>
   <g id="text_35">
    <!-- 21 -->
    <g transform="translate(664.67125 323.032422) scale(0.11 -0.11)">
     <use xlink:href="#DejaVuSans-15"/>
     <use xlink:href="#DejaVuSans-14" transform="translate(63.625 0)"/>
    </g>
   </g>
   <g id="text_36">
    <!-- 60 -->
    <g transform="translate(578.00125 371.182422) scale(0.11 -0.11)">
     <use xlink:href="#DejaVuSans-19"/>
     <use xlink:href="#DejaVuSans-13" transform="translate(63.625 0)"/>
    </g>
   </g>
   <g id="text_37">
    <!-- 12 -->
    <g transform="translate(693.56125 371.182422) scale(0.11 -0.11)">
     <use xlink:href="#DejaVuSans-14"/>
     <use xlink:href="#DejaVuSans-15" transform="translate(63.625 0)"/>
    </g>
   </g>
   <g id="text_38">
    <!-- 5 -->
    <g transform="translate(581.500625 419.332422) scale(0.11 -0.11)">
     <use xlink:href="#DejaVuSans-18"/>
    </g>
   </g>
   <g id="text_39">
    <!-- 53 -->
    <g transform="translate(693.56125 419.332422) scale(0.11 -0.11)">
     <use xlink:href="#DejaVuSans-18"/>
     <use xlink:href="#DejaVuSans-16" transform="translate(63.625 0)"/>
    </g>
   </g>
   <g id="text_40">
    <!-- 28 -->
    <g transform="translate(606.89125 467.482422) scale(0.11 -0.11)">
     <use xlink:href="#DejaVuSans-15"/>
     <use xlink:href="#DejaVuSans-1b" transform="translate(63.625 0)"/>
    </g>
   </g>
   <g id="text_41">
    <!-- 44 -->
    <g transform="translate(664.67125 467.482422) scale(0.11 -0.11)">
     <use xlink:href="#DejaVuSans-17"/>
     <use xlink:href="#DejaVuSans-17" transform="translate(63.625 0)"/>
    </g>
   </g>
   <g id="text_42">
    <!-- 38 -->
    <g transform="translate(106.13125 563.782422) scale(0.11 -0.11)">
     <use xlink:href="#DejaVuSans-16"/>
     <use xlink:href="#DejaVuSans-1b" transform="translate(63.625 0)"/>
    </g>
   </g>
   <g id="text_43">
    <!-- 22 -->
    <g transform="translate(163.91125 563.782422) scale(0.11 -0.11)">
     <use xlink:href="#DejaVuSans-15"/>
     <use xlink:href="#DejaVuSans-15" transform="translate(63.625 0)"/>
    </g>
   </g>
   <g id="text_44">
    <!-- 59 -->
    <g transform="translate(77.24125 611.932422) scale(0.11 -0.11)">
     <use xlink:href="#DejaVuSans-18"/>
     <use xlink:href="#DejaVuSans-1c" transform="translate(63.625 0)"/>
    </g>
   </g>
   <g id="text_45">
    <!-- 11 -->
    <g transform="translate(192.80125 611.932422) scale(0.11 -0.11)">
     <use xlink:href="#DejaVuSans-14"/>
     <use xlink:href="#DejaVuSans-14" transform="translate(63.625 0)"/>
    </g>
   </g>
   <g id="text_46">
    <!-- 6 -->
    <g transform="translate(80.740625 660.082422) scale(0.11 -0.11)">
     <use xlink:href="#DejaVuSans-19"/>
    </g>
   </g>
   <g id="text_47">
    <!-- 54 -->
    <g transform="translate(192.80125 660.082422) scale(0.11 -0.11)">
     <use xlink:href="#DejaVuSans-18"/>
     <use xlink:href="#DejaVuSans-17" transform="translate(63.625 0)"/>
    </g>
   </g>
   <g id="text_48">
    <!-- 27 -->
    <g transform="translate(106.13125 708.232422) scale(0.11 -0.11)">
     <use xlink:href="#DejaVuSans-15"/>
     <use xlink:href="#DejaVuSans-1a" transform="translate(63.625 0)"/>
    </g>
   </g>
   <g id="text_49">
    <!-- 43 -->
    <g transform="translate(163.91125 708.232422) scale(0.11 -0.11)">
     <use xlink:href="#DejaVuSans-17"/>
     <use xlink:href="#DejaVuSans-16" transform="translate(63.625 0)"/>
    </g>
   </g>
   <g id="text_50">
    <!-- 7 -->
    <g transform="translate(350.380625 563.782422) scale(0.11 -0.11)">
     <use xlink:href="#DejaVuSans-1a"/>
    </g>
   </g>
   <g id="text_51">
    <!-- 58 -->
    <g transform="translate(423.92125 563.782422) scale(0.11 -0.11)">
     <use xlink:href="#DejaVuSans-18"/>
     <use xlink:href="#DejaVuSans-1b" transform="translate(63.625 0)"/>
    </g>
   </g>
   <g id="text_52">
    <!-- 26 -->
    <g transform="translate(298.73125 611.932422) scale(0.11 -0.11)">
     <use xlink:href="#DejaVuSans-15"/>
     <use xlink:href="#DejaVuSans-19" transform="translate(63.625 0)"/>
    </g>
   </g>
   <g id="text_53">
    <!-- 39 -->
    <g transform="translate(472.07125 611.932422) scale(0.11 -0.11)">
     <use xlink:href="#DejaVuSans-16"/>
     <use xlink:href="#DejaVuSans-1c" transform="translate(63.625 0)"/>
    </g>
   </g>
   <g id="text_54">
    <!-- 42 -->
    <g transform="translate(298.73125 660.082422) scale(0.11 -0.11)">
     <use xlink:href="#DejaVuSans-17"/>
     <use xlink:href="#DejaVuSans-15" transform="translate(63.625 0)"/>
    </g>
   </g>
   <g id="text_55">
    <!-- 23 -->
    <g transform="translate(472.07125 660.082422) scale(0.11 -0.11)">
     <use xlink:href="#DejaVuSans-15"/>
     <use xlink:href="#DejaVuSans-16" transform="translate(63.625 0)"/>
    </g>
   </g>
   <g id="text_56">
    <!-- 55 -->
    <g transform="translate(346.88125 708.232422) scale(0.11 -0.11)">
     <use xlink:href="#DejaVuSans-18"/>
     <use xlink:href="#DejaVuSans-18" transform="translate(63.625 0)"/>
    </g>
   </g>
   <g id="text_57">
    <!-- 10 -->
    <g transform="translate(423.92125 708.232422) scale(0.11 -0.11)">
     <use xlink:href="#DejaVuSans-14"/>
     <use xlink:href="#DejaVuSans-13" transform="translate(63.625 0)"/>
    </g>
   </g>
   <g id="text_58">
    <!-- 47 -->
    <g transform="translate(606.89125 563.782422) scale(0.11 -0.11)">
     <use xlink:href="#DejaVuSans-17"/>
     <use xlink:href="#DejaVuSans-1a" transform="translate(63.625 0)"/>
    </g>
   </g>
   <g id="text_59">
    <!-- 31 -->
    <g transform="translate(664.67125 563.782422) scale(0.11 -0.11)">
     <use xlink:href="#DejaVuSans-16"/>
     <use xlink:href="#DejaVuSans-14" transform="translate(63.625 0)"/>
    </g>
   </g>
   <g id="text_60">
    <!-- 50 -->
    <g transform="translate(578.00125 611.932422) scale(0.11 -0.11)">
     <use xlink:href="#DejaVuSans-18"/>
     <use xlink:href="#DejaVuSans-13" transform="translate(63.625 0)"/>
    </g>
   </g>
   <g id="text_61">
    <!-- 2 -->
    <g transform="translate(697.060625 611.932422) scale(0.11 -0.11)">
     <use xlink:href="#DejaVuSans-15"/>
    </g>
   </g>
   <g id="text_62">
    <!-- 15 -->
    <g transform="translate(578.00125 660.082422) scale(0.11 -0.11)">
     <use xlink:href="#DejaVuSans-14"/>
     <use xlink:href="#DejaVuSans-18" transform="translate(63.625 0)"/>
    </g>
   </g>
   <g id="text_63">
    <!-- 63 -->
    <g transform="translate(693.56125 660.082422) scale(0.11 -0.11)">
     <use xlink:href="#DejaVuSans-19"/>
     <use xlink:href="#DejaVuSans-16" transform="translate(63.625 0)"/>
    </g>
   </g>
   <g id="text_64">
    <!-- 18 -->
    <g transform="translate(606.89125 708.232422) scale(0.11 -0.11)">
     <use xlink:href="#DejaVuSans-14"/>
     <use xlink:href="#DejaVuSans-1b" transform="translate(63.625 0)"/>
    </g>
   </g>
   <g id="text_65">
    <!-- 34 -->
    <g transform="translate(664.67125 708.232422) scale(0.11 -0.11)">
     <use xlink:href="#DejaVuSans-16"/>
     <use xlink:href="#DejaVuSans-17" transform="translate(63.625 0)"/>
    </g>
   </g>
  </g>
 </g>
 <defs>
  <clipPath id="p0b23202104">
   <rect x="7.2" y="7.2" width="770.4" height="770.4"/>
  </clipPath>
 </defs>
</svg>
