<?xml version="1.0" encoding="utf-8" standalone="no"?>
<!DOCTYPE svg PUBLIC "-//W3C//DTD SVG 1.1//EN"
  "http://www.w3.org/Graphics/SVG/1.1/DTD/svg11.dtd">
<svg xmlns:xlink="http://www.w3.org/1999/xlink" width="735.264265pt" height="786.320438pt" viewBox="0 0 735.264265 786.320438" xmlns="http://www.w3.org/2000/svg" version="1.1">
 <metadata>
  <rdf:RDF xmlns:dc="http://purl.org/dc/elements/1.1/" xmlns:cc="http://creativecommons.org/ns#" xmlns:rdf="http://www.w3.org/1999/02/22-rdf-syntax-ns#">
   <cc:Work>
    <dc:type rdf:resource="http://purl.org/dc/dcmitype/StillImage"/>
    <dc:date>2026-07-19T23:47:34.085128</dc:date>
    <dc:format>image/svg+xml</dc:format>
    <dc:creator>
     <cc:Agent>
      <dc:title>Matplotlib v3.10.1+dfsg1, https://matplotlib.org/</dc:title>
     </cc:Agent>
    </dc:creator>
   </cc:Work>
  </rdf:RDF>
 </metadata>
 <defs>
  <style type="text/css">*{stroke-linejoin: round; stroke-linecap: butt}</style>
 </defs>
 <g id="figure_1">
  <g id="patch_1">
   <path d="M -0 786.320438 
L 735.264265 786.320438 
L 735.264265 0 
L -0 0 
z
" style="fill: #ffffff"/>
  </g>
  <g id="axes_1">
   <g id="patch_2">
    <path d="M 457.629162 263.352881 
L 406.616958 212.340677 
L 334.474807 212.340677 
L 283.462603 263.352881 
L 283.462603 335.495033 
L 334.474807 386.507237 
L 406.616958 386.507237 
L 457.629162 335.495033 
z
" clip-path="url(#p77a267c929)" style="fill: #9ecae1; opacity: 0.24; stroke: #2171b5; stroke-width: 2.4"/>
   </g>
   <g id="patch_3">
    <path d="M 334.474807 386.507237 
L 283.462603 335.495033 
L 211.320451 335.495033 
L 160.308247 386.507237 
L 160.308247 458.649388 
L 211.320451 509.661592 
L 283.462603 509.661592 
L 334.474807 458.649388 
z
" clip-path="url(#p77a267c929)" style="fill: #a1d99b; opacity: 0.24; stroke: #238b45; stroke-width: 2.4"/>
   </g>
   <g id="patch_4">
    <path d="M 580.783518 386.507237 
L 529.771314 335.495033 
L 457.629162 335.495033 
L 406.616958 386.507237 
L 406.616958 458.649388 
L 457.629162 509.661592 
L 529.771314 509.661592 
L 580.783518 458.649388 
z
" clip-path="url(#p77a267c929)" style="fill: #fdae6b; opacity: 0.24; stroke: #d94801; stroke-width: 2.4"/>
   </g>
   <g id="patch_5">
    <path d="M 457.629162 509.661592 
L 406.616958 458.649388 
L 334.474807 458.649388 
L 283.462603 509.661592 
L 283.462603 581.803744 
L 334.474807 632.815948 
L 406.616958 632.815948 
L 457.629162 581.803744 
z
" clip-path="url(#p77a267c929)" style="fill: #bcbddc; opacity: 0.24; stroke: #6a51a3; stroke-width: 2.4"/>
   </g>
   <g id="text_1">
    <!-- central -->
    <g style="fill: #555555" transform="translate(355.758461 419.800406) scale(0.09 -0.09)">
     <defs>
      <path id="NotoSansCJKjp-Regular-63" d="M 1958 -83 
C 2374 -83 2771 83 3085 352 
L 2829 749 
C 2611 557 2330 403 2010 403 
C 1370 403 934 934 934 1734 
C 934 2534 1395 3072 2029 3072 
C 2298 3072 2522 2950 2720 2771 
L 3014 3155 
C 2771 3373 2458 3565 2003 3565 
C 1107 3565 333 2893 333 1734 
C 333 582 1037 -83 1958 -83 
z
" transform="scale(0.015625)"/>
      <path id="NotoSansCJKjp-Regular-65" d="M 1997 -83 
C 2464 -83 2835 70 3136 269 
L 2931 659 
C 2669 486 2400 384 2061 384 
C 1402 384 947 858 909 1600 
L 3251 1600 
C 3264 1690 3277 1805 3277 1933 
C 3277 2925 2778 3565 1888 3565 
C 1094 3565 333 2867 333 1734 
C 333 589 1069 -83 1997 -83 
z
M 902 2016 
C 973 2707 1408 3098 1901 3098 
C 2445 3098 2765 2720 2765 2016 
L 902 2016 
z
" transform="scale(0.015625)"/>
      <path id="NotoSansCJKjp-Regular-6e" d="M 589 0 
L 1178 0 
L 1178 2522 
C 1523 2874 1766 3053 2125 3053 
C 2586 3053 2784 2778 2784 2125 
L 2784 0 
L 3366 0 
L 3366 2202 
C 3366 3085 3034 3565 2304 3565 
C 1830 3565 1466 3302 1139 2970 
L 1126 2970 
L 1069 3475 
L 589 3475 
L 589 0 
z
" transform="scale(0.015625)"/>
      <path id="NotoSansCJKjp-Regular-74" d="M 1677 -83 
C 1894 -83 2125 -19 2323 45 
L 2208 486 
C 2093 435 1939 390 1811 390 
C 1408 390 1274 634 1274 1056 
L 1274 3002 
L 2221 3002 
L 2221 3475 
L 1274 3475 
L 1274 4454 
L 787 4454 
L 723 3475 
L 173 3443 
L 173 3002 
L 691 3002 
L 691 1075 
C 691 378 941 -83 1677 -83 
z
" transform="scale(0.015625)"/>
      <path id="NotoSansCJKjp-Regular-72" d="M 589 0 
L 1178 0 
L 1178 2234 
C 1408 2822 1760 3040 2048 3040 
C 2195 3040 2272 3021 2387 2982 
L 2496 3488 
C 2387 3546 2278 3565 2125 3565 
C 1741 3565 1382 3283 1139 2842 
L 1126 2842 
L 1069 3475 
L 589 3475 
L 589 0 
z
" transform="scale(0.015625)"/>
      <path id="NotoSansCJKjp-Regular-61" d="M 1389 -83 
C 1818 -83 2208 141 2541 416 
L 2560 416 
L 2611 0 
L 3091 0 
L 3091 2138 
C 3091 3002 2739 3565 1888 3565 
C 1325 3565 838 3315 525 3110 
L 749 2707 
C 1024 2893 1389 3078 1792 3078 
C 2362 3078 2509 2650 2509 2202 
C 1030 2035 378 1658 378 902 
C 378 275 806 -83 1389 -83 
z
M 1555 390 
C 1210 390 941 544 941 941 
C 941 1389 1338 1677 2509 1811 
L 2509 845 
C 2170 544 1888 390 1555 390 
z
" transform="scale(0.015625)"/>
      <path id="NotoSansCJKjp-Regular-6c" d="M 1203 -83 
C 1363 -83 1459 -58 1542 -32 
L 1459 416 
C 1395 403 1370 403 1338 403 
C 1248 403 1178 474 1178 653 
L 1178 5094 
L 589 5094 
L 589 691 
C 589 198 768 -83 1203 -83 
z
" transform="scale(0.015625)"/>
     </defs>
     <use xlink:href="#NotoSansCJKjp-Regular-63"/>
     <use xlink:href="#NotoSansCJKjp-Regular-65" transform="translate(50.999985 0)"/>
     <use xlink:href="#NotoSansCJKjp-Regular-6e" transform="translate(106.399979 0)"/>
     <use xlink:href="#NotoSansCJKjp-Regular-74" transform="translate(167.399963 0)"/>
     <use xlink:href="#NotoSansCJKjp-Regular-72" transform="translate(205.09996 0)"/>
     <use xlink:href="#NotoSansCJKjp-Regular-61" transform="translate(243.899948 0)"/>
     <use xlink:href="#NotoSansCJKjp-Regular-6c" transform="translate(300.199936 0)"/>
    </g>
    <!-- square -->
    <g style="fill: #555555" transform="translate(356.145883 430.458094) scale(0.09 -0.09)">
     <defs>
      <path id="NotoSansCJKjp-Regular-73" d="M 1498 -83 
C 2317 -83 2758 384 2758 947 
C 2758 1606 2208 1811 1702 2003 
C 1312 2150 954 2278 954 2605 
C 954 2880 1158 3110 1600 3110 
C 1907 3110 2150 2976 2387 2803 
L 2669 3168 
C 2406 3386 2022 3565 1594 3565 
C 832 3565 397 3130 397 2579 
C 397 1984 922 1754 1408 1574 
C 1792 1434 2202 1267 2202 915 
C 2202 614 1978 371 1517 371 
C 1101 371 794 538 486 787 
L 205 397 
C 531 122 1005 -83 1498 -83 
z
" transform="scale(0.015625)"/>
      <path id="NotoSansCJKjp-Regular-71" d="M 2790 -1466 
L 3379 -1466 
L 3379 3475 
L 2912 3475 
L 2854 3149 
L 2842 3149 
C 2534 3418 2253 3565 1843 3565 
C 1050 3565 339 2861 339 1734 
C 339 576 902 -83 1773 -83 
C 2176 -83 2541 128 2822 403 
L 2790 -230 
L 2790 -1466 
z
M 1901 410 
C 1293 410 941 902 941 1741 
C 941 2534 1389 3072 1946 3072 
C 2234 3072 2502 2970 2790 2707 
L 2790 883 
C 2502 563 2221 410 1901 410 
z
" transform="scale(0.015625)"/>
      <path id="NotoSansCJKjp-Regular-75" d="M 1606 -83 
C 2080 -83 2426 166 2752 544 
L 2771 544 
L 2816 0 
L 3302 0 
L 3302 3475 
L 2720 3475 
L 2720 1011 
C 2387 602 2138 422 1779 422 
C 1318 422 1126 698 1126 1344 
L 1126 3475 
L 538 3475 
L 538 1274 
C 538 384 870 -83 1606 -83 
z
" transform="scale(0.015625)"/>
     </defs>
     <use xlink:href="#NotoSansCJKjp-Regular-73"/>
     <use xlink:href="#NotoSansCJKjp-Regular-71" transform="translate(46.799988 0)"/>
     <use xlink:href="#NotoSansCJKjp-Regular-75" transform="translate(108.799973 0)"/>
     <use xlink:href="#NotoSansCJKjp-Regular-61" transform="translate(169.499969 0)"/>
     <use xlink:href="#NotoSansCJKjp-Regular-72" transform="translate(225.799957 0)"/>
     <use xlink:href="#NotoSansCJKjp-Regular-65" transform="translate(264.599945 0)"/>
    </g>
   </g>
   <g id="text_2">
    <!-- Gichaek-yong-paldo (氣策用八圖) -->
    <g transform="translate(240.17182 21.549062) scale(0.17 -0.17)">
     <defs>
      <path id="NotoSansCJKjp-Regular-47" d="M 2490 -83 
C 3117 -83 3635 147 3936 461 
L 3936 2432 
L 2394 2432 
L 2394 1939 
L 3392 1939 
L 3392 710 
C 3206 538 2880 435 2547 435 
C 1542 435 979 1178 979 2362 
C 979 3533 1594 4256 2541 4256 
C 3008 4256 3315 4058 3552 3814 
L 3872 4198 
C 3603 4480 3174 4774 2522 4774 
C 1280 4774 371 3859 371 2342 
C 371 819 1254 -83 2490 -83 
z
" transform="scale(0.015625)"/>
      <path id="NotoSansCJKjp-Regular-69" d="M 589 0 
L 1178 0 
L 1178 3475 
L 589 3475 
L 589 0 
z
M 883 4192 
C 1114 4192 1274 4346 1274 4582 
C 1274 4806 1114 4960 883 4960 
C 653 4960 499 4806 499 4582 
C 499 4346 653 4192 883 4192 
z
" transform="scale(0.015625)"/>
      <path id="NotoSansCJKjp-Regular-68" d="M 589 0 
L 1178 0 
L 1178 2522 
C 1523 2874 1766 3053 2125 3053 
C 2586 3053 2784 2778 2784 2125 
L 2784 0 
L 3366 0 
L 3366 2202 
C 3366 3085 3034 3565 2304 3565 
C 1830 3565 1472 3302 1152 2982 
L 1178 3699 
L 1178 5094 
L 589 5094 
L 589 0 
z
" transform="scale(0.015625)"/>
      <path id="NotoSansCJKjp-Regular-6b" d="M 589 0 
L 1165 0 
L 1165 915 
L 1818 1677 
L 2835 0 
L 3469 0 
L 2157 2074 
L 3315 3475 
L 2662 3475 
L 1190 1645 
L 1165 1645 
L 1165 5094 
L 589 5094 
L 589 0 
z
" transform="scale(0.015625)"/>
      <path id="NotoSansCJKjp-Regular-2d" d="M 294 1568 
L 1933 1568 
L 1933 2016 
L 294 2016 
L 294 1568 
z
" transform="scale(0.015625)"/>
      <path id="NotoSansCJKjp-Regular-79" d="M 646 -1498 
C 1338 -1498 1702 -973 1946 -294 
L 3251 3475 
L 2682 3475 
L 2054 1549 
C 1965 1235 1862 883 1773 563 
L 1741 563 
C 1619 890 1504 1242 1395 1549 
L 691 3475 
L 83 3475 
L 1478 -6 
L 1402 -269 
C 1254 -698 1011 -1018 621 -1018 
C 525 -1018 422 -986 352 -960 
L 237 -1427 
C 346 -1472 486 -1498 646 -1498 
z
" transform="scale(0.015625)"/>
      <path id="NotoSansCJKjp-Regular-6f" d="M 1939 -83 
C 2790 -83 3546 582 3546 1734 
C 3546 2893 2790 3565 1939 3565 
C 1088 3565 333 2893 333 1734 
C 333 582 1088 -83 1939 -83 
z
M 1939 403 
C 1338 403 934 934 934 1734 
C 934 2534 1338 3072 1939 3072 
C 2541 3072 2950 2534 2950 1734 
C 2950 934 2541 403 1939 403 
z
" transform="scale(0.015625)"/>
      <path id="NotoSansCJKjp-Regular-67" d="M 1760 -1600 
C 2835 -1600 3520 -1043 3520 -397 
C 3520 179 3110 429 2310 429 
L 1626 429 
C 1158 429 1018 589 1018 806 
C 1018 998 1114 1114 1242 1222 
C 1395 1146 1587 1101 1754 1101 
C 2470 1101 3027 1568 3027 2310 
C 3027 2611 2912 2867 2746 3027 
L 3456 3027 
L 3456 3475 
L 2246 3475 
C 2125 3526 1952 3565 1754 3565 
C 1056 3565 454 3085 454 2323 
C 454 1907 678 1568 909 1389 
L 909 1363 
C 723 1235 525 1005 525 717 
C 525 442 659 256 838 147 
L 838 115 
C 512 -83 326 -371 326 -672 
C 326 -1267 915 -1600 1760 -1600 
z
M 1754 1498 
C 1357 1498 1018 1818 1018 2323 
C 1018 2835 1350 3136 1754 3136 
C 2170 3136 2496 2835 2496 2323 
C 2496 1818 2157 1498 1754 1498 
z
M 1843 -1197 
C 1210 -1197 838 -960 838 -589 
C 838 -390 941 -179 1190 0 
C 1344 -38 1510 -51 1638 -51 
L 2240 -51 
C 2701 -51 2944 -166 2944 -493 
C 2944 -851 2515 -1197 1843 -1197 
z
" transform="scale(0.015625)"/>
      <path id="NotoSansCJKjp-Regular-70" d="M 589 -1466 
L 1178 -1466 
L 1178 -288 
L 1158 320 
C 1472 58 1805 -83 2118 -83 
C 2912 -83 3629 602 3629 1792 
C 3629 2867 3142 3565 2246 3565 
C 1843 3565 1453 3334 1139 3072 
L 1126 3072 
L 1069 3475 
L 589 3475 
L 589 -1466 
z
M 2022 410 
C 1792 410 1485 499 1178 768 
L 1178 2598 
C 1510 2906 1811 3072 2099 3072 
C 2765 3072 3021 2560 3021 1786 
C 3021 928 2598 410 2022 410 
z
" transform="scale(0.015625)"/>
      <path id="NotoSansCJKjp-Regular-64" d="M 1773 -83 
C 2189 -83 2560 141 2829 410 
L 2848 410 
L 2899 0 
L 3379 0 
L 3379 5094 
L 2790 5094 
L 2790 3757 
L 2822 3162 
C 2515 3411 2253 3565 1843 3565 
C 1050 3565 339 2861 339 1734 
C 339 576 902 -83 1773 -83 
z
M 1901 410 
C 1293 410 941 902 941 1741 
C 941 2534 1389 3072 1946 3072 
C 2234 3072 2502 2970 2790 2707 
L 2790 883 
C 2502 563 2221 410 1901 410 
z
" transform="scale(0.015625)"/>
      <path id="NotoSansCJKjp-Regular-20" transform="scale(0.015625)"/>
      <path id="NotoSansCJKjp-Regular-28" d="M 1530 -1254 
L 1888 -1094 
C 1338 -186 1075 902 1075 1990 
C 1075 3072 1338 4154 1888 5069 
L 1530 5235 
C 941 4275 589 3245 589 1990 
C 589 730 941 -301 1530 -1254 
z
" transform="scale(0.015625)"/>
      <path id="NotoSansCJKjp-Regular-6c23" d="M 1581 4000 
L 1581 3622 
L 5414 3622 
L 5414 4000 
L 1581 4000 
z
M 947 2419 
C 1158 2176 1363 1830 1440 1600 
L 1824 1766 
C 1741 2003 1523 2336 1306 2579 
L 947 2419 
z
M 3622 2611 
C 3488 2349 3232 1971 3034 1734 
L 3347 1594 
C 3552 1818 3821 2150 4051 2451 
L 3622 2611 
z
M 1677 5389 
C 1376 4621 851 3891 250 3437 
C 378 3366 595 3219 698 3130 
C 1069 3456 1440 3904 1747 4403 
L 5901 4403 
L 5901 4781 
L 1958 4781 
C 2042 4934 2118 5094 2182 5254 
L 1677 5389 
z
M 922 3206 
L 922 2822 
L 4576 2822 
C 4634 922 4800 -506 5638 -506 
C 6022 -506 6125 -198 6170 608 
C 6067 666 5933 781 5837 890 
C 5824 326 5792 -38 5677 -38 
C 5203 -38 5069 1536 5043 3206 
L 922 3206 
z
M 2234 2682 
L 2234 1562 
L 506 1562 
L 506 1178 
L 1914 1178 
C 1510 685 883 211 339 -26 
C 442 -109 576 -275 646 -384 
C 1190 -102 1805 410 2234 960 
L 2234 -506 
L 2688 -506 
L 2688 685 
C 3174 384 3706 26 3987 -230 
L 4301 70 
C 3949 371 3245 819 2701 1114 
L 2688 1101 
L 2688 1178 
L 4371 1178 
L 4371 1562 
L 2688 1562 
L 2688 2682 
L 2234 2682 
z
" transform="scale(0.015625)"/>
      <path id="NotoSansCJKjp-Regular-7b56" d="M 3699 5402 
C 3494 4826 3117 4288 2669 3936 
C 2752 3891 2880 3808 2976 3738 
L 2976 3514 
L 435 3514 
L 435 3091 
L 2976 3091 
L 2976 2592 
L 896 2592 
L 896 934 
L 1395 934 
L 1395 2176 
L 2976 2176 
L 2976 1619 
C 2406 915 1338 346 275 96 
C 384 0 512 -186 582 -307 
C 1459 -58 2349 422 2976 1043 
L 2976 -512 
L 3488 -512 
L 3488 1030 
C 4045 512 4890 -13 5888 -275 
C 5958 -154 6099 38 6195 141 
C 5018 403 4000 998 3488 1568 
L 3488 2176 
L 5088 2176 
L 5088 1402 
C 5088 1338 5069 1318 4998 1318 
C 4922 1312 4678 1312 4416 1318 
C 4474 1216 4550 1062 4576 941 
C 4941 941 5197 941 5363 1005 
C 5536 1075 5581 1178 5581 1402 
L 5581 2592 
L 3488 2592 
L 3488 3091 
L 5946 3091 
L 5946 3514 
L 3488 3514 
L 3488 3923 
L 3347 3923 
C 3475 4070 3603 4230 3718 4403 
L 4198 4403 
C 4365 4154 4518 3866 4582 3661 
L 5011 3814 
C 4954 3974 4832 4198 4698 4403 
L 6029 4403 
L 6029 4813 
L 3962 4813 
C 4038 4966 4109 5126 4173 5286 
L 3699 5402 
z
M 1222 5402 
C 1005 4838 627 4288 211 3923 
C 326 3859 525 3725 614 3654 
C 819 3859 1024 4115 1216 4403 
L 1523 4403 
C 1664 4147 1798 3846 1862 3648 
L 2285 3808 
C 2234 3968 2125 4192 2010 4403 
L 3104 4403 
L 3104 4813 
L 1453 4813 
C 1536 4966 1613 5120 1677 5280 
L 1222 5402 
z
" transform="scale(0.015625)"/>
      <path id="NotoSansCJKjp-Regular-7528" d="M 979 4928 
L 979 2605 
C 979 1702 915 570 205 -230 
C 314 -288 506 -448 576 -544 
C 1069 0 1286 736 1382 1453 
L 2989 1453 
L 2989 -454 
L 3475 -454 
L 3475 1453 
L 5203 1453 
L 5203 141 
C 5203 26 5158 -13 5030 -19 
C 4909 -26 4474 -32 4026 -13 
C 4090 -141 4166 -352 4192 -474 
C 4794 -480 5165 -474 5382 -397 
C 5600 -320 5677 -173 5677 141 
L 5677 4928 
L 979 4928 
z
M 1453 4467 
L 2989 4467 
L 2989 3437 
L 1453 3437 
L 1453 4467 
z
M 5203 4467 
L 5203 3437 
L 3475 3437 
L 3475 4467 
L 5203 4467 
z
M 1453 2982 
L 2989 2982 
L 2989 1907 
L 1427 1907 
C 1446 2150 1453 2387 1453 2605 
L 1453 2982 
z
M 5203 2982 
L 5203 1907 
L 3475 1907 
L 3475 2982 
L 5203 2982 
z
" transform="scale(0.015625)"/>
      <path id="NotoSansCJKjp-Regular-516b" d="M 1830 3654 
C 1658 2304 1248 717 256 -179 
C 371 -262 557 -429 646 -531 
C 1690 435 2138 2099 2374 3578 
L 1830 3654 
z
M 1664 4870 
L 1664 4371 
L 3885 4371 
C 4096 2291 4544 454 5683 -512 
C 5798 -390 6003 -218 6144 -134 
C 4966 781 4531 2694 4339 4870 
L 1664 4870 
z
" transform="scale(0.015625)"/>
      <path id="NotoSansCJKjp-Regular-5716" d="M 2317 4122 
L 4058 4122 
L 4058 3699 
L 2317 3699 
L 2317 4122 
z
M 2099 2234 
L 4275 2234 
L 4275 806 
L 2099 806 
L 2099 2234 
z
M 1715 2534 
L 1715 506 
L 4678 506 
L 4678 2534 
L 1715 2534 
z
M 2810 1709 
L 3552 1709 
L 3552 1331 
L 2810 1331 
L 2810 1709 
z
M 2509 1965 
L 2509 1082 
L 3872 1082 
L 3872 1965 
L 2509 1965 
z
M 1280 3117 
L 1280 2816 
L 5133 2816 
L 5133 3117 
L 3386 3117 
L 3386 3411 
L 4474 3411 
L 4474 4403 
L 1920 4403 
L 1920 3411 
L 2970 3411 
L 2970 3117 
L 1280 3117 
z
M 525 5114 
L 525 -506 
L 979 -506 
L 979 -250 
L 5421 -250 
L 5421 -506 
L 5888 -506 
L 5888 5114 
L 525 5114 
z
M 979 154 
L 979 4710 
L 5421 4710 
L 5421 154 
L 979 154 
z
" transform="scale(0.015625)"/>
      <path id="NotoSansCJKjp-Regular-29" d="M 634 -1254 
C 1222 -301 1574 730 1574 1990 
C 1574 3245 1222 4275 634 5235 
L 269 5069 
C 819 4154 1094 3072 1094 1990 
C 1094 902 819 -186 269 -1094 
L 634 -1254 
z
" transform="scale(0.015625)"/>
     </defs>
     <use xlink:href="#NotoSansCJKjp-Regular-47"/>
     <use xlink:href="#NotoSansCJKjp-Regular-69" transform="translate(68.899994 0)"/>
     <use xlink:href="#NotoSansCJKjp-Regular-63" transform="translate(96.399979 0)"/>
     <use xlink:href="#NotoSansCJKjp-Regular-68" transform="translate(147.399963 0)"/>
     <use xlink:href="#NotoSansCJKjp-Regular-61" transform="translate(208.09996 0)"/>
     <use xlink:href="#NotoSansCJKjp-Regular-65" transform="translate(264.399948 0)"/>
     <use xlink:href="#NotoSansCJKjp-Regular-6b" transform="translate(319.799942 0)"/>
     <use xlink:href="#NotoSansCJKjp-Regular-2d" transform="translate(374.999939 0)"/>
     <use xlink:href="#NotoSansCJKjp-Regular-79" transform="translate(409.699936 0)"/>
     <use xlink:href="#NotoSansCJKjp-Regular-6f" transform="translate(461.799927 0)"/>
     <use xlink:href="#NotoSansCJKjp-Regular-6e" transform="translate(522.399918 0)"/>
     <use xlink:href="#NotoSansCJKjp-Regular-67" transform="translate(583.399902 0)"/>
     <use xlink:href="#NotoSansCJKjp-Regular-2d" transform="translate(639.799896 0)"/>
     <use xlink:href="#NotoSansCJKjp-Regular-70" transform="translate(674.499893 0)"/>
     <use xlink:href="#NotoSansCJKjp-Regular-61" transform="translate(736.499878 0)"/>
     <use xlink:href="#NotoSansCJKjp-Regular-6c" transform="translate(792.799866 0)"/>
     <use xlink:href="#NotoSansCJKjp-Regular-64" transform="translate(821.19986 0)"/>
     <use xlink:href="#NotoSansCJKjp-Regular-6f" transform="translate(883.199844 0)"/>
     <use xlink:href="#NotoSansCJKjp-Regular-20" transform="translate(943.799835 0)"/>
     <use xlink:href="#NotoSansCJKjp-Regular-28" transform="translate(966.199829 0)"/>
     <use xlink:href="#NotoSansCJKjp-Regular-6c23" transform="translate(999.999817 0)"/>
     <use xlink:href="#NotoSansCJKjp-Regular-7b56" transform="translate(1099.999802 0)"/>
     <use xlink:href="#NotoSansCJKjp-Regular-7528" transform="translate(1199.999786 0)"/>
     <use xlink:href="#NotoSansCJKjp-Regular-516b" transform="translate(1299.999771 0)"/>
     <use xlink:href="#NotoSansCJKjp-Regular-5716" transform="translate(1399.999756 0)"/>
     <use xlink:href="#NotoSansCJKjp-Regular-29" transform="translate(1499.999741 0)"/>
    </g>
    <!-- Each octagon has vertex sum 100 -->
    <g transform="translate(239.465258 42.036187) scale(0.17 -0.17)">
     <defs>
      <path id="NotoSansCJKjp-Regular-45" d="M 646 0 
L 3418 0 
L 3418 506 
L 1235 506 
L 1235 2214 
L 3014 2214 
L 3014 2720 
L 1235 2720 
L 1235 4192 
L 3347 4192 
L 3347 4691 
L 646 4691 
L 646 0 
z
" transform="scale(0.015625)"/>
      <path id="NotoSansCJKjp-Regular-76" d="M 1338 0 
L 2022 0 
L 3251 3475 
L 2675 3475 
L 2016 1498 
C 1914 1158 1798 806 1696 474 
L 1664 474 
C 1562 806 1453 1158 1344 1498 
L 691 3475 
L 83 3475 
L 1338 0 
z
" transform="scale(0.015625)"/>
      <path id="NotoSansCJKjp-Regular-78" d="M 96 0 
L 710 0 
L 1178 813 
C 1299 1024 1408 1235 1530 1434 
L 1562 1434 
C 1696 1235 1824 1024 1939 813 
L 2451 0 
L 3091 0 
L 1946 1754 
L 3002 3475 
L 2394 3475 
L 1965 2714 
C 1856 2515 1760 2330 1658 2131 
L 1626 2131 
C 1510 2330 1389 2515 1286 2714 
L 819 3475 
L 186 3475 
L 1242 1811 
L 96 0 
z
" transform="scale(0.015625)"/>
      <path id="NotoSansCJKjp-Regular-6d" d="M 589 0 
L 1178 0 
L 1178 2522 
C 1491 2880 1786 3053 2048 3053 
C 2490 3053 2694 2778 2694 2125 
L 2694 0 
L 3277 0 
L 3277 2522 
C 3603 2880 3885 3053 4154 3053 
C 4595 3053 4800 2778 4800 2125 
L 4800 0 
L 5382 0 
L 5382 2202 
C 5382 3085 5043 3565 4333 3565 
C 3904 3565 3546 3290 3181 2899 
C 3040 3309 2758 3565 2221 3565 
C 1805 3565 1446 3302 1139 2970 
L 1126 2970 
L 1069 3475 
L 589 3475 
L 589 0 
z
" transform="scale(0.015625)"/>
      <path id="NotoSansCJKjp-Regular-31" d="M 563 0 
L 3136 0 
L 3136 486 
L 2195 486 
L 2195 4691 
L 1747 4691 
C 1491 4544 1190 4435 774 4358 
L 774 3987 
L 1613 3987 
L 1613 486 
L 563 486 
L 563 0 
z
" transform="scale(0.015625)"/>
      <path id="NotoSansCJKjp-Regular-30" d="M 1779 -83 
C 2669 -83 3238 723 3238 2362 
C 3238 3987 2669 4774 1779 4774 
C 883 4774 320 3987 320 2362 
C 320 723 883 -83 1779 -83 
z
M 1779 390 
C 1248 390 883 986 883 2362 
C 883 3731 1248 4314 1779 4314 
C 2310 4314 2675 3731 2675 2362 
C 2675 986 2310 390 1779 390 
z
" transform="scale(0.015625)"/>
     </defs>
     <use xlink:href="#NotoSansCJKjp-Regular-45"/>
     <use xlink:href="#NotoSansCJKjp-Regular-61" transform="translate(58.899994 0)"/>
     <use xlink:href="#NotoSansCJKjp-Regular-63" transform="translate(115.199982 0)"/>
     <use xlink:href="#NotoSansCJKjp-Regular-68" transform="translate(166.199966 0)"/>
     <use xlink:href="#NotoSansCJKjp-Regular-20" transform="translate(226.899963 0)"/>
     <use xlink:href="#NotoSansCJKjp-Regular-6f" transform="translate(249.299957 0)"/>
     <use xlink:href="#NotoSansCJKjp-Regular-63" transform="translate(309.899948 0)"/>
     <use xlink:href="#NotoSansCJKjp-Regular-74" transform="translate(360.899933 0)"/>
     <use xlink:href="#NotoSansCJKjp-Regular-61" transform="translate(398.59993 0)"/>
     <use xlink:href="#NotoSansCJKjp-Regular-67" transform="translate(454.899918 0)"/>
     <use xlink:href="#NotoSansCJKjp-Regular-6f" transform="translate(511.299911 0)"/>
     <use xlink:href="#NotoSansCJKjp-Regular-6e" transform="translate(571.899902 0)"/>
     <use xlink:href="#NotoSansCJKjp-Regular-20" transform="translate(632.899887 0)"/>
     <use xlink:href="#NotoSansCJKjp-Regular-68" transform="translate(655.299881 0)"/>
     <use xlink:href="#NotoSansCJKjp-Regular-61" transform="translate(715.999878 0)"/>
     <use xlink:href="#NotoSansCJKjp-Regular-73" transform="translate(772.299866 0)"/>
     <use xlink:href="#NotoSansCJKjp-Regular-20" transform="translate(819.099854 0)"/>
     <use xlink:href="#NotoSansCJKjp-Regular-76" transform="translate(841.499847 0)"/>
     <use xlink:href="#NotoSansCJKjp-Regular-65" transform="translate(893.599838 0)"/>
     <use xlink:href="#NotoSansCJKjp-Regular-72" transform="translate(948.999832 0)"/>
     <use xlink:href="#NotoSansCJKjp-Regular-74" transform="translate(987.79982 0)"/>
     <use xlink:href="#NotoSansCJKjp-Regular-65" transform="translate(1025.499817 0)"/>
     <use xlink:href="#NotoSansCJKjp-Regular-78" transform="translate(1080.899811 0)"/>
     <use xlink:href="#NotoSansCJKjp-Regular-20" transform="translate(1130.699799 0)"/>
     <use xlink:href="#NotoSansCJKjp-Regular-73" transform="translate(1153.099792 0)"/>
     <use xlink:href="#NotoSansCJKjp-Regular-75" transform="translate(1199.89978 0)"/>
     <use xlink:href="#NotoSansCJKjp-Regular-6d" transform="translate(1260.599777 0)"/>
     <use xlink:href="#NotoSansCJKjp-Regular-20" transform="translate(1353.199768 0)"/>
     <use xlink:href="#NotoSansCJKjp-Regular-31" transform="translate(1375.599762 0)"/>
     <use xlink:href="#NotoSansCJKjp-Regular-30" transform="translate(1431.099747 0)"/>
     <use xlink:href="#NotoSansCJKjp-Regular-30" transform="translate(1486.599731 0)"/>
    </g>
   </g>
   <g id="text_3">
    <!-- Top octagon -->
    <g transform="translate(333.641195 268.912565) scale(0.12 -0.12)">
     <defs>
      <path id="NotoSansCJKjp-Bold-54" d="M 1523 0 
L 2470 0 
L 2470 3949 
L 3808 3949 
L 3808 4742 
L 192 4742 
L 192 3949 
L 1523 3949 
L 1523 0 
z
" transform="scale(0.015625)"/>
      <path id="NotoSansCJKjp-Bold-6f" d="M 2003 -90 
C 2899 -90 3725 602 3725 1792 
C 3725 2982 2899 3674 2003 3674 
C 1101 3674 282 2982 282 1792 
C 282 602 1101 -90 2003 -90 
z
M 2003 678 
C 1510 678 1242 1114 1242 1792 
C 1242 2464 1510 2906 2003 2906 
C 2490 2906 2765 2464 2765 1792 
C 2765 1114 2490 678 2003 678 
z
" transform="scale(0.015625)"/>
      <path id="NotoSansCJKjp-Bold-70" d="M 506 -1376 
L 1446 -1376 
L 1446 -282 
L 1414 301 
C 1683 51 1990 -90 2304 -90 
C 3091 -90 3827 621 3827 1850 
C 3827 2950 3296 3674 2419 3674 
C 2029 3674 1664 3469 1363 3213 
L 1344 3213 
L 1274 3584 
L 506 3584 
L 506 -1376 
z
M 2099 685 
C 1901 685 1677 755 1446 954 
L 1446 2534 
C 1690 2778 1907 2899 2150 2899 
C 2643 2899 2861 2522 2861 1837 
C 2861 1056 2522 685 2099 685 
z
" transform="scale(0.015625)"/>
      <path id="NotoSansCJKjp-Bold-20" transform="scale(0.015625)"/>
      <path id="NotoSansCJKjp-Bold-63" d="M 2029 -90 
C 2426 -90 2861 45 3200 346 
L 2829 966 
C 2630 800 2394 678 2131 678 
C 1613 678 1242 1114 1242 1792 
C 1242 2464 1613 2906 2163 2906 
C 2362 2906 2528 2822 2707 2675 
L 3155 3270 
C 2893 3507 2554 3674 2112 3674 
C 1139 3674 282 2982 282 1792 
C 282 602 1043 -90 2029 -90 
z
" transform="scale(0.015625)"/>
      <path id="NotoSansCJKjp-Bold-74" d="M 1818 -90 
C 2131 -90 2381 -13 2579 45 
L 2419 730 
C 2323 691 2182 653 2067 653 
C 1747 653 1574 845 1574 1254 
L 1574 2842 
L 2464 2842 
L 2464 3584 
L 1574 3584 
L 1574 4550 
L 800 4550 
L 691 3584 
L 134 3539 
L 134 2842 
L 640 2842 
L 640 1248 
C 640 454 966 -90 1818 -90 
z
" transform="scale(0.015625)"/>
      <path id="NotoSansCJKjp-Bold-61" d="M 1382 -90 
C 1798 -90 2157 109 2464 384 
L 2496 384 
L 2560 0 
L 3328 0 
L 3328 2093 
C 3328 3130 2861 3674 1952 3674 
C 1389 3674 877 3456 461 3200 
L 794 2573 
C 1126 2771 1446 2918 1779 2918 
C 2221 2918 2374 2650 2387 2298 
C 947 2144 326 1741 326 979 
C 326 365 742 -90 1382 -90 
z
M 1696 646 
C 1421 646 1222 768 1222 1050 
C 1222 1376 1510 1613 2387 1715 
L 2387 998 
C 2163 774 1965 646 1696 646 
z
" transform="scale(0.015625)"/>
      <path id="NotoSansCJKjp-Bold-67" d="M 1766 -1555 
C 2963 -1555 3718 -1005 3718 -282 
C 3718 346 3245 614 2381 614 
L 1766 614 
C 1350 614 1203 717 1203 902 
C 1203 1056 1267 1133 1357 1216 
C 1517 1158 1683 1133 1818 1133 
C 2592 1133 3206 1536 3206 2349 
C 3206 2573 3136 2771 3046 2893 
L 3654 2893 
L 3654 3584 
L 2368 3584 
C 2214 3635 2029 3674 1818 3674 
C 1062 3674 378 3219 378 2381 
C 378 1958 608 1619 858 1440 
L 858 1414 
C 640 1261 461 1011 461 749 
C 461 448 595 262 787 141 
L 787 109 
C 448 -77 275 -333 275 -634 
C 275 -1267 922 -1555 1766 -1555 
z
M 1818 1715 
C 1510 1715 1261 1952 1261 2381 
C 1261 2797 1504 3027 1818 3027 
C 2138 3027 2387 2797 2387 2381 
C 2387 1952 2138 1715 1818 1715 
z
M 1907 -954 
C 1389 -954 1056 -787 1056 -493 
C 1056 -339 1126 -198 1286 -70 
C 1421 -102 1568 -115 1779 -115 
L 2221 -115 
C 2605 -115 2816 -186 2816 -442 
C 2816 -717 2451 -954 1907 -954 
z
" transform="scale(0.015625)"/>
      <path id="NotoSansCJKjp-Bold-6e" d="M 506 0 
L 1446 0 
L 1446 2464 
C 1709 2726 1901 2867 2189 2867 
C 2541 2867 2694 2675 2694 2118 
L 2694 0 
L 3635 0 
L 3635 2234 
C 3635 3136 3302 3674 2528 3674 
C 2042 3674 1677 3418 1363 3110 
L 1344 3110 
L 1274 3584 
L 506 3584 
L 506 0 
z
" transform="scale(0.015625)"/>
     </defs>
     <use xlink:href="#NotoSansCJKjp-Bold-54"/>
     <use xlink:href="#NotoSansCJKjp-Bold-6f" transform="translate(62.499985 0)"/>
     <use xlink:href="#NotoSansCJKjp-Bold-70" transform="translate(125.099976 0)"/>
     <use xlink:href="#NotoSansCJKjp-Bold-20" transform="translate(189.499969 0)"/>
     <use xlink:href="#NotoSansCJKjp-Bold-6f" transform="translate(212.199966 0)"/>
     <use xlink:href="#NotoSansCJKjp-Bold-63" transform="translate(274.799957 0)"/>
     <use xlink:href="#NotoSansCJKjp-Bold-74" transform="translate(327.499954 0)"/>
     <use xlink:href="#NotoSansCJKjp-Bold-61" transform="translate(369.599945 0)"/>
     <use xlink:href="#NotoSansCJKjp-Bold-67" transform="translate(428.699936 0)"/>
     <use xlink:href="#NotoSansCJKjp-Bold-6f" transform="translate(488.399933 0)"/>
     <use xlink:href="#NotoSansCJKjp-Bold-6e" transform="translate(550.999924 0)"/>
    </g>
    <!-- $\Sigma = 100$ -->
    <g transform="translate(347.925883 283.31894) scale(0.12 -0.12)">
     <defs>
      <path id="DejaVuSans-3a3" d="M 1353 531 
L 3634 531 
L 3634 0 
L 628 0 
L 628 531 
L 2125 2481 
L 628 4134 
L 628 4666 
L 3578 4666 
L 3578 4134 
L 1353 4134 
L 2850 2494 
L 1353 531 
z
" transform="scale(0.015625)"/>
      <path id="DejaVuSans-3d" d="M 678 2906 
L 4684 2906 
L 4684 2381 
L 678 2381 
L 678 2906 
z
M 678 1631 
L 4684 1631 
L 4684 1100 
L 678 1100 
L 678 1631 
z
" transform="scale(0.015625)"/>
      <path id="DejaVuSans-31" d="M 794 531 
L 1825 531 
L 1825 4091 
L 703 3866 
L 703 4441 
L 1819 4666 
L 2450 4666 
L 2450 531 
L 3481 531 
L 3481 0 
L 794 0 
L 794 531 
z
" transform="scale(0.015625)"/>
      <path id="DejaVuSans-30" d="M 2034 4250 
Q 1547 4250 1301 3770 
Q 1056 3291 1056 2328 
Q 1056 1369 1301 889 
Q 1547 409 2034 409 
Q 2525 409 2770 889 
Q 3016 1369 3016 2328 
Q 3016 3291 2770 3770 
Q 2525 4250 2034 4250 
z
M 2034 4750 
Q 2819 4750 3233 4129 
Q 3647 3509 3647 2328 
Q 3647 1150 3233 529 
Q 2819 -91 2034 -91 
Q 1250 -91 836 529 
Q 422 1150 422 2328 
Q 422 3509 836 4129 
Q 1250 4750 2034 4750 
z
" transform="scale(0.015625)"/>
     </defs>
     <use xlink:href="#DejaVuSans-3a3" transform="translate(0 0.78125)"/>
     <use xlink:href="#DejaVuSans-3d" transform="translate(82.666016 0.78125)"/>
     <use xlink:href="#DejaVuSans-31" transform="translate(185.9375 0.78125)"/>
     <use xlink:href="#DejaVuSans-30" transform="translate(249.560547 0.78125)"/>
     <use xlink:href="#DejaVuSans-30" transform="translate(313.183594 0.78125)"/>
    </g>
   </g>
   <g id="text_4">
    <!-- Left octagon -->
    <g transform="translate(203.998312 418.957313) scale(0.12 -0.12)">
     <defs>
      <path id="NotoSansCJKjp-Bold-4c" d="M 582 0 
L 3456 0 
L 3456 794 
L 1530 794 
L 1530 4742 
L 582 4742 
L 582 0 
z
" transform="scale(0.015625)"/>
      <path id="NotoSansCJKjp-Bold-65" d="M 2067 -90 
C 2509 -90 2963 64 3315 307 
L 2995 883 
C 2733 723 2483 640 2195 640 
C 1658 640 1274 941 1197 1523 
L 3405 1523 
C 3430 1613 3450 1786 3450 1958 
C 3450 2957 2938 3674 1952 3674 
C 1101 3674 282 2950 282 1792 
C 282 608 1062 -90 2067 -90 
z
M 1178 2157 
C 1254 2675 1587 2944 1965 2944 
C 2432 2944 2643 2637 2643 2157 
L 1178 2157 
z
" transform="scale(0.015625)"/>
      <path id="NotoSansCJKjp-Bold-66" d="M 179 2842 
L 666 2842 
L 666 0 
L 1600 0 
L 1600 2842 
L 2285 2842 
L 2285 3584 
L 1600 3584 
L 1600 3891 
C 1600 4288 1760 4454 2035 4454 
C 2163 4454 2298 4429 2419 4371 
L 2592 5075 
C 2432 5139 2189 5197 1907 5197 
C 1011 5197 666 4614 666 3872 
L 666 3578 
L 179 3539 
L 179 2842 
z
" transform="scale(0.015625)"/>
     </defs>
     <use xlink:href="#NotoSansCJKjp-Bold-4c"/>
     <use xlink:href="#NotoSansCJKjp-Bold-65" transform="translate(57.799988 0)"/>
     <use xlink:href="#NotoSansCJKjp-Bold-66" transform="translate(115.899979 0)"/>
     <use xlink:href="#NotoSansCJKjp-Bold-74" transform="translate(153.099976 0)"/>
     <use xlink:href="#NotoSansCJKjp-Bold-20" transform="translate(195.199966 0)"/>
     <use xlink:href="#NotoSansCJKjp-Bold-6f" transform="translate(217.899963 0)"/>
     <use xlink:href="#NotoSansCJKjp-Bold-63" transform="translate(280.499954 0)"/>
     <use xlink:href="#NotoSansCJKjp-Bold-74" transform="translate(333.199951 0)"/>
     <use xlink:href="#NotoSansCJKjp-Bold-61" transform="translate(375.299942 0)"/>
     <use xlink:href="#NotoSansCJKjp-Bold-67" transform="translate(434.399933 0)"/>
     <use xlink:href="#NotoSansCJKjp-Bold-6f" transform="translate(494.09993 0)"/>
     <use xlink:href="#NotoSansCJKjp-Bold-6e" transform="translate(556.699921 0)"/>
    </g>
    <!-- $\Sigma = 100$ -->
    <g transform="translate(218.624249 433.363688) scale(0.12 -0.12)">
     <use xlink:href="#DejaVuSans-3a3" transform="translate(0 0.78125)"/>
     <use xlink:href="#DejaVuSans-3d" transform="translate(82.666016 0.78125)"/>
     <use xlink:href="#DejaVuSans-31" transform="translate(185.9375 0.78125)"/>
     <use xlink:href="#DejaVuSans-30" transform="translate(249.560547 0.78125)"/>
     <use xlink:href="#DejaVuSans-30" transform="translate(313.183594 0.78125)"/>
    </g>
   </g>
   <g id="text_5">
    <!-- Right octagon -->
    <g transform="translate(458.448454 418.95075) scale(0.12 -0.12)">
     <defs>
      <path id="NotoSansCJKjp-Bold-52" d="M 1530 2541 
L 1530 3987 
L 2144 3987 
C 2752 3987 3085 3814 3085 3302 
C 3085 2797 2752 2541 2144 2541 
L 1530 2541 
z
M 3162 0 
L 4218 0 
L 3110 1939 
C 3654 2150 4013 2592 4013 3302 
C 4013 4390 3226 4742 2227 4742 
L 582 4742 
L 582 0 
L 1530 0 
L 1530 1792 
L 2189 1792 
L 3162 0 
z
" transform="scale(0.015625)"/>
      <path id="NotoSansCJKjp-Bold-69" d="M 506 0 
L 1446 0 
L 1446 3584 
L 506 3584 
L 506 0 
z
M 979 4166 
C 1299 4166 1523 4365 1523 4678 
C 1523 4986 1299 5190 979 5190 
C 646 5190 435 4986 435 4678 
C 435 4365 646 4166 979 4166 
z
" transform="scale(0.015625)"/>
      <path id="NotoSansCJKjp-Bold-68" d="M 506 0 
L 1446 0 
L 1446 2464 
C 1709 2726 1901 2867 2189 2867 
C 2541 2867 2694 2675 2694 2118 
L 2694 0 
L 3635 0 
L 3635 2234 
C 3635 3136 3302 3674 2528 3674 
C 2042 3674 1683 3418 1402 3149 
L 1446 3821 
L 1446 5107 
L 506 5107 
L 506 0 
z
" transform="scale(0.015625)"/>
     </defs>
     <use xlink:href="#NotoSansCJKjp-Bold-52"/>
     <use xlink:href="#NotoSansCJKjp-Bold-69" transform="translate(68.199982 0)"/>
     <use xlink:href="#NotoSansCJKjp-Bold-67" transform="translate(98.599976 0)"/>
     <use xlink:href="#NotoSansCJKjp-Bold-68" transform="translate(158.299973 0)"/>
     <use xlink:href="#NotoSansCJKjp-Bold-74" transform="translate(222.299957 0)"/>
     <use xlink:href="#NotoSansCJKjp-Bold-20" transform="translate(264.399948 0)"/>
     <use xlink:href="#NotoSansCJKjp-Bold-6f" transform="translate(287.099945 0)"/>
     <use xlink:href="#NotoSansCJKjp-Bold-63" transform="translate(349.699936 0)"/>
     <use xlink:href="#NotoSansCJKjp-Bold-74" transform="translate(402.399933 0)"/>
     <use xlink:href="#NotoSansCJKjp-Bold-61" transform="translate(444.499924 0)"/>
     <use xlink:href="#NotoSansCJKjp-Bold-67" transform="translate(503.599915 0)"/>
     <use xlink:href="#NotoSansCJKjp-Bold-6f" transform="translate(563.299911 0)"/>
     <use xlink:href="#NotoSansCJKjp-Bold-6e" transform="translate(625.899902 0)"/>
    </g>
    <!-- $\Sigma = 100$ -->
    <g transform="translate(477.227516 433.357125) scale(0.12 -0.12)">
     <use xlink:href="#DejaVuSans-3a3" transform="translate(0 0.78125)"/>
     <use xlink:href="#DejaVuSans-3d" transform="translate(82.666016 0.78125)"/>
     <use xlink:href="#DejaVuSans-31" transform="translate(185.9375 0.78125)"/>
     <use xlink:href="#DejaVuSans-30" transform="translate(249.560547 0.78125)"/>
     <use xlink:href="#DejaVuSans-30" transform="translate(313.183594 0.78125)"/>
    </g>
   </g>
   <g id="text_6">
    <!-- Bottom octagon -->
    <g transform="translate(322.578695 568.497685) scale(0.12 -0.12)">
     <defs>
      <path id="NotoSansCJKjp-Bold-42" d="M 582 0 
L 2272 0 
C 3315 0 4102 442 4102 1395 
C 4102 2029 3731 2394 3219 2515 
L 3219 2541 
C 3622 2688 3866 3130 3866 3571 
C 3866 4454 3123 4742 2150 4742 
L 582 4742 
L 582 0 
z
M 1530 2810 
L 1530 4013 
L 2093 4013 
C 2662 4013 2944 3846 2944 3430 
C 2944 3053 2688 2810 2086 2810 
L 1530 2810 
z
M 1530 730 
L 1530 2112 
L 2189 2112 
C 2842 2112 3181 1914 3181 1453 
C 3181 960 2829 730 2189 730 
L 1530 730 
z
" transform="scale(0.015625)"/>
      <path id="NotoSansCJKjp-Bold-6d" d="M 506 0 
L 1446 0 
L 1446 2464 
C 1696 2739 1926 2867 2131 2867 
C 2477 2867 2637 2675 2637 2118 
L 2637 0 
L 3571 0 
L 3571 2464 
C 3827 2739 4058 2867 4262 2867 
C 4602 2867 4762 2675 4762 2118 
L 4762 0 
L 5696 0 
L 5696 2234 
C 5696 3136 5350 3674 4589 3674 
C 4128 3674 3776 3392 3443 3046 
C 3277 3443 2976 3674 2464 3674 
C 1997 3674 1664 3418 1363 3104 
L 1344 3104 
L 1274 3584 
L 506 3584 
L 506 0 
z
" transform="scale(0.015625)"/>
     </defs>
     <use xlink:href="#NotoSansCJKjp-Bold-42"/>
     <use xlink:href="#NotoSansCJKjp-Bold-6f" transform="translate(68.099991 0)"/>
     <use xlink:href="#NotoSansCJKjp-Bold-74" transform="translate(130.699982 0)"/>
     <use xlink:href="#NotoSansCJKjp-Bold-74" transform="translate(172.799973 0)"/>
     <use xlink:href="#NotoSansCJKjp-Bold-6f" transform="translate(214.899963 0)"/>
     <use xlink:href="#NotoSansCJKjp-Bold-6d" transform="translate(277.499954 0)"/>
     <use xlink:href="#NotoSansCJKjp-Bold-20" transform="translate(373.899948 0)"/>
     <use xlink:href="#NotoSansCJKjp-Bold-6f" transform="translate(396.599945 0)"/>
     <use xlink:href="#NotoSansCJKjp-Bold-63" transform="translate(459.199936 0)"/>
     <use xlink:href="#NotoSansCJKjp-Bold-74" transform="translate(511.899933 0)"/>
     <use xlink:href="#NotoSansCJKjp-Bold-61" transform="translate(553.999924 0)"/>
     <use xlink:href="#NotoSansCJKjp-Bold-67" transform="translate(613.099915 0)"/>
     <use xlink:href="#NotoSansCJKjp-Bold-6f" transform="translate(672.799911 0)"/>
     <use xlink:href="#NotoSansCJKjp-Bold-6e" transform="translate(735.399902 0)"/>
    </g>
    <!-- $\Sigma = 100$ -->
    <g transform="translate(347.925883 582.90406) scale(0.12 -0.12)">
     <use xlink:href="#DejaVuSans-3a3" transform="translate(0 0.78125)"/>
     <use xlink:href="#DejaVuSans-3d" transform="translate(82.666016 0.78125)"/>
     <use xlink:href="#DejaVuSans-31" transform="translate(185.9375 0.78125)"/>
     <use xlink:href="#DejaVuSans-30" transform="translate(249.560547 0.78125)"/>
     <use xlink:href="#DejaVuSans-30" transform="translate(313.183594 0.78125)"/>
    </g>
   </g>
   <g id="patch_6">
    <path d="M 580.783518 397.982156 
C 583.826702 397.982156 586.745655 396.773086 588.897511 394.62123 
C 591.049367 392.469374 592.258437 389.550421 592.258437 386.507237 
C 592.258437 383.464053 591.049367 380.5451 588.897511 378.393244 
C 586.745655 376.241388 583.826702 375.032318 580.783518 375.032318 
C 577.740334 375.032318 574.821381 376.241388 572.669525 378.393244 
C 570.517669 380.5451 569.308599 383.464053 569.308599 386.507237 
C 569.308599 389.550421 570.517669 392.469374 572.669525 394.62123 
C 574.821381 396.773086 577.740334 397.982156 580.783518 397.982156 
z
" clip-path="url(#p77a267c929)" style="fill: #ffffff; stroke: #202020; stroke-width: 1.7; stroke-linejoin: miter"/>
   </g>
   <g id="patch_7">
    <path d="M 283.462603 593.278663 
C 286.505787 593.278663 289.42474 592.069593 291.576596 589.917737 
C 293.728452 587.76588 294.937522 584.846928 294.937522 581.803744 
C 294.937522 578.760559 293.728452 575.841607 291.576596 573.689751 
C 289.42474 571.537894 286.505787 570.328825 283.462603 570.328825 
C 280.419419 570.328825 277.500466 571.537894 275.34861 573.689751 
C 273.196754 575.841607 271.987684 578.760559 271.987684 581.803744 
C 271.987684 584.846928 273.196754 587.76588 275.34861 589.917737 
C 277.500466 592.069593 280.419419 593.278663 283.462603 593.278663 
z
" clip-path="url(#p77a267c929)" style="fill: #ffffff; stroke: #202020; stroke-width: 1.7; stroke-linejoin: miter"/>
   </g>
   <g id="patch_8">
    <path d="M 160.308247 470.124307 
C 163.351431 470.124307 166.270384 468.915237 168.42224 466.763381 
C 170.574096 464.611525 171.783166 461.692572 171.783166 458.649388 
C 171.783166 455.606204 170.574096 452.687251 168.42224 450.535395 
C 166.270384 448.383539 163.351431 447.174469 160.308247 447.174469 
C 157.265063 447.174469 154.34611 448.383539 152.194254 450.535395 
C 150.042398 452.687251 148.833328 455.606204 148.833328 458.649388 
C 148.833328 461.692572 150.042398 464.611525 152.194254 466.763381 
C 154.34611 468.915237 157.265063 470.124307 160.308247 470.124307 
z
" clip-path="url(#p77a267c929)" style="fill: #ffffff; stroke: #202020; stroke-width: 1.7; stroke-linejoin: miter"/>
   </g>
   <g id="patch_9">
    <path d="M 457.629162 274.8278 
C 460.672347 274.8278 463.591299 273.618731 465.743155 271.466874 
C 467.895012 269.315018 469.104081 266.396066 469.104081 263.352881 
C 469.104081 260.309697 467.895012 257.390745 465.743155 255.238888 
C 463.591299 253.087032 460.672347 251.877962 457.629162 251.877962 
C 454.585978 251.877962 451.667026 253.087032 449.515169 255.238888 
C 447.363313 257.390745 446.154243 260.309697 446.154243 263.352881 
C 446.154243 266.396066 447.363313 269.315018 449.515169 271.466874 
C 451.667026 273.618731 454.585978 274.8278 457.629162 274.8278 
z
" clip-path="url(#p77a267c929)" style="fill: #ffffff; stroke: #202020; stroke-width: 1.7; stroke-linejoin: miter"/>
   </g>
   <g id="patch_10">
    <path d="M 283.462603 346.969952 
C 286.505787 346.969952 289.42474 345.760882 291.576596 343.609026 
C 293.728452 341.45717 294.937522 338.538217 294.937522 335.495033 
C 294.937522 332.451849 293.728452 329.532896 291.576596 327.38104 
C 289.42474 325.229183 286.505787 324.020114 283.462603 324.020114 
C 280.419419 324.020114 277.500466 325.229183 275.34861 327.38104 
C 273.196754 329.532896 271.987684 332.451849 271.987684 335.495033 
C 271.987684 338.538217 273.196754 341.45717 275.34861 343.609026 
C 277.500466 345.760882 280.419419 346.969952 283.462603 346.969952 
z
" clip-path="url(#p77a267c929)" style="fill: #ffffff; stroke: #202020; stroke-width: 1.7; stroke-linejoin: miter"/>
   </g>
   <g id="patch_11">
    <path d="M 406.616958 470.124307 
C 409.660142 470.124307 412.579095 468.915237 414.730951 466.763381 
C 416.882807 464.611525 418.091877 461.692572 418.091877 458.649388 
C 418.091877 455.606204 416.882807 452.687251 414.730951 450.535395 
C 412.579095 448.383539 409.660142 447.174469 406.616958 447.174469 
C 403.573774 447.174469 400.654821 448.383539 398.502965 450.535395 
C 396.351109 452.687251 395.142039 455.606204 395.142039 458.649388 
C 395.142039 461.692572 396.351109 464.611525 398.502965 466.763381 
C 400.654821 468.915237 403.573774 470.124307 406.616958 470.124307 
z
" clip-path="url(#p77a267c929)" style="fill: #ffffff; stroke: #202020; stroke-width: 1.7; stroke-linejoin: miter"/>
   </g>
   <g id="patch_12">
    <path d="M 457.629162 521.136511 
C 460.672347 521.136511 463.591299 519.927442 465.743155 517.775585 
C 467.895012 515.623729 469.104081 512.704776 469.104081 509.661592 
C 469.104081 506.618408 467.895012 503.699455 465.743155 501.547599 
C 463.591299 499.395743 460.672347 498.186673 457.629162 498.186673 
C 454.585978 498.186673 451.667026 499.395743 449.515169 501.547599 
C 447.363313 503.699455 446.154243 506.618408 446.154243 509.661592 
C 446.154243 512.704776 447.363313 515.623729 449.515169 517.775585 
C 451.667026 519.927442 454.585978 521.136511 457.629162 521.136511 
z
" clip-path="url(#p77a267c929)" style="fill: #ffffff; stroke: #202020; stroke-width: 1.7; stroke-linejoin: miter"/>
   </g>
   <g id="patch_13">
    <path d="M 334.474807 397.982156 
C 337.517991 397.982156 340.436944 396.773086 342.5888 394.62123 
C 344.740656 392.469374 345.949726 389.550421 345.949726 386.507237 
C 345.949726 383.464053 344.740656 380.5451 342.5888 378.393244 
C 340.436944 376.241388 337.517991 375.032318 334.474807 375.032318 
C 331.431623 375.032318 328.51267 376.241388 326.360814 378.393244 
C 324.208958 380.5451 322.999888 383.464053 322.999888 386.507237 
C 322.999888 389.550421 324.208958 392.469374 326.360814 394.62123 
C 328.51267 396.773086 331.431623 397.982156 334.474807 397.982156 
z
" clip-path="url(#p77a267c929)" style="fill: #ffffff; stroke: #202020; stroke-width: 1.7; stroke-linejoin: miter"/>
   </g>
   <g id="patch_14">
    <path d="M 406.616958 223.815596 
C 409.660142 223.815596 412.579095 222.606526 414.730951 220.45467 
C 416.882807 218.302814 418.091877 215.383861 418.091877 212.340677 
C 418.091877 209.297493 416.882807 206.37854 414.730951 204.226684 
C 412.579095 202.074828 409.660142 200.865758 406.616958 200.865758 
C 403.573774 200.865758 400.654821 202.074828 398.502965 204.226684 
C 396.351109 206.37854 395.142039 209.297493 395.142039 212.340677 
C 395.142039 215.383861 396.351109 218.302814 398.502965 220.45467 
C 400.654821 222.606526 403.573774 223.815596 406.616958 223.815596 
z
" clip-path="url(#p77a267c929)" style="fill: #ffffff; stroke: #202020; stroke-width: 1.7; stroke-linejoin: miter"/>
   </g>
   <g id="patch_15">
    <path d="M 211.320451 521.136511 
C 214.363636 521.136511 217.282588 519.927442 219.434444 517.775585 
C 221.586301 515.623729 222.79537 512.704776 222.79537 509.661592 
C 222.79537 506.618408 221.586301 503.699455 219.434444 501.547599 
C 217.282588 499.395743 214.363636 498.186673 211.320451 498.186673 
C 208.277267 498.186673 205.358315 499.395743 203.206458 501.547599 
C 201.054602 503.699455 199.845533 506.618408 199.845533 509.661592 
C 199.845533 512.704776 201.054602 515.623729 203.206458 517.775585 
C 205.358315 519.927442 208.277267 521.136511 211.320451 521.136511 
z
" clip-path="url(#p77a267c929)" style="fill: #ffffff; stroke: #202020; stroke-width: 1.7; stroke-linejoin: miter"/>
   </g>
   <g id="patch_16">
    <path d="M 334.474807 644.290867 
C 337.517991 644.290867 340.436944 643.081797 342.5888 640.929941 
C 344.740656 638.778085 345.949726 635.859132 345.949726 632.815948 
C 345.949726 629.772764 344.740656 626.853811 342.5888 624.701955 
C 340.436944 622.550099 337.517991 621.341029 334.474807 621.341029 
C 331.431623 621.341029 328.51267 622.550099 326.360814 624.701955 
C 324.208958 626.853811 322.999888 629.772764 322.999888 632.815948 
C 322.999888 635.859132 324.208958 638.778085 326.360814 640.929941 
C 328.51267 643.081797 331.431623 644.290867 334.474807 644.290867 
z
" clip-path="url(#p77a267c929)" style="fill: #ffffff; stroke: #202020; stroke-width: 1.7; stroke-linejoin: miter"/>
   </g>
   <g id="patch_17">
    <path d="M 529.771314 346.969952 
C 532.814498 346.969952 535.733451 345.760882 537.885307 343.609026 
C 540.037163 341.45717 541.246233 338.538217 541.246233 335.495033 
C 541.246233 332.451849 540.037163 329.532896 537.885307 327.38104 
C 535.733451 325.229183 532.814498 324.020114 529.771314 324.020114 
C 526.72813 324.020114 523.809177 325.229183 521.657321 327.38104 
C 519.505464 329.532896 518.296395 332.451849 518.296395 335.495033 
C 518.296395 338.538217 519.505464 341.45717 521.657321 343.609026 
C 523.809177 345.760882 526.72813 346.969952 529.771314 346.969952 
z
" clip-path="url(#p77a267c929)" style="fill: #ffffff; stroke: #202020; stroke-width: 1.7; stroke-linejoin: miter"/>
   </g>
   <g id="patch_18">
    <path d="M 529.771314 521.136511 
C 532.814498 521.136511 535.733451 519.927442 537.885307 517.775585 
C 540.037163 515.623729 541.246233 512.704776 541.246233 509.661592 
C 541.246233 506.618408 540.037163 503.699455 537.885307 501.547599 
C 535.733451 499.395743 532.814498 498.186673 529.771314 498.186673 
C 526.72813 498.186673 523.809177 499.395743 521.657321 501.547599 
C 519.505464 503.699455 518.296395 506.618408 518.296395 509.661592 
C 518.296395 512.704776 519.505464 515.623729 521.657321 517.775585 
C 523.809177 519.927442 526.72813 521.136511 529.771314 521.136511 
z
" clip-path="url(#p77a267c929)" style="fill: #ffffff; stroke: #202020; stroke-width: 1.7; stroke-linejoin: miter"/>
   </g>
   <g id="patch_19">
    <path d="M 334.474807 223.815596 
C 337.517991 223.815596 340.436944 222.606526 342.5888 220.45467 
C 344.740656 218.302814 345.949726 215.383861 345.949726 212.340677 
C 345.949726 209.297493 344.740656 206.37854 342.5888 204.226684 
C 340.436944 202.074828 337.517991 200.865758 334.474807 200.865758 
C 331.431623 200.865758 328.51267 202.074828 326.360814 204.226684 
C 324.208958 206.37854 322.999888 209.297493 322.999888 212.340677 
C 322.999888 215.383861 324.208958 218.302814 326.360814 220.45467 
C 328.51267 222.606526 331.431623 223.815596 334.474807 223.815596 
z
" clip-path="url(#p77a267c929)" style="fill: #ffffff; stroke: #202020; stroke-width: 1.7; stroke-linejoin: miter"/>
   </g>
   <g id="patch_20">
    <path d="M 211.320451 346.969952 
C 214.363636 346.969952 217.282588 345.760882 219.434444 343.609026 
C 221.586301 341.45717 222.79537 338.538217 222.79537 335.495033 
C 222.79537 332.451849 221.586301 329.532896 219.434444 327.38104 
C 217.282588 325.229183 214.363636 324.020114 211.320451 324.020114 
C 208.277267 324.020114 205.358315 325.229183 203.206458 327.38104 
C 201.054602 329.532896 199.845533 332.451849 199.845533 335.495033 
C 199.845533 338.538217 201.054602 341.45717 203.206458 343.609026 
C 205.358315 345.760882 208.277267 346.969952 211.320451 346.969952 
z
" clip-path="url(#p77a267c929)" style="fill: #ffffff; stroke: #202020; stroke-width: 1.7; stroke-linejoin: miter"/>
   </g>
   <g id="patch_21">
    <path d="M 406.616958 644.290867 
C 409.660142 644.290867 412.579095 643.081797 414.730951 640.929941 
C 416.882807 638.778085 418.091877 635.859132 418.091877 632.815948 
C 418.091877 629.772764 416.882807 626.853811 414.730951 624.701955 
C 412.579095 622.550099 409.660142 621.341029 406.616958 621.341029 
C 403.573774 621.341029 400.654821 622.550099 398.502965 624.701955 
C 396.351109 626.853811 395.142039 629.772764 395.142039 632.815948 
C 395.142039 635.859132 396.351109 638.778085 398.502965 640.929941 
C 400.654821 643.081797 403.573774 644.290867 406.616958 644.290867 
z
" clip-path="url(#p77a267c929)" style="fill: #ffffff; stroke: #202020; stroke-width: 1.7; stroke-linejoin: miter"/>
   </g>
   <g id="patch_22">
    <path d="M 334.474807 470.124307 
C 337.517991 470.124307 340.436944 468.915237 342.5888 466.763381 
C 344.740656 464.611525 345.949726 461.692572 345.949726 458.649388 
C 345.949726 455.606204 344.740656 452.687251 342.5888 450.535395 
C 340.436944 448.383539 337.517991 447.174469 334.474807 447.174469 
C 331.431623 447.174469 328.51267 448.383539 326.360814 450.535395 
C 324.208958 452.687251 322.999888 455.606204 322.999888 458.649388 
C 322.999888 461.692572 324.208958 464.611525 326.360814 466.763381 
C 328.51267 468.915237 331.431623 470.124307 334.474807 470.124307 
z
" clip-path="url(#p77a267c929)" style="fill: #ffffff; stroke: #202020; stroke-width: 1.7; stroke-linejoin: miter"/>
   </g>
   <g id="patch_23">
    <path d="M 457.629162 346.969952 
C 460.672347 346.969952 463.591299 345.760882 465.743155 343.609026 
C 467.895012 341.45717 469.104081 338.538217 469.104081 335.495033 
C 469.104081 332.451849 467.895012 329.532896 465.743155 327.38104 
C 463.591299 325.229183 460.672347 324.020114 457.629162 324.020114 
C 454.585978 324.020114 451.667026 325.229183 449.515169 327.38104 
C 447.363313 329.532896 446.154243 332.451849 446.154243 335.495033 
C 446.154243 338.538217 447.363313 341.45717 449.515169 343.609026 
C 451.667026 345.760882 454.585978 346.969952 457.629162 346.969952 
z
" clip-path="url(#p77a267c929)" style="fill: #ffffff; stroke: #202020; stroke-width: 1.7; stroke-linejoin: miter"/>
   </g>
   <g id="patch_24">
    <path d="M 406.616958 397.982156 
C 409.660142 397.982156 412.579095 396.773086 414.730951 394.62123 
C 416.882807 392.469374 418.091877 389.550421 418.091877 386.507237 
C 418.091877 383.464053 416.882807 380.5451 414.730951 378.393244 
C 412.579095 376.241388 409.660142 375.032318 406.616958 375.032318 
C 403.573774 375.032318 400.654821 376.241388 398.502965 378.393244 
C 396.351109 380.5451 395.142039 383.464053 395.142039 386.507237 
C 395.142039 389.550421 396.351109 392.469374 398.502965 394.62123 
C 400.654821 396.773086 403.573774 397.982156 406.616958 397.982156 
z
" clip-path="url(#p77a267c929)" style="fill: #ffffff; stroke: #202020; stroke-width: 1.7; stroke-linejoin: miter"/>
   </g>
   <g id="patch_25">
    <path d="M 283.462603 521.136511 
C 286.505787 521.136511 289.42474 519.927442 291.576596 517.775585 
C 293.728452 515.623729 294.937522 512.704776 294.937522 509.661592 
C 294.937522 506.618408 293.728452 503.699455 291.576596 501.547599 
C 289.42474 499.395743 286.505787 498.186673 283.462603 498.186673 
C 280.419419 498.186673 277.500466 499.395743 275.34861 501.547599 
C 273.196754 503.699455 271.987684 506.618408 271.987684 509.661592 
C 271.987684 512.704776 273.196754 515.623729 275.34861 517.775585 
C 277.500466 519.927442 280.419419 521.136511 283.462603 521.136511 
z
" clip-path="url(#p77a267c929)" style="fill: #ffffff; stroke: #202020; stroke-width: 1.7; stroke-linejoin: miter"/>
   </g>
   <g id="patch_26">
    <path d="M 457.629162 593.278663 
C 460.672347 593.278663 463.591299 592.069593 465.743155 589.917737 
C 467.895012 587.76588 469.104081 584.846928 469.104081 581.803744 
C 469.104081 578.760559 467.895012 575.841607 465.743155 573.689751 
C 463.591299 571.537894 460.672347 570.328825 457.629162 570.328825 
C 454.585978 570.328825 451.667026 571.537894 449.515169 573.689751 
C 447.363313 575.841607 446.154243 578.760559 446.154243 581.803744 
C 446.154243 584.846928 447.363313 587.76588 449.515169 589.917737 
C 451.667026 592.069593 454.585978 593.278663 457.629162 593.278663 
z
" clip-path="url(#p77a267c929)" style="fill: #ffffff; stroke: #202020; stroke-width: 1.7; stroke-linejoin: miter"/>
   </g>
   <g id="patch_27">
    <path d="M 160.308247 397.982156 
C 163.351431 397.982156 166.270384 396.773086 168.42224 394.62123 
C 170.574096 392.469374 171.783166 389.550421 171.783166 386.507237 
C 171.783166 383.464053 170.574096 380.5451 168.42224 378.393244 
C 166.270384 376.241388 163.351431 375.032318 160.308247 375.032318 
C 157.265063 375.032318 154.34611 376.241388 152.194254 378.393244 
C 150.042398 380.5451 148.833328 383.464053 148.833328 386.507237 
C 148.833328 389.550421 150.042398 392.469374 152.194254 394.62123 
C 154.34611 396.773086 157.265063 397.982156 160.308247 397.982156 
z
" clip-path="url(#p77a267c929)" style="fill: #ffffff; stroke: #202020; stroke-width: 1.7; stroke-linejoin: miter"/>
   </g>
   <g id="patch_28">
    <path d="M 283.462603 274.8278 
C 286.505787 274.8278 289.42474 273.618731 291.576596 271.466874 
C 293.728452 269.315018 294.937522 266.396066 294.937522 263.352881 
C 294.937522 260.309697 293.728452 257.390745 291.576596 255.238888 
C 289.42474 253.087032 286.505787 251.877962 283.462603 251.877962 
C 280.419419 251.877962 277.500466 253.087032 275.34861 255.238888 
C 273.196754 257.390745 271.987684 260.309697 271.987684 263.352881 
C 271.987684 266.396066 273.196754 269.315018 275.34861 271.466874 
C 277.500466 273.618731 280.419419 274.8278 283.462603 274.8278 
z
" clip-path="url(#p77a267c929)" style="fill: #ffffff; stroke: #202020; stroke-width: 1.7; stroke-linejoin: miter"/>
   </g>
   <g id="patch_29">
    <path d="M 580.783518 470.124307 
C 583.826702 470.124307 586.745655 468.915237 588.897511 466.763381 
C 591.049367 464.611525 592.258437 461.692572 592.258437 458.649388 
C 592.258437 455.606204 591.049367 452.687251 588.897511 450.535395 
C 586.745655 448.383539 583.826702 447.174469 580.783518 447.174469 
C 577.740334 447.174469 574.821381 448.383539 572.669525 450.535395 
C 570.517669 452.687251 569.308599 455.606204 569.308599 458.649388 
C 569.308599 461.692572 570.517669 464.611525 572.669525 466.763381 
C 574.821381 468.915237 577.740334 470.124307 580.783518 470.124307 
z
" clip-path="url(#p77a267c929)" style="fill: #ffffff; stroke: #202020; stroke-width: 1.7; stroke-linejoin: miter"/>
   </g>
   <g id="text_7">
    <!-- 1 -->
    <g transform="translate(577.243518 390.005049) scale(0.12 -0.12)">
     <defs>
      <path id="NotoSansCJKjp-Bold-31" d="M 525 0 
L 3373 0 
L 3373 768 
L 2483 768 
L 2483 4742 
L 1786 4742 
C 1485 4550 1165 4429 685 4346 
L 685 3757 
L 1549 3757 
L 1549 768 
L 525 768 
L 525 0 
z
" transform="scale(0.015625)"/>
     </defs>
     <use xlink:href="#NotoSansCJKjp-Bold-31"/>
    </g>
   </g>
   <g id="text_8">
    <!-- 2 -->
    <g transform="translate(279.922603 585.301556) scale(0.12 -0.12)">
     <defs>
      <path id="NotoSansCJKjp-Bold-32" d="M 275 0 
L 3450 0 
L 3450 794 
L 2426 794 
C 2202 794 1888 768 1645 736 
C 2509 1587 3226 2509 3226 3366 
C 3226 4250 2630 4826 1734 4826 
C 1088 4826 666 4576 224 4102 
L 749 3597 
C 986 3859 1267 4083 1613 4083 
C 2067 4083 2323 3789 2323 3322 
C 2323 2586 1568 1696 275 544 
L 275 0 
z
" transform="scale(0.015625)"/>
     </defs>
     <use xlink:href="#NotoSansCJKjp-Bold-32"/>
    </g>
   </g>
   <g id="text_9">
    <!-- 3 -->
    <g transform="translate(156.768247 462.147201) scale(0.12 -0.12)">
     <defs>
      <path id="NotoSansCJKjp-Bold-33" d="M 1747 -90 
C 2656 -90 3418 410 3418 1280 
C 3418 1907 3008 2304 2477 2451 
L 2477 2483 
C 2976 2682 3264 3053 3264 3565 
C 3264 4378 2643 4826 1728 4826 
C 1171 4826 717 4602 307 4250 
L 794 3667 
C 1069 3930 1344 4083 1683 4083 
C 2086 4083 2317 3866 2317 3494 
C 2317 3066 2035 2771 1171 2771 
L 1171 2093 
C 2195 2093 2470 1805 2470 1338 
C 2470 915 2144 678 1664 678 
C 1229 678 890 890 608 1165 
L 166 570 
C 499 192 1005 -90 1747 -90 
z
" transform="scale(0.015625)"/>
     </defs>
     <use xlink:href="#NotoSansCJKjp-Bold-33"/>
    </g>
   </g>
   <g id="text_10">
    <!-- 4 -->
    <g transform="translate(454.089162 266.850694) scale(0.12 -0.12)">
     <defs>
      <path id="NotoSansCJKjp-Bold-34" d="M 2157 0 
L 3034 0 
L 3034 1229 
L 3597 1229 
L 3597 1946 
L 3034 1946 
L 3034 4742 
L 1901 4742 
L 134 1869 
L 134 1229 
L 2157 1229 
L 2157 0 
z
M 2157 1946 
L 1050 1946 
L 1786 3123 
C 1920 3379 2048 3642 2163 3898 
L 2195 3898 
C 2176 3616 2157 3187 2157 2912 
L 2157 1946 
z
" transform="scale(0.015625)"/>
     </defs>
     <use xlink:href="#NotoSansCJKjp-Bold-34"/>
    </g>
   </g>
   <g id="text_11">
    <!-- 5 -->
    <g transform="translate(279.922603 338.992845) scale(0.12 -0.12)">
     <defs>
      <path id="NotoSansCJKjp-Bold-35" d="M 1773 -90 
C 2637 -90 3424 518 3424 1574 
C 3424 2605 2765 3072 1965 3072 
C 1747 3072 1581 3034 1395 2944 
L 1485 3949 
L 3206 3949 
L 3206 4742 
L 672 4742 
L 544 2438 
L 973 2163 
C 1254 2342 1408 2406 1683 2406 
C 2157 2406 2483 2099 2483 1549 
C 2483 992 2138 678 1645 678 
C 1210 678 870 896 602 1158 
L 166 557 
C 525 205 1018 -90 1773 -90 
z
" transform="scale(0.015625)"/>
     </defs>
     <use xlink:href="#NotoSansCJKjp-Bold-35"/>
    </g>
   </g>
   <g id="text_12">
    <!-- 6 -->
    <g transform="translate(403.076958 462.147201) scale(0.12 -0.12)">
     <defs>
      <path id="NotoSansCJKjp-Bold-36" d="M 2022 -90 
C 2829 -90 3507 525 3507 1498 
C 3507 2509 2938 2982 2144 2982 
C 1843 2982 1440 2803 1178 2483 
C 1222 3661 1664 4070 2214 4070 
C 2483 4070 2771 3910 2938 3725 
L 3437 4288 
C 3155 4582 2733 4826 2150 4826 
C 1197 4826 320 4070 320 2304 
C 320 640 1126 -90 2022 -90 
z
M 1197 1818 
C 1434 2176 1722 2317 1971 2317 
C 2381 2317 2650 2061 2650 1498 
C 2650 922 2362 621 2003 621 
C 1606 621 1286 954 1197 1818 
z
" transform="scale(0.015625)"/>
     </defs>
     <use xlink:href="#NotoSansCJKjp-Bold-36"/>
    </g>
   </g>
   <g id="text_13">
    <!-- 7 -->
    <g transform="translate(454.089162 513.159405) scale(0.12 -0.12)">
     <defs>
      <path id="NotoSansCJKjp-Bold-37" d="M 1190 0 
L 2138 0 
C 2221 1850 2368 2822 3469 4166 
L 3469 4742 
L 320 4742 
L 320 3949 
L 2451 3949 
C 1549 2694 1274 1645 1190 0 
z
" transform="scale(0.015625)"/>
     </defs>
     <use xlink:href="#NotoSansCJKjp-Bold-37"/>
    </g>
   </g>
   <g id="text_14">
    <!-- 8 -->
    <g transform="translate(330.934807 390.005049) scale(0.12 -0.12)">
     <defs>
      <path id="NotoSansCJKjp-Bold-38" d="M 1888 -90 
C 2842 -90 3482 461 3482 1178 
C 3482 1824 3123 2208 2682 2445 
L 2682 2477 
C 2989 2701 3290 3091 3290 3558 
C 3290 4314 2752 4819 1914 4819 
C 1088 4819 486 4333 486 3565 
C 486 3066 749 2707 1114 2445 
L 1114 2413 
C 672 2182 301 1786 301 1178 
C 301 435 973 -90 1888 -90 
z
M 2182 2707 
C 1690 2906 1318 3123 1318 3565 
C 1318 3949 1574 4160 1894 4160 
C 2291 4160 2522 3885 2522 3501 
C 2522 3219 2413 2944 2182 2707 
z
M 1907 576 
C 1466 576 1114 851 1114 1280 
C 1114 1638 1293 1952 1549 2163 
C 2163 1901 2605 1702 2605 1210 
C 2605 800 2310 576 1907 576 
z
" transform="scale(0.015625)"/>
     </defs>
     <use xlink:href="#NotoSansCJKjp-Bold-38"/>
    </g>
   </g>
   <g id="text_15">
    <!-- 9 -->
    <g transform="translate(403.076958 215.83849) scale(0.12 -0.12)">
     <defs>
      <path id="NotoSansCJKjp-Bold-39" d="M 1632 -90 
C 2573 -90 3450 685 3450 2477 
C 3450 4122 2650 4826 1747 4826 
C 934 4826 256 4218 256 3245 
C 256 2240 819 1754 1613 1754 
C 1933 1754 2336 1946 2586 2266 
C 2541 1082 2106 678 1581 678 
C 1299 678 1005 826 832 1018 
L 333 448 
C 614 160 1043 -90 1632 -90 
z
M 2573 2938 
C 2342 2566 2048 2426 1792 2426 
C 1382 2426 1120 2688 1120 3245 
C 1120 3827 1408 4115 1760 4115 
C 2163 4115 2490 3795 2573 2938 
z
" transform="scale(0.015625)"/>
     </defs>
     <use xlink:href="#NotoSansCJKjp-Bold-39"/>
    </g>
   </g>
   <g id="text_16">
    <!-- 10 -->
    <g transform="translate(204.240451 513.159405) scale(0.12 -0.12)">
     <defs>
      <path id="NotoSansCJKjp-Bold-30" d="M 1888 -90 
C 2854 -90 3494 755 3494 2394 
C 3494 4019 2854 4826 1888 4826 
C 922 4826 282 4026 282 2394 
C 282 755 922 -90 1888 -90 
z
M 1888 646 
C 1478 646 1171 1056 1171 2394 
C 1171 3712 1478 4102 1888 4102 
C 2298 4102 2598 3712 2598 2394 
C 2598 1056 2298 646 1888 646 
z
" transform="scale(0.015625)"/>
     </defs>
     <use xlink:href="#NotoSansCJKjp-Bold-31"/>
     <use xlink:href="#NotoSansCJKjp-Bold-30" transform="translate(58.999985 0)"/>
    </g>
   </g>
   <g id="text_17">
    <!-- 11 -->
    <g transform="translate(327.394807 636.31376) scale(0.12 -0.12)">
     <use xlink:href="#NotoSansCJKjp-Bold-31"/>
     <use xlink:href="#NotoSansCJKjp-Bold-31" transform="translate(58.999985 0)"/>
    </g>
   </g>
   <g id="text_18">
    <!-- 12 -->
    <g transform="translate(522.691314 338.992845) scale(0.12 -0.12)">
     <use xlink:href="#NotoSansCJKjp-Bold-31"/>
     <use xlink:href="#NotoSansCJKjp-Bold-32" transform="translate(58.999985 0)"/>
    </g>
   </g>
   <g id="text_19">
    <!-- 13 -->
    <g transform="translate(522.691314 513.159405) scale(0.12 -0.12)">
     <use xlink:href="#NotoSansCJKjp-Bold-31"/>
     <use xlink:href="#NotoSansCJKjp-Bold-33" transform="translate(58.999985 0)"/>
    </g>
   </g>
   <g id="text_20">
    <!-- 14 -->
    <g transform="translate(327.394807 215.83849) scale(0.12 -0.12)">
     <use xlink:href="#NotoSansCJKjp-Bold-31"/>
     <use xlink:href="#NotoSansCJKjp-Bold-34" transform="translate(58.999985 0)"/>
    </g>
   </g>
   <g id="text_21">
    <!-- 15 -->
    <g transform="translate(204.240451 338.992845) scale(0.12 -0.12)">
     <use xlink:href="#NotoSansCJKjp-Bold-31"/>
     <use xlink:href="#NotoSansCJKjp-Bold-35" transform="translate(58.999985 0)"/>
    </g>
   </g>
   <g id="text_22">
    <!-- 16 -->
    <g transform="translate(399.536958 636.31376) scale(0.12 -0.12)">
     <use xlink:href="#NotoSansCJKjp-Bold-31"/>
     <use xlink:href="#NotoSansCJKjp-Bold-36" transform="translate(58.999985 0)"/>
    </g>
   </g>
   <g id="text_23">
    <!-- 17 -->
    <g transform="translate(327.394807 462.147201) scale(0.12 -0.12)">
     <use xlink:href="#NotoSansCJKjp-Bold-31"/>
     <use xlink:href="#NotoSansCJKjp-Bold-37" transform="translate(58.999985 0)"/>
    </g>
   </g>
   <g id="text_24">
    <!-- 18 -->
    <g transform="translate(450.549162 338.992845) scale(0.12 -0.12)">
     <use xlink:href="#NotoSansCJKjp-Bold-31"/>
     <use xlink:href="#NotoSansCJKjp-Bold-38" transform="translate(58.999985 0)"/>
    </g>
   </g>
   <g id="text_25">
    <!-- 19 -->
    <g transform="translate(399.536958 390.005049) scale(0.12 -0.12)">
     <use xlink:href="#NotoSansCJKjp-Bold-31"/>
     <use xlink:href="#NotoSansCJKjp-Bold-39" transform="translate(58.999985 0)"/>
    </g>
   </g>
   <g id="text_26">
    <!-- 20 -->
    <g transform="translate(276.382603 513.159405) scale(0.12 -0.12)">
     <use xlink:href="#NotoSansCJKjp-Bold-32"/>
     <use xlink:href="#NotoSansCJKjp-Bold-30" transform="translate(58.999985 0)"/>
    </g>
   </g>
   <g id="text_27">
    <!-- 21 -->
    <g transform="translate(450.549162 585.301556) scale(0.12 -0.12)">
     <use xlink:href="#NotoSansCJKjp-Bold-32"/>
     <use xlink:href="#NotoSansCJKjp-Bold-31" transform="translate(58.999985 0)"/>
    </g>
   </g>
   <g id="text_28">
    <!-- 22 -->
    <g transform="translate(153.228247 390.005049) scale(0.12 -0.12)">
     <use xlink:href="#NotoSansCJKjp-Bold-32"/>
     <use xlink:href="#NotoSansCJKjp-Bold-32" transform="translate(58.999985 0)"/>
    </g>
   </g>
   <g id="text_29">
    <!-- 23 -->
    <g transform="translate(276.382603 266.850694) scale(0.12 -0.12)">
     <use xlink:href="#NotoSansCJKjp-Bold-32"/>
     <use xlink:href="#NotoSansCJKjp-Bold-33" transform="translate(58.999985 0)"/>
    </g>
   </g>
   <g id="text_30">
    <!-- 24 -->
    <g transform="translate(573.703518 462.147201) scale(0.12 -0.12)">
     <use xlink:href="#NotoSansCJKjp-Bold-32"/>
     <use xlink:href="#NotoSansCJKjp-Bold-34" transform="translate(58.999985 0)"/>
    </g>
   </g>
   <g id="text_31">
    <g id="patch_30">
     <path d="M 284.708383 154.773987 
L 456.383383 154.773987 
Q 461.108383 154.773987 461.108383 150.048987 
L 461.108383 139.286487 
Q 461.108383 134.561487 456.383383 134.561487 
L 284.708383 134.561487 
Q 279.983383 134.561487 279.983383 139.286487 
L 279.983383 150.048987 
Q 279.983383 154.773987 284.708383 154.773987 
z
" style="fill: #ffffff; opacity: 0.95; stroke: #2171b5; stroke-width: 1.4; stroke-linejoin: miter"/>
    </g>
    <!-- 4 + 9 + 14 + 23 + 5 + 8 + 19 + 18 = 100 -->
    <g transform="translate(284.708383 147.643831) scale(0.105 -0.105)">
     <defs>
      <path id="NotoSansCJKjp-Regular-34" d="M 2176 0 
L 2726 0 
L 2726 1293 
L 3354 1293 
L 3354 1760 
L 2726 1760 
L 2726 4691 
L 2080 4691 
L 128 1677 
L 128 1293 
L 2176 1293 
L 2176 0 
z
M 2176 1760 
L 736 1760 
L 1805 3360 
C 1939 3590 2067 3827 2182 4051 
L 2208 4051 
C 2195 3814 2176 3430 2176 3200 
L 2176 1760 
z
" transform="scale(0.015625)"/>
      <path id="NotoSansCJKjp-Regular-2b" d="M 1542 742 
L 2010 742 
L 2010 2144 
L 3315 2144 
L 3315 2579 
L 2010 2579 
L 2010 3981 
L 1542 3981 
L 1542 2579 
L 243 2579 
L 243 2144 
L 1542 2144 
L 1542 742 
z
" transform="scale(0.015625)"/>
      <path id="NotoSansCJKjp-Regular-39" d="M 1504 -83 
C 2381 -83 3206 646 3206 2547 
C 3206 4038 2528 4774 1626 4774 
C 896 4774 282 4166 282 3251 
C 282 2285 794 1779 1574 1779 
C 1965 1779 2368 2003 2656 2349 
C 2611 896 2086 403 1485 403 
C 1178 403 896 538 691 762 
L 371 397 
C 634 122 992 -83 1504 -83 
z
M 2650 2842 
C 2336 2394 1984 2214 1670 2214 
C 1114 2214 832 2624 832 3251 
C 832 3898 1178 4320 1632 4320 
C 2227 4320 2586 3808 2650 2842 
z
" transform="scale(0.015625)"/>
      <path id="NotoSansCJKjp-Regular-32" d="M 282 0 
L 3232 0 
L 3232 506 
L 1933 506 
C 1696 506 1408 480 1165 461 
C 2266 1504 3008 2458 3008 3398 
C 3008 4230 2477 4774 1638 4774 
C 1043 4774 634 4506 256 4090 
L 595 3757 
C 858 4070 1184 4301 1568 4301 
C 2150 4301 2432 3910 2432 3373 
C 2432 2566 1754 1632 282 346 
L 282 0 
z
" transform="scale(0.015625)"/>
      <path id="NotoSansCJKjp-Regular-33" d="M 1683 -83 
C 2522 -83 3194 416 3194 1254 
C 3194 1901 2752 2310 2202 2445 
L 2202 2477 
C 2701 2650 3034 3034 3034 3603 
C 3034 4346 2458 4774 1664 4774 
C 1126 4774 710 4538 358 4218 
L 672 3846 
C 941 4115 1267 4301 1645 4301 
C 2138 4301 2438 4006 2438 3558 
C 2438 3053 2112 2662 1139 2662 
L 1139 2214 
C 2227 2214 2598 1843 2598 1274 
C 2598 736 2208 403 1645 403 
C 1114 403 762 659 486 941 
L 186 563 
C 493 224 954 -83 1683 -83 
z
" transform="scale(0.015625)"/>
      <path id="NotoSansCJKjp-Regular-35" d="M 1677 -83 
C 2464 -83 3213 499 3213 1523 
C 3213 2560 2573 3021 1798 3021 
C 1517 3021 1306 2950 1094 2835 
L 1216 4192 
L 2982 4192 
L 2982 4691 
L 704 4691 
L 550 2502 
L 864 2304 
C 1133 2483 1331 2579 1645 2579 
C 2234 2579 2618 2182 2618 1510 
C 2618 826 2176 403 1619 403 
C 1075 403 730 653 467 922 
L 173 538 
C 493 224 941 -83 1677 -83 
z
" transform="scale(0.015625)"/>
      <path id="NotoSansCJKjp-Regular-38" d="M 1792 -83 
C 2669 -83 3258 448 3258 1126 
C 3258 1773 2880 2125 2470 2362 
L 2470 2394 
C 2746 2611 3091 3034 3091 3526 
C 3091 4250 2605 4762 1805 4762 
C 1075 4762 518 4282 518 3571 
C 518 3078 813 2726 1152 2490 
L 1152 2464 
C 723 2234 294 1792 294 1165 
C 294 442 922 -83 1792 -83 
z
M 2112 2547 
C 1555 2765 1050 3014 1050 3571 
C 1050 4026 1363 4326 1798 4326 
C 2298 4326 2592 3962 2592 3494 
C 2592 3149 2426 2829 2112 2547 
z
M 1798 352 
C 1235 352 813 717 813 1216 
C 813 1664 1082 2035 1459 2278 
C 2125 2010 2701 1779 2701 1146 
C 2701 678 2342 352 1798 352 
z
" transform="scale(0.015625)"/>
      <path id="NotoSansCJKjp-Regular-3d" d="M 243 2912 
L 3315 2912 
L 3315 3347 
L 243 3347 
L 243 2912 
z
M 243 1376 
L 3315 1376 
L 3315 1811 
L 243 1811 
L 243 1376 
z
" transform="scale(0.015625)"/>
     </defs>
     <use xlink:href="#NotoSansCJKjp-Regular-34"/>
     <use xlink:href="#NotoSansCJKjp-Regular-20" transform="translate(55.499985 0)"/>
     <use xlink:href="#NotoSansCJKjp-Regular-2b" transform="translate(77.899979 0)"/>
     <use xlink:href="#NotoSansCJKjp-Regular-20" transform="translate(133.399963 0)"/>
     <use xlink:href="#NotoSansCJKjp-Regular-39" transform="translate(155.799957 0)"/>
     <use xlink:href="#NotoSansCJKjp-Regular-20" transform="translate(211.299942 0)"/>
     <use xlink:href="#NotoSansCJKjp-Regular-2b" transform="translate(233.699936 0)"/>
     <use xlink:href="#NotoSansCJKjp-Regular-20" transform="translate(289.199921 0)"/>
     <use xlink:href="#NotoSansCJKjp-Regular-31" transform="translate(311.599915 0)"/>
     <use xlink:href="#NotoSansCJKjp-Regular-34" transform="translate(367.099899 0)"/>
     <use xlink:href="#NotoSansCJKjp-Regular-20" transform="translate(422.599884 0)"/>
     <use xlink:href="#NotoSansCJKjp-Regular-2b" transform="translate(444.999878 0)"/>
     <use xlink:href="#NotoSansCJKjp-Regular-20" transform="translate(500.499863 0)"/>
     <use xlink:href="#NotoSansCJKjp-Regular-32" transform="translate(522.899857 0)"/>
     <use xlink:href="#NotoSansCJKjp-Regular-33" transform="translate(578.399841 0)"/>
     <use xlink:href="#NotoSansCJKjp-Regular-20" transform="translate(633.899826 0)"/>
     <use xlink:href="#NotoSansCJKjp-Regular-2b" transform="translate(656.29982 0)"/>
     <use xlink:href="#NotoSansCJKjp-Regular-20" transform="translate(711.799805 0)"/>
     <use xlink:href="#NotoSansCJKjp-Regular-35" transform="translate(734.199799 0)"/>
     <use xlink:href="#NotoSansCJKjp-Regular-20" transform="translate(789.699783 0)"/>
     <use xlink:href="#NotoSansCJKjp-Regular-2b" transform="translate(812.099777 0)"/>
     <use xlink:href="#NotoSansCJKjp-Regular-20" transform="translate(867.599762 0)"/>
     <use xlink:href="#NotoSansCJKjp-Regular-38" transform="translate(889.999756 0)"/>
     <use xlink:href="#NotoSansCJKjp-Regular-20" transform="translate(945.499741 0)"/>
     <use xlink:href="#NotoSansCJKjp-Regular-2b" transform="translate(967.899734 0)"/>
     <use xlink:href="#NotoSansCJKjp-Regular-20" transform="translate(1023.399719 0)"/>
     <use xlink:href="#NotoSansCJKjp-Regular-31" transform="translate(1045.799713 0)"/>
     <use xlink:href="#NotoSansCJKjp-Regular-39" transform="translate(1101.299698 0)"/>
     <use xlink:href="#NotoSansCJKjp-Regular-20" transform="translate(1156.799683 0)"/>
     <use xlink:href="#NotoSansCJKjp-Regular-2b" transform="translate(1179.199677 0)"/>
     <use xlink:href="#NotoSansCJKjp-Regular-20" transform="translate(1234.699661 0)"/>
     <use xlink:href="#NotoSansCJKjp-Regular-31" transform="translate(1257.099655 0)"/>
     <use xlink:href="#NotoSansCJKjp-Regular-38" transform="translate(1312.59964 0)"/>
     <use xlink:href="#NotoSansCJKjp-Regular-20" transform="translate(1368.099625 0)"/>
     <use xlink:href="#NotoSansCJKjp-Regular-3d" transform="translate(1390.499619 0)"/>
     <use xlink:href="#NotoSansCJKjp-Regular-20" transform="translate(1445.999603 0)"/>
     <use xlink:href="#NotoSansCJKjp-Regular-31" transform="translate(1468.399597 0)"/>
     <use xlink:href="#NotoSansCJKjp-Regular-30" transform="translate(1523.899582 0)"/>
     <use xlink:href="#NotoSansCJKjp-Regular-30" transform="translate(1579.399567 0)"/>
    </g>
   </g>
   <g id="text_32">
    <g id="patch_31">
     <path d="M 7.2 445.118531 
L 87.771094 445.118531 
Q 92.496094 445.118531 92.496094 440.393531 
L 92.496094 404.763094 
Q 92.496094 400.038094 87.771094 400.038094 
L 7.2 400.038094 
Q 2.475 400.038094 2.475 404.763094 
L 2.475 440.393531 
Q 2.475 445.118531 7.2 445.118531 
z
" style="fill: #ffffff; opacity: 0.95; stroke: #238b45; stroke-width: 1.4; stroke-linejoin: miter"/>
    </g>
    <!-- 8 + 5 + 15 + 22 -->
    <g transform="translate(21.207656 413.120438) scale(0.105 -0.105)">
     <use xlink:href="#NotoSansCJKjp-Regular-38"/>
     <use xlink:href="#NotoSansCJKjp-Regular-20" transform="translate(55.499985 0)"/>
     <use xlink:href="#NotoSansCJKjp-Regular-2b" transform="translate(77.899979 0)"/>
     <use xlink:href="#NotoSansCJKjp-Regular-20" transform="translate(133.399963 0)"/>
     <use xlink:href="#NotoSansCJKjp-Regular-35" transform="translate(155.799957 0)"/>
     <use xlink:href="#NotoSansCJKjp-Regular-20" transform="translate(211.299942 0)"/>
     <use xlink:href="#NotoSansCJKjp-Regular-2b" transform="translate(233.699936 0)"/>
     <use xlink:href="#NotoSansCJKjp-Regular-20" transform="translate(289.199921 0)"/>
     <use xlink:href="#NotoSansCJKjp-Regular-31" transform="translate(311.599915 0)"/>
     <use xlink:href="#NotoSansCJKjp-Regular-35" transform="translate(367.099899 0)"/>
     <use xlink:href="#NotoSansCJKjp-Regular-20" transform="translate(422.599884 0)"/>
     <use xlink:href="#NotoSansCJKjp-Regular-2b" transform="translate(444.999878 0)"/>
     <use xlink:href="#NotoSansCJKjp-Regular-20" transform="translate(500.499863 0)"/>
     <use xlink:href="#NotoSansCJKjp-Regular-32" transform="translate(522.899857 0)"/>
     <use xlink:href="#NotoSansCJKjp-Regular-32" transform="translate(578.399841 0)"/>
    </g>
    <!-- + 3 + 10 + 20 + 17 -->
    <g transform="translate(7.2 425.554406) scale(0.105 -0.105)">
     <defs>
      <path id="NotoSansCJKjp-Regular-37" d="M 1267 0 
L 1875 0 
C 1952 1837 2150 2931 3251 4339 
L 3251 4691 
L 314 4691 
L 314 4192 
L 2592 4192 
C 1670 2912 1350 1779 1267 0 
z
" transform="scale(0.015625)"/>
     </defs>
     <use xlink:href="#NotoSansCJKjp-Regular-2b"/>
     <use xlink:href="#NotoSansCJKjp-Regular-20" transform="translate(55.499985 0)"/>
     <use xlink:href="#NotoSansCJKjp-Regular-33" transform="translate(77.899979 0)"/>
     <use xlink:href="#NotoSansCJKjp-Regular-20" transform="translate(133.399963 0)"/>
     <use xlink:href="#NotoSansCJKjp-Regular-2b" transform="translate(155.799957 0)"/>
     <use xlink:href="#NotoSansCJKjp-Regular-20" transform="translate(211.299942 0)"/>
     <use xlink:href="#NotoSansCJKjp-Regular-31" transform="translate(233.699936 0)"/>
     <use xlink:href="#NotoSansCJKjp-Regular-30" transform="translate(289.199921 0)"/>
     <use xlink:href="#NotoSansCJKjp-Regular-20" transform="translate(344.699905 0)"/>
     <use xlink:href="#NotoSansCJKjp-Regular-2b" transform="translate(367.099899 0)"/>
     <use xlink:href="#NotoSansCJKjp-Regular-20" transform="translate(422.599884 0)"/>
     <use xlink:href="#NotoSansCJKjp-Regular-32" transform="translate(444.999878 0)"/>
     <use xlink:href="#NotoSansCJKjp-Regular-30" transform="translate(500.499863 0)"/>
     <use xlink:href="#NotoSansCJKjp-Regular-20" transform="translate(555.999847 0)"/>
     <use xlink:href="#NotoSansCJKjp-Regular-2b" transform="translate(578.399841 0)"/>
     <use xlink:href="#NotoSansCJKjp-Regular-20" transform="translate(633.899826 0)"/>
     <use xlink:href="#NotoSansCJKjp-Regular-31" transform="translate(656.29982 0)"/>
     <use xlink:href="#NotoSansCJKjp-Regular-37" transform="translate(711.799805 0)"/>
    </g>
    <!-- = 100 -->
    <g transform="translate(62.108437 437.988375) scale(0.105 -0.105)">
     <use xlink:href="#NotoSansCJKjp-Regular-3d"/>
     <use xlink:href="#NotoSansCJKjp-Regular-20" transform="translate(55.499985 0)"/>
     <use xlink:href="#NotoSansCJKjp-Regular-31" transform="translate(77.899979 0)"/>
     <use xlink:href="#NotoSansCJKjp-Regular-30" transform="translate(133.399963 0)"/>
     <use xlink:href="#NotoSansCJKjp-Regular-30" transform="translate(188.899948 0)"/>
    </g>
   </g>
   <g id="text_33">
    <g id="patch_32">
     <path d="M 653.320671 445.118531 
L 728.064265 445.118531 
Q 732.789265 445.118531 732.789265 440.393531 
L 732.789265 404.763094 
Q 732.789265 400.038094 728.064265 400.038094 
L 653.320671 400.038094 
Q 648.595671 400.038094 648.595671 404.763094 
L 648.595671 440.393531 
Q 648.595671 445.118531 653.320671 445.118531 
z
" style="fill: #ffffff; opacity: 0.95; stroke: #d94801; stroke-width: 1.4; stroke-linejoin: miter"/>
    </g>
    <!-- 1 + 12 + 18 + 19 -->
    <g transform="translate(653.320671 413.120438) scale(0.105 -0.105)">
     <use xlink:href="#NotoSansCJKjp-Regular-31"/>
     <use xlink:href="#NotoSansCJKjp-Regular-20" transform="translate(55.499985 0)"/>
     <use xlink:href="#NotoSansCJKjp-Regular-2b" transform="translate(77.899979 0)"/>
     <use xlink:href="#NotoSansCJKjp-Regular-20" transform="translate(133.399963 0)"/>
     <use xlink:href="#NotoSansCJKjp-Regular-31" transform="translate(155.799957 0)"/>
     <use xlink:href="#NotoSansCJKjp-Regular-32" transform="translate(211.299942 0)"/>
     <use xlink:href="#NotoSansCJKjp-Regular-20" transform="translate(266.799927 0)"/>
     <use xlink:href="#NotoSansCJKjp-Regular-2b" transform="translate(289.199921 0)"/>
     <use xlink:href="#NotoSansCJKjp-Regular-20" transform="translate(344.699905 0)"/>
     <use xlink:href="#NotoSansCJKjp-Regular-31" transform="translate(367.099899 0)"/>
     <use xlink:href="#NotoSansCJKjp-Regular-38" transform="translate(422.599884 0)"/>
     <use xlink:href="#NotoSansCJKjp-Regular-20" transform="translate(478.099869 0)"/>
     <use xlink:href="#NotoSansCJKjp-Regular-2b" transform="translate(500.499863 0)"/>
     <use xlink:href="#NotoSansCJKjp-Regular-20" transform="translate(555.999847 0)"/>
     <use xlink:href="#NotoSansCJKjp-Regular-31" transform="translate(578.399841 0)"/>
     <use xlink:href="#NotoSansCJKjp-Regular-39" transform="translate(633.899826 0)"/>
    </g>
    <!-- + 6 + 7 + 13 + 24 -->
    <g transform="translate(653.320671 425.554406) scale(0.105 -0.105)">
     <defs>
      <path id="NotoSansCJKjp-Regular-36" d="M 1926 -83 
C 2656 -83 3277 531 3277 1440 
C 3277 2426 2765 2912 1971 2912 
C 1606 2912 1197 2701 909 2349 
C 934 3802 1466 4294 2118 4294 
C 2400 4294 2682 4154 2861 3936 
L 3194 4294 
C 2931 4576 2579 4774 2093 4774 
C 1184 4774 358 4077 358 2240 
C 358 691 1030 -83 1926 -83 
z
M 922 1882 
C 1229 2317 1587 2477 1875 2477 
C 2445 2477 2720 2074 2720 1440 
C 2720 800 2374 378 1926 378 
C 1338 378 986 909 922 1882 
z
" transform="scale(0.015625)"/>
     </defs>
     <use xlink:href="#NotoSansCJKjp-Regular-2b"/>
     <use xlink:href="#NotoSansCJKjp-Regular-20" transform="translate(55.499985 0)"/>
     <use xlink:href="#NotoSansCJKjp-Regular-36" transform="translate(77.899979 0)"/>
     <use xlink:href="#NotoSansCJKjp-Regular-20" transform="translate(133.399963 0)"/>
     <use xlink:href="#NotoSansCJKjp-Regular-2b" transform="translate(155.799957 0)"/>
     <use xlink:href="#NotoSansCJKjp-Regular-20" transform="translate(211.299942 0)"/>
     <use xlink:href="#NotoSansCJKjp-Regular-37" transform="translate(233.699936 0)"/>
     <use xlink:href="#NotoSansCJKjp-Regular-20" transform="translate(289.199921 0)"/>
     <use xlink:href="#NotoSansCJKjp-Regular-2b" transform="translate(311.599915 0)"/>
     <use xlink:href="#NotoSansCJKjp-Regular-20" transform="translate(367.099899 0)"/>
     <use xlink:href="#NotoSansCJKjp-Regular-31" transform="translate(389.499893 0)"/>
     <use xlink:href="#NotoSansCJKjp-Regular-33" transform="translate(444.999878 0)"/>
     <use xlink:href="#NotoSansCJKjp-Regular-20" transform="translate(500.499863 0)"/>
     <use xlink:href="#NotoSansCJKjp-Regular-2b" transform="translate(522.899857 0)"/>
     <use xlink:href="#NotoSansCJKjp-Regular-20" transform="translate(578.399841 0)"/>
     <use xlink:href="#NotoSansCJKjp-Regular-32" transform="translate(600.799835 0)"/>
     <use xlink:href="#NotoSansCJKjp-Regular-34" transform="translate(656.29982 0)"/>
    </g>
    <!-- = 100 -->
    <g transform="translate(653.320671 437.988375) scale(0.105 -0.105)">
     <use xlink:href="#NotoSansCJKjp-Regular-3d"/>
     <use xlink:href="#NotoSansCJKjp-Regular-20" transform="translate(55.499985 0)"/>
     <use xlink:href="#NotoSansCJKjp-Regular-31" transform="translate(77.899979 0)"/>
     <use xlink:href="#NotoSansCJKjp-Regular-30" transform="translate(133.399963 0)"/>
     <use xlink:href="#NotoSansCJKjp-Regular-30" transform="translate(188.899948 0)"/>
    </g>
   </g>
   <g id="text_34">
    <g id="patch_33">
     <path d="M 281.794633 710.595138 
L 459.297133 710.595138 
Q 464.022133 710.595138 464.022133 705.870138 
L 464.022133 695.107638 
Q 464.022133 690.382638 459.297133 690.382638 
L 281.794633 690.382638 
Q 277.069633 690.382638 277.069633 695.107638 
L 277.069633 705.870138 
Q 277.069633 710.595138 281.794633 710.595138 
z
" style="fill: #ffffff; opacity: 0.95; stroke: #6a51a3; stroke-width: 1.4; stroke-linejoin: miter"/>
    </g>
    <!-- 7 + 6 + 17 + 20 + 2 + 11 + 16 + 21 = 100 -->
    <g transform="translate(281.794633 703.464982) scale(0.105 -0.105)">
     <use xlink:href="#NotoSansCJKjp-Regular-37"/>
     <use xlink:href="#NotoSansCJKjp-Regular-20" transform="translate(55.499985 0)"/>
     <use xlink:href="#NotoSansCJKjp-Regular-2b" transform="translate(77.899979 0)"/>
     <use xlink:href="#NotoSansCJKjp-Regular-20" transform="translate(133.399963 0)"/>
     <use xlink:href="#NotoSansCJKjp-Regular-36" transform="translate(155.799957 0)"/>
     <use xlink:href="#NotoSansCJKjp-Regular-20" transform="translate(211.299942 0)"/>
     <use xlink:href="#NotoSansCJKjp-Regular-2b" transform="translate(233.699936 0)"/>
     <use xlink:href="#NotoSansCJKjp-Regular-20" transform="translate(289.199921 0)"/>
     <use xlink:href="#NotoSansCJKjp-Regular-31" transform="translate(311.599915 0)"/>
     <use xlink:href="#NotoSansCJKjp-Regular-37" transform="translate(367.099899 0)"/>
     <use xlink:href="#NotoSansCJKjp-Regular-20" transform="translate(422.599884 0)"/>
     <use xlink:href="#NotoSansCJKjp-Regular-2b" transform="translate(444.999878 0)"/>
     <use xlink:href="#NotoSansCJKjp-Regular-20" transform="translate(500.499863 0)"/>
     <use xlink:href="#NotoSansCJKjp-Regular-32" transform="translate(522.899857 0)"/>
     <use xlink:href="#NotoSansCJKjp-Regular-30" transform="translate(578.399841 0)"/>
     <use xlink:href="#NotoSansCJKjp-Regular-20" transform="translate(633.899826 0)"/>
     <use xlink:href="#NotoSansCJKjp-Regular-2b" transform="translate(656.29982 0)"/>
     <use xlink:href="#NotoSansCJKjp-Regular-20" transform="translate(711.799805 0)"/>
     <use xlink:href="#NotoSansCJKjp-Regular-32" transform="translate(734.199799 0)"/>
     <use xlink:href="#NotoSansCJKjp-Regular-20" transform="translate(789.699783 0)"/>
     <use xlink:href="#NotoSansCJKjp-Regular-2b" transform="translate(812.099777 0)"/>
     <use xlink:href="#NotoSansCJKjp-Regular-20" transform="translate(867.599762 0)"/>
     <use xlink:href="#NotoSansCJKjp-Regular-31" transform="translate(889.999756 0)"/>
     <use xlink:href="#NotoSansCJKjp-Regular-31" transform="translate(945.499741 0)"/>
     <use xlink:href="#NotoSansCJKjp-Regular-20" transform="translate(1000.999725 0)"/>
     <use xlink:href="#NotoSansCJKjp-Regular-2b" transform="translate(1023.399719 0)"/>
     <use xlink:href="#NotoSansCJKjp-Regular-20" transform="translate(1078.899704 0)"/>
     <use xlink:href="#NotoSansCJKjp-Regular-31" transform="translate(1101.299698 0)"/>
     <use xlink:href="#NotoSansCJKjp-Regular-36" transform="translate(1156.799683 0)"/>
     <use xlink:href="#NotoSansCJKjp-Regular-20" transform="translate(1212.299667 0)"/>
     <use xlink:href="#NotoSansCJKjp-Regular-2b" transform="translate(1234.699661 0)"/>
     <use xlink:href="#NotoSansCJKjp-Regular-20" transform="translate(1290.199646 0)"/>
     <use xlink:href="#NotoSansCJKjp-Regular-32" transform="translate(1312.59964 0)"/>
     <use xlink:href="#NotoSansCJKjp-Regular-31" transform="translate(1368.099625 0)"/>
     <use xlink:href="#NotoSansCJKjp-Regular-20" transform="translate(1423.599609 0)"/>
     <use xlink:href="#NotoSansCJKjp-Regular-3d" transform="translate(1445.999603 0)"/>
     <use xlink:href="#NotoSansCJKjp-Regular-20" transform="translate(1501.499588 0)"/>
     <use xlink:href="#NotoSansCJKjp-Regular-31" transform="translate(1523.899582 0)"/>
     <use xlink:href="#NotoSansCJKjp-Regular-30" transform="translate(1579.399567 0)"/>
     <use xlink:href="#NotoSansCJKjp-Regular-30" transform="translate(1634.899551 0)"/>
    </g>
   </g>
  </g>
 </g>
 <defs>
  <clipPath id="p77a267c929">
   <rect x="14.003758" y="66.036187" width="713.08425" height="713.08425"/>
  </clipPath>
 </defs>
</svg>
