<?xml version="1.0" encoding="utf-8" standalone="no"?>
<!DOCTYPE svg PUBLIC "-//W3C//DTD SVG 1.1//EN"
  "http://www.w3.org/Graphics/SVG/1.1/DTD/svg11.dtd">
<svg xmlns:xlink="http://www.w3.org/1999/xlink" width="864pt" height="864pt" viewBox="0 0 864 864" xmlns="http://www.w3.org/2000/svg" version="1.1">
 <metadata>
  <rdf:RDF xmlns:dc="http://purl.org/dc/elements/1.1/" xmlns:cc="http://creativecommons.org/ns#" xmlns:rdf="http://www.w3.org/1999/02/22-rdf-syntax-ns#">
   <cc:Work>
    <dc:type rdf:resource="http://purl.org/dc/dcmitype/StillImage"/>
    <dc:date>2026-07-20T10:43:19.130777</dc:date>
    <dc:format>image/svg+xml</dc:format>
    <dc:creator>
     <cc:Agent>
      <dc:title>Matplotlib v3.10.1+dfsg1, https://matplotlib.org/</dc:title>
     </cc:Agent>
    </dc:creator>
   </cc:Work>
  </rdf:RDF>
 </metadata>
 <defs>
  <style type="text/css">*{stroke-linejoin: round; stroke-linecap: butt}</style>
 </defs>
 <g id="figure_1">
  <g id="patch_1">
   <path d="M 0 864 
L 864 864 
L 864 0 
L 0 0 
z
" style="fill: #ffffff"/>
  </g>
  <g id="axes_1">
   <g id="patch_2">
    <path d="M 145.486047 101.65186 
C 149.122906 101.65186 152.611299 100.206921 155.182947 97.635273 
C 157.754595 95.063625 159.199535 91.575232 159.199535 87.938372 
C 159.199535 84.301512 157.754595 80.81312 155.182947 78.241471 
C 152.611299 75.669823 149.122906 74.224884 145.486047 74.224884 
C 141.849187 74.224884 138.360794 75.669823 135.789146 78.241471 
C 133.217498 80.81312 131.772558 84.301512 131.772558 87.938372 
C 131.772558 91.575232 133.217498 95.063625 135.789146 97.635273 
C 138.360794 100.206921 141.849187 101.65186 145.486047 101.65186 
z
" clip-path="url(#p7cf23c236b)" style="fill: #ffffff; stroke: #000000; stroke-width: 1.5; stroke-linejoin: miter"/>
   </g>
   <g id="patch_3">
    <path d="M 189.565116 101.65186 
C 193.201976 101.65186 196.690369 100.206921 199.262017 97.635273 
C 201.833665 95.063625 203.278605 91.575232 203.278605 87.938372 
C 203.278605 84.301512 201.833665 80.81312 199.262017 78.241471 
C 196.690369 75.669823 193.201976 74.224884 189.565116 74.224884 
C 185.928257 74.224884 182.439864 75.669823 179.868216 78.241471 
C 177.296568 80.81312 175.851628 84.301512 175.851628 87.938372 
C 175.851628 91.575232 177.296568 95.063625 179.868216 97.635273 
C 182.439864 100.206921 185.928257 101.65186 189.565116 101.65186 
z
" clip-path="url(#p7cf23c236b)" style="fill: #ffffff; stroke: #000000; stroke-width: 1.5; stroke-linejoin: miter"/>
   </g>
   <g id="patch_4">
    <path d="M 111.202326 148.179767 
C 114.839185 148.179767 118.327578 146.734828 120.899226 144.16318 
C 123.470874 141.591532 124.915814 138.103139 124.915814 134.466279 
C 124.915814 130.829419 123.470874 127.341027 120.899226 124.769378 
C 118.327578 122.19773 114.839185 120.752791 111.202326 120.752791 
C 107.565466 120.752791 104.077073 122.19773 101.505425 124.769378 
C 98.933777 127.341027 97.488837 130.829419 97.488837 134.466279 
C 97.488837 138.103139 98.933777 141.591532 101.505425 144.16318 
C 104.077073 146.734828 107.565466 148.179767 111.202326 148.179767 
z
" clip-path="url(#p7cf23c236b)" style="fill: #ffffff; stroke: #000000; stroke-width: 1.5; stroke-linejoin: miter"/>
   </g>
   <g id="patch_5">
    <path d="M 111.202326 194.707674 
C 114.839185 194.707674 118.327578 193.262735 120.899226 190.691087 
C 123.470874 188.119439 124.915814 184.631046 124.915814 180.994186 
C 124.915814 177.357326 123.470874 173.868934 120.899226 171.297285 
C 118.327578 168.725637 114.839185 167.280698 111.202326 167.280698 
C 107.565466 167.280698 104.077073 168.725637 101.505425 171.297285 
C 98.933777 173.868934 97.488837 177.357326 97.488837 180.994186 
C 97.488837 184.631046 98.933777 188.119439 101.505425 190.691087 
C 104.077073 193.262735 107.565466 194.707674 111.202326 194.707674 
z
" clip-path="url(#p7cf23c236b)" style="fill: #ffffff; stroke: #000000; stroke-width: 1.5; stroke-linejoin: miter"/>
   </g>
   <g id="patch_6">
    <path d="M 223.848837 148.179767 
C 227.485697 148.179767 230.97409 146.734828 233.545738 144.16318 
C 236.117386 141.591532 237.562326 138.103139 237.562326 134.466279 
C 237.562326 130.829419 236.117386 127.341027 233.545738 124.769378 
C 230.97409 122.19773 227.485697 120.752791 223.848837 120.752791 
C 220.211978 120.752791 216.723585 122.19773 214.151937 124.769378 
C 211.580288 127.341027 210.135349 130.829419 210.135349 134.466279 
C 210.135349 138.103139 211.580288 141.591532 214.151937 144.16318 
C 216.723585 146.734828 220.211978 148.179767 223.848837 148.179767 
z
" clip-path="url(#p7cf23c236b)" style="fill: #ffffff; stroke: #000000; stroke-width: 1.5; stroke-linejoin: miter"/>
   </g>
   <g id="patch_7">
    <path d="M 223.848837 194.707674 
C 227.485697 194.707674 230.97409 193.262735 233.545738 190.691087 
C 236.117386 188.119439 237.562326 184.631046 237.562326 180.994186 
C 237.562326 177.357326 236.117386 173.868934 233.545738 171.297285 
C 230.97409 168.725637 227.485697 167.280698 223.848837 167.280698 
C 220.211978 167.280698 216.723585 168.725637 214.151937 171.297285 
C 211.580288 173.868934 210.135349 177.357326 210.135349 180.994186 
C 210.135349 184.631046 211.580288 188.119439 214.151937 190.691087 
C 216.723585 193.262735 220.211978 194.707674 223.848837 194.707674 
z
" clip-path="url(#p7cf23c236b)" style="fill: #ffffff; stroke: #000000; stroke-width: 1.5; stroke-linejoin: miter"/>
   </g>
   <g id="patch_8">
    <path d="M 145.486047 241.235581 
C 149.122906 241.235581 152.611299 239.790642 155.182947 237.218994 
C 157.754595 234.647346 159.199535 231.158953 159.199535 227.522093 
C 159.199535 223.885233 157.754595 220.396841 155.182947 217.825192 
C 152.611299 215.253544 149.122906 213.808605 145.486047 213.808605 
C 141.849187 213.808605 138.360794 215.253544 135.789146 217.825192 
C 133.217498 220.396841 131.772558 223.885233 131.772558 227.522093 
C 131.772558 231.158953 133.217498 234.647346 135.789146 237.218994 
C 138.360794 239.790642 141.849187 241.235581 145.486047 241.235581 
z
" clip-path="url(#p7cf23c236b)" style="fill: #ffffff; stroke: #000000; stroke-width: 1.5; stroke-linejoin: miter"/>
   </g>
   <g id="patch_9">
    <path d="M 189.565116 241.235581 
C 193.201976 241.235581 196.690369 239.790642 199.262017 237.218994 
C 201.833665 234.647346 203.278605 231.158953 203.278605 227.522093 
C 203.278605 223.885233 201.833665 220.396841 199.262017 217.825192 
C 196.690369 215.253544 193.201976 213.808605 189.565116 213.808605 
C 185.928257 213.808605 182.439864 215.253544 179.868216 217.825192 
C 177.296568 220.396841 175.851628 223.885233 175.851628 227.522093 
C 175.851628 231.158953 177.296568 234.647346 179.868216 237.218994 
C 182.439864 239.790642 185.928257 241.235581 189.565116 241.235581 
z
" clip-path="url(#p7cf23c236b)" style="fill: #ffffff; stroke: #000000; stroke-width: 1.5; stroke-linejoin: miter"/>
   </g>
   <g id="patch_10">
    <path d="M 409.960465 101.65186 
C 413.597325 101.65186 417.085718 100.206921 419.657366 97.635273 
C 422.229014 95.063625 423.673953 91.575232 423.673953 87.938372 
C 423.673953 84.301512 422.229014 80.81312 419.657366 78.241471 
C 417.085718 75.669823 413.597325 74.224884 409.960465 74.224884 
C 406.323605 74.224884 402.835213 75.669823 400.263564 78.241471 
C 397.691916 80.81312 396.246977 84.301512 396.246977 87.938372 
C 396.246977 91.575232 397.691916 95.063625 400.263564 97.635273 
C 402.835213 100.206921 406.323605 101.65186 409.960465 101.65186 
z
" clip-path="url(#p7cf23c236b)" style="fill: #ffffff; stroke: #000000; stroke-width: 1.5; stroke-linejoin: miter"/>
   </g>
   <g id="patch_11">
    <path d="M 454.039535 101.65186 
C 457.676395 101.65186 461.164787 100.206921 463.736436 97.635273 
C 466.308084 95.063625 467.753023 91.575232 467.753023 87.938372 
C 467.753023 84.301512 466.308084 80.81312 463.736436 78.241471 
C 461.164787 75.669823 457.676395 74.224884 454.039535 74.224884 
C 450.402675 74.224884 446.914282 75.669823 444.342634 78.241471 
C 441.770986 80.81312 440.326047 84.301512 440.326047 87.938372 
C 440.326047 91.575232 441.770986 95.063625 444.342634 97.635273 
C 446.914282 100.206921 450.402675 101.65186 454.039535 101.65186 
z
" clip-path="url(#p7cf23c236b)" style="fill: #ffffff; stroke: #000000; stroke-width: 1.5; stroke-linejoin: miter"/>
   </g>
   <g id="patch_12">
    <path d="M 375.676744 148.179767 
C 379.313604 148.179767 382.801997 146.734828 385.373645 144.16318 
C 387.945293 141.591532 389.390233 138.103139 389.390233 134.466279 
C 389.390233 130.829419 387.945293 127.341027 385.373645 124.769378 
C 382.801997 122.19773 379.313604 120.752791 375.676744 120.752791 
C 372.039885 120.752791 368.551492 122.19773 365.979844 124.769378 
C 363.408195 127.341027 361.963256 130.829419 361.963256 134.466279 
C 361.963256 138.103139 363.408195 141.591532 365.979844 144.16318 
C 368.551492 146.734828 372.039885 148.179767 375.676744 148.179767 
z
" clip-path="url(#p7cf23c236b)" style="fill: #ffffff; stroke: #000000; stroke-width: 1.5; stroke-linejoin: miter"/>
   </g>
   <g id="patch_13">
    <path d="M 375.676744 194.707674 
C 379.313604 194.707674 382.801997 193.262735 385.373645 190.691087 
C 387.945293 188.119439 389.390233 184.631046 389.390233 180.994186 
C 389.390233 177.357326 387.945293 173.868934 385.373645 171.297285 
C 382.801997 168.725637 379.313604 167.280698 375.676744 167.280698 
C 372.039885 167.280698 368.551492 168.725637 365.979844 171.297285 
C 363.408195 173.868934 361.963256 177.357326 361.963256 180.994186 
C 361.963256 184.631046 363.408195 188.119439 365.979844 190.691087 
C 368.551492 193.262735 372.039885 194.707674 375.676744 194.707674 
z
" clip-path="url(#p7cf23c236b)" style="fill: #ffffff; stroke: #000000; stroke-width: 1.5; stroke-linejoin: miter"/>
   </g>
   <g id="patch_14">
    <path d="M 488.323256 148.179767 
C 491.960115 148.179767 495.448508 146.734828 498.020156 144.16318 
C 500.591805 141.591532 502.036744 138.103139 502.036744 134.466279 
C 502.036744 130.829419 500.591805 127.341027 498.020156 124.769378 
C 495.448508 122.19773 491.960115 120.752791 488.323256 120.752791 
C 484.686396 120.752791 481.198003 122.19773 478.626355 124.769378 
C 476.054707 127.341027 474.609767 130.829419 474.609767 134.466279 
C 474.609767 138.103139 476.054707 141.591532 478.626355 144.16318 
C 481.198003 146.734828 484.686396 148.179767 488.323256 148.179767 
z
" clip-path="url(#p7cf23c236b)" style="fill: #ffffff; stroke: #000000; stroke-width: 1.5; stroke-linejoin: miter"/>
   </g>
   <g id="patch_15">
    <path d="M 488.323256 194.707674 
C 491.960115 194.707674 495.448508 193.262735 498.020156 190.691087 
C 500.591805 188.119439 502.036744 184.631046 502.036744 180.994186 
C 502.036744 177.357326 500.591805 173.868934 498.020156 171.297285 
C 495.448508 168.725637 491.960115 167.280698 488.323256 167.280698 
C 484.686396 167.280698 481.198003 168.725637 478.626355 171.297285 
C 476.054707 173.868934 474.609767 177.357326 474.609767 180.994186 
C 474.609767 184.631046 476.054707 188.119439 478.626355 190.691087 
C 481.198003 193.262735 484.686396 194.707674 488.323256 194.707674 
z
" clip-path="url(#p7cf23c236b)" style="fill: #ffffff; stroke: #000000; stroke-width: 1.5; stroke-linejoin: miter"/>
   </g>
   <g id="patch_16">
    <path d="M 409.960465 241.235581 
C 413.597325 241.235581 417.085718 239.790642 419.657366 237.218994 
C 422.229014 234.647346 423.673953 231.158953 423.673953 227.522093 
C 423.673953 223.885233 422.229014 220.396841 419.657366 217.825192 
C 417.085718 215.253544 413.597325 213.808605 409.960465 213.808605 
C 406.323605 213.808605 402.835213 215.253544 400.263564 217.825192 
C 397.691916 220.396841 396.246977 223.885233 396.246977 227.522093 
C 396.246977 231.158953 397.691916 234.647346 400.263564 237.218994 
C 402.835213 239.790642 406.323605 241.235581 409.960465 241.235581 
z
" clip-path="url(#p7cf23c236b)" style="fill: #ffffff; stroke: #000000; stroke-width: 1.5; stroke-linejoin: miter"/>
   </g>
   <g id="patch_17">
    <path d="M 454.039535 241.235581 
C 457.676395 241.235581 461.164787 239.790642 463.736436 237.218994 
C 466.308084 234.647346 467.753023 231.158953 467.753023 227.522093 
C 467.753023 223.885233 466.308084 220.396841 463.736436 217.825192 
C 461.164787 215.253544 457.676395 213.808605 454.039535 213.808605 
C 450.402675 213.808605 446.914282 215.253544 444.342634 217.825192 
C 441.770986 220.396841 440.326047 223.885233 440.326047 227.522093 
C 440.326047 231.158953 441.770986 234.647346 444.342634 237.218994 
C 446.914282 239.790642 450.402675 241.235581 454.039535 241.235581 
z
" clip-path="url(#p7cf23c236b)" style="fill: #ffffff; stroke: #000000; stroke-width: 1.5; stroke-linejoin: miter"/>
   </g>
   <g id="patch_18">
    <path d="M 674.434884 101.65186 
C 678.071743 101.65186 681.560136 100.206921 684.131784 97.635273 
C 686.703432 95.063625 688.148372 91.575232 688.148372 87.938372 
C 688.148372 84.301512 686.703432 80.81312 684.131784 78.241471 
C 681.560136 75.669823 678.071743 74.224884 674.434884 74.224884 
C 670.798024 74.224884 667.309631 75.669823 664.737983 78.241471 
C 662.166335 80.81312 660.721395 84.301512 660.721395 87.938372 
C 660.721395 91.575232 662.166335 95.063625 664.737983 97.635273 
C 667.309631 100.206921 670.798024 101.65186 674.434884 101.65186 
z
" clip-path="url(#p7cf23c236b)" style="fill: #ffffff; stroke: #000000; stroke-width: 1.5; stroke-linejoin: miter"/>
   </g>
   <g id="patch_19">
    <path d="M 718.513953 101.65186 
C 722.150813 101.65186 725.639206 100.206921 728.210854 97.635273 
C 730.782502 95.063625 732.227442 91.575232 732.227442 87.938372 
C 732.227442 84.301512 730.782502 80.81312 728.210854 78.241471 
C 725.639206 75.669823 722.150813 74.224884 718.513953 74.224884 
C 714.877094 74.224884 711.388701 75.669823 708.817053 78.241471 
C 706.245405 80.81312 704.800465 84.301512 704.800465 87.938372 
C 704.800465 91.575232 706.245405 95.063625 708.817053 97.635273 
C 711.388701 100.206921 714.877094 101.65186 718.513953 101.65186 
z
" clip-path="url(#p7cf23c236b)" style="fill: #ffffff; stroke: #000000; stroke-width: 1.5; stroke-linejoin: miter"/>
   </g>
   <g id="patch_20">
    <path d="M 640.151163 148.179767 
C 643.788022 148.179767 647.276415 146.734828 649.848063 144.16318 
C 652.419712 141.591532 653.864651 138.103139 653.864651 134.466279 
C 653.864651 130.829419 652.419712 127.341027 649.848063 124.769378 
C 647.276415 122.19773 643.788022 120.752791 640.151163 120.752791 
C 636.514303 120.752791 633.02591 122.19773 630.454262 124.769378 
C 627.882614 127.341027 626.437674 130.829419 626.437674 134.466279 
C 626.437674 138.103139 627.882614 141.591532 630.454262 144.16318 
C 633.02591 146.734828 636.514303 148.179767 640.151163 148.179767 
z
" clip-path="url(#p7cf23c236b)" style="fill: #ffffff; stroke: #000000; stroke-width: 1.5; stroke-linejoin: miter"/>
   </g>
   <g id="patch_21">
    <path d="M 640.151163 194.707674 
C 643.788022 194.707674 647.276415 193.262735 649.848063 190.691087 
C 652.419712 188.119439 653.864651 184.631046 653.864651 180.994186 
C 653.864651 177.357326 652.419712 173.868934 649.848063 171.297285 
C 647.276415 168.725637 643.788022 167.280698 640.151163 167.280698 
C 636.514303 167.280698 633.02591 168.725637 630.454262 171.297285 
C 627.882614 173.868934 626.437674 177.357326 626.437674 180.994186 
C 626.437674 184.631046 627.882614 188.119439 630.454262 190.691087 
C 633.02591 193.262735 636.514303 194.707674 640.151163 194.707674 
z
" clip-path="url(#p7cf23c236b)" style="fill: #ffffff; stroke: #000000; stroke-width: 1.5; stroke-linejoin: miter"/>
   </g>
   <g id="patch_22">
    <path d="M 752.797674 148.179767 
C 756.434534 148.179767 759.922927 146.734828 762.494575 144.16318 
C 765.066223 141.591532 766.511163 138.103139 766.511163 134.466279 
C 766.511163 130.829419 765.066223 127.341027 762.494575 124.769378 
C 759.922927 122.19773 756.434534 120.752791 752.797674 120.752791 
C 749.160815 120.752791 745.672422 122.19773 743.100774 124.769378 
C 740.529126 127.341027 739.084186 130.829419 739.084186 134.466279 
C 739.084186 138.103139 740.529126 141.591532 743.100774 144.16318 
C 745.672422 146.734828 749.160815 148.179767 752.797674 148.179767 
z
" clip-path="url(#p7cf23c236b)" style="fill: #ffffff; stroke: #000000; stroke-width: 1.5; stroke-linejoin: miter"/>
   </g>
   <g id="patch_23">
    <path d="M 752.797674 194.707674 
C 756.434534 194.707674 759.922927 193.262735 762.494575 190.691087 
C 765.066223 188.119439 766.511163 184.631046 766.511163 180.994186 
C 766.511163 177.357326 765.066223 173.868934 762.494575 171.297285 
C 759.922927 168.725637 756.434534 167.280698 752.797674 167.280698 
C 749.160815 167.280698 745.672422 168.725637 743.100774 171.297285 
C 740.529126 173.868934 739.084186 177.357326 739.084186 180.994186 
C 739.084186 184.631046 740.529126 188.119439 743.100774 190.691087 
C 745.672422 193.262735 749.160815 194.707674 752.797674 194.707674 
z
" clip-path="url(#p7cf23c236b)" style="fill: #ffffff; stroke: #000000; stroke-width: 1.5; stroke-linejoin: miter"/>
   </g>
   <g id="patch_24">
    <path d="M 674.434884 241.235581 
C 678.071743 241.235581 681.560136 239.790642 684.131784 237.218994 
C 686.703432 234.647346 688.148372 231.158953 688.148372 227.522093 
C 688.148372 223.885233 686.703432 220.396841 684.131784 217.825192 
C 681.560136 215.253544 678.071743 213.808605 674.434884 213.808605 
C 670.798024 213.808605 667.309631 215.253544 664.737983 217.825192 
C 662.166335 220.396841 660.721395 223.885233 660.721395 227.522093 
C 660.721395 231.158953 662.166335 234.647346 664.737983 237.218994 
C 667.309631 239.790642 670.798024 241.235581 674.434884 241.235581 
z
" clip-path="url(#p7cf23c236b)" style="fill: #ffffff; stroke: #000000; stroke-width: 1.5; stroke-linejoin: miter"/>
   </g>
   <g id="patch_25">
    <path d="M 718.513953 241.235581 
C 722.150813 241.235581 725.639206 239.790642 728.210854 237.218994 
C 730.782502 234.647346 732.227442 231.158953 732.227442 227.522093 
C 732.227442 223.885233 730.782502 220.396841 728.210854 217.825192 
C 725.639206 215.253544 722.150813 213.808605 718.513953 213.808605 
C 714.877094 213.808605 711.388701 215.253544 708.817053 217.825192 
C 706.245405 220.396841 704.800465 223.885233 704.800465 227.522093 
C 704.800465 231.158953 706.245405 234.647346 708.817053 237.218994 
C 711.388701 239.790642 714.877094 241.235581 718.513953 241.235581 
z
" clip-path="url(#p7cf23c236b)" style="fill: #ffffff; stroke: #000000; stroke-width: 1.5; stroke-linejoin: miter"/>
   </g>
   <g id="patch_26">
    <path d="M 145.486047 375.921628 
C 149.122906 375.921628 152.611299 374.476688 155.182947 371.90504 
C 157.754595 369.333392 159.199535 365.844999 159.199535 362.20814 
C 159.199535 358.57128 157.754595 355.082887 155.182947 352.511239 
C 152.611299 349.939591 149.122906 348.494651 145.486047 348.494651 
C 141.849187 348.494651 138.360794 349.939591 135.789146 352.511239 
C 133.217498 355.082887 131.772558 358.57128 131.772558 362.20814 
C 131.772558 365.844999 133.217498 369.333392 135.789146 371.90504 
C 138.360794 374.476688 141.849187 375.921628 145.486047 375.921628 
z
" clip-path="url(#p7cf23c236b)" style="fill: #ffffff; stroke: #000000; stroke-width: 1.5; stroke-linejoin: miter"/>
   </g>
   <g id="patch_27">
    <path d="M 189.565116 375.921628 
C 193.201976 375.921628 196.690369 374.476688 199.262017 371.90504 
C 201.833665 369.333392 203.278605 365.844999 203.278605 362.20814 
C 203.278605 358.57128 201.833665 355.082887 199.262017 352.511239 
C 196.690369 349.939591 193.201976 348.494651 189.565116 348.494651 
C 185.928257 348.494651 182.439864 349.939591 179.868216 352.511239 
C 177.296568 355.082887 175.851628 358.57128 175.851628 362.20814 
C 175.851628 365.844999 177.296568 369.333392 179.868216 371.90504 
C 182.439864 374.476688 185.928257 375.921628 189.565116 375.921628 
z
" clip-path="url(#p7cf23c236b)" style="fill: #ffffff; stroke: #000000; stroke-width: 1.5; stroke-linejoin: miter"/>
   </g>
   <g id="patch_28">
    <path d="M 111.202326 422.449535 
C 114.839185 422.449535 118.327578 421.004595 120.899226 418.432947 
C 123.470874 415.861299 124.915814 412.372906 124.915814 408.736047 
C 124.915814 405.099187 123.470874 401.610794 120.899226 399.039146 
C 118.327578 396.467498 114.839185 395.022558 111.202326 395.022558 
C 107.565466 395.022558 104.077073 396.467498 101.505425 399.039146 
C 98.933777 401.610794 97.488837 405.099187 97.488837 408.736047 
C 97.488837 412.372906 98.933777 415.861299 101.505425 418.432947 
C 104.077073 421.004595 107.565466 422.449535 111.202326 422.449535 
z
" clip-path="url(#p7cf23c236b)" style="fill: #ffffff; stroke: #000000; stroke-width: 1.5; stroke-linejoin: miter"/>
   </g>
   <g id="patch_29">
    <path d="M 111.202326 468.977442 
C 114.839185 468.977442 118.327578 467.532502 120.899226 464.960854 
C 123.470874 462.389206 124.915814 458.900813 124.915814 455.263953 
C 124.915814 451.627094 123.470874 448.138701 120.899226 445.567053 
C 118.327578 442.995405 114.839185 441.550465 111.202326 441.550465 
C 107.565466 441.550465 104.077073 442.995405 101.505425 445.567053 
C 98.933777 448.138701 97.488837 451.627094 97.488837 455.263953 
C 97.488837 458.900813 98.933777 462.389206 101.505425 464.960854 
C 104.077073 467.532502 107.565466 468.977442 111.202326 468.977442 
z
" clip-path="url(#p7cf23c236b)" style="fill: #ffffff; stroke: #000000; stroke-width: 1.5; stroke-linejoin: miter"/>
   </g>
   <g id="patch_30">
    <path d="M 223.848837 422.449535 
C 227.485697 422.449535 230.97409 421.004595 233.545738 418.432947 
C 236.117386 415.861299 237.562326 412.372906 237.562326 408.736047 
C 237.562326 405.099187 236.117386 401.610794 233.545738 399.039146 
C 230.97409 396.467498 227.485697 395.022558 223.848837 395.022558 
C 220.211978 395.022558 216.723585 396.467498 214.151937 399.039146 
C 211.580288 401.610794 210.135349 405.099187 210.135349 408.736047 
C 210.135349 412.372906 211.580288 415.861299 214.151937 418.432947 
C 216.723585 421.004595 220.211978 422.449535 223.848837 422.449535 
z
" clip-path="url(#p7cf23c236b)" style="fill: #ffffff; stroke: #000000; stroke-width: 1.5; stroke-linejoin: miter"/>
   </g>
   <g id="patch_31">
    <path d="M 223.848837 468.977442 
C 227.485697 468.977442 230.97409 467.532502 233.545738 464.960854 
C 236.117386 462.389206 237.562326 458.900813 237.562326 455.263953 
C 237.562326 451.627094 236.117386 448.138701 233.545738 445.567053 
C 230.97409 442.995405 227.485697 441.550465 223.848837 441.550465 
C 220.211978 441.550465 216.723585 442.995405 214.151937 445.567053 
C 211.580288 448.138701 210.135349 451.627094 210.135349 455.263953 
C 210.135349 458.900813 211.580288 462.389206 214.151937 464.960854 
C 216.723585 467.532502 220.211978 468.977442 223.848837 468.977442 
z
" clip-path="url(#p7cf23c236b)" style="fill: #ffffff; stroke: #000000; stroke-width: 1.5; stroke-linejoin: miter"/>
   </g>
   <g id="patch_32">
    <path d="M 145.486047 515.505349 
C 149.122906 515.505349 152.611299 514.060409 155.182947 511.488761 
C 157.754595 508.917113 159.199535 505.42872 159.199535 501.79186 
C 159.199535 498.155001 157.754595 494.666608 155.182947 492.09496 
C 152.611299 489.523312 149.122906 488.078372 145.486047 488.078372 
C 141.849187 488.078372 138.360794 489.523312 135.789146 492.09496 
C 133.217498 494.666608 131.772558 498.155001 131.772558 501.79186 
C 131.772558 505.42872 133.217498 508.917113 135.789146 511.488761 
C 138.360794 514.060409 141.849187 515.505349 145.486047 515.505349 
z
" clip-path="url(#p7cf23c236b)" style="fill: #ffffff; stroke: #000000; stroke-width: 1.5; stroke-linejoin: miter"/>
   </g>
   <g id="patch_33">
    <path d="M 189.565116 515.505349 
C 193.201976 515.505349 196.690369 514.060409 199.262017 511.488761 
C 201.833665 508.917113 203.278605 505.42872 203.278605 501.79186 
C 203.278605 498.155001 201.833665 494.666608 199.262017 492.09496 
C 196.690369 489.523312 193.201976 488.078372 189.565116 488.078372 
C 185.928257 488.078372 182.439864 489.523312 179.868216 492.09496 
C 177.296568 494.666608 175.851628 498.155001 175.851628 501.79186 
C 175.851628 505.42872 177.296568 508.917113 179.868216 511.488761 
C 182.439864 514.060409 185.928257 515.505349 189.565116 515.505349 
z
" clip-path="url(#p7cf23c236b)" style="fill: #ffffff; stroke: #000000; stroke-width: 1.5; stroke-linejoin: miter"/>
   </g>
   <g id="patch_34">
    <path d="M 409.960465 375.921628 
C 413.597325 375.921628 417.085718 374.476688 419.657366 371.90504 
C 422.229014 369.333392 423.673953 365.844999 423.673953 362.20814 
C 423.673953 358.57128 422.229014 355.082887 419.657366 352.511239 
C 417.085718 349.939591 413.597325 348.494651 409.960465 348.494651 
C 406.323605 348.494651 402.835213 349.939591 400.263564 352.511239 
C 397.691916 355.082887 396.246977 358.57128 396.246977 362.20814 
C 396.246977 365.844999 397.691916 369.333392 400.263564 371.90504 
C 402.835213 374.476688 406.323605 375.921628 409.960465 375.921628 
z
" clip-path="url(#p7cf23c236b)" style="fill: #ffffff; stroke: #000000; stroke-width: 1.5; stroke-linejoin: miter"/>
   </g>
   <g id="patch_35">
    <path d="M 454.039535 375.921628 
C 457.676395 375.921628 461.164787 374.476688 463.736436 371.90504 
C 466.308084 369.333392 467.753023 365.844999 467.753023 362.20814 
C 467.753023 358.57128 466.308084 355.082887 463.736436 352.511239 
C 461.164787 349.939591 457.676395 348.494651 454.039535 348.494651 
C 450.402675 348.494651 446.914282 349.939591 444.342634 352.511239 
C 441.770986 355.082887 440.326047 358.57128 440.326047 362.20814 
C 440.326047 365.844999 441.770986 369.333392 444.342634 371.90504 
C 446.914282 374.476688 450.402675 375.921628 454.039535 375.921628 
z
" clip-path="url(#p7cf23c236b)" style="fill: #ffffff; stroke: #000000; stroke-width: 1.5; stroke-linejoin: miter"/>
   </g>
   <g id="patch_36">
    <path d="M 375.676744 422.449535 
C 379.313604 422.449535 382.801997 421.004595 385.373645 418.432947 
C 387.945293 415.861299 389.390233 412.372906 389.390233 408.736047 
C 389.390233 405.099187 387.945293 401.610794 385.373645 399.039146 
C 382.801997 396.467498 379.313604 395.022558 375.676744 395.022558 
C 372.039885 395.022558 368.551492 396.467498 365.979844 399.039146 
C 363.408195 401.610794 361.963256 405.099187 361.963256 408.736047 
C 361.963256 412.372906 363.408195 415.861299 365.979844 418.432947 
C 368.551492 421.004595 372.039885 422.449535 375.676744 422.449535 
z
" clip-path="url(#p7cf23c236b)" style="fill: #ffffff; stroke: #000000; stroke-width: 1.5; stroke-linejoin: miter"/>
   </g>
   <g id="patch_37">
    <path d="M 375.676744 468.977442 
C 379.313604 468.977442 382.801997 467.532502 385.373645 464.960854 
C 387.945293 462.389206 389.390233 458.900813 389.390233 455.263953 
C 389.390233 451.627094 387.945293 448.138701 385.373645 445.567053 
C 382.801997 442.995405 379.313604 441.550465 375.676744 441.550465 
C 372.039885 441.550465 368.551492 442.995405 365.979844 445.567053 
C 363.408195 448.138701 361.963256 451.627094 361.963256 455.263953 
C 361.963256 458.900813 363.408195 462.389206 365.979844 464.960854 
C 368.551492 467.532502 372.039885 468.977442 375.676744 468.977442 
z
" clip-path="url(#p7cf23c236b)" style="fill: #ffffff; stroke: #000000; stroke-width: 1.5; stroke-linejoin: miter"/>
   </g>
   <g id="patch_38">
    <path d="M 488.323256 422.449535 
C 491.960115 422.449535 495.448508 421.004595 498.020156 418.432947 
C 500.591805 415.861299 502.036744 412.372906 502.036744 408.736047 
C 502.036744 405.099187 500.591805 401.610794 498.020156 399.039146 
C 495.448508 396.467498 491.960115 395.022558 488.323256 395.022558 
C 484.686396 395.022558 481.198003 396.467498 478.626355 399.039146 
C 476.054707 401.610794 474.609767 405.099187 474.609767 408.736047 
C 474.609767 412.372906 476.054707 415.861299 478.626355 418.432947 
C 481.198003 421.004595 484.686396 422.449535 488.323256 422.449535 
z
" clip-path="url(#p7cf23c236b)" style="fill: #ffffff; stroke: #000000; stroke-width: 1.5; stroke-linejoin: miter"/>
   </g>
   <g id="patch_39">
    <path d="M 488.323256 468.977442 
C 491.960115 468.977442 495.448508 467.532502 498.020156 464.960854 
C 500.591805 462.389206 502.036744 458.900813 502.036744 455.263953 
C 502.036744 451.627094 500.591805 448.138701 498.020156 445.567053 
C 495.448508 442.995405 491.960115 441.550465 488.323256 441.550465 
C 484.686396 441.550465 481.198003 442.995405 478.626355 445.567053 
C 476.054707 448.138701 474.609767 451.627094 474.609767 455.263953 
C 474.609767 458.900813 476.054707 462.389206 478.626355 464.960854 
C 481.198003 467.532502 484.686396 468.977442 488.323256 468.977442 
z
" clip-path="url(#p7cf23c236b)" style="fill: #ffffff; stroke: #000000; stroke-width: 1.5; stroke-linejoin: miter"/>
   </g>
   <g id="patch_40">
    <path d="M 409.960465 515.505349 
C 413.597325 515.505349 417.085718 514.060409 419.657366 511.488761 
C 422.229014 508.917113 423.673953 505.42872 423.673953 501.79186 
C 423.673953 498.155001 422.229014 494.666608 419.657366 492.09496 
C 417.085718 489.523312 413.597325 488.078372 409.960465 488.078372 
C 406.323605 488.078372 402.835213 489.523312 400.263564 492.09496 
C 397.691916 494.666608 396.246977 498.155001 396.246977 501.79186 
C 396.246977 505.42872 397.691916 508.917113 400.263564 511.488761 
C 402.835213 514.060409 406.323605 515.505349 409.960465 515.505349 
z
" clip-path="url(#p7cf23c236b)" style="fill: #ffffff; stroke: #000000; stroke-width: 1.5; stroke-linejoin: miter"/>
   </g>
   <g id="patch_41">
    <path d="M 454.039535 515.505349 
C 457.676395 515.505349 461.164787 514.060409 463.736436 511.488761 
C 466.308084 508.917113 467.753023 505.42872 467.753023 501.79186 
C 467.753023 498.155001 466.308084 494.666608 463.736436 492.09496 
C 461.164787 489.523312 457.676395 488.078372 454.039535 488.078372 
C 450.402675 488.078372 446.914282 489.523312 444.342634 492.09496 
C 441.770986 494.666608 440.326047 498.155001 440.326047 501.79186 
C 440.326047 505.42872 441.770986 508.917113 444.342634 511.488761 
C 446.914282 514.060409 450.402675 515.505349 454.039535 515.505349 
z
" clip-path="url(#p7cf23c236b)" style="fill: #ffffff; stroke: #000000; stroke-width: 1.5; stroke-linejoin: miter"/>
   </g>
   <g id="patch_42">
    <path d="M 674.434884 375.921628 
C 678.071743 375.921628 681.560136 374.476688 684.131784 371.90504 
C 686.703432 369.333392 688.148372 365.844999 688.148372 362.20814 
C 688.148372 358.57128 686.703432 355.082887 684.131784 352.511239 
C 681.560136 349.939591 678.071743 348.494651 674.434884 348.494651 
C 670.798024 348.494651 667.309631 349.939591 664.737983 352.511239 
C 662.166335 355.082887 660.721395 358.57128 660.721395 362.20814 
C 660.721395 365.844999 662.166335 369.333392 664.737983 371.90504 
C 667.309631 374.476688 670.798024 375.921628 674.434884 375.921628 
z
" clip-path="url(#p7cf23c236b)" style="fill: #ffffff; stroke: #000000; stroke-width: 1.5; stroke-linejoin: miter"/>
   </g>
   <g id="patch_43">
    <path d="M 718.513953 375.921628 
C 722.150813 375.921628 725.639206 374.476688 728.210854 371.90504 
C 730.782502 369.333392 732.227442 365.844999 732.227442 362.20814 
C 732.227442 358.57128 730.782502 355.082887 728.210854 352.511239 
C 725.639206 349.939591 722.150813 348.494651 718.513953 348.494651 
C 714.877094 348.494651 711.388701 349.939591 708.817053 352.511239 
C 706.245405 355.082887 704.800465 358.57128 704.800465 362.20814 
C 704.800465 365.844999 706.245405 369.333392 708.817053 371.90504 
C 711.388701 374.476688 714.877094 375.921628 718.513953 375.921628 
z
" clip-path="url(#p7cf23c236b)" style="fill: #ffffff; stroke: #000000; stroke-width: 1.5; stroke-linejoin: miter"/>
   </g>
   <g id="patch_44">
    <path d="M 640.151163 422.449535 
C 643.788022 422.449535 647.276415 421.004595 649.848063 418.432947 
C 652.419712 415.861299 653.864651 412.372906 653.864651 408.736047 
C 653.864651 405.099187 652.419712 401.610794 649.848063 399.039146 
C 647.276415 396.467498 643.788022 395.022558 640.151163 395.022558 
C 636.514303 395.022558 633.02591 396.467498 630.454262 399.039146 
C 627.882614 401.610794 626.437674 405.099187 626.437674 408.736047 
C 626.437674 412.372906 627.882614 415.861299 630.454262 418.432947 
C 633.02591 421.004595 636.514303 422.449535 640.151163 422.449535 
z
" clip-path="url(#p7cf23c236b)" style="fill: #ffffff; stroke: #000000; stroke-width: 1.5; stroke-linejoin: miter"/>
   </g>
   <g id="patch_45">
    <path d="M 640.151163 468.977442 
C 643.788022 468.977442 647.276415 467.532502 649.848063 464.960854 
C 652.419712 462.389206 653.864651 458.900813 653.864651 455.263953 
C 653.864651 451.627094 652.419712 448.138701 649.848063 445.567053 
C 647.276415 442.995405 643.788022 441.550465 640.151163 441.550465 
C 636.514303 441.550465 633.02591 442.995405 630.454262 445.567053 
C 627.882614 448.138701 626.437674 451.627094 626.437674 455.263953 
C 626.437674 458.900813 627.882614 462.389206 630.454262 464.960854 
C 633.02591 467.532502 636.514303 468.977442 640.151163 468.977442 
z
" clip-path="url(#p7cf23c236b)" style="fill: #ffffff; stroke: #000000; stroke-width: 1.5; stroke-linejoin: miter"/>
   </g>
   <g id="patch_46">
    <path d="M 752.797674 422.449535 
C 756.434534 422.449535 759.922927 421.004595 762.494575 418.432947 
C 765.066223 415.861299 766.511163 412.372906 766.511163 408.736047 
C 766.511163 405.099187 765.066223 401.610794 762.494575 399.039146 
C 759.922927 396.467498 756.434534 395.022558 752.797674 395.022558 
C 749.160815 395.022558 745.672422 396.467498 743.100774 399.039146 
C 740.529126 401.610794 739.084186 405.099187 739.084186 408.736047 
C 739.084186 412.372906 740.529126 415.861299 743.100774 418.432947 
C 745.672422 421.004595 749.160815 422.449535 752.797674 422.449535 
z
" clip-path="url(#p7cf23c236b)" style="fill: #ffffff; stroke: #000000; stroke-width: 1.5; stroke-linejoin: miter"/>
   </g>
   <g id="patch_47">
    <path d="M 752.797674 468.977442 
C 756.434534 468.977442 759.922927 467.532502 762.494575 464.960854 
C 765.066223 462.389206 766.511163 458.900813 766.511163 455.263953 
C 766.511163 451.627094 765.066223 448.138701 762.494575 445.567053 
C 759.922927 442.995405 756.434534 441.550465 752.797674 441.550465 
C 749.160815 441.550465 745.672422 442.995405 743.100774 445.567053 
C 740.529126 448.138701 739.084186 451.627094 739.084186 455.263953 
C 739.084186 458.900813 740.529126 462.389206 743.100774 464.960854 
C 745.672422 467.532502 749.160815 468.977442 752.797674 468.977442 
z
" clip-path="url(#p7cf23c236b)" style="fill: #ffffff; stroke: #000000; stroke-width: 1.5; stroke-linejoin: miter"/>
   </g>
   <g id="patch_48">
    <path d="M 674.434884 515.505349 
C 678.071743 515.505349 681.560136 514.060409 684.131784 511.488761 
C 686.703432 508.917113 688.148372 505.42872 688.148372 501.79186 
C 688.148372 498.155001 686.703432 494.666608 684.131784 492.09496 
C 681.560136 489.523312 678.071743 488.078372 674.434884 488.078372 
C 670.798024 488.078372 667.309631 489.523312 664.737983 492.09496 
C 662.166335 494.666608 660.721395 498.155001 660.721395 501.79186 
C 660.721395 505.42872 662.166335 508.917113 664.737983 511.488761 
C 667.309631 514.060409 670.798024 515.505349 674.434884 515.505349 
z
" clip-path="url(#p7cf23c236b)" style="fill: #ffffff; stroke: #000000; stroke-width: 1.5; stroke-linejoin: miter"/>
   </g>
   <g id="patch_49">
    <path d="M 718.513953 515.505349 
C 722.150813 515.505349 725.639206 514.060409 728.210854 511.488761 
C 730.782502 508.917113 732.227442 505.42872 732.227442 501.79186 
C 732.227442 498.155001 730.782502 494.666608 728.210854 492.09496 
C 725.639206 489.523312 722.150813 488.078372 718.513953 488.078372 
C 714.877094 488.078372 711.388701 489.523312 708.817053 492.09496 
C 706.245405 494.666608 704.800465 498.155001 704.800465 501.79186 
C 704.800465 505.42872 706.245405 508.917113 708.817053 511.488761 
C 711.388701 514.060409 714.877094 515.505349 718.513953 515.505349 
z
" clip-path="url(#p7cf23c236b)" style="fill: #ffffff; stroke: #000000; stroke-width: 1.5; stroke-linejoin: miter"/>
   </g>
   <g id="patch_50">
    <path d="M 145.486047 650.191395 
C 149.122906 650.191395 152.611299 648.746456 155.182947 646.174808 
C 157.754595 643.603159 159.199535 640.114767 159.199535 636.477907 
C 159.199535 632.841047 157.754595 629.352654 155.182947 626.781006 
C 152.611299 624.209358 149.122906 622.764419 145.486047 622.764419 
C 141.849187 622.764419 138.360794 624.209358 135.789146 626.781006 
C 133.217498 629.352654 131.772558 632.841047 131.772558 636.477907 
C 131.772558 640.114767 133.217498 643.603159 135.789146 646.174808 
C 138.360794 648.746456 141.849187 650.191395 145.486047 650.191395 
z
" clip-path="url(#p7cf23c236b)" style="fill: #ffffff; stroke: #000000; stroke-width: 1.5; stroke-linejoin: miter"/>
   </g>
   <g id="patch_51">
    <path d="M 189.565116 650.191395 
C 193.201976 650.191395 196.690369 648.746456 199.262017 646.174808 
C 201.833665 643.603159 203.278605 640.114767 203.278605 636.477907 
C 203.278605 632.841047 201.833665 629.352654 199.262017 626.781006 
C 196.690369 624.209358 193.201976 622.764419 189.565116 622.764419 
C 185.928257 622.764419 182.439864 624.209358 179.868216 626.781006 
C 177.296568 629.352654 175.851628 632.841047 175.851628 636.477907 
C 175.851628 640.114767 177.296568 643.603159 179.868216 646.174808 
C 182.439864 648.746456 185.928257 650.191395 189.565116 650.191395 
z
" clip-path="url(#p7cf23c236b)" style="fill: #ffffff; stroke: #000000; stroke-width: 1.5; stroke-linejoin: miter"/>
   </g>
   <g id="patch_52">
    <path d="M 111.202326 696.719302 
C 114.839185 696.719302 118.327578 695.274363 120.899226 692.702715 
C 123.470874 690.131066 124.915814 686.642674 124.915814 683.005814 
C 124.915814 679.368954 123.470874 675.880561 120.899226 673.308913 
C 118.327578 670.737265 114.839185 669.292326 111.202326 669.292326 
C 107.565466 669.292326 104.077073 670.737265 101.505425 673.308913 
C 98.933777 675.880561 97.488837 679.368954 97.488837 683.005814 
C 97.488837 686.642674 98.933777 690.131066 101.505425 692.702715 
C 104.077073 695.274363 107.565466 696.719302 111.202326 696.719302 
z
" clip-path="url(#p7cf23c236b)" style="fill: #ffffff; stroke: #000000; stroke-width: 1.5; stroke-linejoin: miter"/>
   </g>
   <g id="patch_53">
    <path d="M 111.202326 743.247209 
C 114.839185 743.247209 118.327578 741.80227 120.899226 739.230622 
C 123.470874 736.658973 124.915814 733.170581 124.915814 729.533721 
C 124.915814 725.896861 123.470874 722.408468 120.899226 719.83682 
C 118.327578 717.265172 114.839185 715.820233 111.202326 715.820233 
C 107.565466 715.820233 104.077073 717.265172 101.505425 719.83682 
C 98.933777 722.408468 97.488837 725.896861 97.488837 729.533721 
C 97.488837 733.170581 98.933777 736.658973 101.505425 739.230622 
C 104.077073 741.80227 107.565466 743.247209 111.202326 743.247209 
z
" clip-path="url(#p7cf23c236b)" style="fill: #ffffff; stroke: #000000; stroke-width: 1.5; stroke-linejoin: miter"/>
   </g>
   <g id="patch_54">
    <path d="M 223.848837 696.719302 
C 227.485697 696.719302 230.97409 695.274363 233.545738 692.702715 
C 236.117386 690.131066 237.562326 686.642674 237.562326 683.005814 
C 237.562326 679.368954 236.117386 675.880561 233.545738 673.308913 
C 230.97409 670.737265 227.485697 669.292326 223.848837 669.292326 
C 220.211978 669.292326 216.723585 670.737265 214.151937 673.308913 
C 211.580288 675.880561 210.135349 679.368954 210.135349 683.005814 
C 210.135349 686.642674 211.580288 690.131066 214.151937 692.702715 
C 216.723585 695.274363 220.211978 696.719302 223.848837 696.719302 
z
" clip-path="url(#p7cf23c236b)" style="fill: #ffffff; stroke: #000000; stroke-width: 1.5; stroke-linejoin: miter"/>
   </g>
   <g id="patch_55">
    <path d="M 223.848837 743.247209 
C 227.485697 743.247209 230.97409 741.80227 233.545738 739.230622 
C 236.117386 736.658973 237.562326 733.170581 237.562326 729.533721 
C 237.562326 725.896861 236.117386 722.408468 233.545738 719.83682 
C 230.97409 717.265172 227.485697 715.820233 223.848837 715.820233 
C 220.211978 715.820233 216.723585 717.265172 214.151937 719.83682 
C 211.580288 722.408468 210.135349 725.896861 210.135349 729.533721 
C 210.135349 733.170581 211.580288 736.658973 214.151937 739.230622 
C 216.723585 741.80227 220.211978 743.247209 223.848837 743.247209 
z
" clip-path="url(#p7cf23c236b)" style="fill: #ffffff; stroke: #000000; stroke-width: 1.5; stroke-linejoin: miter"/>
   </g>
   <g id="patch_56">
    <path d="M 145.486047 789.775116 
C 149.122906 789.775116 152.611299 788.330177 155.182947 785.758529 
C 157.754595 783.18688 159.199535 779.698488 159.199535 776.061628 
C 159.199535 772.424768 157.754595 768.936375 155.182947 766.364727 
C 152.611299 763.793079 149.122906 762.34814 145.486047 762.34814 
C 141.849187 762.34814 138.360794 763.793079 135.789146 766.364727 
C 133.217498 768.936375 131.772558 772.424768 131.772558 776.061628 
C 131.772558 779.698488 133.217498 783.18688 135.789146 785.758529 
C 138.360794 788.330177 141.849187 789.775116 145.486047 789.775116 
z
" clip-path="url(#p7cf23c236b)" style="fill: #ffffff; stroke: #000000; stroke-width: 1.5; stroke-linejoin: miter"/>
   </g>
   <g id="patch_57">
    <path d="M 189.565116 789.775116 
C 193.201976 789.775116 196.690369 788.330177 199.262017 785.758529 
C 201.833665 783.18688 203.278605 779.698488 203.278605 776.061628 
C 203.278605 772.424768 201.833665 768.936375 199.262017 766.364727 
C 196.690369 763.793079 193.201976 762.34814 189.565116 762.34814 
C 185.928257 762.34814 182.439864 763.793079 179.868216 766.364727 
C 177.296568 768.936375 175.851628 772.424768 175.851628 776.061628 
C 175.851628 779.698488 177.296568 783.18688 179.868216 785.758529 
C 182.439864 788.330177 185.928257 789.775116 189.565116 789.775116 
z
" clip-path="url(#p7cf23c236b)" style="fill: #ffffff; stroke: #000000; stroke-width: 1.5; stroke-linejoin: miter"/>
   </g>
   <g id="patch_58">
    <path d="M 409.960465 650.191395 
C 413.597325 650.191395 417.085718 648.746456 419.657366 646.174808 
C 422.229014 643.603159 423.673953 640.114767 423.673953 636.477907 
C 423.673953 632.841047 422.229014 629.352654 419.657366 626.781006 
C 417.085718 624.209358 413.597325 622.764419 409.960465 622.764419 
C 406.323605 622.764419 402.835213 624.209358 400.263564 626.781006 
C 397.691916 629.352654 396.246977 632.841047 396.246977 636.477907 
C 396.246977 640.114767 397.691916 643.603159 400.263564 646.174808 
C 402.835213 648.746456 406.323605 650.191395 409.960465 650.191395 
z
" clip-path="url(#p7cf23c236b)" style="fill: #ffffff; stroke: #000000; stroke-width: 1.5; stroke-linejoin: miter"/>
   </g>
   <g id="patch_59">
    <path d="M 454.039535 650.191395 
C 457.676395 650.191395 461.164787 648.746456 463.736436 646.174808 
C 466.308084 643.603159 467.753023 640.114767 467.753023 636.477907 
C 467.753023 632.841047 466.308084 629.352654 463.736436 626.781006 
C 461.164787 624.209358 457.676395 622.764419 454.039535 622.764419 
C 450.402675 622.764419 446.914282 624.209358 444.342634 626.781006 
C 441.770986 629.352654 440.326047 632.841047 440.326047 636.477907 
C 440.326047 640.114767 441.770986 643.603159 444.342634 646.174808 
C 446.914282 648.746456 450.402675 650.191395 454.039535 650.191395 
z
" clip-path="url(#p7cf23c236b)" style="fill: #ffffff; stroke: #000000; stroke-width: 1.5; stroke-linejoin: miter"/>
   </g>
   <g id="patch_60">
    <path d="M 375.676744 696.719302 
C 379.313604 696.719302 382.801997 695.274363 385.373645 692.702715 
C 387.945293 690.131066 389.390233 686.642674 389.390233 683.005814 
C 389.390233 679.368954 387.945293 675.880561 385.373645 673.308913 
C 382.801997 670.737265 379.313604 669.292326 375.676744 669.292326 
C 372.039885 669.292326 368.551492 670.737265 365.979844 673.308913 
C 363.408195 675.880561 361.963256 679.368954 361.963256 683.005814 
C 361.963256 686.642674 363.408195 690.131066 365.979844 692.702715 
C 368.551492 695.274363 372.039885 696.719302 375.676744 696.719302 
z
" clip-path="url(#p7cf23c236b)" style="fill: #ffffff; stroke: #000000; stroke-width: 1.5; stroke-linejoin: miter"/>
   </g>
   <g id="patch_61">
    <path d="M 375.676744 743.247209 
C 379.313604 743.247209 382.801997 741.80227 385.373645 739.230622 
C 387.945293 736.658973 389.390233 733.170581 389.390233 729.533721 
C 389.390233 725.896861 387.945293 722.408468 385.373645 719.83682 
C 382.801997 717.265172 379.313604 715.820233 375.676744 715.820233 
C 372.039885 715.820233 368.551492 717.265172 365.979844 719.83682 
C 363.408195 722.408468 361.963256 725.896861 361.963256 729.533721 
C 361.963256 733.170581 363.408195 736.658973 365.979844 739.230622 
C 368.551492 741.80227 372.039885 743.247209 375.676744 743.247209 
z
" clip-path="url(#p7cf23c236b)" style="fill: #ffffff; stroke: #000000; stroke-width: 1.5; stroke-linejoin: miter"/>
   </g>
   <g id="patch_62">
    <path d="M 488.323256 696.719302 
C 491.960115 696.719302 495.448508 695.274363 498.020156 692.702715 
C 500.591805 690.131066 502.036744 686.642674 502.036744 683.005814 
C 502.036744 679.368954 500.591805 675.880561 498.020156 673.308913 
C 495.448508 670.737265 491.960115 669.292326 488.323256 669.292326 
C 484.686396 669.292326 481.198003 670.737265 478.626355 673.308913 
C 476.054707 675.880561 474.609767 679.368954 474.609767 683.005814 
C 474.609767 686.642674 476.054707 690.131066 478.626355 692.702715 
C 481.198003 695.274363 484.686396 696.719302 488.323256 696.719302 
z
" clip-path="url(#p7cf23c236b)" style="fill: #ffffff; stroke: #000000; stroke-width: 1.5; stroke-linejoin: miter"/>
   </g>
   <g id="patch_63">
    <path d="M 488.323256 743.247209 
C 491.960115 743.247209 495.448508 741.80227 498.020156 739.230622 
C 500.591805 736.658973 502.036744 733.170581 502.036744 729.533721 
C 502.036744 725.896861 500.591805 722.408468 498.020156 719.83682 
C 495.448508 717.265172 491.960115 715.820233 488.323256 715.820233 
C 484.686396 715.820233 481.198003 717.265172 478.626355 719.83682 
C 476.054707 722.408468 474.609767 725.896861 474.609767 729.533721 
C 474.609767 733.170581 476.054707 736.658973 478.626355 739.230622 
C 481.198003 741.80227 484.686396 743.247209 488.323256 743.247209 
z
" clip-path="url(#p7cf23c236b)" style="fill: #ffffff; stroke: #000000; stroke-width: 1.5; stroke-linejoin: miter"/>
   </g>
   <g id="patch_64">
    <path d="M 409.960465 789.775116 
C 413.597325 789.775116 417.085718 788.330177 419.657366 785.758529 
C 422.229014 783.18688 423.673953 779.698488 423.673953 776.061628 
C 423.673953 772.424768 422.229014 768.936375 419.657366 766.364727 
C 417.085718 763.793079 413.597325 762.34814 409.960465 762.34814 
C 406.323605 762.34814 402.835213 763.793079 400.263564 766.364727 
C 397.691916 768.936375 396.246977 772.424768 396.246977 776.061628 
C 396.246977 779.698488 397.691916 783.18688 400.263564 785.758529 
C 402.835213 788.330177 406.323605 789.775116 409.960465 789.775116 
z
" clip-path="url(#p7cf23c236b)" style="fill: #ffffff; stroke: #000000; stroke-width: 1.5; stroke-linejoin: miter"/>
   </g>
   <g id="patch_65">
    <path d="M 454.039535 789.775116 
C 457.676395 789.775116 461.164787 788.330177 463.736436 785.758529 
C 466.308084 783.18688 467.753023 779.698488 467.753023 776.061628 
C 467.753023 772.424768 466.308084 768.936375 463.736436 766.364727 
C 461.164787 763.793079 457.676395 762.34814 454.039535 762.34814 
C 450.402675 762.34814 446.914282 763.793079 444.342634 766.364727 
C 441.770986 768.936375 440.326047 772.424768 440.326047 776.061628 
C 440.326047 779.698488 441.770986 783.18688 444.342634 785.758529 
C 446.914282 788.330177 450.402675 789.775116 454.039535 789.775116 
z
" clip-path="url(#p7cf23c236b)" style="fill: #ffffff; stroke: #000000; stroke-width: 1.5; stroke-linejoin: miter"/>
   </g>
   <g id="patch_66">
    <path d="M 674.434884 650.191395 
C 678.071743 650.191395 681.560136 648.746456 684.131784 646.174808 
C 686.703432 643.603159 688.148372 640.114767 688.148372 636.477907 
C 688.148372 632.841047 686.703432 629.352654 684.131784 626.781006 
C 681.560136 624.209358 678.071743 622.764419 674.434884 622.764419 
C 670.798024 622.764419 667.309631 624.209358 664.737983 626.781006 
C 662.166335 629.352654 660.721395 632.841047 660.721395 636.477907 
C 660.721395 640.114767 662.166335 643.603159 664.737983 646.174808 
C 667.309631 648.746456 670.798024 650.191395 674.434884 650.191395 
z
" clip-path="url(#p7cf23c236b)" style="fill: #ffffff; stroke: #000000; stroke-width: 1.5; stroke-linejoin: miter"/>
   </g>
   <g id="patch_67">
    <path d="M 718.513953 650.191395 
C 722.150813 650.191395 725.639206 648.746456 728.210854 646.174808 
C 730.782502 643.603159 732.227442 640.114767 732.227442 636.477907 
C 732.227442 632.841047 730.782502 629.352654 728.210854 626.781006 
C 725.639206 624.209358 722.150813 622.764419 718.513953 622.764419 
C 714.877094 622.764419 711.388701 624.209358 708.817053 626.781006 
C 706.245405 629.352654 704.800465 632.841047 704.800465 636.477907 
C 704.800465 640.114767 706.245405 643.603159 708.817053 646.174808 
C 711.388701 648.746456 714.877094 650.191395 718.513953 650.191395 
z
" clip-path="url(#p7cf23c236b)" style="fill: #ffffff; stroke: #000000; stroke-width: 1.5; stroke-linejoin: miter"/>
   </g>
   <g id="patch_68">
    <path d="M 640.151163 696.719302 
C 643.788022 696.719302 647.276415 695.274363 649.848063 692.702715 
C 652.419712 690.131066 653.864651 686.642674 653.864651 683.005814 
C 653.864651 679.368954 652.419712 675.880561 649.848063 673.308913 
C 647.276415 670.737265 643.788022 669.292326 640.151163 669.292326 
C 636.514303 669.292326 633.02591 670.737265 630.454262 673.308913 
C 627.882614 675.880561 626.437674 679.368954 626.437674 683.005814 
C 626.437674 686.642674 627.882614 690.131066 630.454262 692.702715 
C 633.02591 695.274363 636.514303 696.719302 640.151163 696.719302 
z
" clip-path="url(#p7cf23c236b)" style="fill: #ffffff; stroke: #000000; stroke-width: 1.5; stroke-linejoin: miter"/>
   </g>
   <g id="patch_69">
    <path d="M 640.151163 743.247209 
C 643.788022 743.247209 647.276415 741.80227 649.848063 739.230622 
C 652.419712 736.658973 653.864651 733.170581 653.864651 729.533721 
C 653.864651 725.896861 652.419712 722.408468 649.848063 719.83682 
C 647.276415 717.265172 643.788022 715.820233 640.151163 715.820233 
C 636.514303 715.820233 633.02591 717.265172 630.454262 719.83682 
C 627.882614 722.408468 626.437674 725.896861 626.437674 729.533721 
C 626.437674 733.170581 627.882614 736.658973 630.454262 739.230622 
C 633.02591 741.80227 636.514303 743.247209 640.151163 743.247209 
z
" clip-path="url(#p7cf23c236b)" style="fill: #ffffff; stroke: #000000; stroke-width: 1.5; stroke-linejoin: miter"/>
   </g>
   <g id="patch_70">
    <path d="M 752.797674 696.719302 
C 756.434534 696.719302 759.922927 695.274363 762.494575 692.702715 
C 765.066223 690.131066 766.511163 686.642674 766.511163 683.005814 
C 766.511163 679.368954 765.066223 675.880561 762.494575 673.308913 
C 759.922927 670.737265 756.434534 669.292326 752.797674 669.292326 
C 749.160815 669.292326 745.672422 670.737265 743.100774 673.308913 
C 740.529126 675.880561 739.084186 679.368954 739.084186 683.005814 
C 739.084186 686.642674 740.529126 690.131066 743.100774 692.702715 
C 745.672422 695.274363 749.160815 696.719302 752.797674 696.719302 
z
" clip-path="url(#p7cf23c236b)" style="fill: #ffffff; stroke: #000000; stroke-width: 1.5; stroke-linejoin: miter"/>
   </g>
   <g id="patch_71">
    <path d="M 752.797674 743.247209 
C 756.434534 743.247209 759.922927 741.80227 762.494575 739.230622 
C 765.066223 736.658973 766.511163 733.170581 766.511163 729.533721 
C 766.511163 725.896861 765.066223 722.408468 762.494575 719.83682 
C 759.922927 717.265172 756.434534 715.820233 752.797674 715.820233 
C 749.160815 715.820233 745.672422 717.265172 743.100774 719.83682 
C 740.529126 722.408468 739.084186 725.896861 739.084186 729.533721 
C 739.084186 733.170581 740.529126 736.658973 743.100774 739.230622 
C 745.672422 741.80227 749.160815 743.247209 752.797674 743.247209 
z
" clip-path="url(#p7cf23c236b)" style="fill: #ffffff; stroke: #000000; stroke-width: 1.5; stroke-linejoin: miter"/>
   </g>
   <g id="patch_72">
    <path d="M 674.434884 789.775116 
C 678.071743 789.775116 681.560136 788.330177 684.131784 785.758529 
C 686.703432 783.18688 688.148372 779.698488 688.148372 776.061628 
C 688.148372 772.424768 686.703432 768.936375 684.131784 766.364727 
C 681.560136 763.793079 678.071743 762.34814 674.434884 762.34814 
C 670.798024 762.34814 667.309631 763.793079 664.737983 766.364727 
C 662.166335 768.936375 660.721395 772.424768 660.721395 776.061628 
C 660.721395 779.698488 662.166335 783.18688 664.737983 785.758529 
C 667.309631 788.330177 670.798024 789.775116 674.434884 789.775116 
z
" clip-path="url(#p7cf23c236b)" style="fill: #ffffff; stroke: #000000; stroke-width: 1.5; stroke-linejoin: miter"/>
   </g>
   <g id="patch_73">
    <path d="M 718.513953 789.775116 
C 722.150813 789.775116 725.639206 788.330177 728.210854 785.758529 
C 730.782502 783.18688 732.227442 779.698488 732.227442 776.061628 
C 732.227442 772.424768 730.782502 768.936375 728.210854 766.364727 
C 725.639206 763.793079 722.150813 762.34814 718.513953 762.34814 
C 714.877094 762.34814 711.388701 763.793079 708.817053 766.364727 
C 706.245405 768.936375 704.800465 772.424768 704.800465 776.061628 
C 704.800465 779.698488 706.245405 783.18688 708.817053 785.758529 
C 711.388701 788.330177 714.877094 789.775116 718.513953 789.775116 
z
" clip-path="url(#p7cf23c236b)" style="fill: #ffffff; stroke: #000000; stroke-width: 1.5; stroke-linejoin: miter"/>
   </g>
   <g id="line2d_1">
    <path d="M 145.486047 87.938372 
L 189.565116 87.938372 
" clip-path="url(#p7cf23c236b)" style="fill: none; stroke: #000000; stroke-width: 1.5; stroke-linecap: square"/>
   </g>
   <g id="line2d_2">
    <path d="M 111.202326 134.466279 
L 111.202326 180.994186 
" clip-path="url(#p7cf23c236b)" style="fill: none; stroke: #000000; stroke-width: 1.5; stroke-linecap: square"/>
   </g>
   <g id="line2d_3">
    <path d="M 223.848837 134.466279 
L 223.848837 180.994186 
" clip-path="url(#p7cf23c236b)" style="fill: none; stroke: #000000; stroke-width: 1.5; stroke-linecap: square"/>
   </g>
   <g id="line2d_4">
    <path d="M 145.486047 227.522093 
L 189.565116 227.522093 
" clip-path="url(#p7cf23c236b)" style="fill: none; stroke: #000000; stroke-width: 1.5; stroke-linecap: square"/>
   </g>
   <g id="line2d_5">
    <path d="M 409.960465 87.938372 
L 454.039535 87.938372 
" clip-path="url(#p7cf23c236b)" style="fill: none; stroke: #000000; stroke-width: 1.5; stroke-linecap: square"/>
   </g>
   <g id="line2d_6">
    <path d="M 375.676744 134.466279 
L 375.676744 180.994186 
" clip-path="url(#p7cf23c236b)" style="fill: none; stroke: #000000; stroke-width: 1.5; stroke-linecap: square"/>
   </g>
   <g id="line2d_7">
    <path d="M 488.323256 134.466279 
L 488.323256 180.994186 
" clip-path="url(#p7cf23c236b)" style="fill: none; stroke: #000000; stroke-width: 1.5; stroke-linecap: square"/>
   </g>
   <g id="line2d_8">
    <path d="M 409.960465 227.522093 
L 454.039535 227.522093 
" clip-path="url(#p7cf23c236b)" style="fill: none; stroke: #000000; stroke-width: 1.5; stroke-linecap: square"/>
   </g>
   <g id="line2d_9">
    <path d="M 674.434884 87.938372 
L 718.513953 87.938372 
" clip-path="url(#p7cf23c236b)" style="fill: none; stroke: #000000; stroke-width: 1.5; stroke-linecap: square"/>
   </g>
   <g id="line2d_10">
    <path d="M 640.151163 134.466279 
L 640.151163 180.994186 
" clip-path="url(#p7cf23c236b)" style="fill: none; stroke: #000000; stroke-width: 1.5; stroke-linecap: square"/>
   </g>
   <g id="line2d_11">
    <path d="M 752.797674 134.466279 
L 752.797674 180.994186 
" clip-path="url(#p7cf23c236b)" style="fill: none; stroke: #000000; stroke-width: 1.5; stroke-linecap: square"/>
   </g>
   <g id="line2d_12">
    <path d="M 674.434884 227.522093 
L 718.513953 227.522093 
" clip-path="url(#p7cf23c236b)" style="fill: none; stroke: #000000; stroke-width: 1.5; stroke-linecap: square"/>
   </g>
   <g id="line2d_13">
    <path d="M 145.486047 362.20814 
L 189.565116 362.20814 
" clip-path="url(#p7cf23c236b)" style="fill: none; stroke: #000000; stroke-width: 1.5; stroke-linecap: square"/>
   </g>
   <g id="line2d_14">
    <path d="M 111.202326 408.736047 
L 111.202326 455.263953 
" clip-path="url(#p7cf23c236b)" style="fill: none; stroke: #000000; stroke-width: 1.5; stroke-linecap: square"/>
   </g>
   <g id="line2d_15">
    <path d="M 223.848837 408.736047 
L 223.848837 455.263953 
" clip-path="url(#p7cf23c236b)" style="fill: none; stroke: #000000; stroke-width: 1.5; stroke-linecap: square"/>
   </g>
   <g id="line2d_16">
    <path d="M 145.486047 501.79186 
L 189.565116 501.79186 
" clip-path="url(#p7cf23c236b)" style="fill: none; stroke: #000000; stroke-width: 1.5; stroke-linecap: square"/>
   </g>
   <g id="line2d_17">
    <path d="M 409.960465 362.20814 
L 454.039535 362.20814 
" clip-path="url(#p7cf23c236b)" style="fill: none; stroke: #000000; stroke-width: 1.5; stroke-linecap: square"/>
   </g>
   <g id="line2d_18">
    <path d="M 375.676744 408.736047 
L 375.676744 455.263953 
" clip-path="url(#p7cf23c236b)" style="fill: none; stroke: #000000; stroke-width: 1.5; stroke-linecap: square"/>
   </g>
   <g id="line2d_19">
    <path d="M 488.323256 408.736047 
L 488.323256 455.263953 
" clip-path="url(#p7cf23c236b)" style="fill: none; stroke: #000000; stroke-width: 1.5; stroke-linecap: square"/>
   </g>
   <g id="line2d_20">
    <path d="M 409.960465 501.79186 
L 454.039535 501.79186 
" clip-path="url(#p7cf23c236b)" style="fill: none; stroke: #000000; stroke-width: 1.5; stroke-linecap: square"/>
   </g>
   <g id="line2d_21">
    <path d="M 674.434884 362.20814 
L 718.513953 362.20814 
" clip-path="url(#p7cf23c236b)" style="fill: none; stroke: #000000; stroke-width: 1.5; stroke-linecap: square"/>
   </g>
   <g id="line2d_22">
    <path d="M 640.151163 408.736047 
L 640.151163 455.263953 
" clip-path="url(#p7cf23c236b)" style="fill: none; stroke: #000000; stroke-width: 1.5; stroke-linecap: square"/>
   </g>
   <g id="line2d_23">
    <path d="M 752.797674 408.736047 
L 752.797674 455.263953 
" clip-path="url(#p7cf23c236b)" style="fill: none; stroke: #000000; stroke-width: 1.5; stroke-linecap: square"/>
   </g>
   <g id="line2d_24">
    <path d="M 674.434884 501.79186 
L 718.513953 501.79186 
" clip-path="url(#p7cf23c236b)" style="fill: none; stroke: #000000; stroke-width: 1.5; stroke-linecap: square"/>
   </g>
   <g id="line2d_25">
    <path d="M 145.486047 636.477907 
L 189.565116 636.477907 
" clip-path="url(#p7cf23c236b)" style="fill: none; stroke: #000000; stroke-width: 1.5; stroke-linecap: square"/>
   </g>
   <g id="line2d_26">
    <path d="M 111.202326 683.005814 
L 111.202326 729.533721 
" clip-path="url(#p7cf23c236b)" style="fill: none; stroke: #000000; stroke-width: 1.5; stroke-linecap: square"/>
   </g>
   <g id="line2d_27">
    <path d="M 223.848837 683.005814 
L 223.848837 729.533721 
" clip-path="url(#p7cf23c236b)" style="fill: none; stroke: #000000; stroke-width: 1.5; stroke-linecap: square"/>
   </g>
   <g id="line2d_28">
    <path d="M 145.486047 776.061628 
L 189.565116 776.061628 
" clip-path="url(#p7cf23c236b)" style="fill: none; stroke: #000000; stroke-width: 1.5; stroke-linecap: square"/>
   </g>
   <g id="line2d_29">
    <path d="M 409.960465 636.477907 
L 454.039535 636.477907 
" clip-path="url(#p7cf23c236b)" style="fill: none; stroke: #000000; stroke-width: 1.5; stroke-linecap: square"/>
   </g>
   <g id="line2d_30">
    <path d="M 375.676744 683.005814 
L 375.676744 729.533721 
" clip-path="url(#p7cf23c236b)" style="fill: none; stroke: #000000; stroke-width: 1.5; stroke-linecap: square"/>
   </g>
   <g id="line2d_31">
    <path d="M 488.323256 683.005814 
L 488.323256 729.533721 
" clip-path="url(#p7cf23c236b)" style="fill: none; stroke: #000000; stroke-width: 1.5; stroke-linecap: square"/>
   </g>
   <g id="line2d_32">
    <path d="M 409.960465 776.061628 
L 454.039535 776.061628 
" clip-path="url(#p7cf23c236b)" style="fill: none; stroke: #000000; stroke-width: 1.5; stroke-linecap: square"/>
   </g>
   <g id="line2d_33">
    <path d="M 674.434884 636.477907 
L 718.513953 636.477907 
" clip-path="url(#p7cf23c236b)" style="fill: none; stroke: #000000; stroke-width: 1.5; stroke-linecap: square"/>
   </g>
   <g id="line2d_34">
    <path d="M 640.151163 683.005814 
L 640.151163 729.533721 
" clip-path="url(#p7cf23c236b)" style="fill: none; stroke: #000000; stroke-width: 1.5; stroke-linecap: square"/>
   </g>
   <g id="line2d_35">
    <path d="M 752.797674 683.005814 
L 752.797674 729.533721 
" clip-path="url(#p7cf23c236b)" style="fill: none; stroke: #000000; stroke-width: 1.5; stroke-linecap: square"/>
   </g>
   <g id="line2d_36">
    <path d="M 674.434884 776.061628 
L 718.513953 776.061628 
" clip-path="url(#p7cf23c236b)" style="fill: none; stroke: #000000; stroke-width: 1.5; stroke-linecap: square"/>
   </g>
   <g id="text_1">
    <!-- 5 -->
    <g transform="translate(141.986672 90.973685) scale(0.11 -0.11)">
     <defs>
      <path id="DejaVuSans-35" d="M 691 4666 
L 3169 4666 
L 3169 4134 
L 1269 4134 
L 1269 2991 
Q 1406 3038 1543 3061 
Q 1681 3084 1819 3084 
Q 2600 3084 3056 2656 
Q 3513 2228 3513 1497 
Q 3513 744 3044 326 
Q 2575 -91 1722 -91 
Q 1428 -91 1123 -41 
Q 819 9 494 109 
L 494 744 
Q 775 591 1075 516 
Q 1375 441 1709 441 
Q 2250 441 2565 725 
Q 2881 1009 2881 1497 
Q 2881 1984 2565 2268 
Q 2250 2553 1709 2553 
Q 1456 2553 1204 2497 
Q 953 2441 691 2322 
L 691 4666 
z
" transform="scale(0.015625)"/>
     </defs>
     <use xlink:href="#DejaVuSans-35"/>
    </g>
   </g>
   <g id="text_2">
    <!-- 68 -->
    <g transform="translate(182.566366 90.973685) scale(0.11 -0.11)">
     <defs>
      <path id="DejaVuSans-36" d="M 2113 2584 
Q 1688 2584 1439 2293 
Q 1191 2003 1191 1497 
Q 1191 994 1439 701 
Q 1688 409 2113 409 
Q 2538 409 2786 701 
Q 3034 994 3034 1497 
Q 3034 2003 2786 2293 
Q 2538 2584 2113 2584 
z
M 3366 4563 
L 3366 3988 
Q 3128 4100 2886 4159 
Q 2644 4219 2406 4219 
Q 1781 4219 1451 3797 
Q 1122 3375 1075 2522 
Q 1259 2794 1537 2939 
Q 1816 3084 2150 3084 
Q 2853 3084 3261 2657 
Q 3669 2231 3669 1497 
Q 3669 778 3244 343 
Q 2819 -91 2113 -91 
Q 1303 -91 875 529 
Q 447 1150 447 2328 
Q 447 3434 972 4092 
Q 1497 4750 2381 4750 
Q 2619 4750 2861 4703 
Q 3103 4656 3366 4563 
z
" transform="scale(0.015625)"/>
      <path id="DejaVuSans-38" d="M 2034 2216 
Q 1584 2216 1326 1975 
Q 1069 1734 1069 1313 
Q 1069 891 1326 650 
Q 1584 409 2034 409 
Q 2484 409 2743 651 
Q 3003 894 3003 1313 
Q 3003 1734 2745 1975 
Q 2488 2216 2034 2216 
z
M 1403 2484 
Q 997 2584 770 2862 
Q 544 3141 544 3541 
Q 544 4100 942 4425 
Q 1341 4750 2034 4750 
Q 2731 4750 3128 4425 
Q 3525 4100 3525 3541 
Q 3525 3141 3298 2862 
Q 3072 2584 2669 2484 
Q 3125 2378 3379 2068 
Q 3634 1759 3634 1313 
Q 3634 634 3220 271 
Q 2806 -91 2034 -91 
Q 1263 -91 848 271 
Q 434 634 434 1313 
Q 434 1759 690 2068 
Q 947 2378 1403 2484 
z
M 1172 3481 
Q 1172 3119 1398 2916 
Q 1625 2713 2034 2713 
Q 2441 2713 2670 2916 
Q 2900 3119 2900 3481 
Q 2900 3844 2670 4047 
Q 2441 4250 2034 4250 
Q 1625 4250 1398 4047 
Q 1172 3844 1172 3481 
z
" transform="scale(0.015625)"/>
     </defs>
     <use xlink:href="#DejaVuSans-36"/>
     <use xlink:href="#DejaVuSans-38" transform="translate(63.623047 0)"/>
    </g>
   </g>
   <g id="text_3">
    <!-- 33 -->
    <g transform="translate(104.203576 137.501592) scale(0.11 -0.11)">
     <defs>
      <path id="DejaVuSans-33" d="M 2597 2516 
Q 3050 2419 3304 2112 
Q 3559 1806 3559 1356 
Q 3559 666 3084 287 
Q 2609 -91 1734 -91 
Q 1441 -91 1130 -33 
Q 819 25 488 141 
L 488 750 
Q 750 597 1062 519 
Q 1375 441 1716 441 
Q 2309 441 2620 675 
Q 2931 909 2931 1356 
Q 2931 1769 2642 2001 
Q 2353 2234 1838 2234 
L 1294 2234 
L 1294 2753 
L 1863 2753 
Q 2328 2753 2575 2939 
Q 2822 3125 2822 3475 
Q 2822 3834 2567 4026 
Q 2313 4219 1838 4219 
Q 1578 4219 1281 4162 
Q 984 4106 628 3988 
L 628 4550 
Q 988 4650 1302 4700 
Q 1616 4750 1894 4750 
Q 2613 4750 3031 4423 
Q 3450 4097 3450 3541 
Q 3450 3153 3228 2886 
Q 3006 2619 2597 2516 
z
" transform="scale(0.015625)"/>
     </defs>
     <use xlink:href="#DejaVuSans-33"/>
     <use xlink:href="#DejaVuSans-33" transform="translate(63.623047 0)"/>
    </g>
   </g>
   <g id="text_4">
    <!-- 45 -->
    <g transform="translate(104.203576 184.029499) scale(0.11 -0.11)">
     <defs>
      <path id="DejaVuSans-34" d="M 2419 4116 
L 825 1625 
L 2419 1625 
L 2419 4116 
z
M 2253 4666 
L 3047 4666 
L 3047 1625 
L 3713 1625 
L 3713 1100 
L 3047 1100 
L 3047 0 
L 2419 0 
L 2419 1100 
L 313 1100 
L 313 1709 
L 2253 4666 
z
" transform="scale(0.015625)"/>
     </defs>
     <use xlink:href="#DejaVuSans-34"/>
     <use xlink:href="#DejaVuSans-35" transform="translate(63.623047 0)"/>
    </g>
   </g>
   <g id="text_5">
    <!-- 41 -->
    <g transform="translate(216.850087 137.501592) scale(0.11 -0.11)">
     <defs>
      <path id="DejaVuSans-31" d="M 794 531 
L 1825 531 
L 1825 4091 
L 703 3866 
L 703 4441 
L 1819 4666 
L 2450 4666 
L 2450 531 
L 3481 531 
L 3481 0 
L 794 0 
L 794 531 
z
" transform="scale(0.015625)"/>
     </defs>
     <use xlink:href="#DejaVuSans-34"/>
     <use xlink:href="#DejaVuSans-31" transform="translate(63.623047 0)"/>
    </g>
   </g>
   <g id="text_6">
    <!-- 31 -->
    <g transform="translate(216.850087 184.029499) scale(0.11 -0.11)">
     <use xlink:href="#DejaVuSans-33"/>
     <use xlink:href="#DejaVuSans-31" transform="translate(63.623047 0)"/>
    </g>
   </g>
   <g id="text_7">
    <!-- 67 -->
    <g transform="translate(138.487297 230.557406) scale(0.11 -0.11)">
     <defs>
      <path id="DejaVuSans-37" d="M 525 4666 
L 3525 4666 
L 3525 4397 
L 1831 0 
L 1172 0 
L 2766 4134 
L 525 4134 
L 525 4666 
z
" transform="scale(0.015625)"/>
     </defs>
     <use xlink:href="#DejaVuSans-36"/>
     <use xlink:href="#DejaVuSans-37" transform="translate(63.623047 0)"/>
    </g>
   </g>
   <g id="text_8">
    <!-- 6 -->
    <g transform="translate(186.065741 230.557406) scale(0.11 -0.11)">
     <use xlink:href="#DejaVuSans-36"/>
    </g>
   </g>
   <g id="text_9">
    <!-- 73 -->
    <g transform="translate(159.254331 57.327907) scale(0.13 -0.13)">
     <use xlink:href="#DejaVuSans-37"/>
     <use xlink:href="#DejaVuSans-33" transform="translate(63.623047 0)"/>
    </g>
   </g>
   <g id="text_10">
    <!-- 74 -->
    <g style="fill: #0000ff" transform="translate(78.442703 157.730233) scale(0.13 -0.13)">
     <use xlink:href="#DejaVuSans-37"/>
     <use xlink:href="#DejaVuSans-34" transform="translate(63.623047 0)"/>
    </g>
   </g>
   <g id="text_11">
    <!-- 72 -->
    <g style="fill: #ff0000" transform="translate(240.065959 157.730233) scale(0.13 -0.13)">
     <defs>
      <path id="DejaVuSans-32" d="M 1228 531 
L 3431 531 
L 3431 0 
L 469 0 
L 469 531 
Q 828 903 1448 1529 
Q 2069 2156 2228 2338 
Q 2531 2678 2651 2914 
Q 2772 3150 2772 3378 
Q 2772 3750 2511 3984 
Q 2250 4219 1831 4219 
Q 1534 4219 1204 4116 
Q 875 4013 500 3803 
L 500 4441 
Q 881 4594 1212 4672 
Q 1544 4750 1819 4750 
Q 2544 4750 2975 4387 
Q 3406 4025 3406 3419 
Q 3406 3131 3298 2873 
Q 3191 2616 2906 2266 
Q 2828 2175 2409 1742 
Q 1991 1309 1228 531 
z
" transform="scale(0.015625)"/>
     </defs>
     <use xlink:href="#DejaVuSans-37"/>
     <use xlink:href="#DejaVuSans-32" transform="translate(63.623047 0)"/>
    </g>
   </g>
   <g id="text_12">
    <!-- 73 -->
    <g transform="translate(159.254331 258.132558) scale(0.13 -0.13)">
     <use xlink:href="#DejaVuSans-37"/>
     <use xlink:href="#DejaVuSans-33" transform="translate(63.623047 0)"/>
    </g>
   </g>
   <g id="text_13">
    <!-- 3 -->
    <g transform="translate(406.46109 90.973685) scale(0.11 -0.11)">
     <use xlink:href="#DejaVuSans-33"/>
    </g>
   </g>
   <g id="text_14">
    <!-- 70 -->
    <g transform="translate(447.040785 90.973685) scale(0.11 -0.11)">
     <defs>
      <path id="DejaVuSans-30" d="M 2034 4250 
Q 1547 4250 1301 3770 
Q 1056 3291 1056 2328 
Q 1056 1369 1301 889 
Q 1547 409 2034 409 
Q 2525 409 2770 889 
Q 3016 1369 3016 2328 
Q 3016 3291 2770 3770 
Q 2525 4250 2034 4250 
z
M 2034 4750 
Q 2819 4750 3233 4129 
Q 3647 3509 3647 2328 
Q 3647 1150 3233 529 
Q 2819 -91 2034 -91 
Q 1250 -91 836 529 
Q 422 1150 422 2328 
Q 422 3509 836 4129 
Q 1250 4750 2034 4750 
z
" transform="scale(0.015625)"/>
     </defs>
     <use xlink:href="#DejaVuSans-37"/>
     <use xlink:href="#DejaVuSans-30" transform="translate(63.623047 0)"/>
    </g>
   </g>
   <g id="text_15">
    <!-- 34 -->
    <g transform="translate(368.677994 137.501592) scale(0.11 -0.11)">
     <use xlink:href="#DejaVuSans-33"/>
     <use xlink:href="#DejaVuSans-34" transform="translate(63.623047 0)"/>
    </g>
   </g>
   <g id="text_16">
    <!-- 40 -->
    <g transform="translate(368.677994 184.029499) scale(0.11 -0.11)">
     <use xlink:href="#DejaVuSans-34"/>
     <use xlink:href="#DejaVuSans-30" transform="translate(63.623047 0)"/>
    </g>
   </g>
   <g id="text_17">
    <!-- 39 -->
    <g transform="translate(481.324506 137.501592) scale(0.11 -0.11)">
     <defs>
      <path id="DejaVuSans-39" d="M 703 97 
L 703 672 
Q 941 559 1184 500 
Q 1428 441 1663 441 
Q 2288 441 2617 861 
Q 2947 1281 2994 2138 
Q 2813 1869 2534 1725 
Q 2256 1581 1919 1581 
Q 1219 1581 811 2004 
Q 403 2428 403 3163 
Q 403 3881 828 4315 
Q 1253 4750 1959 4750 
Q 2769 4750 3195 4129 
Q 3622 3509 3622 2328 
Q 3622 1225 3098 567 
Q 2575 -91 1691 -91 
Q 1453 -91 1209 -44 
Q 966 3 703 97 
z
M 1959 2075 
Q 2384 2075 2632 2365 
Q 2881 2656 2881 3163 
Q 2881 3666 2632 3958 
Q 2384 4250 1959 4250 
Q 1534 4250 1286 3958 
Q 1038 3666 1038 3163 
Q 1038 2656 1286 2365 
Q 1534 2075 1959 2075 
z
" transform="scale(0.015625)"/>
     </defs>
     <use xlink:href="#DejaVuSans-33"/>
     <use xlink:href="#DejaVuSans-39" transform="translate(63.623047 0)"/>
    </g>
   </g>
   <g id="text_18">
    <!-- 33 -->
    <g transform="translate(481.324506 184.029499) scale(0.11 -0.11)">
     <use xlink:href="#DejaVuSans-33"/>
     <use xlink:href="#DejaVuSans-33" transform="translate(63.623047 0)"/>
    </g>
   </g>
   <g id="text_19">
    <!-- 64 -->
    <g transform="translate(402.961715 230.557406) scale(0.11 -0.11)">
     <use xlink:href="#DejaVuSans-36"/>
     <use xlink:href="#DejaVuSans-34" transform="translate(63.623047 0)"/>
    </g>
   </g>
   <g id="text_20">
    <!-- 4 -->
    <g transform="translate(450.54016 230.557406) scale(0.11 -0.11)">
     <use xlink:href="#DejaVuSans-34"/>
    </g>
   </g>
   <g id="text_21">
    <!-- 73 -->
    <g transform="translate(423.72875 57.327907) scale(0.13 -0.13)">
     <use xlink:href="#DejaVuSans-37"/>
     <use xlink:href="#DejaVuSans-33" transform="translate(63.623047 0)"/>
    </g>
   </g>
   <g id="text_22">
    <!-- 74 -->
    <g style="fill: #0000ff" transform="translate(342.917122 157.730233) scale(0.13 -0.13)">
     <use xlink:href="#DejaVuSans-37"/>
     <use xlink:href="#DejaVuSans-34" transform="translate(63.623047 0)"/>
    </g>
   </g>
   <g id="text_23">
    <!-- 72 -->
    <g style="fill: #ff0000" transform="translate(504.540378 157.730233) scale(0.13 -0.13)">
     <use xlink:href="#DejaVuSans-37"/>
     <use xlink:href="#DejaVuSans-32" transform="translate(63.623047 0)"/>
    </g>
   </g>
   <g id="text_24">
    <!-- 73 -->
    <g transform="translate(423.72875 258.132558) scale(0.13 -0.13)">
     <use xlink:href="#DejaVuSans-37"/>
     <use xlink:href="#DejaVuSans-33" transform="translate(63.623047 0)"/>
    </g>
   </g>
   <g id="text_25">
    <!-- 73 -->
    <g transform="translate(667.436134 90.973685) scale(0.11 -0.11)">
     <use xlink:href="#DejaVuSans-37"/>
     <use xlink:href="#DejaVuSans-33" transform="translate(63.623047 0)"/>
    </g>
   </g>
   <g id="text_26">
    <!-- 1 -->
    <g transform="translate(715.014578 90.973685) scale(0.11 -0.11)">
     <use xlink:href="#DejaVuSans-31"/>
    </g>
   </g>
   <g id="text_27">
    <!-- 36 -->
    <g transform="translate(633.152413 137.501592) scale(0.11 -0.11)">
     <use xlink:href="#DejaVuSans-33"/>
     <use xlink:href="#DejaVuSans-36" transform="translate(63.623047 0)"/>
    </g>
   </g>
   <g id="text_28">
    <!-- 38 -->
    <g transform="translate(633.152413 184.029499) scale(0.11 -0.11)">
     <use xlink:href="#DejaVuSans-33"/>
     <use xlink:href="#DejaVuSans-38" transform="translate(63.623047 0)"/>
    </g>
   </g>
   <g id="text_29">
    <!-- 37 -->
    <g transform="translate(745.798924 137.501592) scale(0.11 -0.11)">
     <use xlink:href="#DejaVuSans-33"/>
     <use xlink:href="#DejaVuSans-37" transform="translate(63.623047 0)"/>
    </g>
   </g>
   <g id="text_30">
    <!-- 35 -->
    <g transform="translate(745.798924 184.029499) scale(0.11 -0.11)">
     <use xlink:href="#DejaVuSans-33"/>
     <use xlink:href="#DejaVuSans-35" transform="translate(63.623047 0)"/>
    </g>
   </g>
   <g id="text_31">
    <!-- 71 -->
    <g transform="translate(667.436134 230.557406) scale(0.11 -0.11)">
     <use xlink:href="#DejaVuSans-37"/>
     <use xlink:href="#DejaVuSans-31" transform="translate(63.623047 0)"/>
    </g>
   </g>
   <g id="text_32">
    <!-- 2 -->
    <g transform="translate(715.014578 230.557406) scale(0.11 -0.11)">
     <use xlink:href="#DejaVuSans-32"/>
    </g>
   </g>
   <g id="text_33">
    <!-- 74 -->
    <g transform="translate(688.203169 57.327907) scale(0.13 -0.13)">
     <use xlink:href="#DejaVuSans-37"/>
     <use xlink:href="#DejaVuSans-34" transform="translate(63.623047 0)"/>
    </g>
   </g>
   <g id="text_34">
    <!-- 74 -->
    <g style="fill: #0000ff" transform="translate(607.391541 157.730233) scale(0.13 -0.13)">
     <use xlink:href="#DejaVuSans-37"/>
     <use xlink:href="#DejaVuSans-34" transform="translate(63.623047 0)"/>
    </g>
   </g>
   <g id="text_35">
    <!-- 72 -->
    <g style="fill: #ff0000" transform="translate(769.014797 157.730233) scale(0.13 -0.13)">
     <use xlink:href="#DejaVuSans-37"/>
     <use xlink:href="#DejaVuSans-32" transform="translate(63.623047 0)"/>
    </g>
   </g>
   <g id="text_36">
    <!-- 73 -->
    <g transform="translate(688.203169 258.132558) scale(0.13 -0.13)">
     <use xlink:href="#DejaVuSans-37"/>
     <use xlink:href="#DejaVuSans-33" transform="translate(63.623047 0)"/>
    </g>
   </g>
   <g id="text_37">
    <!-- 18 -->
    <g transform="translate(138.487297 365.243452) scale(0.11 -0.11)">
     <use xlink:href="#DejaVuSans-31"/>
     <use xlink:href="#DejaVuSans-38" transform="translate(63.623047 0)"/>
    </g>
   </g>
   <g id="text_38">
    <!-- 55 -->
    <g transform="translate(182.566366 365.243452) scale(0.11 -0.11)">
     <use xlink:href="#DejaVuSans-35"/>
     <use xlink:href="#DejaVuSans-35" transform="translate(63.623047 0)"/>
    </g>
   </g>
   <g id="text_39">
    <!-- 19 -->
    <g transform="translate(104.203576 411.771359) scale(0.11 -0.11)">
     <use xlink:href="#DejaVuSans-31"/>
     <use xlink:href="#DejaVuSans-39" transform="translate(63.623047 0)"/>
    </g>
   </g>
   <g id="text_40">
    <!-- 56 -->
    <g transform="translate(104.203576 458.299266) scale(0.11 -0.11)">
     <use xlink:href="#DejaVuSans-35"/>
     <use xlink:href="#DejaVuSans-36" transform="translate(63.623047 0)"/>
    </g>
   </g>
   <g id="text_41">
    <!-- 54 -->
    <g transform="translate(216.850087 411.771359) scale(0.11 -0.11)">
     <use xlink:href="#DejaVuSans-35"/>
     <use xlink:href="#DejaVuSans-34" transform="translate(63.623047 0)"/>
    </g>
   </g>
   <g id="text_42">
    <!-- 20 -->
    <g transform="translate(216.850087 458.299266) scale(0.11 -0.11)">
     <use xlink:href="#DejaVuSans-32"/>
     <use xlink:href="#DejaVuSans-30" transform="translate(63.623047 0)"/>
    </g>
   </g>
   <g id="text_43">
    <!-- 11 -->
    <g transform="translate(138.487297 504.827173) scale(0.11 -0.11)">
     <use xlink:href="#DejaVuSans-31"/>
     <use xlink:href="#DejaVuSans-31" transform="translate(63.623047 0)"/>
    </g>
   </g>
   <g id="text_44">
    <!-- 62 -->
    <g transform="translate(182.566366 504.827173) scale(0.11 -0.11)">
     <use xlink:href="#DejaVuSans-36"/>
     <use xlink:href="#DejaVuSans-32" transform="translate(63.623047 0)"/>
    </g>
   </g>
   <g id="text_45">
    <!-- 73 -->
    <g transform="translate(159.254331 331.597674) scale(0.13 -0.13)">
     <use xlink:href="#DejaVuSans-37"/>
     <use xlink:href="#DejaVuSans-33" transform="translate(63.623047 0)"/>
    </g>
   </g>
   <g id="text_46">
    <!-- 74 -->
    <g style="fill: #0000ff" transform="translate(78.442703 432) scale(0.13 -0.13)">
     <use xlink:href="#DejaVuSans-37"/>
     <use xlink:href="#DejaVuSans-34" transform="translate(63.623047 0)"/>
    </g>
   </g>
   <g id="text_47">
    <!-- 74 -->
    <g style="fill: #ff0000" transform="translate(240.065959 432) scale(0.13 -0.13)">
     <use xlink:href="#DejaVuSans-37"/>
     <use xlink:href="#DejaVuSans-34" transform="translate(63.623047 0)"/>
    </g>
   </g>
   <g id="text_48">
    <!-- 73 -->
    <g transform="translate(159.254331 532.402326) scale(0.13 -0.13)">
     <use xlink:href="#DejaVuSans-37"/>
     <use xlink:href="#DejaVuSans-33" transform="translate(63.623047 0)"/>
    </g>
   </g>
   <g id="text_49">
    <!-- 16 -->
    <g transform="translate(402.961715 365.243452) scale(0.11 -0.11)">
     <use xlink:href="#DejaVuSans-31"/>
     <use xlink:href="#DejaVuSans-36" transform="translate(63.623047 0)"/>
    </g>
   </g>
   <g id="text_50">
    <!-- 57 -->
    <g transform="translate(447.040785 365.243452) scale(0.11 -0.11)">
     <use xlink:href="#DejaVuSans-35"/>
     <use xlink:href="#DejaVuSans-37" transform="translate(63.623047 0)"/>
    </g>
   </g>
   <g id="text_51">
    <!-- 21 -->
    <g transform="translate(368.677994 411.771359) scale(0.11 -0.11)">
     <use xlink:href="#DejaVuSans-32"/>
     <use xlink:href="#DejaVuSans-31" transform="translate(63.623047 0)"/>
    </g>
   </g>
   <g id="text_52">
    <!-- 51 -->
    <g transform="translate(368.677994 458.299266) scale(0.11 -0.11)">
     <use xlink:href="#DejaVuSans-35"/>
     <use xlink:href="#DejaVuSans-31" transform="translate(63.623047 0)"/>
    </g>
   </g>
   <g id="text_53">
    <!-- 52 -->
    <g transform="translate(481.324506 411.771359) scale(0.11 -0.11)">
     <use xlink:href="#DejaVuSans-35"/>
     <use xlink:href="#DejaVuSans-32" transform="translate(63.623047 0)"/>
    </g>
   </g>
   <g id="text_54">
    <!-- 22 -->
    <g transform="translate(481.324506 458.299266) scale(0.11 -0.11)">
     <use xlink:href="#DejaVuSans-32"/>
     <use xlink:href="#DejaVuSans-32" transform="translate(63.623047 0)"/>
    </g>
   </g>
   <g id="text_55">
    <!-- 58 -->
    <g transform="translate(402.961715 504.827173) scale(0.11 -0.11)">
     <use xlink:href="#DejaVuSans-35"/>
     <use xlink:href="#DejaVuSans-38" transform="translate(63.623047 0)"/>
    </g>
   </g>
   <g id="text_56">
    <!-- 15 -->
    <g transform="translate(447.040785 504.827173) scale(0.11 -0.11)">
     <use xlink:href="#DejaVuSans-31"/>
     <use xlink:href="#DejaVuSans-35" transform="translate(63.623047 0)"/>
    </g>
   </g>
   <g id="text_57">
    <!-- 73 -->
    <g transform="translate(423.72875 331.597674) scale(0.13 -0.13)">
     <use xlink:href="#DejaVuSans-37"/>
     <use xlink:href="#DejaVuSans-33" transform="translate(63.623047 0)"/>
    </g>
   </g>
   <g id="text_58">
    <!-- 72 -->
    <g style="fill: #0000ff" transform="translate(342.917122 432) scale(0.13 -0.13)">
     <use xlink:href="#DejaVuSans-37"/>
     <use xlink:href="#DejaVuSans-32" transform="translate(63.623047 0)"/>
    </g>
   </g>
   <g id="text_59">
    <!-- 74 -->
    <g style="fill: #ff0000" transform="translate(504.540378 432) scale(0.13 -0.13)">
     <use xlink:href="#DejaVuSans-37"/>
     <use xlink:href="#DejaVuSans-34" transform="translate(63.623047 0)"/>
    </g>
   </g>
   <g id="text_60">
    <!-- 73 -->
    <g transform="translate(423.72875 532.402326) scale(0.13 -0.13)">
     <use xlink:href="#DejaVuSans-37"/>
     <use xlink:href="#DejaVuSans-33" transform="translate(63.623047 0)"/>
    </g>
   </g>
   <g id="text_61">
    <!-- 14 -->
    <g transform="translate(667.436134 365.243452) scale(0.11 -0.11)">
     <use xlink:href="#DejaVuSans-31"/>
     <use xlink:href="#DejaVuSans-34" transform="translate(63.623047 0)"/>
    </g>
   </g>
   <g id="text_62">
    <!-- 59 -->
    <g transform="translate(711.515203 365.243452) scale(0.11 -0.11)">
     <use xlink:href="#DejaVuSans-35"/>
     <use xlink:href="#DejaVuSans-39" transform="translate(63.623047 0)"/>
    </g>
   </g>
   <g id="text_63">
    <!-- 23 -->
    <g transform="translate(633.152413 411.771359) scale(0.11 -0.11)">
     <use xlink:href="#DejaVuSans-32"/>
     <use xlink:href="#DejaVuSans-33" transform="translate(63.623047 0)"/>
    </g>
   </g>
   <g id="text_64">
    <!-- 49 -->
    <g transform="translate(633.152413 458.299266) scale(0.11 -0.11)">
     <use xlink:href="#DejaVuSans-34"/>
     <use xlink:href="#DejaVuSans-39" transform="translate(63.623047 0)"/>
    </g>
   </g>
   <g id="text_65">
    <!-- 50 -->
    <g transform="translate(745.798924 411.771359) scale(0.11 -0.11)">
     <use xlink:href="#DejaVuSans-35"/>
     <use xlink:href="#DejaVuSans-30" transform="translate(63.623047 0)"/>
    </g>
   </g>
   <g id="text_66">
    <!-- 24 -->
    <g transform="translate(745.798924 458.299266) scale(0.11 -0.11)">
     <use xlink:href="#DejaVuSans-32"/>
     <use xlink:href="#DejaVuSans-34" transform="translate(63.623047 0)"/>
    </g>
   </g>
   <g id="text_67">
    <!-- 60 -->
    <g transform="translate(667.436134 504.827173) scale(0.11 -0.11)">
     <use xlink:href="#DejaVuSans-36"/>
     <use xlink:href="#DejaVuSans-30" transform="translate(63.623047 0)"/>
    </g>
   </g>
   <g id="text_68">
    <!-- 13 -->
    <g transform="translate(711.515203 504.827173) scale(0.11 -0.11)">
     <use xlink:href="#DejaVuSans-31"/>
     <use xlink:href="#DejaVuSans-33" transform="translate(63.623047 0)"/>
    </g>
   </g>
   <g id="text_69">
    <!-- 73 -->
    <g transform="translate(688.203169 331.597674) scale(0.13 -0.13)">
     <use xlink:href="#DejaVuSans-37"/>
     <use xlink:href="#DejaVuSans-33" transform="translate(63.623047 0)"/>
    </g>
   </g>
   <g id="text_70">
    <!-- 72 -->
    <g style="fill: #0000ff" transform="translate(607.391541 432) scale(0.13 -0.13)">
     <use xlink:href="#DejaVuSans-37"/>
     <use xlink:href="#DejaVuSans-32" transform="translate(63.623047 0)"/>
    </g>
   </g>
   <g id="text_71">
    <!-- 74 -->
    <g style="fill: #ff0000" transform="translate(769.014797 432) scale(0.13 -0.13)">
     <use xlink:href="#DejaVuSans-37"/>
     <use xlink:href="#DejaVuSans-34" transform="translate(63.623047 0)"/>
    </g>
   </g>
   <g id="text_72">
    <!-- 73 -->
    <g transform="translate(688.203169 532.402326) scale(0.13 -0.13)">
     <use xlink:href="#DejaVuSans-37"/>
     <use xlink:href="#DejaVuSans-33" transform="translate(63.623047 0)"/>
    </g>
   </g>
   <g id="text_73">
    <!-- 11 -->
    <g transform="translate(138.487297 639.513219) scale(0.11 -0.11)">
     <use xlink:href="#DejaVuSans-31"/>
     <use xlink:href="#DejaVuSans-31" transform="translate(63.623047 0)"/>
    </g>
   </g>
   <g id="text_74">
    <!-- 62 -->
    <g transform="translate(182.566366 639.513219) scale(0.11 -0.11)">
     <use xlink:href="#DejaVuSans-36"/>
     <use xlink:href="#DejaVuSans-32" transform="translate(63.623047 0)"/>
    </g>
   </g>
   <g id="text_75">
    <!-- 26 -->
    <g transform="translate(104.203576 686.041126) scale(0.11 -0.11)">
     <use xlink:href="#DejaVuSans-32"/>
     <use xlink:href="#DejaVuSans-36" transform="translate(63.623047 0)"/>
    </g>
   </g>
   <g id="text_76">
    <!-- 48 -->
    <g transform="translate(104.203576 732.569033) scale(0.11 -0.11)">
     <use xlink:href="#DejaVuSans-34"/>
     <use xlink:href="#DejaVuSans-38" transform="translate(63.623047 0)"/>
    </g>
   </g>
   <g id="text_77">
    <!-- 42 -->
    <g transform="translate(216.850087 686.041126) scale(0.11 -0.11)">
     <use xlink:href="#DejaVuSans-34"/>
     <use xlink:href="#DejaVuSans-32" transform="translate(63.623047 0)"/>
    </g>
   </g>
   <g id="text_78">
    <!-- 25 -->
    <g transform="translate(216.850087 732.569033) scale(0.11 -0.11)">
     <use xlink:href="#DejaVuSans-32"/>
     <use xlink:href="#DejaVuSans-35" transform="translate(63.623047 0)"/>
    </g>
   </g>
   <g id="text_79">
    <!-- 61 -->
    <g transform="translate(138.487297 779.09694) scale(0.11 -0.11)">
     <use xlink:href="#DejaVuSans-36"/>
     <use xlink:href="#DejaVuSans-31" transform="translate(63.623047 0)"/>
    </g>
   </g>
   <g id="text_80">
    <!-- 12 -->
    <g transform="translate(182.566366 779.09694) scale(0.11 -0.11)">
     <use xlink:href="#DejaVuSans-31"/>
     <use xlink:href="#DejaVuSans-32" transform="translate(63.623047 0)"/>
    </g>
   </g>
   <g id="text_81">
    <!-- 73 -->
    <g transform="translate(159.254331 605.867442) scale(0.13 -0.13)">
     <use xlink:href="#DejaVuSans-37"/>
     <use xlink:href="#DejaVuSans-33" transform="translate(63.623047 0)"/>
    </g>
   </g>
   <g id="text_82">
    <!-- 74 -->
    <g style="fill: #0000ff" transform="translate(78.442703 706.269767) scale(0.13 -0.13)">
     <use xlink:href="#DejaVuSans-37"/>
     <use xlink:href="#DejaVuSans-34" transform="translate(63.623047 0)"/>
    </g>
   </g>
   <g id="text_83">
    <!-- 72 -->
    <g style="fill: #ff0000" transform="translate(240.065959 706.269767) scale(0.13 -0.13)">
     <use xlink:href="#DejaVuSans-37"/>
     <use xlink:href="#DejaVuSans-32" transform="translate(63.623047 0)"/>
    </g>
   </g>
   <g id="text_84">
    <!-- 73 -->
    <g transform="translate(159.254331 806.672093) scale(0.13 -0.13)">
     <use xlink:href="#DejaVuSans-37"/>
     <use xlink:href="#DejaVuSans-33" transform="translate(63.623047 0)"/>
    </g>
   </g>
   <g id="text_85">
    <!-- 9 -->
    <g transform="translate(406.46109 639.513219) scale(0.11 -0.11)">
     <use xlink:href="#DejaVuSans-39"/>
    </g>
   </g>
   <g id="text_86">
    <!-- 64 -->
    <g transform="translate(447.040785 639.513219) scale(0.11 -0.11)">
     <use xlink:href="#DejaVuSans-36"/>
     <use xlink:href="#DejaVuSans-34" transform="translate(63.623047 0)"/>
    </g>
   </g>
   <g id="text_87">
    <!-- 28 -->
    <g transform="translate(368.677994 686.041126) scale(0.11 -0.11)">
     <use xlink:href="#DejaVuSans-32"/>
     <use xlink:href="#DejaVuSans-38" transform="translate(63.623047 0)"/>
    </g>
   </g>
   <g id="text_88">
    <!-- 46 -->
    <g transform="translate(368.677994 732.569033) scale(0.11 -0.11)">
     <use xlink:href="#DejaVuSans-34"/>
     <use xlink:href="#DejaVuSans-36" transform="translate(63.623047 0)"/>
    </g>
   </g>
   <g id="text_89">
    <!-- 45 -->
    <g transform="translate(481.324506 686.041126) scale(0.11 -0.11)">
     <use xlink:href="#DejaVuSans-34"/>
     <use xlink:href="#DejaVuSans-35" transform="translate(63.623047 0)"/>
    </g>
   </g>
   <g id="text_90">
    <!-- 27 -->
    <g transform="translate(481.324506 732.569033) scale(0.11 -0.11)">
     <use xlink:href="#DejaVuSans-32"/>
     <use xlink:href="#DejaVuSans-37" transform="translate(63.623047 0)"/>
    </g>
   </g>
   <g id="text_91">
    <!-- 63 -->
    <g transform="translate(402.961715 779.09694) scale(0.11 -0.11)">
     <use xlink:href="#DejaVuSans-36"/>
     <use xlink:href="#DejaVuSans-33" transform="translate(63.623047 0)"/>
    </g>
   </g>
   <g id="text_92">
    <!-- 10 -->
    <g transform="translate(447.040785 779.09694) scale(0.11 -0.11)">
     <use xlink:href="#DejaVuSans-31"/>
     <use xlink:href="#DejaVuSans-30" transform="translate(63.623047 0)"/>
    </g>
   </g>
   <g id="text_93">
    <!-- 73 -->
    <g transform="translate(423.72875 605.867442) scale(0.13 -0.13)">
     <use xlink:href="#DejaVuSans-37"/>
     <use xlink:href="#DejaVuSans-33" transform="translate(63.623047 0)"/>
    </g>
   </g>
   <g id="text_94">
    <!-- 74 -->
    <g style="fill: #0000ff" transform="translate(342.917122 706.269767) scale(0.13 -0.13)">
     <use xlink:href="#DejaVuSans-37"/>
     <use xlink:href="#DejaVuSans-34" transform="translate(63.623047 0)"/>
    </g>
   </g>
   <g id="text_95">
    <!-- 72 -->
    <g style="fill: #ff0000" transform="translate(504.540378 706.269767) scale(0.13 -0.13)">
     <use xlink:href="#DejaVuSans-37"/>
     <use xlink:href="#DejaVuSans-32" transform="translate(63.623047 0)"/>
    </g>
   </g>
   <g id="text_96">
    <!-- 73 -->
    <g transform="translate(423.72875 806.672093) scale(0.13 -0.13)">
     <use xlink:href="#DejaVuSans-37"/>
     <use xlink:href="#DejaVuSans-33" transform="translate(63.623047 0)"/>
    </g>
   </g>
   <g id="text_97">
    <!-- 7 -->
    <g transform="translate(670.935509 639.513219) scale(0.11 -0.11)">
     <use xlink:href="#DejaVuSans-37"/>
    </g>
   </g>
   <g id="text_98">
    <!-- 66 -->
    <g transform="translate(711.515203 639.513219) scale(0.11 -0.11)">
     <use xlink:href="#DejaVuSans-36"/>
     <use xlink:href="#DejaVuSans-36" transform="translate(63.623047 0)"/>
    </g>
   </g>
   <g id="text_99">
    <!-- 30 -->
    <g transform="translate(633.152413 686.041126) scale(0.11 -0.11)">
     <use xlink:href="#DejaVuSans-33"/>
     <use xlink:href="#DejaVuSans-30" transform="translate(63.623047 0)"/>
    </g>
   </g>
   <g id="text_100">
    <!-- 44 -->
    <g transform="translate(633.152413 732.569033) scale(0.11 -0.11)">
     <use xlink:href="#DejaVuSans-34"/>
     <use xlink:href="#DejaVuSans-34" transform="translate(63.623047 0)"/>
    </g>
   </g>
   <g id="text_101">
    <!-- 43 -->
    <g transform="translate(745.798924 686.041126) scale(0.11 -0.11)">
     <use xlink:href="#DejaVuSans-34"/>
     <use xlink:href="#DejaVuSans-33" transform="translate(63.623047 0)"/>
    </g>
   </g>
   <g id="text_102">
    <!-- 29 -->
    <g transform="translate(745.798924 732.569033) scale(0.11 -0.11)">
     <use xlink:href="#DejaVuSans-32"/>
     <use xlink:href="#DejaVuSans-39" transform="translate(63.623047 0)"/>
    </g>
   </g>
   <g id="text_103">
    <!-- 65 -->
    <g transform="translate(667.436134 779.09694) scale(0.11 -0.11)">
     <use xlink:href="#DejaVuSans-36"/>
     <use xlink:href="#DejaVuSans-35" transform="translate(63.623047 0)"/>
    </g>
   </g>
   <g id="text_104">
    <!-- 8 -->
    <g transform="translate(715.014578 779.09694) scale(0.11 -0.11)">
     <use xlink:href="#DejaVuSans-38"/>
    </g>
   </g>
   <g id="text_105">
    <!-- 73 -->
    <g transform="translate(688.203169 605.867442) scale(0.13 -0.13)">
     <use xlink:href="#DejaVuSans-37"/>
     <use xlink:href="#DejaVuSans-33" transform="translate(63.623047 0)"/>
    </g>
   </g>
   <g id="text_106">
    <!-- 74 -->
    <g style="fill: #0000ff" transform="translate(607.391541 706.269767) scale(0.13 -0.13)">
     <use xlink:href="#DejaVuSans-37"/>
     <use xlink:href="#DejaVuSans-34" transform="translate(63.623047 0)"/>
    </g>
   </g>
   <g id="text_107">
    <!-- 72 -->
    <g style="fill: #ff0000" transform="translate(769.014797 706.269767) scale(0.13 -0.13)">
     <use xlink:href="#DejaVuSans-37"/>
     <use xlink:href="#DejaVuSans-32" transform="translate(63.623047 0)"/>
    </g>
   </g>
   <g id="text_108">
    <!-- 73 -->
    <g transform="translate(688.203169 806.672093) scale(0.13 -0.13)">
     <use xlink:href="#DejaVuSans-37"/>
     <use xlink:href="#DejaVuSans-33" transform="translate(63.623047 0)"/>
    </g>
   </g>
  </g>
 </g>
 <defs>
  <clipPath id="p7cf23c236b">
   <rect x="45.083721" y="10.8" width="773.832558" height="842.4"/>
  </clipPath>
 </defs>
</svg>
