<?xml version="1.0" encoding="utf-8" standalone="no"?>
<!DOCTYPE svg PUBLIC "-//W3C//DTD SVG 1.1//EN"
  "http://www.w3.org/Graphics/SVG/1.1/DTD/svg11.dtd">
<svg xmlns:xlink="http://www.w3.org/1999/xlink" width="597.721974pt" height="568.619062pt" viewBox="0 0 597.721974 568.619062" xmlns="http://www.w3.org/2000/svg" version="1.1">
 <metadata>
  <rdf:RDF xmlns:dc="http://purl.org/dc/elements/1.1/" xmlns:cc="http://creativecommons.org/ns#" xmlns:rdf="http://www.w3.org/1999/02/22-rdf-syntax-ns#">
   <cc:Work>
    <dc:type rdf:resource="http://purl.org/dc/dcmitype/StillImage"/>
    <dc:date>2026-07-19T22:03:31.357294</dc:date>
    <dc:format>image/svg+xml</dc:format>
    <dc:creator>
     <cc:Agent>
      <dc:title>Matplotlib v3.10.1+dfsg1, https://matplotlib.org/</dc:title>
     </cc:Agent>
    </dc:creator>
   </cc:Work>
  </rdf:RDF>
 </metadata>
 <defs>
  <style type="text/css">*{stroke-linejoin: round; stroke-linecap: butt}</style>
 </defs>
 <g id="figure_1">
  <g id="patch_1">
   <path d="M 0 568.619062 
L 597.721974 568.619062 
L 597.721974 0 
L 0 0 
z
" style="fill: #ffffff"/>
  </g>
  <g id="axes_1">
   <g id="patch_2">
    <path d="M 159.974803 238.508684 
C 181.153804 238.508684 201.46822 230.094178 216.444036 215.118362 
C 231.419852 200.142546 239.834359 179.82813 239.834359 158.649128 
C 239.834359 137.470126 231.419852 117.155711 216.444036 102.179895 
C 201.46822 87.204079 181.153804 78.789572 159.974803 78.789572 
C 138.795801 78.789572 118.481385 87.204079 103.505569 102.179895 
C 88.529753 117.155711 80.115247 137.470126 80.115247 158.649128 
C 80.115247 179.82813 88.529753 200.142546 103.505569 215.118362 
C 118.481385 230.094178 138.795801 238.508684 159.974803 238.508684 
L 159.974803 238.508684 
z
" clip-path="url(#pb378e3bf0b)" style="fill: none; stroke-dasharray: 4,4; stroke-dashoffset: 0; stroke: #cccccc; stroke-linejoin: miter"/>
   </g>
   <g id="patch_3">
    <path d="M 298.860987 238.508684 
C 320.039989 238.508684 340.354405 230.094178 355.33022 215.118362 
C 370.306036 200.142546 378.720543 179.82813 378.720543 158.649128 
C 378.720543 137.470126 370.306036 117.155711 355.33022 102.179895 
C 340.354405 87.204079 320.039989 78.789572 298.860987 78.789572 
C 277.681985 78.789572 257.367569 87.204079 242.391753 102.179895 
C 227.415938 117.155711 219.001431 137.470126 219.001431 158.649128 
C 219.001431 179.82813 227.415938 200.142546 242.391753 215.118362 
C 257.367569 230.094178 277.681985 238.508684 298.860987 238.508684 
L 298.860987 238.508684 
z
" clip-path="url(#pb378e3bf0b)" style="fill: none; stroke-dasharray: 4,4; stroke-dashoffset: 0; stroke: #cccccc; stroke-linejoin: miter"/>
   </g>
   <g id="patch_4">
    <path d="M 437.747171 238.508684 
C 458.926173 238.508684 479.240589 230.094178 494.216405 215.118362 
C 509.19222 200.142546 517.606727 179.82813 517.606727 158.649128 
C 517.606727 137.470126 509.19222 117.155711 494.216405 102.179895 
C 479.240589 87.204079 458.926173 78.789572 437.747171 78.789572 
C 416.568169 78.789572 396.253753 87.204079 381.277938 102.179895 
C 366.302122 117.155711 357.887615 137.470126 357.887615 158.649128 
C 357.887615 179.82813 366.302122 200.142546 381.277938 215.118362 
C 396.253753 230.094178 416.568169 238.508684 437.747171 238.508684 
L 437.747171 238.508684 
z
" clip-path="url(#pb378e3bf0b)" style="fill: none; stroke-dasharray: 4,4; stroke-dashoffset: 0; stroke: #cccccc; stroke-linejoin: miter"/>
   </g>
   <g id="patch_5">
    <path d="M 159.974803 377.394868 
C 181.153804 377.394868 201.46822 368.980362 216.444036 354.004546 
C 231.419852 339.02873 239.834359 318.714314 239.834359 297.535312 
C 239.834359 276.356311 231.419852 256.041895 216.444036 241.066079 
C 201.46822 226.090263 181.153804 217.675757 159.974803 217.675757 
C 138.795801 217.675757 118.481385 226.090263 103.505569 241.066079 
C 88.529753 256.041895 80.115247 276.356311 80.115247 297.535312 
C 80.115247 318.714314 88.529753 339.02873 103.505569 354.004546 
C 118.481385 368.980362 138.795801 377.394868 159.974803 377.394868 
L 159.974803 377.394868 
z
" clip-path="url(#pb378e3bf0b)" style="fill: none; stroke-dasharray: 4,4; stroke-dashoffset: 0; stroke: #cccccc; stroke-linejoin: miter"/>
   </g>
   <g id="patch_6">
    <path d="M 298.860987 377.394868 
C 320.039989 377.394868 340.354405 368.980362 355.33022 354.004546 
C 370.306036 339.02873 378.720543 318.714314 378.720543 297.535312 
C 378.720543 276.356311 370.306036 256.041895 355.33022 241.066079 
C 340.354405 226.090263 320.039989 217.675757 298.860987 217.675757 
C 277.681985 217.675757 257.367569 226.090263 242.391753 241.066079 
C 227.415938 256.041895 219.001431 276.356311 219.001431 297.535312 
C 219.001431 318.714314 227.415938 339.02873 242.391753 354.004546 
C 257.367569 368.980362 277.681985 377.394868 298.860987 377.394868 
L 298.860987 377.394868 
z
" clip-path="url(#pb378e3bf0b)" style="fill: none; stroke-dasharray: 4,4; stroke-dashoffset: 0; stroke: #cccccc; stroke-linejoin: miter"/>
   </g>
   <g id="patch_7">
    <path d="M 437.747171 377.394868 
C 458.926173 377.394868 479.240589 368.980362 494.216405 354.004546 
C 509.19222 339.02873 517.606727 318.714314 517.606727 297.535312 
C 517.606727 276.356311 509.19222 256.041895 494.216405 241.066079 
C 479.240589 226.090263 458.926173 217.675757 437.747171 217.675757 
C 416.568169 217.675757 396.253753 226.090263 381.277938 241.066079 
C 366.302122 256.041895 357.887615 276.356311 357.887615 297.535312 
C 357.887615 318.714314 366.302122 339.02873 381.277938 354.004546 
C 396.253753 368.980362 416.568169 377.394868 437.747171 377.394868 
L 437.747171 377.394868 
z
" clip-path="url(#pb378e3bf0b)" style="fill: none; stroke-dasharray: 4,4; stroke-dashoffset: 0; stroke: #cccccc; stroke-linejoin: miter"/>
   </g>
   <g id="patch_8">
    <path d="M 159.974803 516.281053 
C 181.153804 516.281053 201.46822 507.866546 216.444036 492.89073 
C 231.419852 477.914914 239.834359 457.600499 239.834359 436.421497 
C 239.834359 415.242495 231.419852 394.928079 216.444036 379.952263 
C 201.46822 364.976447 181.153804 356.561941 159.974803 356.561941 
C 138.795801 356.561941 118.481385 364.976447 103.505569 379.952263 
C 88.529753 394.928079 80.115247 415.242495 80.115247 436.421497 
C 80.115247 457.600499 88.529753 477.914914 103.505569 492.89073 
C 118.481385 507.866546 138.795801 516.281053 159.974803 516.281053 
L 159.974803 516.281053 
z
" clip-path="url(#pb378e3bf0b)" style="fill: none; stroke-dasharray: 4,4; stroke-dashoffset: 0; stroke: #cccccc; stroke-linejoin: miter"/>
   </g>
   <g id="patch_9">
    <path d="M 298.860987 516.281053 
C 320.039989 516.281053 340.354405 507.866546 355.33022 492.89073 
C 370.306036 477.914914 378.720543 457.600499 378.720543 436.421497 
C 378.720543 415.242495 370.306036 394.928079 355.33022 379.952263 
C 340.354405 364.976447 320.039989 356.561941 298.860987 356.561941 
C 277.681985 356.561941 257.367569 364.976447 242.391753 379.952263 
C 227.415938 394.928079 219.001431 415.242495 219.001431 436.421497 
C 219.001431 457.600499 227.415938 477.914914 242.391753 492.89073 
C 257.367569 507.866546 277.681985 516.281053 298.860987 516.281053 
L 298.860987 516.281053 
z
" clip-path="url(#pb378e3bf0b)" style="fill: none; stroke-dasharray: 4,4; stroke-dashoffset: 0; stroke: #cccccc; stroke-linejoin: miter"/>
   </g>
   <g id="patch_10">
    <path d="M 437.747171 516.281053 
C 458.926173 516.281053 479.240589 507.866546 494.216405 492.89073 
C 509.19222 477.914914 517.606727 457.600499 517.606727 436.421497 
C 517.606727 415.242495 509.19222 394.928079 494.216405 379.952263 
C 479.240589 364.976447 458.926173 356.561941 437.747171 356.561941 
C 416.568169 356.561941 396.253753 364.976447 381.277938 379.952263 
C 366.302122 394.928079 357.887615 415.242495 357.887615 436.421497 
C 357.887615 457.600499 366.302122 477.914914 381.277938 492.89073 
C 396.253753 507.866546 416.568169 516.281053 437.747171 516.281053 
L 437.747171 516.281053 
z
" clip-path="url(#pb378e3bf0b)" style="fill: none; stroke-dasharray: 4,4; stroke-dashoffset: 0; stroke: #cccccc; stroke-linejoin: miter"/>
   </g>
   <g id="text_1">
    <!-- Upper Left (Sum 85) -->
    <g style="fill: #666666" transform="translate(118.174021 74.495341) scale(0.09 -0.09)">
     <defs>
      <path id="NotoSansCJKjp-Regular-55" d="M 2310 -83 
C 3264 -83 3994 429 3994 1933 
L 3994 4691 
L 3424 4691 
L 3424 1920 
C 3424 794 2931 435 2310 435 
C 1696 435 1216 794 1216 1920 
L 1216 4691 
L 627 4691 
L 627 1933 
C 627 429 1350 -83 2310 -83 
z
" transform="scale(0.015625)"/>
      <path id="NotoSansCJKjp-Regular-70" d="M 589 -1466 
L 1178 -1466 
L 1178 -288 
L 1158 320 
C 1472 58 1805 -83 2118 -83 
C 2912 -83 3629 602 3629 1792 
C 3629 2867 3142 3565 2246 3565 
C 1843 3565 1453 3334 1139 3072 
L 1126 3072 
L 1069 3475 
L 589 3475 
L 589 -1466 
z
M 2022 410 
C 1792 410 1485 499 1178 768 
L 1178 2598 
C 1510 2906 1811 3072 2099 3072 
C 2765 3072 3021 2560 3021 1786 
C 3021 928 2598 410 2022 410 
z
" transform="scale(0.015625)"/>
      <path id="NotoSansCJKjp-Regular-65" d="M 1997 -83 
C 2464 -83 2835 70 3136 269 
L 2931 659 
C 2669 486 2400 384 2061 384 
C 1402 384 947 858 909 1600 
L 3251 1600 
C 3264 1690 3277 1805 3277 1933 
C 3277 2925 2778 3565 1888 3565 
C 1094 3565 333 2867 333 1734 
C 333 589 1069 -83 1997 -83 
z
M 902 2016 
C 973 2707 1408 3098 1901 3098 
C 2445 3098 2765 2720 2765 2016 
L 902 2016 
z
" transform="scale(0.015625)"/>
      <path id="NotoSansCJKjp-Regular-72" d="M 589 0 
L 1178 0 
L 1178 2234 
C 1408 2822 1760 3040 2048 3040 
C 2195 3040 2272 3021 2387 2982 
L 2496 3488 
C 2387 3546 2278 3565 2125 3565 
C 1741 3565 1382 3283 1139 2842 
L 1126 2842 
L 1069 3475 
L 589 3475 
L 589 0 
z
" transform="scale(0.015625)"/>
      <path id="NotoSansCJKjp-Regular-20" transform="scale(0.015625)"/>
      <path id="NotoSansCJKjp-Regular-4c" d="M 646 0 
L 3290 0 
L 3290 506 
L 1235 506 
L 1235 4691 
L 646 4691 
L 646 0 
z
" transform="scale(0.015625)"/>
      <path id="NotoSansCJKjp-Regular-66" d="M 211 3002 
L 685 3002 
L 685 0 
L 1267 0 
L 1267 3002 
L 2003 3002 
L 2003 3475 
L 1267 3475 
L 1267 4026 
C 1267 4474 1427 4710 1760 4710 
C 1882 4710 2022 4678 2150 4614 
L 2278 5069 
C 2118 5133 1914 5178 1696 5178 
C 1005 5178 685 4736 685 4032 
L 685 3475 
L 211 3443 
L 211 3002 
z
" transform="scale(0.015625)"/>
      <path id="NotoSansCJKjp-Regular-74" d="M 1677 -83 
C 1894 -83 2125 -19 2323 45 
L 2208 486 
C 2093 435 1939 390 1811 390 
C 1408 390 1274 634 1274 1056 
L 1274 3002 
L 2221 3002 
L 2221 3475 
L 1274 3475 
L 1274 4454 
L 787 4454 
L 723 3475 
L 173 3443 
L 173 3002 
L 691 3002 
L 691 1075 
C 691 378 941 -83 1677 -83 
z
" transform="scale(0.015625)"/>
      <path id="NotoSansCJKjp-Regular-28" d="M 1530 -1254 
L 1888 -1094 
C 1338 -186 1075 902 1075 1990 
C 1075 3072 1338 4154 1888 5069 
L 1530 5235 
C 941 4275 589 3245 589 1990 
C 589 730 941 -301 1530 -1254 
z
" transform="scale(0.015625)"/>
      <path id="NotoSansCJKjp-Regular-53" d="M 1946 -83 
C 2925 -83 3539 506 3539 1248 
C 3539 1946 3117 2266 2573 2502 
L 1907 2790 
C 1542 2944 1126 3117 1126 3578 
C 1126 3994 1472 4256 2003 4256 
C 2438 4256 2784 4090 3072 3821 
L 3379 4198 
C 3053 4538 2560 4774 2003 4774 
C 1152 4774 525 4256 525 3533 
C 525 2848 1043 2515 1478 2330 
L 2150 2035 
C 2598 1837 2938 1683 2938 1197 
C 2938 742 2573 435 1952 435 
C 1466 435 992 666 659 1018 
L 307 608 
C 710 186 1280 -83 1946 -83 
z
" transform="scale(0.015625)"/>
      <path id="NotoSansCJKjp-Regular-75" d="M 1606 -83 
C 2080 -83 2426 166 2752 544 
L 2771 544 
L 2816 0 
L 3302 0 
L 3302 3475 
L 2720 3475 
L 2720 1011 
C 2387 602 2138 422 1779 422 
C 1318 422 1126 698 1126 1344 
L 1126 3475 
L 538 3475 
L 538 1274 
C 538 384 870 -83 1606 -83 
z
" transform="scale(0.015625)"/>
      <path id="NotoSansCJKjp-Regular-6d" d="M 589 0 
L 1178 0 
L 1178 2522 
C 1491 2880 1786 3053 2048 3053 
C 2490 3053 2694 2778 2694 2125 
L 2694 0 
L 3277 0 
L 3277 2522 
C 3603 2880 3885 3053 4154 3053 
C 4595 3053 4800 2778 4800 2125 
L 4800 0 
L 5382 0 
L 5382 2202 
C 5382 3085 5043 3565 4333 3565 
C 3904 3565 3546 3290 3181 2899 
C 3040 3309 2758 3565 2221 3565 
C 1805 3565 1446 3302 1139 2970 
L 1126 2970 
L 1069 3475 
L 589 3475 
L 589 0 
z
" transform="scale(0.015625)"/>
      <path id="NotoSansCJKjp-Regular-38" d="M 1792 -83 
C 2669 -83 3258 448 3258 1126 
C 3258 1773 2880 2125 2470 2362 
L 2470 2394 
C 2746 2611 3091 3034 3091 3526 
C 3091 4250 2605 4762 1805 4762 
C 1075 4762 518 4282 518 3571 
C 518 3078 813 2726 1152 2490 
L 1152 2464 
C 723 2234 294 1792 294 1165 
C 294 442 922 -83 1792 -83 
z
M 2112 2547 
C 1555 2765 1050 3014 1050 3571 
C 1050 4026 1363 4326 1798 4326 
C 2298 4326 2592 3962 2592 3494 
C 2592 3149 2426 2829 2112 2547 
z
M 1798 352 
C 1235 352 813 717 813 1216 
C 813 1664 1082 2035 1459 2278 
C 2125 2010 2701 1779 2701 1146 
C 2701 678 2342 352 1798 352 
z
" transform="scale(0.015625)"/>
      <path id="NotoSansCJKjp-Regular-35" d="M 1677 -83 
C 2464 -83 3213 499 3213 1523 
C 3213 2560 2573 3021 1798 3021 
C 1517 3021 1306 2950 1094 2835 
L 1216 4192 
L 2982 4192 
L 2982 4691 
L 704 4691 
L 550 2502 
L 864 2304 
C 1133 2483 1331 2579 1645 2579 
C 2234 2579 2618 2182 2618 1510 
C 2618 826 2176 403 1619 403 
C 1075 403 730 653 467 922 
L 173 538 
C 493 224 941 -83 1677 -83 
z
" transform="scale(0.015625)"/>
      <path id="NotoSansCJKjp-Regular-29" d="M 634 -1254 
C 1222 -301 1574 730 1574 1990 
C 1574 3245 1222 4275 634 5235 
L 269 5069 
C 819 4154 1094 3072 1094 1990 
C 1094 902 819 -186 269 -1094 
L 634 -1254 
z
" transform="scale(0.015625)"/>
     </defs>
     <use xlink:href="#NotoSansCJKjp-Regular-55"/>
     <use xlink:href="#NotoSansCJKjp-Regular-70" transform="translate(72.099991 0)"/>
     <use xlink:href="#NotoSansCJKjp-Regular-70" transform="translate(134.099976 0)"/>
     <use xlink:href="#NotoSansCJKjp-Regular-65" transform="translate(196.09996 0)"/>
     <use xlink:href="#NotoSansCJKjp-Regular-72" transform="translate(251.499954 0)"/>
     <use xlink:href="#NotoSansCJKjp-Regular-20" transform="translate(290.299942 0)"/>
     <use xlink:href="#NotoSansCJKjp-Regular-4c" transform="translate(312.699936 0)"/>
     <use xlink:href="#NotoSansCJKjp-Regular-65" transform="translate(366.999924 0)"/>
     <use xlink:href="#NotoSansCJKjp-Regular-66" transform="translate(422.399918 0)"/>
     <use xlink:href="#NotoSansCJKjp-Regular-74" transform="translate(454.899902 0)"/>
     <use xlink:href="#NotoSansCJKjp-Regular-20" transform="translate(492.599899 0)"/>
     <use xlink:href="#NotoSansCJKjp-Regular-28" transform="translate(514.999893 0)"/>
     <use xlink:href="#NotoSansCJKjp-Regular-53" transform="translate(548.799881 0)"/>
     <use xlink:href="#NotoSansCJKjp-Regular-75" transform="translate(608.399872 0)"/>
     <use xlink:href="#NotoSansCJKjp-Regular-6d" transform="translate(669.099869 0)"/>
     <use xlink:href="#NotoSansCJKjp-Regular-20" transform="translate(761.69986 0)"/>
     <use xlink:href="#NotoSansCJKjp-Regular-38" transform="translate(784.099854 0)"/>
     <use xlink:href="#NotoSansCJKjp-Regular-35" transform="translate(839.599838 0)"/>
     <use xlink:href="#NotoSansCJKjp-Regular-29" transform="translate(895.099823 0)"/>
    </g>
   </g>
   <g id="text_2">
    <!-- Upper Center (Sum 85) -->
    <g style="fill: #666666" transform="translate(251.111065 74.495341) scale(0.09 -0.09)">
     <defs>
      <path id="NotoSansCJKjp-Regular-43" d="M 2413 -83 
C 3021 -83 3482 160 3853 589 
L 3526 966 
C 3226 634 2886 435 2438 435 
C 1542 435 979 1178 979 2362 
C 979 3533 1574 4256 2458 4256 
C 2861 4256 3168 4077 3418 3814 
L 3738 4198 
C 3469 4499 3021 4774 2451 4774 
C 1261 4774 371 3859 371 2342 
C 371 819 1242 -83 2413 -83 
z
" transform="scale(0.015625)"/>
      <path id="NotoSansCJKjp-Regular-6e" d="M 589 0 
L 1178 0 
L 1178 2522 
C 1523 2874 1766 3053 2125 3053 
C 2586 3053 2784 2778 2784 2125 
L 2784 0 
L 3366 0 
L 3366 2202 
C 3366 3085 3034 3565 2304 3565 
C 1830 3565 1466 3302 1139 2970 
L 1126 2970 
L 1069 3475 
L 589 3475 
L 589 0 
z
" transform="scale(0.015625)"/>
     </defs>
     <use xlink:href="#NotoSansCJKjp-Regular-55"/>
     <use xlink:href="#NotoSansCJKjp-Regular-70" transform="translate(72.099991 0)"/>
     <use xlink:href="#NotoSansCJKjp-Regular-70" transform="translate(134.099976 0)"/>
     <use xlink:href="#NotoSansCJKjp-Regular-65" transform="translate(196.09996 0)"/>
     <use xlink:href="#NotoSansCJKjp-Regular-72" transform="translate(251.499954 0)"/>
     <use xlink:href="#NotoSansCJKjp-Regular-20" transform="translate(290.299942 0)"/>
     <use xlink:href="#NotoSansCJKjp-Regular-43" transform="translate(312.699936 0)"/>
     <use xlink:href="#NotoSansCJKjp-Regular-65" transform="translate(376.499924 0)"/>
     <use xlink:href="#NotoSansCJKjp-Regular-6e" transform="translate(431.899918 0)"/>
     <use xlink:href="#NotoSansCJKjp-Regular-74" transform="translate(492.899902 0)"/>
     <use xlink:href="#NotoSansCJKjp-Regular-65" transform="translate(530.599899 0)"/>
     <use xlink:href="#NotoSansCJKjp-Regular-72" transform="translate(585.999893 0)"/>
     <use xlink:href="#NotoSansCJKjp-Regular-20" transform="translate(624.799881 0)"/>
     <use xlink:href="#NotoSansCJKjp-Regular-28" transform="translate(647.199875 0)"/>
     <use xlink:href="#NotoSansCJKjp-Regular-53" transform="translate(680.999863 0)"/>
     <use xlink:href="#NotoSansCJKjp-Regular-75" transform="translate(740.599854 0)"/>
     <use xlink:href="#NotoSansCJKjp-Regular-6d" transform="translate(801.29985 0)"/>
     <use xlink:href="#NotoSansCJKjp-Regular-20" transform="translate(893.899841 0)"/>
     <use xlink:href="#NotoSansCJKjp-Regular-38" transform="translate(916.299835 0)"/>
     <use xlink:href="#NotoSansCJKjp-Regular-35" transform="translate(971.79982 0)"/>
     <use xlink:href="#NotoSansCJKjp-Regular-29" transform="translate(1027.299805 0)"/>
    </g>
   </g>
   <g id="text_3">
    <!-- Upper Right (Sum 85) -->
    <g style="fill: #666666" transform="translate(392.980609 74.401123) scale(0.09 -0.09)">
     <defs>
      <path id="NotoSansCJKjp-Regular-52" d="M 1235 2464 
L 1235 4211 
L 2022 4211 
C 2758 4211 3162 3994 3162 3379 
C 3162 2765 2758 2464 2022 2464 
L 1235 2464 
z
M 3219 0 
L 3885 0 
L 2694 2054 
C 3328 2208 3750 2643 3750 3379 
C 3750 4352 3066 4691 2112 4691 
L 646 4691 
L 646 0 
L 1235 0 
L 1235 1990 
L 2080 1990 
L 3219 0 
z
" transform="scale(0.015625)"/>
      <path id="NotoSansCJKjp-Regular-69" d="M 589 0 
L 1178 0 
L 1178 3475 
L 589 3475 
L 589 0 
z
M 883 4192 
C 1114 4192 1274 4346 1274 4582 
C 1274 4806 1114 4960 883 4960 
C 653 4960 499 4806 499 4582 
C 499 4346 653 4192 883 4192 
z
" transform="scale(0.015625)"/>
      <path id="NotoSansCJKjp-Regular-67" d="M 1760 -1600 
C 2835 -1600 3520 -1043 3520 -397 
C 3520 179 3110 429 2310 429 
L 1626 429 
C 1158 429 1018 589 1018 806 
C 1018 998 1114 1114 1242 1222 
C 1395 1146 1587 1101 1754 1101 
C 2470 1101 3027 1568 3027 2310 
C 3027 2611 2912 2867 2746 3027 
L 3456 3027 
L 3456 3475 
L 2246 3475 
C 2125 3526 1952 3565 1754 3565 
C 1056 3565 454 3085 454 2323 
C 454 1907 678 1568 909 1389 
L 909 1363 
C 723 1235 525 1005 525 717 
C 525 442 659 256 838 147 
L 838 115 
C 512 -83 326 -371 326 -672 
C 326 -1267 915 -1600 1760 -1600 
z
M 1754 1498 
C 1357 1498 1018 1818 1018 2323 
C 1018 2835 1350 3136 1754 3136 
C 2170 3136 2496 2835 2496 2323 
C 2496 1818 2157 1498 1754 1498 
z
M 1843 -1197 
C 1210 -1197 838 -960 838 -589 
C 838 -390 941 -179 1190 0 
C 1344 -38 1510 -51 1638 -51 
L 2240 -51 
C 2701 -51 2944 -166 2944 -493 
C 2944 -851 2515 -1197 1843 -1197 
z
" transform="scale(0.015625)"/>
      <path id="NotoSansCJKjp-Regular-68" d="M 589 0 
L 1178 0 
L 1178 2522 
C 1523 2874 1766 3053 2125 3053 
C 2586 3053 2784 2778 2784 2125 
L 2784 0 
L 3366 0 
L 3366 2202 
C 3366 3085 3034 3565 2304 3565 
C 1830 3565 1472 3302 1152 2982 
L 1178 3699 
L 1178 5094 
L 589 5094 
L 589 0 
z
" transform="scale(0.015625)"/>
     </defs>
     <use xlink:href="#NotoSansCJKjp-Regular-55"/>
     <use xlink:href="#NotoSansCJKjp-Regular-70" transform="translate(72.099991 0)"/>
     <use xlink:href="#NotoSansCJKjp-Regular-70" transform="translate(134.099976 0)"/>
     <use xlink:href="#NotoSansCJKjp-Regular-65" transform="translate(196.09996 0)"/>
     <use xlink:href="#NotoSansCJKjp-Regular-72" transform="translate(251.499954 0)"/>
     <use xlink:href="#NotoSansCJKjp-Regular-20" transform="translate(290.299942 0)"/>
     <use xlink:href="#NotoSansCJKjp-Regular-52" transform="translate(312.699936 0)"/>
     <use xlink:href="#NotoSansCJKjp-Regular-69" transform="translate(376.199921 0)"/>
     <use xlink:href="#NotoSansCJKjp-Regular-67" transform="translate(403.699905 0)"/>
     <use xlink:href="#NotoSansCJKjp-Regular-68" transform="translate(460.099899 0)"/>
     <use xlink:href="#NotoSansCJKjp-Regular-74" transform="translate(520.799896 0)"/>
     <use xlink:href="#NotoSansCJKjp-Regular-20" transform="translate(558.499893 0)"/>
     <use xlink:href="#NotoSansCJKjp-Regular-28" transform="translate(580.899887 0)"/>
     <use xlink:href="#NotoSansCJKjp-Regular-53" transform="translate(614.699875 0)"/>
     <use xlink:href="#NotoSansCJKjp-Regular-75" transform="translate(674.299866 0)"/>
     <use xlink:href="#NotoSansCJKjp-Regular-6d" transform="translate(734.999863 0)"/>
     <use xlink:href="#NotoSansCJKjp-Regular-20" transform="translate(827.599854 0)"/>
     <use xlink:href="#NotoSansCJKjp-Regular-38" transform="translate(849.999847 0)"/>
     <use xlink:href="#NotoSansCJKjp-Regular-35" transform="translate(905.499832 0)"/>
     <use xlink:href="#NotoSansCJKjp-Regular-29" transform="translate(960.999817 0)"/>
    </g>
   </g>
   <g id="text_4">
    <!-- Middle Left (Sum 85) -->
    <g style="fill: #666666" transform="translate(116.994178 213.282385) scale(0.09 -0.09)">
     <defs>
      <path id="NotoSansCJKjp-Regular-4d" d="M 646 0 
L 1178 0 
L 1178 2598 
C 1178 3002 1139 3571 1101 3981 
L 1126 3981 
L 1504 2912 
L 2394 474 
L 2790 474 
L 3674 2912 
L 4051 3981 
L 4077 3981 
C 4045 3571 4000 3002 4000 2598 
L 4000 0 
L 4550 0 
L 4550 4691 
L 3840 4691 
L 2944 2182 
C 2835 1862 2739 1530 2618 1203 
L 2592 1203 
C 2477 1530 2374 1862 2253 2182 
L 1357 4691 
L 646 4691 
L 646 0 
z
" transform="scale(0.015625)"/>
      <path id="NotoSansCJKjp-Regular-64" d="M 1773 -83 
C 2189 -83 2560 141 2829 410 
L 2848 410 
L 2899 0 
L 3379 0 
L 3379 5094 
L 2790 5094 
L 2790 3757 
L 2822 3162 
C 2515 3411 2253 3565 1843 3565 
C 1050 3565 339 2861 339 1734 
C 339 576 902 -83 1773 -83 
z
M 1901 410 
C 1293 410 941 902 941 1741 
C 941 2534 1389 3072 1946 3072 
C 2234 3072 2502 2970 2790 2707 
L 2790 883 
C 2502 563 2221 410 1901 410 
z
" transform="scale(0.015625)"/>
      <path id="NotoSansCJKjp-Regular-6c" d="M 1203 -83 
C 1363 -83 1459 -58 1542 -32 
L 1459 416 
C 1395 403 1370 403 1338 403 
C 1248 403 1178 474 1178 653 
L 1178 5094 
L 589 5094 
L 589 691 
C 589 198 768 -83 1203 -83 
z
" transform="scale(0.015625)"/>
     </defs>
     <use xlink:href="#NotoSansCJKjp-Regular-4d"/>
     <use xlink:href="#NotoSansCJKjp-Regular-69" transform="translate(81.199982 0)"/>
     <use xlink:href="#NotoSansCJKjp-Regular-64" transform="translate(108.699966 0)"/>
     <use xlink:href="#NotoSansCJKjp-Regular-64" transform="translate(170.699951 0)"/>
     <use xlink:href="#NotoSansCJKjp-Regular-6c" transform="translate(232.699936 0)"/>
     <use xlink:href="#NotoSansCJKjp-Regular-65" transform="translate(261.09993 0)"/>
     <use xlink:href="#NotoSansCJKjp-Regular-20" transform="translate(316.499924 0)"/>
     <use xlink:href="#NotoSansCJKjp-Regular-4c" transform="translate(338.899918 0)"/>
     <use xlink:href="#NotoSansCJKjp-Regular-65" transform="translate(393.199905 0)"/>
     <use xlink:href="#NotoSansCJKjp-Regular-66" transform="translate(448.599899 0)"/>
     <use xlink:href="#NotoSansCJKjp-Regular-74" transform="translate(481.099884 0)"/>
     <use xlink:href="#NotoSansCJKjp-Regular-20" transform="translate(518.799881 0)"/>
     <use xlink:href="#NotoSansCJKjp-Regular-28" transform="translate(541.199875 0)"/>
     <use xlink:href="#NotoSansCJKjp-Regular-53" transform="translate(574.999863 0)"/>
     <use xlink:href="#NotoSansCJKjp-Regular-75" transform="translate(634.599854 0)"/>
     <use xlink:href="#NotoSansCJKjp-Regular-6d" transform="translate(695.29985 0)"/>
     <use xlink:href="#NotoSansCJKjp-Regular-20" transform="translate(787.899841 0)"/>
     <use xlink:href="#NotoSansCJKjp-Regular-38" transform="translate(810.299835 0)"/>
     <use xlink:href="#NotoSansCJKjp-Regular-35" transform="translate(865.79982 0)"/>
     <use xlink:href="#NotoSansCJKjp-Regular-29" transform="translate(921.299805 0)"/>
    </g>
   </g>
   <g id="text_5">
    <!-- Center (Sum 85) -->
    <g style="fill: #666666" transform="translate(265.182706 213.282385) scale(0.09 -0.09)">
     <use xlink:href="#NotoSansCJKjp-Regular-43"/>
     <use xlink:href="#NotoSansCJKjp-Regular-65" transform="translate(63.799988 0)"/>
     <use xlink:href="#NotoSansCJKjp-Regular-6e" transform="translate(119.199982 0)"/>
     <use xlink:href="#NotoSansCJKjp-Regular-74" transform="translate(180.199966 0)"/>
     <use xlink:href="#NotoSansCJKjp-Regular-65" transform="translate(217.899963 0)"/>
     <use xlink:href="#NotoSansCJKjp-Regular-72" transform="translate(273.299957 0)"/>
     <use xlink:href="#NotoSansCJKjp-Regular-20" transform="translate(312.099945 0)"/>
     <use xlink:href="#NotoSansCJKjp-Regular-28" transform="translate(334.499939 0)"/>
     <use xlink:href="#NotoSansCJKjp-Regular-53" transform="translate(368.299927 0)"/>
     <use xlink:href="#NotoSansCJKjp-Regular-75" transform="translate(427.899918 0)"/>
     <use xlink:href="#NotoSansCJKjp-Regular-6d" transform="translate(488.599915 0)"/>
     <use xlink:href="#NotoSansCJKjp-Regular-20" transform="translate(581.199905 0)"/>
     <use xlink:href="#NotoSansCJKjp-Regular-38" transform="translate(603.599899 0)"/>
     <use xlink:href="#NotoSansCJKjp-Regular-35" transform="translate(659.099884 0)"/>
     <use xlink:href="#NotoSansCJKjp-Regular-29" transform="translate(714.599869 0)"/>
    </g>
   </g>
   <g id="text_6">
    <!-- Middle Right (Sum 85) -->
    <g style="fill: #666666" transform="translate(391.800765 213.287307) scale(0.09 -0.09)">
     <use xlink:href="#NotoSansCJKjp-Regular-4d"/>
     <use xlink:href="#NotoSansCJKjp-Regular-69" transform="translate(81.199982 0)"/>
     <use xlink:href="#NotoSansCJKjp-Regular-64" transform="translate(108.699966 0)"/>
     <use xlink:href="#NotoSansCJKjp-Regular-64" transform="translate(170.699951 0)"/>
     <use xlink:href="#NotoSansCJKjp-Regular-6c" transform="translate(232.699936 0)"/>
     <use xlink:href="#NotoSansCJKjp-Regular-65" transform="translate(261.09993 0)"/>
     <use xlink:href="#NotoSansCJKjp-Regular-20" transform="translate(316.499924 0)"/>
     <use xlink:href="#NotoSansCJKjp-Regular-52" transform="translate(338.899918 0)"/>
     <use xlink:href="#NotoSansCJKjp-Regular-69" transform="translate(402.399902 0)"/>
     <use xlink:href="#NotoSansCJKjp-Regular-67" transform="translate(429.899887 0)"/>
     <use xlink:href="#NotoSansCJKjp-Regular-68" transform="translate(486.299881 0)"/>
     <use xlink:href="#NotoSansCJKjp-Regular-74" transform="translate(546.999878 0)"/>
     <use xlink:href="#NotoSansCJKjp-Regular-20" transform="translate(584.699875 0)"/>
     <use xlink:href="#NotoSansCJKjp-Regular-28" transform="translate(607.099869 0)"/>
     <use xlink:href="#NotoSansCJKjp-Regular-53" transform="translate(640.899857 0)"/>
     <use xlink:href="#NotoSansCJKjp-Regular-75" transform="translate(700.499847 0)"/>
     <use xlink:href="#NotoSansCJKjp-Regular-6d" transform="translate(761.199844 0)"/>
     <use xlink:href="#NotoSansCJKjp-Regular-20" transform="translate(853.799835 0)"/>
     <use xlink:href="#NotoSansCJKjp-Regular-38" transform="translate(876.199829 0)"/>
     <use xlink:href="#NotoSansCJKjp-Regular-35" transform="translate(931.699814 0)"/>
     <use xlink:href="#NotoSansCJKjp-Regular-29" transform="translate(987.199799 0)"/>
    </g>
   </g>
   <g id="text_7">
    <!-- Lower Left (Sum 85) -->
    <g style="fill: #666666" transform="translate(118.219021 525.776299) scale(0.09 -0.09)">
     <defs>
      <path id="NotoSansCJKjp-Regular-6f" d="M 1939 -83 
C 2790 -83 3546 582 3546 1734 
C 3546 2893 2790 3565 1939 3565 
C 1088 3565 333 2893 333 1734 
C 333 582 1088 -83 1939 -83 
z
M 1939 403 
C 1338 403 934 934 934 1734 
C 934 2534 1338 3072 1939 3072 
C 2541 3072 2950 2534 2950 1734 
C 2950 934 2541 403 1939 403 
z
" transform="scale(0.015625)"/>
      <path id="NotoSansCJKjp-Regular-77" d="M 1139 0 
L 1818 0 
L 2310 1862 
C 2400 2195 2470 2522 2547 2874 
L 2579 2874 
C 2662 2522 2726 2202 2816 1875 
L 3315 0 
L 4026 0 
L 4966 3475 
L 4403 3475 
L 3898 1466 
C 3821 1133 3757 819 3686 499 
L 3654 499 
C 3571 819 3494 1133 3411 1466 
L 2867 3475 
L 2298 3475 
L 1754 1466 
C 1670 1133 1594 819 1523 499 
L 1491 499 
C 1421 819 1357 1133 1286 1466 
L 768 3475 
L 173 3475 
L 1139 0 
z
" transform="scale(0.015625)"/>
     </defs>
     <use xlink:href="#NotoSansCJKjp-Regular-4c"/>
     <use xlink:href="#NotoSansCJKjp-Regular-6f" transform="translate(54.299988 0)"/>
     <use xlink:href="#NotoSansCJKjp-Regular-77" transform="translate(114.899979 0)"/>
     <use xlink:href="#NotoSansCJKjp-Regular-65" transform="translate(195.09996 0)"/>
     <use xlink:href="#NotoSansCJKjp-Regular-72" transform="translate(250.499954 0)"/>
     <use xlink:href="#NotoSansCJKjp-Regular-20" transform="translate(289.299942 0)"/>
     <use xlink:href="#NotoSansCJKjp-Regular-4c" transform="translate(311.699936 0)"/>
     <use xlink:href="#NotoSansCJKjp-Regular-65" transform="translate(365.999924 0)"/>
     <use xlink:href="#NotoSansCJKjp-Regular-66" transform="translate(421.399918 0)"/>
     <use xlink:href="#NotoSansCJKjp-Regular-74" transform="translate(453.899902 0)"/>
     <use xlink:href="#NotoSansCJKjp-Regular-20" transform="translate(491.599899 0)"/>
     <use xlink:href="#NotoSansCJKjp-Regular-28" transform="translate(513.999893 0)"/>
     <use xlink:href="#NotoSansCJKjp-Regular-53" transform="translate(547.799881 0)"/>
     <use xlink:href="#NotoSansCJKjp-Regular-75" transform="translate(607.399872 0)"/>
     <use xlink:href="#NotoSansCJKjp-Regular-6d" transform="translate(668.099869 0)"/>
     <use xlink:href="#NotoSansCJKjp-Regular-20" transform="translate(760.69986 0)"/>
     <use xlink:href="#NotoSansCJKjp-Regular-38" transform="translate(783.099854 0)"/>
     <use xlink:href="#NotoSansCJKjp-Regular-35" transform="translate(838.599838 0)"/>
     <use xlink:href="#NotoSansCJKjp-Regular-29" transform="translate(894.099823 0)"/>
    </g>
   </g>
   <g id="text_8">
    <!-- Lower Center (Sum 85) -->
    <g style="fill: #666666" transform="translate(251.156065 525.776299) scale(0.09 -0.09)">
     <use xlink:href="#NotoSansCJKjp-Regular-4c"/>
     <use xlink:href="#NotoSansCJKjp-Regular-6f" transform="translate(54.299988 0)"/>
     <use xlink:href="#NotoSansCJKjp-Regular-77" transform="translate(114.899979 0)"/>
     <use xlink:href="#NotoSansCJKjp-Regular-65" transform="translate(195.09996 0)"/>
     <use xlink:href="#NotoSansCJKjp-Regular-72" transform="translate(250.499954 0)"/>
     <use xlink:href="#NotoSansCJKjp-Regular-20" transform="translate(289.299942 0)"/>
     <use xlink:href="#NotoSansCJKjp-Regular-43" transform="translate(311.699936 0)"/>
     <use xlink:href="#NotoSansCJKjp-Regular-65" transform="translate(375.499924 0)"/>
     <use xlink:href="#NotoSansCJKjp-Regular-6e" transform="translate(430.899918 0)"/>
     <use xlink:href="#NotoSansCJKjp-Regular-74" transform="translate(491.899902 0)"/>
     <use xlink:href="#NotoSansCJKjp-Regular-65" transform="translate(529.599899 0)"/>
     <use xlink:href="#NotoSansCJKjp-Regular-72" transform="translate(584.999893 0)"/>
     <use xlink:href="#NotoSansCJKjp-Regular-20" transform="translate(623.799881 0)"/>
     <use xlink:href="#NotoSansCJKjp-Regular-28" transform="translate(646.199875 0)"/>
     <use xlink:href="#NotoSansCJKjp-Regular-53" transform="translate(679.999863 0)"/>
     <use xlink:href="#NotoSansCJKjp-Regular-75" transform="translate(739.599854 0)"/>
     <use xlink:href="#NotoSansCJKjp-Regular-6d" transform="translate(800.29985 0)"/>
     <use xlink:href="#NotoSansCJKjp-Regular-20" transform="translate(892.899841 0)"/>
     <use xlink:href="#NotoSansCJKjp-Regular-38" transform="translate(915.299835 0)"/>
     <use xlink:href="#NotoSansCJKjp-Regular-35" transform="translate(970.79982 0)"/>
     <use xlink:href="#NotoSansCJKjp-Regular-29" transform="translate(1026.299805 0)"/>
    </g>
   </g>
   <g id="text_9">
    <!-- Lower Right (Sum 85) -->
    <g style="fill: #666666" transform="translate(393.025609 525.781221) scale(0.09 -0.09)">
     <use xlink:href="#NotoSansCJKjp-Regular-4c"/>
     <use xlink:href="#NotoSansCJKjp-Regular-6f" transform="translate(54.299988 0)"/>
     <use xlink:href="#NotoSansCJKjp-Regular-77" transform="translate(114.899979 0)"/>
     <use xlink:href="#NotoSansCJKjp-Regular-65" transform="translate(195.09996 0)"/>
     <use xlink:href="#NotoSansCJKjp-Regular-72" transform="translate(250.499954 0)"/>
     <use xlink:href="#NotoSansCJKjp-Regular-20" transform="translate(289.299942 0)"/>
     <use xlink:href="#NotoSansCJKjp-Regular-52" transform="translate(311.699936 0)"/>
     <use xlink:href="#NotoSansCJKjp-Regular-69" transform="translate(375.199921 0)"/>
     <use xlink:href="#NotoSansCJKjp-Regular-67" transform="translate(402.699905 0)"/>
     <use xlink:href="#NotoSansCJKjp-Regular-68" transform="translate(459.099899 0)"/>
     <use xlink:href="#NotoSansCJKjp-Regular-74" transform="translate(519.799896 0)"/>
     <use xlink:href="#NotoSansCJKjp-Regular-20" transform="translate(557.499893 0)"/>
     <use xlink:href="#NotoSansCJKjp-Regular-28" transform="translate(579.899887 0)"/>
     <use xlink:href="#NotoSansCJKjp-Regular-53" transform="translate(613.699875 0)"/>
     <use xlink:href="#NotoSansCJKjp-Regular-75" transform="translate(673.299866 0)"/>
     <use xlink:href="#NotoSansCJKjp-Regular-6d" transform="translate(733.999863 0)"/>
     <use xlink:href="#NotoSansCJKjp-Regular-20" transform="translate(826.599854 0)"/>
     <use xlink:href="#NotoSansCJKjp-Regular-38" transform="translate(848.999847 0)"/>
     <use xlink:href="#NotoSansCJKjp-Regular-35" transform="translate(904.499832 0)"/>
     <use xlink:href="#NotoSansCJKjp-Regular-29" transform="translate(959.999817 0)"/>
    </g>
   </g>
   <g id="line2d_1">
    <path d="M 90.531711 158.649128 
L 159.974803 158.649128 
" clip-path="url(#pb378e3bf0b)" style="fill: none; stroke: #555555; stroke-width: 1.8; stroke-linecap: round"/>
   </g>
   <g id="line2d_2">
    <path d="M 159.974803 158.649128 
L 229.417895 158.649128 
" clip-path="url(#pb378e3bf0b)" style="fill: none; stroke: #555555; stroke-width: 1.8; stroke-linecap: round"/>
   </g>
   <g id="line2d_3">
    <path d="M 229.417895 158.649128 
L 298.860987 158.649128 
" clip-path="url(#pb378e3bf0b)" style="fill: none; stroke: #555555; stroke-width: 1.8; stroke-linecap: round"/>
   </g>
   <g id="line2d_4">
    <path d="M 298.860987 158.649128 
L 368.304079 158.649128 
" clip-path="url(#pb378e3bf0b)" style="fill: none; stroke: #555555; stroke-width: 1.8; stroke-linecap: round"/>
   </g>
   <g id="line2d_5">
    <path d="M 368.304079 158.649128 
L 437.747171 158.649128 
" clip-path="url(#pb378e3bf0b)" style="fill: none; stroke: #555555; stroke-width: 1.8; stroke-linecap: round"/>
   </g>
   <g id="line2d_6">
    <path d="M 437.747171 158.649128 
L 507.190263 158.649128 
" clip-path="url(#pb378e3bf0b)" style="fill: none; stroke: #555555; stroke-width: 1.8; stroke-linecap: round"/>
   </g>
   <g id="line2d_7">
    <path d="M 90.531711 297.535313 
L 159.974803 297.535313 
" clip-path="url(#pb378e3bf0b)" style="fill: none; stroke: #555555; stroke-width: 1.8; stroke-linecap: round"/>
   </g>
   <g id="line2d_8">
    <path d="M 159.974803 297.535313 
L 229.417895 297.535313 
" clip-path="url(#pb378e3bf0b)" style="fill: none; stroke: #555555; stroke-width: 1.8; stroke-linecap: round"/>
   </g>
   <g id="line2d_9">
    <path d="M 229.417895 297.535313 
L 298.860987 297.535313 
" clip-path="url(#pb378e3bf0b)" style="fill: none; stroke: #555555; stroke-width: 1.8; stroke-linecap: round"/>
   </g>
   <g id="line2d_10">
    <path d="M 298.860987 297.535313 
L 368.304079 297.535313 
" clip-path="url(#pb378e3bf0b)" style="fill: none; stroke: #555555; stroke-width: 1.8; stroke-linecap: round"/>
   </g>
   <g id="line2d_11">
    <path d="M 368.304079 297.535313 
L 437.747171 297.535313 
" clip-path="url(#pb378e3bf0b)" style="fill: none; stroke: #555555; stroke-width: 1.8; stroke-linecap: round"/>
   </g>
   <g id="line2d_12">
    <path d="M 437.747171 297.535313 
L 507.190263 297.535313 
" clip-path="url(#pb378e3bf0b)" style="fill: none; stroke: #555555; stroke-width: 1.8; stroke-linecap: round"/>
   </g>
   <g id="line2d_13">
    <path d="M 90.531711 436.421497 
L 159.974803 436.421497 
" clip-path="url(#pb378e3bf0b)" style="fill: none; stroke: #555555; stroke-width: 1.8; stroke-linecap: round"/>
   </g>
   <g id="line2d_14">
    <path d="M 159.974803 436.421497 
L 229.417895 436.421497 
" clip-path="url(#pb378e3bf0b)" style="fill: none; stroke: #555555; stroke-width: 1.8; stroke-linecap: round"/>
   </g>
   <g id="line2d_15">
    <path d="M 229.417895 436.421497 
L 298.860987 436.421497 
" clip-path="url(#pb378e3bf0b)" style="fill: none; stroke: #555555; stroke-width: 1.8; stroke-linecap: round"/>
   </g>
   <g id="line2d_16">
    <path d="M 298.860987 436.421497 
L 368.304079 436.421497 
" clip-path="url(#pb378e3bf0b)" style="fill: none; stroke: #555555; stroke-width: 1.8; stroke-linecap: round"/>
   </g>
   <g id="line2d_17">
    <path d="M 368.304079 436.421497 
L 437.747171 436.421497 
" clip-path="url(#pb378e3bf0b)" style="fill: none; stroke: #555555; stroke-width: 1.8; stroke-linecap: round"/>
   </g>
   <g id="line2d_18">
    <path d="M 437.747171 436.421497 
L 507.190263 436.421497 
" clip-path="url(#pb378e3bf0b)" style="fill: none; stroke: #555555; stroke-width: 1.8; stroke-linecap: round"/>
   </g>
   <g id="line2d_19">
    <path d="M 159.974803 89.206036 
L 159.974803 158.649128 
" clip-path="url(#pb378e3bf0b)" style="fill: none; stroke: #555555; stroke-width: 1.8; stroke-linecap: round"/>
   </g>
   <g id="line2d_20">
    <path d="M 159.974803 158.649128 
L 159.974803 228.09222 
" clip-path="url(#pb378e3bf0b)" style="fill: none; stroke: #555555; stroke-width: 1.8; stroke-linecap: round"/>
   </g>
   <g id="line2d_21">
    <path d="M 159.974803 228.09222 
L 159.974803 297.535313 
" clip-path="url(#pb378e3bf0b)" style="fill: none; stroke: #555555; stroke-width: 1.8; stroke-linecap: round"/>
   </g>
   <g id="line2d_22">
    <path d="M 159.974803 297.535313 
L 159.974803 366.978405 
" clip-path="url(#pb378e3bf0b)" style="fill: none; stroke: #555555; stroke-width: 1.8; stroke-linecap: round"/>
   </g>
   <g id="line2d_23">
    <path d="M 159.974803 366.978405 
L 159.974803 436.421497 
" clip-path="url(#pb378e3bf0b)" style="fill: none; stroke: #555555; stroke-width: 1.8; stroke-linecap: round"/>
   </g>
   <g id="line2d_24">
    <path d="M 159.974803 436.421497 
L 159.974803 505.864589 
" clip-path="url(#pb378e3bf0b)" style="fill: none; stroke: #555555; stroke-width: 1.8; stroke-linecap: round"/>
   </g>
   <g id="line2d_25">
    <path d="M 298.860987 89.206036 
L 298.860987 158.649128 
" clip-path="url(#pb378e3bf0b)" style="fill: none; stroke: #555555; stroke-width: 1.8; stroke-linecap: round"/>
   </g>
   <g id="line2d_26">
    <path d="M 298.860987 158.649128 
L 298.860987 228.09222 
" clip-path="url(#pb378e3bf0b)" style="fill: none; stroke: #555555; stroke-width: 1.8; stroke-linecap: round"/>
   </g>
   <g id="line2d_27">
    <path d="M 298.860987 228.09222 
L 298.860987 297.535313 
" clip-path="url(#pb378e3bf0b)" style="fill: none; stroke: #555555; stroke-width: 1.8; stroke-linecap: round"/>
   </g>
   <g id="line2d_28">
    <path d="M 298.860987 297.535313 
L 298.860987 366.978405 
" clip-path="url(#pb378e3bf0b)" style="fill: none; stroke: #555555; stroke-width: 1.8; stroke-linecap: round"/>
   </g>
   <g id="line2d_29">
    <path d="M 298.860987 366.978405 
L 298.860987 436.421497 
" clip-path="url(#pb378e3bf0b)" style="fill: none; stroke: #555555; stroke-width: 1.8; stroke-linecap: round"/>
   </g>
   <g id="line2d_30">
    <path d="M 298.860987 436.421497 
L 298.860987 505.864589 
" clip-path="url(#pb378e3bf0b)" style="fill: none; stroke: #555555; stroke-width: 1.8; stroke-linecap: round"/>
   </g>
   <g id="line2d_31">
    <path d="M 437.747171 89.206036 
L 437.747171 158.649128 
" clip-path="url(#pb378e3bf0b)" style="fill: none; stroke: #555555; stroke-width: 1.8; stroke-linecap: round"/>
   </g>
   <g id="line2d_32">
    <path d="M 437.747171 158.649128 
L 437.747171 228.09222 
" clip-path="url(#pb378e3bf0b)" style="fill: none; stroke: #555555; stroke-width: 1.8; stroke-linecap: round"/>
   </g>
   <g id="line2d_33">
    <path d="M 437.747171 228.09222 
L 437.747171 297.535313 
" clip-path="url(#pb378e3bf0b)" style="fill: none; stroke: #555555; stroke-width: 1.8; stroke-linecap: round"/>
   </g>
   <g id="line2d_34">
    <path d="M 437.747171 297.535313 
L 437.747171 366.978405 
" clip-path="url(#pb378e3bf0b)" style="fill: none; stroke: #555555; stroke-width: 1.8; stroke-linecap: round"/>
   </g>
   <g id="line2d_35">
    <path d="M 437.747171 366.978405 
L 437.747171 436.421497 
" clip-path="url(#pb378e3bf0b)" style="fill: none; stroke: #555555; stroke-width: 1.8; stroke-linecap: round"/>
   </g>
   <g id="line2d_36">
    <path d="M 437.747171 436.421497 
L 437.747171 505.864589 
" clip-path="url(#pb378e3bf0b)" style="fill: none; stroke: #555555; stroke-width: 1.8; stroke-linecap: round"/>
   </g>
   <g id="patch_11">
    <path d="M 159.974803 104.483516 
C 164.026438 104.483516 167.912674 102.873785 170.777613 100.008846 
C 173.642551 97.143907 175.252283 93.257671 175.252283 89.206036 
C 175.252283 85.154401 173.642551 81.268165 170.777613 78.403226 
C 167.912674 75.538288 164.026438 73.928556 159.974803 73.928556 
C 155.923168 73.928556 152.036931 75.538288 149.171993 78.403226 
C 146.307054 81.268165 144.697322 85.154401 144.697322 89.206036 
C 144.697322 93.257671 146.307054 97.143907 149.171993 100.008846 
C 152.036931 102.873785 155.923168 104.483516 159.974803 104.483516 
z
" clip-path="url(#pb378e3bf0b)" style="fill: #cfe0f5; stroke: #3b6fae; stroke-width: 1.5; stroke-linejoin: miter"/>
   </g>
   <g id="patch_12">
    <path d="M 298.860987 104.483516 
C 302.912622 104.483516 306.798858 102.873785 309.663797 100.008846 
C 312.528735 97.143907 314.138467 93.257671 314.138467 89.206036 
C 314.138467 85.154401 312.528735 81.268165 309.663797 78.403226 
C 306.798858 75.538288 302.912622 73.928556 298.860987 73.928556 
C 294.809352 73.928556 290.923116 75.538288 288.058177 78.403226 
C 285.193238 81.268165 283.583507 85.154401 283.583507 89.206036 
C 283.583507 93.257671 285.193238 97.143907 288.058177 100.008846 
C 290.923116 102.873785 294.809352 104.483516 298.860987 104.483516 
z
" clip-path="url(#pb378e3bf0b)" style="fill: #cfe0f5; stroke: #3b6fae; stroke-width: 1.5; stroke-linejoin: miter"/>
   </g>
   <g id="patch_13">
    <path d="M 437.747171 104.483516 
C 441.798806 104.483516 445.685042 102.873785 448.549981 100.008846 
C 451.41492 97.143907 453.024651 93.257671 453.024651 89.206036 
C 453.024651 85.154401 451.41492 81.268165 448.549981 78.403226 
C 445.685042 75.538288 441.798806 73.928556 437.747171 73.928556 
C 433.695536 73.928556 429.8093 75.538288 426.944361 78.403226 
C 424.079422 81.268165 422.469691 85.154401 422.469691 89.206036 
C 422.469691 93.257671 424.079422 97.143907 426.944361 100.008846 
C 429.8093 102.873785 433.695536 104.483516 437.747171 104.483516 
z
" clip-path="url(#pb378e3bf0b)" style="fill: #444444; stroke: #111111; stroke-width: 1.5; stroke-linejoin: miter"/>
   </g>
   <g id="patch_14">
    <path d="M 90.531711 173.926609 
C 94.583346 173.926609 98.469582 172.316877 101.33452 169.451938 
C 104.199459 166.587 105.809191 162.700763 105.809191 158.649128 
C 105.809191 154.597493 104.199459 150.711257 101.33452 147.846318 
C 98.469582 144.98138 94.583346 143.371648 90.531711 143.371648 
C 86.480075 143.371648 82.593839 144.98138 79.728901 147.846318 
C 76.863962 150.711257 75.25423 154.597493 75.25423 158.649128 
C 75.25423 162.700763 76.863962 166.587 79.728901 169.451938 
C 82.593839 172.316877 86.480075 173.926609 90.531711 173.926609 
z
" clip-path="url(#pb378e3bf0b)" style="fill: #f4dfa0; stroke: #b18400; stroke-width: 1.5; stroke-linejoin: miter"/>
   </g>
   <g id="patch_15">
    <path d="M 159.974803 173.926609 
C 164.026438 173.926609 167.912674 172.316877 170.777613 169.451938 
C 173.642551 166.587 175.252283 162.700763 175.252283 158.649128 
C 175.252283 154.597493 173.642551 150.711257 170.777613 147.846318 
C 167.912674 144.98138 164.026438 143.371648 159.974803 143.371648 
C 155.923168 143.371648 152.036931 144.98138 149.171993 147.846318 
C 146.307054 150.711257 144.697322 154.597493 144.697322 158.649128 
C 144.697322 162.700763 146.307054 166.587 149.171993 169.451938 
C 152.036931 172.316877 155.923168 173.926609 159.974803 173.926609 
z
" clip-path="url(#pb378e3bf0b)" style="fill: #d8d8d8; stroke: #555555; stroke-width: 1.5; stroke-linejoin: miter"/>
   </g>
   <g id="patch_16">
    <path d="M 229.417895 173.926609 
C 233.46953 173.926609 237.355766 172.316877 240.220705 169.451938 
C 243.085643 166.587 244.695375 162.700763 244.695375 158.649128 
C 244.695375 154.597493 243.085643 150.711257 240.220705 147.846318 
C 237.355766 144.98138 233.46953 143.371648 229.417895 143.371648 
C 225.36626 143.371648 221.480024 144.98138 218.615085 147.846318 
C 215.750146 150.711257 214.140414 154.597493 214.140414 158.649128 
C 214.140414 162.700763 215.750146 166.587 218.615085 169.451938 
C 221.480024 172.316877 225.36626 173.926609 229.417895 173.926609 
z
" clip-path="url(#pb378e3bf0b)" style="fill: #444444; stroke: #111111; stroke-width: 1.5; stroke-linejoin: miter"/>
   </g>
   <g id="patch_17">
    <path d="M 298.860987 173.926609 
C 302.912622 173.926609 306.798858 172.316877 309.663797 169.451938 
C 312.528735 166.587 314.138467 162.700763 314.138467 158.649128 
C 314.138467 154.597493 312.528735 150.711257 309.663797 147.846318 
C 306.798858 144.98138 302.912622 143.371648 298.860987 143.371648 
C 294.809352 143.371648 290.923116 144.98138 288.058177 147.846318 
C 285.193238 150.711257 283.583507 154.597493 283.583507 158.649128 
C 283.583507 162.700763 285.193238 166.587 288.058177 169.451938 
C 290.923116 172.316877 294.809352 173.926609 298.860987 173.926609 
z
" clip-path="url(#pb378e3bf0b)" style="fill: #d8d8d8; stroke: #555555; stroke-width: 1.5; stroke-linejoin: miter"/>
   </g>
   <g id="patch_18">
    <path d="M 368.304079 173.926609 
C 372.355714 173.926609 376.24195 172.316877 379.106889 169.451938 
C 381.971828 166.587 383.581559 162.700763 383.581559 158.649128 
C 383.581559 154.597493 381.971828 150.711257 379.106889 147.846318 
C 376.24195 144.98138 372.355714 143.371648 368.304079 143.371648 
C 364.252444 143.371648 360.366208 144.98138 357.501269 147.846318 
C 354.63633 150.711257 353.026599 154.597493 353.026599 158.649128 
C 353.026599 162.700763 354.63633 166.587 357.501269 169.451938 
C 360.366208 172.316877 364.252444 173.926609 368.304079 173.926609 
z
" clip-path="url(#pb378e3bf0b)" style="fill: #d8d8d8; stroke: #555555; stroke-width: 1.5; stroke-linejoin: miter"/>
   </g>
   <g id="patch_19">
    <path d="M 437.747171 173.926609 
C 441.798806 173.926609 445.685042 172.316877 448.549981 169.451938 
C 451.41492 166.587 453.024651 162.700763 453.024651 158.649128 
C 453.024651 154.597493 451.41492 150.711257 448.549981 147.846318 
C 445.685042 144.98138 441.798806 143.371648 437.747171 143.371648 
C 433.695536 143.371648 429.8093 144.98138 426.944361 147.846318 
C 424.079422 150.711257 422.469691 154.597493 422.469691 158.649128 
C 422.469691 162.700763 424.079422 166.587 426.944361 169.451938 
C 429.8093 172.316877 433.695536 173.926609 437.747171 173.926609 
z
" clip-path="url(#pb378e3bf0b)" style="fill: #f3cccc; stroke: #b53a3a; stroke-width: 1.5; stroke-linejoin: miter"/>
   </g>
   <g id="patch_20">
    <path d="M 507.190263 173.926609 
C 511.241898 173.926609 515.128134 172.316877 517.993073 169.451938 
C 520.858012 166.587 522.467743 162.700763 522.467743 158.649128 
C 522.467743 154.597493 520.858012 150.711257 517.993073 147.846318 
C 515.128134 144.98138 511.241898 143.371648 507.190263 143.371648 
C 503.138628 143.371648 499.252392 144.98138 496.387453 147.846318 
C 493.522515 150.711257 491.912783 154.597493 491.912783 158.649128 
C 491.912783 162.700763 493.522515 166.587 496.387453 169.451938 
C 499.252392 172.316877 503.138628 173.926609 507.190263 173.926609 
z
" clip-path="url(#pb378e3bf0b)" style="fill: #cfe0f5; stroke: #3b6fae; stroke-width: 1.5; stroke-linejoin: miter"/>
   </g>
   <g id="patch_21">
    <path d="M 159.974803 243.369701 
C 164.026438 243.369701 167.912674 241.759969 170.777613 238.89503 
C 173.642551 236.030092 175.252283 232.143856 175.252283 228.09222 
C 175.252283 224.040585 173.642551 220.154349 170.777613 217.289411 
C 167.912674 214.424472 164.026438 212.81474 159.974803 212.81474 
C 155.923168 212.81474 152.036931 214.424472 149.171993 217.289411 
C 146.307054 220.154349 144.697322 224.040585 144.697322 228.09222 
C 144.697322 232.143856 146.307054 236.030092 149.171993 238.89503 
C 152.036931 241.759969 155.923168 243.369701 159.974803 243.369701 
z
" clip-path="url(#pb378e3bf0b)" style="fill: #f3cccc; stroke: #b53a3a; stroke-width: 1.5; stroke-linejoin: miter"/>
   </g>
   <g id="patch_22">
    <path d="M 298.860987 243.369701 
C 302.912622 243.369701 306.798858 241.759969 309.663797 238.89503 
C 312.528735 236.030092 314.138467 232.143856 314.138467 228.09222 
C 314.138467 224.040585 312.528735 220.154349 309.663797 217.289411 
C 306.798858 214.424472 302.912622 212.81474 298.860987 212.81474 
C 294.809352 212.81474 290.923116 214.424472 288.058177 217.289411 
C 285.193238 220.154349 283.583507 224.040585 283.583507 228.09222 
C 283.583507 232.143856 285.193238 236.030092 288.058177 238.89503 
C 290.923116 241.759969 294.809352 243.369701 298.860987 243.369701 
z
" clip-path="url(#pb378e3bf0b)" style="fill: #cfe0f5; stroke: #3b6fae; stroke-width: 1.5; stroke-linejoin: miter"/>
   </g>
   <g id="patch_23">
    <path d="M 437.747171 243.369701 
C 441.798806 243.369701 445.685042 241.759969 448.549981 238.89503 
C 451.41492 236.030092 453.024651 232.143856 453.024651 228.09222 
C 453.024651 224.040585 451.41492 220.154349 448.549981 217.289411 
C 445.685042 214.424472 441.798806 212.81474 437.747171 212.81474 
C 433.695536 212.81474 429.8093 214.424472 426.944361 217.289411 
C 424.079422 220.154349 422.469691 224.040585 422.469691 228.09222 
C 422.469691 232.143856 424.079422 236.030092 426.944361 238.89503 
C 429.8093 241.759969 433.695536 243.369701 437.747171 243.369701 
z
" clip-path="url(#pb378e3bf0b)" style="fill: #f4dfa0; stroke: #b18400; stroke-width: 1.5; stroke-linejoin: miter"/>
   </g>
   <g id="patch_24">
    <path d="M 90.531711 312.812793 
C 94.583346 312.812793 98.469582 311.203061 101.33452 308.338122 
C 104.199459 305.473184 105.809191 301.586948 105.809191 297.535312 
C 105.809191 293.483677 104.199459 289.597441 101.33452 286.732503 
C 98.469582 283.867564 94.583346 282.257832 90.531711 282.257832 
C 86.480075 282.257832 82.593839 283.867564 79.728901 286.732503 
C 76.863962 289.597441 75.25423 293.483677 75.25423 297.535312 
C 75.25423 301.586948 76.863962 305.473184 79.728901 308.338122 
C 82.593839 311.203061 86.480075 312.812793 90.531711 312.812793 
z
" clip-path="url(#pb378e3bf0b)" style="fill: #444444; stroke: #111111; stroke-width: 1.5; stroke-linejoin: miter"/>
   </g>
   <g id="patch_25">
    <path d="M 159.974803 312.812793 
C 164.026438 312.812793 167.912674 311.203061 170.777613 308.338122 
C 173.642551 305.473184 175.252283 301.586948 175.252283 297.535312 
C 175.252283 293.483677 173.642551 289.597441 170.777613 286.732503 
C 167.912674 283.867564 164.026438 282.257832 159.974803 282.257832 
C 155.923168 282.257832 152.036931 283.867564 149.171993 286.732503 
C 146.307054 289.597441 144.697322 293.483677 144.697322 297.535312 
C 144.697322 301.586948 146.307054 305.473184 149.171993 308.338122 
C 152.036931 311.203061 155.923168 312.812793 159.974803 312.812793 
z
" clip-path="url(#pb378e3bf0b)" style="fill: #cfe0f5; stroke: #3b6fae; stroke-width: 1.5; stroke-linejoin: miter"/>
   </g>
   <g id="patch_26">
    <path d="M 229.417895 312.812793 
C 233.46953 312.812793 237.355766 311.203061 240.220705 308.338122 
C 243.085643 305.473184 244.695375 301.586948 244.695375 297.535312 
C 244.695375 293.483677 243.085643 289.597441 240.220705 286.732503 
C 237.355766 283.867564 233.46953 282.257832 229.417895 282.257832 
C 225.36626 282.257832 221.480024 283.867564 218.615085 286.732503 
C 215.750146 289.597441 214.140414 293.483677 214.140414 297.535312 
C 214.140414 301.586948 215.750146 305.473184 218.615085 308.338122 
C 221.480024 311.203061 225.36626 312.812793 229.417895 312.812793 
z
" clip-path="url(#pb378e3bf0b)" style="fill: #d8d8d8; stroke: #555555; stroke-width: 1.5; stroke-linejoin: miter"/>
   </g>
   <g id="patch_27">
    <path d="M 298.860987 312.812793 
C 302.912622 312.812793 306.798858 311.203061 309.663797 308.338122 
C 312.528735 305.473184 314.138467 301.586948 314.138467 297.535312 
C 314.138467 293.483677 312.528735 289.597441 309.663797 286.732503 
C 306.798858 283.867564 302.912622 282.257832 298.860987 282.257832 
C 294.809352 282.257832 290.923116 283.867564 288.058177 286.732503 
C 285.193238 289.597441 283.583507 293.483677 283.583507 297.535312 
C 283.583507 301.586948 285.193238 305.473184 288.058177 308.338122 
C 290.923116 311.203061 294.809352 312.812793 298.860987 312.812793 
z
" clip-path="url(#pb378e3bf0b)" style="fill: #f4dfa0; stroke: #b18400; stroke-width: 1.5; stroke-linejoin: miter"/>
   </g>
   <g id="patch_28">
    <path d="M 368.304079 312.812793 
C 372.355714 312.812793 376.24195 311.203061 379.106889 308.338122 
C 381.971828 305.473184 383.581559 301.586948 383.581559 297.535312 
C 383.581559 293.483677 381.971828 289.597441 379.106889 286.732503 
C 376.24195 283.867564 372.355714 282.257832 368.304079 282.257832 
C 364.252444 282.257832 360.366208 283.867564 357.501269 286.732503 
C 354.63633 289.597441 353.026599 293.483677 353.026599 297.535312 
C 353.026599 301.586948 354.63633 305.473184 357.501269 308.338122 
C 360.366208 311.203061 364.252444 312.812793 368.304079 312.812793 
z
" clip-path="url(#pb378e3bf0b)" style="fill: #444444; stroke: #111111; stroke-width: 1.5; stroke-linejoin: miter"/>
   </g>
   <g id="patch_29">
    <path d="M 437.747171 312.812793 
C 441.798806 312.812793 445.685042 311.203061 448.549981 308.338122 
C 451.41492 305.473184 453.024651 301.586948 453.024651 297.535312 
C 453.024651 293.483677 451.41492 289.597441 448.549981 286.732503 
C 445.685042 283.867564 441.798806 282.257832 437.747171 282.257832 
C 433.695536 282.257832 429.8093 283.867564 426.944361 286.732503 
C 424.079422 289.597441 422.469691 293.483677 422.469691 297.535312 
C 422.469691 301.586948 424.079422 305.473184 426.944361 308.338122 
C 429.8093 311.203061 433.695536 312.812793 437.747171 312.812793 
z
" clip-path="url(#pb378e3bf0b)" style="fill: #f3cccc; stroke: #b53a3a; stroke-width: 1.5; stroke-linejoin: miter"/>
   </g>
   <g id="patch_30">
    <path d="M 507.190263 312.812793 
C 511.241898 312.812793 515.128134 311.203061 517.993073 308.338122 
C 520.858012 305.473184 522.467743 301.586948 522.467743 297.535312 
C 522.467743 293.483677 520.858012 289.597441 517.993073 286.732503 
C 515.128134 283.867564 511.241898 282.257832 507.190263 282.257832 
C 503.138628 282.257832 499.252392 283.867564 496.387453 286.732503 
C 493.522515 289.597441 491.912783 293.483677 491.912783 297.535312 
C 491.912783 301.586948 493.522515 305.473184 496.387453 308.338122 
C 499.252392 311.203061 503.138628 312.812793 507.190263 312.812793 
z
" clip-path="url(#pb378e3bf0b)" style="fill: #f4dfa0; stroke: #b18400; stroke-width: 1.5; stroke-linejoin: miter"/>
   </g>
   <g id="patch_31">
    <path d="M 159.974803 382.255885 
C 164.026438 382.255885 167.912674 380.646153 170.777613 377.781214 
C 173.642551 374.916276 175.252283 371.03004 175.252283 366.978405 
C 175.252283 362.926769 173.642551 359.040533 170.777613 356.175595 
C 167.912674 353.310656 164.026438 351.700924 159.974803 351.700924 
C 155.923168 351.700924 152.036931 353.310656 149.171993 356.175595 
C 146.307054 359.040533 144.697322 362.926769 144.697322 366.978405 
C 144.697322 371.03004 146.307054 374.916276 149.171993 377.781214 
C 152.036931 380.646153 155.923168 382.255885 159.974803 382.255885 
z
" clip-path="url(#pb378e3bf0b)" style="fill: #f4dfa0; stroke: #b18400; stroke-width: 1.5; stroke-linejoin: miter"/>
   </g>
   <g id="patch_32">
    <path d="M 298.860987 382.255885 
C 302.912622 382.255885 306.798858 380.646153 309.663797 377.781214 
C 312.528735 374.916276 314.138467 371.03004 314.138467 366.978405 
C 314.138467 362.926769 312.528735 359.040533 309.663797 356.175595 
C 306.798858 353.310656 302.912622 351.700924 298.860987 351.700924 
C 294.809352 351.700924 290.923116 353.310656 288.058177 356.175595 
C 285.193238 359.040533 283.583507 362.926769 283.583507 366.978405 
C 283.583507 371.03004 285.193238 374.916276 288.058177 377.781214 
C 290.923116 380.646153 294.809352 382.255885 298.860987 382.255885 
z
" clip-path="url(#pb378e3bf0b)" style="fill: #f3cccc; stroke: #b53a3a; stroke-width: 1.5; stroke-linejoin: miter"/>
   </g>
   <g id="patch_33">
    <path d="M 437.747171 382.255885 
C 441.798806 382.255885 445.685042 380.646153 448.549981 377.781214 
C 451.41492 374.916276 453.024651 371.03004 453.024651 366.978405 
C 453.024651 362.926769 451.41492 359.040533 448.549981 356.175595 
C 445.685042 353.310656 441.798806 351.700924 437.747171 351.700924 
C 433.695536 351.700924 429.8093 353.310656 426.944361 356.175595 
C 424.079422 359.040533 422.469691 362.926769 422.469691 366.978405 
C 422.469691 371.03004 424.079422 374.916276 426.944361 377.781214 
C 429.8093 380.646153 433.695536 382.255885 437.747171 382.255885 
z
" clip-path="url(#pb378e3bf0b)" style="fill: #f3cccc; stroke: #b53a3a; stroke-width: 1.5; stroke-linejoin: miter"/>
   </g>
   <g id="patch_34">
    <path d="M 90.531711 451.698977 
C 94.583346 451.698977 98.469582 450.089245 101.33452 447.224307 
C 104.199459 444.359368 105.809191 440.473132 105.809191 436.421497 
C 105.809191 432.369862 104.199459 428.483625 101.33452 425.618687 
C 98.469582 422.753748 94.583346 421.144016 90.531711 421.144016 
C 86.480075 421.144016 82.593839 422.753748 79.728901 425.618687 
C 76.863962 428.483625 75.25423 432.369862 75.25423 436.421497 
C 75.25423 440.473132 76.863962 444.359368 79.728901 447.224307 
C 82.593839 450.089245 86.480075 451.698977 90.531711 451.698977 
z
" clip-path="url(#pb378e3bf0b)" style="fill: #d8d8d8; stroke: #555555; stroke-width: 1.5; stroke-linejoin: miter"/>
   </g>
   <g id="patch_35">
    <path d="M 159.974803 451.698977 
C 164.026438 451.698977 167.912674 450.089245 170.777613 447.224307 
C 173.642551 444.359368 175.252283 440.473132 175.252283 436.421497 
C 175.252283 432.369862 173.642551 428.483625 170.777613 425.618687 
C 167.912674 422.753748 164.026438 421.144016 159.974803 421.144016 
C 155.923168 421.144016 152.036931 422.753748 149.171993 425.618687 
C 146.307054 428.483625 144.697322 432.369862 144.697322 436.421497 
C 144.697322 440.473132 146.307054 444.359368 149.171993 447.224307 
C 152.036931 450.089245 155.923168 451.698977 159.974803 451.698977 
z
" clip-path="url(#pb378e3bf0b)" style="fill: #cfe0f5; stroke: #3b6fae; stroke-width: 1.5; stroke-linejoin: miter"/>
   </g>
   <g id="patch_36">
    <path d="M 229.417895 451.698977 
C 233.46953 451.698977 237.355766 450.089245 240.220705 447.224307 
C 243.085643 444.359368 244.695375 440.473132 244.695375 436.421497 
C 244.695375 432.369862 243.085643 428.483625 240.220705 425.618687 
C 237.355766 422.753748 233.46953 421.144016 229.417895 421.144016 
C 225.36626 421.144016 221.480024 422.753748 218.615085 425.618687 
C 215.750146 428.483625 214.140414 432.369862 214.140414 436.421497 
C 214.140414 440.473132 215.750146 444.359368 218.615085 447.224307 
C 221.480024 450.089245 225.36626 451.698977 229.417895 451.698977 
z
" clip-path="url(#pb378e3bf0b)" style="fill: #444444; stroke: #111111; stroke-width: 1.5; stroke-linejoin: miter"/>
   </g>
   <g id="patch_37">
    <path d="M 298.860987 451.698977 
C 302.912622 451.698977 306.798858 450.089245 309.663797 447.224307 
C 312.528735 444.359368 314.138467 440.473132 314.138467 436.421497 
C 314.138467 432.369862 312.528735 428.483625 309.663797 425.618687 
C 306.798858 422.753748 302.912622 421.144016 298.860987 421.144016 
C 294.809352 421.144016 290.923116 422.753748 288.058177 425.618687 
C 285.193238 428.483625 283.583507 432.369862 283.583507 436.421497 
C 283.583507 440.473132 285.193238 444.359368 288.058177 447.224307 
C 290.923116 450.089245 294.809352 451.698977 298.860987 451.698977 
z
" clip-path="url(#pb378e3bf0b)" style="fill: #444444; stroke: #111111; stroke-width: 1.5; stroke-linejoin: miter"/>
   </g>
   <g id="patch_38">
    <path d="M 368.304079 451.698977 
C 372.355714 451.698977 376.24195 450.089245 379.106889 447.224307 
C 381.971828 444.359368 383.581559 440.473132 383.581559 436.421497 
C 383.581559 432.369862 381.971828 428.483625 379.106889 425.618687 
C 376.24195 422.753748 372.355714 421.144016 368.304079 421.144016 
C 364.252444 421.144016 360.366208 422.753748 357.501269 425.618687 
C 354.63633 428.483625 353.026599 432.369862 353.026599 436.421497 
C 353.026599 440.473132 354.63633 444.359368 357.501269 447.224307 
C 360.366208 450.089245 364.252444 451.698977 368.304079 451.698977 
z
" clip-path="url(#pb378e3bf0b)" style="fill: #d8d8d8; stroke: #555555; stroke-width: 1.5; stroke-linejoin: miter"/>
   </g>
   <g id="patch_39">
    <path d="M 437.747171 451.698977 
C 441.798806 451.698977 445.685042 450.089245 448.549981 447.224307 
C 451.41492 444.359368 453.024651 440.473132 453.024651 436.421497 
C 453.024651 432.369862 451.41492 428.483625 448.549981 425.618687 
C 445.685042 422.753748 441.798806 421.144016 437.747171 421.144016 
C 433.695536 421.144016 429.8093 422.753748 426.944361 425.618687 
C 424.079422 428.483625 422.469691 432.369862 422.469691 436.421497 
C 422.469691 440.473132 424.079422 444.359368 426.944361 447.224307 
C 429.8093 450.089245 433.695536 451.698977 437.747171 451.698977 
z
" clip-path="url(#pb378e3bf0b)" style="fill: #444444; stroke: #111111; stroke-width: 1.5; stroke-linejoin: miter"/>
   </g>
   <g id="patch_40">
    <path d="M 507.190263 451.698977 
C 511.241898 451.698977 515.128134 450.089245 517.993073 447.224307 
C 520.858012 444.359368 522.467743 440.473132 522.467743 436.421497 
C 522.467743 432.369862 520.858012 428.483625 517.993073 425.618687 
C 515.128134 422.753748 511.241898 421.144016 507.190263 421.144016 
C 503.138628 421.144016 499.252392 422.753748 496.387453 425.618687 
C 493.522515 428.483625 491.912783 432.369862 491.912783 436.421497 
C 491.912783 440.473132 493.522515 444.359368 496.387453 447.224307 
C 499.252392 450.089245 503.138628 451.698977 507.190263 451.698977 
z
" clip-path="url(#pb378e3bf0b)" style="fill: #f4dfa0; stroke: #b18400; stroke-width: 1.5; stroke-linejoin: miter"/>
   </g>
   <g id="patch_41">
    <path d="M 159.974803 521.142069 
C 164.026438 521.142069 167.912674 519.532337 170.777613 516.667399 
C 173.642551 513.80246 175.252283 509.916224 175.252283 505.864589 
C 175.252283 501.812954 173.642551 497.926718 170.777613 495.061779 
C 167.912674 492.19684 164.026438 490.587109 159.974803 490.587109 
C 155.923168 490.587109 152.036931 492.19684 149.171993 495.061779 
C 146.307054 497.926718 144.697322 501.812954 144.697322 505.864589 
C 144.697322 509.916224 146.307054 513.80246 149.171993 516.667399 
C 152.036931 519.532337 155.923168 521.142069 159.974803 521.142069 
z
" clip-path="url(#pb378e3bf0b)" style="fill: #f3cccc; stroke: #b53a3a; stroke-width: 1.5; stroke-linejoin: miter"/>
   </g>
   <g id="patch_42">
    <path d="M 298.860987 521.142069 
C 302.912622 521.142069 306.798858 519.532337 309.663797 516.667399 
C 312.528735 513.80246 314.138467 509.916224 314.138467 505.864589 
C 314.138467 501.812954 312.528735 497.926718 309.663797 495.061779 
C 306.798858 492.19684 302.912622 490.587109 298.860987 490.587109 
C 294.809352 490.587109 290.923116 492.19684 288.058177 495.061779 
C 285.193238 497.926718 283.583507 501.812954 283.583507 505.864589 
C 283.583507 509.916224 285.193238 513.80246 288.058177 516.667399 
C 290.923116 519.532337 294.809352 521.142069 298.860987 521.142069 
z
" clip-path="url(#pb378e3bf0b)" style="fill: #f3cccc; stroke: #b53a3a; stroke-width: 1.5; stroke-linejoin: miter"/>
   </g>
   <g id="patch_43">
    <path d="M 437.747171 521.142069 
C 441.798806 521.142069 445.685042 519.532337 448.549981 516.667399 
C 451.41492 513.80246 453.024651 509.916224 453.024651 505.864589 
C 453.024651 501.812954 451.41492 497.926718 448.549981 495.061779 
C 445.685042 492.19684 441.798806 490.587109 437.747171 490.587109 
C 433.695536 490.587109 429.8093 492.19684 426.944361 495.061779 
C 424.079422 497.926718 422.469691 501.812954 422.469691 505.864589 
C 422.469691 509.916224 424.079422 513.80246 426.944361 516.667399 
C 429.8093 519.532337 433.695536 521.142069 437.747171 521.142069 
z
" clip-path="url(#pb378e3bf0b)" style="fill: #cfe0f5; stroke: #3b6fae; stroke-width: 1.5; stroke-linejoin: miter"/>
   </g>
   <g id="text_10">
    <!-- 23 -->
    <g style="fill: #244c7a" transform="translate(154.147303 92.18213) scale(0.105 -0.105)">
     <defs>
      <path id="NotoSansCJKjp-Regular-32" d="M 282 0 
L 3232 0 
L 3232 506 
L 1933 506 
C 1696 506 1408 480 1165 461 
C 2266 1504 3008 2458 3008 3398 
C 3008 4230 2477 4774 1638 4774 
C 1043 4774 634 4506 256 4090 
L 595 3757 
C 858 4070 1184 4301 1568 4301 
C 2150 4301 2432 3910 2432 3373 
C 2432 2566 1754 1632 282 346 
L 282 0 
z
" transform="scale(0.015625)"/>
      <path id="NotoSansCJKjp-Regular-33" d="M 1683 -83 
C 2522 -83 3194 416 3194 1254 
C 3194 1901 2752 2310 2202 2445 
L 2202 2477 
C 2701 2650 3034 3034 3034 3603 
C 3034 4346 2458 4774 1664 4774 
C 1126 4774 710 4538 358 4218 
L 672 3846 
C 941 4115 1267 4301 1645 4301 
C 2138 4301 2438 4006 2438 3558 
C 2438 3053 2112 2662 1139 2662 
L 1139 2214 
C 2227 2214 2598 1843 2598 1274 
C 2598 736 2208 403 1645 403 
C 1114 403 762 659 486 941 
L 186 563 
C 493 224 954 -83 1683 -83 
z
" transform="scale(0.015625)"/>
     </defs>
     <use xlink:href="#NotoSansCJKjp-Regular-32"/>
     <use xlink:href="#NotoSansCJKjp-Regular-33" transform="translate(55.499985 0)"/>
    </g>
   </g>
   <g id="text_11">
    <!-- 28 -->
    <g style="fill: #244c7a" transform="translate(293.033487 92.18213) scale(0.105 -0.105)">
     <use xlink:href="#NotoSansCJKjp-Regular-32"/>
     <use xlink:href="#NotoSansCJKjp-Regular-38" transform="translate(55.499985 0)"/>
    </g>
   </g>
   <g id="text_12">
    <!-- 21 -->
    <g style="fill: #ffffff" transform="translate(431.919671 92.18213) scale(0.105 -0.105)">
     <defs>
      <path id="NotoSansCJKjp-Regular-31" d="M 563 0 
L 3136 0 
L 3136 486 
L 2195 486 
L 2195 4691 
L 1747 4691 
C 1491 4544 1190 4435 774 4358 
L 774 3987 
L 1613 3987 
L 1613 486 
L 563 486 
L 563 0 
z
" transform="scale(0.015625)"/>
     </defs>
     <use xlink:href="#NotoSansCJKjp-Regular-32"/>
     <use xlink:href="#NotoSansCJKjp-Regular-31" transform="translate(55.499985 0)"/>
    </g>
   </g>
   <g id="text_13">
    <!-- 20 -->
    <g style="fill: #6a5000" transform="translate(84.704211 161.625222) scale(0.105 -0.105)">
     <defs>
      <path id="NotoSansCJKjp-Regular-30" d="M 1779 -83 
C 2669 -83 3238 723 3238 2362 
C 3238 3987 2669 4774 1779 4774 
C 883 4774 320 3987 320 2362 
C 320 723 883 -83 1779 -83 
z
M 1779 390 
C 1248 390 883 986 883 2362 
C 883 3731 1248 4314 1779 4314 
C 2310 4314 2675 3731 2675 2362 
C 2675 986 2310 390 1779 390 
z
" transform="scale(0.015625)"/>
     </defs>
     <use xlink:href="#NotoSansCJKjp-Regular-32"/>
     <use xlink:href="#NotoSansCJKjp-Regular-30" transform="translate(55.499985 0)"/>
    </g>
   </g>
   <g id="text_14">
    <!-- 4 -->
    <g style="fill: #222222" transform="translate(157.061053 161.625222) scale(0.105 -0.105)">
     <defs>
      <path id="NotoSansCJKjp-Regular-34" d="M 2176 0 
L 2726 0 
L 2726 1293 
L 3354 1293 
L 3354 1760 
L 2726 1760 
L 2726 4691 
L 2080 4691 
L 128 1677 
L 128 1293 
L 2176 1293 
L 2176 0 
z
M 2176 1760 
L 736 1760 
L 1805 3360 
C 1939 3590 2067 3827 2182 4051 
L 2208 4051 
C 2195 3814 2176 3430 2176 3200 
L 2176 1760 
z
" transform="scale(0.015625)"/>
     </defs>
     <use xlink:href="#NotoSansCJKjp-Regular-34"/>
    </g>
   </g>
   <g id="text_15">
    <!-- 16 -->
    <g style="fill: #ffffff" transform="translate(223.590395 161.625222) scale(0.105 -0.105)">
     <defs>
      <path id="NotoSansCJKjp-Regular-36" d="M 1926 -83 
C 2656 -83 3277 531 3277 1440 
C 3277 2426 2765 2912 1971 2912 
C 1606 2912 1197 2701 909 2349 
C 934 3802 1466 4294 2118 4294 
C 2400 4294 2682 4154 2861 3936 
L 3194 4294 
C 2931 4576 2579 4774 2093 4774 
C 1184 4774 358 4077 358 2240 
C 358 691 1030 -83 1926 -83 
z
M 922 1882 
C 1229 2317 1587 2477 1875 2477 
C 2445 2477 2720 2074 2720 1440 
C 2720 800 2374 378 1926 378 
C 1338 378 986 909 922 1882 
z
" transform="scale(0.015625)"/>
     </defs>
     <use xlink:href="#NotoSansCJKjp-Regular-31"/>
     <use xlink:href="#NotoSansCJKjp-Regular-36" transform="translate(55.499985 0)"/>
    </g>
   </g>
   <g id="text_16">
    <!-- 9 -->
    <g style="fill: #222222" transform="translate(295.947237 161.625222) scale(0.105 -0.105)">
     <defs>
      <path id="NotoSansCJKjp-Regular-39" d="M 1504 -83 
C 2381 -83 3206 646 3206 2547 
C 3206 4038 2528 4774 1626 4774 
C 896 4774 282 4166 282 3251 
C 282 2285 794 1779 1574 1779 
C 1965 1779 2368 2003 2656 2349 
C 2611 896 2086 403 1485 403 
C 1178 403 896 538 691 762 
L 371 397 
C 634 122 992 -83 1504 -83 
z
M 2650 2842 
C 2336 2394 1984 2214 1670 2214 
C 1114 2214 832 2624 832 3251 
C 832 3898 1178 4320 1632 4320 
C 2227 4320 2586 3808 2650 2842 
z
" transform="scale(0.015625)"/>
     </defs>
     <use xlink:href="#NotoSansCJKjp-Regular-39"/>
    </g>
   </g>
   <g id="text_17">
    <!-- 14 -->
    <g style="fill: #222222" transform="translate(362.476579 161.625222) scale(0.105 -0.105)">
     <use xlink:href="#NotoSansCJKjp-Regular-31"/>
     <use xlink:href="#NotoSansCJKjp-Regular-34" transform="translate(55.499985 0)"/>
    </g>
   </g>
   <g id="text_18">
    <!-- 2 -->
    <g style="fill: #702020" transform="translate(434.833421 161.625222) scale(0.105 -0.105)">
     <use xlink:href="#NotoSansCJKjp-Regular-32"/>
    </g>
   </g>
   <g id="text_19">
    <!-- 33 -->
    <g style="fill: #244c7a" transform="translate(501.362763 161.625222) scale(0.105 -0.105)">
     <use xlink:href="#NotoSansCJKjp-Regular-33"/>
     <use xlink:href="#NotoSansCJKjp-Regular-33" transform="translate(55.499985 0)"/>
    </g>
   </g>
   <g id="text_20">
    <!-- 22 -->
    <g style="fill: #702020" transform="translate(154.147303 231.068314) scale(0.105 -0.105)">
     <use xlink:href="#NotoSansCJKjp-Regular-32"/>
     <use xlink:href="#NotoSansCJKjp-Regular-32" transform="translate(55.499985 0)"/>
    </g>
   </g>
   <g id="text_21">
    <!-- 18 -->
    <g style="fill: #244c7a" transform="translate(293.033487 231.068314) scale(0.105 -0.105)">
     <use xlink:href="#NotoSansCJKjp-Regular-31"/>
     <use xlink:href="#NotoSansCJKjp-Regular-38" transform="translate(55.499985 0)"/>
    </g>
   </g>
   <g id="text_22">
    <!-- 15 -->
    <g style="fill: #6a5000" transform="translate(431.919671 231.068314) scale(0.105 -0.105)">
     <use xlink:href="#NotoSansCJKjp-Regular-31"/>
     <use xlink:href="#NotoSansCJKjp-Regular-35" transform="translate(55.499985 0)"/>
    </g>
   </g>
   <g id="text_23">
    <!-- 31 -->
    <g style="fill: #ffffff" transform="translate(84.704211 300.511406) scale(0.105 -0.105)">
     <use xlink:href="#NotoSansCJKjp-Regular-33"/>
     <use xlink:href="#NotoSansCJKjp-Regular-31" transform="translate(55.499985 0)"/>
    </g>
   </g>
   <g id="text_24">
    <!-- 3 -->
    <g style="fill: #244c7a" transform="translate(157.061053 300.511406) scale(0.105 -0.105)">
     <use xlink:href="#NotoSansCJKjp-Regular-33"/>
    </g>
   </g>
   <g id="text_25">
    <!-- 19 -->
    <g style="fill: #222222" transform="translate(223.590395 300.511406) scale(0.105 -0.105)">
     <use xlink:href="#NotoSansCJKjp-Regular-31"/>
     <use xlink:href="#NotoSansCJKjp-Regular-39" transform="translate(55.499985 0)"/>
    </g>
   </g>
   <g id="text_26">
    <!-- 5 -->
    <g style="fill: #6a5000" transform="translate(295.947237 300.511406) scale(0.105 -0.105)">
     <use xlink:href="#NotoSansCJKjp-Regular-35"/>
    </g>
   </g>
   <g id="text_27">
    <!-- 26 -->
    <g style="fill: #ffffff" transform="translate(362.476579 300.511406) scale(0.105 -0.105)">
     <use xlink:href="#NotoSansCJKjp-Regular-32"/>
     <use xlink:href="#NotoSansCJKjp-Regular-36" transform="translate(55.499985 0)"/>
    </g>
   </g>
   <g id="text_28">
    <!-- 7 -->
    <g style="fill: #702020" transform="translate(434.833421 300.511406) scale(0.105 -0.105)">
     <defs>
      <path id="NotoSansCJKjp-Regular-37" d="M 1267 0 
L 1875 0 
C 1952 1837 2150 2931 3251 4339 
L 3251 4691 
L 314 4691 
L 314 4192 
L 2592 4192 
C 1670 2912 1350 1779 1267 0 
z
" transform="scale(0.015625)"/>
     </defs>
     <use xlink:href="#NotoSansCJKjp-Regular-37"/>
    </g>
   </g>
   <g id="text_29">
    <!-- 25 -->
    <g style="fill: #6a5000" transform="translate(501.362763 300.511406) scale(0.105 -0.105)">
     <use xlink:href="#NotoSansCJKjp-Regular-32"/>
     <use xlink:href="#NotoSansCJKjp-Regular-35" transform="translate(55.499985 0)"/>
    </g>
   </g>
   <g id="text_30">
    <!-- 10 -->
    <g style="fill: #6a5000" transform="translate(154.147303 369.954498) scale(0.105 -0.105)">
     <use xlink:href="#NotoSansCJKjp-Regular-31"/>
     <use xlink:href="#NotoSansCJKjp-Regular-30" transform="translate(55.499985 0)"/>
    </g>
   </g>
   <g id="text_31">
    <!-- 17 -->
    <g style="fill: #702020" transform="translate(293.033487 369.954498) scale(0.105 -0.105)">
     <use xlink:href="#NotoSansCJKjp-Regular-31"/>
     <use xlink:href="#NotoSansCJKjp-Regular-37" transform="translate(55.499985 0)"/>
    </g>
   </g>
   <g id="text_32">
    <!-- 12 -->
    <g style="fill: #702020" transform="translate(431.919671 369.954498) scale(0.105 -0.105)">
     <use xlink:href="#NotoSansCJKjp-Regular-31"/>
     <use xlink:href="#NotoSansCJKjp-Regular-32" transform="translate(55.499985 0)"/>
    </g>
   </g>
   <g id="text_33">
    <!-- 29 -->
    <g style="fill: #222222" transform="translate(84.704211 439.39759) scale(0.105 -0.105)">
     <use xlink:href="#NotoSansCJKjp-Regular-32"/>
     <use xlink:href="#NotoSansCJKjp-Regular-39" transform="translate(55.499985 0)"/>
    </g>
   </g>
   <g id="text_34">
    <!-- 8 -->
    <g style="fill: #244c7a" transform="translate(157.061053 439.39759) scale(0.105 -0.105)">
     <use xlink:href="#NotoSansCJKjp-Regular-38"/>
    </g>
   </g>
   <g id="text_35">
    <!-- 11 -->
    <g style="fill: #ffffff" transform="translate(223.590395 439.39759) scale(0.105 -0.105)">
     <use xlink:href="#NotoSansCJKjp-Regular-31"/>
     <use xlink:href="#NotoSansCJKjp-Regular-31" transform="translate(55.499985 0)"/>
    </g>
   </g>
   <g id="text_36">
    <!-- 1 -->
    <g style="fill: #ffffff" transform="translate(295.947237 439.39759) scale(0.105 -0.105)">
     <use xlink:href="#NotoSansCJKjp-Regular-31"/>
    </g>
   </g>
   <g id="text_37">
    <!-- 24 -->
    <g style="fill: #222222" transform="translate(362.476579 439.39759) scale(0.105 -0.105)">
     <use xlink:href="#NotoSansCJKjp-Regular-32"/>
     <use xlink:href="#NotoSansCJKjp-Regular-34" transform="translate(55.499985 0)"/>
    </g>
   </g>
   <g id="text_38">
    <!-- 6 -->
    <g style="fill: #ffffff" transform="translate(434.833421 439.39759) scale(0.105 -0.105)">
     <use xlink:href="#NotoSansCJKjp-Regular-36"/>
    </g>
   </g>
   <g id="text_39">
    <!-- 30 -->
    <g style="fill: #6a5000" transform="translate(501.362763 439.39759) scale(0.105 -0.105)">
     <use xlink:href="#NotoSansCJKjp-Regular-33"/>
     <use xlink:href="#NotoSansCJKjp-Regular-30" transform="translate(55.499985 0)"/>
    </g>
   </g>
   <g id="text_40">
    <!-- 27 -->
    <g style="fill: #702020" transform="translate(154.147303 508.840683) scale(0.105 -0.105)">
     <use xlink:href="#NotoSansCJKjp-Regular-32"/>
     <use xlink:href="#NotoSansCJKjp-Regular-37" transform="translate(55.499985 0)"/>
    </g>
   </g>
   <g id="text_41">
    <!-- 32 -->
    <g style="fill: #702020" transform="translate(293.033487 508.840683) scale(0.105 -0.105)">
     <use xlink:href="#NotoSansCJKjp-Regular-33"/>
     <use xlink:href="#NotoSansCJKjp-Regular-32" transform="translate(55.499985 0)"/>
    </g>
   </g>
   <g id="text_42">
    <!-- 13 -->
    <g style="fill: #244c7a" transform="translate(431.919671 508.840683) scale(0.105 -0.105)">
     <use xlink:href="#NotoSansCJKjp-Regular-31"/>
     <use xlink:href="#NotoSansCJKjp-Regular-33" transform="translate(55.499985 0)"/>
    </g>
   </g>
   <g id="text_43">
    <!-- Nakseo Ogudo (Five-Each-Gets) Global Grid Network Visualization -->
    <g transform="translate(85.013174 18.651562) scale(0.14 -0.14)">
     <defs>
      <path id="NotoSansCJKjp-Regular-4e" d="M 646 0 
L 1203 0 
L 1203 2464 
C 1203 2957 1158 3456 1133 3930 
L 1158 3930 
L 1664 2963 
L 3373 0 
L 3981 0 
L 3981 4691 
L 3418 4691 
L 3418 2253 
C 3418 1766 3462 1235 3501 768 
L 3469 768 
L 2963 1734 
L 1248 4691 
L 646 4691 
L 646 0 
z
" transform="scale(0.015625)"/>
      <path id="NotoSansCJKjp-Regular-61" d="M 1389 -83 
C 1818 -83 2208 141 2541 416 
L 2560 416 
L 2611 0 
L 3091 0 
L 3091 2138 
C 3091 3002 2739 3565 1888 3565 
C 1325 3565 838 3315 525 3110 
L 749 2707 
C 1024 2893 1389 3078 1792 3078 
C 2362 3078 2509 2650 2509 2202 
C 1030 2035 378 1658 378 902 
C 378 275 806 -83 1389 -83 
z
M 1555 390 
C 1210 390 941 544 941 941 
C 941 1389 1338 1677 2509 1811 
L 2509 845 
C 2170 544 1888 390 1555 390 
z
" transform="scale(0.015625)"/>
      <path id="NotoSansCJKjp-Regular-6b" d="M 589 0 
L 1165 0 
L 1165 915 
L 1818 1677 
L 2835 0 
L 3469 0 
L 2157 2074 
L 3315 3475 
L 2662 3475 
L 1190 1645 
L 1165 1645 
L 1165 5094 
L 589 5094 
L 589 0 
z
" transform="scale(0.015625)"/>
      <path id="NotoSansCJKjp-Regular-73" d="M 1498 -83 
C 2317 -83 2758 384 2758 947 
C 2758 1606 2208 1811 1702 2003 
C 1312 2150 954 2278 954 2605 
C 954 2880 1158 3110 1600 3110 
C 1907 3110 2150 2976 2387 2803 
L 2669 3168 
C 2406 3386 2022 3565 1594 3565 
C 832 3565 397 3130 397 2579 
C 397 1984 922 1754 1408 1574 
C 1792 1434 2202 1267 2202 915 
C 2202 614 1978 371 1517 371 
C 1101 371 794 538 486 787 
L 205 397 
C 531 122 1005 -83 1498 -83 
z
" transform="scale(0.015625)"/>
      <path id="NotoSansCJKjp-Regular-4f" d="M 2374 -83 
C 3552 -83 4378 858 4378 2362 
C 4378 3866 3552 4774 2374 4774 
C 1197 4774 371 3866 371 2362 
C 371 858 1197 -83 2374 -83 
z
M 2374 435 
C 1530 435 979 1190 979 2362 
C 979 3533 1530 4256 2374 4256 
C 3219 4256 3770 3533 3770 2362 
C 3770 1190 3219 435 2374 435 
z
" transform="scale(0.015625)"/>
      <path id="NotoSansCJKjp-Regular-46" d="M 646 0 
L 1235 0 
L 1235 2106 
L 3027 2106 
L 3027 2605 
L 1235 2605 
L 1235 4192 
L 3347 4192 
L 3347 4691 
L 646 4691 
L 646 0 
z
" transform="scale(0.015625)"/>
      <path id="NotoSansCJKjp-Regular-76" d="M 1338 0 
L 2022 0 
L 3251 3475 
L 2675 3475 
L 2016 1498 
C 1914 1158 1798 806 1696 474 
L 1664 474 
C 1562 806 1453 1158 1344 1498 
L 691 3475 
L 83 3475 
L 1338 0 
z
" transform="scale(0.015625)"/>
      <path id="NotoSansCJKjp-Regular-2d" d="M 294 1568 
L 1933 1568 
L 1933 2016 
L 294 2016 
L 294 1568 
z
" transform="scale(0.015625)"/>
      <path id="NotoSansCJKjp-Regular-45" d="M 646 0 
L 3418 0 
L 3418 506 
L 1235 506 
L 1235 2214 
L 3014 2214 
L 3014 2720 
L 1235 2720 
L 1235 4192 
L 3347 4192 
L 3347 4691 
L 646 4691 
L 646 0 
z
" transform="scale(0.015625)"/>
      <path id="NotoSansCJKjp-Regular-63" d="M 1958 -83 
C 2374 -83 2771 83 3085 352 
L 2829 749 
C 2611 557 2330 403 2010 403 
C 1370 403 934 934 934 1734 
C 934 2534 1395 3072 2029 3072 
C 2298 3072 2522 2950 2720 2771 
L 3014 3155 
C 2771 3373 2458 3565 2003 3565 
C 1107 3565 333 2893 333 1734 
C 333 582 1037 -83 1958 -83 
z
" transform="scale(0.015625)"/>
      <path id="NotoSansCJKjp-Regular-47" d="M 2490 -83 
C 3117 -83 3635 147 3936 461 
L 3936 2432 
L 2394 2432 
L 2394 1939 
L 3392 1939 
L 3392 710 
C 3206 538 2880 435 2547 435 
C 1542 435 979 1178 979 2362 
C 979 3533 1594 4256 2541 4256 
C 3008 4256 3315 4058 3552 3814 
L 3872 4198 
C 3603 4480 3174 4774 2522 4774 
C 1280 4774 371 3859 371 2342 
C 371 819 1254 -83 2490 -83 
z
" transform="scale(0.015625)"/>
      <path id="NotoSansCJKjp-Regular-62" d="M 2118 -83 
C 2912 -83 3629 602 3629 1792 
C 3629 2867 3142 3565 2246 3565 
C 1856 3565 1472 3347 1152 3078 
L 1178 3699 
L 1178 5094 
L 589 5094 
L 589 0 
L 1056 0 
L 1107 358 
L 1133 358 
C 1434 83 1798 -83 2118 -83 
z
M 2022 410 
C 1792 410 1478 499 1178 768 
L 1178 2598 
C 1504 2906 1811 3072 2099 3072 
C 2765 3072 3021 2560 3021 1786 
C 3021 928 2598 410 2022 410 
z
" transform="scale(0.015625)"/>
      <path id="NotoSansCJKjp-Regular-56" d="M 1504 0 
L 2189 0 
L 3680 4691 
L 3078 4691 
L 2323 2150 
C 2163 1600 2048 1152 1869 602 
L 1843 602 
C 1670 1152 1549 1600 1389 2150 
L 627 4691 
L 6 4691 
L 1504 0 
z
" transform="scale(0.015625)"/>
      <path id="NotoSansCJKjp-Regular-7a" d="M 224 0 
L 2854 0 
L 2854 474 
L 960 474 
L 2797 3162 
L 2797 3475 
L 422 3475 
L 422 3002 
L 2054 3002 
L 224 314 
L 224 0 
z
" transform="scale(0.015625)"/>
     </defs>
     <use xlink:href="#NotoSansCJKjp-Regular-4e"/>
     <use xlink:href="#NotoSansCJKjp-Regular-61" transform="translate(72.299988 0)"/>
     <use xlink:href="#NotoSansCJKjp-Regular-6b" transform="translate(128.599976 0)"/>
     <use xlink:href="#NotoSansCJKjp-Regular-73" transform="translate(183.799973 0)"/>
     <use xlink:href="#NotoSansCJKjp-Regular-65" transform="translate(230.59996 0)"/>
     <use xlink:href="#NotoSansCJKjp-Regular-6f" transform="translate(285.999954 0)"/>
     <use xlink:href="#NotoSansCJKjp-Regular-20" transform="translate(346.599945 0)"/>
     <use xlink:href="#NotoSansCJKjp-Regular-4f" transform="translate(368.999939 0)"/>
     <use xlink:href="#NotoSansCJKjp-Regular-67" transform="translate(443.199921 0)"/>
     <use xlink:href="#NotoSansCJKjp-Regular-75" transform="translate(499.599915 0)"/>
     <use xlink:href="#NotoSansCJKjp-Regular-64" transform="translate(560.299911 0)"/>
     <use xlink:href="#NotoSansCJKjp-Regular-6f" transform="translate(622.299896 0)"/>
     <use xlink:href="#NotoSansCJKjp-Regular-20" transform="translate(682.899887 0)"/>
     <use xlink:href="#NotoSansCJKjp-Regular-28" transform="translate(705.299881 0)"/>
     <use xlink:href="#NotoSansCJKjp-Regular-46" transform="translate(739.099869 0)"/>
     <use xlink:href="#NotoSansCJKjp-Regular-69" transform="translate(794.299866 0)"/>
     <use xlink:href="#NotoSansCJKjp-Regular-76" transform="translate(821.79985 0)"/>
     <use xlink:href="#NotoSansCJKjp-Regular-65" transform="translate(873.899841 0)"/>
     <use xlink:href="#NotoSansCJKjp-Regular-2d" transform="translate(929.299835 0)"/>
     <use xlink:href="#NotoSansCJKjp-Regular-45" transform="translate(963.999832 0)"/>
     <use xlink:href="#NotoSansCJKjp-Regular-61" transform="translate(1022.899826 0)"/>
     <use xlink:href="#NotoSansCJKjp-Regular-63" transform="translate(1079.199814 0)"/>
     <use xlink:href="#NotoSansCJKjp-Regular-68" transform="translate(1130.199799 0)"/>
     <use xlink:href="#NotoSansCJKjp-Regular-2d" transform="translate(1190.899796 0)"/>
     <use xlink:href="#NotoSansCJKjp-Regular-47" transform="translate(1225.599792 0)"/>
     <use xlink:href="#NotoSansCJKjp-Regular-65" transform="translate(1294.499786 0)"/>
     <use xlink:href="#NotoSansCJKjp-Regular-74" transform="translate(1349.89978 0)"/>
     <use xlink:href="#NotoSansCJKjp-Regular-73" transform="translate(1387.599777 0)"/>
     <use xlink:href="#NotoSansCJKjp-Regular-29" transform="translate(1434.399765 0)"/>
     <use xlink:href="#NotoSansCJKjp-Regular-20" transform="translate(1468.199753 0)"/>
     <use xlink:href="#NotoSansCJKjp-Regular-47" transform="translate(1490.599747 0)"/>
     <use xlink:href="#NotoSansCJKjp-Regular-6c" transform="translate(1559.499741 0)"/>
     <use xlink:href="#NotoSansCJKjp-Regular-6f" transform="translate(1587.899734 0)"/>
     <use xlink:href="#NotoSansCJKjp-Regular-62" transform="translate(1648.499725 0)"/>
     <use xlink:href="#NotoSansCJKjp-Regular-61" transform="translate(1710.299713 0)"/>
     <use xlink:href="#NotoSansCJKjp-Regular-6c" transform="translate(1766.599701 0)"/>
     <use xlink:href="#NotoSansCJKjp-Regular-20" transform="translate(1794.999695 0)"/>
     <use xlink:href="#NotoSansCJKjp-Regular-47" transform="translate(1817.399689 0)"/>
     <use xlink:href="#NotoSansCJKjp-Regular-72" transform="translate(1886.299683 0)"/>
     <use xlink:href="#NotoSansCJKjp-Regular-69" transform="translate(1925.09967 0)"/>
     <use xlink:href="#NotoSansCJKjp-Regular-64" transform="translate(1952.599655 0)"/>
     <use xlink:href="#NotoSansCJKjp-Regular-20" transform="translate(2014.59964 0)"/>
     <use xlink:href="#NotoSansCJKjp-Regular-4e" transform="translate(2036.999634 0)"/>
     <use xlink:href="#NotoSansCJKjp-Regular-65" transform="translate(2109.299622 0)"/>
     <use xlink:href="#NotoSansCJKjp-Regular-74" transform="translate(2164.699615 0)"/>
     <use xlink:href="#NotoSansCJKjp-Regular-77" transform="translate(2202.399612 0)"/>
     <use xlink:href="#NotoSansCJKjp-Regular-6f" transform="translate(2282.599594 0)"/>
     <use xlink:href="#NotoSansCJKjp-Regular-72" transform="translate(2343.199585 0)"/>
     <use xlink:href="#NotoSansCJKjp-Regular-6b" transform="translate(2381.999573 0)"/>
     <use xlink:href="#NotoSansCJKjp-Regular-20" transform="translate(2437.19957 0)"/>
     <use xlink:href="#NotoSansCJKjp-Regular-56" transform="translate(2459.599564 0)"/>
     <use xlink:href="#NotoSansCJKjp-Regular-69" transform="translate(2517.099548 0)"/>
     <use xlink:href="#NotoSansCJKjp-Regular-73" transform="translate(2544.599533 0)"/>
     <use xlink:href="#NotoSansCJKjp-Regular-75" transform="translate(2591.399521 0)"/>
     <use xlink:href="#NotoSansCJKjp-Regular-61" transform="translate(2652.099518 0)"/>
     <use xlink:href="#NotoSansCJKjp-Regular-6c" transform="translate(2708.399506 0)"/>
     <use xlink:href="#NotoSansCJKjp-Regular-69" transform="translate(2736.7995 0)"/>
     <use xlink:href="#NotoSansCJKjp-Regular-7a" transform="translate(2764.299484 0)"/>
     <use xlink:href="#NotoSansCJKjp-Regular-61" transform="translate(2811.799469 0)"/>
     <use xlink:href="#NotoSansCJKjp-Regular-74" transform="translate(2868.099457 0)"/>
     <use xlink:href="#NotoSansCJKjp-Regular-69" transform="translate(2905.799454 0)"/>
     <use xlink:href="#NotoSansCJKjp-Regular-6f" transform="translate(2933.299438 0)"/>
     <use xlink:href="#NotoSansCJKjp-Regular-6e" transform="translate(2993.899429 0)"/>
    </g>
   </g>
  </g>
 </g>
 <defs>
  <clipPath id="pb378e3bf0b">
   <rect x="7.2" y="33.651562" width="583.321974" height="527.7675"/>
  </clipPath>
 </defs>
</svg>
